<svg width="54" height="59" viewBox="0 0 54 59" fill="none" xmlns="http://www.w3.org/2000/svg">
<path d="M17.1368 49.8032C18.1019 50.2015 21.6715 50.4015 22.0997 50.1409C22.1037 50.1379 22.1079 50.1351 22.1123 50.1324C22.7179 50.8935 23.8499 51.8945 23.9969 53.4785H11.4453C11.7754 50.7289 16.1614 49.4005 17.1368 49.8032Z" fill="black"/>
<path d="M22.1123 50.1324C21.7479 50.4058 18.1122 50.2058 17.1368 49.8032C16.1614 49.4005 11.7754 50.7289 11.4453 53.4785H23.9969C23.8499 51.8945 22.7179 50.8935 22.1123 50.1324ZM22.1123 50.1324C21.8008 50.3281 22.4235 50.8955 22.1123 50.7106M22.1123 50.7106C22.7731 51.2596 23.1567 51.8597 23.3555 52.7701H12.0789C12.7925 50.6882 17.836 49.8957 22.1123 50.7106Z" stroke="black"/>
<path d="M19.8526 50.5391L22.1157 50.71C22.8035 51.3369 23.0927 51.7635 23.3327 52.756H12.9355C13.4595 51.5582 14.1199 51.2819 15.5899 51.1015C17.3291 51.248 18.2964 51.3538 20.1747 51.1015C20.0864 50.8827 19.9971 50.7628 19.8526 50.5391Z" fill="#FA3224"/>
<path d="M17.37 50.581C18.429 50.9055 19.8153 50.5464 19.8527 50.5372C20.0028 50.6604 20.0552 50.8391 20.1932 51.1089C18.5763 51.3374 17.5051 51.3106 15.61 51.1089C14.2053 51.2625 13.588 51.5281 12.9234 52.7477H12.1113C12.6545 50.4068 16.311 50.2565 17.37 50.581Z" fill="white"/>
<path d="M12.516 52.7594H12.3535C12.6399 51.9938 12.9083 51.8394 13.3963 51.5918C12.9429 51.9384 12.7043 52.1489 12.516 52.7594Z" fill="black" stroke="black"/>
<path d="M29.4222 23.8114C27.8436 22.3469 27.3879 21.4213 26.1285 18.834C25.5412 19.5775 25.4115 20.4119 25.5678 22.6303C25.0599 23.5491 24.6964 23.6811 24.026 23.8114C23.2441 25.306 22.5245 25.7417 20.9426 26.0891C17.9867 25.8733 16.3973 25.5802 13.6544 24.8237C0.0734854 45.6794 28.2042 57.0239 36.4098 55.0586C37.5302 55.0101 38.6507 55.0383 39.4905 54.0973C41.3037 52.8588 38.7958 45.5586 38.4623 44.5644C39.284 36.9595 37.9297 32.4873 29.4222 23.8114Z" fill="#FA3224" stroke="black"/>
<path d="M27.7221 25.267C26.6582 23.4184 26.4196 22.2825 26.2871 20.1758C28.8246 23.7424 30.6607 25.8834 34.3209 29.7684C39.0077 36.45 39.1579 38.4409 38.0988 44.4626L37.7313 44.7471C37.5566 44.9303 37.3838 45.1108 37.3765 45.0217C36.8796 38.9607 36.6064 36.0475 33.2944 31.3572L31.6813 30.4745C31.0681 30.0729 30.6864 29.6948 29.995 28.9741C31.1027 29.5843 31.6401 29.7416 32.4879 29.7684L32.4579 29.7447C30.5334 28.2207 29.4455 27.3592 27.7221 25.267Z" fill="white"/>
<path d="M41.5466 2.32759C36.1785 0.520476 28.0455 8.88183 29.3949 23.6025C38.1938 32.8492 41.3617 41.1624 37.9455 47.1582C36.9928 48.8304 33.6638 55.7537 34.0307 55.3619C34.0307 55.3619 36.9007 55.8107 39.3757 54.3378C41.8508 52.865 47.6614 44.7647 48.1059 35.6508C47.073 36.7278 45.9011 40.1048 45.6563 40.3664C47.1175 32.5451 47.5292 34.2824 45.2711 28.2428C45.0793 28.1753 42.7213 19.7564 44.1231 20.0117C43.6497 20.8463 49.9151 25.1881 52.4427 20.3539C56.183 9.65192 48.5916 2.36862 39.606 4.81297C39.7242 4.03902 40.2766 3.32854 41.5466 2.32759Z" fill="#FD2B20" stroke="black"/>
<path d="M29.7987 23.357L30.1998 23.7742C30.5861 15.0841 31.6532 12.0964 34.5585 8.61047C33.6587 11.2467 33.3723 12.7526 33.456 15.5185C39.8715 1.95504 44.4502 5.54463 51.6132 9.55981C49.026 5.11168 46.675 3.3044 39.0693 5.47768C39.3095 4.97988 39.756 3.28925 40.4641 2.62033C35.9079 2.24225 28.1316 7.52249 29.7987 23.357Z" fill="white"/>
<path d="M8.56595 21.3792C7.20352 19.2901 6.98712 19.1319 7.15743 17.8183C8.40606 14.2944 8.90979 13.1905 10.6085 11.0358C13.8578 8.10891 15.9772 7.49315 20.1867 7.89881C19.8625 8.74235 19.7183 9.13438 19.6233 9.50968C19.8868 9.42549 20.0193 9.48048 20.1867 9.93359C20.6046 7.61 21.2075 6.81789 22.37 5.52488C24.6974 4.17165 25.8812 3.41135 27.5112 2.04883C27.0238 3.49963 26.9434 4.25722 27.0887 5.52488C27.4466 10.8653 26.3523 11.9417 24.5533 14.0879L24.5763 14.0826C25.1082 13.9585 25.4136 13.8873 25.6801 13.664C26.4762 15.6114 26.7439 16.8327 27.5112 18.5814C28.2785 20.3301 25.6618 18.4024 25.6801 19.4292C26.0956 21.0031 25.9771 21.6745 25.6801 22.8205C25.1455 23.548 24.778 23.5853 24.0603 23.3292C22.3149 27.0953 20.5681 26.3632 17.5809 25.5335C15.8975 24.7041 14.9047 24.7279 13.1439 24.6857C12.3612 24.6893 11.9818 24.587 10.6085 24.0922C9.05026 23.1254 8.92578 22.4327 8.56595 21.3792Z" fill="#FA3224" stroke="black"/>
<path d="M19.5723 8.36369L19.311 9.01712C11.9866 9.95011 10.7733 12.2282 8.57451 16.3566L8.56194 16.3802C12.5686 16.4054 14.9206 17.2628 15.7839 21.1451C16.4493 22.7155 16.8518 23.7529 17.8332 25.1073C16.6007 24.5993 15.787 24.3648 14.0069 24.1899C11.6427 24.3214 10.2426 23.6647 9.46481 22.4911C13.1954 23.2272 14.0514 22.8392 14.5687 22.2319C12.012 22.223 10.1674 22.7024 8.56194 20.5815C8.56363 20.1845 8.94026 19.7771 9.22164 19.3896C10.814 17.7205 10.4864 17.2327 7.83203 17.1243C10.4217 9.98632 12.9979 7.8758 19.5723 8.36369Z" fill="white"/>
<path d="M26.6359 3.85781C26.6513 3.64983 26.6699 3.52869 26.7119 3.30859C25.1132 4.43806 24.2011 5.04284 22.5139 6.00736C20.9046 7.87677 20.5559 9.14876 20.3301 11.578C20.7627 10.1169 21.1433 8.36223 22.8313 6.35115C24.472 5.30827 25.3274 4.848 26.6359 3.85781Z" fill="white"/>
<path d="M9.48135 22.4896C12.8224 23.1173 13.9116 23.0488 14.5781 22.2453C11.7832 22.25 10.5348 21.7796 8.61002 20.6072C10.5158 18.2495 11.3962 17.0192 7.86997 17.1299L7.58348 17.9346C7.23507 18.8235 7.75201 19.6095 8.93233 21.1102C9.09861 21.6773 9.21519 21.9829 9.48135 22.4896Z" fill="black"/>
<path d="M20.2529 13.4314C17.8024 12.6198 17.1079 12.8111 15.8823 15.7082C15.8091 15.6668 15.7366 15.6775 15.5996 15.7082C16.8701 12.674 18.1104 12.3377 20.2529 13.4314Z" fill="white"/>
<path d="M20.0365 17.5565C20.5028 17.1444 20.6589 16.7304 20.6591 15.5352C20.7994 15.5916 20.8282 15.5842 20.9211 15.7919C21.0805 17.0969 20.9319 17.2867 20.0365 18.1287C18.6705 18.9725 17.9604 19.0022 16.7087 18.1287C16.6103 17.8738 16.6258 17.7835 16.7088 17.5865C17.8937 18.5253 18.6357 18.4513 20.0365 17.5565Z" fill="white"/>
<path d="M20.1413 13.7724C17.9755 12.9105 17.0597 13.2382 16.2484 16.0889C16.2003 16.6917 16.1364 17.0072 16.002 17.5574C15.9835 17.8123 16.0244 17.9002 16.2484 17.8868C16.4011 17.6762 16.4981 17.5966 16.7212 17.5574C17.4259 18.079 17.6568 18.4151 18.5298 18.3743C21.0942 17.3362 20.4994 16.8139 20.6529 15.5053C20.8109 15.4477 20.9697 15.2434 21.126 14.9922C21.2414 15.1028 21.2478 15.2836 21.4241 15.3699C21.3587 14.9956 21.2608 14.8364 20.9154 14.7043C20.6949 14.2676 20.5185 14.0659 20.1413 13.7724Z" fill="black" stroke="black"/>
<path d="M17.4779 17.1647C17.2959 17.0697 17.2436 16.9961 17.2507 16.8149C17.3499 16.6418 17.4309 16.5917 17.6352 16.5941C17.8036 16.6496 17.8804 16.6981 17.8636 16.938C17.8111 17.1102 17.7637 17.1914 17.4779 17.1647Z" fill="white"/>
<path d="M18.3635 15.8654C17.8188 15.7526 17.6367 15.595 17.5566 15.0985C17.7303 14.5512 17.9221 14.351 18.4768 14.1953C18.9632 14.2119 19.1977 14.2822 19.2837 14.9451C19.2359 15.453 19.1521 15.7107 18.3635 15.8654Z" fill="white"/>
<path d="M12.918 20.117C16.8632 19.8211 19.053 20.1704 22.9363 21.3678" stroke="black" stroke-width="0.5" stroke-linecap="round"/>
<path d="M12.918 21.1465C17.5865 21.4358 20.1512 24.0583 21.3555 25.3683" stroke="black" stroke-width="0.5" stroke-linecap="round"/>
<path d="M7.10757 19.9347C4.76508 19.5127 3.45067 19.4897 1.09766 20.3822" stroke="black" stroke-width="0.5" stroke-linecap="round"/>
<path d="M7.474 20.3809C4.95195 20.6534 4.42857 20.8325 2.18359 22.3575" stroke="black" stroke-width="0.5" stroke-linecap="round"/>
<path d="M16.8029 3.52871C17.3208 4.49592 17.4451 5.3608 17.3498 7.4405C15.3725 7.71261 14.2397 8.12941 12.2344 9.33669C12.9774 5.80552 13.7016 3.96817 17.0164 1.62695C16.9753 2.28141 16.9199 2.71505 16.8029 3.52871Z" fill="#FA3224" stroke="black" stroke-linecap="round"/>
<path d="M13.1043 8.45614C14.216 6.05648 14.9516 4.87829 16.571 3.12889C16.6243 2.76288 16.6597 2.55145 16.6798 2.26562C14.9317 3.66954 13.6715 3.99781 12.6445 8.75623L13.1043 8.45614Z" fill="white"/>
<path d="M31.4894 41.791C33.7309 42.0523 34.6975 42.9778 36.1185 45.4281C36.2776 46.3727 36.2618 46.9194 36.1185 47.9165C35.9633 47.3532 35.8724 47.0289 35.6355 46.2376C34.6152 43.9311 33.9836 42.727 31.4894 42.6077C29.0394 42.7997 27.7662 43.72 27.08 47.4174C26.9175 48.9331 27.0974 49.8821 28.2479 52.4539C29.1055 53.6021 29.7507 54.1254 31.1125 54.9041C30.9203 55.0478 30.6254 55.0369 29.8687 54.9041C25.7547 54.3652 24.594 55.1663 23.7175 56.9636H34.9942C34.7954 56.0532 34.4117 55.4531 33.7509 54.9041C34.0622 55.089 34.231 55.0999 34.5425 54.9041L34.5491 54.9125C35.1506 55.6684 35.4891 56.0938 35.6355 57.6719H23.084C23.4141 54.9224 24.1078 53.7343 28.7755 53.9966C28.2624 53.4444 27.9786 53.1302 27.5693 52.4539C26.6628 50.139 26.2655 48.6122 26.514 47.4174C27.1904 43.8984 27.9401 42.1844 31.4894 41.791Z" fill="black" stroke="black"/>
<path d="M31.4913 54.7324L33.7544 54.9033C34.4421 55.5303 34.7314 55.9569 34.9714 56.9494H24.5742C25.0981 55.7515 25.7586 55.4752 27.2286 55.2949C28.9678 55.4413 29.9351 55.5471 31.8134 55.2949C31.7251 55.076 31.6357 54.9561 31.4913 54.7324Z" fill="#FA3224"/>
<path d="M36.0991 47.9508L36.1024 47.9676C35.4365 46.3334 35.1139 45.4043 33.7569 43.9452C31.4339 42.4128 30.3021 42.3702 28.6981 44.2727C27.8988 45.9436 27.5485 46.9874 27.8546 49.8711C28.1057 51.1684 28.2945 51.8862 29.4455 52.9987C30.921 53.8199 31.2981 54.3456 31.8319 55.3042C30.1809 55.4799 29.1133 55.4587 27.2486 55.3042C25.844 55.4578 25.2267 55.7234 24.562 56.943H23.75C24.2931 54.6021 27.9497 54.4518 29.0087 54.7763C29.8394 55.0309 30.8739 54.9379 31.1504 54.909C30.8083 54.8773 29.4814 53.9016 28.6981 52.9987C27.8825 52.0817 27.5994 51.3842 27.2486 49.8711C26.7764 47.7391 26.5414 46.5468 28.3764 43.9452C29.7469 42.0163 31.5511 42.1111 33.9884 43.356C35.4408 44.5696 35.6555 45.672 36.0991 47.9508Z" fill="white"/>
<path d="M24.1546 56.9528H23.9922C24.2786 56.1871 24.547 56.0328 25.0349 55.7852C24.5815 56.1318 24.343 56.3422 24.1546 56.9528Z" fill="black" stroke="black"/>
<path d="M16.576 27.1094C11.4524 28.0342 8.80851 28.9191 4.58678 31.26C4.53822 45.4816 6.56316 51.7613 16.576 57.6731C28.0108 50.3119 28.9991 43.7995 28.6436 31.26C24.1597 28.8498 21.5483 27.8419 16.576 27.1094Z" fill="#010012" stroke="#008CFF"/>
<path d="M10.576 47.0373L10.123 45.1636H10.5388L10.7736 46.3914H10.7865L11.0548 45.1636H11.3938L11.662 46.3941H11.675L11.9105 45.1636H12.3255L11.8733 47.0373H11.5108L11.2304 45.901H11.2182L10.9378 47.0373H10.576Z" fill="#FD2B20"/>
<path d="M12.897 47.0638C12.7749 47.0638 12.6695 47.0349 12.5809 46.9769C12.4927 46.9184 12.4248 46.8351 12.3772 46.7272C12.3301 46.6186 12.3065 46.4896 12.3065 46.3402C12.3065 46.195 12.3303 46.0681 12.3779 45.9596C12.4256 45.8504 12.4927 45.7656 12.5793 45.7052C12.666 45.6442 12.7681 45.6137 12.8856 45.6137C12.9687 45.6137 13.0447 45.6293 13.1136 45.6604C13.1825 45.6915 13.2421 45.7376 13.2922 45.7985C13.3424 45.8595 13.3814 45.9349 13.4093 46.0245C13.4371 46.1136 13.4511 46.2157 13.4511 46.331V46.4426H12.4365V46.1828H13.1053C13.1048 46.1352 13.0954 46.0928 13.0771 46.0556C13.0589 46.0184 13.0338 45.9895 13.0019 45.9687C12.9705 45.9474 12.9343 45.9367 12.8932 45.9367C12.8517 45.9367 12.8144 45.948 12.7815 45.9705C12.7486 45.9925 12.7225 46.0227 12.7032 46.0611C12.684 46.0989 12.6738 46.1419 12.6728 46.1901V46.4545C12.6728 46.5119 12.6822 46.5622 12.7009 46.6055C12.7197 46.6482 12.7463 46.6814 12.7807 46.7052C12.8152 46.729 12.8562 46.7409 12.9039 46.7409C12.9368 46.7409 12.9667 46.7354 12.9935 46.7244C13.0204 46.7134 13.0434 46.6973 13.0627 46.6759C13.082 46.6546 13.0964 46.6284 13.106 46.5972L13.4473 46.6091C13.4331 46.7012 13.4019 46.7814 13.3538 46.8498C13.3062 46.9175 13.2436 46.9702 13.1661 47.008C13.0885 47.0452 12.9989 47.0638 12.897 47.0638Z" fill="#FD2B20"/>
<path d="M13.6409 47.0373V45.1636H14.0125V45.8727H14.0201C14.0353 45.83 14.0568 45.7888 14.0847 45.7491C14.1131 45.7095 14.149 45.6772 14.1926 45.6522C14.2367 45.6265 14.2894 45.6137 14.3507 45.6137C14.4318 45.6137 14.5075 45.6394 14.5779 45.6906C14.6489 45.7418 14.7061 45.8208 14.7497 45.9275C14.7933 46.0343 14.8151 46.1703 14.8151 46.3356C14.8151 46.4948 14.794 46.628 14.752 46.7354C14.7104 46.8427 14.6542 46.9233 14.5833 46.9769C14.5128 47.0306 14.4345 47.0574 14.3484 47.0574C14.2896 47.0574 14.2387 47.0458 14.1957 47.0227C14.1526 46.9995 14.1164 46.969 14.087 46.9312C14.0581 46.8934 14.0358 46.8528 14.0201 46.8095H14.0087V47.0373H13.6409ZM14.0049 46.3347C14.0049 46.4103 14.0133 46.4762 14.03 46.5323C14.0472 46.5884 14.0718 46.632 14.1037 46.6631C14.1361 46.6936 14.1749 46.7089 14.22 46.7089C14.2656 46.7089 14.3043 46.6936 14.3363 46.6631C14.3682 46.632 14.3922 46.5884 14.4085 46.5323C14.4252 46.4762 14.4335 46.4103 14.4335 46.3347C14.4335 46.259 14.4252 46.1935 14.4085 46.138C14.3922 46.0825 14.3682 46.0395 14.3363 46.009C14.3048 45.9785 14.2661 45.9632 14.22 45.9632C14.1744 45.9632 14.1356 45.9782 14.1037 46.0081C14.0718 46.0379 14.0472 46.0806 14.03 46.1361C14.0133 46.1916 14.0049 46.2578 14.0049 46.3347Z" fill="#FD2B20"/>
<path d="M15.8511 45.7254C15.846 45.6583 15.8235 45.6061 15.7835 45.5689C15.744 45.5311 15.6875 45.5122 15.614 45.5122C15.5654 45.5122 15.5248 45.5198 15.4924 45.5351C15.46 45.5503 15.4356 45.5713 15.4194 45.5982C15.4032 45.6244 15.3949 45.6546 15.3944 45.6888C15.3933 45.7168 15.3979 45.7415 15.408 45.7629C15.4187 45.7842 15.4339 45.8031 15.4536 45.8196C15.4739 45.8354 15.4982 45.8495 15.5266 45.8617C15.555 45.8739 15.5869 45.8845 15.6224 45.8937L15.7561 45.9303C15.8331 45.9504 15.901 45.9773 15.9598 46.0108C16.0191 46.0443 16.0687 46.0843 16.1087 46.1307C16.1493 46.177 16.1799 46.2304 16.2007 46.2908C16.2215 46.3511 16.2321 46.4188 16.2326 46.4939C16.2321 46.6122 16.2073 46.7137 16.1581 46.7985C16.109 46.8833 16.0383 46.9483 15.9461 46.9934C15.8544 47.0385 15.7437 47.0611 15.614 47.0611C15.4838 47.0611 15.3703 47.0376 15.2735 46.9906C15.1767 46.9437 15.1015 46.8723 15.0478 46.7766C14.9941 46.6808 14.9665 46.5597 14.965 46.4134H15.3252C15.3282 46.4737 15.3417 46.5241 15.3655 46.5643C15.3893 46.6046 15.422 46.6351 15.4635 46.6558C15.5056 46.6765 15.5542 46.6869 15.6094 46.6869C15.6601 46.6869 15.7032 46.6787 15.7386 46.6622C15.7746 46.6457 15.8022 46.6229 15.8215 46.5936C15.8407 46.5643 15.8506 46.5308 15.8511 46.4929C15.8506 46.4576 15.8415 46.4274 15.8238 46.4024C15.806 46.3768 15.7787 46.3548 15.7417 46.3365C15.7052 46.3176 15.6586 46.3002 15.6018 46.2844L15.4392 46.2386C15.3044 46.2014 15.1983 46.1413 15.1208 46.0584C15.0432 45.9748 15.0047 45.862 15.0052 45.7199C15.0047 45.604 15.0306 45.5024 15.0828 45.4152C15.1349 45.328 15.2071 45.26 15.2994 45.2112C15.3916 45.1624 15.4967 45.138 15.6148 45.138C15.7353 45.138 15.84 45.1627 15.9286 45.2121C16.0178 45.2609 16.087 45.3295 16.1361 45.418C16.1853 45.5064 16.2103 45.6089 16.2113 45.7254H15.8511Z" fill="#FD2B20"/>
<path d="M17.1849 47.5643V46.8095H17.1773C17.1616 46.8528 17.1393 46.8934 17.1104 46.9312C17.0815 46.969 17.0453 46.9995 17.0017 47.0227C16.9587 47.0458 16.9078 47.0574 16.849 47.0574C16.7629 47.0574 16.6846 47.0306 16.6141 46.9769C16.5437 46.9233 16.4875 46.8427 16.4454 46.7354C16.4034 46.628 16.3823 46.4948 16.3823 46.3356C16.3823 46.1703 16.4041 46.0343 16.4477 45.9275C16.4913 45.8208 16.5483 45.7418 16.6187 45.6906C16.6896 45.6394 16.7659 45.6137 16.8475 45.6137C16.9088 45.6137 16.9612 45.6265 17.0048 45.6522C17.0484 45.6772 17.0843 45.7095 17.1127 45.7491C17.1411 45.7888 17.1626 45.83 17.1773 45.8727H17.1887V45.632H17.5565V47.5643H17.1849ZM16.9782 46.7089C17.0233 46.7089 17.0618 46.6936 17.0937 46.6631C17.1256 46.632 17.1502 46.5884 17.1674 46.5323C17.1846 46.4762 17.1933 46.4103 17.1933 46.3347C17.1933 46.2578 17.1846 46.1916 17.1674 46.1361C17.1507 46.0806 17.1261 46.0379 17.0937 46.0081C17.0618 45.9782 17.0233 45.9632 16.9782 45.9632C16.9321 45.9632 16.8931 45.9785 16.8611 46.009C16.8292 46.0395 16.8049 46.0825 16.7882 46.138C16.772 46.1935 16.7639 46.259 16.7639 46.3347C16.7639 46.4103 16.7722 46.4762 16.7889 46.5323C16.8057 46.5884 16.8297 46.632 16.8611 46.6631C16.8931 46.6936 16.9321 46.7089 16.9782 46.7089Z" fill="#FD2B20"/>
<path d="M18.5447 46.4307V45.632H18.9156V47.0373H18.5614V46.7756H18.5493C18.5234 46.8616 18.4794 46.93 18.417 46.9806C18.3552 47.0306 18.2805 47.0556 18.1928 47.0556C18.1133 47.0556 18.0434 47.0336 17.9831 46.9897C17.9228 46.9458 17.8759 46.8845 17.8425 46.8058C17.809 46.7265 17.7921 46.6338 17.7916 46.5277V45.632H18.1632V46.4399C18.1637 46.5161 18.1804 46.5762 18.2134 46.6201C18.2463 46.664 18.2911 46.686 18.3479 46.686C18.3849 46.686 18.4181 46.6762 18.4474 46.6567C18.4773 46.6366 18.5009 46.6076 18.5181 46.5698C18.5359 46.5314 18.5447 46.485 18.5447 46.4307Z" fill="#FD2B20"/>
<path d="M19.1521 47.0373V45.632H19.5238V47.0373H19.1521ZM19.3383 45.4683C19.2862 45.4683 19.2413 45.4475 19.2038 45.4061C19.1663 45.364 19.1476 45.3133 19.1476 45.2542C19.1476 45.1956 19.1663 45.1456 19.2038 45.1041C19.2413 45.0621 19.2862 45.041 19.3383 45.041C19.391 45.041 19.4359 45.0621 19.4729 45.1041C19.5104 45.1456 19.5291 45.1956 19.5291 45.2542C19.5291 45.3133 19.5104 45.364 19.4729 45.4061C19.4359 45.4475 19.391 45.4683 19.3383 45.4683Z" fill="#FD2B20"/>
<path d="M19.7603 47.0373V45.632H20.1213V45.8882H20.1335C20.1548 45.7955 20.1895 45.7266 20.2376 45.6814C20.2857 45.6357 20.3417 45.6128 20.4056 45.6128C20.4228 45.6128 20.4405 45.6143 20.4588 45.6174C20.477 45.6198 20.494 45.6238 20.5097 45.6293V46.0181C20.4919 46.0108 20.4686 46.005 20.4398 46.0007C20.4114 45.9965 20.3861 45.9943 20.3638 45.9943C20.3197 45.9943 20.2799 46.0062 20.2444 46.03C20.2095 46.0532 20.1819 46.0858 20.1616 46.1279C20.1418 46.1694 20.132 46.2182 20.132 46.2743V47.0373H19.7603Z" fill="#FD2B20"/>
<path d="M20.6611 47.0373V45.632H21.0221V45.8882H21.0343C21.0555 45.7955 21.0902 45.7266 21.1384 45.6814C21.1865 45.6357 21.2425 45.6128 21.3063 45.6128C21.3236 45.6128 21.3413 45.6143 21.3595 45.6174C21.3778 45.6198 21.3948 45.6238 21.4105 45.6293V46.0181C21.3927 46.0108 21.3694 46.005 21.3405 46.0007C21.3122 45.9965 21.2868 45.9943 21.2645 45.9943C21.2205 45.9943 21.1807 46.0062 21.1452 46.03C21.1103 46.0532 21.0826 46.0858 21.0624 46.1279C21.0426 46.1694 21.0327 46.2182 21.0327 46.2743V47.0373H20.6611Z" fill="#FD2B20"/>
<path d="M22.047 47.0638C21.9248 47.0638 21.8195 47.0349 21.7308 46.9769C21.6426 46.9184 21.5747 46.8351 21.5271 46.7272C21.48 46.6186 21.4564 46.4896 21.4564 46.3402C21.4564 46.195 21.4803 46.0681 21.5279 45.9596C21.5755 45.8504 21.6426 45.7656 21.7293 45.7052C21.8159 45.6442 21.918 45.6137 22.0356 45.6137C22.1186 45.6137 22.1946 45.6293 22.2636 45.6604C22.3325 45.6915 22.392 45.7376 22.4422 45.7985C22.4923 45.8595 22.5313 45.9349 22.5592 46.0245C22.5871 46.1136 22.601 46.2157 22.601 46.331V46.4426H21.5864V46.1828H22.2552C22.2547 46.1352 22.2453 46.0928 22.2271 46.0556C22.2088 46.0184 22.1838 45.9895 22.1518 45.9687C22.1204 45.9474 22.0842 45.9367 22.0432 45.9367C22.0016 45.9367 21.9644 45.948 21.9314 45.9705C21.8985 45.9925 21.8724 46.0227 21.8532 46.0611C21.8339 46.0989 21.8238 46.1419 21.8228 46.1901V46.4545C21.8228 46.5119 21.8321 46.5622 21.8509 46.6055C21.8696 46.6482 21.8962 46.6814 21.9307 46.7052C21.9651 46.729 22.0062 46.7409 22.0538 46.7409C22.0867 46.7409 22.1166 46.7354 22.1435 46.7244C22.1703 46.7134 22.1934 46.6973 22.2126 46.6759C22.2319 46.6546 22.2463 46.6284 22.256 46.5972L22.5972 46.6091C22.583 46.7012 22.5518 46.7814 22.5037 46.8498C22.4561 46.9175 22.3935 46.9702 22.316 47.008C22.2385 47.0452 22.1488 47.0638 22.047 47.0638Z" fill="#FD2B20"/>
<path d="M23.1624 45.1636V47.0373H22.7908V45.1636H23.1624Z" fill="#FD2B20"/>
<path d="M14.2023 37.3718V35.6758L9.82227 37.9427V39.4203L14.2023 41.6704V40.008L11.3567 38.6647L14.2023 37.3718Z" fill="#008CFF"/>
<path d="M19.0849 37.3718V35.6758L23.4648 37.9427V39.4203L19.0849 41.6704V40.008L21.9304 38.6647L19.0849 37.3718Z" fill="#008CFF"/>
<path d="M18.2753 33.8789H17.0338L15.0391 42.7617H16.3085L18.2753 33.8789Z" fill="#FD2B20"/>
<path d="M32.4873 36.6291C33.5383 37.1263 34.0323 37.5566 34.8332 38.4425C32.1714 37.8551 31.1929 37.6773 31.1043 37.8479C30.8761 38.3902 30.7152 38.5244 30.3387 38.2344C29.4933 37.0089 28.9312 36.5792 27.5728 36.8074C26.3504 37.105 25.7173 37.3165 25.4737 38.4425C25.4289 38.6444 25.5901 38.6881 25.7947 38.6506C27.2369 38.2371 28.0015 38.117 28.7829 39.3344C28.1268 39.2593 27.7736 39.2699 27.153 39.3344C26.4437 39.4473 26.0589 39.5423 25.4737 39.9587C25.0202 40.1757 24.9336 40.3472 25.6465 40.91C26.493 41.2197 27.0749 41.2572 28.0914 41.2073C28.53 41.2595 28.6846 41.3692 28.7829 41.683C27.8682 42.0373 27.3345 42.185 26.2886 42.1884C26.7556 43.2697 27.3278 43.6317 29.2274 43.5856C30.666 44.4875 31.642 44.7108 33.6726 44.6261C32.6177 45.4214 31.7818 45.7849 30.0476 45.5241C30.1375 46.0439 30.6939 46.2113 32.2402 46.3504C35.0705 46.1945 36.926 40.302 37.0476 41.4679C37.1692 42.6337 37.2719 43.4553 37.3769 45.0423C35.0548 47.6465 33.6315 47.9298 30.9314 46.945C29.83 46.4145 29.4902 45.9234 29.2274 44.8045C26.96 44.5707 26.2421 44.1532 25.6465 43.0505C24.873 40.6984 24.3845 39.3384 24.9798 38.0263C26.7787 35.3546 27.953 34.8937 30.4622 36.6291C31.3177 36.4464 31.7724 36.4199 32.4873 36.6291Z" fill="black"/>
<path d="M32.2326 46.3703C30.5932 46.2743 30.2646 46.04 30.0246 45.5172C31.7611 45.7691 32.4909 45.4706 33.6291 44.6396C31.7383 44.7347 30.7891 44.4915 29.2339 43.5888C27.3455 43.5598 26.6717 43.2764 26.3072 42.1795C27.2629 42.1651 27.7933 42.0522 28.7616 41.685C28.682 41.3801 28.5559 41.2597 28.0941 41.2029C27.0775 41.3036 26.539 41.2556 25.6808 40.9186C24.9388 40.3658 24.9477 40.1548 25.5576 39.9172C26.6812 39.222 27.4243 39.254 28.7352 39.3104L28.7616 39.3115C27.9483 38.2111 27.7798 38.2217 25.8965 38.6192C25.4053 38.7273 25.3643 38.6091 25.5576 38.1865C25.8304 37.1468 26.5635 37.1141 27.5909 36.7896C29.1041 36.6523 29.6135 37.1025 30.343 38.1865C30.6826 38.5151 30.8241 38.4133 31.0413 38.0258C31.1272 37.7171 31.3051 37.7289 31.6677 37.8157C33.8759 38.2778 33.436 38.2929 35.704 38.4945L36.9627 41.5025C35.9203 44.8473 35.3153 46.0983 32.2326 46.3703Z" fill="#FD2B20" stroke="#FD2B20"/>
<path d="M6.2281 37.2103L6.19272 37.1593L6.14595 37.1186C5.75526 36.7779 5.38957 36.4797 5.03815 36.2545C4.68641 36.0292 4.32235 35.8593 3.93424 35.8032C3.10857 35.6837 2.39062 36.1002 1.64779 36.8865L1.5878 36.95L1.55289 37.0301C1.31806 37.5689 1.11314 38.0583 1.04357 38.5938C0.971843 39.1458 1.04683 39.7079 1.28974 40.4122C1.44357 40.8708 1.49518 41.1199 1.51151 41.6284L1.51352 41.691L1.53086 41.751C1.62604 42.0808 1.75196 42.292 2.04506 42.6346L2.09928 42.698L2.17113 42.7404C2.93704 43.1918 3.61775 43.4369 4.25668 43.243C4.88019 43.0537 5.29285 42.4918 5.66669 41.87L6.06295 41.2109L5.29977 41.1162C5.08846 41.09 4.8927 41.0652 4.71211 41.0416C4.80105 41.043 4.89612 41.0458 4.99891 41.0496L5.09027 41.053L5.17692 41.0239C5.6087 40.8787 5.97422 40.7355 6.23768 40.5829C6.36911 40.5067 6.50312 40.4126 6.60808 40.2925C6.71727 40.1675 6.81681 39.9874 6.80982 39.7611C6.80301 39.5407 6.6976 39.3687 6.59161 39.2498C6.48646 39.1319 6.35225 39.0332 6.21332 38.9482C5.95387 38.7894 5.59569 38.6293 5.1545 38.4596C5.34535 38.4666 5.55501 38.4777 5.78541 38.4924L5.8671 38.4977L5.9462 38.4766C6.04689 38.4497 6.19553 38.3969 6.31595 38.273C6.46251 38.1221 6.50613 37.932 6.48657 37.7638C6.47045 37.6252 6.41317 37.5094 6.3737 37.4381C6.3305 37.36 6.27705 37.2808 6.2281 37.2103Z" fill="#FA2F1F" stroke="black"/>
</svg>
