<svg width="837" height="845" viewBox="0 0 837 845" fill="none" xmlns="http://www.w3.org/2000/svg">
<path d="M260.699 720.732C275.825 726.561 331.771 729.487 338.481 725.673C338.544 725.63 338.61 725.589 338.679 725.549C348.171 736.685 365.912 751.331 368.216 774.505H171.498C176.671 734.277 245.412 714.841 260.699 720.732Z" fill="black"/>
<path d="M338.679 725.549C332.968 729.549 275.986 726.623 260.699 720.732C245.412 714.841 176.671 734.277 171.498 774.505H368.216C365.912 751.331 348.171 736.685 338.679 725.549ZM338.679 725.549C333.797 728.413 343.557 736.714 338.679 734.009M338.679 734.009C349.035 742.042 355.048 750.821 358.164 764.142H181.428C192.612 733.682 271.659 722.085 338.679 734.009Z" stroke="black"/>
<path d="M303.247 731.484L338.716 733.985C349.496 743.158 354.029 749.399 357.79 763.92H194.838C203.049 746.395 213.401 742.352 236.439 739.713C263.698 741.857 278.857 743.404 308.295 739.713C306.912 736.512 305.511 734.758 303.247 731.484Z" fill="#FA3224"/>
<path d="M264.342 732.123C280.939 736.871 302.666 731.616 303.252 731.482C305.605 733.284 306.425 735.899 308.589 739.846C283.247 743.19 266.458 742.798 236.757 739.846C214.742 742.093 205.068 745.979 194.651 763.824H181.924C190.436 729.574 247.744 727.375 264.342 732.123Z" fill="white"/>
<path d="M188.29 763.997H185.744C190.233 752.795 194.44 750.537 202.087 746.914C194.981 751.985 191.242 755.065 188.29 763.997Z" fill="black" stroke="black"/>
<path d="M453.33 340.468C428.589 319.042 421.447 305.499 401.709 267.645C392.503 278.523 390.472 290.731 392.92 323.188C384.961 336.631 379.264 338.563 368.757 340.468C356.502 362.336 345.224 368.71 320.43 373.794C274.104 370.637 249.194 366.348 206.204 355.28C-6.64571 660.418 434.24 826.397 562.845 797.644C580.404 796.933 597.966 797.346 611.128 783.578C639.546 765.458 600.24 658.649 595.014 644.104C607.892 532.837 586.667 467.405 453.33 340.468Z" fill="#FA3224" stroke="black" stroke-width="15"/>
<path d="M426.666 361.763C409.992 334.716 406.252 318.096 404.176 287.273C443.946 339.456 472.722 370.781 530.087 427.623C603.543 525.38 605.896 554.508 589.298 642.612L583.538 646.774C580.799 649.454 578.092 652.096 577.977 650.792C570.189 562.113 565.907 519.492 513.999 450.867L488.718 437.953C479.108 432.078 473.125 426.545 462.289 416C479.65 424.929 488.072 427.23 501.359 427.623L500.889 427.275C470.727 404.978 453.677 392.373 426.666 361.763Z" fill="white"/>
<path d="M643.291 26.1365C559.158 -0.303288 431.691 122.031 452.839 337.408C590.743 472.696 640.393 594.326 586.852 682.049C571.92 706.515 519.746 807.809 525.496 802.077C525.496 802.077 570.476 808.642 609.267 787.093C648.058 765.544 739.126 647.03 746.094 513.685C729.904 529.443 711.539 578.852 707.701 582.678C730.602 468.246 737.055 493.664 701.664 405.3C698.658 404.311 661.702 281.136 683.671 284.87C676.252 297.082 774.448 360.607 814.063 289.877C872.683 133.298 753.705 26.7367 612.876 62.4999C614.728 51.1763 623.387 40.7813 643.291 26.1365Z" fill="#FD2B20" stroke="black" stroke-width="15"/>
<path d="M459.188 333.8L465.475 339.903C471.529 212.759 488.254 169.047 533.787 118.045C519.684 156.614 515.196 178.648 516.509 219.115C617.057 20.6697 688.818 73.1887 801.081 131.934C760.534 66.8541 723.686 40.4121 604.485 72.2091C608.249 64.9258 615.247 40.1905 626.345 30.4035C554.936 24.8718 433.059 102.127 459.188 333.8Z" fill="white"/>
<path d="M126.418 304.86C105.065 274.295 101.673 271.98 104.342 252.761C123.912 201.203 131.807 185.051 158.43 153.526C209.356 110.704 242.572 101.694 308.547 107.63C303.465 119.971 301.205 125.707 299.717 131.198C303.847 129.966 305.923 130.771 308.547 137.4C315.096 103.404 324.545 91.8148 342.765 72.8969C379.242 53.0979 397.796 41.974 423.343 22.0391C415.704 43.2656 414.444 54.3498 416.72 72.8969C422.33 151.032 405.179 166.781 376.983 198.182L377.344 198.103C385.681 196.289 390.467 195.247 394.644 191.979C407.121 220.472 411.317 238.34 423.343 263.925C435.369 289.51 394.357 261.307 394.644 276.33C401.155 299.357 399.298 309.18 394.644 325.948C386.265 336.591 380.506 337.137 369.256 333.39C341.902 388.491 314.524 377.78 267.706 365.642C241.324 353.507 225.763 353.855 198.167 353.237C185.9 353.289 179.953 351.793 158.43 344.554C134.008 330.409 132.057 320.274 126.418 304.86Z" fill="#FA3224" stroke="black" stroke-width="15"/>
<path d="M298.894 114.442L294.798 124.003C180.004 137.653 160.988 170.984 126.527 231.386L126.33 231.731C189.126 232.101 225.989 244.645 239.518 301.447C249.947 324.422 256.256 339.601 271.637 359.417C252.32 351.984 239.566 348.553 211.668 345.994C174.615 347.918 152.671 338.309 140.481 321.139C198.949 331.909 212.365 326.232 220.472 317.346C180.403 317.216 151.492 324.231 126.33 293.2C126.357 287.391 132.26 281.431 136.67 275.762C161.626 251.341 156.492 244.204 114.891 242.618C155.478 138.183 195.854 107.304 298.894 114.442Z" fill="white"/>
<path d="M409.622 48.5121C409.863 45.4692 410.156 43.6968 410.814 40.4766C385.757 57.0016 371.462 65.8502 345.02 79.962C319.797 107.313 314.332 125.924 310.793 161.465C317.574 140.088 323.539 114.416 349.994 84.992C375.708 69.7337 389.115 62.9994 409.622 48.5121Z" fill="white"/>
<path d="M140.737 321.113C193.101 330.297 210.171 329.295 220.617 317.539C176.813 317.608 157.248 310.725 127.081 293.572C156.949 259.077 170.748 241.076 115.482 242.696L110.992 254.469C105.532 267.475 113.633 278.975 132.132 300.931C134.738 309.229 136.565 313.7 140.737 321.113Z" fill="black"/>
<path d="M309.583 188.573C271.176 176.698 260.291 179.498 241.083 221.885C239.936 221.278 238.8 221.436 236.652 221.885C256.564 177.491 276.003 172.572 309.583 188.573Z" fill="white"/>
<path d="M306.195 248.933C313.504 242.903 315.95 236.847 315.953 219.359C318.152 220.185 318.603 220.077 320.06 223.116C322.558 242.209 320.228 244.986 306.195 257.305C284.786 269.65 273.657 270.085 254.04 257.305C252.498 253.576 252.741 252.255 254.04 249.373C272.613 263.108 284.241 262.026 306.195 248.933Z" fill="white"/>
<path d="M307.826 193.566C273.882 180.956 259.53 185.75 246.814 227.458C246.061 236.278 245.059 240.894 242.952 248.944C242.663 252.673 243.304 253.959 246.814 253.763C249.207 250.683 250.729 249.518 254.224 248.944C265.27 256.576 268.888 261.492 282.569 260.897C322.762 245.708 313.44 238.066 315.845 218.921C318.322 218.077 320.81 215.088 323.259 211.412C325.069 213.032 325.169 215.676 327.932 216.94C326.907 211.463 325.373 209.133 319.959 207.2C316.503 200.811 313.739 197.86 307.826 193.566Z" fill="black" stroke="black"/>
<path d="M266.084 243.194C263.233 241.804 262.413 240.728 262.524 238.075C264.079 235.543 265.348 234.81 268.551 234.846C271.19 235.658 272.393 236.367 272.13 239.877C271.307 242.396 270.564 243.585 266.084 243.194Z" fill="white"/>
<path d="M279.966 224.193C271.429 222.542 268.576 220.237 267.32 212.973C270.042 204.964 273.048 202.036 281.741 199.758C289.365 200 293.04 201.029 294.389 210.728C293.639 218.159 292.326 221.93 279.966 224.193Z" fill="white"/>
<path d="M194.613 286.389C256.447 282.059 290.765 287.17 351.628 304.688" stroke="black" stroke-width="5" stroke-linecap="round"/>
<path d="M194.613 301.455C267.782 305.688 307.978 344.057 326.853 363.225" stroke="black" stroke-width="5" stroke-linecap="round"/>
<path d="M103.555 283.726C66.842 277.552 46.2415 277.216 9.36328 290.274" stroke="black" stroke-width="5" stroke-linecap="round"/>
<path d="M109.31 290.273C69.7824 294.261 61.5795 296.881 26.3945 319.193" stroke="black" stroke-width="5" stroke-linecap="round"/>
<path d="M255.515 43.6974C263.633 57.8486 265.58 70.5026 264.087 100.931C233.097 104.912 215.343 111.01 183.914 128.674C195.56 77.0093 206.91 50.1272 258.861 15.873C258.218 25.4483 257.349 31.7929 255.515 43.6974Z" fill="#FA3224" stroke="black" stroke-width="10" stroke-linecap="round"/>
<path d="M197.553 115.797C214.977 80.6883 226.506 63.4503 251.887 37.855C252.722 32.4999 253.277 29.4065 253.592 25.2246C226.195 45.7652 206.443 50.5681 190.348 120.188L197.553 115.797Z" fill="white"/>
<path d="M485.704 603.521C520.835 607.344 535.985 620.886 558.256 656.735C560.75 670.555 560.502 678.554 558.256 693.143C555.823 684.901 554.399 680.157 550.686 668.58C534.695 634.832 524.796 617.216 485.704 615.471C447.306 618.279 427.352 631.744 416.597 685.84C414.051 708.017 416.87 721.902 434.902 759.529C448.342 776.329 458.454 783.985 479.798 795.378C476.786 797.481 472.163 797.321 460.304 795.378C395.827 787.494 377.635 799.215 363.898 825.51H540.635C537.519 812.189 531.506 803.41 521.15 795.378C526.028 798.082 528.673 798.242 533.555 795.378L533.659 795.5C543.086 806.56 548.391 812.784 550.686 835.873H353.969C359.142 795.645 370.015 778.263 443.17 782.1C435.129 774.021 430.68 769.425 424.266 759.529C410.058 725.661 403.831 703.322 407.727 685.84C418.328 634.354 430.078 609.277 485.704 603.521Z" fill="black" stroke="black"/>
<path d="M485.722 792.852L521.191 795.352C531.97 804.525 536.503 810.767 540.265 825.288H377.312C385.524 807.762 395.875 803.719 418.913 801.08C446.172 803.224 461.332 804.771 490.77 801.08C489.387 797.879 487.986 796.125 485.722 792.852Z" fill="#FA3224"/>
<path d="M557.94 693.628L557.991 693.874C547.554 669.963 542.499 656.37 521.23 635.022C484.822 612.602 467.084 611.978 441.945 639.814C429.418 664.26 423.928 679.532 428.724 721.723C432.66 740.704 435.619 751.205 453.659 767.483C476.784 779.497 482.694 787.189 491.06 801.214C465.185 803.785 448.452 803.474 419.228 801.214C397.213 803.461 387.538 807.347 377.121 825.192H364.395C372.907 790.942 430.215 788.743 446.812 793.491C459.832 797.215 476.046 795.855 480.38 795.432C475.019 794.969 454.222 780.693 441.945 767.483C429.163 754.066 424.725 743.861 419.228 721.723C411.827 690.53 408.143 673.086 436.903 635.022C458.382 606.8 486.659 608.187 524.859 626.401C547.622 644.157 550.986 660.287 557.94 693.628Z" fill="white"/>
<path d="M370.761 825.364H368.215C372.704 814.162 376.911 811.904 384.558 808.281C377.451 813.352 373.713 816.432 370.761 825.364Z" fill="black" stroke="black"/>
<path d="M251.918 388.697C171.616 402.228 130.179 415.176 64.0132 449.425C63.2522 657.5 94.9885 749.378 251.918 835.872C431.133 728.171 446.622 632.889 441.05 449.425C370.775 414.161 329.847 399.415 251.918 388.697Z" fill="#010012" stroke="#008CFF" stroke-width="15"/>
<path d="M157.892 680.266L150.793 652.852H157.308L160.989 670.816H161.191L165.396 652.852H170.708L174.913 670.856H175.116L178.808 652.852H185.312L178.224 680.266H172.543L168.148 663.641H167.957L163.562 680.266H157.892Z" fill="#FD2B20"/>
<path d="M194.269 680.654C192.355 680.654 190.703 680.23 189.314 679.383C187.932 678.526 186.868 677.308 186.122 675.728C185.383 674.14 185.014 672.253 185.014 670.066C185.014 667.942 185.387 666.086 186.133 664.498C186.88 662.9 187.932 661.66 189.29 660.777C190.648 659.884 192.248 659.438 194.09 659.438C195.392 659.438 196.584 659.666 197.664 660.121C198.743 660.576 199.677 661.25 200.463 662.142C201.249 663.034 201.86 664.136 202.297 665.448C202.734 666.751 202.952 668.246 202.952 669.932V671.565H187.051V667.764H197.532C197.525 667.068 197.378 666.448 197.092 665.903C196.806 665.359 196.413 664.935 195.913 664.632C195.42 664.319 194.852 664.163 194.209 664.163C193.558 664.163 192.974 664.328 192.458 664.658C191.942 664.98 191.533 665.421 191.231 665.984C190.93 666.537 190.771 667.166 190.755 667.871V671.739C190.755 672.578 190.902 673.315 191.196 673.948C191.49 674.573 191.906 675.059 192.446 675.407C192.986 675.755 193.63 675.929 194.376 675.929C194.892 675.929 195.361 675.849 195.782 675.688C196.202 675.528 196.564 675.291 196.865 674.979C197.167 674.666 197.394 674.283 197.544 673.828L202.893 674.002C202.67 675.349 202.182 676.523 201.427 677.522C200.681 678.513 199.7 679.285 198.485 679.838C197.27 680.382 195.865 680.654 194.269 680.654Z" fill="#FD2B20"/>
<path d="M205.927 680.266V652.852H211.751V663.226H211.871C212.109 662.602 212.446 661.999 212.883 661.419C213.328 660.839 213.892 660.366 214.574 660C215.265 659.625 216.091 659.438 217.052 659.438C218.322 659.438 219.51 659.813 220.613 660.562C221.725 661.312 222.622 662.468 223.305 664.029C223.988 665.591 224.33 667.581 224.33 669.999C224.33 672.328 224 674.278 223.341 675.849C222.69 677.419 221.808 678.597 220.697 679.383C219.593 680.168 218.366 680.561 217.016 680.561C216.095 680.561 215.297 680.391 214.622 680.052C213.947 679.713 213.379 679.267 212.919 678.713C212.466 678.16 212.117 677.567 211.871 676.933H211.692V680.266H205.927ZM211.632 669.986C211.632 671.092 211.763 672.056 212.025 672.877C212.295 673.698 212.681 674.336 213.181 674.791C213.689 675.238 214.296 675.461 215.003 675.461C215.718 675.461 216.325 675.238 216.826 674.791C217.326 674.336 217.703 673.698 217.957 672.877C218.219 672.056 218.35 671.092 218.35 669.986C218.35 668.879 218.219 667.92 217.957 667.108C217.703 666.296 217.326 665.667 216.826 665.221C216.333 664.774 215.726 664.551 215.003 664.551C214.289 664.551 213.681 664.77 213.181 665.207C212.681 665.645 212.295 666.269 212.025 667.081C211.763 667.893 211.632 668.862 211.632 669.986Z" fill="#FD2B20"/>
<path d="M240.568 661.071C240.488 660.089 240.135 659.326 239.508 658.782C238.888 658.229 238.003 657.952 236.851 657.952C236.089 657.952 235.454 658.064 234.946 658.287C234.437 658.51 234.056 658.818 233.802 659.21C233.548 659.594 233.417 660.036 233.409 660.536C233.393 660.946 233.465 661.308 233.623 661.62C233.79 661.932 234.028 662.209 234.338 662.45C234.656 662.682 235.037 662.887 235.482 663.066C235.926 663.244 236.426 663.4 236.982 663.534L239.079 664.069C240.286 664.364 241.35 664.757 242.271 665.247C243.2 665.738 243.978 666.323 244.606 667.001C245.241 667.679 245.721 668.46 246.047 669.343C246.372 670.227 246.539 671.217 246.547 672.315C246.539 674.046 246.15 675.532 245.38 676.772C244.609 678.013 243.502 678.963 242.057 679.624C240.619 680.284 238.884 680.614 236.851 680.614C234.811 680.614 233.032 680.271 231.515 679.583C229.998 678.896 228.819 677.852 227.977 676.451C227.136 675.05 226.703 673.279 226.679 671.137H232.325C232.373 672.021 232.583 672.757 232.956 673.346C233.33 673.935 233.842 674.381 234.493 674.684C235.152 674.988 235.914 675.139 236.78 675.139C237.574 675.139 238.249 675.019 238.805 674.778C239.369 674.537 239.801 674.202 240.103 673.774C240.405 673.346 240.56 672.855 240.568 672.302C240.56 671.784 240.417 671.342 240.139 670.976C239.861 670.602 239.432 670.28 238.852 670.013C238.281 669.736 237.55 669.482 236.661 669.25L234.112 668.58C232 668.036 230.336 667.157 229.121 665.943C227.906 664.721 227.303 663.07 227.31 660.991C227.303 659.295 227.708 657.809 228.525 656.533C229.343 655.257 230.475 654.262 231.92 653.548C233.365 652.834 235.013 652.477 236.863 652.477C238.753 652.477 240.393 652.839 241.783 653.562C243.18 654.276 244.264 655.28 245.034 656.573C245.805 657.867 246.198 659.367 246.214 661.071H240.568Z" fill="#FD2B20"/>
<path d="M261.472 687.976V676.933H261.353C261.106 677.567 260.757 678.16 260.304 678.713C259.852 679.267 259.284 679.713 258.601 680.052C257.926 680.391 257.128 680.561 256.207 680.561C254.857 680.561 253.63 680.168 252.526 679.383C251.423 678.597 250.541 677.419 249.882 675.849C249.223 674.278 248.894 672.328 248.894 669.999C248.894 667.581 249.235 665.591 249.918 664.029C250.601 662.468 251.494 661.312 252.598 660.562C253.71 659.813 254.905 659.438 256.183 659.438C257.144 659.438 257.966 659.625 258.649 660C259.332 660.366 259.896 660.839 260.34 661.419C260.785 661.999 261.122 662.602 261.353 663.226H261.531V659.706H267.296V687.976H261.472ZM258.232 675.461C258.939 675.461 259.542 675.238 260.042 674.791C260.543 674.336 260.928 673.698 261.198 672.877C261.468 672.056 261.603 671.092 261.603 669.986C261.603 668.862 261.468 667.893 261.198 667.081C260.936 666.269 260.551 665.645 260.042 665.207C259.542 664.77 258.939 664.551 258.232 664.551C257.509 664.551 256.898 664.774 256.398 665.221C255.897 665.667 255.516 666.296 255.254 667.108C255 667.92 254.873 668.879 254.873 669.986C254.873 671.092 255.004 672.056 255.266 672.877C255.528 673.698 255.905 674.336 256.398 674.791C256.898 675.238 257.509 675.461 258.232 675.461Z" fill="#FD2B20"/>
<path d="M282.784 671.391V659.706H288.597V680.266H283.046V676.438H282.855C282.45 677.696 281.76 678.696 280.783 679.436C279.814 680.168 278.643 680.534 277.269 680.534C276.022 680.534 274.926 680.213 273.981 679.57C273.037 678.928 272.302 678.031 271.778 676.88C271.254 675.719 270.988 674.363 270.98 672.81V659.706H276.804V671.525C276.812 672.641 277.074 673.52 277.591 674.162C278.107 674.805 278.809 675.126 279.699 675.126C280.279 675.126 280.799 674.983 281.259 674.698C281.728 674.403 282.097 673.979 282.367 673.426C282.645 672.864 282.784 672.186 282.784 671.391Z" fill="#FD2B20"/>
<path d="M292.304 680.266V659.706H298.128V680.266H292.304ZM295.222 657.31C294.404 657.31 293.701 657.006 293.114 656.399C292.526 655.784 292.232 655.043 292.232 654.177C292.232 653.321 292.526 652.589 293.114 651.982C293.701 651.366 294.404 651.059 295.222 651.059C296.048 651.059 296.751 651.366 297.33 651.982C297.918 652.589 298.212 653.321 298.212 654.177C298.212 655.043 297.918 655.784 297.33 656.399C296.751 657.006 296.048 657.31 295.222 657.31Z" fill="#FD2B20"/>
<path d="M301.836 680.266V659.706H307.494V663.454H307.684C308.018 662.097 308.562 661.089 309.316 660.429C310.07 659.759 310.948 659.425 311.948 659.425C312.218 659.425 312.496 659.447 312.782 659.492C313.068 659.527 313.334 659.585 313.58 659.666V665.354C313.302 665.247 312.937 665.163 312.484 665.1C312.04 665.038 311.643 665.006 311.293 665.006C310.602 665.006 309.979 665.18 309.423 665.529C308.875 665.868 308.443 666.345 308.125 666.961C307.815 667.568 307.66 668.282 307.66 669.102V680.266H301.836Z" fill="#FD2B20"/>
<path d="M315.954 680.266V659.706H321.611V663.454H321.802C322.135 662.097 322.679 661.089 323.434 660.429C324.188 659.759 325.066 659.425 326.066 659.425C326.336 659.425 326.614 659.447 326.9 659.492C327.186 659.527 327.452 659.585 327.698 659.666V665.354C327.42 665.247 327.055 665.163 326.602 665.1C326.157 665.038 325.76 665.006 325.411 665.006C324.72 665.006 324.097 665.18 323.541 665.529C322.993 665.868 322.56 666.345 322.243 666.961C321.933 667.568 321.778 668.282 321.778 669.102V680.266H315.954Z" fill="#FD2B20"/>
<path d="M337.674 680.654C335.76 680.654 334.108 680.23 332.719 679.383C331.337 678.526 330.273 677.308 329.526 675.728C328.788 674.14 328.419 672.253 328.419 670.066C328.419 667.942 328.792 666.086 329.538 664.498C330.285 662.9 331.337 661.66 332.695 660.777C334.053 659.884 335.653 659.438 337.495 659.438C338.797 659.438 339.988 659.666 341.068 660.121C342.148 660.576 343.081 661.25 343.867 662.142C344.654 663.034 345.265 664.136 345.702 665.448C346.139 666.751 346.357 668.246 346.357 669.932V671.565H330.455V667.764H340.937C340.929 667.068 340.782 666.448 340.497 665.903C340.211 665.359 339.818 664.935 339.317 664.632C338.825 664.319 338.257 664.163 337.614 664.163C336.963 664.163 336.379 664.328 335.863 664.658C335.347 664.98 334.938 665.421 334.636 665.984C334.335 666.537 334.176 667.166 334.16 667.871V671.739C334.16 672.578 334.307 673.315 334.601 673.948C334.894 674.573 335.311 675.059 335.851 675.407C336.391 675.755 337.034 675.929 337.781 675.929C338.297 675.929 338.765 675.849 339.186 675.688C339.607 675.528 339.969 675.291 340.27 674.979C340.572 674.666 340.798 674.283 340.949 673.828L346.297 674.002C346.075 675.349 345.587 676.523 344.832 677.522C344.086 678.513 343.105 679.285 341.89 679.838C340.675 680.382 339.27 680.654 337.674 680.654Z" fill="#FD2B20"/>
<path d="M355.156 652.852V680.266H349.332V652.852H355.156Z" fill="#FD2B20"/>
<path d="M214.721 538.824V514.01L146.074 547.176V568.796L214.721 601.717V577.395L170.123 557.74L214.721 538.824Z" fill="#008CFF"/>
<path d="M291.236 538.824V514.01L359.883 547.176V568.796L291.236 601.717V577.395L335.834 557.74L291.236 538.824Z" fill="#008CFF"/>
<path d="M278.556 487.732H259.099L227.836 617.696H247.732L278.556 487.732Z" fill="#FD2B20"/>
<path d="M501.319 527.98C517.792 535.256 525.534 541.552 538.087 554.513C496.369 545.918 481.033 543.317 479.644 545.814C476.068 553.748 473.547 555.711 467.645 551.468C454.396 533.538 445.586 527.251 424.296 530.59C405.138 534.944 395.215 538.038 391.397 554.513C390.695 557.466 393.222 558.106 396.428 557.558C419.031 551.507 431.015 549.75 443.261 567.562C432.979 566.464 427.444 566.618 417.716 567.562C406.599 569.213 400.568 570.603 391.397 576.696C384.29 579.872 382.933 582.38 394.106 590.615C407.373 595.145 416.493 595.695 432.424 594.964C439.298 595.729 441.721 597.333 443.261 601.924C428.926 607.108 420.562 609.269 404.169 609.318C411.488 625.139 420.457 630.435 450.228 629.761C472.775 642.957 488.072 646.223 519.897 644.985C503.363 656.621 490.263 661.938 463.083 658.123C464.492 665.729 473.212 668.177 497.448 670.213C541.806 667.932 570.886 581.72 572.793 598.777C574.699 615.834 576.308 627.855 577.954 651.074C541.559 689.176 519.253 693.32 476.934 678.912C459.673 671.15 454.347 663.966 450.228 647.595C414.692 644.174 403.44 638.066 394.106 621.932C381.983 587.519 374.327 567.621 383.657 548.424C411.85 509.334 430.255 502.591 469.581 527.98C482.989 525.308 490.116 524.92 501.319 527.98Z" fill="black"/>
<path d="M497.309 670.503C471.615 669.098 466.465 665.671 462.703 658.023C489.92 661.708 501.357 657.34 519.196 645.181C489.563 646.573 474.686 643.014 450.312 629.808C420.715 629.384 410.154 625.236 404.442 609.189C419.42 608.978 427.734 607.327 442.908 601.954C441.661 597.492 439.686 595.73 432.447 594.9C416.515 596.373 408.075 595.671 394.625 590.74C382.996 582.653 383.134 579.565 392.693 576.09C410.304 565.918 421.95 566.385 442.496 567.21L442.908 567.227C430.162 551.127 427.521 551.283 398.005 557.098C390.307 558.68 389.665 556.95 392.693 550.768C396.969 535.556 408.459 535.077 424.561 530.33C448.276 528.321 456.261 534.907 467.694 550.768C473.016 555.575 475.235 554.085 478.638 548.416C479.984 543.9 482.773 544.072 488.456 545.341C523.064 552.104 516.17 552.323 551.716 555.274L571.443 599.284C555.105 648.221 545.623 666.524 497.309 670.503Z" fill="#FD2B20" stroke="#FD2B20"/>
<path d="M89.3533 536.182L88.795 535.432L88.0693 534.841C76.1712 525.157 65.2238 517.262 53.7029 515.706C41.1785 514.014 30.1121 519.875 18.4109 531.437L17.4551 532.382L16.8867 533.599C13.2138 541.466 9.9638 548.698 8.85897 556.636C7.7152 564.854 8.92076 573.188 12.7465 583.545C15.1406 590.208 15.9337 593.788 16.187 601.151L16.2214 602.151L16.5172 603.108C18.0386 608.029 20.0522 611.157 24.6378 616.161L25.4711 617.07L26.5518 617.665C38.5829 624.284 48.9856 627.702 58.6432 624.965C68.1972 622.258 74.6448 614.142 80.5628 604.954L87.0836 594.829L75.1208 593.443C73.2711 593.228 71.4963 593.021 69.7956 592.819C70.0405 592.827 70.2881 592.835 70.5385 592.844L71.8213 592.888L73.0459 592.504C79.8021 590.383 85.4823 588.303 89.562 586.097C91.5891 585.001 93.6652 583.642 95.3022 581.893C96.9932 580.086 98.6704 577.341 98.5527 573.785C98.4385 570.335 96.6794 567.727 95.0441 566.014C93.4039 564.297 91.3208 562.869 89.1704 561.64C85.3875 559.479 80.2388 557.293 73.9088 554.982C76.6595 555.086 79.6454 555.237 82.8874 555.431L84.033 555.499L85.1467 555.222C86.6432 554.85 88.8811 554.115 90.7249 552.344C93.0353 550.125 93.8174 547.197 93.4818 544.503C93.213 542.345 92.2661 540.577 91.6492 539.536C90.964 538.38 90.1197 537.213 89.3533 536.182Z" fill="#FA2F1F" stroke="black" stroke-width="15"/>
</svg>
