<svg width="144" height="171" viewBox="0 0 144 171" fill="none" xmlns="http://www.w3.org/2000/svg">
<path d="M71.6095 2.86328C41.8654 7.87516 26.5171 12.6711 2.0088 25.3571C1.72691 102.429 13.4822 136.461 71.6095 168.499C137.992 128.606 143.729 93.3133 141.665 25.3571C115.635 12.2954 100.475 6.83335 71.6095 2.86328Z" fill="black" stroke="#FD2B20" stroke-width="4"/>
<path d="M36.7819 110.86L34.1523 100.705H36.5657L37.929 107.359H38.004L39.5614 100.705H41.5292L43.0866 107.374H43.1616L44.5293 100.705H46.9382L44.3131 110.86H42.2086L40.5806 104.702H40.51L38.882 110.86H36.7819Z" fill="#FD2B20"/>
<path d="M50.256 111.003C49.5472 111.003 48.9354 110.846 48.4206 110.532C47.9089 110.215 47.5147 109.764 47.2382 109.179C46.9647 108.59 46.8279 107.891 46.8279 107.082C46.8279 106.295 46.9662 105.607 47.2426 105.019C47.5191 104.427 47.9089 103.968 48.4118 103.641C48.9148 103.31 49.5075 103.145 50.1898 103.145C50.6722 103.145 51.1134 103.229 51.5134 103.398C51.9134 103.566 52.2591 103.816 52.5502 104.146C52.8414 104.477 53.0679 104.885 53.2297 105.371C53.3915 105.854 53.4723 106.407 53.4723 107.032V107.637H47.5824V106.229H51.4649C51.462 105.971 51.4075 105.741 51.3017 105.54C51.1958 105.338 51.0502 105.181 50.8649 105.069C50.6825 104.953 50.4722 104.895 50.234 104.895C49.9928 104.895 49.7766 104.956 49.5854 105.078C49.3942 105.197 49.2427 105.361 49.131 105.569C49.0192 105.774 48.9604 106.007 48.9545 106.268V107.701C48.9545 108.012 49.0089 108.285 49.1177 108.519C49.2266 108.751 49.381 108.931 49.581 109.06C49.781 109.189 50.0192 109.253 50.2957 109.253C50.4869 109.253 50.6605 109.223 50.8163 109.164C50.9722 109.104 51.1061 109.017 51.2178 108.901C51.3296 108.785 51.4134 108.643 51.4693 108.475L53.4503 108.539C53.3679 109.038 53.187 109.473 52.9076 109.843C52.6311 110.21 52.2679 110.496 51.8179 110.701C51.3678 110.903 50.8472 111.003 50.256 111.003Z" fill="#FD2B20"/>
<path d="M54.5742 110.86V100.705H56.7317V104.548H56.7758C56.864 104.317 56.989 104.093 57.1508 103.879C57.3155 103.664 57.5244 103.489 57.7773 103.353C58.0332 103.214 58.3391 103.145 58.695 103.145C59.1656 103.145 59.6053 103.284 60.0142 103.561C60.426 103.839 60.7583 104.267 61.0113 104.845C61.2642 105.424 61.3907 106.161 61.3907 107.057C61.3907 107.919 61.2687 108.642 61.0245 109.223C60.7833 109.805 60.4569 110.242 60.0451 110.532C59.6362 110.823 59.1818 110.969 58.6818 110.969C58.3406 110.969 58.045 110.906 57.795 110.78C57.545 110.655 57.3347 110.489 57.1641 110.284C56.9964 110.08 56.867 109.86 56.7758 109.625H56.7096V110.86H54.5742ZM56.6876 107.052C56.6876 107.462 56.7361 107.819 56.8332 108.123C56.9332 108.427 57.0758 108.663 57.2611 108.832C57.4494 108.997 57.6744 109.08 57.9361 109.08C58.2009 109.08 58.4259 108.997 58.6112 108.832C58.7965 108.663 58.9362 108.427 59.0303 108.123C59.1274 107.819 59.1759 107.462 59.1759 107.052C59.1759 106.642 59.1274 106.287 59.0303 105.986C58.9362 105.685 58.7965 105.452 58.6112 105.287C58.4288 105.121 58.2038 105.039 57.9361 105.039C57.6714 105.039 57.4464 105.12 57.2611 105.282C57.0758 105.444 56.9332 105.675 56.8332 105.976C56.7361 106.277 56.6876 106.635 56.6876 107.052Z" fill="#FD2B20"/>
<path d="M67.4053 103.75C67.3759 103.386 67.245 103.103 67.0127 102.902C66.7832 102.697 66.4553 102.594 66.0288 102.594C65.7464 102.594 65.5111 102.636 65.3229 102.718C65.1346 102.801 64.9935 102.915 64.8993 103.061C64.8052 103.203 64.7567 103.366 64.7537 103.551C64.7479 103.703 64.7743 103.837 64.8332 103.953C64.8949 104.069 64.9832 104.171 65.0979 104.26C65.2155 104.346 65.3567 104.422 65.5214 104.488C65.6861 104.555 65.8714 104.612 66.0773 104.662L66.8538 104.86C67.3009 104.969 67.6951 105.115 68.0362 105.297C68.3804 105.478 68.6686 105.695 68.901 105.946C69.1363 106.197 69.3142 106.487 69.4348 106.814C69.5554 107.141 69.6172 107.508 69.6201 107.915C69.6172 108.556 69.4731 109.106 69.1878 109.566C68.9025 110.025 68.4921 110.377 67.9568 110.622C67.4245 110.866 66.7818 110.989 66.0288 110.989C65.2729 110.989 64.614 110.861 64.0522 110.607C63.4904 110.352 63.0537 109.966 62.7419 109.447C62.4301 108.928 62.2698 108.272 62.261 107.478H64.3522C64.3699 107.805 64.4478 108.078 64.5861 108.296C64.7243 108.514 64.914 108.68 65.1552 108.792C65.3994 108.904 65.6817 108.961 66.0023 108.961C66.2965 108.961 66.5465 108.916 66.7524 108.827C66.9612 108.738 67.1215 108.614 67.2333 108.455C67.345 108.296 67.4024 108.114 67.4053 107.91C67.4024 107.718 67.3494 107.554 67.2465 107.419C67.1436 107.28 66.9847 107.161 66.77 107.062C66.5582 106.959 66.2876 106.865 65.9582 106.779L65.014 106.531C64.2317 106.33 63.6155 106.004 63.1654 105.554C62.7154 105.102 62.4919 104.49 62.4948 103.72C62.4919 103.092 62.6419 102.542 62.9448 102.069C63.2478 101.596 63.6669 101.228 64.2022 100.963C64.7376 100.699 65.3479 100.567 66.0332 100.567C66.7332 100.567 67.3406 100.7 67.8554 100.968C68.373 101.233 68.7745 101.604 69.0598 102.084C69.3451 102.563 69.4907 103.118 69.4966 103.75H67.4053Z" fill="#FD2B20"/>
<path d="M75.1483 113.716V109.625H75.1042C75.013 109.86 74.8836 110.08 74.716 110.284C74.5483 110.489 74.338 110.655 74.085 110.78C73.835 110.906 73.5394 110.969 73.1982 110.969C72.6982 110.969 72.2438 110.823 71.8349 110.532C71.4261 110.242 71.0996 109.805 70.8555 109.223C70.6114 108.642 70.4893 107.919 70.4893 107.057C70.4893 106.161 70.6158 105.424 70.8687 104.845C71.1217 104.267 71.4526 103.839 71.8614 103.561C72.2732 103.284 72.7159 103.145 73.1894 103.145C73.5453 103.145 73.8497 103.214 74.1027 103.353C74.3556 103.489 74.5645 103.664 74.7292 103.879C74.8939 104.093 75.0189 104.317 75.1042 104.548H75.1704V103.244H77.3058V113.716H75.1483ZM73.9483 109.08C74.2101 109.08 74.4336 108.997 74.6189 108.832C74.8042 108.663 74.9469 108.427 75.0469 108.123C75.1469 107.819 75.1969 107.462 75.1969 107.052C75.1969 106.635 75.1469 106.277 75.0469 105.976C74.9498 105.675 74.8071 105.444 74.6189 105.282C74.4336 105.12 74.2101 105.039 73.9483 105.039C73.6806 105.039 73.4541 105.121 73.2688 105.287C73.0835 105.452 72.9423 105.685 72.8453 105.986C72.7512 106.287 72.7041 106.642 72.7041 107.052C72.7041 107.462 72.7526 107.819 72.8497 108.123C72.9468 108.427 73.0865 108.663 73.2688 108.832C73.4541 108.997 73.6806 109.08 73.9483 109.08Z" fill="#FD2B20"/>
<path d="M83.0424 107.572V103.244H85.1955V110.86H83.1395V109.442H83.0689C82.9189 109.908 82.663 110.278 82.3012 110.552C81.9424 110.823 81.5085 110.959 80.9997 110.959C80.5379 110.959 80.132 110.84 79.782 110.602C79.432 110.364 79.1599 110.032 78.9658 109.605C78.7717 109.176 78.6731 108.673 78.6702 108.098V103.244H80.8276V107.622C80.8306 108.035 80.9276 108.361 81.1188 108.599C81.31 108.837 81.5703 108.956 81.8997 108.956C82.1145 108.956 82.3071 108.903 82.4777 108.797C82.6512 108.688 82.788 108.531 82.888 108.326C82.991 108.118 83.0424 107.867 83.0424 107.572Z" fill="#FD2B20"/>
<path d="M86.5687 110.86V103.244H88.7262V110.86H86.5687ZM87.6496 102.356C87.3467 102.356 87.0864 102.244 86.8687 102.019C86.6511 101.791 86.5422 101.517 86.5422 101.196C86.5422 100.879 86.6511 100.608 86.8687 100.383C87.0864 100.155 87.3467 100.041 87.6496 100.041C87.9555 100.041 88.2158 100.155 88.4306 100.383C88.6482 100.608 88.757 100.879 88.757 101.196C88.757 101.517 88.6482 101.791 88.4306 102.019C88.2158 102.244 87.9555 102.356 87.6496 102.356Z" fill="#FD2B20"/>
<path d="M90.0994 110.86V103.244H92.1951V104.632H92.2657C92.3892 104.13 92.5907 103.756 92.8701 103.512C93.1495 103.264 93.4745 103.14 93.8451 103.14C93.9451 103.14 94.0481 103.148 94.154 103.165C94.2599 103.178 94.3584 103.199 94.4496 103.229V105.336C94.3466 105.297 94.2113 105.265 94.0437 105.242C93.879 105.219 93.7319 105.207 93.6025 105.207C93.3466 105.207 93.1157 105.272 92.9098 105.401C92.7069 105.526 92.5465 105.703 92.4289 105.931C92.3142 106.156 92.2568 106.42 92.2568 106.725V110.86H90.0994Z" fill="#FD2B20"/>
<path d="M95.3287 110.86V103.244H97.4243V104.632H97.4949C97.6185 104.13 97.82 103.756 98.0994 103.512C98.3788 103.264 98.7038 103.14 99.0744 103.14C99.1744 103.14 99.2774 103.148 99.3833 103.165C99.4891 103.178 99.5877 103.199 99.6789 103.229V105.336C99.5759 105.297 99.4406 105.265 99.273 105.242C99.1083 105.219 98.9612 105.207 98.8318 105.207C98.5759 105.207 98.345 105.272 98.1391 105.401C97.9361 105.526 97.7758 105.703 97.6582 105.931C97.5435 106.156 97.4861 106.42 97.4861 106.725V110.86H95.3287Z" fill="#FD2B20"/>
<path d="M103.374 111.003C102.665 111.003 102.053 110.846 101.539 110.532C101.027 110.215 100.633 109.764 100.356 109.179C100.083 108.59 99.9458 107.891 99.9458 107.082C99.9458 106.295 100.084 105.607 100.361 105.019C100.637 104.427 101.027 103.968 101.53 103.641C102.033 103.31 102.625 103.145 103.308 103.145C103.79 103.145 104.231 103.229 104.631 103.398C105.031 103.566 105.377 103.816 105.668 104.146C105.959 104.477 106.186 104.885 106.348 105.371C106.509 105.854 106.59 106.407 106.59 107.032V107.637H100.7V106.229H104.583C104.58 105.971 104.525 105.741 104.42 105.54C104.314 105.338 104.168 105.181 103.983 105.069C103.8 104.953 103.59 104.895 103.352 104.895C103.111 104.895 102.894 104.956 102.703 105.078C102.512 105.197 102.361 105.361 102.249 105.569C102.137 105.774 102.078 106.007 102.072 106.268V107.701C102.072 108.012 102.127 108.285 102.236 108.519C102.344 108.751 102.499 108.931 102.699 109.06C102.899 109.189 103.137 109.253 103.414 109.253C103.605 109.253 103.778 109.223 103.934 109.164C104.09 109.104 104.224 109.017 104.336 108.901C104.447 108.785 104.531 108.643 104.587 108.475L106.568 108.539C106.486 109.038 106.305 109.473 106.025 109.843C105.749 110.21 105.386 110.496 104.936 110.701C104.486 110.903 103.965 111.003 103.374 111.003Z" fill="#FD2B20"/>
<path d="M109.85 100.705V110.86H107.692V100.705H109.85Z" fill="#FD2B20"/>
<path d="M75.375 80.6172H68.625C68.1775 80.6172 67.7483 80.795 67.4318 81.1115C67.1153 81.428 66.9375 81.8572 66.9375 82.3047C66.9375 82.7523 67.1153 83.1815 67.4318 83.498C67.7483 83.8144 68.1775 83.9922 68.625 83.9922H75.375C75.8226 83.9922 76.2518 83.8144 76.5683 83.498C76.8848 83.1815 77.0625 82.7523 77.0625 82.3047C77.0625 81.8572 76.8848 81.428 76.5683 81.1115C76.2518 80.795 75.8226 80.6172 75.375 80.6172Z" fill="white"/>
<path d="M77.0625 75.5547H66.9375C66.49 75.5547 66.0608 75.7325 65.7443 76.049C65.4278 76.3655 65.25 76.7947 65.25 77.2422C65.25 77.6898 65.4278 78.119 65.7443 78.4355C66.0608 78.7519 66.49 78.9297 66.9375 78.9297H77.0625C77.5101 78.9297 77.9393 78.7519 78.2558 78.4355C78.5723 78.119 78.75 77.6898 78.75 77.2422C78.75 76.7947 78.5723 76.3655 78.2558 76.049C77.9393 75.7325 77.5101 75.5547 77.0625 75.5547Z" fill="white"/>
<path d="M83.9623 38.2916C80.7909 35.1159 76.5426 33.3672 72 33.3672C69.7825 33.3619 67.5858 33.7948 65.536 34.641C63.4863 35.4872 61.6239 36.73 60.0558 38.298C58.4878 39.8661 57.245 41.7284 56.3988 43.7782C55.5526 45.828 55.1198 48.0247 55.125 50.2422C55.125 55.1592 57.0098 59.7587 60.293 62.8605L60.7529 63.2919C62.6524 65.068 65.25 67.5011 65.25 69.6485V72.1797C65.25 72.6273 65.4278 73.0565 65.7443 73.373C66.0608 73.6894 66.49 73.8672 66.9375 73.8672H69.4688C69.6926 73.8672 69.9072 73.7783 70.0654 73.6201C70.2237 73.4619 70.3125 73.2473 70.3125 73.0235V60.6647C70.3126 60.494 70.2609 60.3274 70.1643 60.1867C70.0677 60.0461 69.9308 59.938 69.7715 59.8768C68.7971 59.4793 67.8713 58.9715 67.0124 58.3633C66.8194 58.2401 66.6535 58.0788 66.5248 57.8894C66.3961 57.7 66.3073 57.4863 66.2638 57.2615C66.2204 57.0366 66.2231 56.8053 66.2719 56.5815C66.3207 56.3577 66.4145 56.1463 66.5477 55.9599C66.6808 55.7736 66.8505 55.6163 67.0464 55.4977C67.2423 55.379 67.4603 55.3015 67.6871 55.2698C67.9139 55.2381 68.1448 55.2529 68.3657 55.3133C68.5866 55.3737 68.7929 55.4785 68.972 55.6211C69.7525 56.1738 71.2554 56.9922 72 56.9922C72.7447 56.9922 74.2476 56.1717 75.0302 55.6211C75.3945 55.3921 75.8327 55.3109 76.255 55.3942C76.6772 55.4775 77.0517 55.719 77.3018 56.0693C77.5518 56.4196 77.6586 56.8523 77.6002 57.2787C77.5418 57.7051 77.3227 58.0931 76.9877 58.3633C76.1286 58.9704 75.2029 59.4771 74.2286 59.8736C74.0693 59.9349 73.9324 60.0429 73.8358 60.1836C73.7392 60.3242 73.6875 60.4909 73.6875 60.6615V73.0235C73.6875 73.2473 73.7764 73.4619 73.9347 73.6201C74.0929 73.7783 74.3075 73.8672 74.5313 73.8672H77.0625C77.5101 73.8672 77.9393 73.6894 78.2558 73.373C78.5723 73.0565 78.75 72.6273 78.75 72.1797V69.6485C78.75 67.5518 81.3193 65.1207 83.1956 63.3446L83.7134 62.8531C87.0905 59.629 88.875 55.2636 88.875 50.2422C88.8862 48.0245 88.4578 45.8265 87.6146 43.7753C86.7714 41.7241 85.53 39.8603 83.9623 38.2916Z" fill="white"/>
</svg>
