<svg width="21" height="21" viewBox="0 0 21 21" fill="none" xmlns="http://www.w3.org/2000/svg">
<path d="M6.66388 17.826C7.03278 17.9682 8.3973 18.0395 8.56096 17.9465C8.56249 17.9455 8.5641 17.9445 8.56578 17.9435C8.79728 18.2151 9.22999 18.5723 9.28617 19.1376H4.48828C4.61445 18.1564 6.29103 17.6823 6.66388 17.826Z" fill="black"/>
<path d="M8.56578 17.9435C8.4265 18.0411 7.03672 17.9697 6.66388 17.826C6.29103 17.6823 4.61445 18.1564 4.48828 19.1376H9.28617C9.22999 18.5723 8.79728 18.2151 8.56578 17.9435ZM8.56578 17.9435C8.44672 18.0134 8.68476 18.2158 8.56578 18.1499M8.56578 18.1499C8.81837 18.3458 8.96503 18.5599 9.04102 18.8848H4.73046C5.00324 18.1419 6.93117 17.859 8.56578 18.1499Z" stroke="black" stroke-width="0.2"/>
<path d="M7.70268 18.0879L8.56776 18.1489C8.83066 18.3726 8.94122 18.5248 9.03295 18.879H5.05859C5.25886 18.4516 5.51133 18.353 6.07323 18.2886C6.73807 18.3409 7.1078 18.3786 7.82579 18.2886C7.79205 18.2105 7.75789 18.1677 7.70268 18.0879Z" fill="#FA3224"/>
<path d="M6.75234 18.1042C7.15715 18.22 7.68705 18.0919 7.70135 18.0886C7.75875 18.1326 7.77875 18.1963 7.83153 18.2926C7.21344 18.3741 6.80396 18.3646 6.07955 18.2926C5.54263 18.3474 5.30666 18.4422 5.05259 18.8774H4.74219C4.94981 18.0421 6.34753 17.9884 6.75234 18.1042Z" fill="white"/>
<path d="M4.89804 18.8815H4.83594C4.94543 18.6083 5.04802 18.5532 5.23453 18.4648C5.06122 18.5885 4.97004 18.6636 4.89804 18.8815Z" fill="black" stroke="black" stroke-width="0.2"/>
<path d="M11.3626 8.55156C10.7592 8.02897 10.585 7.69867 10.1036 6.77539C9.8791 7.04072 9.82955 7.33847 9.88927 8.1301C9.69515 8.45799 9.5562 8.50509 9.29994 8.55156C9.00105 9.08492 8.72598 9.24039 8.12127 9.36438C6.99137 9.28738 6.38382 9.18277 5.33532 8.91282C0.143962 16.3552 10.8971 20.4034 14.0337 19.7021C14.462 19.6848 14.8903 19.6949 15.2113 19.3591C15.9044 18.9171 14.9458 16.312 14.8183 15.9573C15.1324 13.2435 14.6147 11.6476 11.3626 8.55156Z" fill="#FA3224" stroke="black" stroke-width="0.2"/>
<path d="M10.7126 9.0707C10.3059 8.41103 10.2147 8.00567 10.1641 7.25391C11.134 8.52665 11.8359 9.29066 13.235 10.677C15.0266 13.0613 15.084 13.7718 14.6791 15.9206L14.5387 16.0221C14.4719 16.0875 14.4058 16.152 14.403 16.1202C14.2131 13.9573 14.1087 12.9177 12.8426 11.244L12.226 10.929C11.9916 10.7857 11.8457 10.6508 11.5814 10.3936C12.0049 10.6113 12.2103 10.6675 12.5343 10.677L12.5229 10.6686C11.7872 10.1247 11.3714 9.81729 10.7126 9.0707Z" fill="white"/>
<path d="M15.9949 0.883807C13.9429 0.238938 10.834 3.22268 11.3498 8.47575C14.7133 11.7754 15.9242 14.742 14.6184 16.8816C14.2542 17.4783 12.9817 19.9489 13.1219 19.8091C13.1219 19.8091 14.219 19.9692 15.1651 19.4436C16.1112 18.918 18.3323 16.0275 18.5022 12.7752C18.1074 13.1595 17.6594 14.3646 17.5659 14.4579C18.1244 11.6669 18.2818 12.2868 17.4186 10.1316C17.3453 10.1075 16.4439 7.10326 16.9798 7.19435C16.7988 7.49219 19.1938 9.04157 20.16 7.31647C21.5897 3.49748 18.6879 0.898447 15.2531 1.77071C15.2983 1.49453 15.5094 1.24099 15.9949 0.883807Z" fill="#FD2B20" stroke="black" stroke-width="0.2"/>
<path d="M11.506 8.38899L11.6593 8.53785C11.807 5.43679 12.2149 4.37066 13.3255 3.1267C12.9815 4.06741 12.872 4.60482 12.9041 5.5918C15.3564 0.75171 17.1066 2.03265 19.8447 3.46547C18.8558 1.87815 17.9571 1.23323 15.0498 2.00876C15.1416 1.83112 15.3122 1.22782 15.5829 0.989119C13.8413 0.854201 10.8687 2.73845 11.506 8.38899Z" fill="white"/>
<path d="M3.38956 7.68318C2.86877 6.93769 2.78605 6.88124 2.85115 6.41248C3.32844 5.15498 3.521 4.76104 4.17032 3.99214C5.41239 2.94769 6.22254 2.72796 7.83165 2.87272C7.70771 3.17373 7.65259 3.31363 7.61628 3.44755C7.717 3.41751 7.76764 3.43713 7.83165 3.59883C7.99138 2.76966 8.22184 2.48699 8.66622 2.02558C9.55589 1.54268 10.0084 1.27137 10.6315 0.785156C10.4452 1.30287 10.4144 1.57322 10.47 2.02558C10.6068 3.93131 10.1885 4.31543 9.50078 5.08129L9.50958 5.07938C9.71293 5.03512 9.82965 5.00972 9.93153 4.93002C10.2358 5.62495 10.3382 6.06076 10.6315 6.68478C10.9248 7.3088 9.92454 6.62091 9.93153 6.98733C10.0903 7.54897 10.045 7.78855 9.93153 8.19751C9.72717 8.4571 9.5867 8.47042 9.31233 8.37904C8.64517 9.72296 7.97743 9.4617 6.83555 9.16566C6.19209 8.86968 5.81258 8.87817 5.1395 8.86311C4.84032 8.86438 4.69527 8.82789 4.17032 8.65133C3.57469 8.30632 3.52711 8.05914 3.38956 7.68318Z" fill="#FA3224" stroke="black" stroke-width="0.2"/>
<path d="M7.59716 3.03947L7.49726 3.27264C4.69748 3.60558 4.23369 4.41851 3.39319 5.89173L3.38839 5.90016C4.91997 5.90916 5.81903 6.21512 6.14901 7.60051C6.40337 8.16089 6.55724 8.53109 6.93238 9.01441C6.46123 8.83313 6.15019 8.74945 5.46974 8.68702C4.56603 8.73396 4.03083 8.4996 3.73351 8.08081C5.15953 8.34351 5.48676 8.20504 5.68448 7.98832C4.7072 7.98514 4.00208 8.15622 3.38839 7.39937C3.38903 7.2577 3.533 7.11232 3.64056 6.97407C4.24924 6.37843 4.12401 6.20436 3.10938 6.16568C4.09928 3.6185 5.08406 2.86536 7.59716 3.03947Z" fill="white"/>
<path d="M10.2971 1.43036C10.303 1.35614 10.3102 1.31292 10.3262 1.23438C9.71507 1.63742 9.36643 1.85324 8.7215 2.19743C8.10633 2.86453 7.97303 3.31843 7.88672 4.18529C8.0521 3.6639 8.19759 3.03776 8.84282 2.32011C9.46998 1.94796 9.79696 1.78371 10.2971 1.43036Z" fill="white"/>
<path d="M3.739 8.0791C5.01613 8.30312 5.43248 8.27867 5.68724 7.99193C4.61888 7.99362 4.14169 7.82574 3.40592 7.40738C4.13441 6.56604 4.47095 6.12699 3.12304 6.16652L3.01352 6.45366C2.88035 6.77087 3.07795 7.05135 3.52913 7.58686C3.59269 7.78926 3.63725 7.8983 3.739 8.0791Z" fill="black"/>
<path d="M7.36005 4.79113C6.68496 4.5824 6.49364 4.63162 6.156 5.37668C6.13585 5.36603 6.11588 5.36879 6.07812 5.37668C6.42813 4.59634 6.76981 4.50988 7.36005 4.79113Z" fill="white"/>
<path d="M7.3027 5.85186C7.43117 5.74588 7.47417 5.63943 7.47422 5.33203C7.51287 5.34654 7.52081 5.34465 7.54641 5.39807C7.59033 5.73367 7.54937 5.78249 7.3027 5.99903C6.92638 6.21603 6.73077 6.22366 6.38595 5.99903C6.35884 5.93349 6.36311 5.91027 6.38596 5.8596C6.71241 6.10104 6.91681 6.08201 7.3027 5.85186Z" fill="white"/>
<path d="M7.3289 4.8792C6.73225 4.65756 6.47997 4.74183 6.25646 5.47496C6.24323 5.62998 6.22561 5.71113 6.18858 5.85263C6.1835 5.91817 6.19476 5.94078 6.25646 5.93733C6.29852 5.88319 6.32527 5.86271 6.38671 5.85263C6.58087 5.98678 6.64448 6.0732 6.88495 6.06272C7.59143 5.79575 7.42758 5.66142 7.46986 5.32489C7.51338 5.31005 7.55713 5.25752 7.60018 5.19291C7.63198 5.22137 7.63375 5.26786 7.68232 5.29006C7.66429 5.1938 7.63733 5.15284 7.54217 5.11887C7.48141 5.00657 7.43284 4.95469 7.3289 4.8792Z" fill="black" stroke="black" stroke-width="0.2"/>
<path d="M6.5958 5.75103C6.54568 5.72659 6.53126 5.70767 6.53322 5.66105C6.56054 5.61655 6.58285 5.60365 6.63915 5.60428C6.68554 5.61856 6.70669 5.63103 6.70206 5.69272C6.6876 5.737 6.67454 5.7579 6.5958 5.75103Z" fill="white"/>
<path d="M6.83947 5.41584C6.6894 5.38683 6.63925 5.34631 6.61719 5.21861C6.66503 5.07784 6.71787 5.02637 6.87067 4.98633C7.00468 4.99058 7.06927 5.00867 7.09298 5.17917C7.07981 5.30977 7.05671 5.37606 6.83947 5.41584Z" fill="white"/>
<path d="M5.05469 7.23276C6.56279 7.12716 7.39982 7.25181 8.88423 7.67909" stroke="black" stroke-width="0.2" stroke-linecap="round"/>
<path d="M5.05469 7.59961C6.83924 7.70285 7.81964 8.63867 8.27998 9.10618" stroke="black" stroke-width="0.2" stroke-linecap="round"/>
<path d="M2.83247 7.16715C1.93705 7.01656 1.43461 7.00836 0.535156 7.32685" stroke="black" stroke-width="0.2" stroke-linecap="round"/>
<path d="M2.9715 7.32617C2.00744 7.42342 1.80737 7.48733 0.949219 8.03153" stroke="black" stroke-width="0.2" stroke-linecap="round"/>
<path d="M6.5393 1.31341C6.73729 1.65855 6.78478 1.96718 6.74837 2.70933C5.99254 2.80643 5.55952 2.95516 4.79297 3.38598C5.07701 2.12588 5.35383 1.47023 6.62091 0.634766C6.60523 0.868307 6.58403 1.02305 6.5393 1.31341Z" fill="#FA3224" stroke="black" stroke-width="0.2" stroke-linecap="round"/>
<path d="M5.12495 3.07236C5.54993 2.21605 5.83112 1.79561 6.45014 1.17134C6.4705 1.04073 6.48405 0.965279 6.49173 0.863281C5.82352 1.36427 5.34178 1.48141 4.94922 3.17945L5.12495 3.07236Z" fill="white"/>
<path d="M12.1505 14.9668C13.0073 15.06 13.3768 15.3903 13.92 16.2647C13.9808 16.6018 13.9748 16.7969 13.92 17.1527C13.8607 16.9517 13.8259 16.8359 13.7354 16.5536C13.3454 15.7305 13.1039 15.3008 12.1505 15.2582C11.214 15.3267 10.7273 15.6552 10.465 16.9746C10.4029 17.5155 10.4716 17.8541 10.9114 18.7718C11.2392 19.1816 11.4859 19.3683 12.0064 19.6462C11.933 19.6975 11.8202 19.6936 11.531 19.6462C9.95841 19.4539 9.5147 19.7398 9.17968 20.3811H13.4902C13.4142 20.0562 13.2676 19.8421 13.015 19.6462C13.134 19.7122 13.1985 19.716 13.3176 19.6462L13.3201 19.6492C13.55 19.9189 13.6794 20.0707 13.7354 20.6339H8.9375C9.06367 19.6527 9.32886 19.2288 11.1131 19.3224C10.917 19.1253 10.8085 19.0132 10.652 18.7718C10.3055 17.9458 10.1536 17.4009 10.2487 16.9746C10.5072 15.7188 10.7938 15.1072 12.1505 14.9668Z" fill="black" stroke="black" stroke-width="0.2"/>
<path d="M12.1519 19.584L13.017 19.645C13.2799 19.8687 13.3904 20.0209 13.4822 20.3751H9.50781C9.70808 19.9477 9.96055 19.849 10.5224 19.7847C11.1873 19.837 11.557 19.8747 12.275 19.7847C12.2413 19.7066 12.2071 19.6638 12.1519 19.584Z" fill="#FA3224"/>
<path d="M13.9119 17.165L13.9132 17.171C13.6586 16.5878 13.5353 16.2562 13.0166 15.7356C12.1286 15.1887 11.696 15.1735 11.0828 15.8525C10.7773 16.4487 10.6434 16.8212 10.7604 17.8502C10.8564 18.3132 10.9285 18.5693 11.3685 18.9663C11.9325 19.2593 12.0767 19.4469 12.2807 19.789C11.6497 19.8517 11.2415 19.8441 10.5288 19.789C9.99184 19.8438 9.75587 19.9386 9.50181 20.3738H9.19141C9.39903 19.5385 10.7967 19.4848 11.2016 19.6006C11.5191 19.6915 11.9146 19.6583 12.0203 19.648C11.8895 19.6367 11.3823 19.2885 11.0828 18.9663C10.7711 18.6391 10.6628 18.3902 10.5288 17.8502C10.3483 17.0894 10.2584 16.664 10.9599 15.7356C11.4837 15.0472 12.1734 15.0811 13.1051 15.5253C13.6603 15.9584 13.7423 16.3518 13.9119 17.165Z" fill="white"/>
<path d="M9.34726 20.3776H9.28516C9.39465 20.1044 9.49724 20.0493 9.68375 19.9609C9.51043 20.0846 9.41925 20.1597 9.34726 20.3776Z" fill="black" stroke="black" stroke-width="0.2"/>
<path d="M6.45436 9.72852C4.49582 10.0585 3.48519 10.3743 1.87142 11.2097C1.85285 16.2846 2.6269 18.5255 6.45436 20.6351C10.8254 18.0083 11.2031 15.6844 11.0672 11.2097C9.35326 10.3496 8.35504 9.98993 6.45436 9.72852Z" fill="#010012" stroke="#008CFF" stroke-width="0.2"/>
<path d="M4.16143 16.8393L3.98828 16.1707H4.14719L4.23696 16.6088H4.2419L4.34445 16.1707H4.47402L4.57657 16.6098H4.5815L4.67156 16.1707H4.83018L4.65733 16.8393H4.51875L4.41156 16.4338H4.40691L4.29971 16.8393H4.16143Z" fill="#FD2B20"/>
<path d="M5.04865 16.8488C5.00197 16.8488 4.96169 16.8385 4.92779 16.8178C4.89409 16.7969 4.86814 16.7672 4.84994 16.7287C4.83192 16.6899 4.82292 16.6439 4.82292 16.5906C4.82292 16.5388 4.83202 16.4935 4.85023 16.4547C4.86843 16.4158 4.89409 16.3855 4.92721 16.364C4.96033 16.3422 4.99936 16.3313 5.04429 16.3313C5.07605 16.3313 5.1051 16.3369 5.13144 16.348C5.15778 16.3591 5.18054 16.3755 5.19971 16.3973C5.21889 16.419 5.2338 16.4459 5.24445 16.4779C5.2551 16.5097 5.26043 16.5462 5.26043 16.5873V16.6271H4.8726V16.5344H5.12825C5.12805 16.5174 5.12447 16.5023 5.1175 16.489C5.11052 16.4757 5.10094 16.4654 5.08874 16.458C5.07673 16.4504 5.06288 16.4466 5.04719 16.4466C5.03131 16.4466 5.01708 16.4506 5.00449 16.4587C4.9919 16.4665 4.98193 16.4773 4.97457 16.491C4.96721 16.5045 4.96333 16.5198 4.96295 16.537V16.6314C4.96295 16.6518 4.96653 16.6698 4.97369 16.6852C4.98086 16.7005 4.99103 16.7123 5.0042 16.7208C5.01737 16.7293 5.03306 16.7335 5.05126 16.7335C5.06385 16.7335 5.07528 16.7316 5.08554 16.7277C5.09581 16.7238 5.10462 16.718 5.11198 16.7104C5.11934 16.7028 5.12486 16.6934 5.12854 16.6823L5.25898 16.6865C5.25355 16.7194 5.24164 16.748 5.22324 16.7724C5.20504 16.7966 5.18112 16.8154 5.15149 16.8289C5.12185 16.8422 5.08757 16.8488 5.04865 16.8488Z" fill="#FD2B20"/>
<path d="M5.33298 16.8393V16.1707H5.47504V16.4237H5.47795C5.48376 16.4085 5.49199 16.3938 5.50264 16.3796C5.51349 16.3655 5.52724 16.354 5.54389 16.345C5.56074 16.3359 5.58089 16.3313 5.60432 16.3313C5.63531 16.3313 5.66426 16.3405 5.69118 16.3588C5.7183 16.377 5.74018 16.4052 5.75684 16.4433C5.77349 16.4814 5.78182 16.5299 5.78182 16.5889C5.78182 16.6457 5.77379 16.6933 5.75771 16.7316C5.74183 16.7699 5.72033 16.7986 5.69322 16.8178C5.6663 16.8369 5.63637 16.8465 5.60345 16.8465C5.58098 16.8465 5.56152 16.8424 5.54506 16.8341C5.52859 16.8258 5.51475 16.815 5.50351 16.8015C5.49247 16.788 5.48395 16.7735 5.47795 16.758H5.47359V16.8393H5.33298ZM5.47214 16.5886C5.47214 16.6156 5.47533 16.6391 5.48173 16.6591C5.48831 16.6791 5.4977 16.6947 5.5099 16.7058C5.5223 16.7167 5.53712 16.7221 5.55435 16.7221C5.57178 16.7221 5.5866 16.7167 5.5988 16.7058C5.611 16.6947 5.6202 16.6791 5.6264 16.6591C5.63279 16.6391 5.63599 16.6156 5.63599 16.5886C5.63599 16.5616 5.63279 16.5382 5.6264 16.5184C5.6202 16.4986 5.611 16.4832 5.5988 16.4724C5.58679 16.4615 5.57198 16.456 5.55435 16.456C5.53692 16.456 5.52211 16.4614 5.5099 16.472C5.4977 16.4827 5.48831 16.4979 5.48173 16.5177C5.47533 16.5376 5.47214 16.5612 5.47214 16.5886Z" fill="#FD2B20"/>
<path d="M6.17786 16.3712C6.17593 16.3472 6.16731 16.3286 6.15201 16.3153C6.1369 16.3018 6.11531 16.2951 6.08722 16.2951C6.06863 16.2951 6.05314 16.2978 6.04074 16.3033C6.02835 16.3087 6.01905 16.3162 6.01285 16.3258C6.00665 16.3351 6.00346 16.3459 6.00326 16.3581C6.00288 16.3681 6.00462 16.3769 6.00849 16.3845C6.01256 16.3922 6.01837 16.3989 6.02592 16.4048C6.03367 16.4104 6.04297 16.4155 6.05381 16.4198C6.06466 16.4242 6.07686 16.428 6.09042 16.4312L6.14155 16.4443C6.17099 16.4515 6.19694 16.461 6.2194 16.473C6.24206 16.485 6.26104 16.4992 6.27635 16.5158C6.29184 16.5323 6.30356 16.5514 6.3115 16.5729C6.31944 16.5945 6.3235 16.6186 6.3237 16.6454C6.3235 16.6876 6.31401 16.7239 6.29523 16.7541C6.27644 16.7844 6.24942 16.8076 6.21418 16.8237C6.17912 16.8398 6.1368 16.8478 6.08722 16.8478C6.03745 16.8478 5.99407 16.8394 5.95707 16.8227C5.92008 16.8059 5.89132 16.7805 5.87079 16.7463C5.85026 16.7121 5.83971 16.6689 5.83913 16.6167H5.97683C5.97799 16.6382 5.98312 16.6562 5.99223 16.6705C6.00133 16.6849 6.01382 16.6958 6.0297 16.7032C6.04578 16.7106 6.06437 16.7143 6.08548 16.7143C6.10485 16.7143 6.12131 16.7113 6.13487 16.7055C6.14862 16.6996 6.15917 16.6914 6.16653 16.681C6.17389 16.6705 6.17767 16.6586 6.17786 16.6451C6.17767 16.6324 6.17418 16.6217 6.1674 16.6128C6.16062 16.6036 6.15017 16.5958 6.13603 16.5892C6.12208 16.5825 6.10427 16.5763 6.08257 16.5706L6.02041 16.5543C5.96889 16.541 5.92831 16.5196 5.89868 16.49C5.86905 16.4602 5.85433 16.4199 5.85452 16.3692C5.85433 16.3278 5.86421 16.2916 5.88416 16.2605C5.9041 16.2294 5.9317 16.2051 5.96695 16.1877C6.0022 16.1703 6.04239 16.1616 6.08751 16.1616C6.13361 16.1616 6.1736 16.1704 6.20749 16.188C6.24158 16.2054 6.26802 16.2299 6.2868 16.2615C6.30559 16.293 6.31518 16.3296 6.31556 16.3712H6.17786Z" fill="#FD2B20"/>
<path d="M6.68771 17.0274V16.758H6.6848C6.6788 16.7735 6.67028 16.788 6.65924 16.8015C6.6482 16.815 6.63435 16.8258 6.6177 16.8341C6.60123 16.8424 6.58177 16.8465 6.5593 16.8465C6.52638 16.8465 6.49646 16.8369 6.46953 16.8178C6.44261 16.7986 6.42112 16.7699 6.40504 16.7316C6.38897 16.6933 6.38093 16.6457 6.38093 16.5889C6.38093 16.5299 6.38926 16.4814 6.40591 16.4433C6.42257 16.4052 6.44436 16.377 6.47128 16.3588C6.49839 16.3405 6.52754 16.3313 6.55872 16.3313C6.58216 16.3313 6.6022 16.3359 6.61886 16.345C6.63551 16.354 6.64926 16.3655 6.66011 16.3796C6.67096 16.3938 6.67919 16.4085 6.6848 16.4237H6.68916V16.3379H6.82977V17.0274H6.68771ZM6.60869 16.7221C6.62593 16.7221 6.64065 16.7167 6.65285 16.7058C6.66505 16.6947 6.67444 16.6791 6.68103 16.6591C6.68761 16.6391 6.6909 16.6156 6.6909 16.5886C6.6909 16.5612 6.68761 16.5376 6.68103 16.5177C6.67464 16.4979 6.66524 16.4827 6.65285 16.472C6.64065 16.4614 6.62593 16.456 6.60869 16.456C6.59107 16.456 6.57615 16.4615 6.56395 16.4724C6.55175 16.4832 6.54245 16.4986 6.53606 16.5184C6.52986 16.5382 6.52677 16.5616 6.52677 16.5886C6.52677 16.6156 6.52996 16.6391 6.53635 16.6591C6.54274 16.6791 6.55194 16.6947 6.56395 16.7058C6.57615 16.7167 6.59107 16.7221 6.60869 16.7221Z" fill="#FD2B20"/>
<path d="M7.2075 16.6229V16.3379H7.34927V16.8393H7.2139V16.746H7.20925C7.19937 16.7766 7.18252 16.801 7.1587 16.8191C7.13507 16.8369 7.1065 16.8459 7.073 16.8459C7.04259 16.8459 7.01586 16.838 6.99282 16.8224C6.96977 16.8067 6.95186 16.7848 6.93907 16.7567C6.92629 16.7284 6.9198 16.6954 6.91961 16.6575V16.3379H7.06167V16.6261C7.06186 16.6533 7.06825 16.6748 7.08084 16.6905C7.09343 16.7061 7.11057 16.714 7.13226 16.714C7.1464 16.714 7.15909 16.7105 7.17032 16.7035C7.18175 16.6963 7.19075 16.686 7.19734 16.6725C7.20412 16.6588 7.2075 16.6422 7.2075 16.6229Z" fill="#FD2B20"/>
<path d="M7.4397 16.8393V16.3379H7.58176V16.8393H7.4397ZM7.51087 16.2794C7.49092 16.2794 7.47378 16.272 7.45945 16.2572C7.44512 16.2422 7.43795 16.2241 7.43795 16.203C7.43795 16.1821 7.44512 16.1643 7.45945 16.1495C7.47378 16.1345 7.49092 16.127 7.51087 16.127C7.53101 16.127 7.54815 16.1345 7.56229 16.1495C7.57662 16.1643 7.58379 16.1821 7.58379 16.203C7.58379 16.2241 7.57662 16.2422 7.56229 16.2572C7.54815 16.272 7.53101 16.2794 7.51087 16.2794Z" fill="#FD2B20"/>
<path d="M7.67218 16.8393V16.3379H7.81017V16.4293H7.81482C7.82295 16.3962 7.83622 16.3716 7.85462 16.3555C7.87302 16.3392 7.89442 16.331 7.91882 16.331C7.92541 16.331 7.93218 16.3315 7.93916 16.3326C7.94613 16.3335 7.95262 16.3349 7.95862 16.3369V16.4756C7.95184 16.473 7.94293 16.471 7.93189 16.4694C7.92105 16.4679 7.91136 16.4671 7.90284 16.4671C7.88599 16.4671 7.87079 16.4714 7.85723 16.4799C7.84387 16.4881 7.83331 16.4998 7.82557 16.5148C7.81801 16.5296 7.81424 16.547 7.81424 16.567V16.8393H7.67218Z" fill="#FD2B20"/>
<path d="M8.01651 16.8393V16.3379H8.1545V16.4293H8.15915C8.16728 16.3962 8.18055 16.3716 8.19895 16.3555C8.21735 16.3392 8.23875 16.331 8.26315 16.331C8.26973 16.331 8.27651 16.3315 8.28348 16.3326C8.29046 16.3335 8.29695 16.3349 8.30295 16.3369V16.4756C8.29617 16.473 8.28726 16.471 8.27622 16.4694C8.26538 16.4679 8.25569 16.4671 8.24717 16.4671C8.23032 16.4671 8.21512 16.4714 8.20156 16.4799C8.1882 16.4881 8.17764 16.4998 8.1699 16.5148C8.16234 16.5296 8.15857 16.547 8.15857 16.567V16.8393H8.01651Z" fill="#FD2B20"/>
<path d="M8.54625 16.8488C8.49958 16.8488 8.45929 16.8385 8.4254 16.8178C8.3917 16.7969 8.36575 16.7672 8.34754 16.7287C8.32953 16.6899 8.32053 16.6439 8.32053 16.5906C8.32053 16.5388 8.32963 16.4935 8.34783 16.4547C8.36604 16.4158 8.3917 16.3855 8.42482 16.364C8.45794 16.3422 8.49696 16.3313 8.54189 16.3313C8.57366 16.3313 8.60271 16.3369 8.62905 16.348C8.65539 16.3591 8.67814 16.3755 8.69732 16.3973C8.71649 16.419 8.7314 16.4459 8.74206 16.4779C8.75271 16.5097 8.75803 16.5462 8.75803 16.5873V16.6271H8.3702V16.5344H8.62585C8.62566 16.5174 8.62208 16.5023 8.6151 16.489C8.60813 16.4757 8.59854 16.4654 8.58634 16.458C8.57433 16.4504 8.56049 16.4466 8.5448 16.4466C8.52892 16.4466 8.51468 16.4506 8.50209 16.4587C8.48951 16.4665 8.47953 16.4773 8.47217 16.491C8.46481 16.5045 8.46094 16.5198 8.46055 16.537V16.6314C8.46055 16.6518 8.46413 16.6698 8.4713 16.6852C8.47847 16.7005 8.48863 16.7123 8.5018 16.7208C8.51497 16.7293 8.53066 16.7335 8.54887 16.7335C8.56146 16.7335 8.57288 16.7316 8.58315 16.7277C8.59341 16.7238 8.60222 16.718 8.60958 16.7104C8.61694 16.7028 8.62246 16.6934 8.62614 16.6823L8.75658 16.6865C8.75116 16.7194 8.73925 16.748 8.72085 16.7724C8.70264 16.7966 8.67872 16.8154 8.64909 16.8289C8.61946 16.8422 8.58518 16.8488 8.54625 16.8488Z" fill="#FD2B20"/>
<path d="M8.97265 16.1707V16.8393H8.83059V16.1707H8.97265Z" fill="#FD2B20"/>
<path d="M5.54927 13.3884V12.7832L3.875 13.5921V14.1194L5.54927 14.9224V14.3292L4.46154 13.8498L5.54927 13.3884Z" fill="#008CFF"/>
<path d="M7.41557 13.3884V12.7832L9.08984 13.5921V14.1194L7.41557 14.9224V14.3292L8.50331 13.8498L7.41557 13.3884Z" fill="#008CFF"/>
<path d="M7.10424 12.1426H6.62969L5.86719 15.3124H6.35245L7.10424 12.1426Z" fill="#FD2B20"/>
<path d="M12.5335 13.1264C12.9353 13.3039 13.1241 13.4574 13.4303 13.7736C12.4128 13.5639 12.0388 13.5005 12.0049 13.5614C11.9177 13.7549 11.8562 13.8028 11.7122 13.6993C11.3891 13.262 11.1742 13.1086 10.655 13.1901C10.1877 13.2963 9.94568 13.3717 9.85256 13.7736C9.83544 13.8456 9.89707 13.8612 9.97528 13.8478C10.5266 13.7003 10.8189 13.6574 11.1175 14.0918C10.8668 14.065 10.7317 14.0688 10.4945 14.0918C10.2233 14.1321 10.0763 14.166 9.85256 14.3146C9.67924 14.3921 9.64613 14.4532 9.91864 14.6541C10.2422 14.7646 10.4647 14.778 10.8532 14.7602C11.0209 14.7788 11.08 14.818 11.1175 14.9299C10.7679 15.0564 10.5639 15.1091 10.1641 15.1103C10.3426 15.4961 10.5613 15.6253 11.2874 15.6089C11.8374 15.9307 12.2104 16.0104 12.9866 15.9802C12.5834 16.264 12.2639 16.3937 11.601 16.3006C11.6353 16.4861 11.848 16.5458 12.4391 16.5955C13.521 16.5399 14.2303 14.4371 14.2768 14.8532C14.3233 15.2692 14.3625 15.5624 14.4026 16.1287C13.515 17.058 12.971 17.1591 11.9388 16.8077C11.5178 16.6184 11.3879 16.4431 11.2874 16.0438C10.4207 15.9604 10.1463 15.8114 9.91864 15.4179C9.62297 14.5786 9.43623 14.0933 9.66378 13.625C10.3514 12.6716 10.8003 12.5072 11.7594 13.1264C12.0865 13.0612 12.2603 13.0518 12.5335 13.1264Z" fill="black"/>
<path d="M12.437 16.6032C11.8103 16.5689 11.6847 16.4853 11.593 16.2988C12.2568 16.3887 12.5357 16.2821 12.9708 15.9856C12.248 16.0195 11.8852 15.9327 11.2907 15.6106C10.5689 15.6003 10.3113 15.4991 10.172 15.1077C10.5373 15.1026 10.7401 15.0623 11.1102 14.9313C11.0797 14.8224 11.0316 14.7795 10.855 14.7592C10.4664 14.7951 10.2606 14.778 9.93253 14.6578C9.64891 14.4605 9.65228 14.3852 9.88542 14.3004C10.3149 14.0523 10.599 14.0637 11.1001 14.0839L11.1102 14.0843C10.7993 13.6916 10.7349 13.6954 10.015 13.8372C9.82723 13.8758 9.81156 13.8336 9.88542 13.6828C9.9897 13.3118 10.2699 13.3001 10.6627 13.1843C11.2411 13.1354 11.4358 13.296 11.7147 13.6828C11.8445 13.8001 11.8986 13.7637 11.9816 13.6255C12.0144 13.5153 12.0824 13.5195 12.2211 13.5505C13.0651 13.7154 12.897 13.7208 13.764 13.7927L14.2451 14.8661C13.8466 16.0597 13.6153 16.5061 12.437 16.6032Z" fill="#FD2B20" stroke="#FD2B20" stroke-width="0.2"/>
<path d="M1.60938 12.9082C1.80007 12.9341 1.98792 13.0399 2.19336 13.1914L2.40625 13.3574L2.41602 13.3652L2.42285 13.375C2.4414 13.3999 2.46029 13.4251 2.47461 13.4492C2.48796 13.4717 2.50332 13.503 2.50781 13.5381C2.5131 13.5805 2.5014 13.626 2.46582 13.6602C2.43655 13.6882 2.39865 13.7011 2.36719 13.709L2.35254 13.7129L2.33691 13.7119C1.95954 13.6894 1.71066 13.69 1.54883 13.7305C1.47073 13.7501 1.41994 13.7776 1.38574 13.8105C1.38096 13.8152 1.37748 13.821 1.37305 13.8262C1.47329 13.8217 1.55763 13.8172 1.63672 13.8174L1.99121 13.832L2.00488 13.833L2.01758 13.8379C2.20234 13.903 2.34573 13.9622 2.44434 14.0186C2.49336 14.0466 2.53627 14.0768 2.56836 14.1104C2.60043 14.1439 2.62895 14.189 2.63086 14.2451C2.63277 14.3027 2.60613 14.3497 2.57422 14.3838C2.54303 14.4171 2.5009 14.445 2.45508 14.4697C2.36308 14.5195 2.23131 14.5686 2.06738 14.6201L2.05078 14.625L2.0332 14.624C1.86794 14.6183 1.74664 14.619 1.63086 14.6367C1.55678 14.6481 1.4839 14.669 1.40137 14.6992L1.40234 14.7002C1.54869 14.7341 1.79138 14.7651 2.13281 14.8047L2.29199 14.8232L2.20508 14.958C2.06075 15.1821 1.91802 15.3544 1.71777 15.4111C1.51615 15.4682 1.28841 15.4 0.998047 15.2402L0.983398 15.2324L0.972656 15.2197C0.892668 15.1324 0.849464 15.0738 0.819336 15.0059L0.791992 14.9336L0.788086 14.9209V14.9072C0.783204 14.7653 0.769401 14.676 0.737305 14.5684L0.699219 14.4521C0.609072 14.2082 0.582958 14.0191 0.608398 13.8359C0.633359 13.6566 0.706833 13.4907 0.796875 13.2979L0.804688 13.2812L0.817383 13.2686C1.09543 12.9938 1.3415 12.872 1.60938 12.9082Z" fill="#FA2F1F" stroke="black" stroke-width="0.2"/>
</svg>
