<svg width="465" height="527" viewBox="0 0 465 527" fill="none" xmlns="http://www.w3.org/2000/svg">
<path d="M144.601 454.243C153.027 457.746 184.084 459.248 187.784 456.869C187.819 456.843 187.855 456.817 187.893 456.792C193.224 463.586 203.153 472.493 204.567 486.723L95.4259 487.761C98.0608 463.011 136.085 450.704 144.601 454.243Z" fill="black"/>
<path d="M187.893 456.792C184.748 459.28 153.117 457.783 144.601 454.243C136.085 450.704 98.0608 463.011 95.4259 487.761L204.567 486.723C203.153 472.493 193.224 463.586 187.893 456.792ZM187.893 456.792C185.202 458.578 190.665 463.628 187.943 461.992M187.943 461.992C193.736 466.873 197.123 472.237 198.93 480.407L100.874 481.34C106.901 462.561 150.689 455.017 187.943 461.992Z" stroke="black"/>
<path d="M168.274 460.625L187.967 461.974C194.001 467.555 196.552 471.367 198.724 480.271L108.317 481.131C112.77 470.318 118.489 467.778 131.256 466.035C146.392 467.208 154.811 468.079 171.122 465.656C170.336 463.695 169.549 462.625 168.274 460.625Z" fill="#FA3224"/>
<path d="M146.684 461.225C155.921 464.055 167.944 460.711 168.268 460.626C169.585 461.721 170.055 463.323 171.279 465.737C157.238 467.926 147.921 467.774 131.425 466.117C119.225 467.614 113.88 470.053 108.204 481.075L101.144 481.142C105.666 460.048 137.448 458.394 146.684 461.225Z" fill="white"/>
<path d="M104.684 481.214L103.272 481.227C105.697 474.319 108.018 472.909 112.239 470.642C108.326 473.796 106.27 475.709 104.684 481.214Z" fill="black" stroke="black"/>
<path d="M249.257 219.528C235.405 206.49 231.364 198.205 220.192 175.045C215.148 181.78 214.092 189.293 215.64 209.227C211.303 217.531 208.154 218.748 202.335 219.974C195.664 233.478 189.444 237.455 175.718 240.711C149.997 239.015 136.152 236.51 112.236 229.935C-4.07077 418.588 241.507 518.266 312.69 499.916C322.428 499.387 332.174 499.548 339.396 491.017C355.057 479.731 332.625 414.297 329.64 405.385C336.134 336.936 323.976 296.836 249.257 219.528Z" fill="#FA3224" stroke="black" stroke-width="15"/>
<path d="M234.599 232.758C225.19 216.224 223.017 206.029 221.686 187.098C244.055 218.958 260.204 238.057 292.363 272.687C333.689 332.378 335.164 350.267 326.471 404.501L323.299 407.089C321.796 408.751 320.309 410.389 320.238 409.588C315.398 355.13 312.773 328.958 283.573 287.058L269.472 279.255C264.105 275.695 260.753 272.326 254.68 265.903C264.364 271.298 269.05 272.668 276.424 272.839L276.161 272.628C259.297 259.084 249.764 251.427 234.599 232.758Z" fill="white"/>
<path d="M352.813 25.3486C305.98 9.54364 235.976 85.3995 248.968 217.652C326.27 300.068 354.527 374.556 325.335 428.751C317.194 443.865 288.839 506.393 291.996 502.84C291.996 502.84 316.99 506.638 338.385 493.19C359.781 479.741 409.613 406.426 412.699 324.439C403.809 334.209 393.909 364.671 391.802 367.043C403.839 296.595 407.568 312.182 387.416 258.063C385.742 257.471 364.518 181.966 376.729 184.146C372.684 191.69 427.536 230.212 449.101 186.534C480.708 89.9961 414.075 25.1347 336.151 47.857C337.112 40.8881 341.855 34.4539 352.813 25.3486Z" fill="#FD2B20" stroke="black" stroke-width="15"/>
<path d="M252.464 215.399L255.987 219.117C258.603 140.946 267.627 113.994 292.591 82.4086C284.992 106.187 282.63 119.752 283.595 144.614C338.22 22.1253 378.341 54.0231 440.969 89.5339C418.093 49.7515 397.495 33.6955 331.546 53.8663C333.592 49.3703 337.33 34.1317 343.43 28.0584C303.779 25.0357 236.613 73.1575 252.464 215.399Z" fill="white"/>
<path d="M67.6741 199.37C55.6485 180.698 53.7532 179.294 55.1218 167.468C65.6777 135.679 69.9634 125.711 84.5496 106.196C112.553 79.6098 130.93 73.8977 167.568 77.1971C164.821 84.8089 163.6 88.3458 162.807 91.7282C165.091 90.9494 166.247 91.4329 167.742 95.4933C171.177 74.5657 176.351 67.3934 186.349 55.6708C206.471 43.3104 216.7 36.376 230.757 23.9898C226.643 37.0753 226.009 43.8939 227.38 55.2804C230.95 103.271 221.526 113.04 206.066 132.487L206.266 132.436C210.881 131.277 213.53 130.612 215.828 128.582C222.918 146.026 225.35 156.986 232.172 172.646C238.993 188.306 216.075 171.189 216.322 180.421C220.069 194.538 219.096 200.585 216.612 210.914C212.025 217.5 208.833 217.866 202.57 215.622C187.716 249.63 172.464 243.192 146.418 235.979C131.71 228.661 123.078 228.957 107.764 228.723C100.959 228.82 97.6504 227.932 85.6666 223.596C72.0347 215.032 70.893 208.814 67.6741 199.37Z" fill="#FA3224" stroke="black" stroke-width="15"/>
<path d="M162.251 81.4382L160.034 87.3352C96.4252 96.3303 86.07 116.915 67.3038 154.218L67.1965 154.431C102.039 154.327 122.564 161.842 130.402 196.679C136.322 210.744 139.911 220.039 148.561 232.136C137.8 227.67 130.704 225.629 115.211 224.203C94.6646 225.581 82.4338 219.792 75.5702 209.304C108.072 215.614 115.482 212.055 119.928 206.551C97.6963 206.682 81.6976 211.146 67.556 192.208C67.5367 188.638 70.7768 184.944 73.1903 181.437C86.8935 166.296 84.0032 161.937 60.9134 161.182C82.8208 96.7854 105.042 77.595 162.251 81.4382Z" fill="white"/>
<path d="M223.294 40.3347C223.41 38.4633 223.562 37.3725 223.909 35.39C210.103 45.6781 202.224 51.1916 187.636 60.0039C173.802 76.9462 170.879 88.4125 169.123 110.274C172.761 97.1002 175.92 81.2916 190.425 63.0689C204.602 53.5559 212.001 49.3464 223.294 40.3347Z" fill="white"/>
<path d="M75.7138 209.284C104.819 214.652 114.284 213.946 120.011 206.665C95.7087 206.939 84.8134 202.812 67.9762 192.43C84.3458 171.073 91.8961 159.937 61.2437 161.225L58.8213 168.484C55.8679 176.505 60.4301 183.53 70.8219 196.926C72.3163 202.012 73.3561 204.75 75.7138 209.284Z" fill="black"/>
<path d="M168.621 126.942C147.243 119.847 141.22 121.625 130.811 147.776C130.171 147.41 129.542 147.512 128.353 147.799C139.141 120.411 149.897 117.286 168.621 126.942Z" fill="white"/>
<path d="M167.086 164.05C171.106 160.306 172.427 156.571 172.327 145.824C173.552 146.32 173.801 146.251 174.627 148.111C176.125 159.832 174.849 161.551 167.135 169.196C155.329 176.896 149.157 177.221 138.199 169.471C137.321 167.188 137.448 166.374 138.153 164.596C148.537 172.939 154.982 172.213 167.086 164.05Z" fill="white"/>
<path d="M167.664 130.015C148.758 122.445 140.823 125.467 134.012 151.167C133.646 156.591 133.117 159.433 131.995 164.392C131.857 166.685 132.22 167.472 134.166 167.333C135.476 165.427 136.313 164.703 138.249 164.332C144.422 168.964 146.458 171.966 154.045 171.528C176.255 161.982 171.039 157.334 172.262 145.555C173.631 145.024 174.994 143.174 176.331 140.902C177.344 141.887 177.416 143.512 178.956 144.274C178.355 140.914 177.49 139.49 174.476 138.331C172.52 134.422 170.97 132.623 167.664 130.015Z" fill="black" stroke="black"/>
<path d="M144.798 160.737C143.208 159.897 142.747 159.24 142.793 157.61C143.64 156.046 144.34 155.588 146.117 155.593C147.587 156.078 148.258 156.508 148.133 158.666C147.691 160.219 147.286 160.953 144.798 160.737Z" fill="white"/>
<path d="M152.391 148.986C147.645 148.016 146.049 146.614 145.31 142.157C146.773 137.22 148.424 135.405 153.233 133.959C157.465 134.068 159.509 134.681 160.314 140.634C159.942 145.205 159.235 147.529 152.391 148.986Z" fill="white"/>
<path d="M105.397 187.662C139.678 184.675 158.748 187.634 192.617 198.079" stroke="black" stroke-width="5" stroke-linecap="round"/>
<path d="M105.488 196.924C146.107 199.139 168.633 222.507 179.217 234.188" stroke="black" stroke-width="5" stroke-linecap="round"/>
<path d="M54.8667 186.506C34.4618 182.905 23.0304 182.808 2.64642 191.027" stroke="black" stroke-width="5" stroke-linecap="round"/>
<path d="M58.0998 190.498C36.193 193.157 31.6572 194.811 12.2668 208.709" stroke="black" stroke-width="5" stroke-linecap="round"/>
<path d="M137.767 38.1889C142.353 46.8429 143.507 54.6094 142.857 73.3174C125.687 75.9277 115.872 79.7692 98.5385 90.7906C104.698 58.9778 110.838 42.397 139.46 21.0712C139.16 26.9592 138.715 30.863 137.767 38.1889Z" fill="#FA3224" stroke="black" stroke-width="10" stroke-linecap="round"/>
<path d="M106.031 82.805C115.493 61.136 121.789 50.4812 135.72 34.6171C136.152 31.3216 136.442 29.4176 136.592 26.8459C121.512 39.6141 110.582 42.6701 102.059 85.5414L106.031 82.805Z" fill="white"/>
<path d="M268.75 381.019C288.264 383.183 296.748 391.426 309.314 413.34C310.778 421.82 310.687 426.738 309.527 435.715C308.129 430.663 307.311 427.755 305.183 420.659C296.114 400.004 290.519 389.23 268.82 388.363C247.533 390.292 236.541 398.672 230.89 431.975C229.607 445.618 231.252 454.136 241.477 477.165C249.032 487.419 254.687 492.071 266.595 498.96C264.936 500.268 262.371 500.194 255.78 499.063C219.961 494.558 209.936 501.857 202.469 518.09L300.524 517.157C298.718 508.987 295.33 503.623 289.537 498.741C292.26 500.378 293.728 500.462 296.42 498.676L296.479 498.751C301.773 505.498 304.753 509.295 306.161 523.473L197.021 524.511C199.656 499.761 205.586 489.021 246.196 490.993C241.687 486.07 239.192 483.269 235.576 477.221C227.495 456.482 223.91 442.786 225.969 432.022C231.549 400.324 237.922 384.85 268.75 381.019Z" fill="black" stroke="black"/>
<path d="M269.862 497.375L289.555 498.724C295.589 504.305 298.14 508.117 300.312 517.021L209.904 517.881C214.358 507.068 220.077 504.528 232.843 502.785C247.98 503.958 256.399 504.829 272.71 502.406C271.924 500.445 271.137 499.375 269.862 497.375Z" fill="#FA3224"/>
<path d="M309.355 436.012L309.385 436.163C303.454 421.523 300.57 413.196 288.646 400.188C268.315 386.602 258.47 386.312 244.685 403.552C237.878 418.642 234.921 428.056 237.829 453.961C240.124 465.605 241.827 472.043 251.931 481.951C264.831 489.213 268.155 493.909 272.878 502.484C258.538 504.201 249.252 504.098 233.025 502.863C220.824 504.361 215.479 506.8 209.804 517.822L202.743 517.889C207.266 496.795 239.048 495.141 248.284 497.971C255.53 500.191 264.517 499.27 266.919 498.987C263.942 498.731 252.32 490.067 245.432 482.013C238.262 473.835 235.74 467.587 232.56 454.011C228.272 434.879 226.126 424.178 241.86 400.633C253.612 383.176 269.308 383.878 290.608 394.871C303.341 405.663 305.302 415.558 309.355 436.012Z" fill="white"/>
<path d="M206.272 517.96L204.86 517.973C207.285 511.065 209.605 509.655 213.827 507.388C209.914 510.542 207.858 512.455 206.272 517.96Z" fill="black" stroke="black"/>
<path d="M73.0055 91.0916C64.3631 101.641 59.3343 107.508 67.7755 122.554C89.3659 150.925 117.668 148.93 176.015 136.609C192.477 131.012 203.562 128.732 216.176 121.099C169.599 96.1437 131.225 87.8521 73.0055 91.0916Z" fill="#08080A"/>
<path fill-rule="evenodd" clip-rule="evenodd" d="M245.147 79.2697C250.406 94.4653 242.435 98.2762 215.968 99.82C157.437 69.3941 126.364 63.4003 72.7572 65.7619C50.1913 46.0811 48.2802 37.0928 63.2602 27.3464C137.182 -1.74134 177.233 11.1196 245.147 79.2697Z" fill="#11577A"/>
<path fill-rule="evenodd" clip-rule="evenodd" d="M215.968 99.82L216.143 117.718C163.088 87.8907 131.243 84.3288 72.9677 87.2362L72.7572 65.7619C126.364 63.4003 157.437 69.3941 215.968 99.82Z" fill="#1C77A4"/>
<path d="M73.0055 91.0916C131.225 87.8521 169.599 96.1437 216.176 121.099L216.143 117.718C163.088 87.8907 131.243 84.3288 72.9677 87.2362L73.0055 91.0916Z" fill="#E8CA71"/>
<path d="M152.412 81.4434C151.854 85.2636 148.053 87.8714 143.923 87.2681C139.793 86.6648 136.897 83.0789 137.455 79.2588C138.013 75.4386 141.813 72.8309 145.943 73.4341C150.074 74.0374 152.97 77.6233 152.412 81.4434Z" fill="#E8CA71"/>
<path d="M237.98 291.569L255.369 400.42C257.124 407.447 255.231 409.835 248.153 412.039L217.849 416.88C214.164 390.225 209.928 366.436 207.485 345.973C203.564 313.118 204.265 288.835 219.288 275.022C232.1 272.938 235.518 277.545 237.98 291.569Z" fill="#632812"/>
<path d="M59.0258 442.252C47.3217 444.453 45.45 443.359 43.7891 434.22L33.9072 372.362L49.1334 369.93L51.4382 384.357L87.6747 378.568L85.3699 364.141L146.1 354.439L148.404 368.867L182.963 363.346L180.867 350.225L207.485 345.973C209.928 366.436 214.164 390.225 217.849 416.88L59.0258 442.252Z" fill="#632812"/>
<path d="M33.5733 370.272L26.7701 371.358L20.5753 332.58C19.0103 313.884 22.0893 307.203 36.9635 304.148L219.288 275.022C204.265 288.835 203.564 313.118 207.485 345.973L180.867 350.225L178.354 334.491L143.795 340.012L146.1 354.439L85.3699 364.141L83.0651 349.713L46.8286 355.502L49.1334 369.93L33.9072 372.362L33.5733 370.272Z" fill="#632812"/>
<path d="M178.354 334.491L180.867 350.225L182.963 363.346L148.404 368.867L146.1 354.439L143.795 340.012L178.354 334.491Z" fill="#CECECE"/>
<path d="M83.0651 349.713L85.3699 364.141L87.6747 378.568L51.4382 384.357L49.1334 369.93L46.8286 355.502L83.0651 349.713Z" fill="#CECECE"/>
<path d="M219.288 275.022L36.9635 304.148C22.0893 307.203 19.0103 313.884 20.5753 332.58L26.7701 371.358L33.5733 370.272L33.9072 372.362M219.288 275.022C232.1 272.938 235.518 277.545 237.98 291.569L255.369 400.42C257.124 407.447 255.231 409.835 248.153 412.039L217.849 416.88M219.288 275.022C204.265 288.835 203.564 313.118 207.485 345.973M217.849 416.88L59.0258 442.252C47.3217 444.453 45.45 443.359 43.7891 434.22L33.9072 372.362M217.849 416.88C214.164 390.225 209.928 366.436 207.485 345.973M207.485 345.973L180.867 350.225M180.867 350.225L178.354 334.491L143.795 340.012L146.1 354.439M180.867 350.225L182.963 363.346L148.404 368.867L146.1 354.439M146.1 354.439L85.3699 364.141M85.3699 364.141L83.0651 349.713L46.8286 355.502L49.1334 369.93M85.3699 364.141L87.6747 378.568L51.4382 384.357L49.1334 369.93M49.1334 369.93L33.9072 372.362" stroke="#521F14" stroke-width="2"/>
<path d="M276.981 334.512C286.163 338.896 290.495 342.725 297.535 350.624C274.339 345.562 265.816 344.044 265.059 345.586C263.122 350.481 261.734 351.701 258.435 349.125C250.98 338.175 246.055 334.358 234.263 336.522C223.659 339.299 218.172 341.253 216.15 351.398C215.778 353.217 217.183 353.597 218.959 353.243C231.464 349.405 238.103 348.262 245.001 359.144C239.29 358.523 236.22 358.647 230.828 359.279C224.67 360.352 221.333 361.238 216.28 365.031C212.355 367.02 211.617 368.569 217.864 373.571C225.251 376.285 230.314 376.575 239.149 376.042C242.967 376.475 244.321 377.449 245.202 380.262C237.279 383.524 232.651 384.896 223.557 385.013C227.71 394.697 232.717 397.904 249.23 397.333C261.816 405.324 270.322 407.25 287.972 406.321C278.867 413.56 271.63 416.897 256.528 414.696C257.354 419.362 262.206 420.821 275.665 421.944C300.262 420.308 315.891 367.171 317.049 377.644C318.206 388.117 319.169 395.496 320.218 409.757C300.249 433.366 287.898 436.03 264.334 427.399C254.712 422.72 251.715 418.332 249.334 408.293C229.599 406.378 223.32 402.684 218.047 392.818C211.12 371.733 206.756 359.544 211.82 347.697C227.233 323.525 237.405 319.283 259.372 334.679C266.795 332.966 270.747 332.69 276.981 334.512Z" fill="black"/>
<path d="M275.591 422.123C261.328 421.395 258.451 419.316 256.319 414.635C271.441 416.756 277.76 414.012 287.587 406.445C271.154 407.457 262.879 405.348 249.279 397.361C232.856 397.257 226.973 394.763 223.71 384.931C232.018 384.722 236.621 383.664 245.009 380.282C244.291 377.546 243.184 376.474 239.163 376.002C230.333 376.991 225.646 376.604 218.155 373.645C211.656 368.736 211.714 366.837 216.997 364.651C226.709 358.307 233.173 358.533 244.577 358.931L244.806 358.939C237.639 349.112 236.175 349.222 219.833 352.952C215.572 353.964 215.205 352.904 216.849 349.089C219.133 339.718 225.505 339.363 234.41 336.36C247.556 335.001 252.025 339.006 258.461 348.693C261.442 351.62 262.664 350.692 264.519 347.19C265.239 344.408 266.787 344.499 269.948 345.249C289.188 349.222 285.365 349.393 305.103 351.019L316.305 377.962C307.527 408.123 302.373 419.422 275.591 422.123Z" fill="#FD2B20" stroke="#FD2B20"/>
<path d="M8.87584 339.035L8.47318 339.485L8.24417 340.043C6.49567 344.304 5.00404 348.102 4.52507 352.231C4.03337 356.47 4.62508 360.798 6.50739 366.267C7.72612 369.906 8.14829 371.912 8.31286 375.967L8.33006 376.391L8.44795 376.798C9.16971 379.292 10.1 380.887 12.3323 383.533L12.7107 383.982L13.2148 384.283C19.0522 387.765 24.1813 389.605 28.943 388.06C33.5639 386.561 36.5992 382.221 39.3853 377.322L41.9926 372.738L36.7555 372.116C33.1331 371.686 30.1063 371.31 27.6453 370.949C29.538 370.69 31.6236 370.671 34.4845 370.754L35.145 370.773L35.7671 370.55C39.038 369.378 41.7865 368.232 43.754 367.028C44.7376 366.426 45.7146 365.698 46.4666 364.79C47.2488 363.847 47.9149 362.542 47.852 360.944C47.7905 359.384 47.0554 358.144 46.2723 357.253C45.4979 356.372 44.5011 355.625 43.4483 354.973C41.3415 353.667 38.3657 352.351 34.6554 350.942L34.1748 350.76L33.662 350.723C31.9152 350.599 30.373 350.514 28.83 350.475C31.6105 350.25 35.3186 350.313 40.2776 350.594L40.8687 350.627L41.4381 350.464C42.1953 350.248 43.2631 349.836 44.108 348.919C45.1173 347.825 45.3918 346.483 45.2488 345.312C45.1286 344.327 44.7239 343.492 44.4257 342.947C44.1035 342.358 43.7025 341.756 43.3256 341.206L43.0811 340.849L42.7571 340.562C39.7648 337.916 36.9767 335.61 34.3075 333.878C31.6379 332.146 28.8895 330.853 25.9728 330.445C19.7735 329.578 14.42 332.849 8.87584 339.035Z" fill="#FA2F1F" stroke="black" stroke-width="7"/>
</svg>
