<svg width="469" height="472" viewBox="0 0 469 472" fill="none" xmlns="http://www.w3.org/2000/svg">
<path d="M149.853 404.136C158.127 407.325 188.732 408.925 192.402 406.839C192.437 406.816 192.473 406.793 192.51 406.771C197.703 412.863 207.408 420.875 208.668 433.552H101.057C103.887 411.546 141.49 400.914 149.853 404.136Z" fill="black"/>
<path d="M192.51 406.771C189.386 408.959 158.215 407.359 149.853 404.136C141.49 400.914 103.887 411.546 101.057 433.552H208.668C207.408 420.875 197.703 412.863 192.51 406.771ZM192.51 406.771C189.84 408.338 195.179 412.879 192.51 411.4M192.51 411.4C198.176 415.794 201.465 420.596 203.17 427.883H106.489C112.606 411.22 155.848 404.877 192.51 411.4Z" stroke="black"/>
<path d="M173.13 410.018L192.533 411.385C198.429 416.403 200.909 419.818 202.967 427.761H113.826C118.318 418.174 123.981 415.963 136.583 414.519C151.495 415.692 159.788 416.538 175.891 414.519C175.135 412.768 174.368 411.808 173.13 410.018Z" fill="#FA3224"/>
<path d="M151.845 410.367C160.925 412.964 172.81 410.09 173.13 410.017C174.418 411.003 174.867 412.433 176.05 414.592C162.187 416.421 153.003 416.207 136.755 414.592C124.713 415.821 119.42 417.947 113.722 427.709H106.76C111.416 408.973 142.766 407.77 151.845 410.367Z" fill="white"/>
<path d="M110.241 427.804H108.848C111.303 421.676 113.605 420.441 117.788 418.459C113.9 421.233 111.855 422.918 110.241 427.804Z" fill="black" stroke="black"/>
<path d="M255.225 196.118C241.691 184.397 237.785 176.989 226.987 156.281C221.951 162.232 220.84 168.91 222.179 186.665C217.825 194.019 214.709 195.076 208.961 196.118C202.258 208.081 196.088 211.568 182.525 214.349C157.183 212.621 143.556 210.275 120.039 204.221C3.60293 371.142 244.783 461.938 315.134 446.209C324.74 445.821 334.346 446.047 341.547 438.515C357.092 428.603 335.591 370.174 332.732 362.217C339.776 301.351 328.165 265.557 255.225 196.118Z" fill="#FA3224" stroke="black" stroke-width="15"/>
<path d="M240.641 207.768C231.52 192.972 229.473 183.881 228.338 167.02C250.093 195.565 265.835 212.701 297.216 243.795C337.399 297.272 338.686 313.206 329.606 361.402L326.455 363.679C324.957 365.145 323.476 366.59 323.413 365.877C319.153 317.366 316.811 294.051 288.415 256.511L274.586 249.447C269.328 246.233 266.055 243.206 260.128 237.438C269.625 242.322 274.232 243.581 281.5 243.795L281.243 243.605C264.744 231.408 255.417 224.513 240.641 207.768Z" fill="white"/>
<path d="M359.145 24.1685C313.121 9.70503 243.392 76.6261 254.961 194.445C330.399 268.452 357.56 334.988 328.271 382.976C320.102 396.359 291.561 451.77 294.707 448.635C294.707 448.635 319.312 452.227 340.532 440.438C361.753 428.65 411.57 363.819 415.381 290.875C406.525 299.495 396.479 326.523 394.379 328.616C406.907 266.018 410.437 279.922 391.077 231.584C389.432 231.043 369.216 163.662 381.234 165.705C377.175 172.385 430.892 207.135 452.563 168.444C484.63 82.7896 419.545 24.4969 342.507 44.0605C343.52 37.8661 348.256 32.1797 359.145 24.1685Z" fill="#FD2B20" stroke="black" stroke-width="15"/>
<path d="M258.434 192.47L261.873 195.809C265.185 126.257 274.334 102.345 299.242 74.4446C291.527 95.5436 289.072 107.597 289.79 129.733C344.793 21.177 384.049 49.9068 445.461 82.0427C423.28 46.4415 403.123 31.9768 337.916 49.3709C339.975 45.3867 343.803 31.8556 349.875 26.5018C310.811 23.4757 244.14 65.7368 258.434 192.47Z" fill="white"/>
<path d="M76.3974 176.641C64.7165 159.92 62.8612 158.654 64.3214 148.141C75.0265 119.937 79.3453 111.101 93.9089 93.8557C121.767 70.4303 139.938 65.502 176.028 68.7488C173.249 75.5001 172.012 78.6378 171.198 81.6415C173.457 80.9677 174.593 81.4078 176.028 85.0344C179.611 66.4372 184.78 60.0975 194.747 49.7487C214.701 38.918 224.851 32.8328 238.826 21.9277C234.647 33.5394 233.958 39.6028 235.203 49.7487C238.272 92.4916 228.889 101.107 213.465 118.284L213.663 118.241C218.224 117.248 220.841 116.679 223.126 114.891C229.952 130.477 232.247 140.252 238.826 154.248C245.404 168.244 222.97 152.815 223.126 161.034C226.688 173.63 225.673 179.004 223.126 188.176C218.543 193.999 215.392 194.297 209.239 192.248C194.275 222.39 179.298 216.53 153.687 209.89C139.255 203.252 130.743 203.443 115.646 203.105C108.936 203.133 105.683 202.315 93.9089 198.355C80.5496 190.617 79.4824 185.073 76.3974 176.641Z" fill="#FA3224" stroke="black" stroke-width="15"/>
<path d="M170.746 72.4762L168.505 77.7059C105.709 85.1733 95.3069 103.406 76.4555 136.448L76.3477 136.637C110.699 136.839 130.864 143.702 138.266 174.774C143.97 187.342 147.422 195.646 155.836 206.486C145.268 202.42 138.292 200.543 123.03 199.143C102.761 200.195 90.757 194.939 84.0886 185.546C116.073 191.438 123.412 188.333 127.847 183.472C105.927 183.401 90.1123 187.238 76.3477 170.263C76.3623 167.085 79.5913 163.825 82.0037 160.724C95.6556 147.364 92.847 143.46 70.0898 142.593C92.2923 85.4631 114.38 68.5713 170.746 72.4762Z" fill="white"/>
<path d="M231.317 36.4094C231.449 34.7448 231.609 33.7752 231.969 32.0137C218.262 41.0534 210.442 45.8939 195.977 53.6136C182.18 68.5756 179.19 78.7561 177.254 98.1985C180.963 86.5045 184.226 72.461 198.698 56.3651C212.765 48.0184 220.099 44.3345 231.317 36.4094Z" fill="white"/>
<path d="M84.2291 185.532C112.874 190.556 122.212 190.008 127.926 183.576C103.964 183.615 93.2612 179.849 76.7587 170.466C93.0979 151.596 100.646 141.749 70.4139 142.635L67.9576 149.075C64.9706 156.19 69.4026 162.481 79.5221 174.491C80.9478 179.031 81.9472 181.477 84.2291 185.532Z" fill="black"/>
<path d="M176.595 113.027C155.585 106.531 149.631 108.063 139.123 131.25C138.496 130.918 137.874 131.004 136.699 131.25C147.592 106.965 158.225 104.274 176.595 113.027Z" fill="white"/>
<path d="M174.742 146.045C178.74 142.747 180.078 139.434 180.079 129.867C181.282 130.319 181.529 130.26 182.326 131.922C183.693 142.367 182.418 143.886 174.742 150.625C163.03 157.378 156.942 157.616 146.211 150.625C145.367 148.585 145.5 147.862 146.211 146.286C156.371 153.799 162.732 153.207 174.742 146.045Z" fill="white"/>
<path d="M175.633 115.759C157.065 108.861 149.213 111.483 142.257 134.299C141.846 139.123 141.297 141.649 140.145 146.053C139.987 148.092 140.337 148.796 142.257 148.689C143.567 147.004 144.399 146.366 146.311 146.053C152.354 150.228 154.333 152.917 161.817 152.591C183.804 144.282 178.704 140.102 180.02 129.629C181.375 129.167 182.736 127.532 184.076 125.521C185.066 126.407 185.121 127.854 186.632 128.545C186.071 125.549 185.232 124.275 182.271 123.217C180.38 119.722 178.868 118.108 175.633 115.759Z" fill="black" stroke="black"/>
<path d="M152.799 142.908C151.24 142.147 150.791 141.559 150.852 140.108C151.702 138.723 152.396 138.321 154.148 138.341C155.592 138.785 156.25 139.174 156.107 141.094C155.656 142.471 155.25 143.122 152.799 142.908Z" fill="white"/>
<path d="M160.392 132.511C155.722 131.609 154.161 130.347 153.475 126.373C154.963 121.993 156.608 120.391 161.363 119.145C165.534 119.277 167.544 119.84 168.282 125.146C167.872 129.21 167.153 131.273 160.392 132.511Z" fill="white"/>
<path d="M113.699 166.536C147.524 164.168 166.298 166.964 199.592 176.547" stroke="black" stroke-width="5" stroke-linecap="round"/>
<path d="M113.699 174.779C153.725 177.095 175.714 198.084 186.039 208.569" stroke="black" stroke-width="5" stroke-linecap="round"/>
<path d="M63.8896 165.08C43.8061 161.702 32.5369 161.518 12.3633 168.662" stroke="black" stroke-width="5" stroke-linecap="round"/>
<path d="M67.0392 168.662C45.4163 170.843 40.929 172.277 21.6816 184.482" stroke="black" stroke-width="5" stroke-linecap="round"/>
<path d="M147.016 33.7756C151.457 41.5168 152.522 48.4389 151.705 65.0841C134.753 67.262 125.041 70.5979 107.848 80.2605C114.218 51.9984 120.427 37.2929 148.846 18.5547C148.495 23.7927 148.019 27.2634 147.016 33.7756Z" fill="#FA3224" stroke="black" stroke-width="10" stroke-linecap="round"/>
<path d="M115.309 73.2164C124.841 54.0105 131.147 44.5807 145.031 30.5792C145.488 27.6497 145.792 25.9576 145.964 23.6699C130.977 34.9063 120.172 37.5337 111.367 75.6183L115.309 73.2164Z" fill="white"/>
<path d="M272.937 340.018C292.155 342.109 300.442 349.517 312.625 369.127C313.989 376.687 313.854 381.063 312.625 389.043C311.295 384.535 310.515 381.94 308.484 375.607C299.736 357.146 294.321 347.509 272.937 346.554C251.932 348.091 241.016 355.456 235.133 385.049C233.74 397.18 235.282 404.776 245.146 425.359C252.498 434.549 258.03 438.737 269.706 444.97C268.058 446.12 265.53 446.033 259.042 444.97C223.771 440.657 213.819 447.069 206.305 461.453H302.986C301.281 454.166 297.992 449.364 292.327 444.97C294.995 446.449 296.443 446.536 299.113 444.97L299.17 445.037C304.327 451.087 307.229 454.491 308.484 467.122H200.873C203.703 445.116 209.651 435.607 249.669 437.706C245.27 433.287 242.837 430.772 239.328 425.359C231.556 406.832 228.15 394.612 230.281 385.049C236.08 356.884 242.507 343.166 272.937 340.018Z" fill="black" stroke="black"/>
<path d="M272.946 443.588L292.349 444.956C298.246 449.974 300.725 453.388 302.783 461.331H213.643C218.134 451.745 223.797 449.533 236.4 448.089C251.311 449.262 259.604 450.108 275.708 448.089C274.951 446.338 274.185 445.379 272.946 443.588Z" fill="#FA3224"/>
<path d="M312.452 389.308L312.48 389.443C306.771 376.363 304.005 368.927 292.371 357.248C272.454 344.984 262.751 344.643 248.999 359.87C242.146 373.243 239.143 381.597 241.767 404.677C243.92 415.061 245.538 420.805 255.407 429.709C268.057 436.282 271.29 440.489 275.867 448.162C261.712 449.568 252.559 449.398 236.572 448.162C224.529 449.391 219.237 451.517 213.538 461.278H206.576C211.233 442.542 242.582 441.34 251.662 443.937C258.784 445.974 267.653 445.23 270.024 444.999C267.091 444.745 255.715 436.936 248.999 429.709C242.007 422.37 239.579 416.787 236.572 404.677C232.523 387.614 230.508 378.071 246.241 357.248C257.991 341.81 273.459 342.569 294.356 352.533C306.808 362.246 308.648 371.07 312.452 389.308Z" fill="white"/>
<path d="M210.057 461.372H208.664C211.12 455.244 213.421 454.009 217.604 452.027C213.717 454.801 211.672 456.486 210.057 461.372Z" fill="black" stroke="black"/>
<path d="M145.051 222.504C101.124 229.906 78.4564 236.989 42.2611 255.724C41.8448 369.548 59.2057 419.809 145.051 467.124C243.088 408.208 251.561 356.086 248.513 255.724C210.071 236.434 187.682 228.367 145.051 222.504Z" fill="#010012" stroke="#008CFF" stroke-width="7"/>
<path d="M93.6159 382.001L89.7324 367.005H93.2966L95.31 376.831H95.4207L97.7208 367.005H100.627L102.927 376.853H103.038L105.058 367.005H108.615L104.738 382.001H101.63L99.226 372.907H99.1217L96.7174 382.001H93.6159Z" fill="#FD2B20"/>
<path d="M113.515 382.213C112.468 382.213 111.565 381.981 110.805 381.518C110.049 381.049 109.467 380.383 109.058 379.519C108.654 378.65 108.452 377.617 108.452 376.421C108.452 375.259 108.657 374.244 109.065 373.375C109.473 372.501 110.049 371.823 110.792 371.34C111.534 370.851 112.41 370.607 113.417 370.607C114.13 370.607 114.781 370.732 115.372 370.981C115.963 371.23 116.473 371.598 116.903 372.086C117.334 372.575 117.668 373.177 117.907 373.895C118.146 374.608 118.265 375.425 118.265 376.348V377.241H109.567V375.162H115.301C115.296 374.781 115.216 374.442 115.059 374.144C114.903 373.846 114.688 373.614 114.414 373.448C114.145 373.278 113.835 373.192 113.483 373.192C113.126 373.192 112.807 373.282 112.525 373.463C112.242 373.639 112.019 373.88 111.854 374.188C111.689 374.491 111.602 374.835 111.593 375.22V377.337C111.593 377.795 111.673 378.198 111.834 378.545C111.995 378.887 112.223 379.153 112.518 379.343C112.814 379.533 113.166 379.629 113.574 379.629C113.856 379.629 114.113 379.585 114.343 379.497C114.573 379.409 114.771 379.279 114.936 379.109C115.101 378.938 115.225 378.728 115.307 378.479L118.233 378.574C118.111 379.311 117.844 379.953 117.431 380.5C117.023 381.042 116.486 381.464 115.822 381.767C115.157 382.064 114.388 382.213 113.515 382.213Z" fill="#FD2B20"/>
<path d="M119.893 382.001V367.005H123.079V372.68H123.144C123.274 372.338 123.459 372.008 123.698 371.691C123.941 371.374 124.25 371.115 124.623 370.915C125.001 370.71 125.453 370.607 125.978 370.607C126.673 370.607 127.323 370.812 127.927 371.222C128.535 371.632 129.026 372.265 129.399 373.119C129.773 373.973 129.96 375.062 129.96 376.385C129.96 377.659 129.779 378.725 129.419 379.585C129.063 380.444 128.58 381.088 127.972 381.518C127.368 381.947 126.697 382.162 125.959 382.162C125.455 382.162 125.018 382.069 124.649 381.884C124.28 381.698 123.969 381.454 123.717 381.152C123.47 380.849 123.279 380.524 123.144 380.178H123.046V382.001H119.893ZM123.014 376.377C123.014 376.983 123.085 377.51 123.229 377.959C123.376 378.408 123.587 378.757 123.861 379.006C124.139 379.25 124.471 379.372 124.858 379.372C125.249 379.372 125.581 379.25 125.855 379.006C126.128 378.757 126.335 378.408 126.474 377.959C126.617 377.51 126.689 376.983 126.689 376.377C126.689 375.772 126.617 375.247 126.474 374.803C126.335 374.359 126.128 374.015 125.855 373.771C125.585 373.526 125.253 373.404 124.858 373.404C124.467 373.404 124.134 373.524 123.861 373.763C123.587 374.002 123.376 374.344 123.229 374.788C123.085 375.233 123.014 375.762 123.014 376.377Z" fill="#FD2B20"/>
<path d="M138.842 371.501C138.799 370.964 138.606 370.546 138.262 370.248C137.924 369.946 137.439 369.794 136.809 369.794C136.392 369.794 136.045 369.856 135.767 369.978C135.489 370.1 135.28 370.268 135.141 370.483C135.002 370.693 134.931 370.934 134.926 371.208C134.918 371.432 134.957 371.63 135.044 371.801C135.135 371.972 135.265 372.123 135.435 372.255C135.608 372.382 135.817 372.494 136.06 372.592C136.303 372.689 136.577 372.775 136.881 372.848L138.028 373.141C138.688 373.302 139.27 373.517 139.774 373.785C140.282 374.054 140.708 374.373 141.051 374.744C141.399 375.115 141.661 375.543 141.84 376.026C142.018 376.509 142.109 377.051 142.113 377.651C142.109 378.598 141.896 379.411 141.475 380.09C141.053 380.768 140.447 381.288 139.657 381.65C138.871 382.011 137.921 382.191 136.809 382.191C135.693 382.191 134.72 382.003 133.89 381.628C133.061 381.252 132.415 380.681 131.955 379.914C131.495 379.148 131.258 378.179 131.245 377.007H134.333C134.359 377.49 134.474 377.893 134.679 378.215C134.883 378.537 135.163 378.782 135.519 378.948C135.88 379.114 136.297 379.196 136.77 379.196C137.205 379.196 137.574 379.131 137.878 378.999C138.186 378.867 138.423 378.684 138.588 378.45C138.753 378.215 138.838 377.947 138.842 377.644C138.838 377.361 138.76 377.119 138.608 376.919C138.456 376.714 138.221 376.538 137.904 376.392C137.591 376.241 137.192 376.102 136.705 375.975L135.311 375.609C134.155 375.311 133.245 374.83 132.581 374.166C131.916 373.497 131.586 372.594 131.59 371.457C131.586 370.529 131.807 369.716 132.255 369.018C132.702 368.32 133.321 367.776 134.112 367.385C134.902 366.995 135.804 366.8 136.816 366.8C137.85 366.8 138.747 366.997 139.507 367.393C140.271 367.783 140.864 368.332 141.286 369.04C141.707 369.748 141.922 370.568 141.931 371.501H138.842Z" fill="#FD2B20"/>
<path d="M150.278 386.219V380.178H150.212C150.078 380.524 149.887 380.849 149.639 381.152C149.391 381.454 149.081 381.698 148.707 381.884C148.338 382.069 147.901 382.162 147.398 382.162C146.659 382.162 145.988 381.947 145.384 381.518C144.78 381.088 144.298 380.444 143.938 379.585C143.577 378.725 143.397 377.659 143.397 376.385C143.397 375.062 143.584 373.973 143.957 373.119C144.331 372.265 144.819 371.632 145.423 371.222C146.031 370.812 146.685 370.607 147.385 370.607C147.91 370.607 148.36 370.71 148.733 370.915C149.107 371.115 149.415 371.374 149.659 371.691C149.902 372.008 150.086 372.338 150.212 372.68H150.31V370.754H153.464V386.219H150.278ZM148.505 379.372C148.892 379.372 149.222 379.25 149.496 379.006C149.769 378.757 149.98 378.408 150.128 377.959C150.275 377.51 150.349 376.983 150.349 376.377C150.349 375.762 150.275 375.233 150.128 374.788C149.984 374.344 149.774 374.002 149.496 373.763C149.222 373.524 148.892 373.404 148.505 373.404C148.11 373.404 147.775 373.526 147.502 373.771C147.228 374.015 147.02 374.359 146.876 374.803C146.737 375.247 146.668 375.772 146.668 376.377C146.668 376.983 146.739 377.51 146.883 377.959C147.026 378.408 147.233 378.757 147.502 379.006C147.775 379.25 148.11 379.372 148.505 379.372Z" fill="#FD2B20"/>
<path d="M161.936 377.146V370.754H165.116V382.001H162.079V379.907H161.975C161.754 380.595 161.376 381.142 160.841 381.547C160.311 381.947 159.671 382.147 158.919 382.147C158.237 382.147 157.638 381.972 157.121 381.62C156.604 381.269 156.202 380.778 155.915 380.148C155.629 379.514 155.483 378.772 155.479 377.922V370.754H158.665V377.219C158.669 377.83 158.813 378.31 159.095 378.662C159.377 379.013 159.762 379.189 160.248 379.189C160.566 379.189 160.85 379.111 161.102 378.955C161.358 378.794 161.56 378.562 161.708 378.259C161.86 377.952 161.936 377.581 161.936 377.146Z" fill="#FD2B20"/>
<path d="M167.144 382.001V370.754H170.33V382.001H167.144ZM168.74 369.443C168.293 369.443 167.908 369.277 167.587 368.945C167.265 368.608 167.105 368.203 167.105 367.73C167.105 367.261 167.265 366.861 167.587 366.529C167.908 366.192 168.293 366.023 168.74 366.023C169.192 366.023 169.576 366.192 169.894 366.529C170.215 366.861 170.376 367.261 170.376 367.73C170.376 368.203 170.215 368.608 169.894 368.945C169.576 369.277 169.192 369.443 168.74 369.443Z" fill="#FD2B20"/>
<path d="M172.358 382.001V370.754H175.453V372.804H175.557C175.74 372.062 176.037 371.51 176.45 371.149C176.863 370.783 177.343 370.6 177.89 370.6C178.038 370.6 178.19 370.612 178.346 370.637C178.503 370.656 178.648 370.688 178.783 370.732V373.844C178.631 373.785 178.431 373.739 178.183 373.705C177.94 373.67 177.723 373.653 177.532 373.653C177.154 373.653 176.813 373.749 176.509 373.939C176.209 374.124 175.972 374.386 175.798 374.722C175.629 375.054 175.544 375.445 175.544 375.894V382.001H172.358Z" fill="#FD2B20"/>
<path d="M180.081 382.001V370.754H183.176V372.804H183.28C183.463 372.062 183.76 371.51 184.173 371.149C184.586 370.783 185.066 370.6 185.613 370.6C185.761 370.6 185.913 370.612 186.069 370.637C186.225 370.656 186.371 370.688 186.506 370.732V373.844C186.354 373.785 186.154 373.739 185.906 373.705C185.663 373.67 185.446 373.653 185.255 373.653C184.877 373.653 184.536 373.749 184.232 373.939C183.932 374.124 183.695 374.386 183.521 374.722C183.352 375.054 183.267 375.445 183.267 375.894V382.001H180.081Z" fill="#FD2B20"/>
<path d="M191.963 382.213C190.916 382.213 190.012 381.981 189.252 381.518C188.496 381.049 187.914 380.383 187.506 379.519C187.102 378.65 186.9 377.617 186.9 376.421C186.9 375.259 187.104 374.244 187.512 373.375C187.921 372.501 188.496 371.823 189.239 371.34C189.982 370.851 190.857 370.607 191.865 370.607C192.577 370.607 193.229 370.732 193.82 370.981C194.41 371.23 194.921 371.598 195.351 372.086C195.781 372.575 196.115 373.177 196.354 373.895C196.593 374.608 196.713 375.425 196.713 376.348V377.241H188.014V375.162H193.748C193.744 374.781 193.663 374.442 193.507 374.144C193.351 373.846 193.135 373.614 192.862 373.448C192.593 373.278 192.282 373.192 191.93 373.192C191.574 373.192 191.255 373.282 190.972 373.463C190.69 373.639 190.466 373.88 190.301 374.188C190.136 374.491 190.049 374.835 190.04 375.22V377.337C190.04 377.795 190.121 378.198 190.282 378.545C190.442 378.887 190.67 379.153 190.966 379.343C191.261 379.533 191.613 379.629 192.021 379.629C192.304 379.629 192.56 379.585 192.79 379.497C193.02 379.409 193.218 379.279 193.383 379.109C193.548 378.938 193.672 378.728 193.755 378.479L196.68 378.574C196.558 379.311 196.291 379.953 195.879 380.5C195.47 381.042 194.934 381.464 194.269 381.767C193.605 382.064 192.836 382.213 191.963 382.213Z" fill="#FD2B20"/>
<path d="M201.526 367.005V382.001H198.34V367.005H201.526Z" fill="#FD2B20"/>
<path d="M124.702 304.627V291.053L87.1504 309.196V321.023L124.702 339.032V325.726L100.306 314.975L124.702 304.627Z" fill="#008CFF"/>
<path d="M166.557 304.627V291.053L204.109 309.196V321.023L166.557 339.032V325.726L190.954 314.975L166.557 304.627Z" fill="#008CFF"/>
<path d="M159.623 276.678H148.979L131.877 347.772H142.761L159.623 276.678Z" fill="#FD2B20"/>
<path d="M281.483 298.694C290.494 302.674 294.73 306.118 301.596 313.209C278.775 308.507 270.386 307.084 269.626 308.45C267.67 312.79 266.29 313.864 263.062 311.543C255.814 301.735 250.995 298.295 239.348 300.122C228.868 302.504 223.44 304.196 221.351 313.209C220.967 314.824 222.35 315.174 224.104 314.874C236.469 311.564 243.024 310.603 249.723 320.347C244.099 319.746 241.07 319.83 235.749 320.347C229.668 321.25 226.369 322.01 221.351 325.344C217.464 327.081 216.721 328.453 222.834 332.958C230.091 335.436 235.08 335.736 243.795 335.337C247.555 335.755 248.881 336.633 249.723 339.144C241.881 341.98 237.306 343.162 228.338 343.189C232.342 351.843 237.248 354.741 253.534 354.372C265.868 361.59 274.236 363.377 291.645 362.7C282.601 369.065 275.435 371.974 260.566 369.887C261.337 374.047 266.107 375.387 279.365 376.5C303.631 375.253 319.539 328.092 320.581 337.422C321.624 346.753 322.504 353.329 323.405 366.031C303.495 386.874 291.294 389.141 268.144 381.259C258.701 377.013 255.788 373.083 253.534 364.128C234.095 362.256 227.939 358.915 222.834 350.089C216.202 331.264 212.014 320.379 217.117 309.878C232.54 288.494 242.608 284.805 264.121 298.694C271.456 297.233 275.354 297.02 281.483 298.694Z" fill="black"/>
<path d="M279.291 376.659C265.235 375.891 262.418 374.016 260.36 369.832C275.249 371.848 281.505 369.458 291.264 362.807C275.053 363.568 266.915 361.622 253.582 354.397C237.391 354.165 231.614 351.896 228.489 343.118C236.683 343.002 241.231 342.099 249.532 339.16C248.849 336.719 247.769 335.756 243.809 335.301C235.094 336.107 230.477 335.723 223.119 333.026C216.757 328.602 216.833 326.912 222.062 325.011C231.696 319.447 238.067 319.703 249.306 320.154L249.532 320.163C242.559 311.356 241.114 311.441 224.968 314.623C220.757 315.488 220.406 314.541 222.062 311.16C224.401 302.838 230.687 302.576 239.495 299.979C252.468 298.88 256.836 302.483 263.09 311.16C266.002 313.789 267.215 312.974 269.077 309.873C269.814 307.403 271.339 307.497 274.448 308.191C293.38 311.89 289.609 312.011 309.054 313.625L319.844 337.699C310.907 364.47 305.72 374.482 279.291 376.659Z" fill="#FD2B20" stroke="#FD2B20"/>
<path d="M58.8496 301.154L58.2913 300.404L57.5656 299.813C51.1561 294.596 44.4641 289.612 37.0763 288.614C28.6849 287.48 21.6293 291.547 14.9277 298.169L13.9719 299.114L13.4035 300.331C11.4174 304.585 9.41038 308.982 8.72551 313.902C8.00186 319.102 8.80384 324.236 11.0248 330.253C12.2236 333.591 12.5787 335.203 12.7038 338.838L12.7382 339.839L13.034 340.796C14.0632 344.125 15.501 346.264 18.2172 349.228L19.0506 350.137L20.1313 350.732C26.8301 354.418 33.5816 356.908 40.2503 355.018C46.8154 353.157 50.9364 347.664 54.1709 342.642L60.6918 332.517L59.6351 332.394C60.396 331.872 61.1644 331.25 61.8583 330.508C63.1655 329.111 64.6551 326.777 64.5513 323.639C64.4509 320.607 62.907 318.425 61.6933 317.155C60.813 316.233 59.8093 315.47 58.8256 314.835C58.9608 314.721 59.0949 314.6 59.2273 314.473C61.3419 312.441 62.0553 309.739 61.7531 307.313C61.5177 305.424 60.7064 303.967 60.302 303.284C59.8293 302.487 59.2745 301.726 58.8496 301.154Z" fill="#FA2F1F" stroke="black" stroke-width="15"/>
</svg>
