<svg width="602" height="671" viewBox="0 0 602 671" fill="none" xmlns="http://www.w3.org/2000/svg">
<path d="M276.734 401.116C285.186 404.342 316.448 405.962 320.197 403.851C320.232 403.827 320.269 403.804 320.308 403.782C325.611 409.947 335.525 418.054 336.812 430.882H226.891C229.781 408.613 268.192 397.855 276.734 401.116Z" fill="black"/>
<path d="M320.308 403.782C317.117 405.996 285.276 404.377 276.734 401.116C268.192 397.855 229.781 408.613 226.891 430.882H336.812C335.525 418.054 325.611 409.947 320.308 403.782ZM320.308 403.782C317.58 405.368 323.034 409.963 320.308 408.465M320.308 408.465C326.095 412.912 329.455 417.772 331.196 425.145H232.439C238.688 408.284 282.858 401.865 320.308 408.465Z" stroke="black"/>
<path d="M300.511 407.068L320.33 408.452C326.353 413.53 328.886 416.985 330.988 425.023H239.934C244.522 415.322 250.306 413.084 263.179 411.623C278.411 412.81 286.882 413.666 303.331 411.623C302.558 409.851 301.775 408.88 300.511 407.068Z" fill="#FA3224"/>
<path d="M278.768 407.42C288.043 410.049 300.183 407.14 300.51 407.066C301.825 408.063 302.284 409.511 303.493 411.696C289.332 413.546 279.951 413.33 263.354 411.696C251.053 412.94 245.647 415.091 239.826 424.969H232.715C237.472 406.009 269.494 404.792 278.768 407.42Z" fill="white"/>
<path d="M236.274 425.066H234.852C237.36 418.865 239.711 417.615 243.984 415.609C240.013 418.416 237.924 420.121 236.274 425.066Z" fill="black" stroke="black"/>
<path d="M384.371 190.622C370.546 178.761 366.556 171.265 355.526 150.311C350.382 156.332 349.247 163.09 350.616 181.057C346.168 188.498 342.985 189.567 337.114 190.622C330.266 202.727 323.964 206.255 310.11 209.069C284.224 207.322 270.304 204.948 246.283 198.821C127.347 367.73 373.704 459.608 445.566 443.691C455.378 443.298 465.191 443.527 472.546 435.905C488.425 425.875 466.461 366.751 463.541 358.699C470.737 297.107 458.877 260.888 384.371 190.622Z" fill="#FA3224" stroke="black" stroke-width="15"/>
<path d="M369.473 202.411C360.156 187.439 358.066 178.24 356.906 161.178C379.129 190.064 395.208 207.403 427.263 238.868C468.309 292.981 469.623 309.105 460.348 357.875L457.13 360.179C455.6 361.663 454.087 363.125 454.023 362.403C449.671 313.315 447.278 289.722 418.273 251.735L404.147 244.587C398.777 241.334 395.433 238.271 389.378 232.434C399.079 237.377 403.786 238.651 411.21 238.868L410.947 238.676C394.094 226.333 384.567 219.356 369.473 202.411Z" fill="white"/>
<path d="M490.52 16.6234C443.508 1.98765 372.282 69.7057 384.1 188.928C461.157 263.816 488.901 331.144 458.983 379.703C450.639 393.246 421.486 449.317 424.699 446.145C424.699 446.145 449.832 449.779 471.508 437.85C493.184 425.922 544.07 360.319 547.964 286.505C538.918 295.228 528.655 322.578 526.511 324.697C539.307 261.353 542.913 275.423 523.138 226.509C521.458 225.962 500.807 157.778 513.084 159.845C508.938 166.605 563.808 201.769 585.943 162.617C618.699 75.9425 552.217 16.9556 473.525 36.7523C474.56 30.4841 479.398 24.73 490.52 16.6234Z" fill="#FD2B20" stroke="black" stroke-width="15"/>
<path d="M387.646 186.929L391.159 190.307C394.542 119.927 403.887 95.7303 429.33 67.4978C421.45 88.848 418.942 101.045 419.676 123.445C475.86 13.5959 515.958 42.6677 578.688 75.1864C556.032 39.1613 535.442 24.5243 468.835 42.1255C470.938 38.0938 474.848 24.4016 481.05 18.984C441.148 15.922 373.046 58.6863 387.646 186.929Z" fill="white"/>
<path d="M402.462 336.234C422.093 338.35 430.558 345.846 443.003 365.691C444.396 373.341 444.258 377.769 443.003 385.844C441.644 381.282 440.848 378.656 438.773 372.247C429.837 353.566 424.306 343.815 402.462 342.849C381.007 344.404 369.856 351.857 363.847 381.802C362.424 394.078 363.999 401.764 374.075 422.592C381.585 431.892 387.236 436.13 399.162 442.436C397.479 443.6 394.896 443.512 388.269 442.436C352.241 438.072 342.075 444.56 334.4 459.116H433.157C431.415 451.742 428.056 446.883 422.269 442.436C424.995 443.933 426.473 444.022 429.2 442.436L429.259 442.504C434.526 448.626 437.491 452.071 438.773 464.853H328.852C331.742 442.584 337.818 432.963 378.695 435.087C374.202 430.614 371.716 428.07 368.132 422.592C360.193 403.844 356.714 391.479 358.891 381.802C364.814 353.302 371.38 339.42 402.462 336.234Z" fill="black" stroke="black"/>
<path d="M402.475 441.037L422.295 442.421C428.318 447.499 430.851 450.954 432.952 458.992H341.898C346.487 449.291 352.271 447.053 365.144 445.592C380.376 446.779 388.847 447.635 405.296 445.592C404.523 443.82 403.74 442.849 402.475 441.037Z" fill="#FA3224"/>
<path d="M442.829 386.112L442.857 386.248C437.025 373.012 434.2 365.487 422.316 353.67C401.972 341.259 392.06 340.914 378.013 356.323C371.014 369.855 367.946 378.309 370.626 401.664C372.825 412.171 374.478 417.983 384.559 426.994C397.48 433.645 400.783 437.902 405.458 445.666C390.999 447.089 381.649 446.917 365.319 445.666C353.018 446.91 347.612 449.061 341.791 458.939H334.68C339.436 439.979 371.459 438.762 380.733 441.391C388.008 443.452 397.068 442.699 399.49 442.465C396.494 442.209 384.873 434.306 378.013 426.994C370.871 419.567 368.391 413.918 365.319 401.664C361.184 384.397 359.126 374.74 375.196 353.67C387.198 338.048 402.999 338.816 424.344 348.898C437.063 358.727 438.943 367.656 442.829 386.112Z" fill="white"/>
<path d="M338.235 459.035H336.812C339.321 452.834 341.672 451.584 345.944 449.578C341.974 452.385 339.885 454.09 338.235 459.035Z" fill="black" stroke="black"/>
<path d="M193.113 178.801C181.181 161.882 179.286 160.601 180.778 149.962C191.713 121.422 196.124 112.481 211.001 95.0307C239.457 71.3262 258.018 66.3392 294.883 69.6247C292.043 76.4565 290.781 79.6315 289.949 82.671C292.256 81.9892 293.417 82.4345 294.883 86.1042C298.542 67.2857 303.822 60.8704 314.003 50.3984C334.386 39.4387 344.753 33.2811 359.028 22.2461C354.76 33.996 354.056 40.1317 355.328 50.3984C358.462 93.6503 348.879 102.368 333.124 119.75L333.325 119.706C337.984 118.702 340.658 118.125 342.992 116.316C349.964 132.088 352.309 141.979 359.028 156.142C365.748 170.305 342.832 154.692 342.992 163.009C346.63 175.755 345.593 181.193 342.992 190.474C338.31 196.366 335.092 196.668 328.806 194.594C313.521 225.096 298.223 219.166 272.062 212.447C257.32 205.73 248.625 205.923 233.205 205.581C226.351 205.609 223.027 204.781 211.001 200.774C197.354 192.944 196.264 187.334 193.113 178.801Z" fill="#FA3224" stroke="black" stroke-width="15"/>
<path d="M289.489 73.3966L287.2 78.6887C223.056 86.2449 212.43 104.695 193.174 138.131L193.064 138.322C228.153 138.526 248.751 145.47 256.311 176.913C262.139 189.631 265.664 198.033 274.258 209.002C263.464 204.888 256.338 202.988 240.749 201.572C220.044 202.637 207.783 197.318 200.971 187.813C233.642 193.775 241.139 190.633 245.669 185.714C223.279 185.642 207.124 189.525 193.064 172.348C193.079 169.132 196.377 165.833 198.841 162.695C212.787 149.177 209.918 145.226 186.672 144.348C209.351 86.5382 231.913 69.4452 289.489 73.3966Z" fill="white"/>
<path d="M351.36 36.8992C351.495 35.2148 351.659 34.2337 352.026 32.4512C338.025 41.5986 330.037 46.4967 315.262 54.3083C301.168 69.4485 298.114 79.7503 296.137 99.4241C299.926 87.5909 303.259 73.3802 318.041 57.0926C332.41 48.6464 339.901 44.9187 351.36 36.8992Z" fill="white"/>
<path d="M201.12 187.797C230.379 192.881 239.918 192.326 245.755 185.819C221.278 185.857 210.346 182.047 193.489 172.552C210.179 153.457 217.889 143.493 187.008 144.39L184.499 150.907C181.448 158.106 185.975 164.472 196.312 176.625C197.768 181.219 198.789 183.694 201.12 187.797Z" fill="black"/>
<path d="M295.467 114.429C274.006 107.856 267.924 109.406 257.191 132.869C256.55 132.534 255.915 132.62 254.715 132.869C265.841 108.295 276.703 105.572 295.467 114.429Z" fill="white"/>
<path d="M293.572 147.841C297.656 144.503 299.022 141.151 299.024 131.471C300.253 131.928 300.505 131.868 301.319 133.55C302.715 144.119 301.413 145.656 293.572 152.476C281.608 159.309 275.39 159.55 264.429 152.476C263.567 150.412 263.702 149.68 264.429 148.085C274.806 155.688 281.304 155.089 293.572 147.841Z" fill="white"/>
<path d="M294.48 117.193C275.513 110.213 267.493 112.867 260.388 135.954C259.967 140.836 259.407 143.392 258.23 147.848C258.068 149.912 258.426 150.624 260.388 150.515C261.725 148.81 262.575 148.165 264.528 147.848C270.7 152.073 272.722 154.794 280.367 154.464C302.826 146.057 297.617 141.826 298.961 131.228C300.345 130.761 301.735 129.107 303.104 127.072C304.115 127.968 304.171 129.432 305.715 130.132C305.142 127.1 304.285 125.81 301.26 124.741C299.328 121.204 297.784 119.57 294.48 117.193Z" fill="black" stroke="black"/>
<path d="M271.158 144.667C269.564 143.897 269.106 143.301 269.168 141.833C270.037 140.432 270.746 140.025 272.536 140.045C274.01 140.495 274.683 140.888 274.536 142.831C274.076 144.225 273.661 144.883 271.158 144.667Z" fill="white"/>
<path d="M278.914 134.147C274.143 133.234 272.549 131.957 271.848 127.936C273.368 123.503 275.048 121.882 279.906 120.621C284.166 120.755 286.219 121.325 286.973 126.694C286.554 130.807 285.82 132.894 278.914 134.147Z" fill="white"/>
<path d="M231.219 168.577C265.77 166.18 284.947 169.009 318.955 178.707" stroke="black" stroke-width="5" stroke-linecap="round"/>
<path d="M231.219 176.918C272.104 179.261 294.565 200.5 305.111 211.11" stroke="black" stroke-width="5" stroke-linecap="round"/>
<path d="M180.339 167.103C159.825 163.685 148.314 163.499 127.707 170.727" stroke="black" stroke-width="5" stroke-linecap="round"/>
<path d="M183.554 170.727C161.467 172.934 156.883 174.384 137.223 186.735" stroke="black" stroke-width="5" stroke-linecap="round"/>
<path d="M265.251 34.2342C269.787 42.0676 270.875 49.0722 270.041 65.9156C252.725 68.1193 242.804 71.495 225.242 81.2726C231.75 52.674 238.092 37.7934 267.121 18.832C266.762 24.1324 266.276 27.6444 265.251 34.2342Z" fill="#FA3224" stroke="black" stroke-width="10" stroke-linecap="round"/>
<path d="M232.862 74.1443C242.599 54.7097 249.041 45.1676 263.223 30.9994C263.689 28.035 263.999 26.3227 264.175 24.0078C248.866 35.378 237.83 38.0367 228.836 76.5748L232.862 74.1443Z" fill="white"/>
<g filter="url(#filter0_dd_2822_3382)">
<path d="M363.555 641.127C363.555 653.802 352.166 664.076 338.117 664.076H30.0985C16.0496 664.076 4.66068 653.802 4.66068 641.127L4.66068 238.023C4.66068 225.349 16.0496 215.074 30.0985 215.074L338.117 215.074C352.166 215.074 363.555 225.349 363.555 238.023L363.555 641.127Z" fill="#3A4245"/>
</g>
<path d="M361.344 641.127C361.344 652.699 350.945 662.08 338.118 662.08H30.0995C17.2722 662.08 6.87367 652.699 6.87367 641.127L6.87367 238.022C6.87367 226.45 17.2722 217.069 30.0995 217.069L338.118 217.069C350.945 217.069 361.344 226.45 361.344 238.022L361.344 641.127Z" fill="#121515"/>
<path fill-rule="evenodd" clip-rule="evenodd" d="M4.66016 628.656C4.04934 628.656 3.55417 628.486 3.55417 628.277L3.55417 610.078C3.55417 609.868 4.04934 609.698 4.66016 609.698L4.66016 628.656Z" fill="#121515"/>
<path fill-rule="evenodd" clip-rule="evenodd" d="M4.66016 607.203C4.04934 607.203 3.55417 607.033 3.55417 606.824L3.55417 588.624C3.55417 588.415 4.04934 588.245 4.66016 588.245L4.66016 607.203Z" fill="#121515"/>
<path fill-rule="evenodd" clip-rule="evenodd" d="M54.4297 664.076C54.4297 664.627 54.2069 665.074 53.932 665.074L30.0426 665.074C29.7677 665.074 29.5449 664.627 29.5449 664.076L54.4297 664.076Z" fill="#121515"/>
<path d="M415.136 293.653C423.493 297.309 427.421 300.473 433.789 306.987C412.625 302.667 404.845 301.36 404.14 302.615C402.327 306.602 401.047 307.589 398.054 305.456C391.332 296.446 386.863 293.286 376.063 294.964C366.344 297.152 361.31 298.707 359.373 306.987C359.017 308.471 360.299 308.792 361.926 308.517C373.392 305.476 379.471 304.593 385.684 313.544C380.468 312.992 377.659 313.07 372.725 313.544C367.085 314.374 364.026 315.073 359.373 318.135C355.768 319.73 355.079 320.991 360.747 325.129C367.478 327.406 372.104 327.682 380.186 327.315C383.673 327.699 384.903 328.506 385.684 330.813C378.412 333.418 374.168 334.504 365.852 334.529C369.565 342.479 374.115 345.141 389.218 344.803C400.656 351.434 408.416 353.075 424.561 352.453C416.173 358.301 409.528 360.973 395.739 359.056C396.454 362.878 400.878 364.108 413.172 365.131C435.675 363.985 450.428 320.659 451.395 329.231C452.362 337.803 453.178 343.844 454.013 355.513C435.55 374.661 424.234 376.744 402.766 369.503C394.009 365.603 391.308 361.992 389.218 353.765C371.191 352.046 365.482 348.976 360.747 340.868C354.598 323.574 350.713 313.574 355.446 303.926C369.749 284.282 379.086 280.893 399.036 293.653C405.837 292.31 409.453 292.115 415.136 293.653Z" fill="black"/>
<path d="M413.104 365.277C400.069 364.571 397.457 362.849 395.548 359.005C409.355 360.857 415.157 358.662 424.207 352.551C409.174 353.251 401.627 351.462 389.262 344.825C374.248 344.613 368.89 342.528 365.993 334.463C373.591 334.357 377.808 333.527 385.506 330.827C384.874 328.585 383.872 327.7 380.199 327.282C372.117 328.023 367.836 327.67 361.012 325.192C355.113 321.128 355.183 319.576 360.032 317.829C368.966 312.717 374.874 312.952 385.297 313.367L385.506 313.375C379.04 305.284 377.701 305.363 362.727 308.285C358.822 309.08 358.496 308.211 360.032 305.104C362.201 297.459 368.03 297.218 376.199 294.833C388.23 293.823 392.28 297.133 398.08 305.104C400.78 307.52 401.905 306.771 403.632 303.922C404.315 301.653 405.73 301.739 408.613 302.377C426.169 305.775 422.672 305.886 440.704 307.368L450.711 329.485C442.424 354.079 437.613 363.277 413.104 365.277Z" fill="#FD2B20" stroke="#FD2B20"/>
<path d="M164.648 201.049C169.187 205.825 171.425 210.333 170.686 215.371C170.027 219.866 167.024 224.136 163.224 228.741L162.454 229.666L162.213 229.952L161.91 230.171C161.47 230.489 160.978 230.834 160.494 231.112C160.055 231.364 159.329 231.737 158.456 231.836C157.373 231.959 156.198 231.638 155.308 230.702C154.593 229.949 154.297 229.035 154.146 228.411L154.039 227.96L154.071 227.498C154.199 225.679 154.292 224.05 154.348 222.591C153.189 225.74 152.115 228.257 151.064 230.037C150.537 230.93 149.932 231.785 149.213 232.452C148.495 233.118 147.424 233.811 146.031 233.843C144.596 233.876 143.486 233.196 142.745 232.495C142.029 231.818 141.471 230.956 141.017 230.105C140.106 228.394 139.25 226.008 138.379 223.161L138.228 222.665L138.251 222.148C138.312 220.797 138.345 219.64 138.334 218.597C138.111 220.204 137.872 222.019 137.614 224.049L137.01 228.799L133 226.184C129.131 223.661 125.762 220.946 124.669 216.975C123.563 212.956 125.034 208.636 127.889 203.615L128.134 203.185L128.503 202.856C130.634 200.96 131.946 200.146 134.003 199.538L134.384 199.426L134.78 199.416C137.924 199.34 139.468 199.017 142.315 198.036L143.129 197.757C147.149 196.422 150.435 196.043 153.661 196.521C156.989 197.013 160.017 198.396 163.343 199.974L163.827 200.203L164.202 200.587L164.648 201.049Z" fill="#FA2F1F" stroke="black" stroke-width="6"/>
<defs>
<filter id="filter0_dd_2822_3382" x="0.660156" y="213.074" width="366.895" height="457.002" filterUnits="userSpaceOnUse" color-interpolation-filters="sRGB">
<feFlood flood-opacity="0" result="BackgroundImageFix"/>
<feColorMatrix in="SourceAlpha" type="matrix" values="0 0 0 0 0 0 0 0 0 0 0 0 0 0 0 0 0 0 127 0" result="hardAlpha"/>
<feOffset/>
<feGaussianBlur stdDeviation="1"/>
<feColorMatrix type="matrix" values="0 0 0 0 0 0 0 0 0 0.0823529 0 0 0 0 0.25098 0 0 0 0.14 0"/>
<feBlend mode="normal" in2="BackgroundImageFix" result="effect1_dropShadow_2822_3382"/>
<feColorMatrix in="SourceAlpha" type="matrix" values="0 0 0 0 0 0 0 0 0 0 0 0 0 0 0 0 0 0 127 0" result="hardAlpha"/>
<feOffset dy="2"/>
<feGaussianBlur stdDeviation="2"/>
<feColorMatrix type="matrix" values="0 0 0 0 0 0 0 0 0 0.0823529 0 0 0 0 0.25098 0 0 0 0.05 0"/>
<feBlend mode="normal" in2="effect1_dropShadow_2822_3382" result="effect2_dropShadow_2822_3382"/>
<feBlend mode="normal" in="SourceGraphic" in2="effect2_dropShadow_2822_3382" result="shape"/>
</filter>
</defs>
</svg>
