<svg width="444" height="76" viewBox="0 0 444 76" fill="none" xmlns="http://www.w3.org/2000/svg">
<path d="M71.4485 8.65842L60.4368 56.7838H41.676L36.1022 29.4584L30.5284 56.7838H11.7676L0.755859 8.65842H17.0016L21.3519 38.9747L27.8774 8.65842H44.327L50.8525 38.9747L55.2028 8.65842H71.4485Z" fill="white"/>
<path d="M113.974 37.2754C113.974 38.3176 113.906 39.3146 113.77 40.2662H89.503C89.7296 43.5743 91.1117 45.2283 93.6494 45.2283C95.2808 45.2283 96.459 44.4806 97.184 42.9851H113.158C112.614 45.7041 111.459 48.1511 109.691 50.3263C107.969 52.4562 105.771 54.1555 103.098 55.4243C100.469 56.6479 97.5692 57.2596 94.3971 57.2596C90.5906 57.2596 87.1919 56.4666 84.201 54.8805C81.2555 53.2945 78.9444 51.0287 77.2677 48.0832C75.6364 45.0923 74.8207 41.603 74.8207 37.6152C74.8207 33.6274 75.6364 30.1608 77.2677 27.2152C78.9444 24.2244 81.2555 21.9359 84.201 20.3499C87.1919 18.7638 90.5906 17.9708 94.3971 17.9708C98.2036 17.9708 101.58 18.7638 104.525 20.3499C107.516 21.8906 109.827 24.1111 111.459 27.0113C113.135 29.9115 113.974 33.3329 113.974 37.2754ZM98.6795 33.6727C98.6795 32.4039 98.2716 31.4523 97.4559 30.8179C96.6402 30.1381 95.6206 29.7982 94.3971 29.7982C91.7235 29.7982 90.1601 31.0897 89.7069 33.6727H98.6795Z" fill="white"/>
<path d="M133.836 23.6806C134.788 21.9133 136.147 20.5312 137.915 19.5342C139.727 18.4919 141.88 17.9708 144.372 17.9708C147.363 17.9708 150.059 18.7638 152.461 20.3499C154.863 21.8906 156.743 24.1564 158.103 27.1473C159.508 30.0928 160.21 33.5821 160.21 37.6152C160.21 41.6483 159.508 45.1603 158.103 48.1511C156.743 51.0967 154.863 53.3625 152.461 54.9485C150.059 56.4893 147.363 57.2596 144.372 57.2596C141.88 57.2596 139.727 56.7612 137.915 55.7642C136.147 54.7219 134.788 53.3172 133.836 51.5498V56.7838H118.746V6.48326H133.836V23.6806ZM144.916 37.6152C144.916 35.576 144.395 33.99 143.353 32.8571C142.31 31.7242 140.973 31.1577 139.342 31.1577C137.711 31.1577 136.374 31.7242 135.332 32.8571C134.289 33.99 133.768 35.576 133.768 37.6152C133.768 39.6544 134.289 41.2405 135.332 42.3734C136.374 43.5063 137.711 44.0727 139.342 44.0727C140.973 44.0727 142.31 43.5063 143.353 42.3734C144.395 41.2405 144.916 39.6544 144.916 37.6152Z" fill="white"/>
<path d="M183.776 57.2596C178.021 57.2596 173.262 55.9228 169.501 53.2492C165.785 50.5302 163.769 46.5651 163.452 41.3538H179.493C179.72 44.118 180.943 45.5002 183.164 45.5002C183.98 45.5002 184.659 45.3189 185.203 44.9564C185.792 44.5485 186.087 43.9368 186.087 43.1211C186.087 41.9882 185.475 41.0819 184.251 40.4021C183.028 39.6771 181.125 38.8614 178.542 37.9551C175.46 36.8675 172.9 35.8026 170.861 34.7603C168.867 33.7181 167.145 32.2 165.695 30.2061C164.245 28.2122 163.542 25.6518 163.587 22.5251C163.587 19.3983 164.38 16.7473 165.967 14.5721C167.598 12.3517 169.796 10.675 172.56 9.54207C175.37 8.40918 178.519 7.84273 182.008 7.84273C187.899 7.84273 192.567 9.20221 196.011 11.9212C199.5 14.6401 201.336 18.4693 201.517 23.4087H185.271C185.226 22.0492 184.886 21.0749 184.251 20.4858C183.617 19.8967 182.847 19.6022 181.94 19.6022C181.306 19.6022 180.785 19.8288 180.377 20.2819C179.969 20.6898 179.765 21.2789 179.765 22.0492C179.765 23.1368 180.354 24.0431 181.533 24.7682C182.756 25.4479 184.682 26.2863 187.31 27.2832C190.346 28.4161 192.839 29.5037 194.787 30.546C196.781 31.5882 198.503 33.0383 199.953 34.8963C201.404 36.7542 202.129 39.088 202.129 41.8976C202.129 44.8431 201.404 47.4941 199.953 49.8505C198.503 52.1616 196.396 53.9742 193.632 55.2884C190.868 56.6026 187.582 57.2596 183.776 57.2596Z" fill="white"/>
<path d="M205.391 37.8871C205.391 34.1259 206.162 30.7499 207.702 27.759C209.243 24.7682 211.305 22.4344 213.888 20.7577C216.516 19.0357 219.326 18.1747 222.317 18.1747C224.356 18.1747 226.146 18.4693 227.687 19.0584C229.227 19.6022 230.61 20.5312 231.833 21.8453V18.4466H246.855V75.1367H231.833V52.5694C230.474 54.1555 229.023 55.3337 227.483 56.1041C225.987 56.8291 224.265 57.1917 222.317 57.1917C219.281 57.1917 216.471 56.376 213.888 54.7446C211.305 53.1132 209.243 50.8474 207.702 47.9472C206.162 45.0017 205.391 41.6483 205.391 37.8871ZM231.833 37.6152C231.833 35.3947 231.244 33.786 230.066 32.7891C228.933 31.7468 227.664 31.2257 226.259 31.2257C224.9 31.2257 223.631 31.7921 222.453 32.925C221.275 34.0126 220.685 35.6666 220.685 37.8871C220.685 40.0623 221.252 41.6483 222.385 42.6453C223.563 43.5969 224.854 44.0727 226.259 44.0727C227.664 44.0727 228.933 43.5516 230.066 42.5093C231.244 41.4671 231.833 39.8357 231.833 37.6152Z" fill="white"/>
<path d="M294.212 18.4466V56.7838H279.122V50.9381C277.943 52.7507 276.357 54.2235 274.363 55.3564C272.415 56.4893 270.081 57.0557 267.362 57.0557C262.966 57.0557 259.522 55.5829 257.03 52.6374C254.583 49.6919 253.36 45.7041 253.36 40.674V18.4466H268.382V38.7708C268.382 40.5834 268.858 42.0335 269.809 43.1211C270.806 44.1634 272.12 44.6845 273.752 44.6845C275.428 44.6845 276.742 44.1634 277.694 43.1211C278.646 42.0335 279.122 40.5834 279.122 38.7708V18.4466H294.212Z" fill="white"/>
<path d="M308.64 15.3878C306.012 15.3878 303.905 14.6854 302.319 13.2806C300.733 11.8758 299.94 10.1085 299.94 7.97868C299.94 5.80352 300.733 4.01354 302.319 2.60875C303.905 1.15865 306.012 0.433594 308.64 0.433594C311.223 0.433594 313.308 1.15865 314.894 2.60875C316.48 4.01354 317.273 5.80352 317.273 7.97868C317.273 10.1085 316.48 11.8758 314.894 13.2806C313.308 14.6854 311.223 15.3878 308.64 15.3878ZM316.117 18.4466V56.7838H301.027V18.4466H316.117Z" fill="white"/>
<path d="M338.023 25.5159C339.564 23.2954 341.444 21.5281 343.665 20.2139C345.885 18.8545 348.196 18.1747 350.598 18.1747V34.2845H346.316C343.461 34.2845 341.354 34.783 339.994 35.7799C338.68 36.7769 338.023 38.5442 338.023 41.0819V56.7838H322.933V18.4466H338.023V25.5159Z" fill="white"/>
<path d="M369.753 25.5159C371.294 23.2954 373.174 21.5281 375.395 20.2139C377.615 18.8545 379.926 18.1747 382.328 18.1747V34.2845H378.046C375.191 34.2845 373.084 34.783 371.724 35.7799C370.41 36.7769 369.753 38.5442 369.753 41.0819V56.7838H354.663V18.4466H369.753V25.5159Z" fill="white"/>
<path d="M423.506 37.2754C423.506 38.3176 423.438 39.3146 423.302 40.2662H399.036C399.262 43.5743 400.644 45.2283 403.182 45.2283C404.813 45.2283 405.992 44.4806 406.717 42.9851H422.691C422.147 45.7041 420.991 48.1511 419.224 50.3263C417.502 52.4562 415.304 54.1555 412.63 55.4243C410.002 56.6479 407.102 57.2596 403.93 57.2596C400.123 57.2596 396.725 56.4666 393.734 54.8805C390.788 53.2945 388.477 51.0287 386.8 48.0832C385.169 45.0923 384.353 41.603 384.353 37.6152C384.353 33.6274 385.169 30.1608 386.8 27.2152C388.477 24.2244 390.788 21.9359 393.734 20.3499C396.725 18.7638 400.123 17.9708 403.93 17.9708C407.736 17.9708 411.112 18.7638 414.058 20.3499C417.049 21.8906 419.36 24.1111 420.991 27.0113C422.668 29.9115 423.506 33.3329 423.506 37.2754ZM408.212 33.6727C408.212 32.4039 407.804 31.4523 406.989 30.8179C406.173 30.1381 405.153 29.7982 403.93 29.7982C401.256 29.7982 399.693 31.0897 399.24 33.6727H408.212Z" fill="white"/>
<path d="M443.369 6.48326V56.7838H428.279V6.48326H443.369Z" fill="white"/>
</svg>
