<svg width="144" height="171" viewBox="0 0 144 171" fill="none" xmlns="http://www.w3.org/2000/svg">
<path d="M71.6095 2.625C41.8654 7.63688 26.5171 12.4328 2.0088 25.1189C1.72691 102.191 13.4822 136.223 71.6095 168.261C137.992 128.368 143.729 93.075 141.665 25.1189C115.635 12.0571 100.475 6.59507 71.6095 2.625Z" fill="black" stroke="#008CFF" stroke-width="4"/>
<path d="M36.7819 110.621L34.1523 100.467H36.5657L37.929 107.121H38.004L39.5614 100.467H41.5292L43.0866 107.136H43.1616L44.5293 100.467H46.9382L44.3131 110.621H42.2086L40.5806 104.463H40.51L38.882 110.621H36.7819Z" fill="#FD2B20"/>
<path d="M50.256 110.765C49.5472 110.765 48.9354 110.608 48.4206 110.294C47.9089 109.977 47.5147 109.526 47.2382 108.941C46.9647 108.352 46.8279 107.653 46.8279 106.843C46.8279 106.057 46.9662 105.369 47.2426 104.781C47.5191 104.189 47.9089 103.73 48.4118 103.402C48.9148 103.072 49.5075 102.907 50.1898 102.907C50.6722 102.907 51.1134 102.991 51.5134 103.159C51.9134 103.328 52.2591 103.578 52.5502 103.908C52.8414 104.239 53.0679 104.647 53.2297 105.133C53.3915 105.615 53.4723 106.169 53.4723 106.794V107.399H47.5824V105.99H51.4649C51.462 105.733 51.4075 105.503 51.3017 105.301C51.1958 105.1 51.0502 104.943 50.8649 104.83C50.6825 104.715 50.4722 104.657 50.234 104.657C49.9928 104.657 49.7766 104.718 49.5854 104.84C49.3942 104.959 49.2427 105.123 49.131 105.331C49.0192 105.536 48.9604 105.769 48.9545 106.03V107.463C48.9545 107.774 49.0089 108.046 49.1177 108.281C49.2266 108.513 49.381 108.693 49.581 108.822C49.781 108.95 50.0192 109.015 50.2957 109.015C50.4869 109.015 50.6604 108.985 50.8163 108.926C50.9722 108.866 51.1061 108.779 51.2178 108.663C51.3296 108.547 51.4134 108.405 51.4693 108.237L53.4503 108.301C53.3679 108.8 53.187 109.235 52.9076 109.605C52.6311 109.972 52.2679 110.258 51.8179 110.463C51.3678 110.664 50.8472 110.765 50.256 110.765Z" fill="#FD2B20"/>
<path d="M54.5742 110.621V100.467H56.7317V104.31H56.7758C56.864 104.078 56.989 103.855 57.1508 103.64C57.3155 103.425 57.5244 103.25 57.7773 103.115C58.0332 102.976 58.3391 102.907 58.695 102.907C59.1656 102.907 59.6053 103.045 60.0142 103.323C60.426 103.601 60.7583 104.029 61.0113 104.607C61.2642 105.186 61.3907 105.923 61.3907 106.818C61.3907 107.681 61.2687 108.403 61.0245 108.985C60.7833 109.567 60.4569 110.003 60.0451 110.294C59.6362 110.585 59.1818 110.73 58.6818 110.73C58.3406 110.73 58.045 110.668 57.795 110.542C57.545 110.416 57.3347 110.251 57.1641 110.046C56.9964 109.841 56.867 109.621 56.7758 109.387H56.7096V110.621H54.5742ZM56.6876 106.814C56.6876 107.223 56.7361 107.58 56.8332 107.884C56.9332 108.189 57.0758 108.425 57.2611 108.593C57.4494 108.759 57.6744 108.841 57.9361 108.841C58.2009 108.841 58.4259 108.759 58.6112 108.593C58.7965 108.425 58.9362 108.189 59.0303 107.884C59.1274 107.58 59.1759 107.223 59.1759 106.814C59.1759 106.404 59.1274 106.048 59.0303 105.748C58.9362 105.447 58.7965 105.214 58.6112 105.048C58.4288 104.883 58.2038 104.801 57.9361 104.801C57.6714 104.801 57.4464 104.882 57.2611 105.043C57.0758 105.205 56.9332 105.437 56.8332 105.738C56.7361 106.038 56.6876 106.397 56.6876 106.814Z" fill="#FD2B20"/>
<path d="M67.4053 103.511C67.3759 103.148 67.245 102.865 67.0127 102.664C66.7832 102.459 66.4553 102.356 66.0288 102.356C65.7464 102.356 65.5111 102.397 65.3229 102.48C65.1346 102.563 64.9935 102.677 64.8993 102.822C64.8052 102.964 64.7567 103.128 64.7537 103.313C64.7479 103.465 64.7743 103.599 64.8332 103.715C64.8949 103.83 64.9832 103.933 65.0979 104.022C65.2155 104.108 65.3567 104.184 65.5214 104.25C65.6861 104.316 65.8714 104.374 66.0773 104.424L66.8538 104.622C67.3009 104.731 67.695 104.877 68.0362 105.058C68.3804 105.24 68.6686 105.457 68.901 105.708C69.1363 105.959 69.3142 106.248 69.4348 106.576C69.5554 106.903 69.6172 107.27 69.6201 107.676C69.6172 108.317 69.4731 108.868 69.1878 109.327C68.9025 109.787 68.4921 110.139 67.9568 110.383C67.4244 110.628 66.7818 110.75 66.0288 110.75C65.2729 110.75 64.614 110.623 64.0522 110.368C63.4904 110.114 63.0537 109.727 62.7419 109.208C62.4301 108.689 62.2698 108.033 62.261 107.24H64.3522C64.3699 107.567 64.4478 107.84 64.5861 108.058C64.7243 108.276 64.914 108.441 65.1552 108.554C65.3994 108.666 65.6817 108.722 66.0023 108.722C66.2965 108.722 66.5465 108.678 66.7524 108.589C66.9612 108.499 67.1215 108.375 67.2333 108.217C67.345 108.058 67.4024 107.876 67.4053 107.671C67.4024 107.48 67.3494 107.316 67.2465 107.18C67.1436 107.042 66.9847 106.923 66.77 106.823C66.5582 106.721 66.2876 106.627 65.9582 106.541L65.014 106.293C64.2317 106.091 63.6155 105.766 63.1654 105.316C62.7154 104.863 62.4919 104.252 62.4948 103.482C62.4919 102.854 62.6419 102.303 62.9448 101.831C63.2478 101.358 63.6669 100.989 64.2022 100.725C64.7376 100.461 65.3479 100.328 66.0332 100.328C66.7332 100.328 67.3406 100.462 67.8554 100.73C68.373 100.994 68.7745 101.366 69.0598 101.845C69.3451 102.325 69.4907 102.88 69.4966 103.511H67.4053Z" fill="#FD2B20"/>
<path d="M75.1483 113.477V109.387H75.1042C75.013 109.621 74.8836 109.841 74.716 110.046C74.5483 110.251 74.338 110.416 74.085 110.542C73.835 110.668 73.5394 110.73 73.1982 110.73C72.6982 110.73 72.2438 110.585 71.8349 110.294C71.4261 110.003 71.0996 109.567 70.8555 108.985C70.6114 108.403 70.4893 107.681 70.4893 106.818C70.4893 105.923 70.6158 105.186 70.8687 104.607C71.1217 104.029 71.4526 103.601 71.8614 103.323C72.2732 103.045 72.7159 102.907 73.1894 102.907C73.5453 102.907 73.8497 102.976 74.1027 103.115C74.3556 103.25 74.5645 103.425 74.7292 103.64C74.8939 103.855 75.0189 104.078 75.1042 104.31H75.1704V103.006H77.3058V113.477H75.1483ZM73.9483 108.841C74.2101 108.841 74.4336 108.759 74.6189 108.593C74.8042 108.425 74.9468 108.189 75.0469 107.884C75.1469 107.58 75.1969 107.223 75.1969 106.814C75.1969 106.397 75.1469 106.038 75.0469 105.738C74.9498 105.437 74.8071 105.205 74.6189 105.043C74.4336 104.882 74.2101 104.801 73.9483 104.801C73.6806 104.801 73.4541 104.883 73.2688 105.048C73.0835 105.214 72.9423 105.447 72.8453 105.748C72.7512 106.048 72.7041 106.404 72.7041 106.814C72.7041 107.223 72.7526 107.58 72.8497 107.884C72.9468 108.189 73.0865 108.425 73.2688 108.593C73.4541 108.759 73.6806 108.841 73.9483 108.841Z" fill="#FD2B20"/>
<path d="M83.0424 107.334V103.006H85.1955V110.621H83.1395V109.203H83.0689C82.9189 109.669 82.663 110.04 82.3012 110.314C81.9424 110.585 81.5085 110.721 80.9997 110.721C80.5379 110.721 80.132 110.602 79.782 110.364C79.432 110.126 79.1599 109.793 78.9658 109.367C78.7717 108.937 78.6731 108.435 78.6702 107.86V103.006H80.8276V107.384C80.8306 107.797 80.9276 108.122 81.1188 108.36C81.31 108.598 81.5703 108.717 81.8997 108.717C82.1145 108.717 82.3071 108.665 82.4777 108.559C82.6512 108.45 82.788 108.293 82.888 108.088C82.991 107.88 83.0424 107.628 83.0424 107.334Z" fill="#FD2B20"/>
<path d="M86.5687 110.621V103.006H88.7262V110.621H86.5687ZM87.6496 102.118C87.3467 102.118 87.0864 102.006 86.8687 101.781C86.6511 101.553 86.5422 101.279 86.5422 100.958C86.5422 100.641 86.6511 100.37 86.8687 100.145C87.0864 99.9168 87.3467 99.8027 87.6496 99.8027C87.9555 99.8027 88.2158 99.9168 88.4306 100.145C88.6482 100.37 88.757 100.641 88.757 100.958C88.757 101.279 88.6482 101.553 88.4306 101.781C88.2158 102.006 87.9555 102.118 87.6496 102.118Z" fill="#FD2B20"/>
<path d="M90.0994 110.621V103.006H92.1951V104.394H92.2657C92.3892 103.892 92.5907 103.518 92.8701 103.273C93.1495 103.026 93.4745 102.902 93.8451 102.902C93.9451 102.902 94.0481 102.91 94.154 102.926C94.2599 102.94 94.3584 102.961 94.4496 102.991V105.098C94.3466 105.058 94.2113 105.027 94.0437 105.004C93.879 104.981 93.7319 104.969 93.6025 104.969C93.3466 104.969 93.1157 105.034 92.9098 105.162C92.7069 105.288 92.5466 105.465 92.4289 105.693C92.3142 105.918 92.2568 106.182 92.2568 106.486V110.621H90.0994Z" fill="#FD2B20"/>
<path d="M95.3287 110.621V103.006H97.4243V104.394H97.4949C97.6185 103.892 97.82 103.518 98.0994 103.273C98.3788 103.026 98.7038 102.902 99.0744 102.902C99.1744 102.902 99.2774 102.91 99.3833 102.926C99.4892 102.94 99.5877 102.961 99.6789 102.991V105.098C99.5759 105.058 99.4406 105.027 99.273 105.004C99.1083 104.981 98.9612 104.969 98.8318 104.969C98.5759 104.969 98.345 105.034 98.1391 105.162C97.9361 105.288 97.7758 105.465 97.6582 105.693C97.5435 105.918 97.4861 106.182 97.4861 106.486V110.621H95.3287Z" fill="#FD2B20"/>
<path d="M103.374 110.765C102.665 110.765 102.053 110.608 101.539 110.294C101.027 109.977 100.633 109.526 100.356 108.941C100.083 108.352 99.9458 107.653 99.9458 106.843C99.9458 106.057 100.084 105.369 100.361 104.781C100.637 104.189 101.027 103.73 101.53 103.402C102.033 103.072 102.625 102.907 103.308 102.907C103.79 102.907 104.231 102.991 104.631 103.159C105.031 103.328 105.377 103.578 105.668 103.908C105.959 104.239 106.186 104.647 106.348 105.133C106.509 105.615 106.59 106.169 106.59 106.794V107.399H100.7V105.99H104.583C104.58 105.733 104.525 105.503 104.42 105.301C104.314 105.1 104.168 104.943 103.983 104.83C103.8 104.715 103.59 104.657 103.352 104.657C103.111 104.657 102.894 104.718 102.703 104.84C102.512 104.959 102.361 105.123 102.249 105.331C102.137 105.536 102.078 105.769 102.072 106.03V107.463C102.072 107.774 102.127 108.046 102.236 108.281C102.344 108.513 102.499 108.693 102.699 108.822C102.899 108.95 103.137 109.015 103.414 109.015C103.605 109.015 103.778 108.985 103.934 108.926C104.09 108.866 104.224 108.779 104.336 108.663C104.447 108.547 104.531 108.405 104.587 108.237L106.568 108.301C106.486 108.8 106.305 109.235 106.025 109.605C105.749 109.972 105.386 110.258 104.936 110.463C104.486 110.664 103.965 110.765 103.374 110.765Z" fill="#FD2B20"/>
<path d="M109.85 100.467V110.621H107.692V100.467H109.85Z" fill="#FD2B20"/>
<path d="M57.8255 58.2323V49.041L32.3984 61.3261V69.3341L57.8255 81.5281V72.5191L41.3061 65.2391L57.8255 58.2323Z" fill="#008CFF"/>
<path d="M86.1667 58.2323V49.041L111.594 61.3261V69.3341L86.1667 81.5281V72.5191L102.686 65.2391L86.1667 58.2323Z" fill="#008CFF"/>
<path d="M81.4667 39.3086H74.2598L62.6797 87.4476H70.0493L81.4667 39.3086Z" fill="#FD2B20"/>
</svg>
