<svg width="274" height="59" viewBox="0 0 274 59" fill="none" xmlns="http://www.w3.org/2000/svg">
<path d="M17.5372 49.5961C18.5023 49.9945 22.0719 50.1945 22.5001 49.9338C22.5041 49.9309 22.5083 49.9281 22.5127 49.9253C23.1183 50.6865 24.2503 51.6875 24.3973 53.2714H11.8457C12.1758 50.5219 16.5618 49.1935 17.5372 49.5961Z" fill="black"/>
<path d="M22.5127 49.9253C22.1483 50.1987 18.5126 49.9987 17.5372 49.5961C16.5618 49.1935 12.1758 50.5219 11.8457 53.2714H24.3973C24.2503 51.6875 23.1183 50.6865 22.5127 49.9253ZM22.5127 49.9253C22.2012 50.1211 22.8239 50.6885 22.5127 50.5036M22.5127 50.5036C23.1735 51.0526 23.5571 51.6527 23.7559 52.5631H12.4793C13.1929 50.4812 18.2364 49.6886 22.5127 50.5036Z" stroke="black"/>
<path d="M20.253 50.332L22.5161 50.5029C23.2039 51.1299 23.4931 51.5565 23.7331 52.549H13.3359C13.8598 51.3512 14.5203 51.0748 15.9903 50.8945C17.7295 51.041 18.6968 51.1467 20.5751 50.8945C20.4868 50.6756 20.3974 50.5558 20.253 50.332Z" fill="#FA3224"/>
<path d="M17.7704 50.374C18.8294 50.6985 20.2157 50.3393 20.2531 50.3302C20.4032 50.4534 20.4555 50.6321 20.5936 50.9018C18.9767 51.1304 17.9054 51.1036 16.0103 50.9018C14.6057 51.0554 13.9884 51.321 13.3237 52.5407H12.5117C13.0549 50.1997 16.7114 50.0495 17.7704 50.374Z" fill="white"/>
<path d="M12.9164 52.5524H12.7539C13.0403 51.7867 13.3087 51.6324 13.7967 51.3848C13.3432 51.7314 13.1047 51.9419 12.9164 52.5524Z" fill="black" stroke="black"/>
<path d="M29.8226 23.6043C28.244 22.1399 27.7883 21.2143 26.5289 18.627C25.9415 19.3705 25.8119 20.2049 25.9682 22.4233C25.4603 23.3421 25.0968 23.4741 24.4264 23.6043C23.6445 25.0989 22.9249 25.5346 21.3429 25.8821C18.3871 25.6663 16.7977 25.3732 14.0548 24.6167C0.473876 45.4724 28.6046 56.8168 36.8102 54.8516C37.9306 54.803 39.0511 54.8313 39.8909 53.8902C41.7041 52.6517 39.1962 45.3515 38.8627 44.3573C39.6844 36.7524 38.3301 32.2803 29.8226 23.6043Z" fill="#FA3224" stroke="black"/>
<path d="M28.1225 25.06C27.0586 23.2114 26.8199 22.0754 26.6875 19.9688C29.225 23.5354 31.0611 25.6764 34.7212 29.5614C39.4081 36.2429 39.5582 38.2338 38.4992 44.2556L38.1317 44.54C37.957 44.7233 37.7842 44.9038 37.7769 44.8147C37.28 38.7536 37.0068 35.8405 33.6948 31.1501L32.0817 30.2675C31.4685 29.8659 31.0868 29.4877 30.3954 28.767C31.5031 29.3773 32.0405 29.5346 32.8883 29.5614L32.8583 29.5377C30.9338 28.0136 29.8459 27.1521 28.1225 25.06Z" fill="white"/>
<path d="M41.947 2.12056C36.5789 0.313444 28.4459 8.6748 29.7952 23.3955C38.5942 32.6422 41.7621 40.9554 38.3459 46.9512C37.3932 48.6234 34.0642 55.5466 34.4311 55.1549C34.4311 55.1549 37.301 55.6036 39.7761 54.1308C42.2512 52.6579 48.0617 44.5577 48.5063 35.4438C47.4734 36.5208 46.3015 39.8978 46.0567 40.1593C47.5179 32.3381 47.9296 34.0754 45.6715 28.0358C45.4797 27.9682 43.1217 19.5494 44.5235 19.8046C44.0501 20.6393 50.3155 24.9811 52.8431 20.1468C56.5834 9.44489 48.992 2.16159 40.0064 4.60594C40.1246 3.83199 40.677 3.12151 41.947 2.12056Z" fill="#FD2B20" stroke="black"/>
<path d="M30.1991 23.15L30.6002 23.5671C30.9865 14.877 32.0536 11.8894 34.9589 8.40344C34.059 11.0396 33.7726 12.5456 33.8564 15.3114C40.2719 1.74801 44.8506 5.3376 52.0135 9.35278C49.4264 4.90464 47.0754 3.09737 39.4697 5.27065C39.7099 4.77285 40.1564 3.08222 40.8645 2.4133C36.3083 2.03522 28.5319 7.31546 30.1991 23.15Z" fill="white"/>
<path d="M8.96635 21.1722C7.60391 19.0831 7.38751 18.9249 7.55782 17.6113C8.80645 14.0874 9.31019 12.9834 11.0089 10.8287C14.2582 7.90188 16.3776 7.28612 20.5871 7.69178C20.2629 8.53532 20.1187 8.92735 20.0237 9.30265C20.2872 9.21846 20.4196 9.27345 20.5871 9.72656C21.005 7.40297 21.6078 6.61086 22.7704 5.31785C25.0978 3.96462 26.2816 3.20432 27.9116 1.8418C27.4242 3.29259 27.3438 4.05018 27.4891 5.31785C27.847 10.6583 26.7527 11.7347 24.9536 13.8809L24.9767 13.8755C25.5086 13.7515 25.814 13.6803 26.0805 13.457C26.8766 15.4044 27.1443 16.6257 27.9116 18.3743C28.6789 20.123 26.0622 18.1954 26.0805 19.2222C26.496 20.7961 26.3775 21.4674 26.0805 22.6135C25.5459 23.3409 25.1784 23.3783 24.4606 23.1222C22.7153 26.8882 20.9685 26.1561 17.9812 25.3265C16.2979 24.4971 15.3051 24.5209 13.5443 24.4787C12.7616 24.4822 12.3822 24.38 11.0089 23.8852C9.45065 22.9184 9.32617 22.2257 8.96635 21.1722Z" fill="#FA3224" stroke="black"/>
<path d="M19.9727 8.15666L19.7114 8.81009C12.387 9.74308 11.1737 12.0212 8.9749 16.1496L8.96233 16.1732C12.969 16.1984 15.321 17.0558 16.1843 20.9381C16.8497 22.5084 17.2522 23.5459 18.2336 24.9003C17.0011 24.3923 16.1874 24.1578 14.4073 23.9828C12.0431 24.1144 10.643 23.4576 9.86521 22.284C13.5957 23.0202 14.4518 22.6322 14.9691 22.0248C12.4124 22.016 10.5678 22.4954 8.96233 20.3744C8.96403 19.9774 9.34065 19.57 9.62203 19.1826C11.2144 17.5135 10.8868 17.0256 8.23242 16.9173C10.8221 9.77929 13.3983 7.66877 19.9727 8.15666Z" fill="white"/>
<path d="M27.0363 3.65078C27.0517 3.4428 27.0703 3.32166 27.1123 3.10156C25.5135 4.23102 24.6015 4.83581 22.9143 5.80033C21.305 7.66974 20.9563 8.94173 20.7305 11.3709C21.1631 9.90983 21.5437 8.1552 23.2317 6.14412C24.8724 5.10124 25.7278 4.64096 27.0363 3.65078Z" fill="white"/>
<path d="M9.88174 22.2825C13.2228 22.9103 14.312 22.8418 14.9784 22.0382C12.1836 22.043 10.9352 21.5725 9.01041 20.4002C10.9162 18.0425 11.7966 16.8121 8.27036 16.9229L7.98387 17.7276C7.63547 18.6165 8.1524 19.4025 9.33272 20.9031C9.499 21.4703 9.61558 21.7759 9.88174 22.2825Z" fill="black"/>
<path d="M20.6533 13.2243C18.2028 12.4127 17.5083 12.6041 16.2827 15.5012C16.2095 15.4597 16.137 15.4705 16 15.5012C17.2705 12.4669 18.5108 12.1307 20.6533 13.2243Z" fill="white"/>
<path d="M20.4369 17.3494C20.9032 16.9373 21.0593 16.5234 21.0595 15.3281C21.1998 15.3846 21.2286 15.3772 21.3215 15.5849C21.4809 16.8898 21.3323 17.0797 20.4369 17.9217C19.0708 18.7654 18.3608 18.7951 17.1091 17.9217C17.0107 17.6668 17.0262 17.5765 17.1091 17.3795C18.2941 18.3183 19.0361 18.2443 20.4369 17.3494Z" fill="white"/>
<path d="M20.5417 13.5653C18.3758 12.7035 17.4601 13.0312 16.6488 15.8818C16.6007 16.4846 16.5368 16.8002 16.4024 17.3504C16.3839 17.6052 16.4248 17.6932 16.6488 17.6797C16.8014 17.4692 16.8985 17.3896 17.1216 17.3504C17.8263 17.872 18.0572 18.208 18.9301 18.1673C21.4946 17.1292 20.8998 16.6069 21.0533 15.2983C21.2113 15.2406 21.3701 15.0364 21.5264 14.7851C21.6418 14.8958 21.6482 15.0766 21.8245 15.1629C21.7591 14.7886 21.6612 14.6294 21.3158 14.4972C21.0953 14.0606 20.9189 13.8589 20.5417 13.5653Z" fill="black" stroke="black"/>
<path d="M17.8782 16.9577C17.6963 16.8626 17.644 16.7891 17.6511 16.6078C17.7503 16.4348 17.8313 16.3846 18.0356 16.3871C18.204 16.4426 18.2808 16.4911 18.264 16.731C18.2115 16.9031 18.1641 16.9844 17.8782 16.9577Z" fill="white"/>
<path d="M18.7639 15.6584C18.2192 15.5456 18.0371 15.388 17.957 14.8915C18.1307 14.3441 18.3225 14.144 18.8772 13.9883C19.3636 14.0048 19.5981 14.0752 19.6841 14.7381C19.6363 15.246 19.5525 15.5037 18.7639 15.6584Z" fill="white"/>
<path d="M13.3184 19.91C17.2636 19.6141 19.4533 19.9634 23.3367 21.1608" stroke="black" stroke-width="0.5" stroke-linecap="round"/>
<path d="M13.3184 20.9395C17.9869 21.2288 20.5516 23.8512 21.7559 25.1613" stroke="black" stroke-width="0.5" stroke-linecap="round"/>
<path d="M7.50796 19.7276C5.16547 19.3056 3.85106 19.2827 1.49805 20.1752" stroke="black" stroke-width="0.5" stroke-linecap="round"/>
<path d="M7.87439 20.1738C5.35234 20.4463 4.82896 20.6255 2.58398 22.1504" stroke="black" stroke-width="0.5" stroke-linecap="round"/>
<path d="M17.2033 3.32168C17.7212 4.28889 17.8454 5.15377 17.7502 7.23347C15.7729 7.50558 14.6401 7.92238 12.6348 9.12966C13.3778 5.59849 14.102 3.76114 17.4168 1.41992C17.3757 2.07438 17.3203 2.50802 17.2033 3.32168Z" fill="#FA3224" stroke="black" stroke-linecap="round"/>
<path d="M13.5046 8.24911C14.6164 5.84945 15.352 4.67126 16.9714 2.92186C17.0247 2.55585 17.0601 2.34442 17.0802 2.05859C15.3321 3.46251 14.0719 3.79078 13.0449 8.5492L13.5046 8.24911Z" fill="white"/>
<path d="M31.8897 41.584C34.1313 41.8453 35.0979 42.7708 36.5189 45.2211C36.678 46.1656 36.6622 46.7124 36.5189 47.7095C36.3637 47.1462 36.2728 46.8219 36.0359 46.0306C35.0156 43.724 34.384 42.52 31.8897 42.4007C29.4398 42.5927 28.1666 43.513 27.4804 47.2103C27.3179 48.7261 27.4978 49.6751 28.6483 52.2469C29.5058 53.3951 30.1511 53.9184 31.5129 54.6971C31.3207 54.8408 31.0258 54.8299 30.2691 54.6971C26.1551 54.1582 24.9944 54.9593 24.1179 56.7566H35.3946C35.1958 55.8461 34.8121 55.2461 34.1513 54.6971C34.4626 54.8819 34.6314 54.8928 34.9429 54.6971L34.9495 54.7054C35.551 55.4613 35.8895 55.8867 36.0359 57.4649H23.4844C23.8144 54.7153 24.5082 53.5273 29.1759 53.7896C28.6628 53.2374 28.3789 52.9232 27.9697 52.2469C27.0631 49.932 26.6658 48.4052 26.9144 47.2103C27.5908 43.6913 28.3405 41.9774 31.8897 41.584Z" fill="black" stroke="black"/>
<path d="M31.8917 54.5254L34.1548 54.6963C34.8425 55.3232 35.1318 55.7499 35.3718 56.7423H24.9746C25.4985 55.5445 26.159 55.2682 27.6289 55.0878C29.3682 55.2343 30.3355 55.3401 32.2138 55.0878C32.1255 54.869 32.0361 54.7491 31.8917 54.5254Z" fill="#FA3224"/>
<path d="M36.4995 47.7438L36.5028 47.7606C35.8369 46.1263 35.5143 45.1973 34.1573 43.7382C31.8342 42.2058 30.7025 42.1632 29.0985 44.0657C28.2992 45.7366 27.9489 46.7804 28.255 49.6641C28.506 50.9614 28.6948 51.6791 29.8459 52.7917C31.3214 53.6129 31.6985 54.1385 32.2323 55.0972C30.5813 55.2729 29.5137 55.2516 27.649 55.0972C26.2444 55.2507 25.6271 55.5163 24.9624 56.736H24.1504C24.6935 54.395 28.3501 54.2448 29.4091 54.5693C30.2398 54.8238 31.2743 54.7309 31.5508 54.702C31.2087 54.6703 29.8818 53.6946 29.0985 52.7917C28.2829 51.8746 27.9998 51.1771 27.649 49.6641C27.1768 47.5321 26.9418 46.3398 28.7768 43.7382C30.1473 41.8093 31.9515 41.904 34.3888 43.149C35.8412 44.3625 36.0558 45.465 36.4995 47.7438Z" fill="white"/>
<path d="M24.555 56.7457H24.3926C24.679 55.9801 24.9474 55.8258 25.4353 55.5781C24.9819 55.9247 24.7434 56.1352 24.555 56.7457Z" fill="black" stroke="black"/>
<path d="M16.9764 26.9023C11.8528 27.8272 9.2089 28.7121 4.98717 31.053C4.93861 45.2746 6.96355 51.5543 16.9764 57.466C28.4112 50.1048 29.3995 43.5925 29.044 31.053C24.5601 28.6428 21.9487 27.6349 16.9764 26.9023Z" fill="black" stroke="#008CFF"/>
<path d="M10.9764 46.8303L10.5234 44.9566H10.9392L11.174 46.1844H11.1869L11.4552 44.9566H11.7941L12.0624 46.1871H12.0753L12.3109 44.9566H12.7259L12.2737 46.8303H11.9112L11.6307 45.694H11.6186L11.3381 46.8303H10.9764Z" fill="#FD2B20"/>
<path d="M13.2974 46.8568C13.1753 46.8568 13.0699 46.8278 12.9813 46.7699C12.8931 46.7113 12.8252 46.6281 12.7776 46.5201C12.7305 46.4116 12.7069 46.2826 12.7069 46.1331C12.7069 45.988 12.7307 45.8611 12.7783 45.7525C12.826 45.6434 12.8931 45.5586 12.9797 45.4982C13.0664 45.4372 13.1685 45.4067 13.286 45.4067C13.3691 45.4067 13.4451 45.4223 13.514 45.4534C13.5829 45.4845 13.6424 45.5305 13.6926 45.5915C13.7428 45.6525 13.7818 45.7278 13.8096 45.8175C13.8375 45.9065 13.8514 46.0087 13.8514 46.124V46.2356H12.8369V45.9758H13.5056C13.5051 45.9282 13.4958 45.8858 13.4775 45.8486C13.4593 45.8114 13.4342 45.7824 13.4023 45.7617C13.3709 45.7403 13.3347 45.7297 13.2936 45.7297C13.2521 45.7297 13.2148 45.7409 13.1819 45.7635C13.149 45.7855 13.1229 45.8157 13.1036 45.8541C13.0844 45.8919 13.0742 45.9349 13.0732 45.9831V46.2475C13.0732 46.3048 13.0826 46.3551 13.1013 46.3984C13.1201 46.4411 13.1467 46.4744 13.1811 46.4982C13.2156 46.522 13.2566 46.5339 13.3043 46.5339C13.3372 46.5339 13.3671 46.5284 13.3939 46.5174C13.4208 46.5064 13.4438 46.4902 13.4631 46.4689C13.4823 46.4475 13.4968 46.4213 13.5064 46.3902L13.8476 46.4021C13.8335 46.4942 13.8023 46.5744 13.7542 46.6427C13.7065 46.7104 13.644 46.7632 13.5664 46.801C13.4889 46.8382 13.3993 46.8568 13.2974 46.8568Z" fill="#FD2B20"/>
<path d="M14.0413 46.8303V44.9566H14.4129V45.6656H14.4205C14.4357 45.6229 14.4572 45.5818 14.4851 45.5421C14.5135 45.5025 14.5494 45.4701 14.593 45.4451C14.6371 45.4195 14.6898 45.4067 14.7511 45.4067C14.8322 45.4067 14.9079 45.4323 14.9783 45.4836C15.0493 45.5348 15.1065 45.6138 15.1501 45.7205C15.1937 45.8273 15.2154 45.9633 15.2154 46.1286C15.2154 46.2877 15.1944 46.421 15.1524 46.5284C15.1108 46.6357 15.0546 46.7162 14.9836 46.7699C14.9132 46.8236 14.8349 46.8504 14.7488 46.8504C14.69 46.8504 14.6391 46.8388 14.596 46.8156C14.553 46.7925 14.5168 46.762 14.4874 46.7241C14.4585 46.6863 14.4362 46.6458 14.4205 46.6025H14.4091V46.8303H14.0413ZM14.4053 46.1276C14.4053 46.2033 14.4137 46.2691 14.4304 46.3253C14.4476 46.3814 14.4722 46.425 14.5041 46.4561C14.5365 46.4866 14.5753 46.5018 14.6204 46.5018C14.666 46.5018 14.7047 46.4866 14.7366 46.4561C14.7686 46.425 14.7926 46.3814 14.8088 46.3253C14.8256 46.2691 14.8339 46.2033 14.8339 46.1276C14.8339 46.052 14.8256 45.9864 14.8088 45.9309C14.7926 45.8754 14.7686 45.8324 14.7366 45.8019C14.7052 45.7714 14.6665 45.7562 14.6204 45.7562C14.5748 45.7562 14.536 45.7711 14.5041 45.801C14.4722 45.8309 14.4476 45.8736 14.4304 45.9291C14.4137 45.9846 14.4053 46.0508 14.4053 46.1276Z" fill="#FD2B20"/>
<path d="M16.2515 45.5183C16.2464 45.4512 16.2239 45.3991 16.1839 45.3619C16.1443 45.3241 16.0879 45.3052 16.0144 45.3052C15.9657 45.3052 15.9252 45.3128 15.8928 45.328C15.8604 45.3433 15.836 45.3643 15.8198 45.3912C15.8036 45.4174 15.7953 45.4476 15.7947 45.4817C15.7937 45.5098 15.7983 45.5345 15.8084 45.5558C15.8191 45.5772 15.8343 45.5961 15.854 45.6126C15.8743 45.6284 15.8986 45.6424 15.927 45.6546C15.9554 45.6668 15.9873 45.6775 16.0227 45.6867L16.1565 45.7233C16.2335 45.7434 16.3014 45.7702 16.3602 45.8038C16.4195 45.8373 16.4691 45.8773 16.5091 45.9236C16.5497 45.97 16.5803 46.0233 16.6011 46.0837C16.6219 46.1441 16.6325 46.2118 16.633 46.2868C16.6325 46.4052 16.6077 46.5067 16.5585 46.5915C16.5094 46.6763 16.4387 46.7412 16.3465 46.7864C16.2548 46.8315 16.1441 46.8541 16.0144 46.8541C15.8842 46.8541 15.7707 46.8306 15.6739 46.7836C15.5771 46.7367 15.5019 46.6653 15.4482 46.5695C15.3945 46.4738 15.3669 46.3527 15.3654 46.2063H15.7256C15.7286 46.2667 15.7421 46.317 15.7659 46.3573C15.7897 46.3975 15.8224 46.428 15.8639 46.4488C15.906 46.4695 15.9546 46.4799 16.0098 46.4799C16.0605 46.4799 16.1036 46.4716 16.139 46.4552C16.175 46.4387 16.2026 46.4158 16.2219 46.3866C16.2411 46.3573 16.251 46.3237 16.2515 46.2859C16.251 46.2505 16.2419 46.2203 16.2241 46.1953C16.2064 46.1697 16.1791 46.1478 16.1421 46.1295C16.1056 46.1106 16.059 46.0932 16.0022 46.0773L15.8396 46.0316C15.7048 45.9944 15.5987 45.9343 15.5212 45.8513C15.4436 45.7678 15.4051 45.6549 15.4056 45.5128C15.4051 45.3969 15.431 45.2954 15.4832 45.2082C15.5353 45.121 15.6075 45.0529 15.6997 45.0042C15.792 44.9554 15.8971 44.931 16.0151 44.931C16.1357 44.931 16.2404 44.9557 16.329 45.0051C16.4182 45.0539 16.4874 45.1225 16.5365 45.2109C16.5856 45.2994 16.6107 45.4018 16.6117 45.5183H16.2515Z" fill="#FD2B20"/>
<path d="M17.5853 47.3573V46.6025H17.5777C17.562 46.6458 17.5397 46.6863 17.5108 46.7241C17.4819 46.762 17.4457 46.7925 17.4021 46.8156C17.3591 46.8388 17.3081 46.8504 17.2494 46.8504C17.1632 46.8504 17.085 46.8236 17.0145 46.7699C16.9441 46.7162 16.8879 46.6357 16.8458 46.5284C16.8038 46.421 16.7827 46.2877 16.7827 46.1286C16.7827 45.9633 16.8045 45.8273 16.8481 45.7205C16.8917 45.6138 16.9487 45.5348 17.0191 45.4836C17.09 45.4323 17.1663 45.4067 17.2479 45.4067C17.3092 45.4067 17.3616 45.4195 17.4052 45.4451C17.4487 45.4701 17.4847 45.5025 17.5131 45.5421C17.5415 45.5818 17.563 45.6229 17.5777 45.6656H17.5891V45.425H17.9569V47.3573H17.5853ZM17.3786 46.5018C17.4237 46.5018 17.4622 46.4866 17.4941 46.4561C17.526 46.425 17.5506 46.3814 17.5678 46.3253C17.585 46.2691 17.5937 46.2033 17.5937 46.1276C17.5937 46.0508 17.585 45.9846 17.5678 45.9291C17.5511 45.8736 17.5265 45.8309 17.4941 45.801C17.4622 45.7711 17.4237 45.7562 17.3786 45.7562C17.3325 45.7562 17.2935 45.7714 17.2615 45.8019C17.2296 45.8324 17.2053 45.8754 17.1886 45.9309C17.1724 45.9864 17.1643 46.052 17.1643 46.1276C17.1643 46.2033 17.1726 46.2691 17.1893 46.3253C17.2061 46.3814 17.2301 46.425 17.2615 46.4561C17.2935 46.4866 17.3325 46.5018 17.3786 46.5018Z" fill="#FD2B20"/>
<path d="M18.9451 46.2237V45.425H19.316V46.8303H18.9618V46.5686H18.9497C18.9238 46.6546 18.8797 46.7229 18.8174 46.7736C18.7556 46.8236 18.6809 46.8486 18.5932 46.8486C18.5137 46.8486 18.4438 46.8266 18.3835 46.7827C18.3232 46.7388 18.2763 46.6775 18.2429 46.5988C18.2094 46.5195 18.1925 46.4268 18.192 46.3207V45.425H18.5636V46.2329C18.5641 46.3091 18.5808 46.3692 18.6138 46.4131C18.6467 46.457 18.6915 46.479 18.7483 46.479C18.7853 46.479 18.8184 46.4692 18.8478 46.4497C18.8777 46.4296 18.9013 46.4006 18.9185 46.3628C18.9362 46.3243 18.9451 46.278 18.9451 46.2237Z" fill="#FD2B20"/>
<path d="M19.5525 46.8303V45.425H19.9242V46.8303H19.5525ZM19.7387 45.2612C19.6865 45.2612 19.6417 45.2405 19.6042 45.199C19.5667 45.1569 19.548 45.1063 19.548 45.0472C19.548 44.9886 19.5667 44.9386 19.6042 44.8971C19.6417 44.855 19.6865 44.834 19.7387 44.834C19.7914 44.834 19.8363 44.855 19.8732 44.8971C19.9107 44.9386 19.9295 44.9886 19.9295 45.0472C19.9295 45.1063 19.9107 45.1569 19.8732 45.199C19.8363 45.2405 19.7914 45.2612 19.7387 45.2612Z" fill="#FD2B20"/>
<path d="M20.1607 46.8303V45.425H20.5217V45.6812H20.5339C20.5552 45.5885 20.5899 45.5195 20.638 45.4744C20.6861 45.4287 20.7421 45.4058 20.806 45.4058C20.8232 45.4058 20.8409 45.4073 20.8591 45.4104C20.8774 45.4128 20.8944 45.4168 20.9101 45.4223V45.8111C20.8923 45.8038 20.869 45.798 20.8401 45.7937C20.8118 45.7894 20.7864 45.7873 20.7641 45.7873C20.7201 45.7873 20.6803 45.7992 20.6448 45.823C20.6099 45.8462 20.5823 45.8788 20.562 45.9209C20.5422 45.9623 20.5324 46.0111 20.5324 46.0673V46.8303H20.1607Z" fill="#FD2B20"/>
<path d="M21.0615 46.8303V45.425H21.4225V45.6812H21.4347C21.4559 45.5885 21.4906 45.5195 21.5388 45.4744C21.5869 45.4287 21.6429 45.4058 21.7067 45.4058C21.724 45.4058 21.7417 45.4073 21.7599 45.4104C21.7782 45.4128 21.7951 45.4168 21.8108 45.4223V45.8111C21.7931 45.8038 21.7698 45.798 21.7409 45.7937C21.7126 45.7894 21.6872 45.7873 21.6649 45.7873C21.6209 45.7873 21.5811 45.7992 21.5456 45.823C21.5107 45.8462 21.483 45.8788 21.4628 45.9209C21.443 45.9623 21.4331 46.0111 21.4331 46.0673V46.8303H21.0615Z" fill="#FD2B20"/>
<path d="M22.4473 46.8568C22.3252 46.8568 22.2199 46.8278 22.1312 46.7699C22.043 46.7113 21.9751 46.6281 21.9275 46.5201C21.8804 46.4116 21.8568 46.2826 21.8568 46.1331C21.8568 45.988 21.8806 45.8611 21.9283 45.7525C21.9759 45.6434 22.043 45.5586 22.1297 45.4982C22.2163 45.4372 22.3184 45.4067 22.4359 45.4067C22.519 45.4067 22.595 45.4223 22.6639 45.4534C22.7328 45.4845 22.7924 45.5305 22.8425 45.5915C22.8927 45.6525 22.9317 45.7278 22.9596 45.8175C22.9874 45.9065 23.0014 46.0087 23.0014 46.124V46.2356H21.9868V45.9758H22.6556C22.6551 45.9282 22.6457 45.8858 22.6275 45.8486C22.6092 45.8114 22.5841 45.7824 22.5522 45.7617C22.5208 45.7403 22.4846 45.7297 22.4435 45.7297C22.402 45.7297 22.3648 45.7409 22.3318 45.7635C22.2989 45.7855 22.2728 45.8157 22.2535 45.8541C22.2343 45.8919 22.2242 45.9349 22.2231 45.9831V46.2475C22.2231 46.3048 22.2325 46.3551 22.2513 46.3984C22.27 46.4411 22.2966 46.4744 22.3311 46.4982C22.3655 46.522 22.4066 46.5339 22.4542 46.5339C22.4871 46.5339 22.517 46.5284 22.5439 46.5174C22.5707 46.5064 22.5938 46.4902 22.613 46.4689C22.6323 46.4475 22.6467 46.4213 22.6563 46.3902L22.9976 46.4021C22.9834 46.4942 22.9522 46.5744 22.9041 46.6427C22.8565 46.7104 22.7939 46.7632 22.7164 46.801C22.6389 46.8382 22.5492 46.8568 22.4473 46.8568Z" fill="#FD2B20"/>
<path d="M23.5628 44.9566V46.8303H23.1912V44.9566H23.5628Z" fill="#FD2B20"/>
<path d="M14.6026 37.1647V35.4688L10.2227 37.7356V39.2133L14.6026 41.4634V39.801L11.7571 38.4577L14.6026 37.1647Z" fill="#008CFF"/>
<path d="M19.4852 37.1647V35.4688L23.8652 37.7356V39.2133L19.4852 41.4634V39.801L22.3308 38.4577L19.4852 37.1647Z" fill="#008CFF"/>
<path d="M18.6756 33.6719H17.4342L15.4395 42.5547H16.7089L18.6756 33.6719Z" fill="#FD2B20"/>
<path d="M32.8876 36.422C33.9387 36.9193 34.4327 37.3496 35.2336 38.2355C32.5718 37.6481 31.5933 37.4702 31.5046 37.6409C31.2765 38.1832 31.1156 38.3174 30.7391 38.0274C29.8937 36.8019 29.3316 36.3722 27.9732 36.6004C26.7508 36.898 26.1177 37.1095 25.874 38.2355C25.8293 38.4373 25.9905 38.481 26.1951 38.4436C27.6373 38.0301 28.4019 37.9099 29.1833 39.1274C28.5272 39.0523 28.174 39.0628 27.5533 39.1274C26.8441 39.2402 26.4593 39.3352 25.874 39.7517C25.4206 39.9687 25.334 40.1401 26.0469 40.703C26.8934 41.0126 27.4753 41.0502 28.4918 41.0003C28.9304 41.0525 29.085 41.1622 29.1833 41.4759C28.2686 41.8303 27.7349 41.978 26.689 41.9813C27.156 43.0626 27.7282 43.4247 29.6278 43.3786C31.0664 44.2805 32.0424 44.5037 34.073 44.4191C33.0181 45.2144 32.1822 45.5778 30.448 45.3171C30.5379 45.8369 31.0943 46.0042 32.6406 46.1434C35.4709 45.9875 37.3264 40.095 37.448 41.2608C37.5696 42.4267 37.6723 43.2483 37.7773 44.8353C35.4551 47.4395 34.0319 47.7227 31.3318 46.738C30.2304 46.2075 29.8906 45.7164 29.6278 44.5975C27.3604 44.3637 26.6425 43.9462 26.0469 42.8435C25.2734 40.4914 24.7849 39.1314 25.3802 37.8193C27.1791 35.1476 28.3534 34.6867 30.8626 36.422C31.7181 36.2394 32.1728 36.2129 32.8876 36.422Z" fill="black"/>
<path d="M32.633 46.1632C30.9936 46.0672 30.665 45.833 30.425 45.3102C32.1615 45.5621 32.8913 45.2636 34.0295 44.4325C32.1387 44.5277 31.1895 44.2844 29.6343 43.3818C27.7459 43.3528 27.0721 43.0693 26.7076 41.9725C27.6633 41.9581 28.1937 41.8452 29.1619 41.478C29.0824 41.173 28.9563 41.0526 28.4944 40.9959C27.4779 41.0965 26.9394 41.0486 26.0812 40.7115C25.3392 40.1588 25.3481 39.9477 25.958 39.7102C27.0816 39.015 27.8247 39.0469 29.1356 39.1033L29.1619 39.1045C28.3486 38.0041 28.1802 38.0147 26.2969 38.4122C25.8057 38.5203 25.7647 38.402 25.958 37.9795C26.2308 36.9398 26.9639 36.907 27.9913 36.5826C29.5045 36.4453 30.0139 36.8955 30.7434 37.9795C31.083 38.3081 31.2245 38.2063 31.4417 37.8188C31.5276 37.5101 31.7055 37.5219 32.0681 37.6086C34.2763 38.0708 33.8364 38.0858 36.1044 38.2875L37.3631 41.2955C36.3207 44.6403 35.7157 45.8913 32.633 46.1632Z" fill="#FD2B20" stroke="#FD2B20"/>
<path d="M6.62849 37.0033L6.59311 36.9523L6.54634 36.9115C6.15565 36.5709 5.78996 36.2727 5.43854 36.0475C5.0868 35.8221 4.72275 35.6523 4.33464 35.5961C3.50896 35.4767 2.79101 35.8931 2.04818 36.6794L1.98819 36.743L1.95328 36.823C1.71845 37.3618 1.51353 37.8513 1.44396 38.3867C1.37223 38.9388 1.44722 39.5008 1.69013 40.2052C1.84396 40.6638 1.89557 40.9129 1.9119 41.4214L1.91391 41.4839L1.93125 41.544C2.02643 41.8738 2.15236 42.085 2.44545 42.4276L2.49967 42.491L2.57152 42.5333C3.33743 42.9848 4.01814 43.2299 4.65707 43.0359C5.28058 42.8467 5.69324 42.2848 6.06708 41.663L6.46334 41.0039L5.70016 40.9092C5.48886 40.8829 5.29309 40.8582 5.1125 40.8346C5.20144 40.836 5.29651 40.8387 5.3993 40.8426L5.49066 40.846L5.57731 40.8168C6.00909 40.6716 6.37462 40.5284 6.63807 40.3758C6.7695 40.2997 6.90351 40.2056 7.00847 40.0855C7.11766 39.9605 7.2172 39.7804 7.21021 39.5541C7.2034 39.3337 7.09799 39.1617 6.992 39.0428C6.88685 38.9249 6.75264 38.8262 6.61371 38.7412C6.35426 38.5824 5.99609 38.4222 5.55489 38.2525C5.74574 38.2596 5.9554 38.2706 6.1858 38.2854L6.2675 38.2906L6.34659 38.2695C6.44728 38.2427 6.59592 38.1898 6.71634 38.0659C6.8629 37.9151 6.90652 37.725 6.88696 37.5568C6.87084 37.4181 6.81356 37.3024 6.77409 37.231C6.73089 37.153 6.67744 37.0738 6.62849 37.0033Z" fill="#FA2F1F" stroke="black"/>
<path d="M98.217 26.0577L93.0145 48.7945H84.151L81.5177 35.8846L78.8843 48.7945H70.0208L64.8184 26.0577H72.4936L74.5489 40.3806L77.6319 26.0577H85.4035L88.4864 40.3806L90.5418 26.0577H98.217Z" fill="white"/>
<path d="M118.308 39.5777C118.308 40.0701 118.276 40.5411 118.212 40.9907H106.747C106.854 42.5536 107.507 43.3351 108.706 43.3351C109.477 43.3351 110.033 42.9818 110.376 42.2753H117.923C117.666 43.5599 117.12 44.716 116.285 45.7436C115.471 46.7499 114.433 47.5527 113.17 48.1522C111.928 48.7302 110.558 49.0193 109.059 49.0193C107.261 49.0193 105.655 48.6446 104.242 47.8953C102.85 47.1459 101.758 46.0755 100.966 44.6839C100.196 43.2708 99.8102 41.6223 99.8102 39.7383C99.8102 37.8543 100.196 36.2164 100.966 34.8248C101.758 33.4118 102.85 32.3306 104.242 31.5813C105.655 30.832 107.261 30.4573 109.059 30.4573C110.857 30.4573 112.452 30.832 113.844 31.5813C115.257 32.3092 116.349 33.3583 117.12 34.7285C117.912 36.0987 118.308 37.7151 118.308 39.5777ZM111.082 37.8757C111.082 37.2762 110.89 36.8266 110.504 36.5269C110.119 36.2057 109.637 36.0452 109.059 36.0452C107.796 36.0452 107.057 36.6553 106.843 37.8757H111.082Z" fill="white"/>
<path d="M127.692 33.1549C128.142 32.3199 128.784 31.6669 129.619 31.1959C130.475 30.7035 131.492 30.4573 132.67 30.4573C134.083 30.4573 135.357 30.832 136.491 31.5813C137.626 32.3092 138.514 33.3797 139.157 34.7927C139.82 36.1843 140.152 37.8328 140.152 39.7383C140.152 41.6437 139.82 43.3029 139.157 44.716C138.514 46.1076 137.626 47.178 136.491 47.9274C135.357 48.6553 134.083 49.0193 132.67 49.0193C131.492 49.0193 130.475 48.7838 129.619 48.3127C128.784 47.8203 128.142 47.1566 127.692 46.3217V48.7945H120.563V25.03H127.692V33.1549ZM132.927 39.7383C132.927 38.7749 132.68 38.0255 132.188 37.4903C131.696 36.9551 131.064 36.6874 130.293 36.6874C129.522 36.6874 128.891 36.9551 128.398 37.4903C127.906 38.0255 127.66 38.7749 127.66 39.7383C127.66 40.7017 127.906 41.451 128.398 41.9863C128.891 42.5215 129.522 42.7891 130.293 42.7891C131.064 42.7891 131.696 42.5215 132.188 41.9863C132.68 41.451 132.927 40.7017 132.927 39.7383Z" fill="white"/>
<path d="M151.286 49.0193C148.567 49.0193 146.319 48.3877 144.542 47.1245C142.786 45.84 141.834 43.9666 141.684 41.5046H149.263C149.37 42.8105 149.948 43.4635 150.997 43.4635C151.382 43.4635 151.703 43.3779 151.96 43.2066C152.239 43.0139 152.378 42.7249 152.378 42.3395C152.378 41.8043 152.089 41.3761 151.511 41.055C150.933 40.7124 150.033 40.327 148.813 39.8989C147.357 39.385 146.148 38.8819 145.184 38.3895C144.242 37.8971 143.429 37.1799 142.743 36.2378C142.058 35.2958 141.727 34.0862 141.748 32.609C141.748 31.1317 142.123 29.8793 142.872 28.8516C143.643 27.8025 144.681 27.0104 145.987 26.4752C147.314 25.9399 148.802 25.6723 150.451 25.6723C153.234 25.6723 155.439 26.3146 157.066 27.5992C158.715 28.8837 159.582 30.6928 159.668 33.0264H151.992C151.971 32.3842 151.81 31.9239 151.511 31.6455C151.211 31.3672 150.847 31.228 150.419 31.228C150.119 31.228 149.873 31.3351 149.68 31.5492C149.487 31.7419 149.391 32.0202 149.391 32.3842C149.391 32.898 149.669 33.3262 150.226 33.6687C150.804 33.9899 151.714 34.3859 152.956 34.8569C154.39 35.3922 155.568 35.906 156.488 36.3984C157.43 36.8908 158.244 37.5759 158.929 38.4537C159.614 39.3315 159.957 40.4341 159.957 41.7615C159.957 43.1531 159.614 44.4055 158.929 45.5188C158.244 46.6107 157.248 47.4671 155.942 48.0879C154.636 48.7088 153.084 49.0193 151.286 49.0193Z" fill="white"/>
<path d="M161.498 39.8667C161.498 38.0898 161.862 36.4948 162.59 35.0817C163.318 33.6687 164.292 32.5661 165.512 31.774C166.754 30.9604 168.081 30.5537 169.495 30.5537C170.458 30.5537 171.304 30.6928 172.032 30.9711C172.759 31.2281 173.412 31.6669 173.99 32.2878V30.6821H181.088V57.4653H173.99V46.8034C173.348 47.5527 172.663 48.1094 171.935 48.4733C171.229 48.8159 170.415 48.9871 169.495 48.9871C168.06 48.9871 166.733 48.6018 165.512 47.831C164.292 47.0603 163.318 45.9898 162.59 44.6196C161.862 43.228 161.498 41.6437 161.498 39.8667ZM173.99 39.7383C173.99 38.6892 173.712 37.9292 173.156 37.4582C172.62 36.9658 172.021 36.7196 171.357 36.7196C170.715 36.7196 170.115 36.9872 169.559 37.5224C169.002 38.0362 168.724 38.8177 168.724 39.8667C168.724 40.8944 168.991 41.6437 169.527 42.1147C170.083 42.5643 170.693 42.7891 171.357 42.7891C172.021 42.7891 172.62 42.5429 173.156 42.0505C173.712 41.5581 173.99 40.7873 173.99 39.7383Z" fill="white"/>
<path d="M203.461 30.6821V48.7945H196.332V46.0326C195.775 46.889 195.026 47.5848 194.084 48.1201C193.163 48.6553 192.061 48.9229 190.776 48.9229C188.699 48.9229 187.072 48.2271 185.895 46.8355C184.739 45.4439 184.161 43.5599 184.161 41.1834V30.6821H191.258V40.2842C191.258 41.1406 191.483 41.8257 191.932 42.3395C192.403 42.8319 193.024 43.0782 193.795 43.0782C194.587 43.0782 195.208 42.8319 195.657 42.3395C196.107 41.8257 196.332 41.1406 196.332 40.2842V30.6821H203.461Z" fill="white"/>
<path d="M210.278 29.237C209.036 29.237 208.041 28.9051 207.291 28.2414C206.542 27.5777 206.167 26.7428 206.167 25.7365C206.167 24.7089 206.542 23.8632 207.291 23.1995C208.041 22.5144 209.036 22.1719 210.278 22.1719C211.498 22.1719 212.483 22.5144 213.232 23.1995C213.982 23.8632 214.356 24.7089 214.356 25.7365C214.356 26.7428 213.982 27.5777 213.232 28.2414C212.483 28.9051 211.498 29.237 210.278 29.237ZM213.81 30.6821V48.7945H206.681V30.6821H213.81Z" fill="white"/>
<path d="M224.16 34.022C224.888 32.9729 225.776 32.1379 226.825 31.5171C227.874 30.8748 228.966 30.5537 230.101 30.5537V38.1647H228.078C226.729 38.1647 225.733 38.4002 225.091 38.8712C224.47 39.3422 224.16 40.1772 224.16 41.3761V48.7945H217.03V30.6821H224.16V34.022Z" fill="white"/>
<path d="M239.15 34.022C239.878 32.9729 240.767 32.1379 241.816 31.5171C242.865 30.8748 243.957 30.5537 245.092 30.5537V38.1647H243.068C241.72 38.1647 240.724 38.4002 240.082 38.8712C239.461 39.3422 239.15 40.1772 239.15 41.3761V48.7945H232.021V30.6821H239.15V34.022Z" fill="white"/>
<path d="M264.546 39.5777C264.546 40.0701 264.514 40.5411 264.45 40.9907H252.985C253.092 42.5536 253.745 43.3351 254.944 43.3351C255.715 43.3351 256.271 42.9818 256.614 42.2753H264.161C263.904 43.5599 263.358 44.716 262.523 45.7436C261.709 46.7499 260.671 47.5527 259.408 48.1522C258.166 48.7302 256.796 49.0193 255.297 49.0193C253.499 49.0193 251.893 48.6446 250.48 47.8953C249.089 47.1459 247.997 46.0755 247.205 44.6839C246.434 43.2708 246.048 41.6223 246.048 39.7383C246.048 37.8543 246.434 36.2164 247.205 34.8248C247.997 33.4118 249.089 32.3306 250.48 31.5813C251.893 30.832 253.499 30.4573 255.297 30.4573C257.096 30.4573 258.691 30.832 260.082 31.5813C261.495 32.3092 262.587 33.3583 263.358 34.7285C264.15 36.0987 264.546 37.7151 264.546 39.5777ZM257.321 37.8757C257.321 37.2762 257.128 36.8266 256.742 36.5269C256.357 36.2057 255.875 36.0452 255.297 36.0452C254.034 36.0452 253.296 36.6553 253.081 37.8757H257.321Z" fill="white"/>
<path d="M273.93 25.03V48.7945H266.801V25.03H273.93Z" fill="white"/>
</svg>
