<svg width="430" height="230" viewBox="0 0 430 230" fill="none" xmlns="http://www.w3.org/2000/svg">
<g clip-path="url(#clip0_2304_2591)">
<rect width="430" height="230" fill="#FD2B20"/>
<path d="M430 0H0V230H430V0Z" fill="#FD2B20"/>
<g clip-path="url(#clip1_2304_2591)">
<path d="M177.279 124.778L174.74 126.301L128.008 192.987L169.419 151.674L169.803 172.138L255.22 84.8356L258.263 103.545L261.181 102.142L301.989 37L265.153 82.2349L263.211 57.8498L180.932 144.238L177.279 124.778Z" fill="url(#paint0_linear_2304_2591)"/>
<path d="M177.279 124.778L174.74 126.301L128.008 192.987L169.419 151.674L169.803 172.138L255.22 84.8356L258.263 103.545L261.181 102.142L301.989 37L265.153 82.2349L263.211 57.8498L180.932 144.238L177.279 124.778Z" fill="url(#paint1_linear_2304_2591)" fill-opacity="0.1"/>
<path d="M177.279 124.778L174.74 126.301L128.008 192.987L169.419 151.674L169.803 172.138L255.22 84.8356L258.263 103.545L261.181 102.142L301.989 37L265.153 82.2349L263.211 57.8498L180.932 144.238L177.279 124.778Z" fill="url(#paint2_linear_2304_2591)" fill-opacity="0.15"/>
<path d="M177.279 124.778L174.74 126.301L128.008 192.987L169.419 151.674L169.803 172.138L255.22 84.8356L258.263 103.545L261.181 102.142L301.989 37L265.153 82.2349L263.211 57.8498L180.932 144.238L177.279 124.778Z" fill="black" fill-opacity="0.2"/>
<path d="M174.732 126.315L128 193.001L169.411 151.687L169.795 172.151C204.195 137.858 223.482 118.632 257.883 84.3393L261.173 102.155L301.982 37.0137L265.397 81.7468L263.203 57.8634L178.352 145.785L174.732 126.315Z" fill="url(#paint3_linear_2304_2591)"/>
<path d="M174.732 126.315L128 193.001L169.411 151.687L169.795 172.151C204.195 137.858 223.482 118.632 257.883 84.3393L261.173 102.155L301.982 37.0137L265.397 81.7468L263.203 57.8634L178.352 145.785L174.732 126.315Z" fill="url(#paint4_linear_2304_2591)" fill-opacity="0.1"/>
<path d="M174.732 126.315L128 193.001L169.411 151.687L169.795 172.151C204.195 137.858 223.482 118.632 257.883 84.3393L261.173 102.155L301.982 37.0137L265.397 81.7468L263.203 57.8634L178.352 145.785L174.732 126.315Z" fill="url(#paint5_linear_2304_2591)" fill-opacity="0.15"/>
<path d="M174.732 126.315L128 193.001L169.411 151.687L169.795 172.151C204.195 137.858 223.482 118.632 257.883 84.3393L261.173 102.155L301.982 37.0137L265.397 81.7468L263.203 57.8634L178.352 145.785L174.732 126.315Z" fill="url(#paint6_linear_2304_2591)" fill-opacity="0.5"/>
<g filter="url(#filter0_d_2304_2591)">
<path d="M141.146 104.355L135.938 103.822V95.2559H160.427L164.022 96.3528V104.355H156.563V127.46L152.441 128.557H143.923V104.355H141.146Z" fill="black"/>
<path d="M141.146 104.355L135.938 103.822V95.2559H160.427L164.022 96.3528V104.355H156.563V127.46L152.441 128.557H143.923V104.355H141.146Z" fill="url(#paint7_linear_2304_2591)"/>
<path d="M273.429 127.46V104.355H265.969V96.3528L269.564 95.2559H294.053V103.822L288.845 104.355H286.068V128.557H277.55L273.429 127.46Z" fill="black"/>
<path d="M273.429 127.46V104.355H265.969V96.3528L269.564 95.2559H294.053V103.822L288.845 104.355H286.068V128.557H277.55L273.429 127.46Z" fill="url(#paint8_linear_2304_2591)"/>
<path fill-rule="evenodd" clip-rule="evenodd" d="M185.011 96.7227L185.928 97.2238L186.845 97.8438L187.745 98.57L188.607 99.3899L189.415 100.291L190.149 101.261L190.791 102.287L191.323 103.357L191.725 104.459L191.98 105.579L192.07 106.705L192.024 107.597L191.895 108.421L191.689 109.183L191.415 109.887L191.082 110.54L190.698 111.147L190.272 111.713L189.812 112.245L189.326 112.747L188.822 113.226L188.311 113.687L187.798 114.134L187.583 114.322L187.476 114.416L187.369 114.509L187.264 114.602L187.159 114.696L187.054 114.789L186.951 114.882L186.849 114.976L186.748 115.069L186.648 115.163L186.549 115.257L192.467 127.46L190.879 128.557H181.242L176.554 117.219V127.46L173.842 128.557H165.75V95.2559H181.934L182.896 95.6517L185.011 96.7227ZM181.675 104.355H176.554V108.191L180.816 108.158L180.969 108.139L181.13 108.082L181.296 107.989L181.463 107.864L181.626 107.709L181.781 107.526L181.924 107.318L182.051 107.088L182.157 106.837L182.237 106.569L182.289 106.286L182.307 105.99L182.288 105.694L182.234 105.411L182.149 105.143L182.039 104.893L181.908 104.662L181.761 104.454L181.675 104.355Z" fill="black"/>
<path fill-rule="evenodd" clip-rule="evenodd" d="M185.011 96.7227L185.928 97.2238L186.845 97.8438L187.745 98.57L188.607 99.3899L189.415 100.291L190.149 101.261L190.791 102.287L191.323 103.357L191.725 104.459L191.98 105.579L192.07 106.705L192.024 107.597L191.895 108.421L191.689 109.183L191.415 109.887L191.082 110.54L190.698 111.147L190.272 111.713L189.812 112.245L189.326 112.747L188.822 113.226L188.311 113.687L187.798 114.134L187.583 114.322L187.476 114.416L187.369 114.509L187.264 114.602L187.159 114.696L187.054 114.789L186.951 114.882L186.849 114.976L186.748 115.069L186.648 115.163L186.549 115.257L192.467 127.46L190.879 128.557H181.242L176.554 117.219V127.46L173.842 128.557H165.75V95.2559H181.934L182.896 95.6517L185.011 96.7227ZM181.675 104.355H176.554V108.191L180.816 108.158L180.969 108.139L181.13 108.082L181.296 107.989L181.463 107.864L181.626 107.709L181.781 107.526L181.924 107.318L182.051 107.088L182.157 106.837L182.237 106.569L182.289 106.286L182.307 105.99L182.288 105.694L182.234 105.411L182.149 105.143L182.039 104.893L181.908 104.662L181.761 104.454L181.675 104.355Z" fill="url(#paint9_linear_2304_2591)"/>
<path d="M249.973 104.355H260.997L264.241 103.822V95.2559H242.094L240.309 96.3528V127.46L242.094 128.557H264.241V119.99L260.997 119.458H249.973V115.6H261.792V108.212H249.973V104.355Z" fill="black"/>
<path d="M249.973 104.355H260.997L264.241 103.822V95.2559H242.094L240.309 96.3528V127.46L242.094 128.557H264.241V119.99L260.997 119.458H249.973V115.6H261.792V108.212H249.973V104.355Z" fill="url(#paint10_linear_2304_2591)"/>
<path d="M235.338 104.355H227.58L226.444 104.423L225.335 104.621L224.266 104.94L223.251 105.37L222.304 105.901L221.622 106.391L221.067 106.899L220.359 107.732L219.783 108.633L219.353 109.591L219.084 110.596L218.991 111.638L219.049 112.772L219.227 113.864L219.528 114.903L219.957 115.878L220.517 116.779L221.142 117.511L221.585 117.892L222.5 118.465L223.553 118.928L224.748 119.271L226.089 119.484L227.58 119.558V111.656L228.467 111.638L236.772 111.617V128.557H228.467L226.348 128.435L224.221 128.073L222.122 127.471L220.087 126.631L218.153 125.556L216.355 124.247L214.731 122.706L213.316 120.934L212.146 118.935L211.258 116.709L210.688 114.258L210.473 111.585L210.682 108.947L211.281 106.546L212.221 104.381L213.458 102.45L214.945 100.751L216.635 99.2846L218.483 98.0474L220.442 97.0384L222.466 96.2563L224.509 95.6996L226.525 95.3665L228.467 95.2559H236.772V103.822L235.338 104.355Z" fill="black"/>
<path d="M235.338 104.355H227.58L226.444 104.423L225.335 104.621L224.266 104.94L223.251 105.37L222.304 105.901L221.622 106.391L221.067 106.899L220.359 107.732L219.783 108.633L219.353 109.591L219.084 110.596L218.991 111.638L219.049 112.772L219.227 113.864L219.528 114.903L219.957 115.878L220.517 116.779L221.142 117.511L221.585 117.892L222.5 118.465L223.553 118.928L224.748 119.271L226.089 119.484L227.58 119.558V111.656L228.467 111.638L236.772 111.617V128.557H228.467L226.348 128.435L224.221 128.073L222.122 127.471L220.087 126.631L218.153 125.556L216.355 124.247L214.731 122.706L213.316 120.934L212.146 118.935L211.258 116.709L210.688 114.258L210.473 111.585L210.682 108.947L211.281 106.546L212.221 104.381L213.458 102.45L214.945 100.751L216.635 99.2846L218.483 98.0474L220.442 97.0384L222.466 96.2563L224.509 95.6996L226.525 95.3665L228.467 95.2559H236.772V103.822L235.338 104.355Z" fill="url(#paint11_linear_2304_2591)"/>
<path d="M205.796 127.46L205.147 128.557H196.203V95.2559H205.147L205.796 96.3528V127.46Z" fill="black"/>
<path d="M205.796 127.46L205.147 128.557H196.203V95.2559H205.147L205.796 96.3528V127.46Z" fill="url(#paint12_linear_2304_2591)"/>
</g>
<path d="M152.441 103.822V128.557H143.923V103.822H135.938V95.2559H160.427V103.822H152.441Z" fill="url(#paint13_linear_2304_2591)"/>
<path d="M152.441 103.822V128.557H143.923V103.822H135.938V95.2559H160.427V103.822H152.441Z" fill="url(#paint14_linear_2304_2591)" fill-opacity="0.1"/>
<path d="M152.441 103.822V128.557H143.923V103.822H135.938V95.2559H160.427V103.822H152.441Z" fill="url(#paint15_linear_2304_2591)" fill-opacity="0.15"/>
<path d="M286.067 103.822V128.557H277.549V103.822H269.562V95.2559H294.052V103.822H286.067Z" fill="url(#paint16_linear_2304_2591)"/>
<path d="M286.067 103.822V128.557H277.549V103.822H269.562V95.2559H294.052V103.822H286.067Z" fill="url(#paint17_linear_2304_2591)" fill-opacity="0.1"/>
<path d="M286.067 103.822V128.557H277.549V103.822H269.562V95.2559H294.052V103.822H286.067Z" fill="url(#paint18_linear_2304_2591)" fill-opacity="0.15"/>
<path fill-rule="evenodd" clip-rule="evenodd" d="M173.842 128.557H165.75V95.2559H181.934C185.714 96.5408 190.453 101.52 190.453 106.338C190.453 110.313 188.062 112.393 185.88 114.292C185.417 114.695 184.963 115.09 184.543 115.493L190.879 128.557H181.242L176.504 117.099H173.842V128.557ZM180.816 108.158L173.842 108.212V103.822H180.816C181.349 103.822 182.307 104.786 182.307 105.99C182.307 107.195 181.402 108.158 180.816 108.158Z" fill="url(#paint19_linear_2304_2591)"/>
<path fill-rule="evenodd" clip-rule="evenodd" d="M173.842 128.557H165.75V95.2559H181.934C185.714 96.5408 190.453 101.52 190.453 106.338C190.453 110.313 188.062 112.393 185.88 114.292C185.417 114.695 184.963 115.09 184.543 115.493L190.879 128.557H181.242L176.504 117.099H173.842V128.557ZM180.816 108.158L173.842 108.212V103.822H180.816C181.349 103.822 182.307 104.786 182.307 105.99C182.307 107.195 181.402 108.158 180.816 108.158Z" fill="url(#paint20_linear_2304_2591)" fill-opacity="0.1"/>
<path fill-rule="evenodd" clip-rule="evenodd" d="M173.842 128.557H165.75V95.2559H181.934C185.714 96.5408 190.453 101.52 190.453 106.338C190.453 110.313 188.062 112.393 185.88 114.292C185.417 114.695 184.963 115.09 184.543 115.493L190.879 128.557H181.242L176.504 117.099H173.842V128.557ZM180.816 108.158L173.842 108.212V103.822H180.816C181.349 103.822 182.307 104.786 182.307 105.99C182.307 107.195 181.402 108.158 180.816 108.158Z" fill="url(#paint21_linear_2304_2591)" fill-opacity="0.15"/>
<path d="M264.241 95.2559V103.822H249.973V108.212H261.791V115.6H249.973V119.99H264.241V128.557H242.094V95.2559H264.241Z" fill="url(#paint22_linear_2304_2591)"/>
<path d="M264.241 95.2559V103.822H249.973V108.212H261.791V115.6H249.973V119.99H264.241V128.557H242.094V95.2559H264.241Z" fill="url(#paint23_linear_2304_2591)" fill-opacity="0.1"/>
<path d="M264.241 95.2559V103.822H249.973V108.212H261.791V115.6H249.973V119.99H264.241V128.557H242.094V95.2559H264.241Z" fill="url(#paint24_linear_2304_2591)" fill-opacity="0.15"/>
<path d="M196.203 95.2559H205.147V128.557H196.203V95.2559Z" fill="url(#paint25_linear_2304_2591)"/>
<path d="M196.203 95.2559H205.147V128.557H196.203V95.2559Z" fill="url(#paint26_linear_2304_2591)" fill-opacity="0.1"/>
<path d="M196.203 95.2559H205.147V128.557H196.203V95.2559Z" fill="url(#paint27_linear_2304_2591)" fill-opacity="0.15"/>
<path d="M228.463 120.098V111.638L236.768 111.617V128.557H228.463C220.052 128.557 210.575 122.721 210.469 111.585C210.469 100.556 220.903 95.2559 228.463 95.2559H236.768V103.822H228.463C223.565 103.822 218.987 107.409 218.987 111.638C218.987 116.243 221.755 120.098 228.463 120.098Z" fill="url(#paint28_linear_2304_2591)"/>
<path d="M228.463 120.098V111.638L236.768 111.617V128.557H228.463C220.052 128.557 210.575 122.721 210.469 111.585C210.469 100.556 220.903 95.2559 228.463 95.2559H236.768V103.822H228.463C223.565 103.822 218.987 107.409 218.987 111.638C218.987 116.243 221.755 120.098 228.463 120.098Z" fill="url(#paint29_linear_2304_2591)" fill-opacity="0.1"/>
<path d="M228.463 120.098V111.638L236.768 111.617V128.557H228.463C220.052 128.557 210.575 122.721 210.469 111.585C210.469 100.556 220.903 95.2559 228.463 95.2559H236.768V103.822H228.463C223.565 103.822 218.987 107.409 218.987 111.638C218.987 116.243 221.755 120.098 228.463 120.098Z" fill="url(#paint30_linear_2304_2591)" fill-opacity="0.15"/>
<path d="M144.896 142.748L142.345 143.222H141.893L141.976 137.024L140.25 136.672L142.875 136.428L144.84 136.488L144.896 142.748Z" fill="url(#paint31_linear_2304_2591)"/>
<path fill-rule="evenodd" clip-rule="evenodd" d="M150.392 142.748H149.991L147.625 143.222H147.354L147.025 139.858V137.26L145.809 136.735L148.238 136.489H150.041L150.1 136.629L151.424 136.489L153.283 136.428V142.748L151.037 143.222L150.392 142.748Z" fill="url(#paint32_linear_2304_2591)"/>
<path d="M158.43 136.438H161.885V138.114L159.952 138.42L159.707 138.325L159.59 136.907L156.419 137.144L156.371 136.682L158.43 136.438Z" fill="url(#paint33_linear_2304_2591)"/>
<path d="M165.708 136.438H170.593V138.121L169 138.422V142.75L167.326 143.224L166.988 143.048V138.088H168.397L168.632 136.907H164.169L163.914 136.682L165.708 136.438Z" fill="url(#paint34_linear_2304_2591)"/>
<path d="M174.766 142.697L173.302 143.169L172.859 143.048L173.681 140.738L174.503 140.096L175.772 140.516L176.093 140.428L175.912 140.738L174.766 142.697Z" fill="url(#paint35_linear_2304_2591)"/>
<path d="M185.25 136.438V141.172H187.692V142.75L186.699 143.224L184.837 142.812L183.428 141.867L182.254 138.325L181.855 136.682L183.019 136.438H185.25Z" fill="url(#paint36_linear_2304_2591)"/>
<path d="M194.52 136.432L194.646 136.618L194.718 136.739L194.871 137.004L195.091 137.391L195.364 137.874L195.678 138.429L196.72 140.286L197.057 140.888L197.364 141.441L197.63 141.92L197.84 142.301L198.085 142.748L197.47 143.222L195.993 142.456L193.645 138.677L193.774 136.676L194.52 136.432Z" fill="url(#paint37_linear_2304_2591)"/>
<path d="M193.262 142.696L192.471 143.168L191.648 142.338L193.175 140.428H194.566L193.262 142.696Z" fill="url(#paint38_linear_2304_2591)"/>
<path d="M202.521 136.62L202.798 136.497L203.092 136.438H205.536V138.091L205.192 138.395L204.684 137.025L202.066 136.871L202.521 136.62Z" fill="url(#paint39_linear_2304_2591)"/>
<path d="M203.199 138.332L203.089 138.42L202.969 138.561L202.87 138.727L202.792 138.914L202.734 139.115L202.696 139.328L202.679 139.546L202.681 139.767L202.703 139.984L202.744 140.194L202.805 140.392L202.885 140.573L202.983 140.734L203.089 140.864L203.195 140.968L203.305 141.047L203.42 141.104L203.542 141.144L203.673 141.168L203.815 141.18L203.97 141.184L204.14 141.181L204.328 141.176L204.535 141.171L204.763 141.169L205.533 141.171V142.749L205.189 143.224L204.564 143.048L204.33 141.985L202.098 141.867L201.746 138.324L203.199 138.332Z" fill="url(#paint40_linear_2304_2591)"/>
<path d="M209.252 136.432L212.81 136.489L212.841 138.646L212.845 138.942L212.848 139.234L212.849 139.519L212.849 139.794L212.847 140.055L212.845 140.3L212.841 140.526L212.837 140.729L212.831 140.906L212.825 141.054L212.817 141.169L212.809 141.249L212.791 141.351L212.711 141.775L212.729 141.669L212.082 141.63L211.612 137.261L209.043 136.676L209.252 136.432Z" fill="url(#paint41_linear_2304_2591)"/>
<path d="M211.004 141.119L211.025 142.222H209.263L209.043 141.597L209.252 141.18L211.004 141.119Z" fill="url(#paint42_linear_2304_2591)"/>
<path d="M220.39 139.066L220.587 139.406L218.071 139.977L217.953 139.066H220.39Z" fill="url(#paint43_linear_2304_2591)"/>
<path d="M220.722 141.17L220.931 141.587L217.953 142.22L217.836 141.17H220.722Z" fill="url(#paint44_linear_2304_2591)"/>
<path d="M216.578 142.75V136.438H220.72L220.929 136.682L217.364 137.144L217.129 143.048L216.636 143.224L216.578 142.75Z" fill="url(#paint45_linear_2304_2591)"/>
<path d="M233.836 139.539L233.942 136.489L235.801 136.428L236.558 136.672L235.331 137.614L234.699 140.384L233.836 139.539Z" fill="url(#paint46_linear_2304_2591)"/>
<path d="M233.932 142.75L233.316 141.356L233.232 141.166L233.15 140.983L233.07 140.806L232.993 140.64L232.921 140.484L232.854 140.342L232.793 140.214L232.738 140.103L232.692 140.01L232.653 139.938L232.625 139.888L232.606 139.862L232.512 139.762L233.523 139.888L234.621 143.224L233.932 142.75Z" fill="url(#paint47_linear_2304_2591)"/>
<path d="M230.703 142.748L230.759 136.489L232.565 136.432L233.204 136.676L231.928 137.379L231.275 143.223L230.703 142.748Z" fill="url(#paint48_linear_2304_2591)"/>
<path d="M239.586 142.563L239.771 142.214L240.051 141.703L240.402 141.071L240.801 140.358L241.224 139.607L241.649 138.858L242.052 138.153L242.41 137.533L242.699 137.039L242.896 136.712L242.978 136.594L243.997 136.844L244.022 137.26L240.852 143.047L240.412 143.18L240.422 143.186L239.529 142.713L239.52 142.707L239.586 142.563Z" fill="url(#paint49_linear_2304_2591)"/>
<path d="M244.456 142.711L244.434 142.695L244.402 142.66L244.36 142.609L244.31 142.541L244.253 142.46L244.189 142.365L244.119 142.259L244.045 142.143L243.967 142.017L243.887 141.884L243.804 141.745L243.72 141.601L243.636 141.457L243.555 141.318L243.476 141.185L243.401 141.059L243.33 140.943L243.265 140.837L243.206 140.742L243.153 140.661L243.109 140.594L243.073 140.542L243.047 140.508L243.031 140.492L244.294 140.32L245.529 143.184L244.456 142.711Z" fill="url(#paint50_linear_2304_2591)"/>
<path d="M260.866 141.17L262.535 141.587L262.341 142.22H259.875L258.559 141.17H260.866Z" fill="url(#paint51_linear_2304_2591)"/>
<path d="M256.195 142.75V136.438H258.425L260.006 136.682L258.586 137.144L258.82 142.458L257.695 143.224L256.195 142.75Z" fill="url(#paint52_linear_2304_2591)"/>
<path d="M264.192 142.4L264.4 142.009L264.689 141.482L265.041 140.854L265.43 140.162L265.838 139.444L266.246 138.735L266.628 138.073L266.967 137.494L267.24 137.035L267.427 136.732L267.507 136.623L269.418 136.874L269.624 137.497L266.688 143.047L265.815 143.223L264.031 142.749L264.084 142.617L264.192 142.4Z" fill="url(#paint53_linear_2304_2591)"/>
<path d="M269.012 142.714L268.985 142.707L268.961 142.691L268.928 142.656L268.886 142.604L268.836 142.537L268.778 142.456L268.714 142.361L268.645 142.255L268.571 142.138L268.493 142.013L268.413 141.88L268.332 141.741L268.248 141.598L268.165 141.454L268.085 141.315L268.007 141.182L267.932 141.057L267.862 140.941L267.798 140.835L267.74 140.741L267.688 140.66L267.644 140.593L267.608 140.541L267.582 140.507L267.566 140.491L270.094 140.213L270.949 143.18L269.012 142.714Z" fill="url(#paint54_linear_2304_2591)"/>
<path d="M278.071 136.434L280.366 136.678L279.368 137.262L277.724 138.443V142.812L276.624 143.224L274.46 142.75V138.322L273.07 138.121L273.132 136.49L278.071 136.434Z" fill="url(#paint55_linear_2304_2591)"/>
<path d="M281.84 139.606L282.202 138.957L282.523 138.386L282.801 137.893L283.036 137.478L283.23 137.14L283.384 136.878L283.496 136.692L283.569 136.58L283.6 136.543L286.097 136.791L287.003 140.472L287.551 143.223L285.004 142.749L284.185 142.93L282.467 143.223L280.098 142.749L281.434 140.336L281.84 139.606Z" fill="url(#paint56_linear_2304_2591)"/>
<path d="M157.318 141.131L155.219 141.546V142.22L158.415 141.984L158.743 141.131H157.318Z" fill="url(#paint57_linear_2304_2591)"/>
<path d="M159.282 138.959V138.172L157.254 138.479V139.295H159.368L159.546 143.3L159.732 143.263L161.673 142.788L161.791 142.715L161.886 142.602L161.959 142.458L162.013 142.289L162.051 142.102L162.075 141.906L162.089 141.708L162.096 141.515L162.097 141.335L162.094 141.042L162.092 140.168L162.088 140.043L162.082 139.917L162.069 139.791L162.049 139.668L162.018 139.549L161.975 139.435L161.917 139.329L161.841 139.231L161.746 139.143L161.63 139.068L161.489 139.006L161.321 138.959H159.282Z" fill="url(#paint58_linear_2304_2591)"/>
<path d="M176.062 136.512L176.031 136.484L174.613 136.73V138.677L175.771 140.515L176.092 140.427L175.911 140.737L177.395 143.092L178.243 143.223L179.533 142.748L178.564 140.965L178.135 140.178L177.745 139.466L177.395 138.831L177.085 138.272L176.815 137.788L176.585 137.381L176.394 137.049L176.244 136.794L176.133 136.615L176.062 136.512Z" fill="url(#paint59_linear_2304_2591)"/>
<path d="M140.25 136.672L142.286 136.735L142.345 143.222H140.25V136.672Z" fill="url(#paint60_linear_2304_2591)"/>
<path d="M140.25 136.672L142.286 136.735L142.345 143.222H140.25V136.672Z" fill="url(#paint61_linear_2304_2591)" fill-opacity="0.1"/>
<path d="M145.808 136.735H147.677L149.046 140.006L149.11 136.735L151.037 136.672V143.222H149.091L148.975 142.961L148.858 142.7L148.741 142.44L148.623 142.18L148.504 141.92L148.383 141.662L148.262 141.404L148.138 141.146L148.013 140.89L147.886 140.634L147.756 140.38L147.625 140.126V143.222H145.75L145.808 136.735Z" fill="url(#paint62_linear_2304_2591)"/>
<path d="M145.808 136.735H147.677L149.046 140.006L149.11 136.735L151.037 136.672V143.222H149.091L148.975 142.961L148.858 142.7L148.741 142.44L148.623 142.18L148.504 141.92L148.383 141.662L148.262 141.404L148.138 141.146L148.013 140.89L147.886 140.634L147.756 140.38L147.625 140.126V143.222H145.75L145.808 136.735Z" fill="url(#paint63_linear_2304_2591)" fill-opacity="0.1"/>
<path d="M155.218 141.547H158.416V140.604H156.239L156.134 140.592L156.021 140.557L155.904 140.501L155.786 140.424L155.669 140.329L155.558 140.217L155.456 140.088L155.364 139.945L155.288 139.789L155.23 139.622L155.192 139.444L155.179 139.258L155.179 139.191L155.178 139.119L155.178 139.046L155.177 138.972L155.176 138.899L155.172 138.597L155.179 138.393L155.203 138.181L155.246 137.964L155.305 137.749L155.382 137.54L155.475 137.343L155.585 137.162L155.711 137.003L155.852 136.87L156.01 136.769L156.183 136.704L156.371 136.682H159.951V138.419L157.255 138.481V139.296H159.369L159.542 139.345L159.688 139.409L159.809 139.488L159.907 139.578L159.986 139.68L160.046 139.79L160.091 139.908L160.123 140.031L160.144 140.159L160.156 140.289L160.163 140.42L160.167 140.55L160.169 141.455L160.172 141.759L160.171 141.946L160.165 142.146L160.15 142.351L160.124 142.554L160.085 142.747L160.029 142.923L159.954 143.072L159.856 143.189L159.733 143.265L159.583 143.292L159.547 143.301L159.478 143.308L159.378 143.311L159.248 143.312L159.091 143.311L158.908 143.309L158.475 143.302L158.229 143.298L157.965 143.294L157.685 143.292L157.392 143.292H155.218V141.547Z" fill="url(#paint64_linear_2304_2591)"/>
<path d="M155.218 141.547H158.416V140.604H156.239L156.134 140.592L156.021 140.557L155.904 140.501L155.786 140.424L155.669 140.329L155.558 140.217L155.456 140.088L155.364 139.945L155.288 139.789L155.23 139.622L155.192 139.444L155.179 139.258L155.179 139.191L155.178 139.119L155.178 139.046L155.177 138.972L155.176 138.899L155.172 138.597L155.179 138.393L155.203 138.181L155.246 137.964L155.305 137.749L155.382 137.54L155.475 137.343L155.585 137.162L155.711 137.003L155.852 136.87L156.01 136.769L156.183 136.704L156.371 136.682H159.951V138.419L157.255 138.481V139.296H159.369L159.542 139.345L159.688 139.409L159.809 139.488L159.907 139.578L159.986 139.68L160.046 139.79L160.091 139.908L160.123 140.031L160.144 140.159L160.156 140.289L160.163 140.42L160.167 140.55L160.169 141.455L160.172 141.759L160.171 141.946L160.165 142.146L160.15 142.351L160.124 142.554L160.085 142.747L160.029 142.923L159.954 143.072L159.856 143.189L159.733 143.265L159.583 143.292L159.547 143.301L159.478 143.308L159.378 143.311L159.248 143.312L159.091 143.311L158.908 143.309L158.475 143.302L158.229 143.298L157.965 143.294L157.685 143.292L157.392 143.292H155.218V141.547Z" fill="url(#paint65_linear_2304_2591)" fill-opacity="0.1"/>
<path d="M163.914 138.426V136.682H168.977V138.426H167.326V143.224H165.345V138.426H163.914Z" fill="url(#paint66_linear_2304_2591)"/>
<path d="M163.914 138.426V136.682H168.977V138.426H167.326V143.224H165.345V138.426H163.914Z" fill="url(#paint67_linear_2304_2591)" fill-opacity="0.1"/>
<path d="M173.875 138.029L174.052 137.714L174.209 137.436L174.343 137.199L174.453 137.005L174.537 136.86L174.592 136.767L174.615 136.73L174.647 136.759L174.721 136.866L174.835 137.052L174.991 137.316L175.189 137.66L175.427 138.082L175.707 138.583L176.029 139.163L176.391 139.821L176.795 140.558L177.24 141.374L178.245 143.223H176.043L174.678 140.817L173.303 143.168L170.98 143.23L173.875 138.029Z" fill="url(#paint68_linear_2304_2591)"/>
<path d="M173.875 138.029L174.052 137.714L174.209 137.436L174.343 137.199L174.453 137.005L174.537 136.86L174.592 136.767L174.615 136.73L174.647 136.759L174.721 136.866L174.835 137.052L174.991 137.316L175.189 137.66L175.427 138.082L175.707 138.583L176.029 139.163L176.391 139.821L176.795 140.558L177.24 141.374L178.245 143.223H176.043L174.678 140.817L173.303 143.168L170.98 143.23L173.875 138.029Z" fill="url(#paint69_linear_2304_2591)" fill-opacity="0.1"/>
<path d="M181.855 136.682H184.167V141.588H186.699V143.224H181.855V136.682Z" fill="url(#paint70_linear_2304_2591)"/>
<path d="M181.855 136.682H184.167V141.588H186.699V143.224H181.855V136.682Z" fill="url(#paint71_linear_2304_2591)" fill-opacity="0.1"/>
<path d="M190.219 143.152L190.235 143.112L190.282 143.017L190.359 142.87L190.462 142.675L190.59 142.436L190.741 142.157L190.912 141.843L191.101 141.497L191.306 141.124L191.525 140.726L191.755 140.309L193.772 136.676L193.903 136.869L193.978 136.994L194.136 137.269L194.364 137.67L194.648 138.171L194.973 138.746L196.053 140.671L196.402 141.294L196.721 141.867L196.996 142.364L197.214 142.759L197.468 143.222H195.209L193.82 140.817L192.469 143.168L191.344 143.199L191.192 143.202L191.046 143.204L190.907 143.205L190.777 143.204L190.657 143.201L190.549 143.198L190.454 143.193L190.373 143.187L190.308 143.18L190.259 143.172L190.229 143.162L190.219 143.152Z" fill="url(#paint72_linear_2304_2591)"/>
<path d="M190.219 143.152L190.235 143.112L190.282 143.017L190.359 142.87L190.462 142.675L190.59 142.436L190.741 142.157L190.912 141.843L191.101 141.497L191.306 141.124L191.525 140.726L191.755 140.309L193.772 136.676L193.903 136.869L193.978 136.994L194.136 137.269L194.364 137.67L194.648 138.171L194.973 138.746L196.053 140.671L196.402 141.294L196.721 141.867L196.996 142.364L197.214 142.759L197.468 143.222H195.209L193.82 140.817L192.469 143.168L191.344 143.199L191.192 143.202L191.046 143.204L190.907 143.205L190.777 143.204L190.657 143.201L190.549 143.198L190.454 143.193L190.373 143.187L190.308 143.18L190.259 143.172L190.229 143.162L190.219 143.152Z" fill="url(#paint73_linear_2304_2591)" fill-opacity="0.1"/>
<path d="M200.508 139.74L200.526 139.459L200.58 139.153L200.668 138.83L200.788 138.499L200.937 138.17L201.114 137.852L201.317 137.554L201.545 137.285L201.794 137.054L202.064 136.87L202.352 136.743L202.656 136.682H205.189V138.395H204.033L204.014 138.394L203.96 138.392L203.876 138.392L203.767 138.394L203.64 138.401L203.499 138.415L203.349 138.437L203.196 138.469L203.045 138.513L202.901 138.572L202.769 138.645L202.656 138.736L202.532 138.883L202.429 139.055L202.348 139.248L202.288 139.457L202.249 139.677L202.231 139.904L202.233 140.132L202.256 140.358L202.299 140.575L202.361 140.781L202.444 140.969L202.546 141.134L202.656 141.27L202.766 141.377L202.88 141.459L202.999 141.519L203.125 141.56L203.26 141.585L203.408 141.598L203.568 141.601L203.745 141.599L203.94 141.593L204.154 141.588L204.391 141.586L205.189 141.588V143.224L202.546 143.223L202.198 143.187L201.885 143.072L201.608 142.888L201.365 142.643L201.155 142.349L200.977 142.016L200.829 141.653L200.71 141.27L200.62 140.877L200.557 140.484L200.52 140.102L200.508 139.74Z" fill="url(#paint74_linear_2304_2591)"/>
<path d="M200.508 139.74L200.526 139.459L200.58 139.153L200.668 138.83L200.788 138.499L200.937 138.17L201.114 137.852L201.317 137.554L201.545 137.285L201.794 137.054L202.064 136.87L202.352 136.743L202.656 136.682H205.189V138.395H204.033L204.014 138.394L203.96 138.392L203.876 138.392L203.767 138.394L203.64 138.401L203.499 138.415L203.349 138.437L203.196 138.469L203.045 138.513L202.901 138.572L202.769 138.645L202.656 138.736L202.532 138.883L202.429 139.055L202.348 139.248L202.288 139.457L202.249 139.677L202.231 139.904L202.233 140.132L202.256 140.358L202.299 140.575L202.361 140.781L202.444 140.969L202.546 141.134L202.656 141.27L202.766 141.377L202.88 141.459L202.999 141.519L203.125 141.56L203.26 141.585L203.408 141.598L203.568 141.601L203.745 141.599L203.94 141.593L204.154 141.588L204.391 141.586L205.189 141.588V143.224L202.546 143.223L202.198 143.187L201.885 143.072L201.608 142.888L201.365 142.643L201.155 142.349L200.977 142.016L200.829 141.653L200.71 141.27L200.62 140.877L200.557 140.484L200.52 140.102L200.508 139.74Z" fill="url(#paint75_linear_2304_2591)" fill-opacity="0.1"/>
<path d="M209.043 141.596L210.859 141.533L210.92 138.426H209.043V136.676L212.73 136.736L212.763 138.971L212.767 139.277L212.769 139.58L212.771 139.875L212.771 140.16L212.769 140.431L212.767 140.685L212.763 140.919L212.758 141.129L212.752 141.313L212.746 141.466L212.738 141.586L212.729 141.669L212.711 141.775L212.688 141.879L212.659 141.982L212.625 142.082L212.584 142.181L212.538 142.276L212.485 142.368L212.426 142.457L212.361 142.542L212.288 142.622L212.209 142.697L212.122 142.767L211.982 142.858L211.828 142.934L211.662 142.996L211.488 143.046L211.307 143.085L211.121 143.115L210.934 143.138L210.748 143.155L210.565 143.167L210.388 143.177L210.219 143.185L210.061 143.193L209.043 143.253V141.596Z" fill="url(#paint76_linear_2304_2591)"/>
<path d="M209.043 141.596L210.859 141.533L210.92 138.426H209.043V136.676L212.73 136.736L212.763 138.971L212.767 139.277L212.769 139.58L212.771 139.875L212.771 140.16L212.769 140.431L212.767 140.685L212.763 140.919L212.758 141.129L212.752 141.313L212.746 141.466L212.738 141.586L212.729 141.669L212.711 141.775L212.688 141.879L212.659 141.982L212.625 142.082L212.584 142.181L212.538 142.276L212.485 142.368L212.426 142.457L212.361 142.542L212.288 142.622L212.209 142.697L212.122 142.767L211.982 142.858L211.828 142.934L211.662 142.996L211.488 143.046L211.307 143.085L211.121 143.115L210.934 143.138L210.748 143.155L210.565 143.167L210.388 143.177L210.219 143.185L210.061 143.193L209.043 143.253V141.596Z" fill="url(#paint77_linear_2304_2591)" fill-opacity="0.1"/>
<path d="M220.929 136.682V138.426H218.508V139.407H220.586V140.716H218.508V141.588H220.929V143.224H216.637V136.682H220.929Z" fill="url(#paint78_linear_2304_2591)"/>
<path d="M220.929 136.682V138.426H218.508V139.407H220.586V140.716H218.508V141.588H220.929V143.224H216.637V136.682H220.929Z" fill="url(#paint79_linear_2304_2591)" fill-opacity="0.1"/>
<path d="M231.332 136.735L233.203 136.676L234.524 139.897L234.634 136.735L236.56 136.672V143.222H234.62L233.982 141.778L233.895 141.581L233.809 141.391L233.727 141.209L233.647 141.036L233.572 140.875L233.503 140.727L233.439 140.595L233.383 140.48L233.334 140.384L233.295 140.309L233.265 140.257L233.246 140.229L233.148 140.126V143.222H231.273L231.332 136.735Z" fill="url(#paint80_linear_2304_2591)"/>
<path d="M231.332 136.735L233.203 136.676L234.524 139.897L234.634 136.735L236.56 136.672V143.222H234.62L233.982 141.778L233.895 141.581L233.809 141.391L233.727 141.209L233.647 141.036L233.572 140.875L233.503 140.727L233.439 140.595L233.383 140.48L233.334 140.384L233.295 140.309L233.265 140.257L233.246 140.229L233.148 140.126V143.222H231.273L231.332 136.735Z" fill="url(#paint81_linear_2304_2591)" fill-opacity="0.1"/>
<path d="M240.414 143.18L240.483 143.03L240.675 142.669L240.965 142.139L241.328 141.484L241.742 140.745L242.181 139.967L242.621 139.191L243.039 138.46L243.41 137.817L243.71 137.305L243.914 136.966L243.999 136.844L244.026 136.873L244.084 136.957L244.171 137.093L244.284 137.277L244.421 137.505L244.579 137.773L244.758 138.077L244.954 138.413L245.164 138.778L245.388 139.168L245.622 139.578L245.864 140.006L247.649 143.168L246.654 143.199L246.518 143.203L246.386 143.206L246.257 143.208L246.135 143.209L246.02 143.208L245.913 143.207L245.817 143.205L245.732 143.202L245.659 143.199L245.6 143.194L245.557 143.188L245.53 143.182L245.507 143.165L245.474 143.13L245.43 143.076L245.379 143.007L245.319 142.922L245.253 142.824L245.181 142.714L245.104 142.593L245.024 142.463L244.94 142.326L244.854 142.181L244.767 142.032L244.68 141.883L244.596 141.738L244.514 141.6L244.436 141.47L244.363 141.35L244.295 141.24L244.234 141.142L244.18 141.058L244.134 140.988L244.097 140.935L244.07 140.899L244.053 140.882L244.037 140.887L244.008 140.912L243.969 140.958L243.92 141.022L243.862 141.103L243.796 141.199L243.723 141.31L243.645 141.434L243.561 141.568L243.473 141.714L243.381 141.867L243.288 142.028L242.6 143.222H241.507L241.359 143.222L241.217 143.221L241.083 143.219L240.956 143.216L240.84 143.213L240.735 143.21L240.642 143.206L240.564 143.201L240.5 143.196L240.453 143.191L240.424 143.186L240.414 143.18Z" fill="url(#paint82_linear_2304_2591)"/>
<path d="M240.414 143.18L240.483 143.03L240.675 142.669L240.965 142.139L241.328 141.484L241.742 140.745L242.181 139.967L242.621 139.191L243.039 138.46L243.41 137.817L243.71 137.305L243.914 136.966L243.999 136.844L244.026 136.873L244.084 136.957L244.171 137.093L244.284 137.277L244.421 137.505L244.579 137.773L244.758 138.077L244.954 138.413L245.164 138.778L245.388 139.168L245.622 139.578L245.864 140.006L247.649 143.168L246.654 143.199L246.518 143.203L246.386 143.206L246.257 143.208L246.135 143.209L246.02 143.208L245.913 143.207L245.817 143.205L245.732 143.202L245.659 143.199L245.6 143.194L245.557 143.188L245.53 143.182L245.507 143.165L245.474 143.13L245.43 143.076L245.379 143.007L245.319 142.922L245.253 142.824L245.181 142.714L245.104 142.593L245.024 142.463L244.94 142.326L244.854 142.181L244.767 142.032L244.68 141.883L244.596 141.738L244.514 141.6L244.436 141.47L244.363 141.35L244.295 141.24L244.234 141.142L244.18 141.058L244.134 140.988L244.097 140.935L244.07 140.899L244.053 140.882L244.037 140.887L244.008 140.912L243.969 140.958L243.92 141.022L243.862 141.103L243.796 141.199L243.723 141.31L243.645 141.434L243.561 141.568L243.473 141.714L243.381 141.867L243.288 142.028L242.6 143.222H241.507L241.359 143.222L241.217 143.221L241.083 143.219L240.956 143.216L240.84 143.213L240.735 143.21L240.642 143.206L240.564 143.201L240.5 143.196L240.453 143.191L240.424 143.186L240.414 143.18Z" fill="url(#paint83_linear_2304_2591)" fill-opacity="0.1"/>
<path d="M257.691 136.682H260.003V138.629V138.897L260.005 139.163L260.008 139.425L260.012 139.679L260.017 139.923L260.023 140.153L260.03 140.367L260.038 140.561L260.045 140.732L260.054 140.878L260.064 140.996L260.073 141.082L260.142 141.588H262.534V143.224H257.691V136.682Z" fill="url(#paint84_linear_2304_2591)"/>
<path d="M257.691 136.682H260.003V138.629V138.897L260.005 139.163L260.008 139.425L260.012 139.679L260.017 139.923L260.023 140.153L260.03 140.367L260.038 140.561L260.045 140.732L260.054 140.878L260.064 140.996L260.073 141.082L260.142 141.588H262.534V143.224H257.691V136.682Z" fill="url(#paint85_linear_2304_2591)" fill-opacity="0.1"/>
<path d="M265.868 143.087L265.979 142.862L266.195 142.457L266.496 141.911L266.86 141.26L267.263 140.543L267.687 139.798L268.108 139.064L268.505 138.377L268.856 137.777L269.139 137.302L269.333 136.988L269.415 136.875L269.445 136.904L269.506 136.988L269.595 137.123L269.709 137.306L269.847 137.532L270.007 137.799L270.187 138.101L270.382 138.436L270.593 138.799L270.817 139.187L271.049 139.596L271.291 140.021L273.066 143.169L272.073 143.201L271.939 143.204L271.806 143.207L271.678 143.209L271.555 143.209L271.44 143.209L271.334 143.208L271.237 143.205L271.15 143.202L271.076 143.198L271.017 143.193L270.973 143.187L270.946 143.181L270.923 143.164L270.888 143.128L270.844 143.074L270.792 143.004L270.733 142.92L270.665 142.822L270.594 142.712L270.518 142.591L270.437 142.461L270.354 142.324L270.269 142.18L270.183 142.031L270.097 141.881L270.014 141.738L269.932 141.6L269.856 141.47L269.784 141.35L269.717 141.24L269.656 141.143L269.601 141.059L269.556 140.989L269.52 140.936L269.493 140.9L269.476 140.884L269.459 140.888L269.431 140.914L269.391 140.959L269.342 141.023L269.283 141.104L269.218 141.201L269.144 141.311L269.065 141.435L268.981 141.57L268.892 141.715L268.8 141.869L268.706 142.03L268.011 143.224H265.812L265.868 143.087Z" fill="url(#paint86_linear_2304_2591)"/>
<path d="M265.868 143.087L265.979 142.862L266.195 142.457L266.496 141.911L266.86 141.26L267.263 140.543L267.687 139.798L268.108 139.064L268.505 138.377L268.856 137.777L269.139 137.302L269.333 136.988L269.415 136.875L269.445 136.904L269.506 136.988L269.595 137.123L269.709 137.306L269.847 137.532L270.007 137.799L270.187 138.101L270.382 138.436L270.593 138.799L270.817 139.187L271.049 139.596L271.291 140.021L273.066 143.169L272.073 143.201L271.939 143.204L271.806 143.207L271.678 143.209L271.555 143.209L271.44 143.209L271.334 143.208L271.237 143.205L271.15 143.202L271.076 143.198L271.017 143.193L270.973 143.187L270.946 143.181L270.923 143.164L270.888 143.128L270.844 143.074L270.792 143.004L270.733 142.92L270.665 142.822L270.594 142.712L270.518 142.591L270.437 142.461L270.354 142.324L270.269 142.18L270.183 142.031L270.097 141.881L270.014 141.738L269.932 141.6L269.856 141.47L269.784 141.35L269.717 141.24L269.656 141.143L269.601 141.059L269.556 140.989L269.52 140.936L269.493 140.9L269.476 140.884L269.459 140.888L269.431 140.914L269.391 140.959L269.342 141.023L269.283 141.104L269.218 141.201L269.144 141.311L269.065 141.435L268.981 141.57L268.892 141.715L268.8 141.869L268.706 142.03L268.011 143.224H265.812L265.868 143.087Z" fill="url(#paint87_linear_2304_2591)" fill-opacity="0.1"/>
<path d="M275.184 138.426L275.248 136.736L280.366 136.678V138.426H278.715V143.224H276.624V138.426H275.184Z" fill="url(#paint88_linear_2304_2591)"/>
<path d="M275.184 138.426L275.248 136.736L280.366 136.678V138.426H278.715V143.224H276.624V138.426H275.184Z" fill="url(#paint89_linear_2304_2591)" fill-opacity="0.1"/>
<path d="M283.851 140.722L284.271 139.966L284.647 139.293L284.978 138.701L285.266 138.19L285.51 137.76L285.712 137.41L285.87 137.138L285.986 136.945L286.061 136.829L286.095 136.791L286.174 136.91L286.371 137.241L286.664 137.741L287.027 138.371L287.439 139.089L287.876 139.853L288.313 140.624L288.729 141.36L289.1 142.019L289.402 142.562L289.611 142.945L289.704 143.13L289.742 143.223H287.549L286.154 140.809L286.008 141.006L285.984 141.042L285.949 141.094L285.906 141.162L285.857 141.243L285.8 141.337L285.737 141.441L285.669 141.555L285.598 141.676L285.523 141.804L285.446 141.937L285.368 142.073L285.288 142.211L284.714 143.218L282.465 143.223L283.851 140.722Z" fill="url(#paint90_linear_2304_2591)"/>
<path d="M283.851 140.722L284.271 139.966L284.647 139.293L284.978 138.701L285.266 138.19L285.51 137.76L285.712 137.41L285.87 137.138L285.986 136.945L286.061 136.829L286.095 136.791L286.174 136.91L286.371 137.241L286.664 137.741L287.027 138.371L287.439 139.089L287.876 139.853L288.313 140.624L288.729 141.36L289.1 142.019L289.402 142.562L289.611 142.945L289.704 143.13L289.742 143.223H287.549L286.154 140.809L286.008 141.006L285.984 141.042L285.949 141.094L285.906 141.162L285.857 141.243L285.8 141.337L285.737 141.441L285.669 141.555L285.598 141.676L285.523 141.804L285.446 141.937L285.368 142.073L285.288 142.211L284.714 143.218L282.465 143.223L283.851 140.722Z" fill="url(#paint91_linear_2304_2591)" fill-opacity="0.1"/>
</g>
</g>
<defs>
<filter id="filter0_d_2304_2591" x="120.07" y="79.3884" width="203.453" height="78.6364" filterUnits="userSpaceOnUse" color-interpolation-filters="sRGB">
<feFlood flood-opacity="0" result="BackgroundImageFix"/>
<feColorMatrix in="SourceAlpha" type="matrix" values="0 0 0 0 0 0 0 0 0 0 0 0 0 0 0 0 0 0 127 0" result="hardAlpha"/>
<feOffset dx="6.80034" dy="6.80034"/>
<feGaussianBlur stdDeviation="11.3339"/>
<feComposite in2="hardAlpha" operator="out"/>
<feColorMatrix type="matrix" values="0 0 0 0 0 0 0 0 0 0 0 0 0 0 0 0 0 0 0.25 0"/>
<feBlend mode="normal" in2="BackgroundImageFix" result="effect1_dropShadow_2304_2591"/>
<feBlend mode="normal" in="SourceGraphic" in2="effect1_dropShadow_2304_2591" result="shape"/>
</filter>
<linearGradient id="paint0_linear_2304_2591" x1="301.631" y1="101.191" x2="127.649" y2="101.191" gradientUnits="userSpaceOnUse">
<stop stop-color="#EE940C"/>
<stop offset="0.463542" stop-color="#FFC800"/>
<stop offset="1" stop-color="#FFF851"/>
</linearGradient>
<linearGradient id="paint1_linear_2304_2591" x1="214.64" y1="36.7666" x2="214.64" y2="192.753" gradientUnits="userSpaceOnUse">
<stop stop-opacity="0"/>
<stop offset="1"/>
</linearGradient>
<linearGradient id="paint2_linear_2304_2591" x1="214.64" y1="36.7666" x2="214.64" y2="192.753" gradientUnits="userSpaceOnUse">
<stop offset="0.078125" stop-color="white" stop-opacity="0"/>
<stop offset="0.479167" stop-color="white"/>
<stop offset="0.651042" stop-color="white" stop-opacity="0"/>
<stop offset="1" stop-color="white" stop-opacity="0"/>
</linearGradient>
<linearGradient id="paint3_linear_2304_2591" x1="301.982" y1="101.438" x2="128" y2="101.438" gradientUnits="userSpaceOnUse">
<stop stop-color="#EE940C"/>
<stop offset="0.463542" stop-color="#FFC800"/>
<stop offset="1" stop-color="#FFF851"/>
</linearGradient>
<linearGradient id="paint4_linear_2304_2591" x1="214.991" y1="37.0137" x2="214.991" y2="193.001" gradientUnits="userSpaceOnUse">
<stop stop-opacity="0"/>
<stop offset="1"/>
</linearGradient>
<linearGradient id="paint5_linear_2304_2591" x1="214.991" y1="37.0137" x2="214.991" y2="193.001" gradientUnits="userSpaceOnUse">
<stop offset="0.078125" stop-color="white" stop-opacity="0"/>
<stop offset="0.479167" stop-color="white"/>
<stop offset="0.651042" stop-color="white" stop-opacity="0"/>
<stop offset="1" stop-color="white" stop-opacity="0"/>
</linearGradient>
<linearGradient id="paint6_linear_2304_2591" x1="160.232" y1="157.693" x2="180.929" y2="148.261" gradientUnits="userSpaceOnUse">
<stop stop-color="#FFF851" stop-opacity="0"/>
<stop offset="0.451569" stop-color="#FFF851"/>
<stop offset="1" stop-color="#FFF851" stop-opacity="0"/>
</linearGradient>
<linearGradient id="paint7_linear_2304_2591" x1="137.1" y1="128.557" x2="294.055" y2="128.557" gradientUnits="userSpaceOnUse">
<stop/>
<stop offset="1" stop-color="#383838"/>
</linearGradient>
<linearGradient id="paint8_linear_2304_2591" x1="137.099" y1="128.557" x2="294.053" y2="128.557" gradientUnits="userSpaceOnUse">
<stop/>
<stop offset="1" stop-color="#383838"/>
</linearGradient>
<linearGradient id="paint9_linear_2304_2591" x1="137.099" y1="128.557" x2="294.054" y2="128.557" gradientUnits="userSpaceOnUse">
<stop/>
<stop offset="1" stop-color="#383838"/>
</linearGradient>
<linearGradient id="paint10_linear_2304_2591" x1="137.099" y1="128.557" x2="294.054" y2="128.557" gradientUnits="userSpaceOnUse">
<stop/>
<stop offset="1" stop-color="#383838"/>
</linearGradient>
<linearGradient id="paint11_linear_2304_2591" x1="137.102" y1="128.557" x2="294.056" y2="128.557" gradientUnits="userSpaceOnUse">
<stop/>
<stop offset="1" stop-color="#383838"/>
</linearGradient>
<linearGradient id="paint12_linear_2304_2591" x1="137.1" y1="128.557" x2="294.054" y2="128.557" gradientUnits="userSpaceOnUse">
<stop/>
<stop offset="1" stop-color="#383838"/>
</linearGradient>
<linearGradient id="paint13_linear_2304_2591" x1="135.938" y1="128.557" x2="294.055" y2="128.557" gradientUnits="userSpaceOnUse">
<stop stop-color="#454545"/>
<stop offset="1"/>
</linearGradient>
<linearGradient id="paint14_linear_2304_2591" x1="214.996" y1="95.2559" x2="214.996" y2="128.557" gradientUnits="userSpaceOnUse">
<stop stop-opacity="0"/>
<stop offset="1"/>
</linearGradient>
<linearGradient id="paint15_linear_2304_2591" x1="214.996" y1="95.2559" x2="214.996" y2="128.557" gradientUnits="userSpaceOnUse">
<stop offset="0.078125" stop-color="#ACACAC" stop-opacity="0"/>
<stop offset="0.46875" stop-color="#ACACAC"/>
<stop offset="0.802083" stop-color="#ACACAC" stop-opacity="0"/>
<stop offset="1" stop-color="white" stop-opacity="0"/>
</linearGradient>
<linearGradient id="paint16_linear_2304_2591" x1="135.935" y1="128.557" x2="294.052" y2="128.557" gradientUnits="userSpaceOnUse">
<stop stop-color="#454545"/>
<stop offset="1"/>
</linearGradient>
<linearGradient id="paint17_linear_2304_2591" x1="214.993" y1="95.2559" x2="214.993" y2="128.557" gradientUnits="userSpaceOnUse">
<stop stop-opacity="0"/>
<stop offset="1"/>
</linearGradient>
<linearGradient id="paint18_linear_2304_2591" x1="214.993" y1="95.2559" x2="214.993" y2="128.557" gradientUnits="userSpaceOnUse">
<stop offset="0.078125" stop-color="#ACACAC" stop-opacity="0"/>
<stop offset="0.46875" stop-color="#ACACAC"/>
<stop offset="0.802083" stop-color="#ACACAC" stop-opacity="0"/>
<stop offset="1" stop-color="white" stop-opacity="0"/>
</linearGradient>
<linearGradient id="paint19_linear_2304_2591" x1="135.937" y1="128.557" x2="294.054" y2="128.557" gradientUnits="userSpaceOnUse">
<stop stop-color="#454545"/>
<stop offset="1"/>
</linearGradient>
<linearGradient id="paint20_linear_2304_2591" x1="214.995" y1="95.2559" x2="214.995" y2="128.557" gradientUnits="userSpaceOnUse">
<stop stop-opacity="0"/>
<stop offset="1"/>
</linearGradient>
<linearGradient id="paint21_linear_2304_2591" x1="214.995" y1="95.2559" x2="214.995" y2="128.557" gradientUnits="userSpaceOnUse">
<stop offset="0.078125" stop-color="#ACACAC" stop-opacity="0"/>
<stop offset="0.46875" stop-color="#ACACAC"/>
<stop offset="0.802083" stop-color="#ACACAC" stop-opacity="0"/>
<stop offset="1" stop-color="white" stop-opacity="0"/>
</linearGradient>
<linearGradient id="paint22_linear_2304_2591" x1="135.937" y1="128.557" x2="294.054" y2="128.557" gradientUnits="userSpaceOnUse">
<stop stop-color="#454545"/>
<stop offset="1"/>
</linearGradient>
<linearGradient id="paint23_linear_2304_2591" x1="214.995" y1="95.2559" x2="214.995" y2="128.557" gradientUnits="userSpaceOnUse">
<stop stop-opacity="0"/>
<stop offset="1"/>
</linearGradient>
<linearGradient id="paint24_linear_2304_2591" x1="214.995" y1="95.2559" x2="214.995" y2="128.557" gradientUnits="userSpaceOnUse">
<stop offset="0.078125" stop-color="#ACACAC" stop-opacity="0"/>
<stop offset="0.46875" stop-color="#ACACAC"/>
<stop offset="0.802083" stop-color="#ACACAC" stop-opacity="0"/>
<stop offset="1" stop-color="white" stop-opacity="0"/>
</linearGradient>
<linearGradient id="paint25_linear_2304_2591" x1="135.937" y1="128.557" x2="294.054" y2="128.557" gradientUnits="userSpaceOnUse">
<stop stop-color="#454545"/>
<stop offset="1"/>
</linearGradient>
<linearGradient id="paint26_linear_2304_2591" x1="214.996" y1="95.2559" x2="214.996" y2="128.557" gradientUnits="userSpaceOnUse">
<stop stop-opacity="0"/>
<stop offset="1"/>
</linearGradient>
<linearGradient id="paint27_linear_2304_2591" x1="214.996" y1="95.2559" x2="214.996" y2="128.557" gradientUnits="userSpaceOnUse">
<stop offset="0.078125" stop-color="#ACACAC" stop-opacity="0"/>
<stop offset="0.46875" stop-color="#ACACAC"/>
<stop offset="0.802083" stop-color="#ACACAC" stop-opacity="0"/>
<stop offset="1" stop-color="white" stop-opacity="0"/>
</linearGradient>
<linearGradient id="paint28_linear_2304_2591" x1="135.935" y1="128.557" x2="294.052" y2="128.557" gradientUnits="userSpaceOnUse">
<stop stop-color="#454545"/>
<stop offset="1"/>
</linearGradient>
<linearGradient id="paint29_linear_2304_2591" x1="214.994" y1="95.2559" x2="214.994" y2="128.557" gradientUnits="userSpaceOnUse">
<stop stop-opacity="0"/>
<stop offset="1"/>
</linearGradient>
<linearGradient id="paint30_linear_2304_2591" x1="214.994" y1="95.2559" x2="214.994" y2="128.557" gradientUnits="userSpaceOnUse">
<stop offset="0.078125" stop-color="#ACACAC" stop-opacity="0"/>
<stop offset="0.46875" stop-color="#ACACAC"/>
<stop offset="0.802083" stop-color="#ACACAC" stop-opacity="0"/>
<stop offset="1" stop-color="white" stop-opacity="0"/>
</linearGradient>
<linearGradient id="paint31_linear_2304_2591" x1="141.333" y1="143.3" x2="287.551" y2="143.3" gradientUnits="userSpaceOnUse">
<stop/>
<stop offset="1" stop-color="#383838"/>
</linearGradient>
<linearGradient id="paint32_linear_2304_2591" x1="141.333" y1="143.3" x2="287.551" y2="143.3" gradientUnits="userSpaceOnUse">
<stop/>
<stop offset="1" stop-color="#383838"/>
</linearGradient>
<linearGradient id="paint33_linear_2304_2591" x1="141.333" y1="143.302" x2="287.551" y2="143.302" gradientUnits="userSpaceOnUse">
<stop/>
<stop offset="1" stop-color="#383838"/>
</linearGradient>
<linearGradient id="paint34_linear_2304_2591" x1="141.332" y1="143.302" x2="287.55" y2="143.302" gradientUnits="userSpaceOnUse">
<stop/>
<stop offset="1" stop-color="#383838"/>
</linearGradient>
<linearGradient id="paint35_linear_2304_2591" x1="141.333" y1="143.301" x2="287.551" y2="143.301" gradientUnits="userSpaceOnUse">
<stop/>
<stop offset="1" stop-color="#383838"/>
</linearGradient>
<linearGradient id="paint36_linear_2304_2591" x1="141.332" y1="143.302" x2="287.55" y2="143.302" gradientUnits="userSpaceOnUse">
<stop/>
<stop offset="1" stop-color="#383838"/>
</linearGradient>
<linearGradient id="paint37_linear_2304_2591" x1="141.332" y1="143.3" x2="287.55" y2="143.3" gradientUnits="userSpaceOnUse">
<stop/>
<stop offset="1" stop-color="#383838"/>
</linearGradient>
<linearGradient id="paint38_linear_2304_2591" x1="141.333" y1="143.3" x2="287.551" y2="143.3" gradientUnits="userSpaceOnUse">
<stop/>
<stop offset="1" stop-color="#383838"/>
</linearGradient>
<linearGradient id="paint39_linear_2304_2591" x1="141.334" y1="143.302" x2="287.552" y2="143.302" gradientUnits="userSpaceOnUse">
<stop/>
<stop offset="1" stop-color="#383838"/>
</linearGradient>
<linearGradient id="paint40_linear_2304_2591" x1="141.331" y1="143.301" x2="287.549" y2="143.301" gradientUnits="userSpaceOnUse">
<stop/>
<stop offset="1" stop-color="#383838"/>
</linearGradient>
<linearGradient id="paint41_linear_2304_2591" x1="141.333" y1="143.301" x2="287.551" y2="143.301" gradientUnits="userSpaceOnUse">
<stop/>
<stop offset="1" stop-color="#383838"/>
</linearGradient>
<linearGradient id="paint42_linear_2304_2591" x1="141.333" y1="143.302" x2="287.55" y2="143.302" gradientUnits="userSpaceOnUse">
<stop/>
<stop offset="1" stop-color="#383838"/>
</linearGradient>
<linearGradient id="paint43_linear_2304_2591" x1="141.332" y1="143.3" x2="287.551" y2="143.3" gradientUnits="userSpaceOnUse">
<stop/>
<stop offset="1" stop-color="#383838"/>
</linearGradient>
<linearGradient id="paint44_linear_2304_2591" x1="141.333" y1="143.3" x2="287.551" y2="143.3" gradientUnits="userSpaceOnUse">
<stop/>
<stop offset="1" stop-color="#383838"/>
</linearGradient>
<linearGradient id="paint45_linear_2304_2591" x1="141.331" y1="143.302" x2="287.549" y2="143.302" gradientUnits="userSpaceOnUse">
<stop/>
<stop offset="1" stop-color="#383838"/>
</linearGradient>
<linearGradient id="paint46_linear_2304_2591" x1="141.33" y1="143.3" x2="287.548" y2="143.3" gradientUnits="userSpaceOnUse">
<stop/>
<stop offset="1" stop-color="#383838"/>
</linearGradient>
<linearGradient id="paint47_linear_2304_2591" x1="141.334" y1="143.301" x2="287.552" y2="143.301" gradientUnits="userSpaceOnUse">
<stop/>
<stop offset="1" stop-color="#383838"/>
</linearGradient>
<linearGradient id="paint48_linear_2304_2591" x1="141.333" y1="143.3" x2="287.552" y2="143.3" gradientUnits="userSpaceOnUse">
<stop/>
<stop offset="1" stop-color="#383838"/>
</linearGradient>
<linearGradient id="paint49_linear_2304_2591" x1="141.332" y1="143.3" x2="287.55" y2="143.3" gradientUnits="userSpaceOnUse">
<stop/>
<stop offset="1" stop-color="#383838"/>
</linearGradient>
<linearGradient id="paint50_linear_2304_2591" x1="141.332" y1="143.301" x2="287.55" y2="143.301" gradientUnits="userSpaceOnUse">
<stop/>
<stop offset="1" stop-color="#383838"/>
</linearGradient>
<linearGradient id="paint51_linear_2304_2591" x1="141.331" y1="143.3" x2="287.549" y2="143.3" gradientUnits="userSpaceOnUse">
<stop/>
<stop offset="1" stop-color="#383838"/>
</linearGradient>
<linearGradient id="paint52_linear_2304_2591" x1="141.334" y1="143.302" x2="287.552" y2="143.302" gradientUnits="userSpaceOnUse">
<stop/>
<stop offset="1" stop-color="#383838"/>
</linearGradient>
<linearGradient id="paint53_linear_2304_2591" x1="141.333" y1="143.3" x2="287.551" y2="143.3" gradientUnits="userSpaceOnUse">
<stop/>
<stop offset="1" stop-color="#383838"/>
</linearGradient>
<linearGradient id="paint54_linear_2304_2591" x1="141.334" y1="143.3" x2="287.552" y2="143.3" gradientUnits="userSpaceOnUse">
<stop/>
<stop offset="1" stop-color="#383838"/>
</linearGradient>
<linearGradient id="paint55_linear_2304_2591" x1="141.331" y1="143.301" x2="287.549" y2="143.301" gradientUnits="userSpaceOnUse">
<stop/>
<stop offset="1" stop-color="#383838"/>
</linearGradient>
<linearGradient id="paint56_linear_2304_2591" x1="141.334" y1="143.301" x2="287.551" y2="143.301" gradientUnits="userSpaceOnUse">
<stop/>
<stop offset="1" stop-color="#383838"/>
</linearGradient>
<linearGradient id="paint57_linear_2304_2591" x1="141.332" y1="143.3" x2="287.551" y2="143.3" gradientUnits="userSpaceOnUse">
<stop/>
<stop offset="1" stop-color="#383838"/>
</linearGradient>
<linearGradient id="paint58_linear_2304_2591" x1="141.331" y1="143.3" x2="287.549" y2="143.3" gradientUnits="userSpaceOnUse">
<stop/>
<stop offset="1" stop-color="#383838"/>
</linearGradient>
<linearGradient id="paint59_linear_2304_2591" x1="141.332" y1="143.3" x2="287.55" y2="143.3" gradientUnits="userSpaceOnUse">
<stop/>
<stop offset="1" stop-color="#383838"/>
</linearGradient>
<linearGradient id="paint60_linear_2304_2591" x1="140.25" y1="143.31" x2="289.744" y2="143.31" gradientUnits="userSpaceOnUse">
<stop stop-color="#454545"/>
<stop offset="1"/>
</linearGradient>
<linearGradient id="paint61_linear_2304_2591" x1="214.997" y1="136.672" x2="214.997" y2="143.31" gradientUnits="userSpaceOnUse">
<stop stop-opacity="0"/>
<stop offset="1"/>
</linearGradient>
<linearGradient id="paint62_linear_2304_2591" x1="140.25" y1="143.311" x2="289.744" y2="143.311" gradientUnits="userSpaceOnUse">
<stop stop-color="#454545"/>
<stop offset="1"/>
</linearGradient>
<linearGradient id="paint63_linear_2304_2591" x1="214.996" y1="136.672" x2="214.996" y2="143.311" gradientUnits="userSpaceOnUse">
<stop stop-opacity="0"/>
<stop offset="1"/>
</linearGradient>
<linearGradient id="paint64_linear_2304_2591" x1="140.249" y1="143.312" x2="289.743" y2="143.312" gradientUnits="userSpaceOnUse">
<stop stop-color="#454545"/>
<stop offset="1"/>
</linearGradient>
<linearGradient id="paint65_linear_2304_2591" x1="214.996" y1="136.673" x2="214.996" y2="143.312" gradientUnits="userSpaceOnUse">
<stop stop-opacity="0"/>
<stop offset="1"/>
</linearGradient>
<linearGradient id="paint66_linear_2304_2591" x1="140.249" y1="143.312" x2="289.743" y2="143.312" gradientUnits="userSpaceOnUse">
<stop stop-color="#454545"/>
<stop offset="1"/>
</linearGradient>
<linearGradient id="paint67_linear_2304_2591" x1="214.996" y1="136.673" x2="214.996" y2="143.312" gradientUnits="userSpaceOnUse">
<stop stop-opacity="0"/>
<stop offset="1"/>
</linearGradient>
<linearGradient id="paint68_linear_2304_2591" x1="140.251" y1="143.311" x2="289.744" y2="143.311" gradientUnits="userSpaceOnUse">
<stop stop-color="#454545"/>
<stop offset="1"/>
</linearGradient>
<linearGradient id="paint69_linear_2304_2591" x1="214.997" y1="136.672" x2="214.997" y2="143.311" gradientUnits="userSpaceOnUse">
<stop stop-opacity="0"/>
<stop offset="1"/>
</linearGradient>
<linearGradient id="paint70_linear_2304_2591" x1="140.249" y1="143.312" x2="289.743" y2="143.312" gradientUnits="userSpaceOnUse">
<stop stop-color="#454545"/>
<stop offset="1"/>
</linearGradient>
<linearGradient id="paint71_linear_2304_2591" x1="214.996" y1="136.673" x2="214.996" y2="143.312" gradientUnits="userSpaceOnUse">
<stop stop-opacity="0"/>
<stop offset="1"/>
</linearGradient>
<linearGradient id="paint72_linear_2304_2591" x1="140.247" y1="143.31" x2="289.741" y2="143.31" gradientUnits="userSpaceOnUse">
<stop stop-color="#454545"/>
<stop offset="1"/>
</linearGradient>
<linearGradient id="paint73_linear_2304_2591" x1="214.994" y1="136.672" x2="214.994" y2="143.31" gradientUnits="userSpaceOnUse">
<stop stop-opacity="0"/>
<stop offset="1"/>
</linearGradient>
<linearGradient id="paint74_linear_2304_2591" x1="140.248" y1="143.312" x2="289.742" y2="143.312" gradientUnits="userSpaceOnUse">
<stop stop-color="#454545"/>
<stop offset="1"/>
</linearGradient>
<linearGradient id="paint75_linear_2304_2591" x1="214.995" y1="136.673" x2="214.995" y2="143.312" gradientUnits="userSpaceOnUse">
<stop stop-opacity="0"/>
<stop offset="1"/>
</linearGradient>
<linearGradient id="paint76_linear_2304_2591" x1="140.249" y1="143.311" x2="289.743" y2="143.311" gradientUnits="userSpaceOnUse">
<stop stop-color="#454545"/>
<stop offset="1"/>
</linearGradient>
<linearGradient id="paint77_linear_2304_2591" x1="214.996" y1="136.673" x2="214.996" y2="143.311" gradientUnits="userSpaceOnUse">
<stop stop-opacity="0"/>
<stop offset="1"/>
</linearGradient>
<linearGradient id="paint78_linear_2304_2591" x1="140.248" y1="143.312" x2="289.742" y2="143.312" gradientUnits="userSpaceOnUse">
<stop stop-color="#454545"/>
<stop offset="1"/>
</linearGradient>
<linearGradient id="paint79_linear_2304_2591" x1="214.995" y1="136.673" x2="214.995" y2="143.312" gradientUnits="userSpaceOnUse">
<stop stop-opacity="0"/>
<stop offset="1"/>
</linearGradient>
<linearGradient id="paint80_linear_2304_2591" x1="140.249" y1="143.311" x2="289.743" y2="143.311" gradientUnits="userSpaceOnUse">
<stop stop-color="#454545"/>
<stop offset="1"/>
</linearGradient>
<linearGradient id="paint81_linear_2304_2591" x1="214.996" y1="136.672" x2="214.996" y2="143.311" gradientUnits="userSpaceOnUse">
<stop stop-opacity="0"/>
<stop offset="1"/>
</linearGradient>
<linearGradient id="paint82_linear_2304_2591" x1="140.251" y1="143.31" x2="289.744" y2="143.31" gradientUnits="userSpaceOnUse">
<stop stop-color="#454545"/>
<stop offset="1"/>
</linearGradient>
<linearGradient id="paint83_linear_2304_2591" x1="214.997" y1="136.672" x2="214.997" y2="143.31" gradientUnits="userSpaceOnUse">
<stop stop-opacity="0"/>
<stop offset="1"/>
</linearGradient>
<linearGradient id="paint84_linear_2304_2591" x1="140.247" y1="143.312" x2="289.74" y2="143.312" gradientUnits="userSpaceOnUse">
<stop stop-color="#454545"/>
<stop offset="1"/>
</linearGradient>
<linearGradient id="paint85_linear_2304_2591" x1="214.993" y1="136.673" x2="214.993" y2="143.312" gradientUnits="userSpaceOnUse">
<stop stop-opacity="0"/>
<stop offset="1"/>
</linearGradient>
<linearGradient id="paint86_linear_2304_2591" x1="140.247" y1="143.312" x2="289.741" y2="143.312" gradientUnits="userSpaceOnUse">
<stop stop-color="#454545"/>
<stop offset="1"/>
</linearGradient>
<linearGradient id="paint87_linear_2304_2591" x1="214.994" y1="136.673" x2="214.994" y2="143.312" gradientUnits="userSpaceOnUse">
<stop stop-opacity="0"/>
<stop offset="1"/>
</linearGradient>
<linearGradient id="paint88_linear_2304_2591" x1="140.247" y1="143.312" x2="289.741" y2="143.312" gradientUnits="userSpaceOnUse">
<stop stop-color="#454545"/>
<stop offset="1"/>
</linearGradient>
<linearGradient id="paint89_linear_2304_2591" x1="214.994" y1="136.673" x2="214.994" y2="143.312" gradientUnits="userSpaceOnUse">
<stop stop-opacity="0"/>
<stop offset="1"/>
</linearGradient>
<linearGradient id="paint90_linear_2304_2591" x1="140.248" y1="143.311" x2="289.742" y2="143.311" gradientUnits="userSpaceOnUse">
<stop stop-color="#454545"/>
<stop offset="1"/>
</linearGradient>
<linearGradient id="paint91_linear_2304_2591" x1="214.994" y1="136.673" x2="214.994" y2="143.311" gradientUnits="userSpaceOnUse">
<stop stop-opacity="0"/>
<stop offset="1"/>
</linearGradient>
<clipPath id="clip0_2304_2591">
<rect width="430" height="230" fill="white"/>
</clipPath>
<clipPath id="clip1_2304_2591">
<rect width="174" height="156" fill="white" transform="translate(128 37)"/>
</clipPath>
</defs>
</svg>
