<svg width="101" height="88" viewBox="0 0 101 88" fill="none" xmlns="http://www.w3.org/2000/svg">
<g clip-path="url(#clip0_3022_5134)">
<path d="M29.1646 49.6852L27.7053 50.538L0.847656 87.8879L24.6472 64.7488L24.8678 76.2104L73.9581 27.3136L75.7067 37.7927L77.3842 37.0066L100.837 0.521484L79.6666 25.857L78.5507 12.1992L31.264 60.5841L29.1646 49.6852Z" fill="url(#paint0_linear_3022_5134)"/>
<path d="M29.1646 49.6852L27.7053 50.538L0.847656 87.8879L24.6472 64.7488L24.8678 76.2104L73.9581 27.3136L75.7067 37.7927L77.3842 37.0066L100.837 0.521484L79.6666 25.857L78.5507 12.1992L31.264 60.5841L29.1646 49.6852Z" fill="url(#paint1_linear_3022_5134)" fill-opacity="0.1"/>
<path d="M29.1646 49.6852L27.7053 50.538L0.847656 87.8879L24.6472 64.7488L24.8678 76.2104L73.9581 27.3136L75.7067 37.7927L77.3842 37.0066L100.837 0.521484L79.6666 25.857L78.5507 12.1992L31.264 60.5841L29.1646 49.6852Z" fill="url(#paint2_linear_3022_5134)" fill-opacity="0.15"/>
<path d="M29.1646 49.6852L27.7053 50.538L0.847656 87.8879L24.6472 64.7488L24.8678 76.2104L73.9581 27.3136L75.7067 37.7927L77.3842 37.0066L100.837 0.521484L79.6666 25.857L78.5507 12.1992L31.264 60.5841L29.1646 49.6852Z" fill="black" fill-opacity="0.2"/>
<path d="M27.701 50.5457L0.84375 87.8958L24.6432 64.7567L24.8639 76.2183C44.6342 57.0112 55.7187 46.2427 75.4894 27.0358L77.3802 37.0144L100.833 0.529297L79.8073 25.5838L78.5466 12.207L29.7814 61.451L27.701 50.5457Z" fill="url(#paint3_linear_3022_5134)"/>
<path d="M27.701 50.5457L0.84375 87.8958L24.6432 64.7567L24.8639 76.2183C44.6342 57.0112 55.7187 46.2427 75.4894 27.0358L77.3802 37.0144L100.833 0.529297L79.8073 25.5838L78.5466 12.207L29.7814 61.451L27.701 50.5457Z" fill="url(#paint4_linear_3022_5134)" fill-opacity="0.1"/>
<path d="M27.701 50.5457L0.84375 87.8958L24.6432 64.7567L24.8639 76.2183C44.6342 57.0112 55.7187 46.2427 75.4894 27.0358L77.3802 37.0144L100.833 0.529297L79.8073 25.5838L78.5466 12.207L29.7814 61.451L27.701 50.5457Z" fill="url(#paint5_linear_3022_5134)" fill-opacity="0.15"/>
<path d="M27.701 50.5457L0.84375 87.8958L24.6432 64.7567L24.8639 76.2183C44.6342 57.0112 55.7187 46.2427 75.4894 27.0358L77.3802 37.0144L100.833 0.529297L79.8073 25.5838L78.5466 12.207L29.7814 61.451L27.701 50.5457Z" fill="url(#paint6_linear_3022_5134)" fill-opacity="0.5"/>
<g filter="url(#filter0_d_3022_5134)">
<path d="M8.39977 38.2445L5.40625 37.9462V33.1484H19.4808L21.5469 33.7628V38.2445H17.2598V51.1854L14.8912 51.7997H9.99576V38.2445H8.39977Z" fill="black"/>
<path d="M8.39977 38.2445L5.40625 37.9462V33.1484H19.4808L21.5469 33.7628V38.2445H17.2598V51.1854L14.8912 51.7997H9.99576V38.2445H8.39977Z" fill="url(#paint7_linear_3022_5134)"/>
<path d="M84.4242 51.1854V38.2445H80.1367V33.7628L82.2028 33.1484H96.2771V37.9462L93.2838 38.2445H91.688V51.7997H86.7927L84.4242 51.1854Z" fill="black"/>
<path d="M84.4242 51.1854V38.2445H80.1367V33.7628L82.2028 33.1484H96.2771V37.9462L93.2838 38.2445H91.688V51.7997H86.7927L84.4242 51.1854Z" fill="url(#paint8_linear_3022_5134)"/>
<path fill-rule="evenodd" clip-rule="evenodd" d="M33.6085 33.97L34.1356 34.2507L34.6629 34.5979L35.1798 35.0046L35.6755 35.4638L36.1397 35.9686L36.5616 36.512L36.9306 37.0867L37.2361 37.686L37.4674 38.3028L37.614 38.9302L37.6652 39.561L37.6393 40.0607L37.5648 40.5223L37.4464 40.9487L37.2891 41.3432L37.0978 41.7089L36.8771 42.0488L36.6321 42.3661L36.3675 42.6639L36.0882 42.9453L35.7991 43.2134L35.5049 43.4713L35.2105 43.7221L35.0866 43.8273L35.0251 43.8797L34.964 43.932L34.9032 43.9842L34.8429 44.0364L34.783 44.0886L34.7237 44.1409L34.665 44.1932L34.6069 44.2456L34.5495 44.2981L34.4928 44.3508L37.8939 51.1854L36.9807 51.7997H31.4427L28.748 45.4496V51.1854L27.1897 51.7997H22.5391V33.1484H31.8405L32.3931 33.3701L33.6085 33.97ZM31.6915 38.2445H28.748V40.3934L31.1979 40.375L31.2855 40.3641L31.3782 40.3319L31.4738 40.2802L31.5696 40.2101L31.6634 40.1232L31.7525 40.0208L31.8346 39.9044L31.9073 39.7754L31.9681 39.635L32.0145 39.4849L32.0442 39.3263L32.0547 39.1606L32.0436 38.995L32.0124 38.8364L31.9638 38.6863L31.9005 38.5459L31.8253 38.4169L31.741 38.3004L31.6915 38.2445Z" fill="black"/>
<path fill-rule="evenodd" clip-rule="evenodd" d="M33.6085 33.97L34.1356 34.2507L34.6629 34.5979L35.1798 35.0046L35.6755 35.4638L36.1397 35.9686L36.5616 36.512L36.9306 37.0867L37.2361 37.686L37.4674 38.3028L37.614 38.9302L37.6652 39.561L37.6393 40.0607L37.5648 40.5223L37.4464 40.9487L37.2891 41.3432L37.0978 41.7089L36.8771 42.0488L36.6321 42.3661L36.3675 42.6639L36.0882 42.9453L35.7991 43.2134L35.5049 43.4713L35.2105 43.7221L35.0866 43.8273L35.0251 43.8797L34.964 43.932L34.9032 43.9842L34.8429 44.0364L34.783 44.0886L34.7237 44.1409L34.665 44.1932L34.6069 44.2456L34.5495 44.2981L34.4928 44.3508L37.8939 51.1854L36.9807 51.7997H31.4427L28.748 45.4496V51.1854L27.1897 51.7997H22.5391V33.1484H31.8405L32.3931 33.3701L33.6085 33.97ZM31.6915 38.2445H28.748V40.3934L31.1979 40.375L31.2855 40.3641L31.3782 40.3319L31.4738 40.2802L31.5696 40.2101L31.6634 40.1232L31.7525 40.0208L31.8346 39.9044L31.9073 39.7754L31.9681 39.635L32.0145 39.4849L32.0442 39.3263L32.0547 39.1606L32.0436 38.995L32.0124 38.8364L31.9638 38.6863L31.9005 38.5459L31.8253 38.4169L31.741 38.3004L31.6915 38.2445Z" fill="url(#paint9_linear_3022_5134)"/>
<path d="M70.945 38.2445H77.2802L79.145 37.9462V33.1484H66.4167L65.3906 33.7628V51.1854L66.4167 51.7997H79.145V47.002L77.2802 46.7037H70.945V44.5431H77.7371V40.405H70.945V38.2445Z" fill="black"/>
<path d="M70.945 38.2445H77.2802L79.145 37.9462V33.1484H66.4167L65.3906 33.7628V51.1854L66.4167 51.7997H79.145V47.002L77.2802 46.7037H70.945V44.5431H77.7371V40.405H70.945V38.2445Z" fill="url(#paint10_linear_3022_5134)"/>
<path d="M62.5325 38.2445H58.0738L57.4214 38.2827L56.784 38.3938L56.1697 38.5723L55.5862 38.813L55.0417 39.1105L54.6501 39.3851L54.331 39.6697L53.9241 40.1363L53.5928 40.6407L53.3456 41.1774L53.191 41.7404L53.1377 42.3241L53.1712 42.9591L53.2733 43.5705L53.4465 44.1524L53.6929 44.6986L54.015 45.2032L54.3741 45.6134L54.6284 45.8268L55.1544 46.1476L55.7596 46.4069L56.4466 46.5991L57.2172 46.7186L58.0738 46.7597V42.334L58.5839 42.3241L63.357 42.3121V51.7997H58.5839L57.366 51.7318L56.1435 51.5287L54.9371 51.1916L53.7677 50.7213L52.6561 50.1191L51.6231 49.3859L50.6895 48.5227L49.8762 47.5307L49.2041 46.4107L48.6937 45.1639L48.3662 43.7914L48.2422 42.2941L48.3627 40.8166L48.7065 39.4719L49.2471 38.2591L49.9579 37.1777L50.8122 36.2265L51.7837 35.4049L52.8458 34.7119L53.9717 34.1468L55.1351 33.7088L56.3092 33.3969L57.4677 33.2104L58.5839 33.1484H63.357V37.9462L62.5325 38.2445Z" fill="black"/>
<path d="M62.5325 38.2445H58.0738L57.4214 38.2827L56.784 38.3938L56.1697 38.5723L55.5862 38.813L55.0417 39.1105L54.6501 39.3851L54.331 39.6697L53.9241 40.1363L53.5928 40.6407L53.3456 41.1774L53.191 41.7404L53.1377 42.3241L53.1712 42.9591L53.2733 43.5705L53.4465 44.1524L53.6929 44.6986L54.015 45.2032L54.3741 45.6134L54.6284 45.8268L55.1544 46.1476L55.7596 46.4069L56.4466 46.5991L57.2172 46.7186L58.0738 46.7597V42.334L58.5839 42.3241L63.357 42.3121V51.7997H58.5839L57.366 51.7318L56.1435 51.5287L54.9371 51.1916L53.7677 50.7213L52.6561 50.1191L51.6231 49.3859L50.6895 48.5227L49.8762 47.5307L49.2041 46.4107L48.6937 45.1639L48.3662 43.7914L48.2422 42.2941L48.3627 40.8166L48.7065 39.4719L49.2471 38.2591L49.9579 37.1777L50.8122 36.2265L51.7837 35.4049L52.8458 34.7119L53.9717 34.1468L55.1351 33.7088L56.3092 33.3969L57.4677 33.2104L58.5839 33.1484H63.357V37.9462L62.5325 38.2445Z" fill="url(#paint11_linear_3022_5134)"/>
<path d="M45.5561 51.1854L45.1832 51.7997H40.043V33.1484H45.1832L45.5561 33.7628V51.1854Z" fill="black"/>
<path d="M45.5561 51.1854L45.1832 51.7997H40.043V33.1484H45.1832L45.5561 33.7628V51.1854Z" fill="url(#paint12_linear_3022_5134)"/>
</g>
<path d="M14.8912 37.9462V51.7997H9.99576V37.9462H5.40625V33.1484H19.4808V37.9462H14.8912Z" fill="url(#paint13_linear_3022_5134)"/>
<path d="M14.8912 37.9462V51.7997H9.99576V37.9462H5.40625V33.1484H19.4808V37.9462H14.8912Z" fill="url(#paint14_linear_3022_5134)" fill-opacity="0.1"/>
<path d="M14.8912 37.9462V51.7997H9.99576V37.9462H5.40625V33.1484H19.4808V37.9462H14.8912Z" fill="url(#paint15_linear_3022_5134)" fill-opacity="0.15"/>
<path d="M91.6883 37.9462V51.7997H86.793V37.9462H82.2031V33.1484H96.2774V37.9462H91.6883Z" fill="url(#paint16_linear_3022_5134)"/>
<path d="M91.6883 37.9462V51.7997H86.793V37.9462H82.2031V33.1484H96.2774V37.9462H91.6883Z" fill="url(#paint17_linear_3022_5134)" fill-opacity="0.1"/>
<path d="M91.6883 37.9462V51.7997H86.793V37.9462H82.2031V33.1484H96.2774V37.9462H91.6883Z" fill="url(#paint18_linear_3022_5134)" fill-opacity="0.15"/>
<path fill-rule="evenodd" clip-rule="evenodd" d="M27.1897 51.7997H22.5391V33.1484H31.8405C34.0128 33.8681 36.7359 36.6568 36.7359 39.3555C36.7359 41.5815 35.362 42.7467 34.1081 43.8101C33.8418 44.036 33.5809 44.2573 33.3397 44.4831L36.9807 51.7997H31.4427L28.7196 45.3827H27.1897V51.7997ZM31.1979 40.375L27.1897 40.405V37.9462H31.1979C31.5039 37.9462 32.0547 38.486 32.0547 39.1606C32.0547 39.8353 31.5345 40.375 31.1979 40.375Z" fill="url(#paint19_linear_3022_5134)"/>
<path fill-rule="evenodd" clip-rule="evenodd" d="M27.1897 51.7997H22.5391V33.1484H31.8405C34.0128 33.8681 36.7359 36.6568 36.7359 39.3555C36.7359 41.5815 35.362 42.7467 34.1081 43.8101C33.8418 44.036 33.5809 44.2573 33.3397 44.4831L36.9807 51.7997H31.4427L28.7196 45.3827H27.1897V51.7997ZM31.1979 40.375L27.1897 40.405V37.9462H31.1979C31.5039 37.9462 32.0547 38.486 32.0547 39.1606C32.0547 39.8353 31.5345 40.375 31.1979 40.375Z" fill="url(#paint20_linear_3022_5134)" fill-opacity="0.1"/>
<path fill-rule="evenodd" clip-rule="evenodd" d="M27.1897 51.7997H22.5391V33.1484H31.8405C34.0128 33.8681 36.7359 36.6568 36.7359 39.3555C36.7359 41.5815 35.362 42.7467 34.1081 43.8101C33.8418 44.036 33.5809 44.2573 33.3397 44.4831L36.9807 51.7997H31.4427L28.7196 45.3827H27.1897V51.7997ZM31.1979 40.375L27.1897 40.405V37.9462H31.1979C31.5039 37.9462 32.0547 38.486 32.0547 39.1606C32.0547 39.8353 31.5345 40.375 31.1979 40.375Z" fill="url(#paint21_linear_3022_5134)" fill-opacity="0.15"/>
<path d="M79.1424 33.1484V37.9462H70.9424V40.405H77.7345V44.5431H70.9424V47.002H79.1424V51.7997H66.4141V33.1484H79.1424Z" fill="url(#paint22_linear_3022_5134)"/>
<path d="M79.1424 33.1484V37.9462H70.9424V40.405H77.7345V44.5431H70.9424V47.002H79.1424V51.7997H66.4141V33.1484H79.1424Z" fill="url(#paint23_linear_3022_5134)" fill-opacity="0.1"/>
<path d="M79.1424 33.1484V37.9462H70.9424V40.405H77.7345V44.5431H70.9424V47.002H79.1424V51.7997H66.4141V33.1484H79.1424Z" fill="url(#paint24_linear_3022_5134)" fill-opacity="0.15"/>
<path d="M40.0391 33.1484H45.1793V51.7997H40.0391V33.1484Z" fill="url(#paint25_linear_3022_5134)"/>
<path d="M40.0391 33.1484H45.1793V51.7997H40.0391V33.1484Z" fill="url(#paint26_linear_3022_5134)" fill-opacity="0.1"/>
<path d="M40.0391 33.1484H45.1793V51.7997H40.0391V33.1484Z" fill="url(#paint27_linear_3022_5134)" fill-opacity="0.15"/>
<path d="M58.5839 47.062V42.3241L63.3569 42.312V51.7997H58.5839C53.7495 51.7997 48.3033 48.5312 48.2422 42.2941C48.2422 36.117 54.2391 33.1484 58.5839 33.1484H63.3569V37.9462H58.5839C55.7689 37.9462 53.1377 39.9553 53.1377 42.3241C53.1377 44.903 54.7287 47.062 58.5839 47.062Z" fill="url(#paint28_linear_3022_5134)"/>
<path d="M58.5839 47.062V42.3241L63.3569 42.312V51.7997H58.5839C53.7495 51.7997 48.3033 48.5312 48.2422 42.2941C48.2422 36.117 54.2391 33.1484 58.5839 33.1484H63.3569V37.9462H58.5839C55.7689 37.9462 53.1377 39.9553 53.1377 42.3241C53.1377 44.903 54.7287 47.062 58.5839 47.062Z" fill="url(#paint29_linear_3022_5134)" fill-opacity="0.1"/>
<path d="M58.5839 47.062V42.3241L63.3569 42.312V51.7997H58.5839C53.7495 51.7997 48.3033 48.5312 48.2422 42.2941C48.2422 36.117 54.2391 33.1484 58.5839 33.1484H63.3569V37.9462H58.5839C55.7689 37.9462 53.1377 39.9553 53.1377 42.3241C53.1377 44.903 54.7287 47.062 58.5839 47.062Z" fill="url(#paint30_linear_3022_5134)" fill-opacity="0.15"/>
<path d="M10.553 59.7508L9.08662 60.0164H8.82696L8.87451 56.5447L7.88281 56.3477L9.39145 56.2109L10.5206 56.2449L10.553 59.7508Z" fill="url(#paint31_linear_3022_5134)"/>
<path fill-rule="evenodd" clip-rule="evenodd" d="M13.7124 59.751H13.4816L12.1219 60.0165H11.9665L11.7773 58.1323V56.6772L11.0781 56.3829L12.4746 56.245H13.5107L13.5447 56.3239L14.3056 56.245L15.3737 56.2109V59.751L14.0829 60.0165L13.7124 59.751Z" fill="url(#paint32_linear_3022_5134)"/>
<path d="M18.3316 56.2148H20.3173V57.154L19.2063 57.3251L19.0657 57.2718L18.9981 56.4781L17.1759 56.6104L17.1484 56.3517L18.3316 56.2148Z" fill="url(#paint33_linear_3022_5134)"/>
<path d="M22.5154 56.2148H25.323V57.1576L24.4075 57.3264V59.7503L23.4454 60.0158L23.2507 59.9175V57.1395H24.0606L24.1956 56.4781H21.631L21.4844 56.3517L22.5154 56.2148Z" fill="url(#paint34_linear_3022_5134)"/>
<path d="M27.721 59.7206L26.8795 59.9851L26.625 59.9172L27.0974 58.6233L27.5699 58.2637L28.299 58.4992L28.4833 58.4498L28.3792 58.6233L27.721 59.7206Z" fill="url(#paint35_linear_3022_5134)"/>
<path d="M33.7475 56.2148V58.8664H35.1514V59.7503L34.5803 60.0158L33.5105 59.7852L32.7007 59.256L32.0258 57.2718L31.7969 56.3517L32.4657 56.2148H33.7475Z" fill="url(#paint36_linear_3022_5134)"/>
<path d="M39.0732 56.2129L39.1458 56.3172L39.1872 56.3848L39.2751 56.5336L39.4015 56.7502L39.5587 57.0208L39.7388 57.3319L40.3381 58.3719L40.5313 58.7089L40.7082 59.0183L40.861 59.2866L40.9818 59.5003L41.1225 59.7507L40.7688 60.0162L39.9201 59.5871L38.5703 57.4706L38.6449 56.3496L39.0732 56.2129Z" fill="url(#paint37_linear_3022_5134)"/>
<path d="M38.3493 59.7214L37.8946 59.986L37.4219 59.5213L38.2993 58.4512H39.0984L38.3493 59.7214Z" fill="url(#paint38_linear_3022_5134)"/>
<path d="M43.6712 56.3169L43.8308 56.2481L43.9995 56.2148H45.4041V57.1407L45.2063 57.3112L44.9148 56.5442L43.4102 56.4575L43.6712 56.3169Z" fill="url(#paint39_linear_3022_5134)"/>
<path d="M44.0614 57.2757L43.9986 57.325L43.9296 57.4043L43.8727 57.4973L43.8277 57.6015L43.7944 57.7145L43.7728 57.8334L43.7627 57.9559L43.7639 58.0793L43.7766 58.2011L43.8003 58.3188L43.8352 58.4297L43.8809 58.5312L43.9375 58.6209L43.9983 58.6941L44.0595 58.752L44.1226 58.7962L44.1885 58.8286L44.2585 58.8507L44.3337 58.8643L44.4153 58.8712L44.5046 58.8731L44.6025 58.8717L44.7104 58.8687L44.8294 58.8658L44.9607 58.8647L45.4032 58.8661V59.75L45.2053 60.0155L44.8463 59.9172L44.7113 59.3219L43.429 59.2557L43.2266 57.2715L44.0614 57.2757Z" fill="url(#paint40_linear_3022_5134)"/>
<path d="M47.5381 56.2109L49.5828 56.2433L49.601 57.4512L49.6032 57.6168L49.6045 57.7803L49.6052 57.9399L49.6051 58.0939L49.6044 58.2404L49.603 58.3777L49.601 58.5041L49.5984 58.6177L49.5951 58.7168L49.5913 58.7996L49.587 58.8643L49.5821 58.9093L49.5721 58.9664L49.526 59.2034L49.5363 59.1442L49.1643 59.1227L48.8943 56.6754L47.418 56.3477L47.5381 56.2109Z" fill="url(#paint41_linear_3022_5134)"/>
<path d="M48.5452 58.8359L48.5568 59.4535H47.5445L47.418 59.1037L47.5381 58.8702L48.5452 58.8359Z" fill="url(#paint42_linear_3022_5134)"/>
<path d="M53.9397 57.6875L54.0525 57.878L52.6066 58.1973L52.5391 57.6875H53.9397Z" fill="url(#paint43_linear_3022_5134)"/>
<path d="M54.1315 58.8672L54.2513 59.1005L52.5401 59.4552L52.4727 58.8672H54.1315Z" fill="url(#paint44_linear_3022_5134)"/>
<path d="M51.75 59.7503V56.2148H54.1305L54.2502 56.3517L52.2016 56.6104L52.0666 59.9175L51.7831 60.0158L51.75 59.7503Z" fill="url(#paint45_linear_3022_5134)"/>
<path d="M61.6719 57.9538L61.7329 56.245L62.8011 56.2109L63.2364 56.3476L62.5309 56.8756L62.1679 58.4265L61.6719 57.9538Z" fill="url(#paint46_linear_3022_5134)"/>
<path d="M61.7224 59.7496L61.3687 58.9688L61.3204 58.8628L61.273 58.7599L61.2271 58.6613L61.1831 58.5679L61.1415 58.4809L61.1029 58.401L61.0677 58.3295L61.0365 58.2673L61.0096 58.2155L60.9877 58.175L60.9712 58.1469L60.9606 58.1322L60.9062 58.0762L61.4874 58.1469L62.1186 60.0151L61.7224 59.7496Z" fill="url(#paint47_linear_3022_5134)"/>
<path d="M59.8672 59.7509L59.8995 56.2449L60.9372 56.2129L61.3046 56.3497L60.5714 56.7432L60.1957 60.0164L59.8672 59.7509Z" fill="url(#paint48_linear_3022_5134)"/>
<path d="M64.9719 59.6459L65.0782 59.4507L65.2389 59.1645L65.4406 58.8103L65.6699 58.4113L65.9134 57.9905L66.1577 57.571L66.3893 57.176L66.5949 56.8286L66.7611 56.5519L66.8744 56.3688L66.9214 56.3027L67.5067 56.4428L67.5213 56.676L65.6991 59.9169L65.4466 59.9916L65.4523 59.9948L64.9392 59.73L64.9336 59.7268L64.9719 59.6459Z" fill="url(#paint49_linear_3022_5134)"/>
<path d="M67.7722 59.7276L67.7593 59.7186L67.7406 59.6993L67.7167 59.6704L67.688 59.6327L67.6551 59.5871L67.6184 59.5341L67.5785 59.4747L67.536 59.4094L67.4912 59.3392L67.4447 59.2647L67.397 59.1867L67.3488 59.106L67.3007 59.0253L67.2539 58.9473L67.2086 58.8728L67.1655 58.8026L67.1248 58.7374L67.0873 58.678L67.0533 58.6251L67.0233 58.5794L66.9978 58.5418L66.9773 58.513L66.9622 58.4937L66.9531 58.4848L67.6786 58.3887L68.3884 59.9923L67.7722 59.7276Z" fill="url(#paint50_linear_3022_5134)"/>
<path d="M77.2051 58.8672L78.1642 59.1005L78.0528 59.4552H76.6352L75.8789 58.8672H77.2051Z" fill="url(#paint51_linear_3022_5134)"/>
<path d="M74.5195 59.7503V56.2148H75.8012L76.7098 56.3517L75.8933 56.6104L76.0278 59.5867L75.3814 60.0158L74.5195 59.7503Z" fill="url(#paint52_linear_3022_5134)"/>
<path d="M79.1156 59.5559L79.2352 59.3371L79.4016 59.0416L79.6037 58.6898L79.8273 58.3025L80.0621 57.9L80.2961 57.5031L80.516 57.1322L80.7107 56.8079L80.8674 56.5508L80.9751 56.3814L81.0212 56.3203L82.1193 56.461L82.2374 56.8096L80.5502 59.9183L80.0487 60.0167L79.0234 59.7511L79.0539 59.6774L79.1156 59.5559Z" fill="url(#paint53_linear_3022_5134)"/>
<path d="M81.8853 59.7308L81.8697 59.7272L81.8563 59.718L81.837 59.6986L81.8132 59.6696L81.7843 59.6319L81.7508 59.5861L81.7144 59.5331L81.6743 59.4737L81.632 59.4085L81.5874 59.3384L81.5413 59.264L81.4945 59.1861L81.4462 59.1056L81.3987 59.0251L81.3526 58.9473L81.308 58.873L81.2649 58.803L81.2248 58.7379L81.1877 58.6786L81.1542 58.6258L81.1245 58.5803L81.0993 58.5428L81.0785 58.5141L81.0636 58.4949L81.0547 58.486L82.5071 58.3301L82.999 59.9919L81.8853 59.7308Z" fill="url(#paint54_linear_3022_5134)"/>
<path d="M87.0925 56.2129L88.4119 56.3497L87.8384 56.6767L86.8933 57.3381V59.7854L86.2611 60.016L85.0174 59.7505V57.2704L84.2188 57.1578L84.2544 56.2446L87.0925 56.2129Z" fill="url(#paint55_linear_3022_5134)"/>
<path d="M89.2554 57.9892L89.4634 57.6253L89.6477 57.3056L89.8074 57.0297L89.9426 56.7972L90.0541 56.6077L90.1425 56.461L90.2071 56.3567L90.2487 56.2943L90.2665 56.2734L91.7019 56.4125L92.2227 58.4739L92.5377 60.015L91.0734 59.7495L90.6031 59.8505L89.6157 60.015L88.2539 59.7495L89.0221 58.3977L89.2554 57.9892Z" fill="url(#paint56_linear_3022_5134)"/>
<path d="M17.6948 58.8438L16.4883 59.0763V59.4538L18.3254 59.3215L18.5139 58.8438H17.6948Z" fill="url(#paint57_linear_3022_5134)"/>
<path d="M18.8216 57.6281V57.1875L17.6562 57.3598V57.8164H18.8711L18.9737 60.0597L19.0807 60.0392L20.1961 59.7728L20.2641 59.732L20.3182 59.669L20.36 59.588L20.3911 59.4932L20.413 59.3889L20.4272 59.2791L20.4353 59.1681L20.4389 59.06L20.4395 58.959L20.4378 58.795L20.4365 58.3057L20.4346 58.2355L20.4308 58.1648L20.4236 58.0945L20.412 58.0256L20.3944 57.9589L20.3695 57.8952L20.336 57.8355L20.2927 57.7807L20.2382 57.7317L20.171 57.6893L20.0901 57.6544L19.9938 57.6281H18.8216Z" fill="url(#paint58_linear_3022_5134)"/>
<path d="M28.4656 56.2574L28.4478 56.2422L27.6328 56.38V57.4705L28.2983 58.4998L28.4827 58.4503L28.3786 58.6239L29.2316 59.943L29.7186 60.0161L30.4604 59.7506L29.9035 58.7516L29.6566 58.3107L29.4327 57.9123L29.2316 57.5565L29.0535 57.2432L28.8982 56.9725L28.7659 56.7443L28.6564 56.5587L28.5699 56.4157L28.5063 56.3152L28.4656 56.2574Z" fill="url(#paint59_linear_3022_5134)"/>
<path d="M7.88281 56.3477L9.05311 56.3828L9.08662 60.0164H7.88281V56.3477Z" fill="url(#paint60_linear_3022_5134)"/>
<path d="M7.88281 56.3477L9.05311 56.3828L9.08662 60.0164H7.88281V56.3477Z" fill="url(#paint61_linear_3022_5134)" fill-opacity="0.1"/>
<path d="M11.0766 56.383H12.1505L12.9373 58.215L12.9742 56.383L14.0813 56.3477V60.0166H12.963L12.8962 59.8701L12.8292 59.724L12.7618 59.5781L12.6939 59.4325L12.6255 59.2873L12.5564 59.1424L12.4864 58.9979L12.4156 58.8538L12.3436 58.7102L12.2705 58.5669L12.1961 58.4243L12.1203 58.2822V60.0166H11.043L11.0766 56.383Z" fill="url(#paint62_linear_3022_5134)"/>
<path d="M11.0766 56.383H12.1505L12.9373 58.215L12.9742 56.383L14.0813 56.3477V60.0166H12.963L12.8962 59.8701L12.8292 59.724L12.7618 59.5781L12.6939 59.4325L12.6255 59.2873L12.5564 59.1424L12.4864 58.9979L12.4156 58.8538L12.3436 58.7102L12.2705 58.5669L12.1961 58.4243L12.1203 58.2822V60.0166H11.043L11.0766 56.383Z" fill="url(#paint63_linear_3022_5134)" fill-opacity="0.1"/>
<path d="M16.4877 59.0767H18.3252V58.5486H17.0741L17.0136 58.5419L16.9488 58.5224L16.8816 58.4908L16.8136 58.4479L16.7468 58.3945L16.683 58.3315L16.624 58.2595L16.5716 58.1795L16.5277 58.0921L16.4941 57.9983L16.4725 57.8988L16.4649 57.7944L16.4649 57.7568L16.4647 57.7168L16.4644 57.6756L16.4639 57.6341L16.4635 57.5937L16.4609 57.4241L16.4649 57.3101L16.4791 57.1912L16.5034 57.07L16.5375 56.9495L16.5815 56.8326L16.6351 56.722L16.6982 56.6207L16.7705 56.5313L16.852 56.457L16.9425 56.4003L17.0419 56.3642L17.1499 56.3516H19.2078V57.3249L17.658 57.3592V57.8158H18.8728L18.9725 57.8432L19.0565 57.8793L19.126 57.9232L19.1826 57.974L19.2275 58.0308L19.2621 58.0926L19.2879 58.1586L19.3062 58.2278L19.3183 58.2993L19.3256 58.3721L19.3296 58.4453L19.3316 58.5181L19.3329 59.0253L19.3346 59.1952L19.334 59.2998L19.3303 59.4119L19.3219 59.5269L19.3072 59.6407L19.2846 59.7489L19.2523 59.8471L19.209 59.931L19.1529 59.9963L19.0824 60.0387L18.9959 60.0537L18.9754 60.0591L18.9358 60.0627L18.8781 60.0646L18.8035 60.0651L18.7132 60.0646L18.6084 60.0632L18.3595 60.0593L18.2177 60.0572L18.066 60.0553L17.9054 60.0541L17.737 60.0537H16.4877V59.0767Z" fill="url(#paint64_linear_3022_5134)"/>
<path d="M16.4877 59.0767H18.3252V58.5486H17.0741L17.0136 58.5419L16.9488 58.5224L16.8816 58.4908L16.8136 58.4479L16.7468 58.3945L16.683 58.3315L16.624 58.2595L16.5716 58.1795L16.5277 58.0921L16.4941 57.9983L16.4725 57.8988L16.4649 57.7944L16.4649 57.7568L16.4647 57.7168L16.4644 57.6756L16.4639 57.6341L16.4635 57.5937L16.4609 57.4241L16.4649 57.3101L16.4791 57.1912L16.5034 57.07L16.5375 56.9495L16.5815 56.8326L16.6351 56.722L16.6982 56.6207L16.7705 56.5313L16.852 56.457L16.9425 56.4003L17.0419 56.3642L17.1499 56.3516H19.2078V57.3249L17.658 57.3592V57.8158H18.8728L18.9725 57.8432L19.0565 57.8793L19.126 57.9232L19.1826 57.974L19.2275 58.0308L19.2621 58.0926L19.2879 58.1586L19.3062 58.2278L19.3183 58.2993L19.3256 58.3721L19.3296 58.4453L19.3316 58.5181L19.3329 59.0253L19.3346 59.1952L19.334 59.2998L19.3303 59.4119L19.3219 59.5269L19.3072 59.6407L19.2846 59.7489L19.2523 59.8471L19.209 59.931L19.1529 59.9963L19.0824 60.0387L18.9959 60.0537L18.9754 60.0591L18.9358 60.0627L18.8781 60.0646L18.8035 60.0651L18.7132 60.0646L18.6084 60.0632L18.3595 60.0593L18.2177 60.0572L18.066 60.0553L17.9054 60.0541L17.737 60.0537H16.4877V59.0767Z" fill="url(#paint65_linear_3022_5134)" fill-opacity="0.1"/>
<path d="M21.4844 57.3287V56.3516H24.3943V57.3287H23.4454V60.0157H22.3067V57.3287H21.4844Z" fill="url(#paint66_linear_3022_5134)"/>
<path d="M21.4844 57.3287V56.3516H24.3943V57.3287H23.4454V60.0157H22.3067V57.3287H21.4844Z" fill="url(#paint67_linear_3022_5134)" fill-opacity="0.1"/>
<path d="M27.2066 57.106L27.3082 56.9299L27.3982 56.7743L27.4756 56.6411L27.539 56.5328L27.587 56.4515L27.6184 56.3994L27.632 56.3789L27.6503 56.3947L27.6925 56.4546L27.7584 56.5588L27.8481 56.707L27.9615 56.8994L28.0987 57.1358L28.2596 57.4164L28.4443 57.7411L28.6526 58.1099L28.8847 58.5228L29.1406 58.9797L29.7178 60.0151H28.4527L27.6681 58.6674L26.878 59.9845L25.543 60.0191L27.2066 57.106Z" fill="url(#paint68_linear_3022_5134)"/>
<path d="M27.2066 57.106L27.3082 56.9299L27.3982 56.7743L27.4756 56.6411L27.539 56.5328L27.587 56.4515L27.6184 56.3994L27.632 56.3789L27.6503 56.3947L27.6925 56.4546L27.7584 56.5588L27.8481 56.707L27.9615 56.8994L28.0987 57.1358L28.2596 57.4164L28.4443 57.7411L28.6526 58.1099L28.8847 58.5228L29.1406 58.9797L29.7178 60.0151H28.4527L27.6681 58.6674L26.878 59.9845L25.543 60.0191L27.2066 57.106Z" fill="url(#paint69_linear_3022_5134)" fill-opacity="0.1"/>
<path d="M31.7969 56.3516H33.1253V59.0997H34.5803V60.0157H31.7969V56.3516Z" fill="url(#paint70_linear_3022_5134)"/>
<path d="M31.7969 56.3516H33.1253V59.0997H34.5803V60.0157H31.7969V56.3516Z" fill="url(#paint71_linear_3022_5134)" fill-opacity="0.1"/>
<path d="M36.6016 59.9769L36.6109 59.9547L36.6382 59.9011L36.6822 59.8186L36.7415 59.7095L36.8151 59.5758L36.9016 59.4198L36.9997 59.2439L37.1083 59.0501L37.2262 58.8408L37.3521 58.6181L37.4846 58.3843L38.6438 56.3496L38.719 56.4577L38.762 56.5278L38.853 56.6821L38.9841 56.9065L39.147 57.1869L39.3337 57.5094L39.9548 58.5872L40.155 58.9365L40.3383 59.2571L40.4967 59.5353L40.6218 59.7566L40.7678 60.0162H39.4698L38.6711 58.6691L37.8947 59.9856L37.2481 60.003L37.1607 60.005L37.0767 60.0061L36.9971 60.0063L36.9224 60.0058L36.8536 60.0045L36.7915 60.0026L36.7368 59.9998L36.6902 59.9964L36.6526 59.9924L36.6247 59.9879L36.6075 59.9827L36.6016 59.9769Z" fill="url(#paint72_linear_3022_5134)"/>
<path d="M36.6016 59.9769L36.6109 59.9547L36.6382 59.9011L36.6822 59.8186L36.7415 59.7095L36.8151 59.5758L36.9016 59.4198L36.9997 59.2439L37.1083 59.0501L37.2262 58.8408L37.3521 58.6181L37.4846 58.3843L38.6438 56.3496L38.719 56.4577L38.762 56.5278L38.853 56.6821L38.9841 56.9065L39.147 57.1869L39.3337 57.5094L39.9548 58.5872L40.155 58.9365L40.3383 59.2571L40.4967 59.5353L40.6218 59.7566L40.7678 60.0162H39.4698L38.6711 58.6691L37.8947 59.9856L37.2481 60.003L37.1607 60.005L37.0767 60.0061L36.9971 60.0063L36.9224 60.0058L36.8536 60.0045L36.7915 60.0026L36.7368 59.9998L36.6902 59.9964L36.6526 59.9924L36.6247 59.9879L36.6075 59.9827L36.6016 59.9769Z" fill="url(#paint73_linear_3022_5134)" fill-opacity="0.1"/>
<path d="M42.5156 58.0647L42.5262 57.9074L42.5573 57.7357L42.6077 57.5548L42.6765 57.3696L42.7623 57.1854L42.8641 57.0072L42.9809 56.8402L43.1116 56.6895L43.2549 56.5602L43.4099 56.4573L43.5754 56.3861L43.7502 56.3516H45.206V57.3111H44.5416L44.5306 57.3106L44.4994 57.3097L44.4512 57.3094L44.389 57.3107L44.3157 57.3147L44.2345 57.3224L44.1483 57.3347L44.0603 57.3528L43.9735 57.3775L43.8908 57.4101L43.8154 57.4514L43.7502 57.5024L43.6788 57.5846L43.6198 57.681L43.5731 57.7891L43.5387 57.9061L43.5162 58.0294L43.5057 58.1563L43.5072 58.2843L43.5202 58.4105L43.5448 58.5324L43.5809 58.6473L43.6283 58.7526L43.6869 58.8455L43.7499 58.9214L43.8135 58.9814L43.8788 59.0272L43.9471 59.0607L44.0196 59.0837L44.0976 59.0978L44.1822 59.105L44.2746 59.107L44.3762 59.1054L44.488 59.1023L44.6113 59.0993L44.7474 59.0982L45.206 59.0997V60.0157L43.6869 60.0152L43.4867 59.9953L43.3073 59.9309L43.1481 59.8275L43.0084 59.6906L42.8876 59.526L42.785 59.3392L42.7 59.1357L42.6319 58.9212L42.58 58.7013L42.5439 58.4814L42.5226 58.2674L42.5156 58.0647Z" fill="url(#paint74_linear_3022_5134)"/>
<path d="M42.5156 58.0647L42.5262 57.9074L42.5573 57.7357L42.6077 57.5548L42.6765 57.3696L42.7623 57.1854L42.8641 57.0072L42.9809 56.8402L43.1116 56.6895L43.2549 56.5602L43.4099 56.4573L43.5754 56.3861L43.7502 56.3516H45.206V57.3111H44.5416L44.5306 57.3106L44.4994 57.3097L44.4512 57.3094L44.389 57.3107L44.3157 57.3147L44.2345 57.3224L44.1483 57.3347L44.0603 57.3528L43.9735 57.3775L43.8908 57.4101L43.8154 57.4514L43.7502 57.5024L43.6788 57.5846L43.6198 57.681L43.5731 57.7891L43.5387 57.9061L43.5162 58.0294L43.5057 58.1563L43.5072 58.2843L43.5202 58.4105L43.5448 58.5324L43.5809 58.6473L43.6283 58.7526L43.6869 58.8455L43.7499 58.9214L43.8135 58.9814L43.8788 59.0272L43.9471 59.0607L44.0196 59.0837L44.0976 59.0978L44.1822 59.105L44.2746 59.107L44.3762 59.1054L44.488 59.1023L44.6113 59.0993L44.7474 59.0982L45.206 59.0997V60.0157L43.6869 60.0152L43.4867 59.9953L43.3073 59.9309L43.1481 59.8275L43.0084 59.6906L42.8876 59.526L42.785 59.3392L42.7 59.1357L42.6319 58.9212L42.58 58.7013L42.5439 58.4814L42.5226 58.2674L42.5156 58.0647Z" fill="url(#paint75_linear_3022_5134)" fill-opacity="0.1"/>
<path d="M47.418 59.1056L48.4617 59.0701L48.4968 57.3296H47.418V56.3496L49.5371 56.3831L49.556 57.6349L49.5582 57.8066L49.5596 57.9761L49.5603 58.1415L49.5602 58.3011L49.5594 58.453L49.558 58.5953L49.5559 58.7262L49.5532 58.844L49.5498 58.9467L49.5459 59.0325L49.5414 59.0996L49.5363 59.1461L49.526 59.2053L49.5126 59.2638L49.4961 59.3214L49.4764 59.3778L49.4532 59.4328L49.4266 59.4863L49.3964 59.5379L49.3624 59.5875L49.3247 59.6349L49.283 59.6799L49.2373 59.7221L49.1874 59.7615L49.107 59.8122L49.0185 59.8546L48.9233 59.8893L48.8229 59.9172L48.7189 59.9393L48.6123 59.9563L48.5049 59.9691L48.3979 59.9785L48.2928 59.9855L48.191 59.9908L48.094 59.9954L48.0031 60.0001L47.418 60.0333V59.1056Z" fill="url(#paint76_linear_3022_5134)"/>
<path d="M47.418 59.1056L48.4617 59.0701L48.4968 57.3296H47.418V56.3496L49.5371 56.3831L49.556 57.6349L49.5582 57.8066L49.5596 57.9761L49.5603 58.1415L49.5602 58.3011L49.5594 58.453L49.558 58.5953L49.5559 58.7262L49.5532 58.844L49.5498 58.9467L49.5459 59.0325L49.5414 59.0996L49.5363 59.1461L49.526 59.2053L49.5126 59.2638L49.4961 59.3214L49.4764 59.3778L49.4532 59.4328L49.4266 59.4863L49.3964 59.5379L49.3624 59.5875L49.3247 59.6349L49.283 59.6799L49.2373 59.7221L49.1874 59.7615L49.107 59.8122L49.0185 59.8546L48.9233 59.8893L48.8229 59.9172L48.7189 59.9393L48.6123 59.9563L48.5049 59.9691L48.3979 59.9785L48.2928 59.9855L48.191 59.9908L48.094 59.9954L48.0031 60.0001L47.418 60.0333V59.1056Z" fill="url(#paint77_linear_3022_5134)" fill-opacity="0.1"/>
<path d="M54.2522 56.3516V57.3287H52.8606V57.8783H54.0546V58.6111H52.8606V59.0997H54.2522V60.0157H51.7852V56.3516H54.2522Z" fill="url(#paint78_linear_3022_5134)"/>
<path d="M54.2522 56.3516V57.3287H52.8606V57.8783H54.0546V58.6111H52.8606V59.0997H54.2522V60.0157H51.7852V56.3516H54.2522Z" fill="url(#paint79_linear_3022_5134)" fill-opacity="0.1"/>
<path d="M60.2288 56.383L61.3042 56.3498L62.0634 58.154L62.1266 56.383L63.2336 56.3477V60.0166H62.1186L61.7519 59.2073L61.7019 59.0975L61.6527 58.9908L61.6051 58.8886L61.5595 58.7919L61.5165 58.7016L61.4764 58.6189L61.44 58.5447L61.4076 58.4803L61.3797 58.4266L61.3571 58.3846L61.3399 58.3554L61.329 58.3402L61.2726 58.2822V60.0166H60.1953L60.2288 56.383Z" fill="url(#paint80_linear_3022_5134)"/>
<path d="M60.2288 56.383L61.3042 56.3498L62.0634 58.154L62.1266 56.383L63.2336 56.3477V60.0166H62.1186L61.7519 59.2073L61.7019 59.0975L61.6527 58.9908L61.6051 58.8886L61.5595 58.7919L61.5165 58.7016L61.4764 58.6189L61.44 58.5447L61.4076 58.4803L61.3797 58.4266L61.3571 58.3846L61.3399 58.3554L61.329 58.3402L61.2726 58.2822V60.0166H60.1953L60.2288 56.383Z" fill="url(#paint81_linear_3022_5134)" fill-opacity="0.1"/>
<path d="M65.4492 59.9922L65.489 59.9082L65.5991 59.706L65.7656 59.4093L65.9746 59.0422L66.2123 58.6286L66.4647 58.1926L66.7178 57.7578L66.9579 57.3485L67.171 56.9884L67.3432 56.7016L67.4607 56.5119L67.5094 56.4434L67.525 56.4596L67.5584 56.5069L67.6081 56.5832L67.6731 56.686L67.7518 56.8136L67.8431 56.9636L67.9457 57.1339L68.0581 57.3223L68.1792 57.5267L68.3076 57.745L68.4421 57.9749L68.5812 58.2144L69.6072 59.9853L69.0353 60.003L68.9573 60.0052L68.8811 60.0068L68.8075 60.0078L68.7372 60.0082L68.671 60.0081L68.6098 60.0076L68.5543 60.0064L68.5052 60.0048L68.4635 60.0027L68.4298 60.0001L68.4049 59.9969L68.3896 59.9934L68.3763 59.984L68.357 59.964L68.3322 59.9342L68.3025 59.8951L68.2683 59.8478L68.2303 59.7929L68.189 59.7312L68.1448 59.6637L68.0984 59.5909L68.0503 59.5137L68.0009 59.4329L67.9509 59.3492L67.9011 59.2655L67.8525 59.1847L67.8056 59.1075L67.7608 59.0347L67.7188 58.9671L67.6798 58.9055L67.6446 58.8507L67.6135 58.8035L67.5871 58.7644L67.5659 58.7346L67.5503 58.7146L67.5407 58.7053L67.5311 58.7079L67.5147 58.7222L67.4921 58.7477L67.4639 58.7834L67.4307 58.8287L67.3929 58.8828L67.3511 58.9448L67.3058 59.014L67.2576 59.0896L67.2069 59.1709L67.1545 59.257L67.1006 59.3472L66.7056 60.0159H66.0774L65.9925 60.0157L65.9109 60.0151L65.8335 60.014L65.761 60.0126L65.6942 60.0109L65.6338 60.0089L65.5805 60.0066L65.5352 60.0041L65.4988 60.0014L65.4717 59.9985L65.4549 59.9954L65.4492 59.9922Z" fill="url(#paint82_linear_3022_5134)"/>
<path d="M65.4492 59.9922L65.489 59.9082L65.5991 59.706L65.7656 59.4093L65.9746 59.0422L66.2123 58.6286L66.4647 58.1926L66.7178 57.7578L66.9579 57.3485L67.171 56.9884L67.3432 56.7016L67.4607 56.5119L67.5094 56.4434L67.525 56.4596L67.5584 56.5069L67.6081 56.5832L67.6731 56.686L67.7518 56.8136L67.8431 56.9636L67.9457 57.1339L68.0581 57.3223L68.1792 57.5267L68.3076 57.745L68.4421 57.9749L68.5812 58.2144L69.6072 59.9853L69.0353 60.003L68.9573 60.0052L68.8811 60.0068L68.8075 60.0078L68.7372 60.0082L68.671 60.0081L68.6098 60.0076L68.5543 60.0064L68.5052 60.0048L68.4635 60.0027L68.4298 60.0001L68.4049 59.9969L68.3896 59.9934L68.3763 59.984L68.357 59.964L68.3322 59.9342L68.3025 59.8951L68.2683 59.8478L68.2303 59.7929L68.189 59.7312L68.1448 59.6637L68.0984 59.5909L68.0503 59.5137L68.0009 59.4329L67.9509 59.3492L67.9011 59.2655L67.8525 59.1847L67.8056 59.1075L67.7608 59.0347L67.7188 58.9671L67.6798 58.9055L67.6446 58.8507L67.6135 58.8035L67.5871 58.7644L67.5659 58.7346L67.5503 58.7146L67.5407 58.7053L67.5311 58.7079L67.5147 58.7222L67.4921 58.7477L67.4639 58.7834L67.4307 58.8287L67.3929 58.8828L67.3511 58.9448L67.3058 59.014L67.2576 59.0896L67.2069 59.1709L67.1545 59.257L67.1006 59.3472L66.7056 60.0159H66.0774L65.9925 60.0157L65.9109 60.0151L65.8335 60.014L65.761 60.0126L65.6942 60.0109L65.6338 60.0089L65.5805 60.0066L65.5352 60.0041L65.4988 60.0014L65.4717 59.9985L65.4549 59.9954L65.4492 59.9922Z" fill="url(#paint83_linear_3022_5134)" fill-opacity="0.1"/>
<path d="M75.3789 56.3516H76.7073V57.4423V57.5923L76.7088 57.7415L76.7103 57.8882L76.7125 58.0305L76.7155 58.167L76.7192 58.2958L76.7229 58.4155L76.7273 58.5242L76.7318 58.6202L76.737 58.7021L76.7422 58.768L76.7474 58.8163L76.7875 59.0997H78.162V60.0157H75.3789V56.3516Z" fill="url(#paint84_linear_3022_5134)"/>
<path d="M75.3789 56.3516H76.7073V57.4423V57.5923L76.7088 57.7415L76.7103 57.8882L76.7125 58.0305L76.7155 58.167L76.7192 58.2958L76.7229 58.4155L76.7273 58.5242L76.7318 58.6202L76.737 58.7021L76.7422 58.768L76.7474 58.8163L76.7875 59.0997H78.162V60.0157H75.3789V56.3516Z" fill="url(#paint85_linear_3022_5134)" fill-opacity="0.1"/>
<path d="M80.0788 59.9403L80.1427 59.8143L80.2668 59.5876L80.4399 59.2813L80.6487 58.9167L80.8805 58.5153L81.1241 58.0982L81.3663 57.6869L81.5944 57.3024L81.7958 56.9664L81.9585 56.6999L82.0699 56.5243L82.1175 56.4609L82.1345 56.477L82.1695 56.5241L82.2207 56.5998L82.2861 56.7022L82.3656 56.8291L82.4577 56.9783L82.561 57.1478L82.6732 57.3353L82.7943 57.5388L82.9228 57.756L83.0565 57.9848L83.1955 58.2232L84.2155 59.9861L83.6449 60.0038L83.5677 60.006L83.4912 60.0075L83.4176 60.0084L83.347 60.0087L83.2809 60.0086L83.22 60.0079L83.1643 60.0066L83.1145 60.0048L83.0721 60.0025L83.038 59.9997L83.0127 59.9964L82.9971 59.9927L82.9837 59.9831L82.9637 59.9629L82.9384 59.933L82.9087 59.8939L82.8745 59.8465L82.8359 59.7915L82.795 59.73L82.7512 59.6624L82.7044 59.5897L82.6568 59.5126L82.6078 59.4319L82.5588 59.3485L82.509 59.265L82.4614 59.1844L82.4146 59.1074L82.3708 59.0348L82.3292 58.9674L82.2906 58.9059L82.2556 58.8513L82.2244 58.8041L82.1984 58.7652L82.1776 58.7354L82.162 58.7155L82.1524 58.7062L82.1427 58.7088L82.1264 58.7231L82.1033 58.7486L82.0751 58.7843L82.0417 58.8296L82.0038 58.8837L81.9614 58.9457L81.9161 59.0149L81.8678 59.0905L81.8166 59.1718L81.7638 59.2579L81.7096 59.3481L81.3106 60.0167H80.0469L80.0788 59.9403Z" fill="url(#paint86_linear_3022_5134)"/>
<path d="M80.0788 59.9403L80.1427 59.8143L80.2668 59.5876L80.4399 59.2813L80.6487 58.9167L80.8805 58.5153L81.1241 58.0982L81.3663 57.6869L81.5944 57.3024L81.7958 56.9664L81.9585 56.6999L82.0699 56.5243L82.1175 56.4609L82.1345 56.477L82.1695 56.5241L82.2207 56.5998L82.2861 56.7022L82.3656 56.8291L82.4577 56.9783L82.561 57.1478L82.6732 57.3353L82.7943 57.5388L82.9228 57.756L83.0565 57.9848L83.1955 58.2232L84.2155 59.9861L83.6449 60.0038L83.5677 60.006L83.4912 60.0075L83.4176 60.0084L83.347 60.0087L83.2809 60.0086L83.22 60.0079L83.1643 60.0066L83.1145 60.0048L83.0721 60.0025L83.038 59.9997L83.0127 59.9964L82.9971 59.9927L82.9837 59.9831L82.9637 59.9629L82.9384 59.933L82.9087 59.8939L82.8745 59.8465L82.8359 59.7915L82.795 59.73L82.7512 59.6624L82.7044 59.5897L82.6568 59.5126L82.6078 59.4319L82.5588 59.3485L82.509 59.265L82.4614 59.1844L82.4146 59.1074L82.3708 59.0348L82.3292 58.9674L82.2906 58.9059L82.2556 58.8513L82.2244 58.8041L82.1984 58.7652L82.1776 58.7354L82.162 58.7155L82.1524 58.7062L82.1427 58.7088L82.1264 58.7231L82.1033 58.7486L82.0751 58.7843L82.0417 58.8296L82.0038 58.8837L81.9614 58.9457L81.9161 59.0149L81.8678 59.0905L81.8166 59.1718L81.7638 59.2579L81.7096 59.3481L81.3106 60.0167H80.0469L80.0788 59.9403Z" fill="url(#paint87_linear_3022_5134)" fill-opacity="0.1"/>
<path d="M85.4336 57.329L85.4707 56.3824L88.4121 56.3496V57.329H87.4633V60.016H86.2612V57.329H85.4336Z" fill="url(#paint88_linear_3022_5134)"/>
<path d="M85.4336 57.329L85.4707 56.3824L88.4121 56.3496V57.329H87.4633V60.016H86.2612V57.329H85.4336Z" fill="url(#paint89_linear_3022_5134)" fill-opacity="0.1"/>
<path d="M90.4136 58.6157L90.6551 58.1923L90.8713 57.8152L91.0615 57.4838L91.2271 57.1978L91.3676 56.9569L91.4835 56.7605L91.5741 56.6085L91.641 56.5003L91.684 56.4356L91.7034 56.4141L91.7487 56.4808L91.8624 56.6658L92.0303 56.9462L92.239 57.2989L92.476 57.7009L92.7271 58.1293L92.9783 58.561L93.2175 58.973L93.4307 59.3424L93.6038 59.6461L93.7242 59.8611L93.7777 59.9645L93.7992 60.0166H92.5392L91.7375 58.6644L91.6536 58.7748L91.6395 58.7949L91.6194 58.8243L91.5949 58.8621L91.5667 58.9077L91.534 58.9601L91.4976 59.0185L91.4589 59.0822L91.4181 59.1502L91.375 59.2217L91.3304 59.296L91.2858 59.3722L91.2398 59.4496L90.9099 60.014L89.6172 60.0166L90.4136 58.6157Z" fill="url(#paint90_linear_3022_5134)"/>
<path d="M90.4136 58.6157L90.6551 58.1923L90.8713 57.8152L91.0615 57.4838L91.2271 57.1978L91.3676 56.9569L91.4835 56.7605L91.5741 56.6085L91.641 56.5003L91.684 56.4356L91.7034 56.4141L91.7487 56.4808L91.8624 56.6658L92.0303 56.9462L92.239 57.2989L92.476 57.7009L92.7271 58.1293L92.9783 58.561L93.2175 58.973L93.4307 59.3424L93.6038 59.6461L93.7242 59.8611L93.7777 59.9645L93.7992 60.0166H92.5392L91.7375 58.6644L91.6536 58.7748L91.6395 58.7949L91.6194 58.8243L91.5949 58.8621L91.5667 58.9077L91.534 58.9601L91.4976 59.0185L91.4589 59.0822L91.4181 59.1502L91.375 59.2217L91.3304 59.296L91.2858 59.3722L91.2398 59.4496L90.9099 60.014L89.6172 60.0166L90.4136 58.6157Z" fill="url(#paint91_linear_3022_5134)" fill-opacity="0.1"/>
</g>
<defs>
<filter id="filter0_d_3022_5134" x="-10.4612" y="17.281" width="136.207" height="63.986" filterUnits="userSpaceOnUse" color-interpolation-filters="sRGB">
<feFlood flood-opacity="0" result="BackgroundImageFix"/>
<feColorMatrix in="SourceAlpha" type="matrix" values="0 0 0 0 0 0 0 0 0 0 0 0 0 0 0 0 0 0 127 0" result="hardAlpha"/>
<feOffset dx="6.80034" dy="6.80034"/>
<feGaussianBlur stdDeviation="11.3339"/>
<feComposite in2="hardAlpha" operator="out"/>
<feColorMatrix type="matrix" values="0 0 0 0 0 0 0 0 0 0 0 0 0 0 0 0 0 0 0.25 0"/>
<feBlend mode="normal" in2="BackgroundImageFix" result="effect1_dropShadow_3022_5134"/>
<feBlend mode="normal" in="SourceGraphic" in2="effect1_dropShadow_3022_5134" result="shape"/>
</filter>
<linearGradient id="paint0_linear_3022_5134" x1="100.631" y1="36.4742" x2="0.641482" y2="36.4742" gradientUnits="userSpaceOnUse">
<stop stop-color="#EE940C"/>
<stop offset="0.463542" stop-color="#FFC800"/>
<stop offset="1" stop-color="#FFF851"/>
</linearGradient>
<linearGradient id="paint1_linear_3022_5134" x1="50.6362" y1="0.390736" x2="50.6362" y2="87.7569" gradientUnits="userSpaceOnUse">
<stop stop-opacity="0"/>
<stop offset="1"/>
</linearGradient>
<linearGradient id="paint2_linear_3022_5134" x1="50.6362" y1="0.390736" x2="50.6362" y2="87.7569" gradientUnits="userSpaceOnUse">
<stop offset="0.078125" stop-color="white" stop-opacity="0"/>
<stop offset="0.479167" stop-color="white"/>
<stop offset="0.651042" stop-color="white" stop-opacity="0"/>
<stop offset="1" stop-color="white" stop-opacity="0"/>
</linearGradient>
<linearGradient id="paint3_linear_3022_5134" x1="100.833" y1="36.6128" x2="0.84375" y2="36.6128" gradientUnits="userSpaceOnUse">
<stop stop-color="#EE940C"/>
<stop offset="0.463542" stop-color="#FFC800"/>
<stop offset="1" stop-color="#FFF851"/>
</linearGradient>
<linearGradient id="paint4_linear_3022_5134" x1="50.8385" y1="0.529297" x2="50.8385" y2="87.8958" gradientUnits="userSpaceOnUse">
<stop stop-opacity="0"/>
<stop offset="1"/>
</linearGradient>
<linearGradient id="paint5_linear_3022_5134" x1="50.8385" y1="0.529297" x2="50.8385" y2="87.8958" gradientUnits="userSpaceOnUse">
<stop offset="0.078125" stop-color="white" stop-opacity="0"/>
<stop offset="0.479167" stop-color="white"/>
<stop offset="0.651042" stop-color="white" stop-opacity="0"/>
<stop offset="1" stop-color="white" stop-opacity="0"/>
</linearGradient>
<linearGradient id="paint6_linear_3022_5134" x1="19.3681" y1="68.1206" x2="31.1555" y2="62.608" gradientUnits="userSpaceOnUse">
<stop stop-color="#FFF851" stop-opacity="0"/>
<stop offset="0.451569" stop-color="#FFF851"/>
<stop offset="1" stop-color="#FFF851" stop-opacity="0"/>
</linearGradient>
<linearGradient id="paint7_linear_3022_5134" x1="6.07447" y1="51.7997" x2="96.2782" y2="51.7997" gradientUnits="userSpaceOnUse">
<stop/>
<stop offset="1" stop-color="#383838"/>
</linearGradient>
<linearGradient id="paint8_linear_3022_5134" x1="6.07346" y1="51.7997" x2="96.2771" y2="51.7997" gradientUnits="userSpaceOnUse">
<stop/>
<stop offset="1" stop-color="#383838"/>
</linearGradient>
<linearGradient id="paint9_linear_3022_5134" x1="6.07312" y1="51.7997" x2="96.2768" y2="51.7997" gradientUnits="userSpaceOnUse">
<stop/>
<stop offset="1" stop-color="#383838"/>
</linearGradient>
<linearGradient id="paint10_linear_3022_5134" x1="6.07504" y1="51.7997" x2="96.2787" y2="51.7997" gradientUnits="userSpaceOnUse">
<stop/>
<stop offset="1" stop-color="#383838"/>
</linearGradient>
<linearGradient id="paint11_linear_3022_5134" x1="6.07498" y1="51.7997" x2="96.2787" y2="51.7997" gradientUnits="userSpaceOnUse">
<stop/>
<stop offset="1" stop-color="#383838"/>
</linearGradient>
<linearGradient id="paint12_linear_3022_5134" x1="6.07571" y1="51.7997" x2="96.2793" y2="51.7997" gradientUnits="userSpaceOnUse">
<stop/>
<stop offset="1" stop-color="#383838"/>
</linearGradient>
<linearGradient id="paint13_linear_3022_5134" x1="5.40625" y1="51.7997" x2="96.2782" y2="51.7997" gradientUnits="userSpaceOnUse">
<stop stop-color="#454545"/>
<stop offset="1"/>
</linearGradient>
<linearGradient id="paint14_linear_3022_5134" x1="50.8423" y1="33.1484" x2="50.8423" y2="51.7997" gradientUnits="userSpaceOnUse">
<stop stop-opacity="0"/>
<stop offset="1"/>
</linearGradient>
<linearGradient id="paint15_linear_3022_5134" x1="50.8423" y1="33.1484" x2="50.8423" y2="51.7997" gradientUnits="userSpaceOnUse">
<stop offset="0.078125" stop-color="#ACACAC" stop-opacity="0"/>
<stop offset="0.46875" stop-color="#ACACAC"/>
<stop offset="0.802083" stop-color="#ACACAC" stop-opacity="0"/>
<stop offset="1" stop-color="white" stop-opacity="0"/>
</linearGradient>
<linearGradient id="paint16_linear_3022_5134" x1="5.4055" y1="51.7997" x2="96.2774" y2="51.7997" gradientUnits="userSpaceOnUse">
<stop stop-color="#454545"/>
<stop offset="1"/>
</linearGradient>
<linearGradient id="paint17_linear_3022_5134" x1="50.8416" y1="33.1484" x2="50.8416" y2="51.7997" gradientUnits="userSpaceOnUse">
<stop stop-opacity="0"/>
<stop offset="1"/>
</linearGradient>
<linearGradient id="paint18_linear_3022_5134" x1="50.8416" y1="33.1484" x2="50.8416" y2="51.7997" gradientUnits="userSpaceOnUse">
<stop offset="0.078125" stop-color="#ACACAC" stop-opacity="0"/>
<stop offset="0.46875" stop-color="#ACACAC"/>
<stop offset="0.802083" stop-color="#ACACAC" stop-opacity="0"/>
<stop offset="1" stop-color="white" stop-opacity="0"/>
</linearGradient>
<linearGradient id="paint19_linear_3022_5134" x1="5.4049" y1="51.7997" x2="96.2768" y2="51.7997" gradientUnits="userSpaceOnUse">
<stop stop-color="#454545"/>
<stop offset="1"/>
</linearGradient>
<linearGradient id="paint20_linear_3022_5134" x1="50.841" y1="33.1484" x2="50.841" y2="51.7997" gradientUnits="userSpaceOnUse">
<stop stop-opacity="0"/>
<stop offset="1"/>
</linearGradient>
<linearGradient id="paint21_linear_3022_5134" x1="50.841" y1="33.1484" x2="50.841" y2="51.7997" gradientUnits="userSpaceOnUse">
<stop offset="0.078125" stop-color="#ACACAC" stop-opacity="0"/>
<stop offset="0.46875" stop-color="#ACACAC"/>
<stop offset="0.802083" stop-color="#ACACAC" stop-opacity="0"/>
<stop offset="1" stop-color="white" stop-opacity="0"/>
</linearGradient>
<linearGradient id="paint22_linear_3022_5134" x1="5.40418" y1="51.7997" x2="96.2761" y2="51.7997" gradientUnits="userSpaceOnUse">
<stop stop-color="#454545"/>
<stop offset="1"/>
</linearGradient>
<linearGradient id="paint23_linear_3022_5134" x1="50.8403" y1="33.1484" x2="50.8403" y2="51.7997" gradientUnits="userSpaceOnUse">
<stop stop-opacity="0"/>
<stop offset="1"/>
</linearGradient>
<linearGradient id="paint24_linear_3022_5134" x1="50.8403" y1="33.1484" x2="50.8403" y2="51.7997" gradientUnits="userSpaceOnUse">
<stop offset="0.078125" stop-color="#ACACAC" stop-opacity="0"/>
<stop offset="0.46875" stop-color="#ACACAC"/>
<stop offset="0.802083" stop-color="#ACACAC" stop-opacity="0"/>
<stop offset="1" stop-color="white" stop-opacity="0"/>
</linearGradient>
<linearGradient id="paint25_linear_3022_5134" x1="5.40356" y1="51.7997" x2="96.2755" y2="51.7997" gradientUnits="userSpaceOnUse">
<stop stop-color="#454545"/>
<stop offset="1"/>
</linearGradient>
<linearGradient id="paint26_linear_3022_5134" x1="50.8397" y1="33.1484" x2="50.8397" y2="51.7997" gradientUnits="userSpaceOnUse">
<stop stop-opacity="0"/>
<stop offset="1"/>
</linearGradient>
<linearGradient id="paint27_linear_3022_5134" x1="50.8397" y1="33.1484" x2="50.8397" y2="51.7997" gradientUnits="userSpaceOnUse">
<stop offset="0.078125" stop-color="#ACACAC" stop-opacity="0"/>
<stop offset="0.46875" stop-color="#ACACAC"/>
<stop offset="0.802083" stop-color="#ACACAC" stop-opacity="0"/>
<stop offset="1" stop-color="white" stop-opacity="0"/>
</linearGradient>
<linearGradient id="paint28_linear_3022_5134" x1="5.40676" y1="51.7997" x2="96.2787" y2="51.7997" gradientUnits="userSpaceOnUse">
<stop stop-color="#454545"/>
<stop offset="1"/>
</linearGradient>
<linearGradient id="paint29_linear_3022_5134" x1="50.8429" y1="33.1484" x2="50.8429" y2="51.7997" gradientUnits="userSpaceOnUse">
<stop stop-opacity="0"/>
<stop offset="1"/>
</linearGradient>
<linearGradient id="paint30_linear_3022_5134" x1="50.8429" y1="33.1484" x2="50.8429" y2="51.7997" gradientUnits="userSpaceOnUse">
<stop offset="0.078125" stop-color="#ACACAC" stop-opacity="0"/>
<stop offset="0.46875" stop-color="#ACACAC"/>
<stop offset="0.802083" stop-color="#ACACAC" stop-opacity="0"/>
<stop offset="1" stop-color="white" stop-opacity="0"/>
</linearGradient>
<linearGradient id="paint31_linear_3022_5134" x1="8.50534" y1="60.0598" x2="92.5387" y2="60.0598" gradientUnits="userSpaceOnUse">
<stop/>
<stop offset="1" stop-color="#383838"/>
</linearGradient>
<linearGradient id="paint32_linear_3022_5134" x1="8.50606" y1="60.06" x2="92.5394" y2="60.06" gradientUnits="userSpaceOnUse">
<stop/>
<stop offset="1" stop-color="#383838"/>
</linearGradient>
<linearGradient id="paint33_linear_3022_5134" x1="8.50557" y1="60.0593" x2="92.5389" y2="60.0593" gradientUnits="userSpaceOnUse">
<stop/>
<stop offset="1" stop-color="#383838"/>
</linearGradient>
<linearGradient id="paint34_linear_3022_5134" x1="8.50629" y1="60.0593" x2="92.5396" y2="60.0593" gradientUnits="userSpaceOnUse">
<stop/>
<stop offset="1" stop-color="#383838"/>
</linearGradient>
<linearGradient id="paint35_linear_3022_5134" x1="8.50613" y1="60.0591" x2="92.5395" y2="60.0591" gradientUnits="userSpaceOnUse">
<stop/>
<stop offset="1" stop-color="#383838"/>
</linearGradient>
<linearGradient id="paint36_linear_3022_5134" x1="8.50772" y1="60.0593" x2="92.5411" y2="60.0593" gradientUnits="userSpaceOnUse">
<stop/>
<stop offset="1" stop-color="#383838"/>
</linearGradient>
<linearGradient id="paint37_linear_3022_5134" x1="8.50586" y1="60.0597" x2="92.5391" y2="60.0597" gradientUnits="userSpaceOnUse">
<stop/>
<stop offset="1" stop-color="#383838"/>
</linearGradient>
<linearGradient id="paint38_linear_3022_5134" x1="8.5047" y1="60.0599" x2="92.5381" y2="60.0599" gradientUnits="userSpaceOnUse">
<stop/>
<stop offset="1" stop-color="#383838"/>
</linearGradient>
<linearGradient id="paint39_linear_3022_5134" x1="8.50631" y1="60.0593" x2="92.5396" y2="60.0593" gradientUnits="userSpaceOnUse">
<stop/>
<stop offset="1" stop-color="#383838"/>
</linearGradient>
<linearGradient id="paint40_linear_3022_5134" x1="8.50532" y1="60.059" x2="92.5387" y2="60.059" gradientUnits="userSpaceOnUse">
<stop/>
<stop offset="1" stop-color="#383838"/>
</linearGradient>
<linearGradient id="paint41_linear_3022_5134" x1="8.50393" y1="60.0582" x2="92.5373" y2="60.0582" gradientUnits="userSpaceOnUse">
<stop/>
<stop offset="1" stop-color="#383838"/>
</linearGradient>
<linearGradient id="paint42_linear_3022_5134" x1="8.50398" y1="60.0583" x2="92.5372" y2="60.0583" gradientUnits="userSpaceOnUse">
<stop/>
<stop offset="1" stop-color="#383838"/>
</linearGradient>
<linearGradient id="paint43_linear_3022_5134" x1="8.50423" y1="60.0588" x2="92.5377" y2="60.0588" gradientUnits="userSpaceOnUse">
<stop/>
<stop offset="1" stop-color="#383838"/>
</linearGradient>
<linearGradient id="paint44_linear_3022_5134" x1="8.50545" y1="60.0601" x2="92.5386" y2="60.0601" gradientUnits="userSpaceOnUse">
<stop/>
<stop offset="1" stop-color="#383838"/>
</linearGradient>
<linearGradient id="paint45_linear_3022_5134" x1="8.50438" y1="60.0593" x2="92.5376" y2="60.0593" gradientUnits="userSpaceOnUse">
<stop/>
<stop offset="1" stop-color="#383838"/>
</linearGradient>
<linearGradient id="paint46_linear_3022_5134" x1="8.50773" y1="60.06" x2="92.541" y2="60.06" gradientUnits="userSpaceOnUse">
<stop/>
<stop offset="1" stop-color="#383838"/>
</linearGradient>
<linearGradient id="paint47_linear_3022_5134" x1="8.50502" y1="60.0586" x2="92.5383" y2="60.0586" gradientUnits="userSpaceOnUse">
<stop/>
<stop offset="1" stop-color="#383838"/>
</linearGradient>
<linearGradient id="paint48_linear_3022_5134" x1="8.50532" y1="60.0599" x2="92.5388" y2="60.0599" gradientUnits="userSpaceOnUse">
<stop/>
<stop offset="1" stop-color="#383838"/>
</linearGradient>
<linearGradient id="paint49_linear_3022_5134" x1="8.50385" y1="60.0588" x2="92.5372" y2="60.0588" gradientUnits="userSpaceOnUse">
<stop/>
<stop offset="1" stop-color="#383838"/>
</linearGradient>
<linearGradient id="paint50_linear_3022_5134" x1="8.50519" y1="60.0583" x2="92.5387" y2="60.0583" gradientUnits="userSpaceOnUse">
<stop/>
<stop offset="1" stop-color="#383838"/>
</linearGradient>
<linearGradient id="paint51_linear_3022_5134" x1="8.50688" y1="60.0601" x2="92.5401" y2="60.0601" gradientUnits="userSpaceOnUse">
<stop/>
<stop offset="1" stop-color="#383838"/>
</linearGradient>
<linearGradient id="paint52_linear_3022_5134" x1="8.50701" y1="60.0593" x2="92.5404" y2="60.0593" gradientUnits="userSpaceOnUse">
<stop/>
<stop offset="1" stop-color="#383838"/>
</linearGradient>
<linearGradient id="paint53_linear_3022_5134" x1="8.50715" y1="60.0601" x2="92.5405" y2="60.0601" gradientUnits="userSpaceOnUse">
<stop/>
<stop offset="1" stop-color="#383838"/>
</linearGradient>
<linearGradient id="paint54_linear_3022_5134" x1="8.50709" y1="60.0593" x2="92.5406" y2="60.0593" gradientUnits="userSpaceOnUse">
<stop/>
<stop offset="1" stop-color="#383838"/>
</linearGradient>
<linearGradient id="paint55_linear_3022_5134" x1="8.50626" y1="60.0595" x2="92.5397" y2="60.0595" gradientUnits="userSpaceOnUse">
<stop/>
<stop offset="1" stop-color="#383838"/>
</linearGradient>
<linearGradient id="paint56_linear_3022_5134" x1="8.50448" y1="60.0585" x2="92.5377" y2="60.0585" gradientUnits="userSpaceOnUse">
<stop/>
<stop offset="1" stop-color="#383838"/>
</linearGradient>
<linearGradient id="paint57_linear_3022_5134" x1="8.50767" y1="60.0587" x2="92.541" y2="60.0587" gradientUnits="userSpaceOnUse">
<stop/>
<stop offset="1" stop-color="#383838"/>
</linearGradient>
<linearGradient id="paint58_linear_3022_5134" x1="8.50536" y1="60.0597" x2="92.5387" y2="60.0597" gradientUnits="userSpaceOnUse">
<stop/>
<stop offset="1" stop-color="#383838"/>
</linearGradient>
<linearGradient id="paint59_linear_3022_5134" x1="8.50546" y1="60.0596" x2="92.5389" y2="60.0596" gradientUnits="userSpaceOnUse">
<stop/>
<stop offset="1" stop-color="#383838"/>
</linearGradient>
<linearGradient id="paint60_linear_3022_5134" x1="7.88281" y1="60.0658" x2="93.7987" y2="60.0658" gradientUnits="userSpaceOnUse">
<stop stop-color="#454545"/>
<stop offset="1"/>
</linearGradient>
<linearGradient id="paint61_linear_3022_5134" x1="50.8406" y1="56.3475" x2="50.8406" y2="60.0658" gradientUnits="userSpaceOnUse">
<stop stop-opacity="0"/>
<stop offset="1"/>
</linearGradient>
<linearGradient id="paint62_linear_3022_5134" x1="7.88196" y1="60.0659" x2="93.7979" y2="60.0659" gradientUnits="userSpaceOnUse">
<stop stop-color="#454545"/>
<stop offset="1"/>
</linearGradient>
<linearGradient id="paint63_linear_3022_5134" x1="50.8398" y1="56.3477" x2="50.8398" y2="60.0659" gradientUnits="userSpaceOnUse">
<stop stop-opacity="0"/>
<stop offset="1"/>
</linearGradient>
<linearGradient id="paint64_linear_3022_5134" x1="7.88455" y1="60.0651" x2="93.8005" y2="60.0651" gradientUnits="userSpaceOnUse">
<stop stop-color="#454545"/>
<stop offset="1"/>
</linearGradient>
<linearGradient id="paint65_linear_3022_5134" x1="50.8424" y1="56.3468" x2="50.8424" y2="60.0651" gradientUnits="userSpaceOnUse">
<stop stop-opacity="0"/>
<stop offset="1"/>
</linearGradient>
<linearGradient id="paint66_linear_3022_5134" x1="7.88377" y1="60.0651" x2="93.7997" y2="60.0651" gradientUnits="userSpaceOnUse">
<stop stop-color="#454545"/>
<stop offset="1"/>
</linearGradient>
<linearGradient id="paint67_linear_3022_5134" x1="50.8416" y1="56.3468" x2="50.8416" y2="60.0651" gradientUnits="userSpaceOnUse">
<stop stop-opacity="0"/>
<stop offset="1"/>
</linearGradient>
<linearGradient id="paint68_linear_3022_5134" x1="7.88211" y1="60.0645" x2="93.798" y2="60.0645" gradientUnits="userSpaceOnUse">
<stop stop-color="#454545"/>
<stop offset="1"/>
</linearGradient>
<linearGradient id="paint69_linear_3022_5134" x1="50.8399" y1="56.3462" x2="50.8399" y2="60.0645" gradientUnits="userSpaceOnUse">
<stop stop-opacity="0"/>
<stop offset="1"/>
</linearGradient>
<linearGradient id="paint70_linear_3022_5134" x1="7.8852" y1="60.0651" x2="93.8011" y2="60.0651" gradientUnits="userSpaceOnUse">
<stop stop-color="#454545"/>
<stop offset="1"/>
</linearGradient>
<linearGradient id="paint71_linear_3022_5134" x1="50.843" y1="56.3468" x2="50.843" y2="60.0651" gradientUnits="userSpaceOnUse">
<stop stop-opacity="0"/>
<stop offset="1"/>
</linearGradient>
<linearGradient id="paint72_linear_3022_5134" x1="7.88224" y1="60.0655" x2="93.7981" y2="60.0655" gradientUnits="userSpaceOnUse">
<stop stop-color="#454545"/>
<stop offset="1"/>
</linearGradient>
<linearGradient id="paint73_linear_3022_5134" x1="50.84" y1="56.3473" x2="50.84" y2="60.0655" gradientUnits="userSpaceOnUse">
<stop stop-opacity="0"/>
<stop offset="1"/>
</linearGradient>
<linearGradient id="paint74_linear_3022_5134" x1="7.88356" y1="60.0651" x2="93.7994" y2="60.0651" gradientUnits="userSpaceOnUse">
<stop stop-color="#454545"/>
<stop offset="1"/>
</linearGradient>
<linearGradient id="paint75_linear_3022_5134" x1="50.8413" y1="56.3468" x2="50.8413" y2="60.0651" gradientUnits="userSpaceOnUse">
<stop stop-opacity="0"/>
<stop offset="1"/>
</linearGradient>
<linearGradient id="paint76_linear_3022_5134" x1="7.88141" y1="60.066" x2="93.7973" y2="60.066" gradientUnits="userSpaceOnUse">
<stop stop-color="#454545"/>
<stop offset="1"/>
</linearGradient>
<linearGradient id="paint77_linear_3022_5134" x1="50.8392" y1="56.3478" x2="50.8392" y2="60.066" gradientUnits="userSpaceOnUse">
<stop stop-opacity="0"/>
<stop offset="1"/>
</linearGradient>
<linearGradient id="paint78_linear_3022_5134" x1="7.88385" y1="60.0651" x2="93.7997" y2="60.0651" gradientUnits="userSpaceOnUse">
<stop stop-color="#454545"/>
<stop offset="1"/>
</linearGradient>
<linearGradient id="paint79_linear_3022_5134" x1="50.8416" y1="56.3468" x2="50.8416" y2="60.0651" gradientUnits="userSpaceOnUse">
<stop stop-opacity="0"/>
<stop offset="1"/>
</linearGradient>
<linearGradient id="paint80_linear_3022_5134" x1="7.88245" y1="60.0659" x2="93.7984" y2="60.0659" gradientUnits="userSpaceOnUse">
<stop stop-color="#454545"/>
<stop offset="1"/>
</linearGradient>
<linearGradient id="paint81_linear_3022_5134" x1="50.8403" y1="56.3477" x2="50.8403" y2="60.0659" gradientUnits="userSpaceOnUse">
<stop stop-opacity="0"/>
<stop offset="1"/>
</linearGradient>
<linearGradient id="paint82_linear_3022_5134" x1="7.884" y1="60.0653" x2="93.7999" y2="60.0653" gradientUnits="userSpaceOnUse">
<stop stop-color="#454545"/>
<stop offset="1"/>
</linearGradient>
<linearGradient id="paint83_linear_3022_5134" x1="50.8418" y1="56.347" x2="50.8418" y2="60.0653" gradientUnits="userSpaceOnUse">
<stop stop-opacity="0"/>
<stop offset="1"/>
</linearGradient>
<linearGradient id="paint84_linear_3022_5134" x1="7.88209" y1="60.0651" x2="93.7979" y2="60.0651" gradientUnits="userSpaceOnUse">
<stop stop-color="#454545"/>
<stop offset="1"/>
</linearGradient>
<linearGradient id="paint85_linear_3022_5134" x1="50.8399" y1="56.3468" x2="50.8399" y2="60.0651" gradientUnits="userSpaceOnUse">
<stop stop-opacity="0"/>
<stop offset="1"/>
</linearGradient>
<linearGradient id="paint86_linear_3022_5134" x1="7.88285" y1="60.066" x2="93.7987" y2="60.066" gradientUnits="userSpaceOnUse">
<stop stop-color="#454545"/>
<stop offset="1"/>
</linearGradient>
<linearGradient id="paint87_linear_3022_5134" x1="50.8406" y1="56.3478" x2="50.8406" y2="60.066" gradientUnits="userSpaceOnUse">
<stop stop-opacity="0"/>
<stop offset="1"/>
</linearGradient>
<linearGradient id="paint88_linear_3022_5134" x1="7.8838" y1="60.0654" x2="93.7999" y2="60.0654" gradientUnits="userSpaceOnUse">
<stop stop-color="#454545"/>
<stop offset="1"/>
</linearGradient>
<linearGradient id="paint89_linear_3022_5134" x1="50.8417" y1="56.3471" x2="50.8417" y2="60.0654" gradientUnits="userSpaceOnUse">
<stop stop-opacity="0"/>
<stop offset="1"/>
</linearGradient>
<linearGradient id="paint90_linear_3022_5134" x1="7.88326" y1="60.066" x2="93.7992" y2="60.066" gradientUnits="userSpaceOnUse">
<stop stop-color="#454545"/>
<stop offset="1"/>
</linearGradient>
<linearGradient id="paint91_linear_3022_5134" x1="50.8411" y1="56.3477" x2="50.8411" y2="60.066" gradientUnits="userSpaceOnUse">
<stop stop-opacity="0"/>
<stop offset="1"/>
</linearGradient>
<clipPath id="clip0_3022_5134">
<rect width="100" height="87.3737" fill="white" transform="translate(0.84375 0.521484)"/>
</clipPath>
</defs>
</svg>
