<svg width="430" height="230" viewBox="0 0 430 230" fill="none" xmlns="http://www.w3.org/2000/svg">
<rect width="430" height="230" fill="#121011"/>
<path d="M55.7656 129.73C55.7677 131.682 56.5442 133.554 57.9249 134.935C59.3056 136.316 61.1776 137.092 63.1301 137.094H83.671L83.0572 142.004H75.4043C74.7532 142.004 74.1288 142.263 73.6685 142.723C73.2081 143.183 72.9495 143.808 72.9495 144.459C72.9495 145.11 73.2081 145.734 73.6685 146.195C74.1288 146.655 74.7532 146.914 75.4043 146.914H109.772C110.423 146.914 111.047 146.655 111.508 146.195C111.968 145.734 112.227 145.11 112.227 144.459C112.227 143.808 111.968 143.183 111.508 142.723C111.047 142.263 110.423 142.004 109.772 142.004H102.119L101.505 137.094H122.046C123.999 137.092 125.871 136.316 127.251 134.935C128.632 133.554 129.409 131.682 129.411 129.73V122.365H55.7656V129.73ZM92.5881 127.275C93.0737 127.275 93.5483 127.419 93.952 127.689C94.3557 127.958 94.6703 128.342 94.8561 128.79C95.0419 129.239 95.0905 129.732 94.9958 130.209C94.9011 130.685 94.6673 131.122 94.324 131.466C93.9807 131.809 93.5432 132.043 93.0671 132.137C92.5909 132.232 92.0973 132.184 91.6487 131.998C91.2001 131.812 90.8168 131.497 90.547 131.094C90.2773 130.69 90.1333 130.215 90.1333 129.73C90.1333 129.079 90.3919 128.454 90.8523 127.994C91.3127 127.534 91.9371 127.275 92.5881 127.275Z" fill="#FFE500"/>
<path d="M129.411 90.4524C129.409 88.4998 128.632 86.6278 127.251 85.2471C125.871 83.8665 123.999 83.0899 122.046 83.0879H63.1301C61.1776 83.0899 59.3056 83.8665 57.9249 85.2471C56.5442 86.6278 55.7677 88.4998 55.7656 90.4524V119.91H129.411V90.4524Z" fill="#FFE500"/>
<path d="M154.95 103.92V127.029H149.379V103.92H154.95ZM163.933 113.538V117.824H153.363V113.538H163.933ZM164.838 103.92V108.221H153.363V103.92H164.838Z" fill="white"/>
<path d="M172.584 109.856V127.029H167.22V109.856H172.584ZM166.902 105.428C166.902 104.666 167.177 104.042 167.727 103.555C168.278 103.068 168.992 102.825 169.87 102.825C170.748 102.825 171.463 103.068 172.013 103.555C172.563 104.042 172.838 104.666 172.838 105.428C172.838 106.19 172.563 106.814 172.013 107.301C171.463 107.788 170.748 108.031 169.87 108.031C168.992 108.031 168.278 107.788 167.727 107.301C167.177 106.814 166.902 106.19 166.902 105.428Z" fill="white"/>
<path d="M181.568 102.65V127.029H176.204V102.65H181.568Z" fill="white"/>
<path d="M190.299 113.491V127.029H184.95V109.856H189.965L190.299 113.491ZM189.648 117.856L188.426 117.887C188.426 116.681 188.569 115.57 188.854 114.554C189.14 113.538 189.563 112.655 190.124 111.904C190.685 111.152 191.373 110.57 192.187 110.158C193.013 109.745 193.965 109.539 195.044 109.539C195.796 109.539 196.478 109.655 197.092 109.888C197.705 110.11 198.235 110.465 198.679 110.951C199.123 111.427 199.462 112.052 199.695 112.824C199.938 113.586 200.06 114.501 200.06 115.57V127.029H194.711V116.252C194.711 115.522 194.626 114.972 194.457 114.602C194.298 114.231 194.066 113.983 193.759 113.856C193.452 113.729 193.076 113.665 192.632 113.665C192.166 113.665 191.748 113.771 191.378 113.983C191.008 114.194 190.69 114.491 190.426 114.872C190.172 115.242 189.976 115.681 189.838 116.189C189.711 116.697 189.648 117.252 189.648 117.856ZM199.457 117.856L197.965 117.887C197.965 116.681 198.097 115.57 198.361 114.554C198.637 113.538 199.044 112.655 199.584 111.904C200.134 111.152 200.816 110.57 201.631 110.158C202.446 109.745 203.393 109.539 204.472 109.539C205.255 109.539 205.975 109.655 206.631 109.888C207.287 110.121 207.853 110.496 208.329 111.015C208.805 111.533 209.175 112.221 209.44 113.078C209.704 113.925 209.837 114.972 209.837 116.221V127.029H204.472V116.221C204.472 115.512 204.387 114.977 204.218 114.618C204.059 114.247 203.827 113.999 203.52 113.872C203.213 113.734 202.848 113.665 202.425 113.665C201.917 113.665 201.478 113.771 201.107 113.983C200.737 114.194 200.425 114.491 200.171 114.872C199.927 115.242 199.748 115.681 199.631 116.189C199.515 116.697 199.457 117.252 199.457 117.856Z" fill="white"/>
<path d="M225.805 113.523V127.029H221.234V109.856H225.52L225.805 113.523ZM225.139 117.84H223.901C223.901 116.57 224.065 115.427 224.393 114.411C224.721 113.385 225.181 112.512 225.774 111.793C226.366 111.062 227.07 110.507 227.884 110.126C228.71 109.734 229.63 109.539 230.646 109.539C231.45 109.539 232.186 109.655 232.852 109.888C233.519 110.121 234.09 110.491 234.567 110.999C235.053 111.507 235.424 112.179 235.678 113.015C235.942 113.851 236.074 114.872 236.074 116.078V127.029H231.472V116.062C231.472 115.3 231.366 114.708 231.154 114.284C230.942 113.861 230.63 113.565 230.218 113.396C229.816 113.216 229.318 113.126 228.726 113.126C228.112 113.126 227.578 113.247 227.123 113.491C226.678 113.734 226.308 114.073 226.012 114.507C225.726 114.93 225.509 115.427 225.361 115.999C225.213 116.57 225.139 117.184 225.139 117.84Z" fill="white"/>
<path d="M248.852 123.157V115.507C248.852 114.956 248.762 114.485 248.582 114.094C248.402 113.692 248.122 113.38 247.741 113.158C247.37 112.935 246.889 112.824 246.297 112.824C245.789 112.824 245.349 112.914 244.979 113.094C244.609 113.263 244.323 113.512 244.122 113.84C243.921 114.157 243.821 114.533 243.821 114.967H239.249C239.249 114.237 239.419 113.544 239.757 112.888C240.096 112.232 240.588 111.655 241.233 111.158C241.879 110.65 242.646 110.253 243.535 109.967C244.434 109.682 245.439 109.539 246.55 109.539C247.884 109.539 249.069 109.761 250.106 110.205C251.143 110.65 251.957 111.316 252.55 112.205C253.153 113.094 253.455 114.205 253.455 115.538V122.887C253.455 123.829 253.513 124.601 253.629 125.204C253.746 125.797 253.915 126.315 254.137 126.76V127.029H249.518C249.296 126.564 249.127 125.982 249.011 125.284C248.905 124.575 248.852 123.866 248.852 123.157ZM249.455 116.57L249.487 119.157H246.931C246.328 119.157 245.804 119.226 245.36 119.363C244.916 119.501 244.551 119.697 244.265 119.951C243.979 120.194 243.768 120.48 243.63 120.808C243.503 121.136 243.44 121.495 243.44 121.887C243.44 122.278 243.53 122.633 243.709 122.95C243.889 123.257 244.149 123.501 244.487 123.68C244.826 123.85 245.223 123.934 245.678 123.934C246.365 123.934 246.963 123.797 247.471 123.522C247.979 123.247 248.37 122.908 248.646 122.506C248.931 122.104 249.079 121.723 249.09 121.363L250.296 123.3C250.127 123.733 249.894 124.183 249.598 124.649C249.312 125.114 248.947 125.553 248.503 125.966C248.058 126.368 247.524 126.701 246.9 126.966C246.275 127.22 245.535 127.347 244.678 127.347C243.588 127.347 242.598 127.13 241.71 126.696C240.831 126.252 240.133 125.643 239.614 124.871C239.107 124.088 238.853 123.199 238.853 122.204C238.853 121.305 239.022 120.506 239.361 119.808C239.699 119.109 240.196 118.522 240.852 118.046C241.519 117.559 242.35 117.194 243.344 116.951C244.339 116.697 245.492 116.57 246.804 116.57H249.455Z" fill="white"/>
<path d="M270.042 122.585L273.613 109.856H276.518L275.581 114.856L272.01 127.029H269.582L270.042 122.585ZM268.233 109.856L270.788 122.569L271.026 127.029H268.169L263.82 109.856H268.233ZM279.787 122.363L282.279 109.856H286.708L282.359 127.029H279.518L279.787 122.363ZM276.915 109.856L280.47 122.49L280.962 127.029H278.518L274.947 114.872L274.042 109.856H276.915Z" fill="#D20000"/>
<path d="M293.866 109.856V127.029H289.28V109.856H293.866ZM288.994 105.38C288.994 104.714 289.227 104.163 289.692 103.73C290.158 103.296 290.782 103.079 291.565 103.079C292.338 103.079 292.957 103.296 293.422 103.73C293.898 104.163 294.136 104.714 294.136 105.38C294.136 106.047 293.898 106.597 293.422 107.031C292.957 107.465 292.338 107.682 291.565 107.682C290.782 107.682 290.158 107.465 289.692 107.031C289.227 106.597 288.994 106.047 288.994 105.38Z" fill="#D20000"/>
<path d="M305.581 127.347C304.247 127.347 303.052 127.135 301.994 126.712C300.935 126.278 300.036 125.68 299.295 124.918C298.565 124.157 298.004 123.273 297.613 122.268C297.221 121.252 297.026 120.173 297.026 119.03V118.395C297.026 117.094 297.211 115.903 297.581 114.824C297.952 113.745 298.481 112.808 299.168 112.015C299.867 111.221 300.713 110.613 301.708 110.189C302.703 109.756 303.824 109.539 305.073 109.539C306.29 109.539 307.369 109.74 308.311 110.142C309.252 110.544 310.041 111.115 310.675 111.856C311.321 112.597 311.808 113.486 312.136 114.522C312.464 115.549 312.628 116.692 312.628 117.951V119.855H298.978V116.808H308.136V116.459C308.136 115.824 308.02 115.258 307.787 114.761C307.565 114.253 307.226 113.851 306.771 113.554C306.316 113.258 305.734 113.11 305.025 113.11C304.422 113.11 303.903 113.242 303.47 113.507C303.036 113.771 302.681 114.142 302.406 114.618C302.142 115.094 301.941 115.655 301.803 116.3C301.676 116.935 301.613 117.633 301.613 118.395V119.03C301.613 119.718 301.708 120.353 301.898 120.935C302.099 121.517 302.38 122.019 302.74 122.442C303.11 122.866 303.554 123.194 304.073 123.427C304.602 123.659 305.2 123.776 305.866 123.776C306.692 123.776 307.459 123.617 308.168 123.3C308.887 122.972 309.506 122.48 310.025 121.823L312.247 124.236C311.887 124.754 311.395 125.252 310.771 125.728C310.157 126.204 309.416 126.596 308.549 126.902C307.681 127.199 306.692 127.347 305.581 127.347Z" fill="#D20000"/>
<path d="M322.358 123.776C322.919 123.776 323.416 123.67 323.85 123.458C324.284 123.236 324.622 122.929 324.866 122.538C325.12 122.136 325.252 121.665 325.262 121.125H329.564C329.553 122.331 329.23 123.405 328.595 124.347C327.961 125.278 327.109 126.014 326.04 126.553C324.971 127.082 323.776 127.347 322.453 127.347C321.12 127.347 319.956 127.125 318.961 126.68C317.977 126.236 317.157 125.622 316.501 124.839C315.845 124.046 315.353 123.125 315.025 122.077C314.697 121.019 314.533 119.887 314.533 118.681V118.221C314.533 117.004 314.697 115.872 315.025 114.824C315.353 113.766 315.845 112.845 316.501 112.062C317.157 111.269 317.977 110.65 318.961 110.205C319.945 109.761 321.099 109.539 322.421 109.539C323.829 109.539 325.061 109.809 326.119 110.348C327.188 110.888 328.024 111.66 328.627 112.665C329.241 113.66 329.553 114.84 329.564 116.205H325.262C325.252 115.634 325.13 115.115 324.897 114.649C324.675 114.184 324.347 113.814 323.913 113.538C323.49 113.253 322.966 113.11 322.342 113.11C321.675 113.11 321.13 113.253 320.707 113.538C320.284 113.814 319.956 114.194 319.723 114.681C319.49 115.157 319.326 115.702 319.231 116.316C319.146 116.919 319.104 117.554 319.104 118.221V118.681C319.104 119.347 319.146 119.988 319.231 120.601C319.316 121.215 319.474 121.76 319.707 122.236C319.951 122.712 320.284 123.088 320.707 123.363C321.13 123.638 321.681 123.776 322.358 123.776Z" fill="#D20000"/>
<path d="M345.912 123.458V127.029H332.866V123.458H345.912ZM345.658 112.491L334.707 127.029H331.644V124.315L342.547 109.856H345.658V112.491ZM344.039 109.856V113.443H331.898V109.856H344.039Z" fill="#D20000"/>
<path d="M347.834 118.617V118.284C347.834 117.025 348.013 115.866 348.373 114.808C348.733 113.739 349.257 112.814 349.944 112.031C350.632 111.248 351.479 110.639 352.484 110.205C353.489 109.761 354.643 109.539 355.944 109.539C357.246 109.539 358.404 109.761 359.42 110.205C360.436 110.639 361.288 111.248 361.975 112.031C362.674 112.814 363.203 113.739 363.562 114.808C363.922 115.866 364.102 117.025 364.102 118.284V118.617C364.102 119.866 363.922 121.025 363.562 122.093C363.203 123.151 362.674 124.077 361.975 124.871C361.288 125.654 360.441 126.262 359.436 126.696C358.431 127.13 357.277 127.347 355.976 127.347C354.674 127.347 353.516 127.13 352.5 126.696C351.495 126.262 350.643 125.654 349.944 124.871C349.257 124.077 348.733 123.151 348.373 122.093C348.013 121.025 347.834 119.866 347.834 118.617ZM352.405 118.284V118.617C352.405 119.337 352.468 120.009 352.595 120.633C352.722 121.257 352.923 121.808 353.198 122.284C353.484 122.749 353.854 123.114 354.309 123.379C354.764 123.643 355.32 123.776 355.976 123.776C356.611 123.776 357.156 123.643 357.611 123.379C358.066 123.114 358.431 122.749 358.706 122.284C358.981 121.808 359.182 121.257 359.309 120.633C359.446 120.009 359.515 119.337 359.515 118.617V118.284C359.515 117.586 359.446 116.93 359.309 116.316C359.182 115.692 358.976 115.141 358.69 114.665C358.415 114.179 358.05 113.798 357.595 113.523C357.14 113.247 356.589 113.11 355.944 113.11C355.299 113.11 354.748 113.247 354.293 113.523C353.849 113.798 353.484 114.179 353.198 114.665C352.923 115.141 352.722 115.692 352.595 116.316C352.468 116.93 352.405 117.586 352.405 118.284ZM353.754 107.539L356.865 102.65H361.832L357.468 107.539H353.754Z" fill="#D20000"/>
<path d="M371.515 113.602V127.029H366.944V109.856H371.245L371.515 113.602ZM376.689 109.745L376.61 113.983C376.388 113.951 376.118 113.925 375.8 113.903C375.494 113.872 375.213 113.856 374.959 113.856C374.314 113.856 373.753 113.941 373.277 114.11C372.811 114.269 372.42 114.507 372.102 114.824C371.795 115.141 371.563 115.528 371.404 115.983C371.256 116.438 371.171 116.956 371.15 117.538L370.229 117.252C370.229 116.141 370.34 115.12 370.563 114.189C370.785 113.247 371.108 112.427 371.531 111.729C371.965 111.031 372.494 110.491 373.118 110.11C373.742 109.729 374.457 109.539 375.261 109.539C375.515 109.539 375.774 109.56 376.038 109.602C376.303 109.634 376.52 109.682 376.689 109.745Z" fill="#D20000"/>
</svg>
