<svg width="430" height="230" viewBox="0 0 430 230" fill="none" xmlns="http://www.w3.org/2000/svg">
<g clip-path="url(#clip0_2304_2591)">
<path d="M430 0H0V230H430V0Z" fill="white"/>
<path fill-rule="evenodd" clip-rule="evenodd" d="M83.3871 130.039C84.0786 128.195 84.9141 126.092 85.8937 123.73H81.2178L75.6946 137.559C75.176 138.769 74.6286 139.806 74.0524 140.67C73.5338 141.477 72.8999 142.14 72.1509 142.658C71.4594 143.177 70.6239 143.58 69.6443 143.868C68.7224 144.156 67.5987 144.387 66.2734 144.56V147.844H87.2766V144.56C84.8565 144.56 83.1278 144.272 82.0906 143.695C81.0534 143.062 80.5348 141.938 80.5348 140.325C80.5348 139.748 80.6213 138.999 80.7941 138.077C80.967 137.155 81.2551 136.032 81.6585 134.706C82.1194 133.381 82.6957 131.825 83.3871 130.039ZM85.8937 112.022H90.5517L97.735 93.9102L104.55 112.022H114.252L101.884 81.291H98.1671L85.8937 112.022ZM118.964 123.73H108.971L112.515 133.064C112.918 134.044 113.235 134.908 113.466 135.657C113.754 136.349 113.956 136.983 114.071 137.559C114.244 138.135 114.359 138.682 114.416 139.201C114.474 139.662 114.503 140.181 114.503 140.757C114.503 142.082 113.927 143.033 112.774 143.609C111.622 144.185 109.519 144.473 106.465 144.473V147.844H134.642V144.473C133.144 144.473 131.847 144.329 130.752 144.041C129.715 143.753 128.736 143.119 127.814 142.14C126.892 141.16 125.941 139.72 124.961 137.818C123.982 135.859 122.829 133.266 121.504 130.039L118.964 123.73Z" fill="#655C51"/>
<path fill-rule="evenodd" clip-rule="evenodd" d="M321.033 132.373L324.835 123.73H330.25L319.131 148.709H317.23L306.301 123.73H317.001L320.687 132.373H321.033ZM335.461 112.022H329.986L343.505 81.291H362.866V84.5755C361.022 84.6331 359.524 84.8636 358.372 85.2669C357.277 85.6703 356.412 86.3617 355.779 87.3413C355.202 88.2633 354.799 89.5598 354.569 91.2308C354.396 92.9018 354.309 95.0338 354.309 97.6268V112.022H345.234V92.0087H344.37L335.461 112.022ZM345.234 123.73V132.113C345.234 134.822 345.119 136.983 344.888 138.596C344.658 140.152 344.197 141.362 343.505 142.226C342.814 143.09 341.834 143.695 340.566 144.041C339.356 144.329 337.743 144.502 335.726 144.56V147.844H363.73V144.56C361.714 144.502 360.071 144.329 358.804 144.041C357.594 143.753 356.643 143.148 355.952 142.226C355.318 141.304 354.886 140.008 354.655 138.337C354.425 136.666 354.309 134.39 354.309 131.508V123.73H345.234ZM292.423 92.0087L301.179 112.022H312.009L298.906 81.291H278.248V84.5755C280.092 84.6907 281.591 84.95 282.743 85.3534C283.895 85.6991 284.76 86.3329 285.336 87.2549C285.97 88.1768 286.373 89.4445 286.546 91.0579C286.776 92.6137 286.892 94.6017 286.892 97.0218V112.022H292.078V92.0087H292.423ZM292.078 123.73H286.892V132.113C286.892 134.822 286.776 136.983 286.546 138.596C286.316 140.152 285.855 141.362 285.163 142.226C284.472 143.09 283.492 143.695 282.224 144.041C281.014 144.329 279.401 144.502 277.384 144.56V147.844H301.499V144.56C299.482 144.502 297.84 144.329 296.572 144.041C295.362 143.753 294.411 143.148 293.72 142.226C293.086 141.304 292.654 140.008 292.423 138.337C292.193 136.666 292.078 134.39 292.078 131.508V123.73Z" fill="#655C51"/>
<path fill-rule="evenodd" clip-rule="evenodd" d="M204.908 147.844H264.892L265.929 127.533H262.212C261.694 130.932 261.089 133.698 260.397 135.83C259.764 137.904 258.842 139.547 257.632 140.757C256.479 141.967 254.952 142.802 253.051 143.263C251.149 143.667 248.729 143.868 245.79 143.868H218.996L233.569 123.73H222.176L204.908 147.499V147.844ZM230.682 112.022L250.371 84.9212H226.689C222.597 84.9212 219.543 85.8431 217.527 87.687C215.51 89.5309 214.098 92.7001 213.292 97.1946H210.094L211.39 81.291H264.028V81.6367L242.041 112.022H230.682Z" fill="#655C51"/>
<path fill-rule="evenodd" clip-rule="evenodd" d="M195.077 97.7997H198.621L197.757 81.291H132.5V97.7997H135.698C135.755 94.7457 136.216 92.3544 137.081 90.6258C137.945 88.8971 139.069 87.6294 140.452 86.8227C141.892 85.9584 143.563 85.4398 145.465 85.2669C147.424 85.0941 149.527 85.0076 151.774 85.0076C153.618 85.0076 155.088 85.0652 156.182 85.1805C157.277 85.2381 158.113 85.3822 158.689 85.6127C159.323 85.8431 159.726 86.1313 159.899 86.477C160.13 86.7651 160.245 87.1684 160.245 87.687V112.022H170.53V87.687C170.53 87.1684 170.617 86.7651 170.79 86.477C171.02 86.1313 171.481 85.8431 172.172 85.6127C172.864 85.3822 173.844 85.2381 175.111 85.1805C176.437 85.0652 178.165 85.0076 180.297 85.0076C182.775 85.0076 184.907 85.2093 186.693 85.6127C188.479 86.016 189.949 86.7075 191.101 87.687C192.311 88.609 193.233 89.9055 193.867 91.5765C194.501 93.2476 194.904 95.3219 195.077 97.7997ZM160.245 123.73V133.929C160.245 135.772 160.101 137.357 159.813 138.682C159.582 140.008 159.064 141.102 158.257 141.967C157.508 142.774 156.384 143.407 154.886 143.868C153.388 144.272 151.429 144.502 149.009 144.56V147.844H181.68V144.56C179.26 144.502 177.301 144.272 175.803 143.868C174.362 143.407 173.238 142.774 172.432 141.967C171.683 141.102 171.164 140.008 170.876 138.682C170.646 137.357 170.53 135.772 170.53 133.929V123.73H160.245Z" fill="#655C51"/>
<path d="M159.775 117.981C159.775 119.385 159.312 120.46 158.388 121.205C157.468 121.946 156.142 122.316 154.41 122.316H151.559V113.808H154.713C156.313 113.808 157.557 114.174 158.444 114.908C159.331 115.641 159.775 116.665 159.775 117.981ZM158.507 118.015C158.507 116.906 158.169 116.07 157.494 115.507C156.822 114.945 155.823 114.663 154.494 114.663H152.755V121.461H154.213C155.64 121.461 156.712 121.172 157.43 120.594C158.148 120.012 158.507 119.152 158.507 118.015Z" fill="black"/>
<path d="M183.387 122.316H177.649V113.808H183.387V114.687H178.846V117.428H183.112V118.301H178.846V121.432H183.387V122.316Z" fill="black"/>
<path d="M207.055 120.052C207.055 120.801 206.726 121.385 206.069 121.804C205.412 122.223 204.52 122.433 203.394 122.433C202.174 122.433 201.235 122.303 200.578 122.043V121.088C201 121.236 201.46 121.352 201.958 121.438C202.455 121.523 202.948 121.566 203.436 121.566C204.234 121.566 204.835 121.441 205.238 121.193C205.642 120.941 205.844 120.592 205.844 120.146C205.844 119.851 205.771 119.61 205.626 119.424C205.485 119.234 205.245 119.059 204.907 118.9C204.574 118.741 204.065 118.561 203.38 118.359C202.422 118.076 201.737 117.74 201.324 117.352C200.916 116.964 200.711 116.458 200.711 115.833C200.711 115.177 201.01 114.656 201.606 114.268C202.202 113.88 202.99 113.686 203.971 113.686C204.994 113.686 205.935 113.841 206.794 114.151L206.421 115.012C205.572 114.718 204.746 114.57 203.943 114.57C203.309 114.57 202.814 114.683 202.457 114.908C202.101 115.133 201.922 115.445 201.922 115.845C201.922 116.14 201.988 116.382 202.12 116.572C202.251 116.758 202.472 116.931 202.781 117.09C203.096 117.245 203.575 117.418 204.218 117.608C205.297 117.926 206.039 118.268 206.442 118.632C206.851 118.997 207.055 119.47 207.055 120.052Z" fill="black"/>
<path d="M224.732 122.316V113.808H225.929V122.316H224.732Z" fill="black"/>
<path d="M248.858 117.858H252.357V121.996C251.812 122.14 251.258 122.248 250.695 122.322C250.132 122.396 249.479 122.433 248.738 122.433C247.18 122.433 245.966 122.051 245.098 121.286C244.23 120.518 243.796 119.443 243.796 118.062C243.796 117.177 244.009 116.403 244.436 115.74C244.868 115.073 245.488 114.564 246.295 114.215C247.102 113.862 248.048 113.686 249.132 113.686C250.23 113.686 251.254 113.852 252.202 114.186L251.737 115.059C250.808 114.733 249.914 114.57 249.055 114.57C247.802 114.57 246.823 114.879 246.119 115.496C245.415 116.112 245.063 116.968 245.063 118.062C245.063 119.21 245.401 120.082 246.077 120.675C246.757 121.269 247.755 121.566 249.069 121.566C249.782 121.566 250.479 121.498 251.16 121.362V118.743H248.858V117.858Z" fill="black"/>
<path d="M278.447 122.316H277.081L271.456 115.175H271.399C271.475 116.013 271.512 116.782 271.512 117.48V122.316H270.407V113.808H271.758L277.37 120.92H277.426C277.417 120.815 277.395 120.479 277.363 119.913C277.33 119.342 277.318 118.935 277.327 118.691V113.808H278.447V122.316Z" fill="black"/>
</g>
<defs>
<clipPath id="clip0_2304_2591">
<rect width="430" height="230" fill="white"/>
</clipPath>
</defs>
</svg>
