<svg width="301" height="69" viewBox="0 0 301 69" fill="none" xmlns="http://www.w3.org/2000/svg">
<path fill-rule="evenodd" clip-rule="evenodd" d="M18.1037 49.3553C18.8011 47.4982 19.6438 45.38 20.6317 43.0007H15.9159L10.3455 56.9285C9.82244 58.1472 9.27035 59.1918 8.6892 60.0623C8.16617 60.8747 7.52691 61.5421 6.77142 62.0644C6.07405 62.5867 5.23139 62.9929 4.24345 63.2831C3.31361 63.5732 2.18038 63.8054 0.84375 63.9795V67.2873H22.0265V63.9795C19.5857 63.9795 17.8422 63.6893 16.7962 63.109C15.7501 62.4706 15.2271 61.339 15.2271 59.7141C15.2271 59.1338 15.3143 58.3793 15.4886 57.4508C15.6629 56.5223 15.9535 55.3907 16.3603 54.0559C16.8252 52.7212 17.4064 51.1543 18.1037 49.3553ZM20.6317 31.2096H25.3296L32.5742 12.9689L39.4474 31.2096H49.2328L36.7585 0.259766H33.0101L20.6317 31.2096ZM53.9853 43.0007H43.9066L47.4806 52.402C47.8874 53.3885 48.207 54.259 48.4395 55.0134C48.7301 55.7098 48.9335 56.3482 49.0497 56.9285C49.224 57.5088 49.3403 58.0601 49.3984 58.5824C49.4565 59.0467 49.4856 59.569 49.4856 60.1493C49.4856 61.4841 48.9044 62.4416 47.7421 63.0219C46.5798 63.6023 44.4587 63.8924 41.3786 63.8924V67.2873H69.7966V63.8924C68.2856 63.8924 66.978 63.7473 65.8738 63.4572C64.8278 63.167 63.8398 62.5287 62.91 61.5421C61.9802 60.5555 61.0213 59.1047 60.0333 57.1897C59.0454 55.2166 57.8831 52.6051 56.5465 49.3553L53.9853 43.0007Z" fill="white"/>
<path fill-rule="evenodd" clip-rule="evenodd" d="M257.781 51.7056L261.616 43.0007H267.077L255.863 68.1578H253.945L242.924 43.0007H253.715L257.432 51.7056H257.781ZM272.333 31.2096H266.811L280.446 0.259766H299.972V3.56762C298.112 3.62565 296.601 3.85778 295.439 4.26401C294.335 4.67024 293.463 5.36663 292.824 6.35318C292.243 7.2817 291.836 8.58743 291.604 10.2704C291.429 11.9533 291.342 14.1005 291.342 16.712V31.2096H282.189V11.0538H281.317L272.333 31.2096ZM282.189 43.0007V51.4444C282.189 54.172 282.073 56.3482 281.84 57.9731C281.608 59.54 281.143 60.7587 280.446 61.6291C279.748 62.4996 278.76 63.109 277.482 63.4572C276.261 63.7473 274.634 63.9214 272.6 63.9795V67.2873H300.844V63.9795C298.81 63.9214 297.154 63.7473 295.875 63.4572C294.655 63.167 293.696 62.5577 292.998 61.6291C292.359 60.7006 291.923 59.3949 291.691 57.712C291.458 56.029 291.342 53.7367 291.342 50.8351V43.0007H282.189ZM228.927 11.0538L237.758 31.2096H248.681L235.465 0.259766H214.631V3.56762C216.491 3.68368 218.002 3.94483 219.164 4.35106C220.326 4.69925 221.198 5.33761 221.779 6.26613C222.418 7.19465 222.825 8.47136 222.999 10.0963C223.232 11.6632 223.348 13.6653 223.348 16.1026V31.2096H228.578V11.0538H228.927ZM228.578 43.0007H223.348V51.4444C223.348 54.172 223.232 56.3482 222.999 57.9731C222.767 59.54 222.302 60.7587 221.605 61.6291C220.907 62.4996 219.919 63.109 218.641 63.4572C217.42 63.7473 215.793 63.9214 213.759 63.9795V67.2873H238.08V63.9795C236.046 63.9214 234.39 63.7473 233.111 63.4572C231.891 63.167 230.932 62.5577 230.235 61.6291C229.595 60.7006 229.16 59.3949 228.927 57.712C228.695 56.029 228.578 53.7367 228.578 50.8351V43.0007Z" fill="white"/>
<path fill-rule="evenodd" clip-rule="evenodd" d="M140.663 67.2873H201.16L202.206 46.8309H198.458C197.935 50.2548 197.325 53.0403 196.627 55.1875C195.988 57.2767 195.058 58.9306 193.838 60.1493C192.675 61.368 191.135 62.2095 189.218 62.6737C187.3 63.08 184.859 63.2831 181.895 63.2831H154.872L169.569 43.0007H158.079L140.663 66.9391V67.2873ZM166.658 31.2096L186.515 3.91581H162.63C158.504 3.91581 155.424 4.84433 153.39 6.70137C151.356 8.55841 149.932 11.7502 149.119 16.2767H145.893L147.201 0.259766H200.288V0.607961L178.114 31.2096H166.658Z" fill="white"/>
<path fill-rule="evenodd" clip-rule="evenodd" d="M130.749 16.8861H134.323L133.451 0.259766H67.6363V16.8861H70.8617C70.9198 13.8104 71.3847 11.402 72.2564 9.66103C73.1281 7.92006 74.2614 6.64334 75.6561 5.83089C77.109 4.9604 78.7943 4.43811 80.7121 4.26401C82.688 4.08991 84.8092 4.00286 87.0756 4.00286C88.9353 4.00286 90.4172 4.06089 91.5214 4.17696C92.6255 4.23499 93.4682 4.38007 94.0494 4.6122C94.6886 4.84434 95.0954 5.1345 95.2698 5.48269C95.5022 5.77285 95.6184 6.17908 95.6184 6.70137V31.2096H105.992V6.70137C105.992 6.17908 106.079 5.77285 106.253 5.48269C106.486 5.1345 106.951 4.84434 107.648 4.6122C108.346 4.38007 109.333 4.23499 110.612 4.17696C111.949 4.06089 113.692 4.00286 115.842 4.00286C118.341 4.00286 120.491 4.20598 122.293 4.6122C124.095 5.01843 125.576 5.71482 126.739 6.70137C127.959 7.6299 128.889 8.93563 129.528 10.6186C130.167 12.3015 130.574 14.3907 130.749 16.8861ZM95.6184 43.0007V53.2725C95.6184 55.1295 95.4732 56.7254 95.1826 58.0601C94.9501 59.3949 94.4271 60.4975 93.6135 61.368C92.858 62.1805 91.7248 62.8188 90.2138 63.2831C88.7028 63.6893 86.7269 63.9214 84.2861 63.9795V67.2873H117.237V63.9795C114.796 63.9214 112.82 63.6893 111.309 63.2831C109.856 62.8188 108.723 62.1805 107.91 61.368C107.154 60.4975 106.631 59.3949 106.341 58.0601C106.108 56.7254 105.992 55.1295 105.992 53.2725V43.0007H95.6184Z" fill="white"/>
<path d="M95.1417 37.2104C95.1417 38.6249 94.6754 39.7073 93.7429 40.4575C92.8151 41.2039 91.4779 41.577 89.7312 41.577H86.8555V33.0079H90.0365C91.6506 33.0079 92.9051 33.3771 93.7997 34.1156C94.6944 34.8542 95.1417 35.8857 95.1417 37.2104ZM93.8636 37.2456C93.8636 36.128 93.5228 35.2859 92.8412 34.7193C92.1642 34.1528 91.156 33.8695 89.8164 33.8695H88.0625V40.7154H89.5323C90.9714 40.7154 92.053 40.4243 92.7772 39.8421C93.5015 39.256 93.8636 38.3905 93.8636 37.2456Z" fill="white"/>
<path d="M118.955 41.577H113.169V33.0079H118.955V33.8929H114.376V36.6536H118.679V37.5328H114.376V40.6861H118.955V41.577Z" fill="white"/>
<path d="M142.826 39.297C142.826 40.0512 142.495 40.6392 141.832 41.0612C141.169 41.4833 140.27 41.6943 139.134 41.6943C137.903 41.6943 136.956 41.5634 136.294 41.3016V40.3403C136.72 40.4888 137.184 40.606 137.685 40.692C138.187 40.778 138.684 40.8209 139.176 40.8209C139.981 40.8209 140.587 40.6959 140.994 40.4458C141.401 40.1918 141.605 39.8401 141.605 39.3908C141.605 39.0938 141.531 38.8515 141.385 38.664C141.243 38.4725 141.001 38.2967 140.66 38.1365C140.324 37.9763 139.811 37.7946 139.12 37.5914C138.154 37.3061 137.463 36.9681 137.046 36.5774C136.634 36.1866 136.429 35.6767 136.429 35.0476C136.429 34.3872 136.729 33.8616 137.33 33.4709C137.931 33.0801 138.727 32.8848 139.716 32.8848C140.748 32.8848 141.697 33.0411 142.563 33.3537L142.187 34.2211C141.33 33.9242 140.497 33.7757 139.688 33.7757C139.049 33.7757 138.549 33.889 138.189 34.1156C137.83 34.3423 137.65 34.6568 137.65 35.0593C137.65 35.3563 137.716 35.6005 137.849 35.792C137.981 35.9795 138.204 36.1534 138.516 36.3136C138.833 36.4699 139.316 36.6438 139.965 36.8353C141.053 37.1557 141.801 37.4995 142.208 37.8669C142.62 38.2342 142.826 38.7109 142.826 39.297Z" fill="white"/>
<path d="M160.654 41.577V33.0079H161.861V41.577H160.654Z" fill="white"/>
<path d="M184.986 37.0873H188.515V41.2547C187.966 41.3992 187.408 41.5087 186.84 41.5829C186.271 41.6571 185.613 41.6943 184.866 41.6943C183.294 41.6943 182.07 41.3094 181.195 40.5396C180.319 39.7659 179.881 38.6835 179.881 37.2924C179.881 36.4015 180.096 35.622 180.527 34.9538C180.963 34.2817 181.588 33.7698 182.402 33.4181C183.216 33.0626 184.17 32.8848 185.263 32.8848C186.371 32.8848 187.403 33.0528 188.359 33.3888L187.89 34.268C186.953 33.9398 186.051 33.7757 185.185 33.7757C183.921 33.7757 182.934 34.0863 182.224 34.7076C181.514 35.3289 181.159 36.1905 181.159 37.2924C181.159 38.4491 181.5 39.3263 182.182 39.9242C182.868 40.522 183.874 40.8209 185.199 40.8209C185.919 40.8209 186.622 40.7526 187.308 40.6158V37.9782H184.986V37.0873Z" fill="white"/>
<path d="M214.828 41.577H213.451L207.778 34.3853H207.721C207.797 35.2293 207.834 36.003 207.834 36.7063V41.577H206.72V33.0079H208.083L213.742 40.1703H213.799C213.789 40.0648 213.768 39.7268 213.735 39.1563C213.702 38.5819 213.69 38.1716 213.699 37.9255V33.0079H214.828V41.577Z" fill="white"/>
</svg>
