<svg width="101" height="101" viewBox="0 0 101 101" fill="none" xmlns="http://www.w3.org/2000/svg">
<g clip-path="url(#clip0_1904_2824)">
<path d="M50.4941 22.3184C48.3309 22.3184 46.2163 21.6769 44.4176 20.4751C42.6189 19.2732 41.217 17.565 40.3892 15.5665C39.5614 13.5679 39.3448 11.3687 39.7668 9.24706C40.1888 7.1254 41.2305 5.17652 42.7602 3.64688C44.2898 2.11725 46.2387 1.07555 48.3603 0.653525C50.482 0.231499 52.6812 0.448099 54.6797 1.27593C56.6783 2.10377 58.3865 3.50565 59.5883 5.30431C60.7902 7.10298 61.4316 9.21763 61.4316 11.3809C61.4285 14.2807 60.2752 17.0609 58.2247 19.1114C56.1742 21.1619 53.394 22.3153 50.4941 22.3184Z" fill="#FD2B20"/>
<path d="M84.8691 22.4746L84.7812 22.4981L84.6992 22.5234C84.5039 22.5781 84.3086 22.6367 84.1133 22.6973C80.4785 23.7637 62.8379 28.7363 50.4102 28.7363C38.8613 28.7363 22.8164 24.4395 17.6836 22.9805C17.1728 22.783 16.6511 22.6147 16.1211 22.4766C12.4102 21.5 9.87109 25.2695 9.87109 28.7148C9.87109 32.127 12.9375 33.752 16.0332 34.918V34.9727L34.6309 40.7813C36.5313 41.5098 37.0391 42.2539 37.2871 42.8984C38.0938 44.9668 37.4492 49.0625 37.2207 50.4922L36.0879 59.2813L29.8008 93.6934C29.7813 93.7871 29.7637 93.8828 29.748 93.9805L29.7031 94.2285C29.25 97.3828 31.5664 100.443 35.9531 100.443C39.7813 100.443 41.4707 97.8008 42.2031 94.2051C42.2031 94.2051 47.6719 63.4297 50.4063 63.4297C53.1406 63.4297 58.7734 94.2051 58.7734 94.2051C59.5059 97.8008 61.1953 100.443 65.0234 100.443C69.4219 100.443 71.7383 97.3691 71.2734 94.2051C71.2324 93.9356 71.1836 93.6699 71.125 93.4121L64.752 59.2852L63.6211 50.4961C62.8027 45.377 63.4609 43.6856 63.6836 43.2891C63.6896 43.2797 63.6948 43.2699 63.6992 43.2598C63.9102 42.8691 64.8711 41.9941 67.1133 41.1523L84.5508 35.0566C84.6579 35.0281 84.7635 34.9942 84.8672 34.9551C87.9922 33.7832 91.1172 32.1621 91.1172 28.7188C91.1172 25.2754 88.5801 21.5 84.8691 22.4746Z" fill="#FD2B20"/>
</g>
<defs>
<clipPath id="clip0_1904_2824">
<rect width="100" height="100" fill="white" transform="translate(0.5 0.443359)"/>
</clipPath>
</defs>
</svg>
