<svg width="350" height="350" viewBox="0 0 350 350" fill="none" xmlns="http://www.w3.org/2000/svg">
<path fill-rule="evenodd" clip-rule="evenodd" d="M32.8125 175C32.8125 96.4984 96.4984 32.8125 175 32.8125C253.502 32.8125 317.188 96.4984 317.188 175C317.188 253.502 253.502 317.188 175 317.188C96.4984 317.188 32.8125 253.502 32.8125 175ZM175 54.6875C108.58 54.6875 54.6875 108.58 54.6875 175C54.6875 241.42 108.58 295.312 175 295.312C241.42 295.312 295.312 241.42 295.312 175C295.312 108.58 241.42 54.6875 175 54.6875ZM175 109.375C181.041 109.375 185.938 114.272 185.938 120.312V164.062H229.688C235.728 164.062 240.625 168.959 240.625 175C240.625 181.041 235.728 185.938 229.688 185.938H185.938V229.688C185.938 235.728 181.041 240.625 175 240.625C168.959 240.625 164.062 235.728 164.062 229.688V185.938H120.312C114.272 185.938 109.375 181.041 109.375 175C109.375 168.959 114.272 164.062 120.312 164.062H164.062V120.312C164.062 114.272 168.959 109.375 175 109.375Z" fill="#FD2B20" fill-opacity="0.25"/>
</svg>
