<svg width="101" height="101" viewBox="0 0 101 101" fill="none" xmlns="http://www.w3.org/2000/svg">
<path fill-rule="evenodd" clip-rule="evenodd" d="M16.125 66.0684V91.0684H19.25V66.0684H16.125ZM9.875 64.5059C9.875 61.917 11.9737 59.8184 14.5625 59.8184H20.8125C23.4013 59.8184 25.5 61.917 25.5 64.5059V92.6309C25.5 95.2197 23.4013 97.3184 20.8125 97.3184H14.5625C11.9737 97.3184 9.875 95.2197 9.875 92.6309V64.5059Z" fill="#FD2B20"/>
<path fill-rule="evenodd" clip-rule="evenodd" d="M59.875 47.3184V91.0684H63V47.3184H59.875ZM53.625 45.7559C53.625 43.167 55.7237 41.0684 58.3125 41.0684H64.5625C67.1513 41.0684 69.25 43.167 69.25 45.7559V92.6309C69.25 95.2197 67.1513 97.3184 64.5625 97.3184H58.3125C55.7237 97.3184 53.625 95.2197 53.625 92.6309V45.7559Z" fill="#FD2B20"/>
<path fill-rule="evenodd" clip-rule="evenodd" d="M81.75 25.4434V91.0684H84.875V25.4434H81.75ZM75.5 23.8809C75.5 21.292 77.5987 19.1934 80.1875 19.1934H86.4375C89.0263 19.1934 91.125 21.292 91.125 23.8809V92.6309C91.125 95.2197 89.0263 97.3184 86.4375 97.3184H80.1875C77.5987 97.3184 75.5 95.2197 75.5 92.6309V23.8809Z" fill="#FD2B20"/>
<path fill-rule="evenodd" clip-rule="evenodd" d="M38 9.81836V91.0684H41.125V9.81836H38ZM31.75 8.25586C31.75 5.66702 33.8487 3.56836 36.4375 3.56836H42.6875C45.2763 3.56836 47.375 5.66702 47.375 8.25586V92.6309C47.375 95.2197 45.2763 97.3184 42.6875 97.3184H36.4375C33.8487 97.3184 31.75 95.2197 31.75 92.6309V8.25586Z" fill="#FD2B20"/>
</svg>
