<svg width="33" height="48" viewBox="0 0 33 48" fill="none" xmlns="http://www.w3.org/2000/svg">
<path d="M19.4032 44.8H13.0032C12.5788 44.8 12.1718 44.9686 11.8718 45.2686C11.5717 45.5687 11.4032 45.9757 11.4032 46.4C11.4032 46.8243 11.5717 47.2313 11.8718 47.5314C12.1718 47.8314 12.5788 48 13.0032 48H19.4032C19.8275 48 20.2345 47.8314 20.5345 47.5314C20.8346 47.2313 21.0032 46.8243 21.0032 46.4C21.0032 45.9757 20.8346 45.5687 20.5345 45.2686C20.2345 44.9686 19.8275 44.8 19.4032 44.8Z" fill="#FD2B20"/>
<path d="M21.0032 40H11.4032C10.9788 40 10.5718 40.1686 10.2718 40.4686C9.97173 40.7687 9.80316 41.1757 9.80316 41.6C9.80316 42.0244 9.97173 42.4313 10.2718 42.7314C10.5718 43.0314 10.9788 43.2 11.4032 43.2H21.0032C21.4275 43.2 21.8345 43.0314 22.1345 42.7314C22.4346 42.4313 22.6031 42.0244 22.6031 41.6C22.6031 41.1757 22.4346 40.7687 22.1345 40.4686C21.8345 40.1686 21.4275 40 21.0032 40Z" fill="#FD2B20"/>
<path d="M27.5451 4.66904C24.5381 1.65804 20.5102 4.53445e-05 16.2032 4.53445e-05C14.1006 -0.0049661 12.0178 0.405465 10.0743 1.20776C8.13083 2.01006 6.36502 3.18842 4.87828 4.67516C3.39155 6.16189 2.21319 7.92771 1.41089 9.87118C0.60859 11.8146 0.198159 13.8975 0.20317 16C0.20317 20.662 1.99017 25.023 5.10317 27.964L5.53917 28.373C7.34016 30.057 9.80316 32.364 9.80316 34.4V36.8C9.80316 37.2244 9.97173 37.6313 10.2718 37.9314C10.5718 38.2314 10.9788 38.4 11.4032 38.4H13.8032C14.0153 38.4 14.2188 38.3157 14.3688 38.1657C14.5189 38.0157 14.6032 37.8122 14.6032 37.6V25.882C14.6032 25.7202 14.5542 25.5622 14.4626 25.4289C14.371 25.2955 14.2412 25.1931 14.0902 25.135C13.1663 24.7581 12.2885 24.2766 11.4742 23.7C11.2912 23.5832 11.1338 23.4303 11.0118 23.2507C10.8898 23.071 10.8056 22.8685 10.7644 22.6553C10.7232 22.4421 10.7258 22.2227 10.772 22.0106C10.8183 21.7984 10.9073 21.5979 11.0335 21.4213C11.1598 21.2446 11.3207 21.0955 11.5064 20.983C11.6921 20.8705 11.8988 20.797 12.1138 20.7669C12.3289 20.7369 12.5478 20.7509 12.7573 20.8082C12.9667 20.8654 13.1623 20.9647 13.3322 21.1C14.0722 21.624 15.4972 22.4 16.2032 22.4C16.9092 22.4 18.3342 21.622 19.0762 21.1C19.4216 20.8828 19.8371 20.8058 20.2374 20.8848C20.6378 20.9638 20.9929 21.1928 21.23 21.525C21.4671 21.8571 21.5683 22.2673 21.5129 22.6716C21.4576 23.076 21.2498 23.4438 20.9322 23.7C20.1176 24.2756 19.2399 24.756 18.3162 25.132C18.1651 25.1901 18.0353 25.2925 17.9437 25.4259C17.8521 25.5592 17.8031 25.7172 17.8032 25.879V37.6C17.8032 37.8122 17.8874 38.0157 18.0375 38.1657C18.1875 38.3157 18.391 38.4 18.6032 38.4H21.0032C21.4275 38.4 21.8345 38.2314 22.1345 37.9314C22.4346 37.6313 22.6031 37.2244 22.6031 36.8V34.4C22.6031 32.412 25.0391 30.107 26.8181 28.423L27.3091 27.957C30.5111 24.9 32.2031 20.761 32.2031 16C32.2137 13.8973 31.8075 11.8133 31.008 9.86841C30.2085 7.92355 29.0316 6.15639 27.5451 4.66904Z" fill="#FD2B20"/>
</svg>
