<svg width="24" height="25" viewBox="0 0 24 25" fill="none" xmlns="http://www.w3.org/2000/svg">
<path d="M22.5 6.44329C22.5 5.64764 22.1839 4.88458 21.6213 4.32197C21.0587 3.75936 20.2956 3.44329 19.5 3.44329H18.75V2.71438C18.75 2.31079 18.4397 1.96438 18.0361 1.94423C17.9347 1.93934 17.8333 1.9551 17.7382 1.99053C17.6431 2.02597 17.5561 2.08036 17.4826 2.15039C17.4091 2.22043 17.3506 2.30466 17.3106 2.39798C17.2706 2.4913 17.25 2.59177 17.25 2.69329V3.44329H6.75V2.71438C6.75 2.31079 6.43969 1.96438 6.03609 1.94423C5.93469 1.93934 5.83334 1.9551 5.7382 1.99053C5.64307 2.02597 5.55611 2.08036 5.48261 2.15039C5.40911 2.22043 5.3506 2.30466 5.31062 2.39798C5.27063 2.4913 5.25001 2.59177 5.25 2.69329V3.44329H4.5C3.70435 3.44329 2.94129 3.75936 2.37868 4.32197C1.81607 4.88458 1.5 5.64764 1.5 6.44329V7.00579C1.5 7.05552 1.51975 7.10321 1.55492 7.13837C1.59008 7.17354 1.63777 7.19329 1.6875 7.19329H22.3125C22.3622 7.19329 22.4099 7.17354 22.4451 7.13837C22.4802 7.10321 22.5 7.05552 22.5 7.00579V6.44329Z" fill="#FD2B20"/>
<path d="M1.5 19.9433C1.5 20.7389 1.81607 21.502 2.37868 22.0646C2.94129 22.6272 3.70435 22.9433 4.5 22.9433H19.5C20.2956 22.9433 21.0587 22.6272 21.6213 22.0646C22.1839 21.502 22.5 20.7389 22.5 19.9433V8.83392C22.5 8.79662 22.4852 8.76085 22.4588 8.73448C22.4324 8.70811 22.3967 8.69329 22.3594 8.69329H1.64062C1.60333 8.69329 1.56756 8.70811 1.54119 8.73448C1.51482 8.76085 1.5 8.79662 1.5 8.83392V19.9433ZM17.625 10.1933C17.8475 10.1933 18.065 10.2593 18.25 10.3829C18.435 10.5065 18.5792 10.6822 18.6644 10.8878C18.7495 11.0933 18.7718 11.3195 18.7284 11.5378C18.685 11.756 18.5778 11.9565 18.4205 12.1138C18.2632 12.2711 18.0627 12.3783 17.8445 12.4217C17.6262 12.4651 17.4 12.4428 17.1945 12.3577C16.9889 12.2725 16.8132 12.1283 16.6896 11.9433C16.566 11.7583 16.5 11.5408 16.5 11.3183C16.5 11.0199 16.6185 10.7338 16.8295 10.5228C17.0405 10.3118 17.3266 10.1933 17.625 10.1933ZM17.625 13.9433C17.8475 13.9433 18.065 14.0093 18.25 14.1329C18.435 14.2565 18.5792 14.4322 18.6644 14.6378C18.7495 14.8433 18.7718 15.0695 18.7284 15.2878C18.685 15.506 18.5778 15.7065 18.4205 15.8638C18.2632 16.0211 18.0627 16.1283 17.8445 16.1717C17.6262 16.2151 17.4 16.1928 17.1945 16.1077C16.9889 16.0225 16.8132 15.8783 16.6896 15.6933C16.566 15.5083 16.5 15.2908 16.5 15.0683C16.5 14.7699 16.6185 14.4838 16.8295 14.2728C17.0405 14.0618 17.3266 13.9433 17.625 13.9433ZM13.875 10.1933C14.0975 10.1933 14.315 10.2593 14.5 10.3829C14.685 10.5065 14.8292 10.6822 14.9144 10.8878C14.9995 11.0933 15.0218 11.3195 14.9784 11.5378C14.935 11.756 14.8278 11.9565 14.6705 12.1138C14.5132 12.2711 14.3127 12.3783 14.0945 12.4217C13.8762 12.4651 13.65 12.4428 13.4445 12.3577C13.2389 12.2725 13.0632 12.1283 12.9396 11.9433C12.816 11.7583 12.75 11.5408 12.75 11.3183C12.75 11.0199 12.8685 10.7338 13.0795 10.5228C13.2905 10.3118 13.5766 10.1933 13.875 10.1933ZM13.875 13.9433C14.0975 13.9433 14.315 14.0093 14.5 14.1329C14.685 14.2565 14.8292 14.4322 14.9144 14.6378C14.9995 14.8433 15.0218 15.0695 14.9784 15.2878C14.935 15.506 14.8278 15.7065 14.6705 15.8638C14.5132 16.0211 14.3127 16.1283 14.0945 16.1717C13.8762 16.2151 13.65 16.1928 13.4445 16.1077C13.2389 16.0225 13.0632 15.8783 12.9396 15.6933C12.816 15.5083 12.75 15.2908 12.75 15.0683C12.75 14.7699 12.8685 14.4838 13.0795 14.2728C13.2905 14.0618 13.5766 13.9433 13.875 13.9433ZM13.875 17.6933C14.0975 17.6933 14.315 17.7593 14.5 17.8829C14.685 18.0065 14.8292 18.1822 14.9144 18.3878C14.9995 18.5933 15.0218 18.8195 14.9784 19.0378C14.935 19.256 14.8278 19.4565 14.6705 19.6138C14.5132 19.7711 14.3127 19.8783 14.0945 19.9217C13.8762 19.9651 13.65 19.9428 13.4445 19.8577C13.2389 19.7725 13.0632 19.6283 12.9396 19.4433C12.816 19.2583 12.75 19.0408 12.75 18.8183C12.75 18.5199 12.8685 18.2338 13.0795 18.0228C13.2905 17.8118 13.5766 17.6933 13.875 17.6933ZM10.125 13.9433C10.3475 13.9433 10.565 14.0093 10.75 14.1329C10.935 14.2565 11.0792 14.4322 11.1644 14.6378C11.2495 14.8433 11.2718 15.0695 11.2284 15.2878C11.185 15.506 11.0778 15.7065 10.9205 15.8638C10.7632 16.0211 10.5627 16.1283 10.3445 16.1717C10.1262 16.2151 9.90005 16.1928 9.69448 16.1077C9.48891 16.0225 9.31321 15.8783 9.1896 15.6933C9.06598 15.5083 9 15.2908 9 15.0683C9 14.7699 9.11853 14.4838 9.3295 14.2728C9.54048 14.0618 9.82663 13.9433 10.125 13.9433ZM10.125 17.6933C10.3475 17.6933 10.565 17.7593 10.75 17.8829C10.935 18.0065 11.0792 18.1822 11.1644 18.3878C11.2495 18.5933 11.2718 18.8195 11.2284 19.0378C11.185 19.256 11.0778 19.4565 10.9205 19.6138C10.7632 19.7711 10.5627 19.8783 10.3445 19.9217C10.1262 19.9651 9.90005 19.9428 9.69448 19.8577C9.48891 19.7725 9.31321 19.6283 9.1896 19.4433C9.06598 19.2583 9 19.0408 9 18.8183C9 18.5199 9.11853 18.2338 9.3295 18.0228C9.54048 17.8118 9.82663 17.6933 10.125 17.6933ZM6.375 13.9433C6.5975 13.9433 6.81501 14.0093 7.00002 14.1329C7.18502 14.2565 7.32922 14.4322 7.41436 14.6378C7.49951 14.8433 7.52179 15.0695 7.47838 15.2878C7.43498 15.506 7.32783 15.7065 7.1705 15.8638C7.01316 16.0211 6.81271 16.1283 6.59448 16.1717C6.37625 16.2151 6.15005 16.1928 5.94448 16.1077C5.73891 16.0225 5.56321 15.8783 5.4396 15.6933C5.31598 15.5083 5.25 15.2908 5.25 15.0683C5.25 14.7699 5.36853 14.4838 5.5795 14.2728C5.79048 14.0618 6.07663 13.9433 6.375 13.9433ZM6.375 17.6933C6.5975 17.6933 6.81501 17.7593 7.00002 17.8829C7.18502 18.0065 7.32922 18.1822 7.41436 18.3878C7.49951 18.5933 7.52179 18.8195 7.47838 19.0378C7.43498 19.256 7.32783 19.4565 7.1705 19.6138C7.01316 19.7711 6.81271 19.8783 6.59448 19.9217C6.37625 19.9651 6.15005 19.9428 5.94448 19.8577C5.73891 19.7725 5.56321 19.6283 5.4396 19.4433C5.31598 19.2583 5.25 19.0408 5.25 18.8183C5.25 18.5199 5.36853 18.2338 5.5795 18.0228C5.79048 17.8118 6.07663 17.6933 6.375 17.6933Z" fill="#FD2B20"/>
</svg>
