<svg width="21" height="21" viewBox="0 0 21 21" fill="none" xmlns="http://www.w3.org/2000/svg">
<path d="M19.4922 5.63471C19.4922 4.97167 19.2288 4.33578 18.76 3.86694C18.2911 3.3981 17.6552 3.13471 16.9922 3.13471H16.3672V2.52729C16.3672 2.19096 16.1086 1.90229 15.7723 1.88549C15.6878 1.88142 15.6033 1.89455 15.524 1.92408C15.4447 1.95361 15.3723 1.99893 15.311 2.0573C15.2498 2.11566 15.201 2.18585 15.1677 2.26362C15.1344 2.34138 15.1172 2.4251 15.1172 2.50971V3.13471H6.36719V2.52729C6.36719 2.19096 6.10859 1.90229 5.77227 1.88549C5.68776 1.88142 5.60331 1.89455 5.52402 1.92408C5.44474 1.95361 5.37228 1.99893 5.31103 2.0573C5.24978 2.11566 5.20102 2.18585 5.1677 2.26362C5.13438 2.34138 5.1172 2.4251 5.11719 2.50971V3.13471H4.49219C3.82915 3.13471 3.19326 3.3981 2.72442 3.86694C2.25558 4.33578 1.99219 4.97167 1.99219 5.63471V6.10346C1.99219 6.1449 2.00865 6.18464 2.03795 6.21394C2.06725 6.24325 2.107 6.25971 2.14844 6.25971H19.3359C19.3774 6.25971 19.4171 6.24325 19.4464 6.21394C19.4757 6.18464 19.4922 6.1449 19.4922 6.10346V5.63471Z" fill="#FD2B20"/>
<path d="M1.99219 16.8847C1.99219 17.5477 2.25558 18.1836 2.72442 18.6525C3.19326 19.1213 3.82915 19.3847 4.49219 19.3847H16.9922C17.6552 19.3847 18.2911 19.1213 18.76 18.6525C19.2288 18.1836 19.4922 17.5477 19.4922 16.8847V7.6269C19.4922 7.59582 19.4798 7.56601 19.4579 7.54403C19.4359 7.52205 19.4061 7.50971 19.375 7.50971H2.10938C2.07829 7.50971 2.04849 7.52205 2.02651 7.54403C2.00453 7.56601 1.99219 7.59582 1.99219 7.6269V16.8847ZM15.4297 8.75971C15.6151 8.75971 15.7964 8.81469 15.9505 8.91771C16.1047 9.02072 16.2249 9.16714 16.2958 9.33844C16.3668 9.50975 16.3853 9.69825 16.3492 9.88011C16.313 10.062 16.2237 10.229 16.0926 10.3601C15.9615 10.4912 15.7944 10.5805 15.6126 10.6167C15.4307 10.6529 15.2422 10.6343 15.0709 10.5633C14.8996 10.4924 14.7532 10.3722 14.6502 10.2181C14.5472 10.0639 14.4922 9.88263 14.4922 9.69721C14.4922 9.44857 14.591 9.21011 14.7668 9.0343C14.9426 8.85848 15.181 8.75971 15.4297 8.75971ZM15.4297 11.8847C15.6151 11.8847 15.7964 11.9397 15.9505 12.0427C16.1047 12.1457 16.2249 12.2921 16.2958 12.4634C16.3668 12.6347 16.3853 12.8232 16.3492 13.0051C16.313 13.187 16.2237 13.354 16.0926 13.4851C15.9615 13.6162 15.7944 13.7055 15.6126 13.7417C15.4307 13.7779 15.2422 13.7593 15.0709 13.6883C14.8996 13.6174 14.7532 13.4972 14.6502 13.3431C14.5472 13.1889 14.4922 13.0076 14.4922 12.8222C14.4922 12.5736 14.591 12.3351 14.7668 12.1593C14.9426 11.9835 15.181 11.8847 15.4297 11.8847ZM12.3047 8.75971C12.4901 8.75971 12.6714 8.81469 12.8255 8.91771C12.9797 9.02072 13.0999 9.16714 13.1708 9.33844C13.2418 9.50975 13.2603 9.69825 13.2242 9.88011C13.188 10.062 13.0987 10.229 12.9676 10.3601C12.8365 10.4912 12.6694 10.5805 12.4876 10.6167C12.3057 10.6529 12.1172 10.6343 11.9459 10.5633C11.7746 10.4924 11.6282 10.3722 11.5252 10.2181C11.4222 10.0639 11.3672 9.88263 11.3672 9.69721C11.3672 9.44857 11.466 9.21011 11.6418 9.0343C11.8176 8.85848 12.056 8.75971 12.3047 8.75971ZM12.3047 11.8847C12.4901 11.8847 12.6714 11.9397 12.8255 12.0427C12.9797 12.1457 13.0999 12.2921 13.1708 12.4634C13.2418 12.6347 13.2603 12.8232 13.2242 13.0051C13.188 13.187 13.0987 13.354 12.9676 13.4851C12.8365 13.6162 12.6694 13.7055 12.4876 13.7417C12.3057 13.7779 12.1172 13.7593 11.9459 13.6883C11.7746 13.6174 11.6282 13.4972 11.5252 13.3431C11.4222 13.1889 11.3672 13.0076 11.3672 12.8222C11.3672 12.5736 11.466 12.3351 11.6418 12.1593C11.8176 11.9835 12.056 11.8847 12.3047 11.8847ZM12.3047 15.0097C12.4901 15.0097 12.6714 15.0647 12.8255 15.1677C12.9797 15.2707 13.0999 15.4171 13.1708 15.5884C13.2418 15.7597 13.2603 15.9482 13.2242 16.1301C13.188 16.312 13.0987 16.479 12.9676 16.6101C12.8365 16.7412 12.6694 16.8305 12.4876 16.8667C12.3057 16.9029 12.1172 16.8843 11.9459 16.8133C11.7746 16.7424 11.6282 16.6222 11.5252 16.4681C11.4222 16.3139 11.3672 16.1326 11.3672 15.9472C11.3672 15.6986 11.466 15.4601 11.6418 15.2843C11.8176 15.1085 12.056 15.0097 12.3047 15.0097ZM9.17969 11.8847C9.36511 11.8847 9.54636 11.9397 9.70053 12.0427C9.85471 12.1457 9.97487 12.2921 10.0458 12.4634C10.1168 12.6347 10.1353 12.8232 10.0992 13.0051C10.063 13.187 9.97371 13.354 9.8426 13.4851C9.71149 13.6162 9.54444 13.7055 9.36259 13.7417C9.18073 13.7779 8.99223 13.7593 8.82092 13.6883C8.64962 13.6174 8.5032 13.4972 8.40018 13.3431C8.29717 13.1889 8.24219 13.0076 8.24219 12.8222C8.24219 12.5736 8.34096 12.3351 8.51677 12.1593C8.69259 11.9835 8.93105 11.8847 9.17969 11.8847ZM9.17969 15.0097C9.36511 15.0097 9.54636 15.0647 9.70053 15.1677C9.85471 15.2707 9.97487 15.4171 10.0458 15.5884C10.1168 15.7597 10.1353 15.9482 10.0992 16.1301C10.063 16.312 9.97371 16.479 9.8426 16.6101C9.71149 16.7412 9.54444 16.8305 9.36259 16.8667C9.18073 16.9029 8.99223 16.8843 8.82092 16.8133C8.64962 16.7424 8.5032 16.6222 8.40018 16.4681C8.29717 16.3139 8.24219 16.1326 8.24219 15.9472C8.24219 15.6986 8.34096 15.4601 8.51677 15.2843C8.69259 15.1085 8.93105 15.0097 9.17969 15.0097ZM6.05469 11.8847C6.24011 11.8847 6.42136 11.9397 6.57553 12.0427C6.72971 12.1457 6.84987 12.2921 6.92082 12.4634C6.99178 12.6347 7.01035 12.8232 6.97417 13.0051C6.938 13.187 6.84871 13.354 6.7176 13.4851C6.58649 13.6162 6.41944 13.7055 6.23759 13.7417C6.05573 13.7779 5.86723 13.7593 5.69592 13.6883C5.52462 13.6174 5.3782 13.4972 5.27518 13.3431C5.17217 13.1889 5.11719 13.0076 5.11719 12.8222C5.11719 12.5736 5.21596 12.3351 5.39177 12.1593C5.56759 11.9835 5.80605 11.8847 6.05469 11.8847ZM6.05469 15.0097C6.24011 15.0097 6.42136 15.0647 6.57553 15.1677C6.72971 15.2707 6.84987 15.4171 6.92082 15.5884C6.99178 15.7597 7.01035 15.9482 6.97417 16.1301C6.938 16.312 6.84871 16.479 6.7176 16.6101C6.58649 16.7412 6.41944 16.8305 6.23759 16.8667C6.05573 16.9029 5.86723 16.8843 5.69592 16.8133C5.52462 16.7424 5.3782 16.6222 5.27518 16.4681C5.17217 16.3139 5.11719 16.1326 5.11719 15.9472C5.11719 15.6986 5.21596 15.4601 5.39177 15.2843C5.56759 15.1085 5.80605 15.0097 6.05469 15.0097Z" fill="#FD2B20"/>
</svg>
