<svg width="25" height="25" viewBox="0 0 25 25" fill="none" xmlns="http://www.w3.org/2000/svg">
<path d="M19.1563 4.27961C17.2648 2.76616 14.9141 1.94216 12.4916 1.94336C9.63599 1.94336 6.9688 3.04352 4.97474 5.04133C3.04771 6.97445 1.99161 9.5268 2.00005 12.2263C2.00012 14.2055 2.58117 16.1412 3.67114 17.7932L3.68005 17.8059C3.69318 17.8251 3.70677 17.8443 3.72036 17.863C3.73396 17.8818 3.75083 17.9062 3.75458 17.9123L3.76489 17.931C3.81786 18.0248 3.85864 18.1391 3.82255 18.2545L2.95911 21.3791C2.92457 21.4953 2.90565 21.6156 2.90286 21.7368C2.90224 22.0556 3.02806 22.3617 3.25275 22.5878C3.47744 22.814 3.78265 22.9419 4.10146 22.9434C4.26992 22.9378 4.43594 22.9014 4.5913 22.836L7.75489 21.6941L7.79474 21.6787C7.88079 21.6425 7.97328 21.6242 8.06661 21.6248C8.15267 21.625 8.23797 21.6409 8.31833 21.6716C8.39427 21.7012 9.0838 21.9651 9.8113 22.1685C10.416 22.3373 11.6741 22.5904 12.6599 22.5904C15.456 22.5904 18.0669 21.5076 20.0113 19.5407C21.9388 17.5888 23.0001 14.9943 23.0001 12.232C23.0003 11.5229 22.9252 10.8158 22.776 10.1226C22.2913 7.84352 21.006 5.76789 19.1563 4.27961ZM8.00005 13.9434C7.70338 13.9434 7.41337 13.8554 7.16669 13.6906C6.92002 13.5257 6.72776 13.2915 6.61423 13.0174C6.5007 12.7433 6.47099 12.4417 6.52887 12.1507C6.58675 11.8598 6.72961 11.5925 6.93939 11.3827C7.14917 11.1729 7.41644 11.0301 7.70741 10.9722C7.99839 10.9143 8.29999 10.944 8.57407 11.0575C8.84816 11.1711 9.08243 11.3633 9.24725 11.61C9.41208 11.8567 9.50005 12.1467 9.50005 12.4434C9.50005 12.8412 9.34201 13.2227 9.06071 13.504C8.77941 13.7853 8.39787 13.9434 8.00005 13.9434ZM12.5001 13.9434C12.2034 13.9434 11.9134 13.8554 11.6667 13.6906C11.42 13.5257 11.2278 13.2915 11.1142 13.0174C11.0007 12.7433 10.971 12.4417 11.0289 12.1507C11.0867 11.8598 11.2296 11.5925 11.4394 11.3827C11.6492 11.1729 11.9164 11.0301 12.2074 10.9722C12.4984 10.9143 12.8 10.944 13.0741 11.0575C13.3482 11.1711 13.5824 11.3633 13.7473 11.61C13.9121 11.8567 14.0001 12.1467 14.0001 12.4434C14.0001 12.8412 13.842 13.2227 13.5607 13.504C13.2794 13.7853 12.8979 13.9434 12.5001 13.9434V13.9434ZM17.0001 13.9434C16.7034 13.9434 16.4134 13.8554 16.1667 13.6906C15.92 13.5257 15.7278 13.2915 15.6142 13.0174C15.5007 12.7433 15.471 12.4417 15.5289 12.1507C15.5867 11.8598 15.7296 11.5925 15.9394 11.3827C16.1492 11.1729 16.4164 11.0301 16.7074 10.9722C16.9984 10.9143 17.3 10.944 17.5741 11.0575C17.8482 11.1711 18.0824 11.3633 18.2473 11.61C18.4121 11.8567 18.5001 12.1467 18.5001 12.4434C18.5001 12.8412 18.342 13.2227 18.0607 13.504C17.7794 13.7853 17.3979 13.9434 17.0001 13.9434Z" fill="#FD2B20"/>
</svg>
