<svg width="200" height="201" viewBox="0 0 200 201" fill="none" xmlns="http://www.w3.org/2000/svg">
<path fill-rule="evenodd" clip-rule="evenodd" d="M18.75 100.943C18.75 56.0853 55.142 19.6934 100 19.6934C144.858 19.6934 181.25 56.0853 181.25 100.943C181.25 145.801 144.858 182.193 100 182.193C55.142 182.193 18.75 145.801 18.75 100.943ZM100 32.1934C62.0455 32.1934 31.25 62.9889 31.25 100.943C31.25 138.898 62.0455 169.693 100 169.693C137.954 169.693 168.75 138.898 168.75 100.943C168.75 62.9889 137.954 32.1934 100 32.1934Z" fill="#FD2B20"/>
<path fill-rule="evenodd" clip-rule="evenodd" d="M147.863 71.2374C150.462 73.5089 150.727 77.4573 148.456 80.0563L104.757 130.056C103.618 131.36 101.989 132.132 100.259 132.19C98.5289 132.248 96.8524 131.585 95.6291 130.36L76.8986 111.61C74.4591 109.168 74.4611 105.211 76.9032 102.772C79.3452 100.332 83.3025 100.334 85.742 102.776L99.7459 116.795L139.044 71.8304C141.316 69.2314 145.264 68.9659 147.863 71.2374Z" fill="#FD2B20"/>
<path fill-rule="evenodd" clip-rule="evenodd" d="M51.8329 102.772C54.2749 100.332 58.2322 100.334 60.6717 102.776L79.4022 121.526C81.8417 123.968 81.8396 127.926 79.3976 130.365C76.9555 132.805 72.9983 132.803 70.5588 130.36L51.8283 111.61C49.3888 109.168 49.3908 105.211 51.8329 102.772Z" fill="#FD2B20"/>
<path fill-rule="evenodd" clip-rule="evenodd" d="M123.53 71.2368C126.13 73.5079 126.396 77.4563 124.125 80.0556L103.988 103.102C101.717 105.702 97.7683 105.968 95.169 103.697C92.5696 101.426 92.3035 97.4773 94.5747 94.878L114.711 71.8311C116.983 69.2317 120.931 68.9657 123.53 71.2368Z" fill="#FD2B20"/>
</svg>
