<svg width="350" height="351" viewBox="0 0 350 351" fill="none" xmlns="http://www.w3.org/2000/svg">
<path fill-rule="evenodd" clip-rule="evenodd" d="M32.8125 175.943C32.8125 97.4418 96.4984 33.7559 175 33.7559C253.502 33.7559 317.187 97.4418 317.187 175.943C317.187 254.445 253.502 318.131 175 318.131C96.4984 318.131 32.8125 254.445 32.8125 175.943ZM175 55.6309C108.58 55.6309 54.6875 109.523 54.6875 175.943C54.6875 242.364 108.58 296.256 175 296.256C241.42 296.256 295.312 242.364 295.312 175.943C295.312 109.523 241.42 55.6309 175 55.6309Z" fill="#FD2B20" fill-opacity="0.25"/>
<path fill-rule="evenodd" clip-rule="evenodd" d="M258.76 123.958C263.308 127.933 263.773 134.843 259.798 139.391L183.324 226.891C181.331 229.172 178.481 230.524 175.453 230.625C172.426 230.726 169.492 229.566 167.351 227.423L134.573 194.611C130.303 190.337 130.307 183.412 134.581 179.143C138.854 174.874 145.779 174.877 150.049 179.151L174.555 203.683L243.327 124.996C247.302 120.447 254.212 119.983 258.76 123.958Z" fill="#FD2B20" fill-opacity="0.25"/>
<path fill-rule="evenodd" clip-rule="evenodd" d="M90.7075 179.143C94.9811 174.874 101.906 174.877 106.176 179.151L138.954 211.963C143.223 216.237 143.219 223.162 138.946 227.431C134.672 231.7 127.747 231.697 123.478 227.423L90.6995 194.611C86.4304 190.337 86.434 183.412 90.7075 179.143Z" fill="#FD2B20" fill-opacity="0.25"/>
<path fill-rule="evenodd" clip-rule="evenodd" d="M216.178 123.957C220.727 127.931 221.192 134.841 217.218 139.39L181.979 179.722C178.004 184.271 171.095 184.736 166.546 180.762C161.997 176.787 161.531 169.878 165.506 165.329L200.745 124.997C204.719 120.448 211.629 119.982 216.178 123.957Z" fill="#FD2B20" fill-opacity="0.25"/>
</svg>
