<svg width="19" height="19" viewBox="0 0 19 19" fill="none" xmlns="http://www.w3.org/2000/svg">
<path fill-rule="evenodd" clip-rule="evenodd" d="M2.1875 9.44336C2.1875 5.40614 5.46278 2.13086 9.5 2.13086C13.5372 2.13086 16.8125 5.40614 16.8125 9.44336C16.8125 13.4806 13.5372 16.7559 9.5 16.7559C5.46278 16.7559 2.1875 13.4806 2.1875 9.44336ZM9.5 3.25586C6.0841 3.25586 3.3125 6.02746 3.3125 9.44336C3.3125 12.8593 6.0841 15.6309 9.5 15.6309C12.9159 15.6309 15.6875 12.8593 15.6875 9.44336C15.6875 6.02746 12.9159 3.25586 9.5 3.25586Z" fill="#008CFF"/>
<path fill-rule="evenodd" clip-rule="evenodd" d="M7.696 5.67061C7.91567 5.45094 8.27183 5.45094 8.4915 5.67061L11.8665 9.04561C12.0862 9.26528 12.0862 9.62144 11.8665 9.84111L8.4915 13.2161C8.27183 13.4358 7.91567 13.4358 7.696 13.2161C7.47633 12.9964 7.47633 12.6403 7.696 12.4206L10.6733 9.44336L7.696 6.46611C7.47633 6.24644 7.47633 5.89028 7.696 5.67061Z" fill="#008CFF"/>
</svg>
