<svg width="24" height="25" viewBox="0 0 24 25" fill="none" xmlns="http://www.w3.org/2000/svg">
<path fill-rule="evenodd" clip-rule="evenodd" d="M2.25 12.2305C2.25 6.84751 6.61704 2.48047 12 2.48047C17.383 2.48047 21.75 6.84751 21.75 12.2305C21.75 17.6134 17.383 21.9805 12 21.9805C6.61704 21.9805 2.25 17.6134 2.25 12.2305ZM12 3.98047C7.44546 3.98047 3.75 7.67593 3.75 12.2305C3.75 16.785 7.44546 20.4805 12 20.4805C16.5545 20.4805 20.25 16.785 20.25 12.2305C20.25 7.67593 16.5545 3.98047 12 3.98047Z" fill="#FD2B20"/>
<path fill-rule="evenodd" clip-rule="evenodd" d="M14.4053 7.20014C14.6982 7.49303 14.6982 7.96791 14.4053 8.2608L10.4357 12.2305L14.4053 16.2001C14.6982 16.493 14.6982 16.9679 14.4053 17.2608C14.1124 17.5537 13.6376 17.5537 13.3447 17.2608L8.84467 12.7608C8.55178 12.4679 8.55178 11.993 8.84467 11.7001L13.3447 7.20014C13.6376 6.90725 14.1124 6.90725 14.4053 7.20014Z" fill="#FD2B20"/>
</svg>
