<svg width="31" height="30" viewBox="0 0 31 30" fill="none" xmlns="http://www.w3.org/2000/svg">
<path fill-rule="evenodd" clip-rule="evenodd" d="M3.375 15C3.375 8.2713 8.8338 2.8125 15.5625 2.8125C22.2912 2.8125 27.75 8.2713 27.75 15C27.75 21.7287 22.2912 27.1875 15.5625 27.1875C8.8338 27.1875 3.375 21.7287 3.375 15ZM15.5625 4.6875C9.86933 4.6875 5.25 9.30683 5.25 15C5.25 20.6932 9.86933 25.3125 15.5625 25.3125C21.2557 25.3125 25.875 20.6932 25.875 15C25.875 9.30683 21.2557 4.6875 15.5625 4.6875Z" fill="#FD2B20"/>
<path fill-rule="evenodd" clip-rule="evenodd" d="M15.5625 6.5625C16.0803 6.5625 16.5 6.98223 16.5 7.5V15H21.1875C21.7053 15 22.125 15.4197 22.125 15.9375C22.125 16.4553 21.7053 16.875 21.1875 16.875H15.5625C15.0447 16.875 14.625 16.4553 14.625 15.9375V7.5C14.625 6.98223 15.0447 6.5625 15.5625 6.5625Z" fill="#FD2B20"/>
</svg>
