<svg width="200" height="201" viewBox="0 0 200 201" fill="none" xmlns="http://www.w3.org/2000/svg">
<path fill-rule="evenodd" clip-rule="evenodd" d="M18.75 100.855C18.75 55.9974 55.142 19.6055 100 19.6055C144.858 19.6055 181.25 55.9974 181.25 100.855C181.25 145.713 144.858 182.105 100 182.105C55.142 182.105 18.75 145.713 18.75 100.855ZM100 32.1055C62.0455 32.1055 31.25 62.901 31.25 100.855C31.25 138.81 62.0455 169.605 100 169.605C137.954 169.605 168.75 138.81 168.75 100.855C168.75 62.901 137.954 32.1055 100 32.1055ZM70.5806 71.4361C73.0214 68.9953 76.9786 68.9953 79.4194 71.4361L100 92.0166L120.581 71.4361C123.021 68.9953 126.979 68.9953 129.419 71.4361C131.86 73.8768 131.86 77.8341 129.419 80.2749L108.839 100.855L129.419 121.436C131.86 123.877 131.86 127.834 129.419 130.275C126.979 132.716 123.021 132.716 120.581 130.275L100 109.694L79.4194 130.275C76.9786 132.716 73.0214 132.716 70.5806 130.275C68.1398 127.834 68.1398 123.877 70.5806 121.436L91.1612 100.855L70.5806 80.2749C68.1398 77.8341 68.1398 73.8768 70.5806 71.4361Z" fill="#FD2B20"/>
</svg>
