<svg width="85" height="85" viewBox="0 0 85 85" fill="none" xmlns="http://www.w3.org/2000/svg">
<path d="M48.1376 42.501L63.9091 26.7296C64.6576 25.9824 65.0786 24.9684 65.0795 23.9108C65.0805 22.8532 64.6612 21.8385 63.914 21.09C63.1668 20.3415 62.1529 19.9205 61.0953 19.9195C60.0377 19.9186 59.023 20.3378 58.2745 21.085L42.503 36.8565L26.7315 21.085C25.983 20.3365 24.9678 19.916 23.9093 19.916C22.8507 19.916 21.8355 20.3365 21.087 21.085C20.3385 21.8335 19.918 22.8487 19.918 23.9073C19.918 24.9659 20.3385 25.9811 21.087 26.7296L36.8585 42.501L21.087 58.2725C20.3385 59.021 19.918 60.0362 19.918 61.0948C19.918 62.1534 20.3385 63.1686 21.087 63.9171C21.8355 64.6656 22.8507 65.0861 23.9093 65.0861C24.9678 65.0861 25.983 64.6656 26.7315 63.9171L42.503 48.1456L58.2745 63.9171C59.023 64.6656 60.0382 65.0861 61.0968 65.0861C62.1553 65.0861 63.1705 64.6656 63.919 63.9171C64.6675 63.1686 65.088 62.1534 65.088 61.0948C65.088 60.0362 64.6675 59.021 63.919 58.2725L48.1376 42.501Z" fill="#FD2B20"/>
</svg>
