<svg width="25" height="24" viewBox="0 0 25 24" fill="none" xmlns="http://www.w3.org/2000/svg">
<path fill-rule="evenodd" clip-rule="evenodd" d="M7.84283 6.21967C7.54994 5.92678 7.07506 5.92678 6.78217 6.21967C6.48928 6.51256 6.48928 6.98744 6.78217 7.28033L11.5018 12L6.78217 16.7197C6.48928 17.0126 6.48928 17.4874 6.78217 17.7803C7.07506 18.0732 7.54994 18.0732 7.84283 17.7803L12.5625 13.0607L17.2822 17.7803C17.5751 18.0732 18.0499 18.0732 18.3428 17.7803C18.6357 17.4874 18.6357 17.0126 18.3428 16.7197L13.6232 12L18.3428 7.28033C18.6357 6.98744 18.6357 6.51256 18.3428 6.21967C18.0499 5.92678 17.5751 5.92678 17.2822 6.21967L12.5625 10.9393L7.84283 6.21967Z" fill="#FF0000"/>
</svg>
