<svg width="59" height="59" viewBox="0 0 59 59" fill="none" xmlns="http://www.w3.org/2000/svg">
<path fill-rule="evenodd" clip-rule="evenodd" d="M5.53125 29.2305C5.53125 16.2216 16.2669 5.66797 29.5 5.66797C42.7331 5.66797 53.4688 16.2216 53.4688 29.2305C53.4688 42.2393 42.7331 52.793 29.5 52.793C16.2669 52.793 5.53125 42.2393 5.53125 29.2305ZM29.5 9.29297C18.3034 9.29297 9.21875 18.2237 9.21875 29.2305C9.21875 40.2373 18.3034 49.168 29.5 49.168C40.6966 49.168 49.7812 40.2373 49.7812 29.2305C49.7812 18.2237 40.6966 9.29297 29.5 9.29297ZM20.8213 20.6988C21.5413 19.991 22.7087 19.991 23.4287 20.6988L29.5 26.6672L35.5713 20.6988C36.2913 19.991 37.4587 19.991 38.1787 20.6988C38.8988 21.4067 38.8988 22.5543 38.1787 23.2621L32.1075 29.2305L38.1787 35.1988C38.8988 35.9067 38.8988 37.0543 38.1787 37.7621C37.4587 38.4699 36.2913 38.4699 35.5713 37.7621L29.5 31.7937L23.4287 37.7621C22.7087 38.4699 21.5413 38.4699 20.8213 37.7621C20.1012 37.0543 20.1012 35.9067 20.8213 35.1988L26.8925 29.2305L20.8213 23.2621C20.1012 22.5543 20.1012 21.4067 20.8213 20.6988Z" fill="#FD2B20"/>
</svg>
