<svg width="351" height="351" viewBox="0 0 351 351" fill="none" xmlns="http://www.w3.org/2000/svg">
<path d="M109.87 266.193C106.393 266.196 103.035 264.932 100.423 262.638L12.9226 186.075C11.3836 184.728 10.1504 183.067 9.30546 181.205C8.46054 179.342 8.02344 177.32 8.02344 175.275C8.02344 173.229 8.46054 171.207 9.30546 169.345C10.1504 167.482 11.3836 165.821 12.9226 164.474L100.423 87.9113C103.288 85.4039 107.032 84.1375 110.831 84.3907C114.63 84.6439 118.173 86.396 120.681 89.2614C123.188 92.1269 124.455 95.871 124.201 99.6702C123.948 103.469 122.196 107.012 119.331 109.52L44.1696 175.275L119.324 241.029C121.524 242.952 123.084 245.501 123.797 248.334C124.51 251.168 124.341 254.151 123.314 256.886C122.286 259.621 120.448 261.977 118.046 263.64C115.644 265.303 112.791 266.194 109.87 266.193Z" fill="#FD2B20" fill-opacity="0.25"/>
<path d="M241.12 266.193C238.198 266.195 235.344 265.306 232.941 263.643C230.537 261.981 228.699 259.625 227.67 256.889C226.642 254.154 226.473 251.17 227.185 248.336C227.898 245.502 229.459 242.953 231.659 241.029L306.82 175.275L231.666 109.52C228.8 107.012 227.048 103.469 226.795 99.6702C226.542 95.871 227.808 92.1269 230.316 89.2614C232.823 86.396 236.366 84.6439 240.165 84.3907C243.964 84.1375 247.708 85.4039 250.574 87.9113L338.074 164.474C339.613 165.821 340.846 167.482 341.691 169.345C342.536 171.207 342.973 173.229 342.973 175.275C342.973 177.32 342.536 179.342 341.691 181.205C340.846 183.067 339.613 184.728 338.074 186.075L250.574 262.638C247.961 264.935 244.599 266.199 241.12 266.193Z" fill="#FD2B20" fill-opacity="0.25"/>
<path d="M142.682 299.005C140.447 299.005 138.242 298.482 136.244 297.479C134.246 296.476 132.51 295.02 131.175 293.227C129.839 291.435 128.94 289.355 128.55 287.154C128.16 284.952 128.29 282.69 128.928 280.548L194.553 61.798C195.048 59.9417 195.91 58.2036 197.088 56.6864C198.266 55.1693 199.737 53.9041 201.413 52.9658C203.09 52.0275 204.937 51.4351 206.846 51.2238C208.756 51.0125 210.688 51.1866 212.529 51.7357C214.37 52.2848 216.081 53.1977 217.563 54.4205C219.045 55.6432 220.266 57.1509 221.154 58.8541C222.042 60.5574 222.58 62.4216 222.734 64.3364C222.889 66.2511 222.658 68.1774 222.054 70.0011L156.429 288.751C155.547 291.712 153.732 294.309 151.255 296.157C148.779 298.004 145.772 299.003 142.682 299.005Z" fill="#FD2B20" fill-opacity="0.25"/>
</svg>
