<svg width="200" height="201" viewBox="0 0 200 201" fill="none" xmlns="http://www.w3.org/2000/svg">
<path d="M62.4987 152.717C60.5121 152.719 58.5928 151.997 57.1003 150.686L7.10028 106.936C6.22089 106.166 5.51618 105.217 5.03337 104.153C4.55055 103.088 4.30078 101.933 4.30078 100.764C4.30078 99.5952 4.55055 98.4399 5.03337 97.3755C5.51618 96.3111 6.22089 95.3621 7.10028 94.5922L57.1003 50.8422C58.7377 49.4094 60.8772 48.6857 63.0481 48.8304C65.2191 48.9751 67.2437 49.9763 68.6764 51.6137C70.1092 53.2511 70.8329 55.3906 70.6882 57.5615C70.5435 59.7325 69.5424 61.757 67.905 63.1898L24.9557 100.764L67.9011 138.338C69.158 139.437 70.0497 140.893 70.4571 142.512C70.8644 144.131 70.7681 145.836 70.1809 147.399C69.5937 148.962 68.5436 150.309 67.1709 151.259C65.7982 152.209 64.1682 152.718 62.4987 152.717Z" fill="#FD2B20"/>
<path d="M137.499 152.717C135.829 152.719 134.198 152.21 132.825 151.26C131.452 150.311 130.401 148.964 129.813 147.401C129.226 145.838 129.129 144.133 129.536 142.513C129.943 140.894 130.835 139.437 132.092 138.338L175.042 100.764L132.096 63.1898C130.459 61.757 129.458 59.7325 129.313 57.5615C129.168 55.3906 129.892 53.2511 131.325 51.6137C132.758 49.9763 134.782 48.9751 136.953 48.8304C139.124 48.6857 141.264 49.4094 142.901 50.8422L192.901 94.5922C193.78 95.3621 194.485 96.3111 194.968 97.3755C195.451 98.4399 195.701 99.5952 195.701 100.764C195.701 101.933 195.451 103.088 194.968 104.153C194.485 105.217 193.78 106.166 192.901 106.936L142.901 150.686C141.408 151.999 139.487 152.721 137.499 152.717Z" fill="#FD2B20"/>
<path d="M81.2487 171.467C79.9712 171.467 78.7115 171.168 77.5698 170.595C76.4282 170.022 75.4362 169.19 74.6728 168.166C73.9095 167.141 73.396 165.953 73.1731 164.695C72.9503 163.437 73.0243 162.145 73.3893 160.92L110.889 35.9203C111.172 34.8596 111.664 33.8663 112.338 32.9994C113.011 32.1325 113.851 31.4095 114.809 30.8733C115.767 30.3371 116.823 29.9986 117.914 29.8779C119.005 29.7572 120.109 29.8566 121.161 30.1704C122.213 30.4841 123.191 31.0058 124.038 31.7046C124.884 32.4033 125.582 33.2648 126.09 34.2381C126.597 35.2114 126.904 36.2766 126.993 37.3708C127.081 38.4649 126.949 39.5657 126.604 40.6078L89.1042 165.608C88.5997 167.3 87.5628 168.784 86.1476 169.839C84.7323 170.895 83.0143 171.466 81.2487 171.467Z" fill="#FD2B20"/>
</svg>
