<svg width="25" height="25" viewBox="0 0 25 25" fill="none" xmlns="http://www.w3.org/2000/svg">
<g clip-path="url(#clip0_2832_3630)">
<path d="M20.121 16.2246C19.5346 16.2246 18.9775 16.4543 18.5572 16.8697C18.1369 17.29 17.9023 17.8373 17.9023 18.4238C17.9023 19.0102 18.132 19.5575 18.5572 19.9778C18.9824 20.3932 19.5346 20.6229 20.121 20.6229C21.3232 20.6229 22.3006 19.6357 22.3006 18.4238C22.3006 17.2118 21.3232 16.2246 20.121 16.2246ZM20.121 19.6455C19.4466 19.6455 18.8797 19.0884 18.8797 18.4238C18.8797 17.7591 19.4466 17.202 20.121 17.202C20.7857 17.202 21.3232 17.7493 21.3232 18.4238C21.3232 19.0982 20.7857 19.6455 20.121 19.6455Z" fill="#FD2B20"/>
<path d="M20.6884 8.89854C20.6004 8.81547 20.4831 8.77148 20.361 8.77148H17.8539C17.5851 8.77148 17.3652 8.9914 17.3652 9.26018V13.2675C17.3652 13.5363 17.5851 13.7562 17.8539 13.7562H21.8319C22.1007 13.7562 22.3206 13.5363 22.3206 13.2675V10.5846C22.3206 10.4477 22.262 10.3158 22.1594 10.2229L20.6884 8.89854ZM21.3432 12.7788H18.3426V9.744H20.1704L21.3432 10.7996V12.7788Z" fill="#FD2B20"/>
<path d="M8.18744 16.2246C7.601 16.2246 7.04389 16.4543 6.62361 16.8697C6.20333 17.29 5.96875 17.8373 5.96875 18.4238C5.96875 19.0102 6.19844 19.5575 6.62361 19.9778C7.04877 20.3932 7.601 20.6229 8.18744 20.6229C9.38964 20.6229 10.367 19.6357 10.367 18.4238C10.367 17.2118 9.38964 16.2246 8.18744 16.2246ZM8.18744 19.6455C7.51304 19.6455 6.94615 19.0884 6.94615 18.4238C6.94615 17.7591 7.51304 17.202 8.18744 17.202C8.85207 17.202 9.38964 17.7493 9.38964 18.4238C9.38964 19.0982 8.85207 19.6455 8.18744 19.6455Z" fill="#FD2B20"/>
<path d="M4.92843 16.8257H3.94615V15.5258C3.94615 15.257 3.72623 15.0371 3.45745 15.0371C3.18866 15.0371 2.96875 15.257 2.96875 15.5258V17.3144C2.96875 17.5832 3.18866 17.8031 3.45745 17.8031H4.92843C5.19722 17.8031 5.41713 17.5832 5.41713 17.3144C5.41713 17.0457 5.19722 16.8257 4.92843 16.8257Z" fill="#FD2B20"/>
<path d="M7.40531 14.1625C7.40531 13.8937 7.1854 13.6738 6.91662 13.6738H0.988699C0.719914 13.6738 0.5 13.8937 0.5 14.1625C0.5 14.4313 0.719914 14.6512 0.988699 14.6512H6.91662C7.1854 14.6512 7.40531 14.4362 7.40531 14.1625Z" fill="#FD2B20"/>
<path d="M1.97999 12.3993L7.9079 12.4335C8.17669 12.4335 8.3966 12.2185 8.40149 11.9497C8.40638 11.676 8.18646 11.4561 7.91768 11.4561L1.98976 11.4219C1.98487 11.4219 1.98487 11.4219 1.98487 11.4219C1.71609 11.4219 1.49617 11.6369 1.49617 11.9057C1.49129 12.1794 1.7112 12.3993 1.97999 12.3993Z" fill="#FD2B20"/>
<path d="M2.97698 10.1805H8.9049C9.17368 10.1805 9.3936 9.96061 9.3936 9.69182C9.3936 9.42304 9.17368 9.20312 8.9049 9.20312H2.97698C2.7082 9.20312 2.48828 9.42304 2.48828 9.69182C2.48828 9.96061 2.7082 10.1805 2.97698 10.1805Z" fill="#FD2B20"/>
<path d="M24.32 9.52012L20.8209 6.62213C20.733 6.54883 20.6254 6.50973 20.5082 6.50973H16.3933V4.75042C16.3933 4.48163 16.1734 4.26172 15.9046 4.26172H3.45745C3.18866 4.26172 2.96875 4.48163 2.96875 4.75042V8.32769C2.96875 8.59648 3.18866 8.81639 3.45745 8.81639C3.72623 8.81639 3.94615 8.59648 3.94615 8.32769V5.23912H15.4208V16.8262H11.4135C11.1447 16.8262 10.9248 17.0461 10.9248 17.3149C10.9248 17.5836 11.1447 17.8036 11.4135 17.8036H17.3805C17.6493 17.8036 17.8692 17.5836 17.8692 17.3149C17.8692 17.0461 17.6493 16.8262 17.3805 16.8262H16.3982V7.48713H20.3371L23.5234 10.1261L23.4892 16.8164H22.981C22.7122 16.8164 22.4923 17.0363 22.4923 17.3051C22.4923 17.5739 22.7122 17.7938 22.981 17.7938H23.973C24.2418 17.7938 24.4617 17.5788 24.4617 17.31L24.5008 9.9013C24.4959 9.75469 24.4324 9.61297 24.32 9.52012Z" fill="#FD2B20"/>
</g>
<defs>
<clipPath id="clip0_2832_3630">
<rect width="24" height="24" fill="white" transform="translate(0.5 0.443359)"/>
</clipPath>
</defs>
</svg>
