<svg width="433" height="434" viewBox="0 0 433 434" fill="none" xmlns="http://www.w3.org/2000/svg">
<path fill-rule="evenodd" clip-rule="evenodd" d="M216.5 54.625C126.823 54.625 54.125 127.323 54.125 217C54.125 306.677 126.823 379.375 216.5 379.375C306.177 379.375 378.875 306.677 378.875 217C378.875 127.323 306.177 54.625 216.5 54.625ZM27.0625 217C27.0625 112.377 111.877 27.5625 216.5 27.5625C321.123 27.5625 405.938 112.377 405.938 217C405.938 321.623 321.123 406.438 216.5 406.438C111.877 406.438 27.0625 321.623 27.0625 217Z" fill="#FD2B20"/>
<path fill-rule="evenodd" clip-rule="evenodd" d="M216.5 149.344C179.134 149.344 148.844 179.634 148.844 217C148.844 254.366 179.134 284.656 216.5 284.656C253.866 284.656 284.156 254.366 284.156 217C284.156 179.634 253.866 149.344 216.5 149.344ZM121.781 217C121.781 164.688 164.188 122.281 216.5 122.281C268.812 122.281 311.219 164.688 311.219 217C311.219 269.312 268.812 311.719 216.5 311.719C164.188 311.719 121.781 269.312 121.781 217Z" fill="#FD2B20"/>
<path d="M216.5 244.062C231.446 244.062 243.562 231.946 243.562 217C243.562 202.054 231.446 189.938 216.5 189.938C201.554 189.938 189.438 202.054 189.438 217C189.438 231.946 201.554 244.062 216.5 244.062Z" fill="#FD2B20"/>
</svg>
