<svg width="24" height="25" viewBox="0 0 24 25" fill="none" xmlns="http://www.w3.org/2000/svg">
<path d="M6.17188 16.1699V15.9824H8.59766V16.123C8.59766 17.084 8.89844 17.7949 9.5 18.2559C10.1094 18.7168 10.9609 18.9473 12.0547 18.9473C13.1328 18.9473 13.9609 18.7207 14.5391 18.2676C15.125 17.8066 15.418 17.1934 15.418 16.4277C15.418 15.7324 15.168 15.1191 14.668 14.5879C14.1758 14.0566 13.0742 13.5684 11.3633 13.123C9.61328 12.6699 8.35938 12.0371 7.60156 11.2246C6.85156 10.4043 6.47656 9.36914 6.47656 8.11914C6.47656 6.83008 6.96094 5.7793 7.92969 4.9668C8.90625 4.14648 10.2422 3.73633 11.9375 3.73633C13.6406 3.73633 14.9961 4.17773 16.0039 5.06055C17.0117 5.94336 17.5156 7.04883 17.5156 8.37695V8.55273H15.1016V8.41211C15.1016 7.58398 14.8359 6.91992 14.3047 6.41992C13.7734 5.91992 12.9844 5.66992 11.9375 5.66992C10.8984 5.66992 10.1328 5.87695 9.64062 6.29102C9.14844 6.70508 8.90234 7.29102 8.90234 8.04883C8.90234 8.68164 9.14453 9.24414 9.62891 9.73633C10.1211 10.2285 11.2188 10.6973 12.9219 11.1426C14.6484 11.5879 15.8984 12.2402 16.6719 13.0996C17.4453 13.9512 17.832 15.0293 17.832 16.334C17.832 17.7012 17.3086 18.8027 16.2617 19.6387C15.2227 20.4668 13.8203 20.8809 12.0547 20.8809C10.2891 20.8809 8.86719 20.4668 7.78906 19.6387C6.71094 18.8105 6.17188 17.6543 6.17188 16.1699ZM11.0352 22.7324V12.0098H12.9336V19.9082L13.0859 20.0254V22.7324H11.0352ZM11.1523 12.0098V4.61523L10.9883 4.49805V2.1543H13.0391V12.0098H11.1523Z" fill="#FD2B20"/>
</svg>
