<svg width="31" height="31" viewBox="0 0 31 31" fill="none" xmlns="http://www.w3.org/2000/svg">
<g clip-path="url(#clip0_2029_2648)">
<path d="M30.3914 23.9545C29.3227 24.2263 28.6617 23.9662 28.0687 23.0756C26.7375 21.081 25.268 19.1779 23.85 17.2396C23.6672 16.9888 23.4773 16.7428 23.2406 16.431C21.5625 18.6951 19.8867 20.8513 18.3141 23.0943C17.7516 23.8959 17.1609 24.2451 16.1109 23.9615L22.4203 15.4935L16.5469 7.84588C17.557 7.649 18.2555 7.74979 18.8742 8.65447C20.2406 10.6513 21.7477 12.5521 23.25 14.5631C24.7617 12.5592 26.25 10.656 27.6562 8.67791C28.2211 7.87635 28.8281 7.57166 29.843 7.86697C29.0742 8.8865 28.3219 9.88963 27.5648 10.8857C26.543 12.2287 25.5398 13.5881 24.4805 14.9029C24.1031 15.3717 24.1641 15.6763 24.5016 16.1193C26.4609 18.6951 28.3969 21.2967 30.3914 23.9545ZM1.01484 15.3529C1.18359 14.5068 1.29609 13.6443 1.53047 12.8146C2.93672 7.79197 8.70234 5.70369 12.6633 8.81619C14.9836 10.642 15.5602 13.2154 15.4453 16.117H2.36719C2.17031 21.3224 5.91797 24.4654 10.6945 22.8623C12.3703 22.2998 13.357 20.9873 13.8516 19.3467C14.1023 18.524 14.5172 18.3951 15.2906 18.6295C14.8945 20.6826 13.9969 22.3982 12.1219 23.4717C9.30938 25.0795 5.29453 24.5592 3.18281 22.3256C1.93594 21.0131 1.40625 19.3795 1.17188 17.6146C1.13672 17.3334 1.06406 17.0568 1.00781 16.7779C1.0125 16.3029 1.01484 15.8279 1.01484 15.3529ZM2.39062 15.0037H14.2102C14.1328 11.2396 11.7891 8.56541 8.58516 8.54197C5.06953 8.51385 2.54297 11.1248 2.39062 15.0037Z" fill="#FD2B20"/>
</g>
<defs>
<clipPath id="clip0_2029_2648">
<rect width="30" height="30" fill="white" transform="translate(0.703125 0.882812)"/>
</clipPath>
</defs>
</svg>
