<svg width="101" height="101" viewBox="0 0 101 101" fill="none" xmlns="http://www.w3.org/2000/svg">
<path d="M50.498 62.9434C57.4016 62.9434 62.998 57.3469 62.998 50.4434C62.998 43.5398 57.4016 37.9434 50.498 37.9434C43.5945 37.9434 37.998 43.5398 37.998 50.4434C37.998 57.3469 43.5945 62.9434 50.498 62.9434Z" fill="#FD2B20"/>
<path d="M96.3652 47.0449C91.1973 39.0527 84.4922 32.2637 76.9766 27.4102C68.6621 22.0352 59.4824 19.1934 50.4316 19.1934C42.1269 19.1934 33.9609 21.5664 26.1601 26.2461C18.2051 31.0176 10.998 37.9883 4.73827 46.9629C4.0316 47.9772 3.64241 49.1786 3.62015 50.4146C3.59789 51.6506 3.94358 52.8652 4.61327 53.9043C9.77147 61.9766 16.4101 68.7754 23.8086 73.5625C32.1387 78.959 41.1035 81.6934 50.4316 81.6934C59.5547 81.6934 68.7539 78.875 77.0332 73.5449C84.5449 68.707 91.2363 61.8926 96.3848 53.834C97.0314 52.8191 97.3732 51.64 97.3698 50.4366C97.3663 49.2332 97.0177 48.0561 96.3652 47.0449ZM50.498 69.1934C46.7896 69.1934 43.1645 68.0937 40.0811 66.0334C36.9977 63.9731 34.5944 61.0448 33.1753 57.6187C31.7562 54.1926 31.3848 50.4226 32.1083 46.7854C32.8318 43.1483 34.6175 39.8073 37.2398 37.1851C39.862 34.5629 43.2029 32.7771 46.8401 32.0536C50.4772 31.3302 54.2472 31.7015 57.6734 33.1206C61.0995 34.5398 64.0278 36.943 66.0881 40.0264C68.1484 43.1098 69.248 46.735 69.248 50.4434C69.2424 55.4144 67.2651 60.1803 63.75 63.6953C60.2349 67.2104 55.4691 69.1877 50.498 69.1934Z" fill="#FD2B20"/>
</svg>
