<svg width="30" height="31" viewBox="0 0 30 31" fill="none" xmlns="http://www.w3.org/2000/svg">
<path d="M19.6875 10.543C20.9307 10.543 22.123 10.0491 23.0021 9.17003C23.8811 8.29095 24.375 7.09867 24.375 5.85547C24.375 4.61227 23.8811 3.41998 23.0021 2.54091C22.123 1.66183 20.9307 1.16797 19.6875 1.16797H10.3125C9.0693 1.16797 7.87702 1.66183 6.99794 2.54091C6.11886 3.41998 5.625 4.61227 5.625 5.85547C5.625 7.09867 6.11886 8.29095 6.99794 9.17003C7.87702 10.0491 9.0693 10.543 10.3125 10.543C9.0693 10.543 7.87702 11.0368 6.99794 11.9159C6.11886 12.795 5.625 13.9873 5.625 15.2305C5.625 16.4737 6.11886 17.666 6.99794 18.545C7.87702 19.4241 9.0693 19.918 10.3125 19.918C9.3854 19.918 8.47912 20.1929 7.70827 20.708C6.93741 21.223 6.3366 21.9551 5.98182 22.8116C5.62703 23.6682 5.5342 24.6107 5.71507 25.52C5.89594 26.4292 6.34238 27.2645 6.99794 27.92C7.6535 28.5756 8.48873 29.022 9.39802 29.2029C10.3073 29.3838 11.2498 29.2909 12.1063 28.9362C12.9629 28.5814 13.6949 27.9806 14.21 27.2097C14.7251 26.4388 15 25.5326 15 24.6055V10.543H19.6875Z" fill="#008CFF"/>
<path d="M19.6875 19.918C22.2763 19.918 24.375 17.8193 24.375 15.2305C24.375 12.6416 22.2763 10.543 19.6875 10.543C17.0987 10.543 15 12.6416 15 15.2305C15 17.8193 17.0987 19.918 19.6875 19.918Z" fill="#008CFF"/>
</svg>
