<svg width="25" height="25" viewBox="0 0 25 25" fill="none" xmlns="http://www.w3.org/2000/svg">
<path d="M22.6794 10.8252L22.5734 10.3757H12.8028V14.511H18.6406C18.0345 17.3891 15.222 18.9041 12.9247 18.9041C11.2531 18.9041 9.49109 18.201 8.32484 17.0709C7.70953 16.4651 7.21974 15.7438 6.88353 14.9485C6.54731 14.1532 6.37126 13.2993 6.36547 12.4359C6.36547 10.694 7.14828 8.95164 8.28734 7.80555C9.42641 6.65945 11.1467 6.0182 12.8572 6.0182C14.8161 6.0182 16.22 7.05836 16.745 7.53273L19.6836 4.60961C18.8216 3.85211 16.4534 1.94336 12.7625 1.94336C9.91484 1.94336 7.18437 3.03414 5.18844 5.02352C3.21875 6.98242 2.19922 9.81508 2.19922 12.4434C2.19922 15.0716 3.16391 17.7627 5.07266 19.7371C7.11219 21.8427 10.0006 22.9434 12.9748 22.9434C15.6809 22.9434 18.2459 21.883 20.0741 19.9593C21.8712 18.0655 22.8008 15.4452 22.8008 12.6984C22.8008 11.542 22.6845 10.8552 22.6794 10.8252Z" fill="#FD2B20"/>
</svg>
