<svg width="49" height="48" viewBox="0 0 49 48" fill="none" xmlns="http://www.w3.org/2000/svg">
<path fill-rule="evenodd" clip-rule="evenodd" d="M11.0801 10.5111C15.5761 6.52621 21.3904 4.5 26.9617 4.5C31.7346 4.5 36.4094 5.99074 39.934 9.09274L39.9351 9.09372L39.9362 9.0947C44.9614 13.5351 44.9619 20.888 39.9377 25.329C39.9372 25.3294 39.9367 25.3299 39.9362 25.3303L37.0982 27.8499C36.7034 28.2006 36.5969 28.538 36.5969 28.7812C36.5969 29.0246 36.7034 29.3621 37.0984 29.7128L37.1007 29.7149L37.103 29.7169C37.3572 29.9446 37.4861 30.0245 37.6064 30.0784C37.7469 30.1414 37.9699 30.21 38.4656 30.2919L38.4681 30.2923L38.4706 30.2928C38.5127 30.2999 38.558 30.3072 38.6061 30.3151C39.3027 30.4287 40.5999 30.6401 41.5454 31.5141L41.5482 31.5166L41.5509 31.5192C42.4455 32.3542 42.9084 33.5761 42.9461 34.7469C42.9845 35.9374 42.5865 37.2617 41.5126 38.2103C37.5536 41.7294 32.06 43.5 26.568 43.5H26.4032L26.3978 43.5C20.9004 43.4603 15.2837 41.6468 11.0809 37.9302C2.57748 30.4146 2.57722 18.027 11.0801 10.5111ZM26.9617 7.5C22.0896 7.5 16.9918 9.27979 13.0692 12.7569L13.0684 12.7576L13.0676 12.7583C5.91497 19.08 5.91497 29.3606 13.0676 35.6823L13.0679 35.6826C16.6449 38.8459 21.5258 40.4635 26.414 40.5H26.568C31.4624 40.5 36.2053 38.915 39.5212 35.9665L39.5235 35.9645L39.5258 35.9625C39.8 35.7207 39.9634 35.3305 39.9477 34.8437C39.9314 34.3385 39.7256 33.9211 39.5065 33.7147C39.2796 33.5072 38.8741 33.4033 37.9745 33.2515C37.3929 33.1553 36.8713 33.0365 36.3795 32.8161C35.8679 32.5868 35.477 32.2877 35.1037 31.9537C34.1596 31.114 33.5969 29.9947 33.5969 28.7812C33.5969 27.5667 34.1606 26.4464 35.1063 25.6066L37.9484 23.0834L37.9497 23.0822C41.6237 19.8358 41.624 14.5906 37.9509 11.3438C35.063 8.80268 31.1321 7.5 26.9617 7.5Z" fill="#008CFF"/>
<path d="M13.7045 22.5C15.3614 22.5 16.7045 21.1569 16.7045 19.5C16.7045 17.8431 15.3614 16.5 13.7045 16.5C12.0477 16.5 10.7045 17.8431 10.7045 19.5C10.7045 21.1569 12.0477 22.5 13.7045 22.5Z" fill="#008CFF"/>
<path d="M14.4545 32.1562C16.1114 32.1562 17.4545 30.8131 17.4545 29.1562C17.4545 27.4994 16.1114 26.1562 14.4545 26.1562C12.7977 26.1562 11.4545 27.4994 11.4545 29.1562C11.4545 30.8131 12.7977 32.1562 14.4545 32.1562Z" fill="#008CFF"/>
<path d="M21.2045 16.5C22.8614 16.5 24.2045 15.1569 24.2045 13.5C24.2045 11.8431 22.8614 10.5 21.2045 10.5C19.5477 10.5 18.2045 11.8431 18.2045 13.5C18.2045 15.1569 19.5477 16.5 21.2045 16.5Z" fill="#008CFF"/>
<path d="M24.2045 38.9062C26.6898 38.9062 28.7045 36.8915 28.7045 34.4062C28.7045 31.921 26.6898 29.9062 24.2045 29.9062C21.7192 29.9062 19.7045 31.921 19.7045 34.4062C19.7045 36.8915 21.7192 38.9062 24.2045 38.9062Z" fill="#008CFF"/>
<path d="M30.9545 16.5C32.6114 16.5 33.9545 15.1569 33.9545 13.5C33.9545 11.8431 32.6114 10.5 30.9545 10.5C29.2977 10.5 27.9545 11.8431 27.9545 13.5C27.9545 15.1569 29.2977 16.5 30.9545 16.5Z" fill="#008CFF"/>
</svg>
