<svg width="64" height="63" viewBox="0 0 64 63" fill="none" xmlns="http://www.w3.org/2000/svg">
<path fill-rule="evenodd" clip-rule="evenodd" d="M8.375 18.8496C8.375 17.2445 9.69716 15.9434 11.3281 15.9434H52.6719C54.3028 15.9434 55.625 17.2445 55.625 18.8496C55.625 20.4547 54.3028 21.7559 52.6719 21.7559H11.3281C9.69716 21.7559 8.375 20.4547 8.375 18.8496Z" fill="white"/>
<path fill-rule="evenodd" clip-rule="evenodd" d="M8.375 31.4434C8.375 29.8383 9.69716 28.5371 11.3281 28.5371H52.6719C54.3028 28.5371 55.625 29.8383 55.625 31.4434C55.625 33.0484 54.3028 34.3496 52.6719 34.3496H11.3281C9.69716 34.3496 8.375 33.0484 8.375 31.4434Z" fill="white"/>
<path fill-rule="evenodd" clip-rule="evenodd" d="M8.375 44.0371C8.375 42.432 9.69716 41.1309 11.3281 41.1309H52.6719C54.3028 41.1309 55.625 42.432 55.625 44.0371C55.625 45.6422 54.3028 46.9434 52.6719 46.9434H11.3281C9.69716 46.9434 8.375 45.6422 8.375 44.0371Z" fill="white"/>
</svg>
