<svg width="48" height="50" viewBox="0 0 48 50" fill="none" xmlns="http://www.w3.org/2000/svg">
<g clip-path="url(#clip0_2843_5114)">
<path d="M44.4739 0.130859L40.4806 44.8662L22.5304 49.8426L4.62972 44.8732L0.640625 0.130859H44.4739Z" fill="#FD2B20"/>
<path d="M22.5547 46.0387L37.0593 42.0175L40.4718 3.78906H22.5547V46.0387Z" fill="#FD2B20"/>
<path d="M14.794 14.7649H22.5568V9.27734H8.79688L8.92823 10.7496L10.2769 25.8715H22.5568V20.3841H15.2955L14.794 14.7649Z" fill="#121011"/>
<path d="M16.0281 28.6152H10.5195L11.2883 37.2313L22.529 40.3518L22.5542 40.3448V34.6356L22.5302 34.642L16.4188 32.9917L16.0281 28.6152Z" fill="#121011"/>
<path d="M22.5352 25.8722H29.2924L28.6554 32.989L22.5352 34.6409V40.3499L33.7848 37.2321L33.8673 36.305L35.1568 21.8583L35.2907 20.3848H22.5352V25.8722Z" fill="#121011"/>
<path d="M22.5352 14.7515V14.7649H35.79L35.9001 13.5314L36.1501 10.7496L36.2813 9.27734H22.5352V14.7515Z" fill="#121011"/>
</g>
<defs>
<clipPath id="clip0_2843_5114">
<rect width="46.875" height="50" fill="white" transform="translate(0.5625)"/>
</clipPath>
</defs>
</svg>
