<svg width="20" height="21" viewBox="0 0 20 21" fill="none" xmlns="http://www.w3.org/2000/svg">
<path d="M16.25 2.63477H3.75C3.08718 2.63549 2.45172 2.89911 1.98303 3.3678C1.51435 3.83648 1.25072 4.47195 1.25 5.13477V15.1348C1.25072 15.7976 1.51435 16.433 1.98303 16.9017C2.45172 17.3704 3.08718 17.634 3.75 17.6348H16.25C16.9128 17.634 17.5483 17.3704 18.017 16.9017C18.4857 16.433 18.7493 15.7976 18.75 15.1348V5.13477C18.7493 4.47195 18.4857 3.83648 18.017 3.3678C17.5483 2.89911 16.9128 2.63549 16.25 2.63477ZM13.125 5.13477C13.4958 5.13477 13.8584 5.24473 14.1667 5.45076C14.475 5.65679 14.7154 5.94962 14.8573 6.29223C14.9992 6.63485 15.0363 7.01185 14.964 7.37556C14.8916 7.73927 14.713 8.07337 14.4508 8.33559C14.1886 8.59781 13.8545 8.77639 13.4908 8.84874C13.1271 8.92109 12.7501 8.88395 12.4075 8.74204C12.0649 8.60013 11.772 8.3598 11.566 8.05146C11.36 7.74312 11.25 7.38061 11.25 7.00977C11.2505 6.51264 11.4482 6.03603 11.7997 5.68451C12.1513 5.33299 12.6279 5.13528 13.125 5.13477ZM3.75 16.3848C3.41848 16.3848 3.10054 16.2531 2.86612 16.0186C2.6317 15.7842 2.5 15.4663 2.5 15.1348V12.493L6.20469 9.2C6.56213 8.88299 7.02698 8.71419 7.50455 8.72797C7.98211 8.74177 8.43645 8.93711 8.775 9.27422L11.3121 11.8059L6.7332 16.3848H3.75ZM17.5 15.1348C17.5 15.4663 17.3683 15.7842 17.1339 16.0186C16.8995 16.2531 16.5815 16.3848 16.25 16.3848H8.50117L13.2441 11.6418C13.5799 11.3562 14.0061 11.1989 14.4469 11.1978C14.8877 11.1966 15.3147 11.3517 15.652 11.6355L17.5 13.1754V15.1348Z" fill="#FD2B20"/>
</svg>
