<svg width="25" height="25" viewBox="0 0 25 25" fill="none" xmlns="http://www.w3.org/2000/svg">
<path fill-rule="evenodd" clip-rule="evenodd" d="M24.043 12.0664C24.043 18.6938 18.6704 24.0664 12.043 24.0664C5.41553 24.0664 0.0429688 18.6938 0.0429688 12.0664C0.0429688 6.59294 3.70746 1.9754 8.71691 0.533326L11.0452 3.02285C6.49017 3.51977 2.94531 7.3792 2.94531 12.0664C2.94531 17.0908 7.01855 21.1641 12.043 21.1641C17.0674 21.1641 21.1406 17.0908 21.1406 12.0664C21.1406 7.37919 17.5958 3.51977 13.0408 3.02285L15.369 0.533326C20.3785 1.9754 24.043 6.59294 24.043 12.0664Z" fill="white"/>
<path d="M11.0452 3.02285C11.3728 2.9871 11.7058 2.96875 12.043 2.96875C12.3802 2.96875 12.7131 2.9871 13.0408 3.02285L15.369 0.533326C14.3129 0.229292 13.1969 0.0664062 12.043 0.0664062C10.889 0.0664062 9.77306 0.229292 8.71691 0.533326L11.0452 3.02285Z" fill="#FD2B20"/>
</svg>
