<svg width="101" height="101" viewBox="0 0 101 101" fill="none" xmlns="http://www.w3.org/2000/svg">
<path fill-rule="evenodd" clip-rule="evenodd" d="M24.8997 15.5158C30.4592 11.8011 36.9953 9.81836 43.6817 9.81836H43.6819C52.6477 9.81893 61.2462 13.3809 67.586 19.7207C73.9258 26.0605 77.4877 34.6589 77.4883 43.6248V43.625C77.4883 50.3113 75.5056 56.8475 71.7909 62.407C71.1389 63.3827 70.4387 64.3206 69.6939 65.2179L90.2097 85.7336C91.4301 86.954 91.4301 88.9327 90.2097 90.1531C88.9893 91.3735 87.0107 91.3735 85.7903 90.1531L65.2745 69.6373C62.6812 71.79 59.7666 73.5545 56.6189 74.8583C50.4415 77.417 43.6442 78.0865 37.0863 76.7821C30.5285 75.4776 24.5047 72.2578 19.7768 67.5299C15.0488 62.802 11.829 56.7782 10.5246 50.2203C9.22016 43.6625 9.88965 36.8651 12.4484 30.6878C15.0071 24.5104 19.3402 19.2305 24.8997 15.5158ZM43.6815 16.0684C38.2313 16.0684 32.9036 17.6846 28.372 20.7125C23.8403 23.7405 20.3083 28.0442 18.2226 33.0795C16.1369 38.1148 15.5912 43.6556 16.6545 49.001C17.7178 54.3465 20.3423 59.2566 24.1962 63.1105C28.05 66.9644 32.9602 69.5889 38.3056 70.6521C43.6511 71.7154 49.1918 71.1697 54.2271 69.084C59.2624 66.9983 63.5662 63.4663 66.5942 58.9346C69.6221 54.403 71.2383 49.0753 71.2383 43.6252M43.6817 16.0684C50.99 16.0689 57.9988 18.9723 63.1666 24.1401C68.3343 29.3078 71.2378 36.3167 71.2383 43.625" fill="#FD2B20"/>
</svg>
