<svg width="25" height="24" viewBox="0 0 25 24" fill="none" xmlns="http://www.w3.org/2000/svg">
<path fill-rule="evenodd" clip-rule="evenodd" d="M4.92578 5.25C4.30446 5.25 3.80078 5.75368 3.80078 6.375V17.625C3.80078 18.2463 4.30446 18.75 4.92578 18.75H20.6758C21.2971 18.75 21.8008 18.2463 21.8008 17.625V6.375C21.8008 5.75368 21.2971 5.25 20.6758 5.25H4.92578ZM2.30078 6.375C2.30078 4.92525 3.47603 3.75 4.92578 3.75H20.6758C22.1255 3.75 23.3008 4.92525 23.3008 6.375V17.625C23.3008 19.0747 22.1255 20.25 20.6758 20.25H4.92578C3.47603 20.25 2.30078 19.0747 2.30078 17.625V6.375Z" fill="#FD2B20"/>
<path fill-rule="evenodd" clip-rule="evenodd" d="M5.45877 7.03954C5.71307 6.71258 6.18428 6.65368 6.51124 6.90799L12.8008 11.7999L19.0903 6.90799C19.4173 6.65368 19.8885 6.71258 20.1428 7.03954C20.3971 7.36651 20.3382 7.83771 20.0112 8.09201L13.2612 13.342C12.9904 13.5527 12.6112 13.5527 12.3403 13.342L5.59033 8.09201C5.26337 7.83771 5.20446 7.36651 5.45877 7.03954Z" fill="#FD2B20"/>
</svg>
