<svg width="101" height="101" viewBox="0 0 101 101" fill="none" xmlns="http://www.w3.org/2000/svg">
<path d="M9.875 34.8186V34.9475C9.87039 35.7528 9.57964 36.5302 9.05469 37.1409V37.1507C8 38.3968 6.75 40.6272 6.75 44.1936C6.75 47.4261 7.78516 49.7073 9.03125 51.2073C9.57797 51.8727 9.87626 52.7075 9.875 53.5686C9.875 55.2262 10.5335 56.816 11.7056 57.9881C12.8777 59.1602 14.4674 59.8186 16.125 59.8186H17.6875C18.1019 59.8186 18.4993 59.654 18.7924 59.361C19.0854 59.068 19.25 58.6705 19.25 58.2561V30.1311C19.25 29.7167 19.0854 29.3193 18.7924 29.0263C18.4993 28.7333 18.1019 28.5686 17.6875 28.5686H16.125C14.4674 28.5686 12.8777 29.2271 11.7056 30.3992C10.5335 31.5713 9.875 33.161 9.875 34.8186Z" fill="#FD2B20"/>
<path d="M88.8164 36.8792L88.6348 36.846C88.4562 36.8119 88.2951 36.7166 88.1792 36.5765C88.0633 36.4364 88 36.2602 88 36.0784V12.553C88 10.0843 86.3613 7.86552 83.9199 7.02177C81.5918 6.21903 79.166 6.87333 77.7324 8.68778C74.6826 12.3296 71.3302 15.7069 67.7109 18.7835C63.0957 22.6897 58.6797 25.4729 54.625 27.0472C54.3293 27.1599 54.0748 27.3597 53.8952 27.6203C53.7156 27.8808 53.6193 28.1897 53.6191 28.5061V58.8421C53.6196 59.453 53.7992 60.0503 54.1355 60.5602C54.4719 61.0701 54.9504 61.4703 55.5117 61.7112C59.2891 63.3304 63.3711 65.9749 67.6211 69.5784C71.2676 72.6828 74.6443 76.0909 77.7148 79.7659C78.2068 80.383 78.8347 80.8782 79.5496 81.2125C80.2644 81.547 81.0469 81.7116 81.8359 81.6936C82.5295 81.6906 83.218 81.5758 83.875 81.3538C86.3809 80.5218 88 78.3831 88 75.9124V52.305C88.0002 52.1206 88.0655 51.9422 88.1846 51.8013C88.3036 51.6605 88.4686 51.5663 88.6504 51.5354L88.8164 51.5081C90.6953 50.9983 94.25 48.8167 94.25 44.1936C94.25 39.5706 90.6953 37.389 88.8164 36.8792Z" fill="#FD2B20"/>
<path d="M47.375 62.9436V30.1311C47.375 29.7167 47.2104 29.3193 46.9174 29.0263C46.6243 28.7333 46.2269 28.5686 45.8125 28.5686H27.0625C26.6481 28.5686 26.2507 28.7333 25.9576 29.0263C25.6646 29.3193 25.5 29.7167 25.5 30.1311V89.5061C25.5 90.7493 25.9939 91.9416 26.8729 92.8207C27.752 93.6998 28.9443 94.1936 30.1875 94.1936H40.4316C41.4054 94.2018 42.3681 93.9869 43.246 93.5654C44.1238 93.1439 44.8935 92.527 45.4961 91.762C46.1139 90.9701 46.5294 90.0396 46.7067 89.051C46.884 88.0623 46.8178 87.0454 46.5137 86.0882C46.1973 85.0765 45.8047 83.9397 45.3867 82.7307C43.8418 78.2581 41.8047 75.4905 41.2617 69.1917C42.8952 69.1559 44.4497 68.482 45.5923 67.3142C46.735 66.1463 47.3749 64.5775 47.375 62.9436Z" fill="#FD2B20"/>
</svg>
