<svg width="30" height="31" viewBox="0 0 30 31" fill="none" xmlns="http://www.w3.org/2000/svg">
<g clip-path="url(#clip0_1938_2568)">
<path d="M22.2647 28.3606C22.1531 28.4197 22.1625 28.4385 22.2694 28.3841C22.3041 28.37 22.3331 28.3503 22.3584 28.3269C22.3584 28.3072 22.3584 28.3072 22.2647 28.3606ZM22.4897 28.2388C22.4363 28.2828 22.4363 28.2828 22.5 28.2538C22.5338 28.2341 22.5638 28.2153 22.5638 28.2097C22.5638 28.1844 22.5487 28.19 22.4897 28.2388ZM22.6359 28.1506C22.5825 28.1947 22.5825 28.1947 22.6462 28.1656C22.6809 28.146 22.71 28.1253 22.71 28.1206C22.71 28.0972 22.695 28.1019 22.6359 28.1506ZM22.7841 28.0635C22.7306 28.1075 22.7306 28.1075 22.7925 28.0775C22.8272 28.0588 22.8562 28.0391 22.8562 28.0335C22.8562 28.01 22.8412 28.0147 22.7841 28.0635ZM22.9838 27.9313C22.8816 27.9997 22.8459 28.0438 22.9397 27.995C23.0025 27.9566 23.1094 27.8722 23.0906 27.8722C23.0503 27.8872 23.0166 27.9125 22.9828 27.9313H22.9838ZM14.0184 0.241266C13.95 0.245953 13.7447 0.264703 13.5647 0.279703C9.30094 0.665953 5.31188 2.96095 2.78344 6.49627C1.38563 8.43408 0.478125 10.685 0.135937 13.0485C0.015 13.8735 0 14.1172 0 15.2356C0 16.3531 0.015 16.5931 0.135937 17.4181C0.9525 23.0535 4.96125 27.7841 10.395 29.5372C11.3728 29.8494 12.3975 30.065 13.5647 30.1972C14.0184 30.246 15.9806 30.246 16.4344 30.1972C18.4519 29.9722 20.1553 29.4744 21.8409 28.6147C22.0997 28.4835 22.1484 28.4488 22.1137 28.4197C21.2887 27.3313 20.4788 26.2419 19.6678 25.1431L17.2706 21.906L14.2678 17.4575C13.2666 15.9688 12.2616 14.4838 11.2406 13.01C11.2303 13.01 11.2172 14.9872 11.2116 17.3985C11.2013 21.6219 11.2013 21.7935 11.1478 21.891C11.0944 22.0081 11.0062 22.1056 10.8891 22.16C10.7962 22.2041 10.7128 22.2135 10.2694 22.2135H9.76219L9.63 22.131C9.5475 22.0775 9.47906 22.0035 9.435 21.9163L9.37125 21.7841L9.37594 15.905L9.38625 10.026L9.47906 9.90877C9.53813 9.83658 9.61125 9.77752 9.69375 9.73345C9.81656 9.67439 9.86531 9.66502 10.3725 9.66502C10.9678 9.66502 11.0662 9.68845 11.2228 9.86002C12.4378 11.6713 13.6491 13.4872 14.8406 15.3088C16.7897 18.2638 19.4503 22.296 20.7581 24.2741L23.1366 27.8731L23.2537 27.7953C24.3966 27.0331 25.4363 26.1256 26.3334 25.0906C28.2234 22.9269 29.4497 20.2653 29.865 17.4247C29.9859 16.5997 30.0009 16.355 30.0009 15.2375C30.0009 14.1191 29.9859 13.88 29.865 13.055C29.0484 7.4197 25.0397 2.68908 19.6059 0.935016C18.5897 0.613453 17.5444 0.394078 16.4859 0.281578C16.2019 0.252516 14.2631 0.217828 14.0194 0.243141L14.0184 0.241266ZM20.1562 9.31345C20.2978 9.38095 20.4047 9.50845 20.4534 9.6547C20.4788 9.73345 20.4834 11.3638 20.4788 15.036L20.4684 20.3085L19.5413 18.8835L18.6084 17.4575V13.6297C18.6084 11.1481 18.6187 9.75689 18.6319 9.68845C18.6759 9.53189 18.7828 9.40064 18.9253 9.31814C19.0416 9.25908 19.0866 9.25439 19.5506 9.25439C19.9847 9.25439 20.0588 9.25908 20.1562 9.31345Z" fill="#FD2B20"/>
</g>
<defs>
<clipPath id="clip0_1938_2568">
<rect width="30" height="30" fill="white" transform="translate(0 0.230469)"/>
</clipPath>
</defs>
</svg>
