<svg width="31" height="30" viewBox="0 0 31 30" fill="none" xmlns="http://www.w3.org/2000/svg">
<path fill-rule="evenodd" clip-rule="evenodd" d="M12.0957 4.72002C12.515 3.31178 13.7448 1.875 15.5663 1.875C17.3883 1.875 18.6169 3.31184 19.0394 4.71742C19.0415 4.72004 19.0443 4.72335 19.048 4.72715C19.0566 4.73618 19.0665 4.74449 19.0757 4.75093C19.0828 4.75583 19.0871 4.75795 19.0875 4.7582C20.1479 5.19477 21.396 5.89214 22.3721 7.16893C23.3561 8.45598 23.9962 10.2427 23.9962 12.7354C23.9962 15.2207 24.2584 16.5836 24.6445 17.5192C24.9831 18.3395 25.4283 18.8787 26.0618 19.646C26.1543 19.7581 26.2509 19.875 26.3517 19.9984L26.3519 19.9987C27.5195 21.4289 26.417 23.4375 24.6185 23.4375H20.2538C20.2538 24.6807 19.76 25.873 18.8809 26.7521C18.0018 27.6311 16.8095 28.125 15.5663 28.125C14.3231 28.125 13.1308 27.6311 12.2518 26.7521C11.3727 25.873 10.8788 24.6807 10.8788 23.4375H6.52003C4.72483 23.4375 3.60373 21.4391 4.78096 19.9984C4.88185 19.875 4.97846 19.7579 5.07105 19.6458C5.70446 18.8786 6.14971 18.3393 6.48857 17.5189C6.87506 16.5832 7.1379 15.2203 7.13937 12.7354M12.7538 23.4375C12.7538 24.1834 13.0501 24.8988 13.5776 25.4262C14.105 25.9537 14.8204 26.25 15.5663 26.25C16.3122 26.25 17.0276 25.9537 17.5551 25.4262C18.0825 24.8988 18.3788 24.1834 18.3788 23.4375H12.7538ZM6.52003 21.5625C6.32735 21.5625 6.2406 21.4738 6.20576 21.4056C6.18569 21.3663 6.17968 21.3281 6.18257 21.2962C6.18512 21.2679 6.19556 21.2305 6.23288 21.1848L6.23293 21.1848C6.32348 21.0739 6.4147 20.964 6.50603 20.8539C7.13446 20.0965 7.76784 19.3332 8.22156 18.2347C8.74311 16.972 9.01287 15.3277 9.01437 12.7359V12.7354C9.01437 10.5759 9.561 9.21011 10.252 8.30653C10.9508 7.39285 11.8664 6.86078 12.762 6.49196L12.7622 6.49187C13.2395 6.29553 13.7158 5.8581 13.8878 5.27201L13.8884 5.26967C14.1552 4.3519 14.8445 3.75 15.5663 3.75C16.2881 3.75 16.9777 4.35145 17.2479 5.27112L17.2486 5.2735C17.4196 5.84982 17.8908 6.29339 18.3735 6.49191C19.2672 6.85983 20.1832 7.39293 20.8826 8.30774C21.5742 9.21238 22.1212 10.5786 22.1212 12.7354C22.1212 15.3272 22.3902 16.9716 22.9113 18.2345C23.3648 19.3332 23.9983 20.0967 24.6268 20.8541C24.718 20.9641 24.8092 21.074 24.8997 21.1848C24.9584 21.2569 24.9631 21.3316 24.9251 21.4067C24.8895 21.4768 24.8042 21.5625 24.6185 21.5625H6.52003ZM12.0957 4.72002C12.0941 4.72193 12.0921 4.7242 12.0896 4.72677C12.0816 4.73504 12.0722 4.74303 12.0628 4.74951C12.054 4.75553 12.0488 4.75789 12.0488 4.75789L12.0482 4.75813C10.9874 5.19496 9.73891 5.89101 8.76268 7.16749C7.77874 8.45405 7.13946 10.2405 7.13937 12.7348" fill="#FD2B20"/>
</svg>
