<svg width="24" height="25" viewBox="0 0 24 25" fill="none" xmlns="http://www.w3.org/2000/svg">
<path fill-rule="evenodd" clip-rule="evenodd" d="M15 3.63477C15 3.22055 15.3358 2.88477 15.75 2.88477H21C21.4142 2.88477 21.75 3.22055 21.75 3.63477V8.88477C21.75 9.29898 21.4142 9.63477 21 9.63477C20.5858 9.63477 20.25 9.29898 20.25 8.88477V5.44543L11.0303 14.6651C10.7374 14.958 10.2626 14.958 9.96967 14.6651C9.67678 14.3722 9.67678 13.8973 9.96967 13.6044L19.1893 4.38477H15.75C15.3358 4.38477 15 4.04898 15 3.63477ZM4.875 7.38477C4.57663 7.38477 4.29048 7.50329 4.0795 7.71427C3.86853 7.92525 3.75 8.2114 3.75 8.50977V19.7598C3.75 20.0581 3.86853 20.3443 4.0795 20.5553C4.29048 20.7662 4.57663 20.8848 4.875 20.8848H16.125C16.2727 20.8848 16.419 20.8557 16.5555 20.7991C16.692 20.7426 16.816 20.6597 16.9205 20.5553C17.025 20.4508 17.1078 20.3268 17.1644 20.1903C17.2209 20.0538 17.25 19.9075 17.25 19.7598V11.1348C17.25 10.7206 17.5858 10.3848 18 10.3848C18.4142 10.3848 18.75 10.7206 18.75 11.1348V19.7598C18.75 20.1045 18.6821 20.4458 18.5502 20.7643C18.4183 21.0828 18.2249 21.3722 17.9812 21.6159C17.7374 21.8597 17.448 22.053 17.1295 22.1849C16.8111 22.3169 16.4697 22.3848 16.125 22.3848H4.875C4.17881 22.3848 3.51113 22.1082 3.01884 21.6159C2.52656 21.1236 2.25 20.456 2.25 19.7598V8.50977C2.25 7.81357 2.52656 7.14589 3.01884 6.65361C3.51113 6.16133 4.17881 5.88477 4.875 5.88477H12.7256C13.1398 5.88477 13.4756 6.22055 13.4756 6.63477C13.4756 7.04898 13.1398 7.38477 12.7256 7.38477H4.875Z" fill="#FD2B20"/>
</svg>
