<svg width="64" height="65" viewBox="0 0 64 65" fill="none" xmlns="http://www.w3.org/2000/svg">
<path fill-rule="evenodd" clip-rule="evenodd" d="M14.5026 14.9055C20.4973 9.59223 28.2497 6.89062 35.6781 6.89062C42.0419 6.89062 48.2751 8.87828 52.9745 13.0143L52.976 13.0156L52.9774 13.0169C59.6777 18.9374 59.6784 28.7413 52.9794 34.6626C52.9788 34.6632 52.9781 34.6638 52.9774 34.6644L49.1934 38.0238C48.667 38.4914 48.525 38.9413 48.525 39.2656C48.525 39.59 48.6671 40.04 49.1937 40.5077L49.1968 40.5105L49.1999 40.5132C49.5388 40.8168 49.7107 40.9233 49.871 40.9952C50.0584 41.0792 50.3557 41.1707 51.0166 41.2799L51.02 41.2804L51.0233 41.281C51.0794 41.2905 51.1398 41.3003 51.204 41.3108C52.1327 41.4622 53.8624 41.7441 55.1231 42.9094L55.1268 42.9128L55.1304 42.9162C56.3231 44.0296 56.9403 45.6588 56.9907 47.2199C57.0419 48.8071 56.5112 50.5729 55.0793 51.8377C49.8007 56.5298 42.4759 58.8906 35.1531 58.8906H34.9334L34.9262 58.8906C27.5964 58.8377 20.1075 56.4197 14.5036 51.4642C3.1658 41.4435 3.16545 24.9266 14.5026 14.9055ZM35.6781 10.8906C29.182 10.8906 22.385 13.2637 17.1548 17.8998L17.1537 17.9007L17.1526 17.9017C7.6158 26.3307 7.6158 40.0381 17.1526 48.467L17.153 48.4674C21.9224 52.6851 28.4302 54.842 34.9478 54.8906H35.1531C41.6791 54.8906 48.003 52.7772 52.4242 48.846L52.4272 48.8433L52.4302 48.8406C52.7958 48.5182 53.0137 47.9979 52.9928 47.3489C52.971 46.6753 52.6967 46.1188 52.4045 45.8435C52.102 45.5669 51.5613 45.4283 50.3619 45.2259C49.5864 45.0977 48.8909 44.9392 48.2352 44.6454C47.5531 44.3397 47.0319 43.941 46.5341 43.4955C45.2753 42.376 44.525 40.8835 44.525 39.2656C44.525 37.6463 45.2767 36.1525 46.5375 35.0327L50.3271 31.6684L50.3288 31.6669C55.2274 27.3384 55.2279 20.3447 50.3303 16.0157C46.4798 12.6275 41.2386 10.8906 35.6781 10.8906Z" fill="#FD2B20"/>
<path d="M18.0019 30.8906C20.211 30.8906 22.0019 29.0998 22.0019 26.8906C22.0019 24.6815 20.211 22.8906 18.0019 22.8906C15.7927 22.8906 14.0019 24.6815 14.0019 26.8906C14.0019 29.0998 15.7927 30.8906 18.0019 30.8906Z" fill="#FD2B20"/>
<path d="M19.0019 43.7656C21.211 43.7656 23.0019 41.9748 23.0019 39.7656C23.0019 37.5565 21.211 35.7656 19.0019 35.7656C16.7927 35.7656 15.0019 37.5565 15.0019 39.7656C15.0019 41.9748 16.7927 43.7656 19.0019 43.7656Z" fill="#FD2B20"/>
<path d="M28.0019 22.8906C30.211 22.8906 32.0019 21.0998 32.0019 18.8906C32.0019 16.6815 30.211 14.8906 28.0019 14.8906C25.7927 14.8906 24.0019 16.6815 24.0019 18.8906C24.0019 21.0998 25.7927 22.8906 28.0019 22.8906Z" fill="#FD2B20"/>
<path d="M32.0019 52.7656C35.3156 52.7656 38.0019 50.0793 38.0019 46.7656C38.0019 43.4519 35.3156 40.7656 32.0019 40.7656C28.6882 40.7656 26.0019 43.4519 26.0019 46.7656C26.0019 50.0793 28.6882 52.7656 32.0019 52.7656Z" fill="#FD2B20"/>
<path d="M41.0019 22.8906C43.211 22.8906 45.0019 21.0998 45.0019 18.8906C45.0019 16.6815 43.211 14.8906 41.0019 14.8906C38.7927 14.8906 37.0019 16.6815 37.0019 18.8906C37.0019 21.0998 38.7927 22.8906 41.0019 22.8906Z" fill="#FD2B20"/>
</svg>
