<svg width="101" height="101" viewBox="0 0 101 101" fill="none" xmlns="http://www.w3.org/2000/svg">
<path d="M66.1251 50.4434C62.1017 50.4434 58.2345 48.6465 55.1876 45.4043C52.2384 42.2402 50.422 38.002 50.1095 33.4902C49.7774 28.6855 51.2423 24.252 54.2306 21.0293C57.2189 17.8262 61.4376 16.0684 66.1251 16.0684C70.7736 16.0684 74.9923 17.8457 77.9806 21.0488C81.008 24.291 82.4728 28.7051 82.1213 33.4707C81.7892 37.9824 79.9923 42.2207 77.0431 45.3848C74.0158 48.6465 70.1486 50.4434 66.1251 50.4434ZM66.1251 22.3184C63.1954 22.3184 60.5978 23.373 58.8204 25.2871C56.9845 27.2598 56.1446 29.9355 56.3595 33.041C56.5743 36.127 57.7853 39.0176 59.7775 41.1465C61.6134 43.1191 63.879 44.1934 66.1251 44.1934C68.3908 44.1934 70.6369 43.0996 72.4728 41.1465C74.465 39.0176 75.6759 36.1465 75.8908 33.041C76.1056 30.0332 75.2267 27.2793 73.3908 25.3262C71.6134 23.373 69.0158 22.3184 66.1251 22.3184Z" fill="#FD2B20"/>
<path d="M91.8673 84.8187H40.383C38.6838 84.8187 37.1213 84.057 36.0861 82.7289C35.0119 81.3422 34.6213 79.4672 35.0509 77.6898C36.6916 71.0883 40.7736 65.6195 46.8283 61.85C52.1994 58.5101 59.0548 56.6742 66.1056 56.6742C73.2931 56.6742 79.9728 58.432 85.383 61.7718C91.4572 65.5023 95.5392 71.0101 97.1799 77.6898C97.6095 79.4672 97.2189 81.3422 96.1447 82.7289C95.1291 84.057 93.5666 84.8187 91.8673 84.8187ZM41.3009 78.5687H90.9689C87.7463 67.0453 75.6564 62.9437 66.1252 62.9437C56.633 62.9437 44.5627 67.0453 41.3009 78.5687Z" fill="#FD2B20"/>
<path d="M29.211 51.2242C22.336 51.2242 16.3009 44.8375 15.7345 36.9859C15.4415 32.9625 16.6915 29.2516 19.2306 26.5172C21.7501 23.8219 25.2853 22.3375 29.1915 22.3375C33.0782 22.3375 36.6134 23.8414 39.1329 26.5562C41.6915 29.3102 42.9415 33.0211 42.6485 37.0055C42.1212 44.8375 36.0665 51.2242 29.211 51.2242ZM29.211 28.568C27.0626 28.568 25.1485 29.3492 23.8204 30.775C22.4532 32.2398 21.8087 34.232 21.9845 36.5367C22.3165 41.107 25.6173 44.9742 29.211 44.9742C32.8048 44.9742 36.1251 41.107 36.4376 36.5367C36.5938 34.2906 35.9298 32.2594 34.5821 30.7945C33.254 29.3492 31.3399 28.568 29.211 28.568Z" fill="#FD2B20"/>
<path d="M30.5783 78.568H8.64468C7.10171 78.568 5.67593 77.8649 4.7189 76.6735C3.74234 75.4235 3.39077 73.7047 3.7814 72.1031C5.12906 66.6539 8.48843 62.1617 13.4689 59.0758C17.8634 56.361 23.4494 54.8571 29.1916 54.8571C34.1134 54.8571 38.3127 55.6774 42.0236 57.3766C43.5861 58.0992 44.2892 59.9547 43.5666 61.5172C42.8439 63.0797 40.9884 63.7828 39.4259 63.0602C36.5548 61.7516 33.215 61.1071 29.2111 61.1071C22.0822 61.1071 13.0783 64.0758 10.2267 72.3375H30.5783C32.297 72.3375 33.7033 73.7438 33.7033 75.4625C33.7033 77.1813 32.297 78.568 30.5783 78.568Z" fill="#FD2B20"/>
</svg>
