<svg width="101" height="101" viewBox="0 0 101 101" fill="none" xmlns="http://www.w3.org/2000/svg">
<g clip-path="url(#clip0_2831_3537)">
<path fill-rule="evenodd" clip-rule="evenodd" d="M50.5003 6.69336C47.9115 6.69336 45.8128 8.79203 45.8128 11.3809C45.8128 13.9697 47.9115 16.0684 50.5003 16.0684C53.0892 16.0684 55.1878 13.9697 55.1878 11.3809C55.1878 8.79203 53.0892 6.69336 50.5003 6.69336ZM39.5628 11.3809C39.5628 5.34024 44.4597 0.443359 50.5003 0.443359C56.5409 0.443359 61.4378 5.34025 61.4378 11.3809C61.4378 17.4215 56.5409 22.3184 50.5003 22.3184C44.4597 22.3184 39.5628 17.4215 39.5628 11.3809ZM41.1253 31.6934C39.4677 31.6934 37.878 32.3518 36.7059 33.5239C35.5338 34.696 34.8753 36.2858 34.8753 37.9434V55.1494L34.8751 55.168C34.8727 55.369 34.9105 55.5684 34.9864 55.7546C35.0622 55.9408 35.1745 56.1099 35.3166 56.2521C35.4588 56.3942 35.6279 56.5065 35.8141 56.5823C36.0003 56.6581 36.1997 56.696 36.4007 56.6936L36.4378 56.6931L36.4749 56.6936C36.6759 56.696 36.8754 56.6581 37.0616 56.5823C37.2478 56.5065 37.4169 56.3942 37.559 56.2521C37.7012 56.1099 37.8134 55.9408 37.8893 55.7546C37.9589 55.5837 37.9965 55.4015 38.0003 55.2172V55.1495V37.9434C38.0003 36.2175 39.3994 34.8184 41.1253 34.8184C42.8512 34.8184 44.2503 36.2175 44.2503 37.9434V41.0653C44.2503 41.0663 44.2503 41.0643 44.2503 41.0653V55.1147L44.2503 55.2569V92.6487L44.2501 92.6666C44.2478 92.8678 44.2857 93.0674 44.3617 93.2537C44.4376 93.44 44.55 93.6092 44.6922 93.7515C44.8345 93.8937 45.0037 94.0061 45.19 94.082C45.3763 94.158 45.5759 94.1959 45.7771 94.1936L45.8128 94.1932L45.8486 94.1936C46.0498 94.1959 46.2493 94.158 46.4356 94.082C46.6219 94.0061 46.7912 93.8937 46.9334 93.7515C47.0757 93.6092 47.1881 93.44 47.264 93.2537C47.3328 93.0848 47.3704 92.905 47.3751 92.7231C47.3749 92.6871 47.375 92.6512 47.3753 92.6152L47.3753 66.0684C47.3753 64.3425 48.7744 62.9434 50.5003 62.9434C52.2262 62.9434 53.6253 64.3425 53.6253 66.0684L53.6253 92.6152C53.6256 92.6512 53.6257 92.6871 53.6255 92.7231C53.6302 92.905 53.6678 93.0848 53.7367 93.2537C53.8126 93.44 53.925 93.6092 54.0672 93.7515C54.2095 93.8937 54.3787 94.0061 54.565 94.082C54.7513 94.158 54.9509 94.1959 55.1521 94.1936L55.1878 94.1932L55.2236 94.1936C55.4248 94.1959 55.6243 94.158 55.8106 94.082C55.9969 94.0061 56.1662 93.8937 56.3084 93.7515C56.4507 93.6092 56.5631 93.44 56.639 93.2537C56.7149 93.0674 56.7528 92.8678 56.7505 92.6666L56.7503 92.6487V55.2571C56.7499 55.2096 56.7499 55.1622 56.7503 55.1147V37.9434C56.7503 36.2175 58.1494 34.8184 59.8753 34.8184C61.6012 34.8184 63.0003 36.2175 63.0003 37.9434V55.2173C63.0042 55.4015 63.0418 55.5837 63.1114 55.7546C63.1872 55.9408 63.2995 56.1099 63.4416 56.2521C63.5838 56.3942 63.7529 56.5065 63.9391 56.5823C64.1253 56.6581 64.3247 56.696 64.5257 56.6936L64.5628 56.6931L64.5999 56.6936C64.8009 56.696 65.0004 56.6581 65.1866 56.5823C65.3728 56.5065 65.5419 56.3942 65.684 56.2521C65.8262 56.1099 65.9384 55.9408 66.0143 55.7546C66.0901 55.5684 66.1279 55.369 66.1255 55.168L66.1253 55.1494V37.9434C66.1253 36.2858 65.4668 34.696 64.2947 33.5239C63.1226 32.3518 61.5329 31.6934 59.8753 31.6934H41.1253ZM63.0003 62.7958V92.6154C63.0094 93.6424 62.8145 94.6611 62.4268 95.6124C62.0366 96.5699 61.459 97.4398 60.7278 98.1709C59.9967 98.902 59.1268 99.4797 58.1693 99.8699C57.2228 100.256 56.2096 100.45 55.1878 100.443C54.166 100.45 53.1528 100.256 52.2063 99.8699C51.5979 99.6219 51.0249 99.2983 50.5003 98.9077C49.9758 99.2983 49.4027 99.6219 48.7943 99.8699C47.8478 100.256 46.8346 100.45 45.8128 100.443C44.791 100.45 43.7778 100.256 42.8313 99.8699C41.8738 99.4797 41.0039 98.902 40.2728 98.1709C39.5417 97.4398 38.964 96.5699 38.5738 95.6124C38.1862 94.6611 37.9912 93.6424 38.0003 92.6153V62.7958C37.487 62.8975 36.9636 62.9472 36.4378 62.9435C35.4162 62.9507 34.4031 62.7561 33.4566 62.3707C32.4988 61.9805 31.6286 61.4028 30.8972 60.6715C30.1659 59.9401 29.5881 59.0699 29.198 58.1121C28.8105 57.1606 28.6159 56.1418 28.6253 55.1147V37.9434C28.6253 34.6282 29.9423 31.4487 32.2865 29.1045C34.6307 26.7603 37.8101 25.4434 41.1253 25.4434H59.8753C63.1905 25.4434 66.37 26.7603 68.7142 29.1045C71.0584 31.4487 72.3753 34.6282 72.3753 37.9434V55.1147C72.3847 56.1418 72.1901 57.1606 71.8026 58.1121C71.4125 59.0699 70.8348 59.9401 70.1034 60.6715C69.3721 61.4028 68.5019 61.9806 67.544 62.3707C66.5976 62.7561 65.5845 62.9507 64.5628 62.9435C64.0371 62.9472 63.5136 62.8975 63.0003 62.7958ZM44.2503 55.2569C44.2508 55.2096 44.2508 55.1621 44.2503 55.1147Z" fill="#FD2B20"/>
</g>
<defs>
<clipPath id="clip0_2831_3537">
<rect width="100" height="100" fill="white" transform="translate(0.5 0.443359)"/>
</clipPath>
</defs>
</svg>
