<svg width="25" height="24" viewBox="0 0 25 24" fill="none" xmlns="http://www.w3.org/2000/svg">
<path fill-rule="evenodd" clip-rule="evenodd" d="M7.2169 1.83309C7.37414 1.95658 7.55074 2.12273 7.75391 2.3234C8.1892 2.75181 8.69419 3.4382 9.12752 4.09713C9.5657 4.76344 9.97173 5.46488 10.1993 5.95309L10.1994 5.95341L10.1996 5.95372C10.3286 6.23111 10.4448 6.48249 10.5266 6.7028C10.6096 6.92653 10.6785 7.17263 10.679 7.44118C10.6799 8.00333 10.3748 8.43719 10.0809 8.83736C9.99644 8.95232 9.9247 9.04652 9.86287 9.12772C9.72959 9.30273 9.64221 9.41747 9.57226 9.55016C9.50403 9.67959 9.48412 9.77304 9.51641 9.92348C9.56298 10.1404 9.76543 10.6152 10.1586 11.2364C10.5387 11.8372 11.0593 12.5148 11.6812 13.1347C12.303 13.7546 12.9698 14.2614 13.5586 14.6281C14.1653 15.006 14.6325 15.2 14.8557 15.2476C15.011 15.2807 15.1079 15.26 15.2376 15.1924C15.3745 15.1212 15.4962 15.0283 15.6854 14.8838C15.7598 14.827 15.8446 14.7623 15.9449 14.6877L15.9451 14.6876L15.9526 14.682C16.3542 14.3837 16.8003 14.0522 17.3658 14.0528C17.6452 14.0531 17.896 14.132 18.1168 14.2221C18.3277 14.3082 18.5701 14.4303 18.8359 14.5642L18.8582 14.5754C19.3241 14.8104 20.017 15.2085 20.6877 15.6424C21.3465 16.0687 22.0418 16.5662 22.4747 17.0024L22.4753 17.0031C22.6765 17.2063 22.8431 17.3829 22.9669 17.5401C23.0867 17.6922 23.2183 17.8891 23.2737 18.1339C23.3362 18.4097 23.2796 18.6391 23.2215 18.7982C23.1953 18.87 23.1644 18.9388 23.1423 18.9881C23.1388 18.9958 23.1354 19.0033 23.1321 19.0106C23.1115 19.0563 23.0936 19.0962 23.0745 19.1418L23.074 19.1429L23.0736 19.144C22.8776 19.6086 22.6393 20.0542 22.3616 20.475L22.3608 20.4763L22.36 20.4776C21.8173 21.2928 21.3069 21.8254 20.5134 22.195C20.1011 22.387 19.5119 22.581 18.5964 22.4668C17.7157 22.357 16.57 21.9671 15.0063 21.0914L15.0059 21.0911C12.5037 19.6878 10.7675 18.4779 8.52775 16.2445C6.29462 14.0176 5.19698 12.5642 3.65937 9.77085C2.11142 6.95878 2.11364 5.22466 2.5557 4.28004C2.92686 3.48691 3.46483 2.97881 4.2773 2.43901L4.27891 2.43795L4.28051 2.4369C4.70182 2.16009 5.1476 1.92244 5.61226 1.72694L5.61379 1.7263L5.61532 1.72566C5.66131 1.70655 5.70153 1.68852 5.74751 1.66791C5.75473 1.66467 5.76208 1.66138 5.76962 1.658C5.81903 1.63589 5.88794 1.60515 5.95964 1.57911C6.11856 1.52138 6.34753 1.46499 6.6228 1.52706C6.86754 1.58225 7.06443 1.71334 7.2169 1.83309ZM6.19257 3.11014C5.81342 3.26977 5.44964 3.46369 5.10576 3.68948C4.41939 4.14568 4.12515 4.46524 3.91429 4.91582C3.77416 5.21527 3.51482 6.39771 4.97343 9.04751C6.44238 11.7161 7.45412 13.0555 9.58693 15.1823C11.713 17.3025 13.3339 18.4336 15.7393 19.7826C17.2112 20.607 18.1655 20.9015 18.782 20.9784C19.3635 21.0509 19.6685 20.9338 19.88 20.8353C20.3341 20.6237 20.6551 20.3315 21.1105 19.6475C21.3369 19.3043 21.5312 18.9409 21.6911 18.5621C21.7126 18.5105 21.7338 18.4629 21.7516 18.4231C21.6817 18.3401 21.5746 18.2253 21.4098 18.0588C21.0982 17.745 20.52 17.3204 19.8729 16.9018C19.2376 16.4908 18.5918 16.1211 18.1831 15.9149C17.888 15.7663 17.699 15.6718 17.5499 15.6109C17.4047 15.5516 17.3625 15.5528 17.3642 15.5528C17.3778 15.5528 17.3314 15.5263 16.8396 15.8917C16.7894 15.929 16.7351 15.9707 16.6776 16.0147C16.4584 16.1827 16.1931 16.3861 15.9302 16.523C15.5374 16.7275 15.0864 16.8305 14.5428 16.7146C14.067 16.6131 13.4254 16.3123 12.7655 15.9013C12.0877 15.4791 11.3303 14.9029 10.6222 14.1971C9.91432 13.4914 9.32532 12.7248 8.89105 12.0386C8.46971 11.3728 8.15279 10.718 8.04983 10.2383C7.93259 9.69219 8.03948 9.24119 8.24534 8.85066C8.37801 8.599 8.57633 8.33898 8.73955 8.12497C8.78757 8.062 8.83256 8.00302 8.87194 7.94941C9.18723 7.52011 9.17983 7.45168 9.17903 7.44422C9.179 7.44397 9.17898 7.44379 9.17898 7.44367C9.17896 7.42921 9.17562 7.37384 9.12021 7.22448C9.06355 7.07173 8.97534 6.87841 8.83953 6.58637C8.65407 6.18861 8.29054 5.55436 7.87423 4.92131C7.4531 4.28093 7.01875 3.70436 6.70135 3.3921L6.70082 3.39157L6.70028 3.39104C6.5328 3.22561 6.41762 3.1184 6.33446 3.04861C6.29406 3.06667 6.24537 3.08818 6.19257 3.11014Z" fill="#FD2B20"/>
</svg>
