<svg width="31" height="30" viewBox="0 0 31 30" fill="none" xmlns="http://www.w3.org/2000/svg">
<path fill-rule="evenodd" clip-rule="evenodd" d="M10.875 1.875C9.83947 1.875 9 2.71447 9 3.75V26.25C9 27.2855 9.83947 28.125 10.875 28.125H20.25C21.2855 28.125 22.125 27.2855 22.125 26.25V3.75C22.125 2.71447 21.2855 1.875 20.25 1.875H19.253C19.1699 2.19657 19.0022 2.49323 18.7633 2.73208C18.4117 3.08371 17.9348 3.28125 17.4375 3.28125H13.6875C13.1902 3.28125 12.7133 3.08371 12.3617 2.73208C12.1228 2.49323 11.9551 2.19658 11.872 1.875H10.875ZM10.875 0H20.25C22.3211 0 24 1.67893 24 3.75V26.25C24 28.3211 22.3211 30 20.25 30H10.875C8.80393 30 7.125 28.3211 7.125 26.25V3.75C7.125 1.67893 8.80393 0 10.875 0Z" fill="#FD2B20"/>
</svg>
