<svg width="49" height="48" viewBox="0 0 49 48" fill="none" xmlns="http://www.w3.org/2000/svg">
<path fill-rule="evenodd" clip-rule="evenodd" d="M10.8458 7.29745C11.8507 6.64348 13.1933 6.5211 14.3784 7.22881L14.3791 7.22919L37.62 21.1391C37.6201 21.1391 37.6202 21.1392 37.6203 21.1393C38.7125 21.7927 39.2022 22.9448 39.2022 24.0004C39.2022 25.0561 38.7125 26.2081 37.6203 26.8616C37.6202 26.8616 37.6201 26.8617 37.62 26.8617L14.3797 40.7713L14.3791 40.7716L14.3784 40.772C13.1933 41.4797 11.8507 41.3574 10.8458 40.7034C9.8537 40.0577 9.20312 38.9138 9.20312 37.5942V10.4067C9.20312 9.08701 9.8537 7.94317 10.8458 7.29745ZM12.4823 9.81182C12.3494 9.89829 12.2031 10.0913 12.2031 10.4067V37.5942C12.2031 37.9095 12.3494 38.1025 12.4823 38.189C12.5498 38.2329 12.6111 38.2487 12.6586 38.2505C12.7005 38.2521 12.7595 38.2446 12.8403 38.1963L36.08 24.2872C36.1238 24.261 36.2022 24.1789 36.2022 24.0004C36.2022 23.8219 36.1238 23.7399 36.08 23.7136L12.8403 9.80453C12.8402 9.80445 12.8401 9.80438 12.84 9.8043C12.7593 9.75624 12.7004 9.74874 12.6586 9.75033C12.6111 9.75214 12.5498 9.7679 12.4823 9.81182Z" fill="#008CFF"/>
</svg>
