<svg width="200" height="201" viewBox="0 0 200 201" fill="none" xmlns="http://www.w3.org/2000/svg">
<path fill-rule="evenodd" clip-rule="evenodd" d="M56.25 25.4434C49.3464 25.4434 43.75 31.0398 43.75 37.9434V162.943C43.75 169.847 49.3464 175.443 56.25 175.443H143.75C150.654 175.443 156.25 169.847 156.25 162.943V37.9434C156.25 31.0398 150.654 25.4434 143.75 25.4434H56.25ZM31.25 37.9434C31.25 24.1362 42.4429 12.9434 56.25 12.9434H143.75C157.557 12.9434 168.75 24.1362 168.75 37.9434V162.943C168.75 176.75 157.557 187.943 143.75 187.943H56.25C42.4429 187.943 31.25 176.75 31.25 162.943V37.9434Z" fill="#FD2B20"/>
<path fill-rule="evenodd" clip-rule="evenodd" d="M62.5 50.4434C62.5 46.9916 65.2982 44.1934 68.75 44.1934H131.25C134.702 44.1934 137.5 46.9916 137.5 50.4434C137.5 53.8951 134.702 56.6934 131.25 56.6934H68.75C65.2982 56.6934 62.5 53.8951 62.5 50.4434Z" fill="#FD2B20"/>
<path fill-rule="evenodd" clip-rule="evenodd" d="M62.5 81.6934C62.5 78.2416 65.2982 75.4434 68.75 75.4434H131.25C134.702 75.4434 137.5 78.2416 137.5 81.6934C137.5 85.1451 134.702 87.9434 131.25 87.9434H68.75C65.2982 87.9434 62.5 85.1451 62.5 81.6934Z" fill="#FD2B20"/>
<path fill-rule="evenodd" clip-rule="evenodd" d="M62.5 112.943C62.5 109.492 65.2982 106.693 68.75 106.693H100C103.452 106.693 106.25 109.492 106.25 112.943C106.25 116.395 103.452 119.193 100 119.193H68.75C65.2982 119.193 62.5 116.395 62.5 112.943Z" fill="#FD2B20"/>
</svg>
