<svg width="433" height="434" viewBox="0 0 433 434" fill="none" xmlns="http://www.w3.org/2000/svg">
<path fill-rule="evenodd" clip-rule="evenodd" d="M341.316 30.6536C359.466 27.4323 376.839 26.7236 390.944 30.1642C394.114 30.9254 397.003 32.5691 399.277 34.9055C401.526 37.2149 403.081 40.1069 403.769 43.2528C407.081 57.7751 406.394 75.2956 403.163 93.5845C399.89 112.105 393.844 132.329 385.662 152.629C369.357 193.082 344.051 235.105 313.554 265.443C304.59 274.461 294.984 282.813 284.813 290.432C285.48 307.036 283.585 324.217 276.818 339.746L276.812 339.761C265.848 364.84 246.094 380.587 227.067 390.365C208.097 400.115 189.029 404.378 177.714 406.196C174.514 406.713 171.238 406.488 168.139 405.537C165.04 404.586 162.202 402.935 159.842 400.712C157.483 398.489 155.667 395.754 154.533 392.717C153.4 389.68 152.98 386.423 153.306 383.198C153.31 383.159 153.314 383.121 153.318 383.082L159.279 328.773C158.675 328.712 158.072 328.649 157.469 328.582C150.827 327.896 144.628 324.931 139.926 320.19C139.915 320.179 139.904 320.168 139.893 320.157L113.458 293.722C113.447 293.711 113.436 293.7 113.425 293.689C108.686 288.99 105.72 282.794 105.033 276.155C104.962 275.521 104.896 274.887 104.833 274.252L50.4729 280.22L50.417 280.226L50.375 280.23C47.1458 280.561 43.8838 280.144 40.8418 279.011C37.7997 277.878 35.0595 276.059 32.8334 273.697C30.6073 271.335 28.9549 268.491 28.0045 265.387C27.0542 262.283 26.8313 259.002 27.3531 255.799L27.3571 255.775C29.2151 244.495 33.4976 225.456 43.2618 206.497C53.0513 187.488 68.7925 167.748 93.8523 156.729L93.8882 156.713C109.424 149.936 126.697 148.045 143.404 148.774C151.024 138.64 159.37 129.069 168.376 120.134C198.802 89.7375 241.461 64.4428 282.179 48.1488C302.616 39.9707 322.907 33.9207 341.316 30.6536ZM292.234 73.2743C253.94 88.598 214.679 112.124 187.488 139.295L187.452 139.33C177.741 148.962 168.885 159.421 160.986 170.587C158.2 174.527 153.526 176.684 148.72 176.249C132.249 174.759 117.012 176.157 104.729 181.51C87.098 189.267 75.2826 203.428 67.3212 218.887C61.1882 230.796 57.6047 242.993 55.5426 252.438L116.081 245.792C119.882 245.375 123.683 246.585 126.542 249.125C129.401 251.664 131.053 255.294 131.088 259.118C131.131 263.831 131.414 268.538 131.936 273.221C131.941 273.268 131.946 273.316 131.951 273.363C131.993 273.784 132.181 274.176 132.482 274.474L132.538 274.53L159.085 301.076L159.14 301.132C159.437 301.433 159.83 301.62 160.252 301.663C160.302 301.668 160.353 301.673 160.404 301.679C165.058 302.198 169.736 302.481 174.419 302.526C178.241 302.563 181.87 304.216 184.407 307.075C186.945 309.934 188.155 313.733 187.738 317.533L181.098 378.03C190.542 375.996 202.768 372.426 214.697 366.295C230.166 358.345 244.31 346.538 252.011 328.93C257.378 316.611 258.774 301.443 257.36 285.022C256.947 280.226 259.112 275.572 263.047 272.8C274.244 264.91 284.731 256.056 294.386 246.339L294.443 246.282C321.762 219.114 345.272 180.446 360.562 142.512C368.179 123.613 373.626 105.213 376.513 88.8763C378.852 75.6337 379.407 64.3121 378.403 55.3967C370.005 54.4497 359.071 54.988 346.045 57.2997C329.8 60.1829 311.307 65.6419 292.234 73.2743ZM173.413 379.478C173.408 379.478 173.403 379.479 173.397 379.48L173.41 379.478L173.413 379.478ZM278.114 133.261C273.648 133.261 269.282 134.585 265.569 137.066C261.855 139.548 258.961 143.075 257.252 147.201C255.543 151.327 255.096 155.868 255.968 160.248C256.84 164.628 258.991 168.652 262.149 171.809L262.161 171.821C264.254 173.919 266.741 175.583 269.478 176.719C272.216 177.854 275.15 178.439 278.114 178.439C281.078 178.439 284.013 177.854 286.75 176.719C289.488 175.583 291.974 173.919 294.068 171.821L294.079 171.809C297.237 168.652 299.388 164.628 300.26 160.248C301.132 155.868 300.685 151.327 298.976 147.201C297.267 143.075 294.373 139.548 290.66 137.066C286.946 134.585 282.58 133.261 278.114 133.261ZM250.533 114.565C258.697 109.11 268.295 106.198 278.114 106.198C287.933 106.198 297.531 109.11 305.695 114.565C313.859 120.021 320.222 127.774 323.979 136.846C327.736 145.918 328.719 155.9 326.802 165.53C324.887 175.155 320.162 183.996 313.224 190.936C308.617 195.553 303.144 199.216 297.12 201.716C291.095 204.215 284.637 205.501 278.114 205.501C271.592 205.501 265.133 204.215 259.109 201.716C253.087 199.218 247.617 195.557 243.011 190.943C236.07 184.002 231.342 175.158 229.426 165.53C227.51 155.9 228.492 145.918 232.249 136.846C236.006 127.774 242.369 120.021 250.533 114.565ZM106.158 296.716C107.069 304.133 101.794 310.885 94.3762 311.795C88.9459 312.462 83.8935 314.921 80.0193 318.784C78.7195 320.094 76.6207 323.69 74.5489 330.473C72.6078 336.828 71.1546 344.385 70.0972 351.884C69.4377 356.561 68.9502 361.083 68.5919 365.09C72.6024 364.731 77.1279 364.243 81.8079 363.583C89.3079 362.524 96.864 361.07 103.214 359.127C110.01 357.049 113.59 354.946 114.879 353.656L114.902 353.633C118.773 349.779 121.232 344.733 121.882 339.309C122.772 331.889 129.508 326.596 136.928 327.485C144.348 328.375 149.642 335.112 148.752 342.532C147.378 353.992 142.184 364.654 134.007 372.8C127.842 378.962 118.912 382.626 111.13 385.006C102.898 387.524 93.8057 389.22 85.5894 390.38C77.3113 391.548 69.5748 392.219 63.9297 392.599C61.0975 392.79 58.7686 392.909 57.1328 392.981C56.3145 393.017 55.6681 393.041 55.2175 393.056C54.9922 393.064 54.8156 393.069 54.6908 393.073L54.5428 393.077L54.4839 393.079L54.4786 393.079C54.4764 393.079 54.4745 393.079 54.1297 379.552C40.6028 379.207 40.6029 379.205 40.6029 379.203L40.6047 379.139L40.6089 378.991C40.6126 378.866 40.6181 378.69 40.6258 378.465C40.6412 378.014 40.6653 377.368 40.7012 376.55C40.773 374.915 40.8919 372.588 41.0825 369.757C41.4624 364.115 42.1328 356.381 43.2998 348.105C44.4581 339.891 46.152 330.801 48.6667 322.568C51.0463 314.777 54.7075 305.844 60.859 299.672L60.8819 299.649C69.0264 291.516 79.6546 286.337 91.0789 284.934C98.4963 284.024 105.247 289.299 106.158 296.716ZM54.1297 379.552L40.6028 379.207C40.5083 382.914 41.9394 386.498 44.5616 389.12C47.1838 391.742 50.7673 393.174 54.4745 393.079L54.1297 379.552Z" fill="#FD2B20"/>
</svg>
