<svg width="30" height="31" viewBox="0 0 30 31" fill="none" xmlns="http://www.w3.org/2000/svg">
<path fill-rule="evenodd" clip-rule="evenodd" d="M0.285156 13.392C0.285156 13.5568 0.333672 13.6655 0.360859 13.7712C0.538047 14.4587 0.918906 15.0486 1.37078 15.5867C2.01437 16.3536 2.80258 16.9709 3.61 17.5515C4.31031 18.0549 5.02492 18.5471 5.72805 19.0468C5.84875 19.1326 5.96289 19.2312 6.09391 19.3365C5.98117 19.3974 5.88742 19.4511 5.78992 19.5005C4.86203 19.9712 3.9693 20.4988 3.14641 21.1379C2.65047 21.5232 2.17094 21.9327 1.83227 22.4677C1.28734 23.3284 1.09445 24.2452 1.50063 25.2242C1.61922 25.5102 1.80016 25.7572 2.05539 25.9398C2.13812 25.9988 2.23094 26.0574 2.32773 26.0804C2.5757 26.1388 2.82836 26.177 3.07937 26.2231L3.79023 26.2227C4.57633 26.1526 5.29187 25.8833 5.93852 25.437C6.94914 24.7395 7.63 23.8044 7.92273 22.6041C8.13555 21.7318 8.14422 20.8585 7.89344 19.9902C7.87023 19.9095 7.84094 19.8305 7.81047 19.7525C7.78 19.6745 7.74414 19.5985 7.70195 19.5013L9.31351 18.5745L9.33766 18.5952C9.30836 18.691 9.27719 18.7866 9.2507 18.8834C9.05922 19.5828 8.93195 20.2944 8.97766 21.0202C9.02641 21.7937 9.24226 22.5177 9.69508 23.1638C10.0612 23.6865 10.9335 23.7059 11.3226 23.1814C11.4606 22.9951 11.5945 22.8003 11.695 22.5924C11.9577 22.0498 12.201 21.4977 12.452 20.9492L12.4959 20.8489C12.4778 21.1086 12.4567 21.3366 12.4471 21.5649C12.4321 21.9214 12.453 22.2758 12.5748 22.6149C12.6791 22.9051 12.8566 23.1219 13.1889 23.1601C13.4162 23.1861 13.5974 23.082 13.7645 22.9501C14.0256 22.7441 14.2377 22.4895 14.3952 22.2003C14.8408 21.3821 15.2983 20.5688 15.7021 19.73C16.139 18.8227 16.521 17.889 16.9267 16.9662L16.9937 16.8027C17.0896 17.1793 17.1564 17.5482 17.2795 17.8974C17.4224 18.3027 17.5994 18.6983 17.792 19.0829C17.8832 19.2645 17.8727 19.3824 17.7463 19.5348C17.2176 20.1723 16.698 20.8175 16.1779 21.462C16.0628 21.6043 15.9482 21.7491 15.8523 21.9045C15.7945 21.999 15.756 22.1141 15.7398 22.2242C15.7087 22.4347 15.8387 22.6377 16.064 22.6862C16.2698 22.7305 16.4889 22.7469 16.6987 22.7314C17.4245 22.678 18.0836 22.4232 18.6662 21.9915C19.4212 21.4323 19.6635 20.6691 19.4807 19.7647C19.4312 19.5193 19.3438 19.2807 19.2587 19.0442C19.2205 18.9376 19.218 18.8628 19.2876 18.7634C19.8911 17.9016 20.4067 16.9873 20.8862 16.052C20.9052 16.0152 20.9247 15.9784 20.958 15.939C21.1134 16.7476 21.3473 17.5269 21.7663 18.234C21.5526 18.44 21.3409 18.6268 21.1495 18.8326C20.7278 19.2859 20.3622 19.778 20.1714 20.3783C20.0894 20.637 20.0263 20.9 20.0629 21.1763C20.1196 21.6055 20.4712 21.8844 20.8933 21.7866C21.7966 21.5776 22.5763 21.152 23.1461 20.398C23.5295 19.8903 23.5645 19.3241 23.4039 18.7309C23.3598 18.5696 23.3076 18.4109 23.2513 18.226C23.4742 18.1569 23.6915 18.0739 23.9162 18.0226C25.0832 17.7563 26.2375 17.8027 27.362 18.2241C28.0185 18.4702 28.5489 18.882 28.8634 19.5298C29.2476 20.3218 29.0352 21.0732 28.2887 21.5738C28.2191 21.6205 28.1395 21.6573 28.0818 21.7156C28.0464 21.7515 28.0251 21.8232 28.0337 21.8727C28.0387 21.9015 28.1148 21.9376 28.1587 21.9371C28.4041 21.9352 28.603 21.8066 28.7941 21.6744C29.2727 21.3432 29.6219 20.8977 29.6971 20.311L29.7119 20.267L29.6938 19.8849C29.6866 19.8629 29.6992 19.8411 29.6976 19.8245C29.5959 18.9702 29.1395 18.3076 28.4758 17.7882C27.707 17.187 26.7993 16.9395 25.8393 16.9004C25.057 16.8685 24.288 16.9848 23.5506 17.2527C23.3404 17.3288 23.132 17.4191 22.9206 17.5041C22.8923 17.4528 22.8618 17.4036 22.8367 17.3527C22.6197 16.9084 22.3567 16.4837 22.2986 15.9741C22.2573 15.6123 22.2067 15.2509 22.2927 14.893C22.3755 14.5487 22.4833 14.2102 22.5848 13.8706C22.637 13.6958 22.6002 13.5978 22.4334 13.5191C22.3752 13.4916 22.312 13.4677 22.2491 13.4586C21.839 13.3991 21.4345 13.433 21.0372 13.5486C20.8966 13.5896 20.7944 13.6684 20.7632 13.824C20.7454 13.9133 20.7091 13.9988 20.6837 14.087C20.5799 14.4533 20.5063 14.8266 20.3385 15.1756C19.918 16.051 19.438 16.8934 18.9468 17.7296C18.8936 17.8198 18.8376 17.9084 18.7705 18.0179C18.598 17.657 18.4141 17.333 18.3583 16.9534C18.2952 16.524 18.2455 16.0953 18.3524 15.6692C18.4319 15.3514 18.5357 15.0395 18.6313 14.7259C18.6766 14.5768 18.6557 14.4985 18.5207 14.42C18.4525 14.3804 18.3754 14.3452 18.2985 14.3337C17.8731 14.2707 17.4541 14.3038 17.0437 14.4364C16.9164 14.4777 16.8496 14.5599 16.8107 14.6912C16.6963 15.0784 16.5988 15.4749 16.4383 15.8431C15.7881 17.3337 15.1192 18.8166 14.451 20.2993C14.3116 20.6089 14.1482 20.9077 13.9909 21.2091C13.9511 21.2855 13.893 21.3528 13.8433 21.4245C13.8034 21.3774 13.788 21.3451 13.7882 21.3127C13.7894 21.1222 13.7666 20.926 13.803 20.7418C13.9129 20.1845 14.0395 19.6302 14.1728 19.078C14.283 18.6219 14.4112 18.17 14.5333 17.717C14.5743 17.5653 14.575 17.4235 14.466 17.296C14.283 17.0825 13.9005 17.0356 13.6736 17.2002L13.5733 17.2569L13.5927 17.0952C13.6405 16.7485 13.6502 16.403 13.555 16.0616C13.4364 15.6359 13.1327 15.391 12.6911 15.4046C12.4853 15.4109 12.2692 15.4461 12.0787 15.5211C11.2773 15.8352 10.6612 16.3913 10.1366 17.0605C10.0891 17.1212 10.0262 17.1765 9.95922 17.2137C9.28117 17.5897 8.60102 17.9609 7.92109 18.3336L7.1643 18.7482C6.96133 18.5546 6.77687 18.3538 6.56758 18.1834C5.92844 17.6621 5.27898 17.1538 4.63539 16.6384C4.06492 16.1816 3.51227 15.7058 3.08945 15.1009C2.77492 14.6509 2.57219 14.1584 2.55273 13.602C2.52812 12.893 2.72922 12.2452 3.09016 11.6422C3.55187 10.8706 4.18164 10.2514 4.87398 9.69055C5.60641 9.09758 6.39859 8.59414 7.21961 8.13453C8.36828 7.49164 9.54976 6.92258 10.8166 6.54688C12.1155 6.16156 13.4334 5.94102 14.7927 6.09477C15.3271 6.15523 15.846 6.27758 16.3225 6.53891C16.6874 6.73883 16.9867 7.00062 17.1259 7.40984C17.2633 7.8125 17.2591 8.22055 17.1639 8.62953C16.9705 9.45781 16.517 10.1405 15.9463 10.7506C15.0102 11.7507 13.8684 12.4316 12.5828 12.8813C11.841 13.1408 11.0779 13.3037 10.2941 13.3695C9.65453 13.4232 9.02828 13.3665 8.42266 13.1441C8.02164 12.9966 7.67242 12.7712 7.39164 12.444C7.34148 12.3854 7.27727 12.3219 7.18375 12.3767C7.09211 12.4306 7.07594 12.5178 7.10664 12.6062C7.15797 12.7529 7.20531 12.9057 7.28523 13.037C7.48609 13.3663 7.77906 13.6051 8.10156 13.8099C8.72101 14.2039 9.41336 14.3363 10.1312 14.367C11.2206 14.4141 12.2835 14.2515 13.3314 13.9592C14.8274 13.542 16.1282 12.8052 17.1714 11.6427C18.04 10.6747 18.6604 9.58227 18.7933 8.2632C18.8582 7.61937 18.7891 6.98867 18.4877 6.40133C18.1607 5.765 17.6409 5.2918 17.0193 4.96578C16.1141 4.49117 15.1373 4.21484 14.129 4.21484H13.1188C11.8977 4.21484 10.7172 4.56477 9.56969 4.98219C8.70109 5.29836 7.84937 5.67148 7.0225 6.08445C5.2218 6.98422 3.54484 8.06914 2.16742 9.56094C1.48117 10.3041 0.900156 11.1242 0.565937 12.0898C0.468203 12.3725 0.375391 12.6755 0.305547 12.9678M6.83031 21.4084C6.75227 22.4534 6.27859 23.3007 5.50445 23.987C5.06898 24.3727 4.56953 24.6474 3.98781 24.744C3.77687 24.7789 3.56102 24.7873 3.35641 24.6999C3.06461 24.5752 2.99922 24.3162 2.99359 24.0404C2.98492 23.6007 3.13891 23.2032 3.35008 22.8249C3.6257 22.3318 4.02977 21.9559 4.46125 21.6048C5.14094 21.0514 5.87828 20.5831 6.63344 20.1411L6.69039 20.1177C6.80711 20.5489 6.86266 20.9748 6.83031 21.4084ZM12.7267 16.8664C12.6716 17.2002 12.6027 17.5341 12.5052 17.8576C12.1682 18.9772 11.7353 20.0621 11.2673 21.1325C11.1808 21.3305 11.0549 21.5112 10.9455 21.699C10.9286 21.728 10.9035 21.7531 10.8791 21.7773C10.7437 21.9111 10.6152 21.9041 10.5468 21.729C10.4671 21.5255 10.4181 21.3078 10.3759 21.0924C10.3476 20.9478 10.3544 20.7959 10.3455 20.6478C10.3546 19.5945 10.6759 18.6373 11.2211 17.7463C11.4459 17.3787 11.6905 17.0286 12.0644 16.7961C12.1792 16.7246 12.3081 16.6672 12.4382 16.6306C12.6374 16.5746 12.7598 16.6667 12.7267 16.8664ZM16.7495 21.9917L18.1954 20.3035C18.2556 20.9305 17.1899 22.182 16.7495 21.9917ZM21.3674 20.8557C21.2652 20.9143 21.1539 20.9565 21.0491 21.0106C20.9533 21.0603 20.9216 21.0102 20.9188 20.9277C20.917 20.8716 20.9252 20.813 20.9406 20.7587C21.1359 20.0701 21.4952 19.4823 22.0298 19.0041L22.0673 18.9849C22.3216 19.6962 22.0277 20.4774 21.3674 20.8557Z" fill="#FD2B20"/>
</svg>
