<svg width="25" height="25" viewBox="0 0 25 25" fill="none" xmlns="http://www.w3.org/2000/svg">
<path d="M22.9261 11.5857L22.9186 11.5824L2.89922 3.27899C2.73083 3.20852 2.54761 3.18088 2.36592 3.19855C2.18424 3.21621 2.00977 3.27864 1.85813 3.38024C1.6979 3.48523 1.5663 3.6284 1.47514 3.79688C1.38399 3.96535 1.33616 4.15385 1.33594 4.3454V9.65587C1.33603 9.91774 1.42747 10.1714 1.59449 10.3731C1.76152 10.5747 1.99367 10.7118 2.25094 10.7607L13.1695 12.7796C13.2124 12.7878 13.2512 12.8106 13.279 12.8442C13.3069 12.8779 13.3221 12.9202 13.3221 12.9638C13.3221 13.0075 13.3069 13.0498 13.279 13.0834C13.2512 13.1171 13.2124 13.1399 13.1695 13.1481L2.25141 15.167C1.99421 15.2157 1.76207 15.3526 1.59497 15.5541C1.42787 15.7556 1.33627 16.0091 1.33594 16.2709V21.5823C1.33581 21.7652 1.3811 21.9453 1.46774 22.1064C1.55439 22.2675 1.67967 22.4045 1.83234 22.5052C2.016 22.6273 2.23153 22.6925 2.45203 22.6927C2.60532 22.6926 2.75704 22.6619 2.89828 22.6023L22.9172 14.3462L22.9261 14.342C23.1956 14.2262 23.4252 14.0339 23.5865 13.7889C23.7478 13.544 23.8338 13.2571 23.8338 12.9638C23.8338 12.6705 23.7478 12.3837 23.5865 12.1387C23.4252 11.8938 23.1956 11.7015 22.9261 11.5857Z" fill="white"/>
</svg>
