<svg width="20" height="21" viewBox="0 0 20 21" fill="none" xmlns="http://www.w3.org/2000/svg">
<path d="M10 12.0098C11.0356 12.0098 11.875 11.1703 11.875 10.1348C11.875 9.09923 11.0356 8.25977 10 8.25977C8.96449 8.25977 8.12502 9.09923 8.12502 10.1348C8.12502 11.1703 8.96449 12.0098 10 12.0098Z" fill="#FD2B20"/>
<path d="M18.3746 11.8535L18.3563 11.8387L17.1235 10.8719C17.0454 10.8101 16.9831 10.7307 16.9417 10.6402C16.9002 10.5497 16.8809 10.4506 16.8852 10.3512V9.89961C16.8813 9.80079 16.9009 9.70245 16.9423 9.61268C16.9838 9.5229 17.046 9.44426 17.1238 9.3832L18.3563 8.41602L18.3746 8.40117C18.5647 8.24284 18.6922 8.02206 18.7345 7.77831C18.7767 7.53456 18.7308 7.28374 18.6051 7.0707L16.9367 4.18398C16.9348 4.18126 16.9331 4.17839 16.9317 4.17539C16.8052 3.9653 16.6092 3.80611 16.3777 3.72548C16.1461 3.64485 15.8936 3.64786 15.6641 3.73398L15.6504 3.73906L14.2012 4.32227C14.1097 4.35925 14.0108 4.37397 13.9125 4.36521C13.8142 4.35644 13.7194 4.32446 13.636 4.27188C13.5078 4.19115 13.3776 4.11484 13.2453 4.04297C13.1596 3.99646 13.0859 3.93044 13.0303 3.85024C12.9748 3.77003 12.9388 3.6779 12.9254 3.58125L12.7071 2.03477L12.7024 2.00664C12.6548 1.76711 12.5263 1.55124 12.3383 1.39531C12.1504 1.23938 11.9145 1.1529 11.6703 1.15039H8.32971C8.08208 1.15118 7.84267 1.23934 7.65366 1.39934C7.46465 1.55933 7.33817 1.7809 7.2965 2.025L7.29299 2.04688L7.07541 3.59648C7.06206 3.69285 7.0264 3.78477 6.97127 3.86493C6.91614 3.94509 6.84305 4.01127 6.75783 4.0582C6.62424 4.13008 6.49377 4.20625 6.36721 4.28555C6.28387 4.33781 6.18933 4.36955 6.09134 4.37818C5.99335 4.3868 5.89472 4.37206 5.80353 4.33516L4.35314 3.74922L4.33947 3.74375C4.10957 3.65753 3.85672 3.65463 3.62491 3.73557C3.3931 3.8165 3.197 3.97614 3.07072 4.18672L3.06564 4.19531L1.39494 7.08398C1.26901 7.29724 1.22305 7.54834 1.26528 7.79237C1.3075 8.03641 1.43515 8.25746 1.62541 8.41602L1.64377 8.43086L2.87658 9.39766C2.95465 9.45942 3.01696 9.53882 3.05838 9.62934C3.0998 9.71985 3.11916 9.81891 3.11486 9.91836V10.3699C3.11877 10.4687 3.09918 10.5671 3.05769 10.6569C3.0162 10.7466 2.95399 10.8253 2.87619 10.8863L1.64377 11.8535L1.62541 11.8684C1.43534 12.0267 1.30779 12.2475 1.26557 12.4912C1.22335 12.735 1.2692 12.9858 1.39494 13.1988L3.0633 16.0855C3.06522 16.0883 3.06692 16.0911 3.06838 16.0941C3.19479 16.3042 3.3908 16.4634 3.62235 16.5441C3.85391 16.6247 4.10639 16.6217 4.33596 16.5355L4.34963 16.5305L5.79768 15.9473C5.88914 15.9103 5.98809 15.8956 6.08637 15.9043C6.18464 15.9131 6.27943 15.9451 6.36291 15.9977C6.49103 16.0786 6.62124 16.1549 6.75353 16.2266C6.83931 16.2731 6.91295 16.3391 6.96852 16.4193C7.02409 16.4995 7.06004 16.5916 7.07346 16.6883L7.29064 18.2348L7.29533 18.2629C7.34295 18.5028 7.47183 18.719 7.66025 18.875C7.84868 19.0309 8.08511 19.1172 8.32971 19.1191H11.6703C11.918 19.1183 12.1574 19.0302 12.3464 18.8702C12.5354 18.7102 12.6619 18.4886 12.7035 18.2445L12.7071 18.2227L12.9246 16.673C12.9382 16.5765 12.9741 16.4845 13.0296 16.4043C13.0851 16.3241 13.1586 16.258 13.2442 16.2113C13.3778 16.1395 13.5082 16.0633 13.6348 15.984C13.7181 15.9317 13.8127 15.9 13.9107 15.8914C14.0086 15.8827 14.1073 15.8975 14.1985 15.9344L15.6488 16.5184L15.6625 16.5238C15.8924 16.6102 16.1453 16.6132 16.3772 16.5322C16.609 16.4513 16.8051 16.2915 16.9313 16.0809C16.9328 16.0779 16.9345 16.075 16.9363 16.0723L18.6047 13.1859C18.7309 12.9727 18.777 12.7215 18.7348 12.4774C18.6927 12.2333 18.565 12.0121 18.3746 11.8535ZM13.1215 10.2816C13.0931 10.8866 12.8895 11.4702 12.5355 11.9615C12.1815 12.4529 11.6924 12.8308 11.1276 13.0493C10.5628 13.2678 9.94671 13.3175 9.3542 13.1924C8.76168 13.0673 8.2183 12.7727 7.79011 12.3444C7.36193 11.9162 7.06739 11.3728 6.94232 10.7802C6.81726 10.1877 6.86704 9.57161 7.08563 9.00686C7.30422 8.44211 7.68219 7.95303 8.17358 7.5991C8.66498 7.24518 9.24862 7.04165 9.85353 7.01328C10.2878 6.99416 10.7213 7.06562 11.1265 7.22311C11.5317 7.3806 11.8996 7.62068 12.207 7.92808C12.5144 8.23547 12.7544 8.60347 12.9118 9.00866C13.0693 9.41384 13.1407 9.84736 13.1215 10.2816Z" fill="#FD2B20"/>
</svg>
