<svg width="49" height="48" viewBox="0 0 49 48" fill="none" xmlns="http://www.w3.org/2000/svg">
<path fill-rule="evenodd" clip-rule="evenodd" d="M6.30037 6.73069C7.36004 4.41845 9.77076 3 12.3449 3H36.0581C38.6322 3 41.0429 4.41845 42.1026 6.73069L42.1028 6.73101L46.1618 15.5934C46.1619 15.5937 46.162 15.5939 46.1621 15.5941C47.5254 18.5675 46.22 21.6835 43.7015 23.2181V42H45.2015C46.0299 42 46.7015 42.6716 46.7015 43.5C46.7015 44.3284 46.0299 45 45.2015 45H3.20149C2.37306 45 1.70149 44.3284 1.70149 43.5C1.70149 42.6716 2.37306 42 3.20149 42H4.70149V23.2193C2.18266 21.6852 0.877894 18.5683 2.24084 15.5941C2.2409 15.594 2.24096 15.5939 2.24102 15.5938L6.30037 6.73069ZM7.70149 24.1725V42H25.7015V29.25C25.7015 28.2554 26.0966 27.3016 26.7998 26.5984C27.5031 25.8951 28.4569 25.5 29.4515 25.5H35.4515C36.4461 25.5 37.3999 25.8951 38.1031 26.5984C38.8064 27.3016 39.2015 28.2554 39.2015 29.25V42H40.7015V24.1723C40.6086 24.179 40.5151 24.1838 40.421 24.1868C40.4054 24.1873 40.3899 24.1875 40.3743 24.1875H40.1915C38.0844 24.1875 36.134 23.2723 34.8616 21.7962C33.5889 23.2723 31.6381 24.1875 29.5312 24.1875C27.4281 24.1875 25.5011 23.2259 24.2342 21.7602C22.9642 23.2571 21.0014 24.1875 18.8765 24.1875C16.7557 24.1875 14.8136 23.2096 13.5469 21.7229C12.2804 23.2104 10.3376 24.1875 8.21617 24.1875H8.02867C8.01337 24.1875 7.99807 24.1873 7.98277 24.1868C7.88842 24.1839 7.79465 24.1791 7.70149 24.1725ZM15.0459 17.7909C15.0459 19.4091 16.6739 21.1875 18.8765 21.1875C21.1123 21.1875 22.7015 19.5517 22.7015 17.7909C22.7015 16.9625 23.3731 16.2909 24.2015 16.2909C25.0299 16.2909 25.7015 16.9625 25.7015 17.7909C25.7015 19.4094 27.3289 21.1875 29.5312 21.1875C31.7691 21.1875 33.3618 19.5497 33.3618 17.7909C33.3618 16.9625 34.0334 16.2909 34.8618 16.2909C35.6902 16.2909 36.3618 16.9625 36.3618 17.7909C36.3618 19.55 37.9539 21.1875 40.1915 21.1875H40.3492C42.9384 21.0939 44.2894 18.7072 43.4349 16.8441L43.4346 16.8434L39.3754 7.98056C39.3753 7.98045 39.3753 7.98034 39.3752 7.98024C38.8486 6.8314 37.5694 6 36.0581 6H12.3449C10.8336 6 9.55442 6.8314 9.02775 7.98024C9.0277 7.98034 9.02765 7.98045 9.02761 7.98056L4.9682 16.8437C4.11292 18.7098 5.46544 21.0955 8.05335 21.1875H8.21617C10.4194 21.1875 12.0459 19.4132 12.0459 17.7909C12.0459 16.9625 12.7174 16.2909 13.5459 16.2909C14.3743 16.2909 15.0459 16.9625 15.0459 17.7909ZM36.2015 42V29.25C36.2015 29.0511 36.1225 28.8603 35.9818 28.7197C35.8412 28.579 35.6504 28.5 35.4515 28.5H29.4515C29.2526 28.5 29.0618 28.579 28.9212 28.7197C28.7805 28.8603 28.7015 29.0511 28.7015 29.25V42H36.2015ZM12.9515 28.5C12.7526 28.5 12.5618 28.579 12.4212 28.7197C12.2805 28.8603 12.2015 29.0511 12.2015 29.25V36H21.2015V29.25C21.2015 29.0511 21.1225 28.8603 20.9818 28.7197C20.8412 28.579 20.6504 28.5 20.4515 28.5H12.9515ZM10.2998 26.5984C11.0031 25.8951 11.9569 25.5 12.9515 25.5H20.4515C21.4461 25.5 22.3999 25.8951 23.1031 26.5984C23.8064 27.3016 24.2015 28.2554 24.2015 29.25V37.5C24.2015 38.3284 23.5299 39 22.7015 39H10.7015C9.87306 39 9.20149 38.3284 9.20149 37.5V29.25C9.20149 28.2554 9.59657 27.3016 10.2998 26.5984Z" fill="#FD2B20"/>
</svg>
