<svg width="33" height="32" viewBox="0 0 33 32" fill="none" xmlns="http://www.w3.org/2000/svg">
<path d="M25.47 30.001C25.2595 30.0018 25.0542 29.9362 24.8832 29.8135L16.845 23.986L8.8069 29.8135C8.63517 29.938 8.42828 30.0047 8.21614 30.004C8.004 30.0032 7.7976 29.935 7.62678 29.8092C7.45596 29.6834 7.32957 29.5065 7.26589 29.3041C7.20221 29.1018 7.20453 28.8844 7.27253 28.6835L10.4075 19.3978L2.28253 13.826C2.10654 13.7054 1.97371 13.5317 1.90345 13.3303C1.83319 13.1289 1.82919 12.9103 1.89202 12.7064C1.95485 12.5025 2.08123 12.3241 2.25269 12.1972C2.42415 12.0703 2.63171 12.0015 2.84503 12.001H12.8688L15.8938 2.69158C15.9589 2.49059 16.0861 2.31541 16.257 2.19117C16.4279 2.06692 16.6337 2 16.845 2C17.0563 2 17.2622 2.06692 17.4331 2.19117C17.604 2.31541 17.7311 2.49059 17.7963 2.69158L20.8213 12.0041H30.845C31.0586 12.004 31.2666 12.0723 31.4386 12.1989C31.6106 12.3256 31.7375 12.504 31.8007 12.708C31.8639 12.9121 31.8602 13.131 31.79 13.3327C31.7198 13.5344 31.5869 13.7084 31.4107 13.8291L23.2825 19.3978L26.4157 28.681C26.4664 28.8312 26.4807 28.9915 26.4573 29.1484C26.4339 29.3053 26.3735 29.4544 26.2812 29.5833C26.1888 29.7123 26.067 29.8174 25.926 29.89C25.785 29.9626 25.6287 30.0007 25.47 30.001Z" fill="#FABB05"/>
</svg>
