<svg width="300" height="300" viewBox="0 0 300 300" fill="none" xmlns="http://www.w3.org/2000/svg">
<path fill-rule="evenodd" clip-rule="evenodd" d="M46.875 196.875V271.875H56.25V196.875H46.875ZM28.125 192.188C28.125 184.421 34.421 178.125 42.1875 178.125H60.9375C68.704 178.125 75 184.421 75 192.188V276.562C75 284.329 68.704 290.625 60.9375 290.625H42.1875C34.421 290.625 28.125 284.329 28.125 276.562V192.188Z" fill="#FD2B20" fill-opacity="0.25"/>
<path fill-rule="evenodd" clip-rule="evenodd" d="M178.125 140.625V271.875H187.5V140.625H178.125ZM159.375 135.938C159.375 128.171 165.671 121.875 173.438 121.875H192.188C199.954 121.875 206.25 128.171 206.25 135.938V276.562C206.25 284.329 199.954 290.625 192.188 290.625H173.438C165.671 290.625 159.375 284.329 159.375 276.562V135.938Z" fill="#FD2B20" fill-opacity="0.25"/>
<path fill-rule="evenodd" clip-rule="evenodd" d="M243.75 75V271.875H253.125V75H243.75ZM225 70.3125C225 62.546 231.296 56.25 239.062 56.25H257.812C265.579 56.25 271.875 62.546 271.875 70.3125V276.562C271.875 284.329 265.579 290.625 257.812 290.625H239.062C231.296 290.625 225 284.329 225 276.562V70.3125Z" fill="#FD2B20" fill-opacity="0.25"/>
<path fill-rule="evenodd" clip-rule="evenodd" d="M112.5 28.125V271.875H121.875V28.125H112.5ZM93.75 23.4375C93.75 15.671 100.046 9.375 107.812 9.375H126.562C134.329 9.375 140.625 15.671 140.625 23.4375V276.562C140.625 284.329 134.329 290.625 126.562 290.625H107.812C100.046 290.625 93.75 284.329 93.75 276.562V23.4375Z" fill="#FD2B20" fill-opacity="0.25"/>
</svg>
