<svg width="433" height="433" viewBox="0 0 433 433" fill="none" xmlns="http://www.w3.org/2000/svg">
<path fill-rule="evenodd" clip-rule="evenodd" d="M67.6562 284.156V392.406H81.1875V284.156H67.6562ZM40.5938 277.391C40.5938 266.181 49.681 257.094 60.8906 257.094H87.9531C99.1628 257.094 108.25 266.181 108.25 277.391V399.172C108.25 410.382 99.1628 419.469 87.9531 419.469H60.8906C49.681 419.469 40.5938 410.382 40.5938 399.172V277.391Z" fill="#FD2B20"/>
<path fill-rule="evenodd" clip-rule="evenodd" d="M257.094 202.969V392.406H270.625V202.969H257.094ZM230.031 196.203C230.031 184.993 239.118 175.906 250.328 175.906H277.391C288.6 175.906 297.688 184.993 297.688 196.203V399.172C297.688 410.382 288.6 419.469 277.391 419.469H250.328C239.118 419.469 230.031 410.382 230.031 399.172V196.203Z" fill="#FD2B20"/>
<path fill-rule="evenodd" clip-rule="evenodd" d="M351.812 108.25V392.406H365.344V108.25H351.812ZM324.75 101.484C324.75 90.2747 333.837 81.1875 345.047 81.1875H372.109C383.319 81.1875 392.406 90.2747 392.406 101.484V399.172C392.406 410.382 383.319 419.469 372.109 419.469H345.047C333.837 419.469 324.75 410.382 324.75 399.172V101.484Z" fill="#FD2B20"/>
<path fill-rule="evenodd" clip-rule="evenodd" d="M162.375 40.5938V392.406H175.906V40.5938H162.375ZM135.312 33.8281C135.312 22.6185 144.4 13.5312 155.609 13.5312H182.672C193.882 13.5312 202.969 22.6185 202.969 33.8281V399.172C202.969 410.382 193.882 419.469 182.672 419.469H155.609C144.4 419.469 135.312 410.382 135.312 399.172V33.8281Z" fill="#FD2B20"/>
</svg>
