<svg width="101" height="101" viewBox="0 0 101 101" fill="none" xmlns="http://www.w3.org/2000/svg">
<path d="M50.5 56.6934C52.2259 56.6934 53.625 55.2943 53.625 53.5684C53.625 51.8425 52.2259 50.4434 50.5 50.4434C48.7741 50.4434 47.375 51.8425 47.375 53.5684C47.375 55.2943 48.7741 56.6934 50.5 56.6934Z" fill="#FD2B20"/>
<path d="M55.1875 16.3613V14.5059C55.1875 13.2627 54.6937 12.0704 53.8146 11.1913C52.9355 10.3122 51.7432 9.81836 50.5 9.81836C49.2568 9.81836 48.0645 10.3122 47.1855 11.1913C46.3064 12.0704 45.8125 13.2627 45.8125 14.5059V16.3613C39.8931 17.1044 34.2382 19.2564 29.3223 22.6367L27.2578 20.5605C26.3772 19.6799 25.1829 19.1852 23.9375 19.1852C22.6922 19.1852 21.4978 19.6799 20.6172 20.5605C19.7366 21.4411 19.2419 22.6355 19.2419 23.8809C19.2419 25.1262 19.7366 26.3206 20.6172 27.2012L22.2969 28.8809C16.2973 35.7047 12.9919 44.4821 13 53.5684C13 74.2461 29.8223 91.0684 50.5 91.0684C71.1777 91.0684 88 74.2461 88 53.5684C88 34.4785 73.6602 18.6738 55.1875 16.3613ZM50.5 62.9434C48.289 62.9427 46.1493 62.1606 44.459 60.7353C42.7687 59.3099 41.6366 57.333 41.2627 55.1538C40.8888 52.9746 41.2971 50.7333 42.4156 48.826C43.5341 46.9187 45.2906 45.4681 47.375 44.7305V30.1309C47.375 29.3021 47.7043 28.5072 48.2903 27.9212C48.8764 27.3351 49.6712 27.0059 50.5 27.0059C51.3288 27.0059 52.1237 27.3351 52.7097 27.9212C53.2958 28.5072 53.625 29.3021 53.625 30.1309V44.7305C55.7094 45.4681 57.466 46.9187 58.5844 48.826C59.7029 50.7333 60.1112 52.9746 59.7373 55.1538C59.3634 57.333 58.2313 59.3099 56.541 60.7353C54.8507 62.1606 52.7111 62.9427 50.5 62.9434Z" fill="#FD2B20"/>
</svg>
