<svg width="25" height="25" viewBox="0 0 25 25" fill="none" xmlns="http://www.w3.org/2000/svg">
<path d="M22.5101 6.09275C22.4561 5.98772 22.3781 5.89692 22.2823 5.82776C22.1866 5.7586 22.0759 5.71302 21.9592 5.69475C21.8425 5.67647 21.7231 5.68601 21.6108 5.72259C21.4985 5.75917 21.3965 5.82176 21.3129 5.90525L18.4329 8.78713C18.2916 8.92645 18.101 9.00455 17.9025 9.00455C17.704 9.00455 17.5135 8.92645 17.3721 8.78713L16.1271 7.54025C16.0575 7.4706 16.0022 7.38792 15.9645 7.29691C15.9268 7.20591 15.9074 7.10837 15.9074 7.00986C15.9074 6.91135 15.9268 6.81381 15.9645 6.72281C16.0022 6.6318 16.0575 6.54912 16.1271 6.47947L18.995 3.61119C19.0809 3.52523 19.1447 3.41966 19.1808 3.30357C19.2169 3.18749 19.2243 3.06436 19.2022 2.9448C19.1802 2.82525 19.1294 2.71284 19.0543 2.61727C18.9791 2.5217 18.8819 2.44583 18.7709 2.39619V2.39619C16.6048 1.42775 13.9011 1.93306 12.1962 3.62525C10.7478 5.06338 10.3161 7.31056 11.0126 9.79072C11.0502 9.92298 11.0504 10.0631 11.0132 10.1954C10.9761 10.3278 10.903 10.4473 10.8021 10.5407L2.9984 17.6681C2.69439 17.941 2.44917 18.2731 2.27771 18.6439C2.10624 19.0148 2.01212 19.4166 2.0011 19.8251C1.99007 20.2335 2.06236 20.6399 2.21356 21.0194C2.36476 21.399 2.59171 21.7438 2.88054 22.0327C3.16938 22.3217 3.51406 22.5488 3.89356 22.7002C4.27305 22.8515 4.67941 22.924 5.08783 22.9132C5.49626 22.9023 5.89819 22.8084 6.26912 22.6371C6.64004 22.4658 6.97218 22.2207 7.24527 21.9168L14.449 14.0957C14.5411 13.9961 14.6586 13.9236 14.7888 13.8858C14.9191 13.8481 15.0572 13.8466 15.1882 13.8815C15.8943 14.075 16.6227 14.1754 17.3548 14.1801C18.9204 14.1801 20.2943 13.6734 21.2853 12.697C23.1204 10.889 23.4003 7.82244 22.5101 6.09275ZM5.16356 21.4035C4.85484 21.4372 4.54327 21.3743 4.27185 21.2234C4.00043 21.0724 3.78255 20.841 3.64827 20.561C3.51398 20.281 3.46993 19.9662 3.52217 19.66C3.57442 19.3539 3.72039 19.0715 3.93994 18.8519C4.1595 18.6323 4.44181 18.4862 4.74792 18.4339C5.05403 18.3815 5.36884 18.4255 5.64891 18.5596C5.92898 18.6938 6.16049 18.9116 6.31151 19.183C6.46252 19.4543 6.52558 19.7659 6.49199 20.0746C6.45504 20.4143 6.30321 20.7312 6.06164 20.9729C5.82007 21.2145 5.50323 21.3665 5.16356 21.4035V21.4035Z" fill="#FD2B20"/>
</svg>
