<svg width="30" height="31" viewBox="0 0 30 31" fill="none" xmlns="http://www.w3.org/2000/svg">
<g clip-path="url(#clip0_1938_2578)">
<path d="M0 15.2305V30.2305H15H30V15.2305V0.230469H15H0V15.2305Z" fill="#FD2B20"/>
<path d="M6.63341 15.3285L6.62388 16.5571H8.57626H10.5286V22.1047V27.6523H11.9096H13.2906V22.1047V16.5571H15.2429H17.1953V15.3523C17.1953 14.6857 17.181 14.1285 17.162 14.1142C17.1477 14.0952 14.7715 14.0857 11.8906 14.0904L6.64769 14.1047L6.63341 15.3285Z" fill="#121011"/>
<path d="M24.2061 14.0702C24.968 14.2607 25.549 14.5988 26.0823 15.1512C26.3585 15.4464 26.768 15.9845 26.8014 16.1131C26.8109 16.1512 25.5061 17.0274 24.7157 17.5178C24.6871 17.5369 24.5728 17.4131 24.4442 17.2226C24.0585 16.6607 23.6537 16.4178 23.0347 16.375C22.1252 16.3131 21.5395 16.7893 21.5442 17.5845C21.5442 17.8178 21.5776 17.9559 21.6728 18.1464C21.8728 18.5607 22.2442 18.8083 23.4109 19.3131C25.5585 20.2369 26.4776 20.8464 27.049 21.7131C27.6871 22.6797 27.8299 24.2226 27.3966 25.3702C26.9204 26.6178 25.7395 27.4655 24.0776 27.7464C23.5633 27.8369 22.3442 27.8226 21.7918 27.7226C20.5871 27.5083 19.4442 26.9131 18.7395 26.1321C18.4633 25.8274 17.9252 25.0321 17.9585 24.975C17.9728 24.9559 18.0966 24.8797 18.2347 24.7988C18.368 24.7226 18.8728 24.4321 19.349 24.1559L20.2109 23.6559L20.3918 23.9226C20.6442 24.3083 21.1966 24.8369 21.5299 25.0131C22.4871 25.5178 23.8014 25.4464 24.449 24.8655C24.7252 24.6131 24.8395 24.3512 24.8395 23.9655C24.8395 23.6178 24.7966 23.4655 24.6157 23.2035C24.3823 22.8702 23.9061 22.5893 22.5537 22.0035C21.0061 21.3369 20.3395 20.9226 19.7299 20.2655C19.3776 19.8845 19.0442 19.275 18.9061 18.7655C18.7918 18.3416 18.7633 17.2797 18.8537 16.8512C19.1728 15.3559 20.3014 14.3131 21.9299 14.0035C22.4585 13.9035 23.6871 13.9416 24.2061 14.0702Z" fill="#121011"/>
</g>
<defs>
<clipPath id="clip0_1938_2578">
<rect width="30" height="30" fill="white" transform="translate(0 0.230469)"/>
</clipPath>
</defs>
</svg>
