<svg width="25" height="25" viewBox="0 0 25 25" fill="none" xmlns="http://www.w3.org/2000/svg">
<path d="M24.0195 0.371094V6.86667H23.3102C22.8898 5.36814 22.4235 4.2944 21.9112 3.64543C21.3988 2.98466 20.6961 2.45959 19.8028 2.07021C19.3036 1.85782 18.43 1.75162 17.1821 1.75162H15.1919V20.2649C15.1919 21.492 15.2642 22.259 15.4087 22.5658C15.5663 22.8726 15.8619 23.144 16.2954 23.3799C16.742 23.6041 17.3463 23.7162 18.1082 23.7162H18.9949V24.3711H5.00475V23.7162H5.89145C6.66649 23.7162 7.29047 23.5923 7.76337 23.3445C8.10492 23.1794 8.37421 22.8962 8.57126 22.495C8.71575 22.2118 8.788 21.4684 8.788 20.2649V1.75162H6.85697C5.0573 1.75162 3.75024 2.09381 2.93579 2.77817C1.79293 3.73393 1.07043 5.09676 0.7683 6.86667H0.0195312V0.371094H24.0195Z" fill="#FD2B20"/>
</svg>
