<svg width="24" height="25" viewBox="0 0 24 25" fill="none" xmlns="http://www.w3.org/2000/svg">
<path fill-rule="evenodd" clip-rule="evenodd" d="M1.5 12.1875C1.5 6.38876 6.20126 1.6875 12 1.6875C17.7987 1.6875 22.5 6.38876 22.5 12.1875C22.5 17.9862 17.7987 22.6875 12 22.6875C6.20126 22.6875 1.5 17.9862 1.5 12.1875ZM15.7245 20.383C16.4649 20.0459 17.1517 19.6115 17.7684 19.096C17.4513 18.8879 17.1197 18.6964 16.7751 18.523C16.6323 18.8457 16.4793 19.1539 16.3171 19.4459C16.1347 19.7743 15.9367 20.0885 15.7245 20.383ZM17.3042 17.1112C17.8487 17.3759 18.367 17.6801 18.8545 18.0199C20.0406 16.6273 20.8098 14.8689 20.9692 12.9375H18.0155C17.9519 14.4335 17.6999 15.8482 17.3042 17.1112ZM16.514 12.9375C16.4535 14.2397 16.2376 15.459 15.9103 16.5408C14.9141 16.2053 13.853 15.9946 12.75 15.9285V12.9375H16.514ZM18.0155 11.4375H20.9692C20.8098 9.50615 20.0406 7.74765 18.8545 6.35508C18.367 6.69488 17.8487 6.99913 17.3042 7.26378C17.6999 8.52681 17.9519 9.94145 18.0155 11.4375ZM15.9103 7.83416C16.2376 8.91603 16.4535 10.1353 16.514 11.4375H12.75V8.44651C13.853 8.38043 14.9141 8.16966 15.9103 7.83416ZM16.7751 5.85204C17.1197 5.67861 17.4513 5.48709 17.7684 5.27899C17.1517 4.76351 16.4649 4.32905 15.7245 3.992C15.9367 4.28655 16.1347 4.60069 16.3171 4.92911C16.4793 5.22115 16.6323 5.52933 16.7751 5.85204ZM8.2755 3.99199C7.53506 4.32905 6.84832 4.76351 6.23163 5.27899C6.54872 5.48709 6.88032 5.67861 7.22486 5.85204C7.36765 5.52933 7.52068 5.22115 7.6829 4.92911C7.86532 4.60069 8.0633 4.28655 8.2755 3.99199ZM6.69579 7.26378C6.15131 6.99913 5.63301 6.69488 5.14553 6.35508C3.95943 7.74765 3.19017 9.50615 3.03081 11.4375H5.98451C6.04815 9.94145 6.30013 8.52681 6.69579 7.26378ZM7.48598 11.4375C7.54651 10.1353 7.76237 8.91603 8.08967 7.83416C9.0859 8.16965 10.147 8.38043 11.25 8.44651V11.4375H7.48598ZM5.98451 12.9375H3.03081C3.19017 14.8689 3.95943 16.6273 5.14553 18.0199C5.63301 17.6801 6.15131 17.3759 6.69579 17.1112C6.30013 15.8482 6.04815 14.4335 5.98451 12.9375ZM8.08967 16.5408C7.76237 15.459 7.54651 14.2397 7.48598 12.9375H11.25V15.9285C10.147 15.9946 9.0859 16.2053 8.08967 16.5408ZM7.22486 18.523C7.36765 18.8457 7.52068 19.1539 7.6829 19.4459C7.86532 19.7743 8.0633 20.0885 8.2755 20.383C7.53506 20.0459 6.84832 19.6115 6.23163 19.096C6.54872 18.8879 6.88032 18.6964 7.22486 18.523ZM8.6109 17.9482C9.44259 17.6721 10.328 17.4944 11.25 17.4315V21.0334C10.4939 20.7298 9.6914 19.9727 8.99418 18.7175C8.85962 18.4753 8.73152 18.2184 8.6109 17.9482ZM12.75 17.4315C13.672 17.4944 14.5574 17.6721 15.3891 17.9482C15.2685 18.2184 15.1404 18.4753 15.0058 18.7175C14.3086 19.9727 13.5061 20.7298 12.75 21.0334V17.4315ZM11.25 6.94345C10.328 6.88061 9.44259 6.70293 8.6109 6.42681C8.73152 6.15659 8.85962 5.89973 8.99418 5.65749C9.6914 4.40231 10.4939 3.6452 11.25 3.34162V6.94345ZM12.75 6.94345C13.672 6.88061 14.5574 6.70293 15.3891 6.42681C15.2685 6.15659 15.1404 5.89973 15.0058 5.65749C14.3086 4.40231 13.5061 3.6452 12.75 3.34162V6.94345Z" fill="#FD2B20"/>
</svg>
