<svg width="30" height="30" viewBox="0 0 30 30" fill="none" xmlns="http://www.w3.org/2000/svg">
<path d="M2.83594 24H2.29688C1.61719 24 1.07812 23.4609 1.07812 22.7812C1.07812 22.0781 1.64062 21.5156 2.34375 21.5156H2.83594V20.5312H2.17969C0.984375 20.5312 0 21.5156 0 22.7109C0 24.0469 1.07813 25.125 2.41406 25.125H2.83594V24Z" fill="#FD2B20"/>
<path d="M27.1641 24H26.625C25.9453 24 25.4063 23.4609 25.4063 22.7812C25.4063 22.0781 25.9688 21.5156 26.6719 21.5156H27.1641V20.5312H26.4844C25.2891 20.5312 24.3047 21.5156 24.3047 22.7109C24.3047 24.0469 25.3828 25.125 26.7188 25.125H27.1406V24H27.1641Z" fill="#FD2B20"/>
<path d="M5.17969 20.5312C4.125 20.5312 3.28125 21.5625 3.28125 22.8281C3.28125 24.0938 4.125 25.125 5.17969 25.125C6.23438 25.125 7.07813 24.0938 7.07813 22.8281C7.07813 21.5625 6.23438 20.5312 5.17969 20.5312ZM5.17969 24.2578C4.71094 24.2578 4.35938 23.625 4.35938 22.8516C4.35938 22.0781 4.73438 21.4453 5.17969 21.4453C5.64844 21.4453 6 22.0781 6 22.8516C6 23.625 5.625 24.2578 5.17969 24.2578Z" fill="#FD2B20"/>
<path d="M7.07812 25.125L7.80469 20.5312H9.32812L9.77344 22.8281L10.3594 20.5312H11.7656L12.4453 25.125H11.2734L10.8984 22.0078L10.2656 25.125H9.46875L8.60156 22.0547L8.20312 25.125H7.07812Z" fill="#FD2B20"/>
<path d="M12.7031 25.125L13.4297 20.5312H14.9531L15.375 22.8281L15.9609 20.5312H17.3906L18.0703 25.125H16.8984L16.5 22.0078L15.8672 25.125H15.0938L14.2031 22.0547L13.8281 25.125H12.7031Z" fill="#FD2B20"/>
<path d="M18.2578 25.125V20.5312H20.6484V21.4219H19.4531V22.4062H20.5078V23.25H19.3125V24.1406H20.6484V25.125H18.2578Z" fill="#FD2B20"/>
<path d="M27.6094 25.125V20.5312H30V21.4219H28.8047V22.4062H29.8594V23.25H28.6641V24.1406H30V25.125H27.6094Z" fill="#FD2B20"/>
<path d="M23.4375 22.9922C23.8125 22.9922 24.1406 22.6875 24.1406 22.2891V21.8672C24.1406 21.1172 23.5313 20.5312 22.8047 20.5312H21.0703V25.125H22.1484V22.9688L23.3203 25.125H24.5156L23.4375 22.9922ZM22.5234 22.5938H22.125V21.4688H22.5703C22.875 21.4688 23.1094 21.7031 23.1094 22.0078C23.0859 22.3359 22.8281 22.5938 22.5234 22.5938Z" fill="#FD2B20"/>
<path d="M24.375 16.7578H5.69531C4.19531 16.7578 2.95312 15.5391 2.95312 14.0156V7.59375C2.95312 6.09375 4.17187 4.85156 5.69531 4.85156H24.375C25.875 4.85156 27.1172 6.07031 27.1172 7.59375V14.0156C27.1172 15.5391 25.875 16.7578 24.375 16.7578Z" fill="#FD2B20"/>
<path d="M5.57812 14.4371C5.57812 14.4371 6.11719 16.6402 7.19531 15.1637C8.27344 13.6871 9.30469 11.3668 9.30469 11.3668C9.30469 11.3668 9.375 10.7809 9.67969 12.0699C9.98437 13.359 11.2969 15.0699 11.2969 15.0699C11.2969 15.0699 12.4922 16.5465 12.9844 14.9996C12.7969 12.9371 13.5234 9.18711 14.25 7.38242C14.5547 5.78867 12.8672 6.23399 12.7266 6.63242C12.5859 7.03086 11.5078 9.37461 11.4375 11.8824C11.4375 11.8824 10.5469 9.4918 10.4766 8.60117C10.4062 7.73399 9.49219 7.49961 8.95312 8.34336C8.41406 9.18711 6.79687 12.4449 6.79687 12.4449L5.76562 7.12461C5.76562 7.12461 4.73437 5.76524 4.125 7.4293C4.125 7.4293 5.20312 13.9684 5.57812 14.4371Z" fill="#121011"/>
<path d="M19.3818 8.60206C17.7646 5.93018 15.3974 7.94581 15.3974 7.94581C15.3974 7.94581 13.5927 10.0317 14.413 12.8677C15.7255 15.6802 17.5302 14.4146 18.0224 14.2036C18.5146 13.9692 20.6708 11.5317 19.3818 8.60206ZM18.163 10.9458C18.163 12.0708 17.249 13.1021 16.4755 12.8677C16.0536 12.6333 15.7958 11.9536 15.7958 10.8521C16.1708 9.02393 17.0146 8.78956 17.4365 8.83643C18.2333 9.25831 18.1865 10.2192 18.163 10.9458Z" fill="#121011"/>
<path d="M25.3818 8.60206C23.7646 5.93018 21.3974 7.94581 21.3974 7.94581C21.3974 7.94581 19.5927 10.0317 20.413 12.8677C21.7255 15.6802 23.5302 14.4146 24.0224 14.2036C24.538 13.9692 26.6943 11.5317 25.3818 8.60206ZM24.163 10.9458C24.163 12.0708 23.249 13.1021 22.4755 12.8677C22.0536 12.6333 21.7958 11.9536 21.7958 10.8521C22.1708 9.02393 23.0146 8.78956 23.4365 8.83643C24.2333 9.25831 24.2099 10.2192 24.163 10.9458Z" fill="#121011"/>
<path d="M14.5312 16.7578L18.7266 19.2188L17.8594 16.7578L15.4453 16.0781L14.5312 16.7578Z" fill="#FD2B20"/>
</svg>
