<svg width="30" height="30" viewBox="0 0 30 30" fill="none" xmlns="http://www.w3.org/2000/svg">
<path d="M14.9992 1.19922C7.38602 1.19922 1.19922 7.38602 1.19922 14.9992C1.19922 22.6124 7.38602 28.7992 14.9992 28.7992C22.6124 28.7992 28.7992 22.6124 28.7992 14.9992C28.7992 7.38602 22.6124 1.19922 14.9992 1.19922ZM14.9992 2.39922C21.9636 2.39922 27.5992 8.03482 27.5992 14.9992C27.5992 21.9636 21.9636 27.5992 14.9992 27.5992C8.03482 27.5992 2.39922 21.9636 2.39922 14.9992C2.39922 8.03482 8.03482 2.39922 14.9992 2.39922ZM14.9992 3.59922C8.70718 3.59922 3.59922 8.70718 3.59922 14.9992C3.59922 21.2913 8.70718 26.3992 14.9992 26.3992C21.2913 26.3992 26.3992 21.2913 26.3992 14.9992C26.3992 8.70718 21.2913 3.59922 14.9992 3.59922ZM14.9992 4.79922C17.3827 4.79922 19.5662 5.61879 21.3004 6.98242C20.997 7.3543 20.8188 7.83115 20.8188 8.33945C20.8188 9.29945 21.359 10.1392 21.959 11.0992C22.439 11.8792 22.9188 12.8995 22.9188 14.3395C22.9188 15.3595 22.6188 16.6197 22.0188 18.1797L20.8188 22.1395L16.559 9.41875C17.279 9.35875 17.9395 9.29922 17.9395 9.29922C18.5395 9.23922 18.4797 8.33945 17.8797 8.33945H17.8188C17.8188 8.33945 15.8995 8.51875 14.6395 8.51875C13.4995 8.51875 11.5188 8.33945 11.5188 8.33945H11.459C10.859 8.33945 10.7992 9.29922 11.3992 9.29922C11.3992 9.29922 11.999 9.35875 12.659 9.41875L14.5188 14.459L11.9395 22.1992L7.61875 9.35898C8.33875 9.29898 8.99922 9.23945 8.99922 9.23945C9.59922 9.17945 9.53945 8.27969 8.93945 8.27969H8.87969C8.87969 8.27969 8.09286 8.34432 7.22617 8.39688C9.09532 6.19714 11.8781 4.79922 14.9992 4.79922ZM22.252 7.82383C23.0684 8.64911 23.7372 9.61664 24.2348 10.682C24.2221 11.361 24.1092 12.0397 23.9395 12.7188C23.6995 11.8788 23.3995 11.159 23.0395 10.559L22.9188 10.3188C22.4388 9.53875 22.0797 8.93922 22.0797 8.39922C22.0797 8.19369 22.1393 7.99077 22.252 7.82383ZM14.159 9.65899H14.759C14.999 9.71898 15.1797 9.71875 15.4797 9.71875L15.5395 9.83945L19.7992 22.559L20.2176 23.7566C19.9887 23.8931 19.7545 24.0201 19.5145 24.1387L16.3188 15.5992L15.8992 14.459L15.7797 14.0395L14.159 9.65899ZM6.2793 9.71875H6.53945L6.59922 9.83945L10.9188 22.6797L11.2797 23.759L11.0734 24.4176C10.9085 24.349 10.751 24.2671 10.5906 24.1902L5.70977 10.7957C5.87797 10.4236 6.06937 10.0653 6.2793 9.71875ZM24.9508 12.7762C25.1094 13.4923 25.1992 14.2345 25.1992 14.9992C25.1992 18.1547 23.7731 20.9675 21.5312 22.8367L24.359 14.6395C24.6214 13.9718 24.8107 13.3561 24.9508 12.7762ZM5.01953 12.8828L8.74727 23.0535C6.34683 21.1894 4.79922 18.2824 4.79922 14.9992C4.79922 14.273 4.8761 13.5656 5.01953 12.8828ZM14.9992 15.959L18.2043 24.6801C17.1961 25.0125 16.1206 25.1992 14.9992 25.1992C13.9544 25.1992 12.9474 25.0406 11.9992 24.7504L14.9992 15.959Z" fill="#FD2B20"/>
</svg>
