<svg width="50" height="50" viewBox="0 0 50 50" fill="none" xmlns="http://www.w3.org/2000/svg">
<path d="M25 2C12.3113 2 2 12.3113 2 25C2 37.6887 12.3113 48 25 48C37.6887 48 48 37.6887 48 25C48 12.3113 37.6887 2 25 2ZM25 4C36.6073 4 46 13.3927 46 25C46 36.6073 36.6073 46 25 46C13.3927 46 4 36.6073 4 25C4 13.3927 13.3927 4 25 4ZM25 6C14.5133 6 6 14.5133 6 25C6 35.4867 14.5133 44 25 44C35.4867 44 44 35.4867 44 25C44 14.5133 35.4867 6 25 6ZM25 8C28.9725 8 32.6117 9.36595 35.502 11.6387C34.9963 12.2585 34.6992 13.0532 34.6992 13.9004C34.6992 15.5004 35.5996 16.9 36.5996 18.5C37.3996 19.8 38.1992 21.5004 38.1992 23.9004C38.1992 25.6004 37.6992 27.7008 36.6992 30.3008L34.6992 36.9004L27.5996 15.6992C28.7996 15.5992 29.9004 15.5 29.9004 15.5C30.9004 15.4 30.8008 13.9004 29.8008 13.9004H29.6992C29.6992 13.9004 26.5004 14.1992 24.4004 14.1992C22.5004 14.1992 19.1992 13.9004 19.1992 13.9004H19.0996C18.0996 13.9004 18 15.5 19 15.5C19 15.5 19.9996 15.5992 21.0996 15.6992L24.1992 24.0996L19.9004 37L12.6992 15.5996C13.8992 15.4996 15 15.4004 15 15.4004C16 15.3004 15.9004 13.8008 14.9004 13.8008H14.8008C14.8008 13.8008 13.4894 13.9085 12.0449 13.9961C15.1602 10.3299 19.7982 8 25 8ZM37.0879 13.041C38.4487 14.4165 39.5633 16.029 40.3926 17.8047C40.3714 18.9364 40.1833 20.0675 39.9004 21.1992C39.5004 19.7992 39.0004 18.5996 38.4004 17.5996L38.1992 17.1992C37.3992 15.8992 36.8008 14.9 36.8008 14C36.8008 13.6574 36.9001 13.3193 37.0879 13.041ZM23.5996 16.0996H24.5996C24.9996 16.1996 25.3008 16.1992 25.8008 16.1992L25.9004 16.4004L33 37.5996L33.6973 39.5957C33.3158 39.8231 32.9255 40.0349 32.5254 40.2324L27.1992 26L26.5 24.0996L26.3008 23.4004L23.5996 16.0996ZM10.4668 16.1992H10.9004L11 16.4004L18.1992 37.8008L18.8008 39.5996L18.457 40.6973C18.1821 40.5829 17.9197 40.4465 17.6523 40.3184L9.51758 17.9941C9.79791 17.3739 10.1169 16.7768 10.4668 16.1992ZM41.5859 21.2949C41.8503 22.4884 42 23.7255 42 25C42 30.2592 39.6232 34.9472 35.8867 38.0625L40.5996 24.4004C41.0369 23.2876 41.3524 22.2614 41.5859 21.2949ZM8.36719 21.4727L14.5801 38.4238C10.5794 35.3169 8 30.472 8 25C8 23.7897 8.12814 22.6106 8.36719 21.4727ZM25 26.5996L30.3418 41.1348C28.6614 41.6888 26.8689 42 25 42C23.2586 42 21.5804 41.7356 20 41.252L25 26.5996Z" fill="#FD2B20"/>
</svg>
