<svg width="400" height="141" viewBox="0 0 400 141" fill="none" xmlns="http://www.w3.org/2000/svg">
<rect width="400" height="141" fill="#121011"/>
<g clip-path="url(#clip0_1998_2700)">
<mask id="mask0_1998_2700" style="mask-type:luminance" maskUnits="userSpaceOnUse" x="34" y="3" width="332" height="135">
<path d="M34 3H366V138H34V3Z" fill="white"/>
</mask>
<g mask="url(#mask0_1998_2700)">
<path d="M215.882 79.0566C213.572 75.2085 211.074 71.4089 208.385 67.6566C205.696 63.9049 202.835 60.3639 199.802 57.0327V79.0566H191.84V45.4383H198.407C199.544 46.5054 200.801 47.8156 202.181 49.3681C203.559 50.9206 204.964 52.5777 206.394 54.3402C207.825 56.1033 209.246 57.9298 210.66 59.8218C212.073 61.7139 213.4 63.533 214.641 65.2792V45.4383H222.655V79.0566H215.882Z" fill="white"/>
<path d="M230.93 79.0566V45.4383H255.127V51.7934H238.996V58.3908H253.317V64.6002H238.996V72.7015H256.317V79.0566H230.93Z" fill="white"/>
<path d="M271.774 45.4383C272.396 46.5054 273.113 47.8237 273.926 49.3917C274.737 50.9611 275.584 52.6587 276.465 54.486C277.347 56.3132 278.219 58.1809 279.083 60.0885C279.947 61.9974 280.76 63.7922 281.52 65.4729C282.28 63.7922 283.093 61.9974 283.957 60.0885C284.821 58.1809 285.693 56.3132 286.575 54.486C287.456 52.6587 288.303 50.9611 289.115 49.3917C289.927 47.8237 290.644 46.5054 291.267 45.4383H298.608C298.952 47.6698 299.272 50.168 299.565 52.9335C299.857 55.6983 300.116 58.5771 300.341 61.5681C300.565 64.5597 300.771 67.5594 300.961 70.5672C301.149 73.5743 301.314 76.4052 301.452 79.0566H293.593C293.49 75.7903 293.352 72.2331 293.18 68.3842C293.006 64.5354 292.748 60.6548 292.404 56.7411C291.78 58.0999 291.089 59.6031 290.329 61.2528C289.568 62.9025 288.816 64.5516 288.073 66.2013C287.329 67.8503 286.612 69.4271 285.921 70.931C285.229 72.4349 284.641 73.7201 284.157 74.7873H278.521C278.037 73.7201 277.45 72.4349 276.758 70.931C276.067 69.4271 275.348 67.8503 274.605 66.2013C273.862 64.5516 273.109 62.9025 272.349 61.2528C271.588 59.6031 270.897 58.0999 270.275 56.7411C269.929 60.6548 269.672 64.5354 269.499 68.3842C269.327 72.2331 269.189 75.7903 269.086 79.0566H261.227C261.364 76.4052 261.528 73.5743 261.718 70.5672C261.907 67.5594 262.114 64.5597 262.338 61.5681C262.562 58.5771 262.821 55.6983 263.114 52.9335C263.406 50.168 263.725 47.6698 264.07 45.4383H271.774Z" fill="white"/>
<path d="M315.411 62.2222C315.411 63.8712 315.625 65.3596 316.057 66.6853C316.487 68.0116 317.108 69.1517 317.918 70.1048C318.728 71.0593 319.719 71.7957 320.892 72.3127C322.063 72.8298 323.407 73.0883 324.925 73.0883C326.406 73.0883 327.743 72.8298 328.931 72.3127C330.12 71.7957 331.12 71.0593 331.93 70.1048C332.74 69.1517 333.36 68.0116 333.792 66.6853C334.222 65.3596 334.438 63.8712 334.438 62.2222C334.438 60.5725 334.222 59.0773 333.792 57.7348C333.36 56.3929 332.74 55.2447 331.93 54.2909C331.12 53.3371 330.12 52.6007 328.931 52.083C327.743 51.5659 326.406 51.3067 324.925 51.3067C323.407 51.3067 322.063 51.574 320.892 52.1073C319.719 52.6412 318.728 53.3857 317.918 54.3388C317.108 55.2933 316.487 56.4415 316.057 57.7834C315.625 59.1259 315.411 60.6049 315.411 62.2222ZM342.762 62.2222C342.762 65.101 342.305 67.6309 341.392 69.8139C340.478 71.9968 339.228 73.8247 337.643 75.2956C336.057 76.7677 334.17 77.8754 331.982 78.6186C329.793 79.3625 327.44 79.7344 324.925 79.7344C322.477 79.7344 320.168 79.3625 317.996 78.6186C315.824 77.8754 313.928 76.7677 312.309 75.2956C310.688 73.8247 309.413 71.9968 308.482 69.8139C307.552 67.6309 307.086 65.101 307.086 62.2222C307.086 59.344 307.569 56.8127 308.534 54.6304C309.499 52.4468 310.8 50.6122 312.438 49.1245C314.074 47.6368 315.971 46.521 318.125 45.7765C320.279 45.0333 322.546 44.6614 324.925 44.6614C327.372 44.6614 329.682 45.0333 331.853 45.7765C334.025 46.521 335.919 47.6368 337.54 49.1245C339.16 50.6122 340.436 52.4468 341.366 54.6304C342.297 56.8127 342.762 59.344 342.762 62.2222Z" fill="white"/>
<path d="M194.82 98.0169C196.235 98.0169 196.942 97.5627 196.942 96.6548C196.942 96.3753 196.879 96.1371 196.754 95.9406C196.628 95.7442 196.458 95.5741 196.244 95.4297C196.03 95.2859 195.785 95.161 195.511 95.0564C195.236 94.9518 194.946 94.8471 194.638 94.7425C194.285 94.6284 193.949 94.4995 193.633 94.3557C193.317 94.2113 193.042 94.0412 192.81 93.8448C192.577 93.6483 192.393 93.4148 192.259 93.1441C192.123 92.8734 192.056 92.5461 192.056 92.162C192.056 91.3668 192.344 90.7465 192.921 90.3017C193.498 89.8562 194.294 89.6334 195.308 89.6334C195.895 89.6334 196.428 89.6922 196.907 89.8103C197.387 89.9284 197.738 90.0573 197.962 90.1971L197.528 91.2318C197.333 91.1178 197.042 91.0071 196.656 90.8977C196.269 90.7884 195.821 90.7337 195.308 90.7337C195.048 90.7337 194.806 90.76 194.582 90.8127C194.359 90.8646 194.164 90.9429 193.996 91.0482C193.828 91.1529 193.696 91.2865 193.598 91.4478C193.5 91.6092 193.452 91.7995 193.452 92.0175C193.452 92.2619 193.503 92.4671 193.605 92.6331C193.708 92.7992 193.851 92.9457 194.038 93.0719C194.224 93.1988 194.441 93.3142 194.687 93.4188C194.934 93.5235 195.206 93.6288 195.504 93.7334C195.923 93.8907 196.307 94.0479 196.656 94.2052C197.005 94.3625 197.308 94.5501 197.563 94.7682C197.819 94.9869 198.017 95.2467 198.156 95.5478C198.297 95.8488 198.367 96.2133 198.367 96.6413C198.367 97.4364 198.056 98.0473 197.438 98.4753C196.818 98.9032 195.946 99.1172 194.82 99.1172C194.438 99.1172 194.087 99.0929 193.766 99.045C193.445 98.997 193.159 98.9403 192.907 98.8749C192.656 98.8094 192.439 98.7392 192.259 98.6656C192.077 98.5914 191.934 98.5272 191.832 98.4753L192.237 97.4277C192.451 97.5411 192.777 97.6673 193.215 97.807C193.652 97.9474 194.187 98.0169 194.82 98.0169Z" fill="white"/>
<path d="M202.68 90.8645C202.103 90.8645 201.66 90.8773 201.353 90.9036V94.4663H202.373C202.838 94.4663 203.257 94.4379 203.629 94.3812C204.001 94.3245 204.315 94.2287 204.571 94.093C204.828 93.958 205.025 93.7724 205.165 93.5368C205.304 93.3005 205.374 92.9995 205.374 92.633C205.374 92.2833 205.302 91.9951 205.158 91.7683C205.014 91.5408 204.818 91.3599 204.571 91.2242C204.325 91.0892 204.039 90.9954 203.713 90.9428C203.387 90.8908 203.043 90.8645 202.68 90.8645ZM202.568 89.7507C203.927 89.7507 204.971 89.993 205.703 90.4784C206.433 90.9623 206.799 91.6853 206.799 92.6458C206.799 93.1696 206.699 93.6171 206.499 93.9884C206.298 94.3596 206.01 94.6613 205.632 94.8922C205.255 95.1237 204.797 95.2918 204.258 95.3964C203.718 95.501 203.108 95.5537 202.429 95.5537H201.353V98.9199H200V89.9735C200.381 89.8864 200.807 89.8277 201.277 89.7966C201.747 89.7662 202.177 89.7507 202.568 89.7507Z" fill="white"/>
<path d="M209.518 94.3753C209.518 94.9254 209.592 95.4256 209.741 95.8752C209.89 96.3247 210.102 96.7068 210.377 97.0213C210.651 97.3359 210.986 97.5782 211.382 97.7483C211.777 97.9184 212.222 98.0034 212.715 98.0034C213.208 98.0034 213.651 97.9184 214.042 97.7483C214.433 97.5782 214.766 97.3359 215.04 97.0213C215.315 96.7068 215.526 96.3247 215.675 95.8752C215.824 95.4256 215.898 94.9254 215.898 94.3753C215.898 93.8252 215.824 93.325 215.675 92.8755C215.526 92.4259 215.315 92.0439 215.04 91.7293C214.766 91.4148 214.433 91.1731 214.042 91.0023C213.651 90.8322 213.208 90.7472 212.715 90.7472C212.222 90.7472 211.777 90.8322 211.382 91.0023C210.986 91.1731 210.651 91.4148 210.377 91.7293C210.102 92.0439 209.89 92.4259 209.741 92.8755C209.592 93.325 209.518 93.8252 209.518 94.3753ZM208.094 94.3753C208.094 93.5984 208.217 92.9126 208.464 92.3186C208.711 91.7253 209.046 91.2298 209.469 90.8322C209.892 90.4347 210.387 90.1356 210.949 89.9352C211.512 89.734 212.11 89.6334 212.743 89.6334C213.367 89.6334 213.956 89.734 214.51 89.9352C215.064 90.1356 215.549 90.4347 215.968 90.8322C216.387 91.2298 216.72 91.7253 216.966 92.3186C217.213 92.9126 217.337 93.5984 217.337 94.3753C217.337 95.1529 217.213 95.838 216.966 96.432C216.72 97.026 216.387 97.5215 215.968 97.9184C215.549 98.316 215.064 98.615 214.51 98.8161C213.956 99.0166 213.367 99.1172 212.743 99.1172C212.11 99.1172 211.512 99.0166 210.949 98.8161C210.387 98.615 209.892 98.316 209.469 97.9184C209.046 97.5215 208.711 97.026 208.464 96.432C208.217 95.838 208.094 95.1529 208.094 94.3753Z" fill="white"/>
<path d="M222.028 90.8645C221.451 90.8645 221.008 90.8773 220.701 90.9036V94.3225H221.664C222.13 94.3225 222.549 94.3009 222.921 94.257C223.293 94.2131 223.607 94.1301 223.863 94.0079C224.119 93.8858 224.317 93.7136 224.456 93.4909C224.597 93.2681 224.666 92.9732 224.666 92.6066C224.666 92.2658 224.597 91.9823 224.456 91.7548C224.317 91.528 224.129 91.3491 223.892 91.2182C223.654 91.0872 223.375 90.9954 223.053 90.9428C222.733 90.8908 222.391 90.8645 222.028 90.8645ZM224.08 95.1217C224.229 95.2965 224.417 95.5253 224.645 95.8088C224.873 96.093 225.108 96.4076 225.351 96.7525C225.592 97.0974 225.832 97.4579 226.069 97.8332C226.307 98.2085 226.509 98.5709 226.676 98.9199H225.197C225.01 98.5885 224.808 98.2523 224.589 97.9115C224.371 97.5713 224.15 97.2459 223.926 96.9354C223.703 96.6256 223.481 96.3353 223.263 96.0647C223.044 95.794 222.847 95.5584 222.67 95.3573C222.549 95.366 222.426 95.3708 222.299 95.3708H221.916H220.701V98.9199H219.348V89.9735C219.728 89.8864 220.155 89.8277 220.625 89.7966C221.094 89.7662 221.525 89.7507 221.916 89.7507C223.274 89.7507 224.31 89.991 225.022 90.4716C225.734 90.9515 226.09 91.6677 226.09 92.6195C226.09 93.2222 225.92 93.7379 225.581 94.1652C225.24 94.5932 224.74 94.9118 224.08 95.1217Z" fill="white"/>
<path d="M234.593 89.8425V90.9428H231.55V98.9199H230.196V90.9428H227.152V89.8425H234.593Z" fill="white"/>
<path d="M236.674 94.3753C236.674 94.9254 236.749 95.4256 236.897 95.8752C237.046 96.3247 237.259 96.7068 237.533 97.0213C237.808 97.3359 238.142 97.5782 238.538 97.7483C238.933 97.9184 239.378 98.0034 239.872 98.0034C240.364 98.0034 240.808 97.9184 241.198 97.7483C241.589 97.5782 241.922 97.3359 242.196 97.0213C242.471 96.7068 242.682 96.3247 242.831 95.8752C242.98 95.4256 243.054 94.9254 243.054 94.3753C243.054 93.8252 242.98 93.325 242.831 92.8755C242.682 92.4259 242.471 92.0439 242.196 91.7293C241.922 91.4148 241.589 91.1731 241.198 91.0023C240.808 90.8322 240.364 90.7472 239.872 90.7472C239.378 90.7472 238.933 90.8322 238.538 91.0023C238.142 91.1731 237.808 91.4148 237.533 91.7293C237.259 92.0439 237.046 92.4259 236.897 92.8755C236.749 93.325 236.674 93.8252 236.674 94.3753ZM235.25 94.3753C235.25 93.5984 235.374 92.9126 235.621 92.3186C235.867 91.7253 236.202 91.2298 236.626 90.8322C237.049 90.4347 237.543 90.1356 238.105 89.9352C238.669 89.734 239.267 89.6334 239.9 89.6334C240.523 89.6334 241.112 89.734 241.666 89.9352C242.22 90.1356 242.705 90.4347 243.124 90.8322C243.544 91.2298 243.876 91.7253 244.123 92.3186C244.369 92.9126 244.493 93.5984 244.493 94.3753C244.493 95.1529 244.369 95.838 244.123 96.432C243.876 97.026 243.544 97.5215 243.124 97.9184C242.705 98.316 242.22 98.615 241.666 98.8161C241.112 99.0166 240.523 99.1172 239.9 99.1172C239.267 99.1172 238.669 99.0166 238.105 98.8161C237.543 98.615 237.049 98.316 236.626 97.9184C236.202 97.5215 235.867 97.026 235.621 96.432C235.374 95.838 235.25 95.1529 235.25 94.3753Z" fill="white"/>
<path d="M251.57 92.7652C251.18 93.9356 250.783 95.0183 250.383 96.0133C249.983 97.0089 249.583 97.9782 249.182 98.9219H247.828C247.335 97.5854 246.9 96.1753 246.523 94.691C246.146 93.206 245.795 91.5907 245.469 89.8438H246.893C247.023 90.5255 247.159 91.2059 247.298 91.887C247.437 92.5688 247.582 93.2303 247.731 93.8722C247.88 94.5134 248.028 95.1277 248.177 95.7122C248.326 96.2975 248.48 96.8388 248.639 97.337C249.01 96.4196 249.406 95.4132 249.825 94.317C250.244 93.2215 250.634 92.0888 250.998 90.9184H252.171C252.533 92.0888 252.929 93.2215 253.357 94.317C253.785 95.4132 254.185 96.4196 254.558 97.337C254.707 96.8476 254.855 96.311 255.005 95.7257C255.153 95.1405 255.3 94.5269 255.444 93.885C255.589 93.2431 255.73 92.5796 255.87 91.8938C256.01 91.2086 256.144 90.5255 256.275 89.8438H257.657C257.322 91.5907 256.966 93.206 256.589 94.691C256.212 96.1753 255.782 97.5854 255.298 98.9219H253.944C253.534 97.9782 253.133 97.0089 252.743 96.0133C252.352 95.0183 251.961 93.9356 251.57 92.7652Z" fill="white"/>
<path d="M264.193 95.5537C263.894 94.7936 263.599 94.0586 263.306 93.3464C263.013 92.635 262.708 91.9512 262.392 91.2965C262.066 91.9512 261.756 92.635 261.463 93.3464C261.17 94.0586 260.879 94.7936 260.591 95.5537H264.193ZM265.463 98.9199C265.304 98.5271 265.156 98.1403 265.017 97.7609C264.877 97.3809 264.732 96.9948 264.584 96.6013H260.2L259.32 98.9199H257.91C258.283 97.9594 258.632 97.0711 258.958 96.2543C259.283 95.4383 259.602 94.6634 259.914 93.9296C260.225 93.1959 260.535 92.4953 260.843 91.827C261.149 91.1588 261.47 90.4973 261.805 89.8425H263.048C263.383 90.4973 263.704 91.1588 264.011 91.827C264.318 92.4953 264.628 93.1959 264.94 93.9296C265.251 94.6634 265.57 95.4383 265.896 96.2543C266.222 97.0711 266.571 97.9594 266.943 98.9199H265.463Z" fill="white"/>
<path d="M274.16 90.8645C273.583 90.8645 273.141 90.8773 272.834 90.9036V94.4663H273.853C274.319 94.4663 274.737 94.4379 275.109 94.3812C275.482 94.3245 275.796 94.2287 276.052 94.093C276.309 93.958 276.506 93.7724 276.646 93.5368C276.785 93.3005 276.855 92.9995 276.855 92.633C276.855 92.2833 276.783 91.9951 276.638 91.7683C276.494 91.5408 276.298 91.3599 276.052 91.2242C275.806 91.0892 275.519 90.9954 275.193 90.9428C274.868 90.8908 274.524 90.8645 274.16 90.8645ZM274.049 89.7507C275.407 89.7507 276.452 89.993 277.183 90.4784C277.914 90.9623 278.279 91.6853 278.279 92.6458C278.279 93.1696 278.179 93.6171 277.979 93.9884C277.778 94.3596 277.491 94.6613 277.113 94.8922C276.736 95.1237 276.278 95.2918 275.738 95.3964C275.198 95.501 274.588 95.5537 273.909 95.5537H272.834V98.9199H271.48V89.9735C271.861 89.8864 272.288 89.8277 272.757 89.7966C273.227 89.7662 273.657 89.7507 274.049 89.7507Z" fill="white"/>
<path d="M282.649 90.8645C282.072 90.8645 281.629 90.8773 281.322 90.9036V94.3225H282.285C282.751 94.3225 283.17 94.3009 283.542 94.257C283.914 94.2131 284.228 94.1301 284.485 94.0079C284.74 93.8858 284.939 93.7136 285.077 93.4909C285.218 93.2681 285.287 92.9732 285.287 92.6066C285.287 92.2658 285.218 91.9823 285.077 91.7548C284.939 91.528 284.75 91.3491 284.513 91.2182C284.275 91.0872 283.996 90.9954 283.674 90.9428C283.354 90.8908 283.012 90.8645 282.649 90.8645ZM284.701 95.1217C284.85 95.2965 285.038 95.5253 285.267 95.8088C285.494 96.093 285.729 96.4076 285.972 96.7525C286.213 97.0974 286.453 97.4579 286.69 97.8332C286.928 98.2085 287.13 98.5709 287.298 98.9199H285.818C285.631 98.5885 285.429 98.2523 285.21 97.9115C284.992 97.5713 284.771 97.2459 284.547 96.9354C284.324 96.6256 284.103 96.3353 283.884 96.0647C283.665 95.794 283.468 95.5584 283.291 95.3573C283.17 95.366 283.047 95.3708 282.921 95.3708H282.537H281.322V98.9199H279.969V89.9735C280.349 89.8864 280.776 89.8277 281.246 89.7966C281.716 89.7662 282.146 89.7507 282.537 89.7507C283.895 89.7507 284.931 89.991 285.644 90.4716C286.355 90.9515 286.711 91.6677 286.711 92.6195C286.711 93.2222 286.541 93.7379 286.202 94.1652C285.862 94.5932 285.362 94.9118 284.701 95.1217Z" fill="white"/>
<path d="M295.086 90.851C294.871 91.0784 294.623 91.3511 294.339 91.6697C294.055 91.9883 293.755 92.342 293.438 92.7308C293.122 93.1196 292.797 93.53 292.461 93.962C292.126 94.394 291.798 94.8314 291.476 95.2722C291.156 95.713 290.851 96.1517 290.562 96.5885C290.274 97.0252 290.013 97.4396 289.781 97.8325H295.225V98.9199H288.203V98.0687C288.398 97.7198 288.629 97.335 288.894 96.9158C289.159 96.4967 289.443 96.0687 289.746 95.632C290.048 95.1959 290.362 94.7545 290.689 94.309C291.014 93.8635 291.337 93.4362 291.659 93.0258C291.979 92.6154 292.292 92.2307 292.594 91.8729C292.896 91.5145 293.173 91.2006 293.424 90.9293H288.454V89.8425H295.086V90.851Z" fill="white"/>
<path d="M299.413 98.9219V95.2802C298.771 94.346 298.166 93.4247 297.598 92.5168C297.03 91.6082 296.495 90.7179 295.992 89.8445H297.584C297.938 90.5606 298.333 91.2876 298.771 92.0254C299.208 92.7632 299.659 93.4726 300.125 94.1537C300.581 93.4726 301.027 92.7632 301.465 92.0254C301.902 91.2876 302.303 90.5606 302.666 89.8445H304.173C303.671 90.7179 303.135 91.6062 302.568 92.5101C302 93.4139 301.399 94.3285 300.767 95.2539V98.9219H299.413Z" fill="white"/>
<path d="M310.792 94.4534H312.146V98.6972C312.035 98.7329 311.874 98.7721 311.665 98.8153C311.456 98.8592 311.213 98.903 310.939 98.9462C310.664 98.9901 310.364 99.0272 310.039 99.0576C309.713 99.0887 309.382 99.1035 309.047 99.1035C308.368 99.1035 307.749 98.9989 307.191 98.789C306.633 98.5797 306.153 98.2739 305.752 97.8723C305.353 97.4707 305.043 96.9773 304.824 96.392C304.605 95.8075 304.496 95.1345 304.496 94.3751C304.496 93.6151 304.619 92.9408 304.867 92.3508C305.113 91.7615 305.446 91.2661 305.864 90.8645C306.283 90.4628 306.774 90.1571 307.337 89.9471C307.9 89.7379 308.503 89.6333 309.145 89.6333C309.582 89.6333 309.971 89.6596 310.31 89.7116C310.651 89.7642 310.941 89.825 311.183 89.8952C311.426 89.9654 311.623 90.0349 311.777 90.1044C311.931 90.1746 312.035 90.2273 312.091 90.2617L311.658 91.3228C311.388 91.1574 311.03 91.0197 310.583 90.9104C310.136 90.801 309.68 90.7463 309.215 90.7463C308.721 90.7463 308.272 90.8294 307.868 90.9954C307.463 91.1615 307.118 91.4018 306.835 91.7156C306.551 92.0302 306.33 92.4122 306.172 92.8618C306.013 93.312 305.934 93.8162 305.934 94.3751C305.934 94.9165 306.001 95.4099 306.136 95.8547C306.271 96.3002 306.476 96.6823 306.751 97.0009C307.026 97.3202 307.365 97.5665 307.769 97.7414C308.175 97.9162 308.652 98.0033 309.201 98.0033C309.592 98.0033 309.924 97.9837 310.2 97.9445C310.474 97.9054 310.672 97.8683 310.792 97.8332V94.4534Z" fill="white"/>
<path d="M315.303 94.3753C315.303 94.9254 315.377 95.4256 315.526 95.8752C315.675 96.3247 315.888 96.7068 316.162 97.0213C316.436 97.3359 316.771 97.5782 317.167 97.7483C317.562 97.9184 318.007 98.0034 318.5 98.0034C318.993 98.0034 319.436 97.9184 319.827 97.7483C320.218 97.5782 320.551 97.3359 320.825 97.0213C321.1 96.7068 321.311 96.3247 321.46 95.8752C321.609 95.4256 321.683 94.9254 321.683 94.3753C321.683 93.8252 321.609 93.325 321.46 92.8755C321.311 92.4259 321.1 92.0439 320.825 91.7293C320.551 91.4148 320.218 91.1731 319.827 91.0023C319.436 90.8322 318.993 90.7472 318.5 90.7472C318.007 90.7472 317.562 90.8322 317.167 91.0023C316.771 91.1731 316.436 91.4148 316.162 91.7293C315.888 92.0439 315.675 92.4259 315.526 92.8755C315.377 93.325 315.303 93.8252 315.303 94.3753ZM313.879 94.3753C313.879 93.5984 314.003 92.9126 314.249 92.3186C314.496 91.7253 314.831 91.2298 315.254 90.8322C315.677 90.4347 316.172 90.1356 316.734 89.9352C317.298 89.734 317.895 89.6334 318.529 89.6334C319.152 89.6334 319.741 89.734 320.295 89.9352C320.849 90.1356 321.334 90.4347 321.753 90.8322C322.172 91.2298 322.505 91.7253 322.752 92.3186C322.998 92.9126 323.122 93.5984 323.122 94.3753C323.122 95.1529 322.998 95.838 322.752 96.432C322.505 97.026 322.172 97.5215 321.753 97.9184C321.334 98.316 320.849 98.615 320.295 98.8161C319.741 99.0166 319.152 99.1172 318.529 99.1172C317.895 99.1172 317.298 99.0166 316.734 98.8161C316.172 98.615 315.677 98.316 315.254 97.9184C314.831 97.5215 314.496 97.026 314.249 96.432C314.003 95.838 313.879 95.1529 313.879 94.3753Z" fill="white"/>
<path d="M327.809 97.8863C329.093 97.8863 330.051 97.5785 330.685 96.9629C331.318 96.3473 331.634 95.4846 331.634 94.3756C331.634 93.2666 331.318 92.4046 330.685 91.789C330.051 91.1734 329.093 90.8656 327.809 90.8656C327.427 90.8656 327.132 90.8696 326.922 90.8784C326.713 90.8872 326.566 90.896 326.482 90.9047V97.8471C326.566 97.8559 326.713 97.8647 326.922 97.8734C327.132 97.8822 327.427 97.8863 327.809 97.8863ZM333.072 94.3756C333.072 95.1613 332.942 95.8451 332.681 96.4256C332.42 97.0067 332.053 97.4867 331.579 97.8667C331.104 98.2467 330.536 98.5302 329.875 98.7179C329.215 98.9062 328.488 99 327.697 99C327.306 99 326.876 98.9845 326.406 98.9541C325.936 98.9231 325.509 98.8643 325.129 98.7766V89.9746C325.509 89.8875 325.936 89.8281 326.406 89.7977C326.876 89.7674 327.306 89.7518 327.697 89.7518C328.488 89.7518 329.215 89.8457 329.875 90.0333C330.536 90.221 331.104 90.5051 331.579 90.8845C332.053 91.2645 332.42 91.7451 332.681 92.3256C332.942 92.9068 333.072 93.5899 333.072 94.3756Z" fill="white"/>
<path d="M340.012 95.5537C339.714 94.7936 339.419 94.0586 339.125 93.3464C338.833 92.635 338.528 91.9512 338.212 91.2965C337.886 91.9512 337.576 92.635 337.283 93.3464C336.989 94.0586 336.699 94.7936 336.41 95.5537H340.012ZM341.283 98.9199C341.124 98.5271 340.976 98.1403 340.836 97.7609C340.697 97.3809 340.552 96.9948 340.403 96.6013H336.02L335.14 98.9199H333.73C334.102 97.9594 334.451 97.0711 334.777 96.2543C335.102 95.4383 335.421 94.6634 335.733 93.9296C336.045 93.1959 336.355 92.4953 336.662 91.827C336.969 91.1588 337.289 90.4973 337.625 89.8425H338.868C339.202 90.4973 339.524 91.1588 339.83 91.827C340.138 92.4953 340.448 93.1959 340.759 93.9296C341.071 94.6634 341.389 95.4383 341.715 96.2543C342.041 97.0711 342.39 97.9594 342.763 98.9199H341.283Z" fill="white"/>
<path d="M124.148 64.373C124.176 64.45 124.205 64.5276 124.297 64.7773C124.126 64.5782 124.08 64.5256 124.035 64.4729C124.073 64.4392 124.111 64.4061 124.148 64.373Z" fill="#FEFEFE"/>
<path d="M181.474 31.6739C179.795 33.8771 177.612 35.5903 175.298 37.1475C172.758 38.8566 170.15 40.478 167.551 42.1101C166.011 43.0781 164.377 43.9218 162.884 44.9485C160.909 46.3066 159.692 48.2891 158.457 50.2115C157.379 51.8895 156.458 53.6546 155.453 55.3739C155.236 55.7444 154.959 56.084 154.624 56.5605C154.005 55.4279 153.435 54.4255 152.903 53.4062C151.857 51.4001 150.886 49.3441 150.612 47.1159C150.422 45.5729 150.43 43.9778 150.61 42.4328C150.819 40.6541 151.287 38.889 152.335 37.3426C153.244 36.0013 154.051 34.5454 155.212 33.4215C156.921 31.7678 159.001 30.544 161.43 29.8859C163.611 29.2946 165.798 28.6735 167.892 27.8615C170.245 26.9489 172.551 25.8993 174.779 24.7424C177.803 23.1723 179.748 20.7342 180.653 17.588C180.674 17.5151 180.701 17.4443 180.725 17.372C180.795 17.345 180.866 17.318 180.935 17.291C181.536 18.421 182.224 19.5185 182.719 20.6876C183.618 22.8119 183.925 25.0387 183.527 27.3067C183.244 28.9145 182.484 30.3496 181.474 31.6739ZM156.039 58.8663C159.151 62.7995 160.032 67.2647 159.495 72.0315C159.306 73.7116 158.959 75.3782 158.62 77.0393C158.441 77.9229 157.973 78.6911 157.087 79.1447C156.894 79.2432 156.646 79.2486 156.423 79.2959C156.679 78.8294 156.957 78.3718 157.184 77.8932C157.434 77.3681 157.492 76.8382 156.925 76.2401C156.692 76.6742 156.502 77.0373 156.304 77.3978C156.027 77.9033 155.844 78.494 155.446 78.8929C154.549 79.7886 154.258 80.8956 153.914 82.0114C153.63 82.9314 153.274 83.8393 152.42 84.4596C152.206 84.6142 151.955 84.7242 151.733 84.8484C151.339 84.407 151.988 83.4775 151.011 83.4079C150.964 83.9857 150.98 84.4589 150.876 84.9078C150.767 85.3763 151.012 85.5457 151.375 85.4107C152.406 85.0273 153.592 84.9321 154.364 84.0283C154.577 83.7778 154.913 83.6199 155.295 83.3472C154.998 85.0718 149.525 90.056 147.971 90.1222C147.991 89.8117 148.011 89.5039 148.031 89.1968C147.961 89.1731 147.892 89.1502 147.823 89.1266C147.683 89.3966 147.494 89.6531 147.412 89.9372C147.038 91.2191 145.976 91.7415 144.75 92.0196C144.428 92.0932 143.913 91.9528 143.679 91.7321C143.04 91.1273 142.442 90.4657 141.943 89.755C141.484 89.0995 141.391 88.3456 141.803 87.593C141.882 87.4499 141.861 87.2588 141.912 86.9051C141.25 87.2737 140.765 87.5909 140.238 87.8258C139.417 88.193 138.589 88.571 137.723 88.8201C136.965 89.0381 136.639 88.648 136.787 87.9095C136.83 87.7003 136.739 87.4681 136.71 87.246C136.487 87.3641 136.169 87.4296 136.055 87.6085C134.982 89.2919 133.613 90.7384 132.141 92.1181C131.951 92.2957 131.948 92.7587 132.023 93.0537C132.318 94.2383 132.328 95.4095 131.95 96.5698C131.695 97.3528 131.171 97.4601 130.548 96.8972C129.589 96.0305 129.564 94.8263 130.477 93.9076C131.444 92.9342 131.579 91.7003 131.607 90.4678C131.669 87.8791 131.024 85.4309 129.748 83.1386C129.436 82.577 129.456 82.0647 129.676 81.4916C130.36 79.7015 131.102 77.9256 131.658 76.0997C132.438 73.5347 132.317 70.9333 131.809 68.3156C131.483 66.6369 131.416 64.9157 131.174 63.2214C130.991 61.9463 130.692 60.6861 130.487 59.4137C130.396 58.8508 130.354 58.271 130.384 57.704C130.423 57.0114 130.82 56.8015 131.407 57.1964C132.698 58.0671 134.173 58.8211 134.348 60.6686C134.552 60.431 134.677 60.2851 134.896 60.0307C135.784 60.9385 136.659 61.7803 137.471 62.6713C139.809 65.2329 142.2 67.7318 145.023 69.8553C146.894 71.262 148.97 71.8952 151.322 71.9033C152.797 71.9087 154.31 70.828 154.994 69.3626C156.092 67.0169 156.217 64.5869 155.852 62.0982C155.672 60.8731 155.487 59.648 155.453 58.3189C155.65 58.5005 155.876 58.6611 156.039 58.8663ZM167.125 77.3512C168.274 77.3978 169.461 77.5233 170.277 78.5129C171.222 79.6577 170.889 80.7161 169.41 81.1103C168.205 81.4309 167.039 81.1656 165.872 80.8963C164.625 80.6087 163.389 80.2463 162.125 80.0667C160.418 79.8244 158.736 80.0687 157.111 80.6371C156.713 80.7761 156.288 80.8457 155.875 80.9476C155.836 80.8754 155.798 80.8025 155.76 80.7302C156.057 80.5514 156.344 80.3529 156.654 80.1963C159.928 78.5446 163.309 77.1966 167.125 77.3512ZM168.334 83.9655C168.18 84.7148 167.52 85.1927 166.636 85.2129C165.445 85.2399 164.532 84.6533 163.625 84.0391C162.955 83.5862 162.292 83.1218 161.592 82.7127C160.13 81.8588 158.517 81.6253 156.824 81.7751C156.608 81.7947 156.389 81.7846 156.172 81.7812C156.141 81.7805 156.112 81.7421 156.025 81.6806C157.23 81.007 158.522 80.7289 159.866 80.6249C161.861 80.4703 163.743 80.9759 165.621 81.5072C166.195 81.6698 166.797 81.7582 167.351 81.9648C168.115 82.2503 168.508 83.1218 168.334 83.9655ZM164.746 87.6017C164.138 88.4536 163.248 88.9963 162.217 89.1954C161.857 89.2656 161.241 88.9281 160.993 88.6061C160.284 87.6848 159.792 86.6108 159.047 85.7198C158.331 84.8633 157.401 84.1667 156.577 83.3877C156.342 83.1656 156.151 82.9017 155.94 82.6574C156.266 82.5311 156.586 82.3853 156.922 82.2861C157.102 82.2321 157.31 82.2578 157.628 82.2416C158.779 82.4015 160.021 82.5939 161.119 83.3195C162.137 83.9918 163.247 84.5399 164.278 85.1974C165.336 85.8717 165.458 86.6034 164.746 87.6017ZM147.502 100.239C147.947 102.124 147.93 103.979 146.528 105.577C146.245 105.899 145.867 106.147 145.445 106.503C145.604 105.544 145.766 104.726 145.865 103.902C145.918 103.459 145.896 103.001 145.839 102.557C145.814 102.357 145.621 102.176 145.504 101.985C145.436 102.181 145.362 102.375 145.301 102.573C145.284 102.629 145.299 102.696 145.307 102.757C145.612 105.045 144.582 106.882 143.06 108.541C142.559 109.088 142.01 109.596 141.482 110.121C141.411 110.077 141.34 110.032 141.269 109.987C141.507 108.94 141.771 107.896 141.976 106.843C142.092 106.243 142.13 105.626 142.161 105.015C142.169 104.872 142.009 104.722 141.926 104.574C141.822 104.71 141.652 104.834 141.623 104.982C141.346 106.413 141.176 107.867 140.81 109.277C140.421 110.782 139.687 112.145 138.315 113.122C136.944 114.098 135.463 114.093 133.916 113.608C133.629 113.518 133.305 113.474 133.066 113.317C132.288 112.803 131.706 113.099 131.137 113.637C130.173 114.55 129.206 115.446 127.828 115.836C126.503 116.211 125.305 116.103 124.223 115.254C123.243 114.487 123.156 113.553 124.008 112.657C126.065 110.492 127.974 108.221 129.41 105.644C130.141 104.335 130.836 102.98 131.295 101.572C131.973 99.4932 132.448 97.3541 132.967 95.2319C133.392 93.4931 134.001 91.8738 135.789 90.9518C136.256 90.7121 136.802 90.6082 137.311 90.4408C137.879 90.2538 138.483 90.1289 139.005 89.8637C139.858 89.4296 140.376 89.3324 141.078 89.9595C141.972 90.7574 142.792 91.645 143.536 92.5697C145.394 94.8755 146.831 97.3953 147.502 100.239ZM127.523 56.2169C127.405 55.6823 127.285 55.1484 127.152 54.5497C127.82 54.8953 127.959 55.4042 127.523 56.2169ZM126.774 52.9931V51.5378C127.333 52.0157 127.33 52.4828 126.774 52.9931ZM122.972 47.9435C120.797 47.0612 118.545 46.3545 116.174 46.1041C113.341 45.8051 110.505 45.4297 107.661 45.3501C105.21 45.2819 102.745 45.558 100.29 45.7342C99.5975 45.7834 99.2608 45.4581 99.1723 44.9559C98.9953 43.9515 98.9212 42.9309 98.8263 41.915C98.5428 38.8897 99.8608 36.4509 102.063 34.3766C103.348 33.1664 104.855 32.351 106.759 32.2794C108.255 32.2227 109.368 32.7816 109.882 34.0486C110.372 35.2582 110.619 36.5555 110.954 37.8191C111.104 38.3895 111.206 38.9713 111.331 39.5478C111.414 39.5687 111.497 39.589 111.579 39.6099C111.664 39.4628 111.831 39.3102 111.821 39.1685C111.768 38.3436 111.931 38.0014 112.767 37.7374C115.164 36.9808 117.626 36.8093 120.12 37.1947C121.642 37.4303 123.049 37.9427 124.186 38.968C126.166 40.752 126.195 43.969 124.244 45.5377C123.967 45.7612 123.651 45.9421 123.354 46.1426C123.384 46.2141 123.414 46.2857 123.445 46.3572C124.059 46.2398 124.67 46.1142 125.286 46.0082C127.058 45.7018 128.823 45.5715 130.591 46.0683C132.805 46.69 133.223 48.1676 132.559 49.8753C132.243 50.6873 131.741 51.44 131.277 52.1953C131.084 52.5105 131.066 52.6826 131.475 52.7616C132.321 52.9256 133.178 53.0485 134.014 53.2496C135.269 53.552 136.543 53.8274 137.749 54.2615C138.915 54.6813 139.187 55.631 138.594 56.678C138.359 57.0904 138.072 57.4765 137.827 57.8842C137.705 58.0847 137.623 58.3067 137.477 58.6179C138.264 58.6179 138.932 58.5815 139.593 58.6287C140.214 58.6726 140.857 58.7259 141.438 58.9176C142.241 59.1822 142.559 59.9065 142.274 60.6706C142.061 61.2416 141.759 61.7837 141.5 62.3405C141.437 62.4776 141.39 62.6213 141.311 62.8265C141.903 62.8265 142.403 62.7881 142.895 62.8333C144.474 62.9777 144.97 63.4826 145.045 64.7543C145.108 65.8391 145.474 66.9083 145.705 67.9849C145.744 68.1692 145.771 68.3561 145.818 68.6234C142.887 66.7962 140.546 64.5539 138.461 62.0564C136.133 59.2659 133.879 56.4147 131.439 53.7127C129.138 51.1639 126.244 49.2712 122.972 47.9435ZM98.2004 46.1864C95.5176 48.2513 94.8442 50.3032 95.863 53.4677C96.0435 54.0286 96.2155 54.5915 96.3917 55.1538C92.7514 53.2031 89.9572 50.6894 89.6752 46.5287C89.5227 44.2769 91.3781 41.51 93.6126 40.6609C94.6025 40.2842 95.6773 40.0473 96.7378 39.9076C97.8867 39.7564 98.3608 40.2653 98.4018 41.3359C98.4529 42.6636 98.5795 43.9893 98.609 45.317C98.6155 45.6093 98.437 46.0042 98.2004 46.1864ZM154.213 58.0064C153.964 57.9611 153.671 57.98 153.472 57.8606C152.372 57.1991 151.222 56.5862 150.223 55.8052C145.694 52.2662 143.189 47.6674 142.674 42.1999C142.369 38.9639 142.474 35.6956 142.332 32.4441C142.223 29.9311 142.107 27.4133 141.83 24.9138C141.571 22.5898 140.669 20.417 139.69 18.2711C138.976 16.7045 138.409 15.0784 137.781 13.4773C137.737 13.3659 137.732 13.241 137.71 13.1263C142.058 12.9953 145.75 14.3636 148.972 16.9866C152.263 19.665 154.969 22.7619 156.895 26.4339C157.343 27.2885 157.682 28.1957 158.033 29.0921C158.253 29.6557 158.086 30.2436 157.549 30.4981C154.537 31.9311 153.4 34.7465 151.848 37.2393C150.169 39.9366 149.538 42.8695 149.879 45.9961C150.238 49.2772 151.291 52.3296 153.059 55.1774C153.485 55.8632 153.835 56.5936 154.177 57.3212C154.269 57.5163 154.205 57.7762 154.213 58.0064ZM180.942 16.4162C180.83 16.2522 180.655 16.1267 180.397 15.8722C180.279 16.4567 180.19 16.9103 180.097 17.3619C179.392 20.7626 177.105 23.0495 174.034 24.6857C169.91 26.8821 165.491 28.4002 160.85 29.3209C159.225 29.6428 158.68 29.8278 158.123 27.929C158.105 27.8703 158.069 27.817 158.046 27.7596C156.242 23.3654 153.126 19.8965 149.433 16.7929C145.893 13.8175 141.698 12.6322 137.069 12.4803C136.284 12.4547 136.197 12.6133 136.543 13.2397C137.264 14.5458 137.967 15.8607 138.671 17.1749C141.051 21.6137 141.969 26.336 141.797 31.2757C141.723 33.3641 141.671 35.4539 141.664 37.5437C141.647 42.6683 142.793 47.4939 145.845 51.8402C147.817 54.6496 150.174 57.0384 153.559 58.3472C154.258 58.6179 154.664 59.0175 154.859 59.6777C155.506 61.8572 155.684 64.0726 155.384 66.3109C155.186 67.7898 154.519 69.1169 153.438 70.1955C152.992 70.6403 152.307 71.0582 151.685 71.1277C150.238 71.2904 147.125 70.3481 146.469 68.3069C146.043 66.9859 145.723 65.6278 145.471 64.2677C145.307 63.3834 144.847 62.8495 143.966 62.6119C143.467 62.4776 142.954 62.3932 142.384 62.273C142.493 61.8262 142.574 61.4077 142.697 61.0013C142.987 60.0374 142.736 59.2085 141.838 58.6969C141.304 58.3925 140.628 58.2203 139.999 58.1657C138.361 58.0232 138.329 58.1684 139.059 56.6408C139.694 55.3111 139.325 54.3904 137.882 53.8592C137.072 53.5615 136.234 53.3205 135.392 53.1113C134.328 52.8467 133.247 52.6401 132.12 52.3978C132.424 51.6566 132.721 50.9789 132.982 50.2891C133.92 47.8031 132.813 45.9488 130.04 45.4919C129.061 45.3305 128.043 45.3764 127.042 45.3447C126.471 45.3258 125.899 45.3413 125.363 45.3413C125.636 44.4604 126.058 43.614 126.136 42.7399C126.337 40.5117 125.151 38.9039 123.206 37.7503C121.879 36.9632 120.379 36.6021 118.838 36.6392C116.793 36.6878 114.751 36.8843 112.71 37.0591C111.635 37.1516 111.561 37.1266 111.28 36.1255C111.092 35.4553 110.91 34.7722 110.613 34.1417C109.831 32.4779 108.215 31.5659 106.326 31.9061C102.753 32.548 100.148 34.3773 98.9356 37.7044C98.7191 38.2977 98.6018 38.9234 98.4745 39.4007C97.4788 39.4007 96.5335 39.2987 95.6227 39.4196C92.5486 39.8273 89.5817 42.8324 89.1126 45.9542C89.0486 46.3788 88.8824 46.5806 88.4551 46.7386C86.4831 47.4689 84.5723 48.3181 82.8774 49.5398C81.0385 50.8648 79.5817 52.5085 79.1731 54.6604C78.8594 56.3121 78.9472 58.0394 78.9436 59.7337C78.9414 60.9406 78.9838 62.46 79.0601 63.6669C79.0954 63.6642 79.0205 63.8546 79.05 63.8748C79.3493 64.078 79.0738 63.9234 79.2723 64.2123C79.3601 64.3406 79.568 64.5053 79.6695 64.62C80.2421 65.27 80.5543 65.0122 80.5954 65.0378C80.5781 65.0075 80.3169 64.5498 80.299 64.5208C79.7148 63.5717 79.6299 62.5005 79.5874 61.4441C79.5155 59.648 79.2982 57.8241 79.5313 56.057C79.9306 53.0289 81.5889 50.6225 84.4781 49.1004C85.532 48.5449 86.6723 48.1244 87.8004 47.7059C88.6551 47.3879 88.6104 47.5175 88.9881 48.2877C89.5299 49.3893 90.1845 50.4659 90.9514 51.4413C92.5083 53.4204 94.6644 54.7947 96.7694 56.2061C96.9579 56.333 97.1896 56.4039 97.6176 56.5996C97.5147 56.1872 97.5011 55.9051 97.3781 55.6749C96.5536 54.1413 95.9903 52.5483 96.0104 50.8082C96.0371 48.4706 97.5263 46.827 99.986 46.3437C102.149 45.9178 104.269 46.1338 106.408 46.528C110.072 47.203 113.595 48.2654 116.953 49.7929C120.752 51.5216 124.305 53.5905 127.026 56.6989C129.161 59.1383 130.266 61.9909 130.632 65.104C130.859 67.0271 130.822 68.9535 130.482 70.8617C130.131 72.8307 129.823 74.8166 129.296 76.7471C128.795 78.5837 128.089 80.3772 127.363 82.1504C127.085 82.8288 127.175 83.329 127.592 83.8535C128.739 85.2939 129.362 86.9281 129.732 88.679C130.499 92.3112 128.351 96.6359 124.966 98.5421C122.78 99.7727 120.418 100.265 117.954 100.45C112.153 100.882 106.346 100.796 100.571 100.181C95.7795 99.6714 91.1989 98.4247 87.1781 95.7895C82.4651 92.7007 79.4313 88.4995 77.9428 83.3047C77.7119 82.4967 77.5428 81.6725 77.3616 80.8524C77.1285 79.794 77.3321 78.7586 77.9882 77.9175C79.1788 76.392 79.4608 74.6303 79.7551 72.8543C79.9565 71.642 80.1285 70.4257 80.3335 69.2141C80.3594 69.0595 80.6925 68.6788 80.7644 68.531C80.2364 68.1388 80.2601 66.076 79.5141 66.3804C79.486 68.1766 79.4608 70.7834 79.2162 72.558C78.9615 74.3981 78.7572 76.3144 77.2738 77.792C77.0443 78.0208 76.9392 78.3988 76.8738 78.7248C76.3846 81.1589 77.1486 83.4188 78.0062 85.6631C78.9097 87.1961 79.7529 88.7641 80.7371 90.2498C81.3997 91.2501 82.2486 92.1438 83.04 93.0665C83.3867 93.4709 83.35 93.7422 82.8579 93.9798C81.2731 94.7426 79.6515 95.3825 77.8177 95.2812C77.4925 95.263 77.1723 95.1678 76.8608 94.9518C78.2213 94.5846 79.5824 94.2167 80.9428 93.8489C80.9241 93.7469 80.9061 93.6443 80.8882 93.5424C80.5378 93.5768 80.1817 93.5863 79.8371 93.6511C78.7097 93.863 77.5882 94.102 76.4608 94.3153C75.9954 94.403 75.5098 94.5455 75.0536 94.4969C74.1644 94.401 73.2824 94.2127 72.4148 94.0014C72.2393 93.9589 72.1393 93.6443 71.9637 93.3973C72.8493 93.1064 73.6198 92.8532 74.3903 92.6008C74.3716 92.5184 74.3529 92.4361 74.3342 92.3537C74.1026 92.3537 73.8673 92.3321 73.6385 92.3571C71.3155 92.615 69.2673 92.0054 67.4357 90.6662C66.6918 90.1229 66.2616 89.4323 66.4033 88.5528C66.5961 87.356 66.1328 86.4218 65.3242 85.547C64.5565 84.7168 64.3645 83.7198 64.7098 82.6769C65.1148 81.4531 66.0227 81.0313 67.2213 81.6455C68.5083 82.305 69.6975 83.1359 70.9141 83.9122C72.0321 84.6257 73.1702 85.2919 74.527 85.5194C74.704 85.5491 74.904 85.46 75.0932 85.4262C75.027 85.3796 74.9666 85.3067 74.8925 85.2905C74.6731 85.2433 74.409 85.2784 74.2321 85.1758C73.0911 84.5082 71.9709 83.8082 70.8378 83.1285C69.6486 82.4137 68.5033 81.6111 67.2436 81.0299C66.0961 80.5014 64.817 81.0745 64.2335 82.1538C63.8119 82.9328 63.7465 83.7731 64.1443 84.5291C64.6112 85.4161 65.2817 86.2072 65.8076 87.0698C65.9774 87.3486 66.0659 87.7347 66.0213 88.0513C65.8904 88.9868 65.958 89.8765 66.6587 90.5893C67.1256 91.0645 67.6515 91.5437 68.2537 91.8347C69.7544 92.5596 71.2817 93.1793 72.5249 94.3436C73.017 94.804 74.0054 94.7804 74.7515 95.022C77.5026 95.913 80.1579 95.7625 82.7133 94.4239C83.3989 94.0648 83.9961 94.1047 84.6407 94.5758C87.1975 96.4449 89.8975 98.0872 92.9817 99.1159C96.6608 100.342 100.482 100.84 104.348 101.03C110.174 101.315 115.994 101.385 121.786 100.466C124.451 100.042 127.152 99.8078 129.838 99.4939C130.856 99.3751 131.082 99.5756 130.891 100.535C130.743 101.276 130.588 102.037 130.272 102.722C128.827 105.858 127.035 108.789 124.472 111.27C123.846 111.877 123.329 112.606 122.879 113.342C122.51 113.948 122.693 114.607 123.216 115.096C125.014 116.777 127.636 117.346 129.666 115.641C130.218 115.176 130.776 114.716 131.307 114.231C131.995 113.604 132.275 113.569 133.169 113.916C133.749 114.141 134.354 114.352 134.968 114.446C136.52 114.687 137.872 114.2 138.983 113.2C141.597 110.846 144.171 108.455 146.775 106.092C147.614 105.331 148.14 104.406 148.215 103.342C148.285 102.353 148.259 101.33 148.066 100.357C147.653 98.2607 146.618 96.3788 145.498 94.5428C145.318 94.2471 145.107 93.9744 145.602 93.7436C148.538 92.3747 150.922 90.3294 153.242 88.2133C154.428 87.1319 155.581 86.0162 156.735 84.9051C157.185 84.4724 157.533 84.6 157.839 85.0347C158.488 85.9561 159.122 86.8869 159.771 87.8076C160.071 88.2329 160.338 88.6939 160.715 89.051C161.733 90.0135 162.784 90.0405 163.897 89.2028C164.758 88.5548 165.376 87.7563 165.616 86.7317C165.766 86.0904 166.068 85.7347 166.866 85.6523C168.346 85.4998 168.798 84.9159 168.78 83.5166C168.778 83.3324 168.774 83.1474 168.75 82.9652C168.699 82.5804 168.446 82.0498 168.623 81.8521C168.851 81.5976 169.42 81.6165 169.839 81.5099C171.449 81.1001 171.91 79.873 170.959 78.5675C170.125 77.4214 168.905 76.9644 167.501 76.8416C165.212 76.6411 163.039 77.1899 160.871 77.767C160.552 77.852 160.226 77.9189 159.847 78.0073C160.092 76.5743 160.348 75.2472 160.543 73.9127C161.002 70.7659 160.779 67.644 159.799 64.6139C159.166 62.6578 158.235 60.8015 156.903 59.1397C155.688 57.623 155.401 55.9922 156.47 54.2662C156.974 53.4521 157.417 52.6064 157.915 51.7889C159.633 48.9668 161.717 46.4672 164.68 44.6616C167.406 43.0011 170.066 41.2441 172.726 39.4911C175.369 37.7503 178.053 36.0527 180.274 33.8157C182.71 31.3614 184.292 28.5602 184.19 25.1129C184.095 21.8986 182.756 19.0744 180.942 16.4162Z" fill="black"/>
<path d="M82.5201 67.8159C82.9734 66.0022 83.6964 64.3053 85.0791 62.9168C86.1662 61.8246 87.5345 61.4001 89.0942 61.4763C89.4064 61.4919 89.7122 61.6032 90.2438 61.7193C89.8971 61.938 89.7438 62.0541 89.5733 62.1399C87.9179 62.9769 86.8367 64.2654 86.2179 65.9111C85.9719 66.5652 86.0964 66.7137 86.8345 66.7346C86.9215 66.7373 87.0093 66.7386 87.0964 66.7413C88.3259 66.7818 88.41 66.8919 88.2568 68.013C88.1856 68.5389 88.2057 69.0748 88.1683 69.6054C88.1302 70.142 88.3568 70.3485 88.9345 70.2277C89.5215 70.1055 89.9575 70.3485 90.2568 70.8109C90.564 71.2861 90.3553 71.652 89.7561 71.6938C89.4777 71.7127 89.1964 71.6965 88.9086 71.6965C89.3165 73.4556 91.1777 73.9611 93.3949 72.896C93.0856 74.2797 92.8647 75.6378 92.041 76.8042C91.1697 78.0375 88.9935 78.485 87.5755 77.8329C86.3287 77.2599 85.0525 76.7394 83.7654 76.2507C83.0295 75.9706 82.5942 75.5177 82.4014 74.8069C81.7669 72.4647 81.9403 70.1359 82.5201 67.8159ZM93.1661 69.1281C93.1467 69.3232 92.8676 69.4953 92.7014 69.6783C92.4999 69.5061 92.2093 69.3637 92.1316 69.1518C92.0856 69.0262 92.3755 68.792 92.6172 68.468C92.8913 68.7792 93.182 68.9668 93.1661 69.1281ZM92.2676 65.2989C93.074 65.2982 93.9496 66.0724 93.9043 66.7717C93.8683 67.3259 93.505 67.5567 92.9366 67.5412C92.0589 67.5311 91.128 66.7926 91.151 66.1251C91.1676 65.6627 91.6575 65.2995 92.2676 65.2989ZM80.6136 65.0356C80.6079 65.0363 80.6021 65.039 80.5964 65.0383C80.3935 65.0221 80.2151 64.9479 80.0575 64.8277C79.9144 64.7177 79.8273 64.5705 79.7316 64.4247C79.5503 64.1473 79.3453 63.8618 79.0611 63.6681C79.0496 63.66 79.041 63.6498 79.0309 63.6404C78.4834 64.0926 78.8554 64.5705 79.0057 65.0343C79.1525 65.4865 79.4331 65.9347 79.5151 66.3816C79.5525 66.3944 79.5856 66.4153 79.6021 66.4497C79.9431 67.145 80.0906 68.034 80.7654 68.5321C80.7834 68.5449 80.7957 68.5625 80.8043 68.5814C80.841 68.5827 80.8777 68.5841 80.9144 68.5854C81.1381 69.7633 81.387 70.9371 81.5755 72.1197C81.71 72.9662 81.7561 73.8248 81.8561 74.676C81.9316 75.3172 81.8683 75.9018 81.0309 76.3702C81.4439 76.4458 81.6734 76.516 81.905 76.5261C83.9827 76.6132 85.8805 77.216 87.6172 78.2751C88.2266 78.647 88.2251 78.834 87.6942 79.3058C87.5295 79.4523 87.4158 79.65 87.2791 79.8249C87.3338 79.8735 87.3877 79.9227 87.4417 79.972C87.7618 79.752 88.0856 79.5366 88.4014 79.3112C90.9402 77.5008 93.605 77.486 96.2963 78.9285C97.3086 79.4712 98.1978 80.2177 99.1438 80.8698C99.3604 81.0189 99.5791 81.1634 99.7971 81.3105C99.8453 81.2694 99.8942 81.2289 99.9424 81.1884C99.8589 81.0513 99.8028 80.8873 99.6863 80.782C97.9812 79.2356 96.0546 78.0462 93.6963 77.5704C92.6856 77.3658 92.6733 77.3017 92.9784 76.3351C93.4611 74.8069 93.9978 73.2841 94.3251 71.7249C94.8625 69.1572 94.6251 66.6387 93.4021 64.233C91.9028 61.2833 89.6496 60.3761 86.3597 61.502C85.1748 61.9077 84.0287 62.4146 82.8726 62.8918C82.0525 63.23 81.3518 63.1267 80.7431 62.4909C80.6439 62.3883 80.4662 62.3525 80.3244 62.2857C80.2719 62.4294 80.1698 62.5752 80.1755 62.717C80.2122 63.6843 80.6913 64.4848 81.3187 65.259C80.9618 65.3259 80.7597 65.2098 80.6136 65.0356Z" fill="black"/>
<path d="M118.22 71.8899C117.598 71.9493 116.606 71.0623 116.609 70.4974C116.612 69.9938 116.886 69.6948 117.454 69.6907C118.116 69.686 118.681 70.4272 118.689 71.5112C118.605 71.5841 118.427 71.8703 118.22 71.8899ZM116.896 73.7407C116.926 73.5571 117.23 73.414 117.414 73.2534C117.587 73.4343 117.878 73.6044 117.899 73.7995C117.916 73.9662 117.622 74.1613 117.348 74.4832C117.12 74.1336 116.866 73.9162 116.896 73.7407ZM116.948 80.7385C116.4 81.4047 115.636 81.6956 114.737 81.4344C112.166 80.6885 109.539 80.4057 106.853 80.5117C106.025 80.5441 105.322 80.2768 104.88 79.5424C102.586 75.7259 103.49 69.6597 106.814 66.6323C108.902 64.7302 111.857 64.1881 114.22 65.2762C114.352 65.337 114.471 65.4187 114.754 65.5807C113.16 66.0282 112.079 66.8841 111.235 68.0248C111.099 68.2091 110.965 68.3968 110.85 68.5932C110.148 69.7893 110.246 70.062 111.556 70.575C112.571 70.9732 112.556 70.9712 112.448 72.0256C112.292 73.5504 112.625 74.9537 113.681 76.168C115.102 77.8036 116.937 77.6962 118.111 75.9048C118.268 75.6652 118.437 75.4336 118.664 75.221C118.445 77.1603 118.284 79.1158 116.948 80.7385ZM115.548 73.8163C115.707 74.2659 115.797 74.7688 115.756 75.2359C115.733 75.4822 115.397 75.8427 115.144 75.8933C114.881 75.9453 114.428 75.761 114.271 75.545C113.993 75.1589 113.875 74.6716 113.638 74.0998C113.902 73.765 114.081 73.306 114.412 73.1697C114.962 72.9436 115.383 73.3479 115.548 73.8163ZM121.789 72.2254C122.164 71.6968 122.566 71.3944 122.925 71.0515C123.201 70.7863 123.256 70.5581 122.831 70.2679C121.992 69.6948 121.187 69.0657 120.434 68.3941C119.347 67.4227 118.394 66.3103 117.251 65.4052C114.144 62.9428 109.915 62.2435 106.91 65.5503C104.46 68.2469 102.944 71.2628 103.115 74.8808C103.201 76.7242 103.802 78.4482 104.673 80.1492C104.132 80.4084 103.613 80.6568 103.094 80.9052C103.111 80.9646 103.128 81.0233 103.146 81.0827C103.542 81.0827 103.947 81.134 104.333 81.0746C109.198 80.3281 113.719 81.3683 118.064 83.3615C118.233 83.4392 118.438 83.4452 118.626 83.4844C118.664 83.4169 118.7 83.3487 118.737 83.2812C118.373 83.0281 118.016 82.7648 117.643 82.5245C116.718 81.9285 116.728 81.9042 117.345 81.0631C117.998 80.1715 118.751 79.3075 119.194 78.3253C119.784 77.0199 120.563 76.2146 122.171 76.405C122.297 76.4198 122.446 76.4043 122.557 76.3516C123.209 76.0405 123.858 75.7232 124.493 75.3817C124.583 75.3331 124.624 75.1407 124.612 75.0212C124.607 74.9733 124.401 74.9227 124.282 74.9098C124.004 74.8801 123.724 74.872 123.252 74.8444C124.473 74.1356 125.392 73.4377 125.903 72.2794C125.123 72.3759 124.453 72.5318 123.787 72.5203C123.12 72.5089 122.455 72.3307 121.789 72.2254Z" fill="black"/>
<path d="M107.595 56.06C108.751 55.4964 109.999 55.3175 111.272 55.3688C114.384 55.4937 117.107 56.6965 119.739 58.1383C120.066 58.3179 120.466 58.3793 120.833 58.4961C120.652 58.1417 120.568 57.6787 120.276 57.4498C116.709 54.6547 112.668 53.9952 108.257 55.2433C107.73 55.3931 107.274 55.7657 106.785 56.035C106.843 56.1241 106.902 56.2139 106.96 56.303C107.172 56.2234 107.392 56.1586 107.595 56.06Z" fill="black"/>
<path d="M102.274 86.6659C102.556 87.2957 102.193 87.698 101.714 88.0213C101.329 88.2818 100.903 88.5046 100.468 88.6814C98.2718 89.5711 96.0107 89.5036 93.8733 88.6679C92.2337 88.0274 90.3632 87.374 90.392 85.1735C90.392 85.1498 90.3308 85.1255 90.2985 85.1006C89.7258 85.54 89.1524 85.9794 88.5625 86.431C88.5848 86.4465 88.6934 86.5754 88.8208 86.5957C89.9251 86.7665 90.738 87.4313 91.6093 88.0037C94.6711 90.0166 97.8668 90.5404 101.278 88.7766C101.646 88.5869 102.078 88.5093 102.476 88.3709C103.014 88.184 103.55 87.9889 104.121 87.785C103.465 87.2592 102.906 86.8097 102.316 86.3358C102.303 86.4215 102.229 86.5667 102.274 86.6659Z" fill="black"/>
<path d="M84.518 53.0997C83.2842 53.4203 82.3029 54.127 81.4375 54.9755C81.2907 55.1193 81.3058 55.4075 81.2461 55.6289C81.4763 55.6053 81.7224 55.6208 81.9324 55.5472C82.1504 55.471 82.3367 55.311 82.5324 55.1821C85.0094 53.5526 87.6655 53.1901 90.5137 54.1864C91.1173 54.3977 91.7209 54.6097 92.3245 54.8209C92.3727 54.7636 92.4202 54.7055 92.4684 54.6481C92.0763 54.3181 91.7317 53.907 91.2835 53.6707C89.1295 52.5367 86.8482 52.4935 84.518 53.0997Z" fill="black"/>
<path d="M110.456 61.7266C109.587 61.7705 108.769 61.9696 107.984 62.5056C109.074 62.3422 110.058 62.0857 111.047 62.0662C114.417 62.0014 117.08 63.728 119.828 65.2312C120.426 65.5579 121.094 65.7699 121.73 66.0352C121.759 65.9542 121.789 65.8732 121.818 65.7922C121.186 65.4243 120.535 65.0814 119.923 64.6852C117.071 62.837 114.025 61.5457 110.456 61.7266Z" fill="black"/>
<path d="M86.1375 59.5811C85.6411 59.762 85.2439 60.1812 84.8008 60.491C84.8662 60.6058 84.9324 60.7212 84.9979 60.8359C86.9001 59.2915 89.0389 59.2011 91.3008 59.8342C89.5957 59.0992 87.8655 58.9507 86.1375 59.5811Z" fill="black"/>
<path d="M132.54 77.7461C132.887 76.6411 133.237 75.5287 133.587 74.417C133.518 74.4015 133.449 74.3866 133.381 74.3718C132.854 75.4612 131.856 76.4629 132.54 77.7461Z" fill="#F7F4F2"/>
<path d="M135.5 83.1606C135.807 83.8106 136.114 84.4606 136.422 85.1113C136.644 84.2703 136.233 83.654 135.782 83.0526C135.688 83.0884 135.594 83.1248 135.5 83.1606Z" fill="#F7F4F2"/>
<path d="M158.733 70.3301C159.215 69.4917 159.103 69.3284 157.629 68.4678C157.37 69.4141 158.613 69.4762 158.733 70.3301Z" fill="#F7F4F2"/>
<path d="M157.637 65.4296C157.977 65.8819 158.215 66.1978 158.453 66.5137C158.778 65.8306 158.434 65.5835 157.637 65.4296Z" fill="#F7F4F2"/>
<path d="M179.904 20.3937C179.846 20.6306 179.868 20.8905 179.784 21.1159C178.556 24.3897 176.167 26.5044 172.599 27.4481C172.284 27.5311 172.006 27.735 171.711 27.8828C171.74 27.9564 171.77 28.0299 171.799 28.1035C172.017 28.0873 172.261 28.1258 172.448 28.0461C173.747 27.4967 175.103 27.0282 176.308 26.3316C178.418 25.1133 179.915 23.4035 180.32 21.0187C180.391 20.5975 180.369 20.1621 180.39 19.7335C180.307 19.7214 180.223 19.7092 180.14 19.6971C180.06 19.9286 179.963 20.1567 179.904 20.3937Z" fill="#F7F4F2"/>
<path d="M80.7822 90.2456C79.798 88.7599 78.9548 87.1919 78.0512 85.6583C77.0807 85.58 76.1095 85.501 75.1383 85.4221C74.9491 85.4558 74.7491 85.5449 74.5721 85.5152C73.2153 85.2877 72.0772 84.6208 70.9599 83.908C69.7426 83.1318 68.5541 82.3009 67.2671 81.6414C66.0678 81.0271 65.1599 81.449 64.7549 82.6721C64.4095 83.7157 64.6024 84.712 65.3693 85.5422C66.1779 86.4177 66.6412 87.3512 66.4484 88.5487C66.3074 89.4282 66.7376 90.1187 67.4808 90.6621C69.3124 92.0013 71.3606 92.6101 73.6836 92.353C73.9131 92.328 74.1477 92.3496 74.38 92.3496C74.3987 92.4319 74.4167 92.5143 74.4354 92.5966C73.6649 92.8491 72.8944 93.1022 72.0088 93.3925C72.1851 93.6402 72.2851 93.9541 72.4599 93.9966C73.3275 94.2079 74.2095 94.3962 75.0987 94.492C75.5548 94.5413 76.0412 94.3989 76.5066 94.3105C77.634 94.0978 78.7556 93.8582 79.8829 93.6469C80.2268 93.5821 80.5829 93.5727 80.9333 93.5383C80.952 93.6402 80.9699 93.7421 80.9879 93.8447C79.6275 94.2126 78.2671 94.5798 76.9066 94.9477C77.2182 95.1637 77.5376 95.2588 77.8628 95.2764C79.6966 95.3783 81.3181 94.7384 82.903 93.975C83.3958 93.7381 83.4325 93.4667 83.085 93.0617C82.2944 92.1397 81.4448 91.246 80.7822 90.2456Z" fill="#F4731C"/>
<path d="M124.328 74.9057C124.447 74.9186 124.654 74.9699 124.658 75.0171C124.67 75.1366 124.629 75.3296 124.539 75.3782C123.904 75.7191 123.255 76.0364 122.603 76.3475C122.492 76.4002 122.342 76.4164 122.217 76.4015C120.61 76.2105 119.83 77.0158 119.241 78.3212C118.798 79.3034 118.045 80.1674 117.391 81.059C116.775 81.9001 116.764 81.9244 117.689 82.5204C118.063 82.7607 118.419 83.024 118.783 83.2771C118.746 83.3453 118.709 83.4128 118.673 83.4803C118.484 83.4411 118.278 83.435 118.11 83.3574C113.765 81.3641 109.245 80.3246 104.379 81.0705C103.994 81.1299 103.588 81.0786 103.191 81.0786C103.174 81.0192 103.158 80.9605 103.14 80.9011C103.659 80.6527 104.178 80.4043 104.719 80.1458C103.848 78.4441 103.248 76.7201 103.16 74.8774C102.991 71.2587 104.506 68.2435 106.956 65.5469C109.961 62.24 114.19 62.9387 117.297 65.4011C118.44 66.3069 119.393 67.4193 120.481 68.39C121.233 69.0616 122.038 69.6907 122.878 70.2644C123.302 70.5547 123.247 70.7822 122.97 71.0474C122.613 71.3903 122.211 71.6934 121.835 72.2213C122.501 72.3266 123.165 72.5054 123.834 72.5162C124.5 72.5277 125.169 72.3718 125.949 72.2753C125.437 73.4342 124.519 74.1315 123.299 74.8403C123.77 74.8686 124.05 74.876 124.328 74.9057ZM102.525 88.3666C102.127 88.505 101.695 88.5826 101.328 88.7723C97.9159 90.536 94.7209 90.0122 91.6583 87.9994C90.7871 87.427 89.9742 86.7621 88.8698 86.5913C88.7425 86.5711 88.6346 86.4422 88.6123 86.4266C89.2015 85.9751 89.7749 85.535 90.3483 85.0955C90.3799 85.1212 90.4418 85.1455 90.4411 85.1691C90.4123 87.3696 92.2835 88.023 93.9224 88.6636C96.0605 89.4992 98.3209 89.5667 100.517 88.6771C100.953 88.5002 101.378 88.2775 101.763 88.0169C102.242 87.6936 102.605 87.2913 102.323 86.6615C102.279 86.5623 102.353 86.4172 102.366 86.3315C102.955 86.8053 103.515 87.2549 104.17 87.7807C103.599 87.9845 103.064 88.1796 102.525 88.3666ZM121.867 65.7872C121.837 65.8682 121.809 65.9492 121.779 66.0302C121.143 65.7656 120.475 65.5536 119.878 65.2269C117.129 63.7237 114.466 61.9964 111.096 62.0618C110.107 62.0807 109.123 62.3379 108.033 62.5013C108.818 61.9653 109.637 61.7662 110.504 61.7223C114.073 61.5407 117.12 62.832 119.973 64.6808C120.584 65.0771 121.235 65.42 121.867 65.7872ZM108.306 55.2389C112.717 53.9902 116.758 54.6497 120.324 57.4455C120.617 57.6743 120.701 58.1367 120.882 58.4911C120.515 58.375 120.115 58.3129 119.788 58.134C117.155 56.6922 114.434 55.4887 111.322 55.3638C110.048 55.3125 108.799 55.4921 107.643 56.055C107.442 56.1536 107.221 56.2184 107.009 56.2987C106.95 56.2089 106.892 56.1198 106.834 56.03C107.323 55.7607 107.778 55.3881 108.306 55.2389ZM92.3713 54.8171C91.7677 54.6051 91.1641 54.3932 90.5605 54.1826C87.7123 53.1863 85.0562 53.5481 82.5792 55.1775C82.3835 55.3064 82.1972 55.4664 81.9792 55.5434C81.7691 55.6169 81.5231 55.6014 81.2929 55.625C81.3526 55.4036 81.3375 55.1154 81.4842 54.9716C82.3497 54.1225 83.331 53.4164 84.5648 53.0958C86.8943 52.4897 89.1763 52.5329 91.3303 53.6669C91.7785 53.9031 92.1224 54.3135 92.5152 54.6443C92.467 54.7016 92.4195 54.759 92.3713 54.8171ZM85.0454 60.832C84.9792 60.7166 84.9137 60.6018 84.8483 60.4864C85.2907 60.1766 85.6886 59.7581 86.185 59.5765C87.913 58.946 89.6425 59.0952 91.3483 59.8303C89.0864 59.1971 86.9468 59.2876 85.0454 60.832ZM129.779 88.6744C129.41 86.9241 128.786 85.2893 127.64 83.8488C127.223 83.3243 127.132 82.8242 127.41 82.1458C128.136 80.3726 128.842 78.5791 129.344 76.7424C129.87 74.8119 130.178 72.8267 130.529 70.8571C130.869 68.9489 130.906 67.0224 130.68 65.0993C130.313 61.9862 129.209 59.1337 127.073 56.6942C124.352 53.5859 120.8 51.517 117 49.7883C113.642 48.2608 110.119 47.1983 106.455 46.5233C104.317 46.1291 102.197 45.9131 100.033 46.3391C97.5734 46.8224 96.0842 48.466 96.0576 50.8035C96.0382 52.5437 96.6015 54.1367 97.4252 55.6703C97.549 55.9004 97.5626 56.1826 97.6655 56.595C97.2367 56.3993 97.0058 56.3284 96.8166 56.2015C94.7123 54.7901 92.5562 53.4158 90.9993 51.4367C90.2317 50.4613 89.577 49.3847 89.036 48.2831C88.6576 47.5129 88.7029 47.3833 87.8475 47.7012C86.7202 48.1197 85.5792 48.5402 84.5252 49.0958C81.636 50.6179 79.9778 53.0243 79.5785 56.0523C79.3454 57.8195 79.5627 59.6433 79.6353 61.4395C79.6778 62.4959 79.762 63.5671 80.3468 64.5161C80.5627 64.8678 80.6958 65.3788 81.3655 65.2532C80.7382 64.479 80.2584 63.6785 80.2217 62.7119C80.2166 62.5694 80.3188 62.4243 80.3713 62.2799C80.5123 62.3467 80.6907 62.3831 80.7893 62.4857C81.3986 63.1209 82.0994 63.2249 82.9188 62.886C84.0749 62.4088 85.2209 61.9019 86.4058 61.4962C89.6965 60.3703 91.949 61.2782 93.449 64.2272C94.672 66.6329 94.9094 69.1514 94.3713 71.7191C94.0447 73.279 93.5072 74.8018 93.0252 76.33C92.7202 77.2959 92.7317 77.3607 93.7432 77.5646C96.1015 78.0404 98.0274 79.2305 99.7331 80.7762C99.849 80.8822 99.9051 81.0462 99.9892 81.1826C99.9403 81.2237 99.8921 81.2642 99.8439 81.3047C99.6259 81.1583 99.4065 81.0131 99.1907 80.8646C98.2446 80.2119 97.3554 79.4654 96.3425 78.9227C93.6518 77.4802 90.9871 77.495 88.4483 79.3054C88.1324 79.5308 87.8087 79.7468 87.4886 79.9669C87.4339 79.9176 87.3799 79.8683 87.326 79.8191C87.4627 79.6449 87.5756 79.4465 87.7411 79.3C88.2713 78.8288 88.2734 78.6419 87.6634 78.2699C85.9267 77.2102 84.0296 76.6081 81.9519 76.5203C81.7195 76.5109 81.4907 76.4407 81.0778 76.3651C81.9145 75.8966 81.9778 75.3114 81.903 74.6708C81.803 73.819 81.7569 72.9604 81.6217 72.1146C81.4332 70.932 81.1842 69.7575 80.9612 68.5796C80.8548 68.5763 80.7483 68.5729 80.6418 68.5688C80.5519 68.7821 80.4181 68.9887 80.3814 69.2094C80.1763 70.421 80.0037 71.6374 79.803 72.8497C79.5087 74.6256 79.226 76.3874 78.0353 77.9129C77.3799 78.7539 77.1763 79.7894 77.4094 80.8478C77.59 81.6679 77.7591 82.4921 77.9907 83.3C79.4785 88.4948 82.513 92.696 87.226 95.7848C91.2461 98.42 95.8267 99.6668 100.619 100.176C106.394 100.791 112.2 100.878 118.001 100.445C120.465 100.261 122.828 99.768 125.013 98.5375C128.399 96.6313 130.546 92.3066 129.779 88.6744Z" fill="#F4731C"/>
<path d="M136.42 85.1119C136.113 84.4619 135.806 83.8119 135.499 83.1612C135.593 83.1254 135.686 83.0896 135.781 83.0532C136.232 83.6546 136.642 84.2709 136.42 85.1119ZM132.538 77.747C131.855 76.4638 132.853 75.4621 133.379 74.3727C133.448 74.3875 133.517 74.403 133.586 74.4179C133.236 75.5303 132.886 76.642 132.538 77.747ZM157.63 68.4678C159.103 69.3284 159.217 69.4924 158.734 70.3301C158.614 69.4762 157.371 69.4141 157.63 68.4678ZM158.454 66.5136C158.216 66.1977 157.978 65.8818 157.637 65.4296C158.434 65.5835 158.778 65.8305 158.454 66.5136ZM151.732 84.8487C151.955 84.7251 152.206 84.6151 152.419 84.4605C153.273 83.8402 153.629 82.9323 153.913 82.0123C154.257 80.8965 154.549 79.7895 155.445 78.8938C155.844 78.4942 156.027 77.9043 156.304 77.3987C156.501 77.0382 156.692 76.6751 156.924 76.2411C157.492 76.8384 157.433 77.369 157.183 77.8941C156.957 78.3727 156.678 78.8297 156.422 79.2968C156.645 79.2495 156.893 79.2441 157.086 79.1456C157.972 78.692 158.439 77.9238 158.62 77.0403C158.959 75.3791 159.306 73.7118 159.495 72.0324C160.032 67.2656 159.15 62.8005 156.038 58.8666C155.875 58.6614 155.649 58.5014 155.452 58.3198C155.487 59.6489 155.671 60.874 155.852 62.0991C156.217 64.5879 156.091 67.0179 154.994 69.3635C154.309 70.8282 152.797 71.9096 151.321 71.9042C148.97 71.8961 146.893 71.2629 145.022 69.8556C142.2 67.7327 139.808 65.2338 137.471 62.6722C136.658 61.7812 135.783 60.9395 134.895 60.0316C134.676 60.2861 134.552 60.4312 134.347 60.6695C134.172 58.822 132.698 58.0674 131.406 57.1973C130.82 56.8017 130.422 57.0123 130.383 57.7049C130.352 58.2719 130.395 58.8517 130.486 59.414C130.692 60.687 130.99 61.9473 131.173 63.2223C131.416 64.9166 131.483 66.6378 131.809 68.3166C132.317 70.9342 132.437 73.5357 131.657 76.1007C131.101 77.9259 130.36 79.7025 129.676 81.4926C129.456 82.0656 129.435 82.578 129.748 83.1396C131.024 85.4319 131.668 87.8801 131.607 90.468C131.578 91.7013 131.444 92.9352 130.476 93.9085C129.563 94.8272 129.589 96.0314 130.548 96.8981C131.17 97.4604 131.694 97.3537 131.949 96.57C132.327 95.4104 132.317 94.2393 132.022 93.0546C131.948 92.7597 131.951 92.2966 132.14 92.1191C133.611 90.7394 134.981 89.2929 136.055 87.6094C136.169 87.4299 136.486 87.3651 136.709 87.2469C136.739 87.469 136.829 87.7012 136.787 87.9105C136.639 88.6489 136.965 89.0391 137.722 88.821C138.588 88.572 139.416 88.194 140.238 87.8268C140.765 87.5912 141.25 87.2746 141.912 86.9061C141.86 87.2598 141.881 87.4508 141.803 87.5939C141.39 88.3465 141.483 89.1005 141.943 89.7552C142.441 90.466 143.04 91.1282 143.678 91.7323C143.913 91.9537 144.427 92.0934 144.75 92.0205C145.975 91.7424 147.037 91.22 147.411 89.9382C147.493 89.654 147.683 89.3968 147.822 89.1275C147.891 89.1504 147.961 89.1741 148.03 89.197C148.01 89.5048 147.991 89.8126 147.97 90.1224C149.524 90.057 154.998 85.0721 155.294 83.3475C154.913 83.6208 154.577 83.7788 154.363 84.0292C153.591 84.933 152.406 85.0282 151.375 85.4116C151.011 85.5466 150.766 85.3772 150.875 84.9087C150.979 84.4599 150.964 83.9867 151.01 83.4089C151.988 83.4784 151.339 84.4079 151.732 84.8487Z" fill="#F4731C"/>
<path d="M156.467 79.293C156.467 79.293 156.468 79.2915 156.469 79.29C156.467 79.2907 156.466 79.2907 156.465 79.2907L156.467 79.293Z" fill="#E78C3B"/>
<path d="M180.367 21.0138C179.961 23.3986 178.465 25.1084 176.355 26.3268C175.15 27.0234 173.794 27.4918 172.496 28.0413C172.308 28.1209 172.064 28.0824 171.847 28.0986C171.817 28.0251 171.788 27.9515 171.758 27.8779C172.053 27.7301 172.331 27.5262 172.645 27.4432C176.214 26.4996 178.603 24.3848 179.83 21.111C179.915 20.8856 179.893 20.6257 179.951 20.3888C180.009 20.1525 180.107 19.9244 180.187 19.6922C180.271 19.7043 180.354 19.7165 180.438 19.7286C180.416 20.1573 180.439 20.5926 180.367 21.0138ZM182.766 20.6831C182.272 19.514 181.584 18.4171 180.984 17.2872C180.913 17.3142 180.843 17.3405 180.772 17.3675C180.748 17.4397 180.722 17.5113 180.701 17.5835C179.795 20.7297 177.851 23.1678 174.826 24.7385C172.598 25.8954 170.292 26.9451 167.94 27.857C165.845 28.6697 163.658 29.29 161.477 29.8813C159.049 30.5401 156.969 31.7632 155.26 33.417C154.098 34.5408 153.292 35.9975 152.382 37.3387C151.335 38.8845 150.866 40.6496 150.658 42.4282C150.477 43.9733 150.469 45.5683 150.659 47.1114C150.933 49.3395 151.905 51.3956 152.951 53.4017C153.482 54.4216 154.052 55.4233 154.672 56.5566C155.007 56.0801 155.284 55.7399 155.5 55.3693C156.505 53.6501 157.427 51.885 158.505 50.2076C159.74 48.2845 160.957 46.3027 162.933 44.9446C164.425 43.9179 166.058 43.0735 167.599 42.1062C170.197 40.4741 172.806 38.8527 175.345 37.143C177.66 35.5857 179.843 33.8733 181.522 31.6694C182.531 30.345 183.292 28.9107 183.574 27.3021C183.973 25.0341 183.666 22.8073 182.766 20.6831Z" fill="#F4731C"/>
<path d="M147.755 22.69C147.996 23.1051 148.235 23.5209 148.475 23.9361C148.404 23.9718 148.334 24.0083 148.263 24.0441C148.022 23.6296 147.781 23.2145 147.539 22.8C147.611 22.7636 147.683 22.7265 147.755 22.69ZM139.735 18.2667C140.714 20.4126 141.616 22.5861 141.874 24.9094C142.152 27.4089 142.268 29.9274 142.377 32.4404C142.518 35.6912 142.414 38.9595 142.719 42.1955C143.233 47.663 145.739 52.2624 150.268 55.8008C151.267 56.5818 152.416 57.1947 153.516 57.8562C153.715 57.9756 154.009 57.9567 154.257 58.002C154.25 57.7718 154.314 57.5126 154.222 57.3168C153.88 56.5892 153.53 55.8588 153.104 55.173C151.335 52.3252 150.283 49.2729 149.924 45.9917C149.583 42.8651 150.214 39.9322 151.893 37.2349C153.444 34.7421 154.582 31.9267 157.594 30.4944C158.13 30.2392 158.298 29.652 158.078 29.0883C157.727 28.1919 157.388 27.2841 156.94 26.4295C155.014 22.7575 152.307 19.6606 149.017 16.9822C145.795 14.3592 142.103 12.9909 137.754 13.1219C137.776 13.2366 137.782 13.3615 137.825 13.4729C138.453 15.074 139.021 16.7001 139.735 18.2667Z" fill="#F4731C"/>
<path d="M99.2128 44.9528C99.3013 45.455 99.638 45.781 100.33 45.7311C102.786 45.5549 105.251 45.2788 107.703 45.347C110.547 45.4267 113.383 45.802 116.217 46.101C118.588 46.3514 120.839 47.0581 123.015 47.941C126.288 49.2688 129.182 51.1621 131.483 53.7109C133.924 56.413 136.178 59.2642 138.506 62.0553C140.591 64.5535 142.933 66.7958 145.864 68.623C145.817 68.3564 145.79 68.1694 145.751 67.9845C145.521 66.9079 145.154 65.8387 145.09 64.7539C145.016 63.4816 144.519 62.9773 142.94 62.8322C142.449 62.7877 141.949 62.8255 141.357 62.8255C141.436 62.6203 141.483 62.4765 141.546 62.3395C141.804 61.7826 142.106 61.2406 142.319 60.6695C142.604 59.9054 142.286 59.1811 141.483 58.9165C140.903 58.7248 140.26 58.6715 139.639 58.6276C138.978 58.5804 138.309 58.6168 137.522 58.6168C137.669 58.3057 137.751 58.0836 137.872 57.8824C138.118 57.4754 138.405 57.0886 138.639 56.6762C139.232 55.63 138.961 54.6796 137.794 54.2597C136.588 53.8257 135.314 53.5496 134.059 53.2479C133.223 53.0467 132.365 52.9232 131.519 52.7599C131.11 52.6802 131.129 52.5081 131.322 52.1935C131.785 51.4375 132.288 50.6849 132.604 49.8729C133.268 48.1651 132.849 46.6869 130.636 46.0652C128.867 45.5684 127.102 45.6994 125.33 46.0051C124.714 46.1118 124.102 46.2373 123.488 46.3541C123.457 46.2826 123.427 46.211 123.397 46.1395C123.695 45.939 124.011 45.7581 124.288 45.5353C126.238 43.966 126.209 40.7489 124.23 38.9642C123.092 37.9389 121.685 37.4266 120.163 37.191C117.669 36.8049 115.206 36.977 112.809 37.7337C111.973 37.9976 111.81 38.3398 111.863 39.1647C111.873 39.3064 111.706 39.459 111.621 39.6061C111.539 39.5852 111.456 39.565 111.373 39.544C111.248 38.9676 111.146 38.3857 110.995 37.8154C110.661 36.5518 110.414 35.2537 109.924 34.0441C109.41 32.7772 108.297 32.2183 106.801 32.275C104.896 32.3465 103.388 33.1619 102.104 34.3722C99.9013 36.4471 98.5834 38.8859 98.8661 41.9119C98.9611 42.9278 99.0359 43.9484 99.2128 44.9528Z" fill="#F4731C"/>
<path d="M143.585 92.5657C142.84 91.641 142.02 90.7534 141.127 89.9555C140.425 89.3284 139.906 89.4256 139.053 89.8597C138.531 90.1249 137.927 90.2498 137.36 90.4368C136.85 90.6042 136.304 90.7081 135.838 90.9484C134.05 91.8698 133.44 93.4891 133.015 95.2279C132.497 97.3501 132.021 99.4892 131.343 101.568C130.884 102.976 130.189 104.331 129.458 105.64C128.022 108.217 126.114 110.488 124.057 112.653C123.205 113.549 123.291 114.483 124.271 115.25C125.353 116.099 126.551 116.207 127.877 115.832C129.255 115.442 130.221 114.546 131.186 113.633C131.754 113.095 132.337 112.799 133.115 113.313C133.353 113.47 133.678 113.514 133.964 113.604C135.512 114.089 136.993 114.094 138.363 113.118C139.735 112.141 140.47 110.778 140.859 109.273C141.224 107.863 141.395 106.409 141.672 104.978C141.701 104.83 141.871 104.706 141.975 104.57C142.058 104.718 142.217 104.868 142.209 105.011C142.178 105.622 142.14 106.239 142.024 106.839C141.82 107.892 141.556 108.936 141.317 109.983C141.389 110.028 141.459 110.073 141.53 110.117C142.058 109.592 142.607 109.084 143.109 108.537C144.631 106.878 145.66 105.041 145.355 102.753C145.348 102.692 145.332 102.625 145.35 102.569C145.41 102.371 145.484 102.177 145.553 101.981C145.669 102.172 145.862 102.353 145.888 102.553C145.945 102.997 145.966 103.455 145.913 103.898C145.814 104.722 145.653 105.54 145.494 106.499C145.916 106.143 146.294 105.895 146.576 105.573C147.978 103.975 147.996 102.12 147.551 100.235C146.88 97.3913 145.443 94.8715 143.585 92.5657Z" fill="#F4731C"/>
<path d="M89.6174 62.1351C89.7879 62.0487 89.9412 61.9333 90.2872 61.7146C89.7563 61.5985 89.4498 61.4871 89.1383 61.4716C87.5786 61.3953 86.2103 61.8199 85.1232 62.9121C83.7398 64.3005 83.0175 65.9975 82.5642 67.8112C81.9844 70.1312 81.811 72.4599 82.4455 74.8022C82.6383 75.5123 83.0728 75.9659 83.8095 76.2453C85.0959 76.7347 86.3728 77.2551 87.6189 77.8282C89.0376 78.4803 91.2138 78.0327 92.0843 76.7995C92.9081 75.6331 93.1297 74.275 93.439 72.8906C91.2218 73.9564 89.3606 73.4502 88.952 71.6918C89.2397 71.6918 89.521 71.708 89.7995 71.6884C90.3995 71.6472 90.6081 71.2814 90.3009 70.8062C90.0016 70.3438 89.5649 70.1008 88.9786 70.223C88.4002 70.3438 88.1736 70.1373 88.2117 69.6006C88.2491 69.0701 88.229 68.5341 88.3009 68.0083C88.4541 66.8871 88.37 66.7771 87.1397 66.7366C87.0527 66.7339 86.9656 66.7326 86.8779 66.7299C86.1397 66.7089 86.016 66.5604 86.2621 65.9064C86.88 64.2607 87.9613 62.9721 89.6174 62.1351Z" fill="white"/>
<path d="M96.3933 55.1484C96.217 54.5862 96.0451 54.0232 95.8645 53.4623C94.8458 50.2986 95.5192 48.2459 98.2019 46.1811C98.4386 45.9988 98.617 45.6039 98.6105 45.3117C98.5803 43.9839 98.4544 42.6582 98.4034 41.3305C98.3623 40.2606 97.8882 39.751 96.7393 39.9022C95.6789 40.0419 94.6041 40.2789 93.6142 40.6555C91.3789 41.5053 89.5242 44.2715 89.6768 46.5233C89.9588 50.684 92.753 53.1977 96.3933 55.1484Z" fill="#F4731C"/>
<path d="M167.17 77.3459C163.354 77.1914 159.972 78.5393 156.699 80.1917C156.389 80.3483 156.102 80.5461 155.805 80.725C155.843 80.7979 155.882 80.8701 155.92 80.9423C156.333 80.8404 156.758 80.7709 157.156 80.6318C158.782 80.0635 160.463 79.8191 162.169 80.0615C163.435 80.241 164.67 80.6035 165.917 80.891C167.084 81.1604 168.25 81.4256 169.455 81.105C170.934 80.7108 171.267 79.6531 170.322 78.5076C169.506 77.5181 168.319 77.3925 167.17 77.3459Z" fill="#F4731C"/>
<path d="M164.326 85.1933C163.295 84.5358 162.185 83.9877 161.167 83.3154C160.07 82.5898 158.828 82.3981 157.676 82.2375C157.359 82.2537 157.151 82.228 156.97 82.282C156.634 82.3812 156.314 82.527 155.988 82.6533C156.199 82.8976 156.39 83.1615 156.626 83.3836C157.449 84.1626 158.38 84.8592 159.095 85.7157C159.84 86.6067 160.332 87.6807 161.042 88.602C161.29 88.924 161.906 89.2615 162.266 89.192C163.297 88.9922 164.186 88.4495 164.794 87.5976C165.506 86.5993 165.385 85.8676 164.326 85.1933Z" fill="#F4731C"/>
<path d="M167.397 81.96C166.844 81.7534 166.241 81.665 165.667 81.5023C163.79 80.9704 161.907 80.4649 159.912 80.6194C158.567 80.7241 157.277 81.0022 156.07 81.6751C156.157 81.7366 156.188 81.7757 156.218 81.7764C156.435 81.7798 156.654 81.7899 156.87 81.7703C158.564 81.6205 160.177 81.854 161.638 82.7079C162.338 83.1163 163.001 83.5813 163.67 84.0343C164.577 84.6478 165.49 85.2351 166.683 85.2081C167.565 85.1878 168.226 84.7093 168.38 83.9607C168.554 83.1163 168.162 82.2455 167.397 81.96Z" fill="#F4731C"/>
<path d="M93.949 66.7669C93.9943 66.0676 93.1187 65.2927 92.3123 65.294C91.7022 65.2947 91.2123 65.6572 91.1957 66.1202C91.1727 66.7878 92.1036 67.5256 92.9813 67.5364C93.5497 67.5519 93.913 67.3204 93.949 66.7669Z" fill="white"/>
<path d="M92.1767 69.1461C92.2544 69.3573 92.5451 69.5004 92.7465 69.6719C92.9127 69.4896 93.1918 69.3168 93.2113 69.1217C93.2271 68.9611 92.9364 68.7728 92.6623 68.4623C92.4206 68.7863 92.1307 69.0198 92.1767 69.1461Z" fill="white"/>
<path d="M127.199 54.5456C127.332 55.1444 127.452 55.6783 127.57 56.2129C128.006 55.3995 127.867 54.8912 127.199 54.5456Z" fill="#F4731C"/>
<path d="M126.82 52.9883C127.376 52.478 127.379 52.0109 126.82 51.533V52.9883Z" fill="#F4731C"/>
<path d="M113.725 76.1642C112.669 74.9498 112.337 73.5465 112.493 72.021C112.601 70.9673 112.616 70.9687 111.6 70.5704C110.292 70.0574 110.192 69.7854 110.895 68.5893C111.01 68.3929 111.143 68.2046 111.28 68.0203C112.123 66.8802 113.205 66.0243 114.8 65.5768C114.517 65.4141 114.397 65.3324 114.265 65.2724C111.902 64.1843 108.947 64.7263 106.859 66.6284C103.535 69.6551 102.631 75.722 104.925 79.5385C105.366 80.2729 106.07 80.5402 106.898 80.5078C109.584 80.4011 112.21 80.684 114.782 81.4305C115.681 81.6911 116.445 81.4008 116.993 80.7339C118.328 79.1119 118.489 77.1557 118.708 75.2171C118.482 75.4291 118.312 75.6613 118.156 75.9002C116.982 77.6924 115.147 77.799 113.725 76.1642Z" fill="white"/>
<path d="M113.684 74.0961C113.921 74.6671 114.039 75.1552 114.317 75.5406C114.474 75.7573 114.927 75.9415 115.189 75.8896C115.443 75.8389 115.779 75.4778 115.802 75.2314C115.843 74.765 115.753 74.2621 115.594 73.8126C115.429 73.3441 115.008 72.9398 114.458 73.1659C114.127 73.3023 113.948 73.7613 113.684 74.0961Z" fill="white"/>
<path d="M117.501 69.6867C116.933 69.6907 116.659 69.9898 116.656 70.4933C116.653 71.0576 117.645 71.9452 118.266 71.8858C118.474 71.8656 118.652 71.5794 118.737 71.5072C118.727 70.4231 118.163 69.682 117.501 69.6867Z" fill="white"/>
<path d="M117.458 73.2487C117.274 73.4093 116.97 73.5524 116.94 73.736C116.91 73.9115 117.164 74.1289 117.392 74.4785C117.666 74.1565 117.96 73.9615 117.943 73.7947C117.922 73.5997 117.631 73.4296 117.458 73.2487Z" fill="white"/>
</g>
</g>
<defs>
<clipPath id="clip0_1998_2700">
<rect width="332" height="135" fill="white" transform="translate(34 3)"/>
</clipPath>
</defs>
</svg>
