<svg width="301" height="122" viewBox="0 0 301 122" fill="none" xmlns="http://www.w3.org/2000/svg">
<g clip-path="url(#clip0_3022_4634)">
<mask id="mask0_3022_4634" style="mask-type:luminance" maskUnits="userSpaceOnUse" x="0" y="0" width="301" height="122">
<path d="M0.84375 0.434799H300.844V121.98H0.84375V0.434799Z" fill="white"/>
</mask>
<g mask="url(#mask0_3022_4634)">
<path d="M165.198 68.9102C163.11 65.4455 160.853 62.0246 158.423 58.6462C155.993 55.2685 153.408 52.0803 150.667 49.0812V68.9102H143.473V38.6422H149.407C150.434 39.6031 151.57 40.7827 152.817 42.1804C154.062 43.5782 155.331 45.0702 156.624 46.657C157.917 48.2444 159.201 49.8889 160.479 51.5923C161.756 53.2958 162.955 54.9336 164.076 56.5058V38.6422H171.318V68.9102H165.198Z" fill="white"/>
<path d="M178.793 68.9102V38.6422H200.658V44.364H186.082V50.3039H199.023V55.8944H186.082V63.1884H201.733V68.9102H178.793Z" fill="white"/>
<path d="M215.703 38.6422C216.265 39.6031 216.913 40.79 217.647 42.2017C218.38 43.6147 219.146 45.1431 219.942 46.7882C220.739 48.4334 221.527 50.1149 222.308 51.8324C223.088 53.551 223.822 55.167 224.509 56.6802C225.196 55.167 225.93 53.551 226.711 51.8324C227.492 50.1149 228.28 48.4334 229.077 46.7882C229.873 45.1431 230.638 43.6147 231.372 42.2017C232.106 40.79 232.754 39.6031 233.317 38.6422H239.951C240.261 40.6514 240.55 42.9006 240.815 45.3905C241.079 47.8797 241.313 50.4717 241.516 53.1645C241.718 55.858 241.905 58.5587 242.076 61.2668C242.247 63.9742 242.396 66.523 242.52 68.9102H235.418C235.325 65.9694 235.201 62.7666 235.045 59.3014C234.889 55.8361 234.655 52.3423 234.344 48.8187C233.781 50.042 233.156 51.3954 232.47 52.8807C231.782 54.366 231.102 55.8507 230.431 57.336C229.759 58.8206 229.111 60.2403 228.486 61.5943C227.861 62.9483 227.329 64.1055 226.893 65.0663H221.8C221.362 64.1055 220.831 62.9483 220.206 61.5943C219.582 60.2403 218.932 58.8206 218.261 57.336C217.589 55.8507 216.909 54.366 216.222 52.8807C215.535 51.3954 214.91 50.042 214.348 48.8187C214.036 52.3423 213.803 55.8361 213.647 59.3014C213.491 62.7666 213.367 65.9694 213.273 68.9102H206.172C206.296 66.523 206.444 63.9742 206.616 61.2668C206.787 58.5587 206.973 55.858 207.176 53.1645C207.378 50.4717 207.612 47.8797 207.877 45.3905C208.142 42.9006 208.43 40.6514 208.742 38.6422H215.703Z" fill="white"/>
<path d="M255.132 53.7546C255.132 55.2393 255.326 56.5793 255.716 57.7729C256.105 58.9671 256.666 59.9935 257.398 60.8516C258.13 61.711 259.025 62.374 260.084 62.8395C261.143 63.305 262.357 63.5378 263.729 63.5378C265.067 63.5378 266.275 63.305 267.349 62.8395C268.424 62.374 269.327 61.711 270.059 60.8516C270.791 59.9935 271.351 58.9671 271.741 57.7729C272.13 56.5793 272.325 55.2393 272.325 53.7546C272.325 52.2693 272.13 50.9232 271.741 49.7144C271.351 48.5062 270.791 47.4725 270.059 46.6138C269.327 45.755 268.424 45.092 267.349 44.6259C266.275 44.1604 265.067 43.927 263.729 43.927C262.357 43.927 261.143 44.1677 260.084 44.6478C259.025 45.1285 258.13 45.7988 257.398 46.6569C256.666 47.5162 256.105 48.55 255.716 49.7582C255.326 50.9669 255.132 52.2985 255.132 53.7546ZM279.847 53.7546C279.847 56.3465 279.434 58.6243 278.609 60.5897C277.783 62.5551 276.654 64.2008 275.222 65.5251C273.788 66.8505 272.083 67.8478 270.105 68.5169C268.128 69.1866 266.001 69.5215 263.729 69.5215C261.517 69.5215 259.43 69.1866 257.468 68.5169C255.505 67.8478 253.792 66.8505 252.329 65.5251C250.864 64.2008 249.712 62.5551 248.871 60.5897C248.031 58.6243 247.609 56.3465 247.609 53.7546C247.609 51.1632 248.046 48.8842 248.918 46.9195C249.79 44.9535 250.966 43.3016 252.445 41.9622C253.924 40.6228 255.638 39.6182 257.584 38.9479C259.531 38.2788 261.579 37.9439 263.729 37.9439C265.94 37.9439 268.027 38.2788 269.989 38.9479C271.952 39.6182 273.663 40.6228 275.128 41.9622C276.592 43.3016 277.745 44.9535 278.585 46.9195C279.426 48.8842 279.847 51.1632 279.847 53.7546Z" fill="white"/>
<path d="M146.165 85.9821C147.443 85.9821 148.082 85.5731 148.082 84.7557C148.082 84.5041 148.025 84.2895 147.912 84.1127C147.798 83.9358 147.645 83.7827 147.452 83.6526C147.258 83.5232 147.037 83.4108 146.789 83.3166C146.541 83.2224 146.278 83.1282 146.001 83.034C145.681 82.9313 145.378 82.8152 145.092 82.6857C144.807 82.5557 144.558 82.4025 144.348 82.2257C144.138 82.0488 143.972 81.8386 143.85 81.5949C143.728 81.3512 143.667 81.0564 143.667 80.7106C143.667 79.9947 143.928 79.4362 144.449 79.0357C144.97 78.6346 145.689 78.4341 146.606 78.4341C147.137 78.4341 147.618 78.4869 148.051 78.5933C148.484 78.6996 148.801 78.8157 149.004 78.9415L148.612 79.8732C148.435 79.7705 148.173 79.6708 147.824 79.5723C147.475 79.4739 147.069 79.4247 146.606 79.4247C146.371 79.4247 146.152 79.4484 145.95 79.4958C145.749 79.5426 145.572 79.6131 145.42 79.7079C145.269 79.8021 145.149 79.9224 145.061 80.0676C144.972 80.2129 144.929 80.3843 144.929 80.5806C144.929 80.8006 144.975 80.9853 145.067 81.1348C145.16 81.2843 145.29 81.4162 145.458 81.5298C145.626 81.6441 145.822 81.748 146.045 81.8422C146.268 81.9364 146.514 82.0312 146.783 82.1254C147.161 82.267 147.508 82.4086 147.824 82.5502C148.139 82.6918 148.413 82.8608 148.643 83.0571C148.875 83.254 149.054 83.4879 149.18 83.759C149.306 84.03 149.37 84.3582 149.37 84.7435C149.37 85.4594 149.089 86.0094 148.53 86.3947C147.971 86.78 147.182 86.9727 146.165 86.9727C145.819 86.9727 145.502 86.9508 145.212 86.9076C144.922 86.8645 144.664 86.8134 144.436 86.7545C144.209 86.6955 144.014 86.6323 143.85 86.5661C143.686 86.4992 143.557 86.4415 143.465 86.3947L143.831 85.4515C144.024 85.5536 144.319 85.6673 144.714 85.7931C145.11 85.9195 145.593 85.9821 146.165 85.9821Z" fill="white"/>
<path d="M153.265 79.5423C152.744 79.5423 152.344 79.5538 152.067 79.5775V82.7851H152.988C153.408 82.7851 153.787 82.7596 154.123 82.7086C154.459 82.6575 154.743 82.5712 154.974 82.4491C155.206 82.3275 155.385 82.1604 155.511 81.9483C155.637 81.7356 155.7 81.4645 155.7 81.1345C155.7 80.8197 155.635 80.5602 155.504 80.356C155.374 80.1512 155.197 79.9884 154.974 79.8662C154.752 79.7447 154.493 79.6602 154.199 79.6128C153.904 79.566 153.594 79.5423 153.265 79.5423ZM153.165 78.5395C154.392 78.5395 155.336 78.7577 155.997 79.1947C156.657 79.6304 156.987 80.2813 156.987 81.1461C156.987 81.6177 156.897 82.0206 156.716 82.3549C156.535 82.6891 156.275 82.9608 155.933 83.1686C155.593 83.3771 155.178 83.5284 154.691 83.6226C154.203 83.7168 153.652 83.7642 153.038 83.7642H152.067V86.7949H150.844V78.7401C151.188 78.6617 151.573 78.6088 151.998 78.5809C152.422 78.5535 152.811 78.5395 153.165 78.5395Z" fill="white"/>
<path d="M159.447 82.7034C159.447 83.1987 159.514 83.649 159.649 84.0537C159.783 84.4585 159.975 84.8025 160.224 85.0857C160.471 85.3689 160.773 85.587 161.132 85.7402C161.489 85.8933 161.89 85.9699 162.336 85.9699C162.782 85.9699 163.182 85.8933 163.535 85.7402C163.888 85.587 164.189 85.3689 164.437 85.0857C164.685 84.8025 164.876 84.4585 165.011 84.0537C165.145 83.649 165.212 83.1987 165.212 82.7034C165.212 82.2081 165.145 81.7577 165.011 81.353C164.876 80.9482 164.685 80.6043 164.437 80.3211C164.189 80.0379 163.888 79.8203 163.535 79.6665C163.182 79.5134 162.782 79.4368 162.336 79.4368C161.89 79.4368 161.489 79.5134 161.132 79.6665C160.773 79.8203 160.471 80.0379 160.224 80.3211C159.975 80.6043 159.783 80.9482 159.649 81.353C159.514 81.7577 159.447 82.2081 159.447 82.7034ZM158.16 82.7034C158.16 82.0039 158.272 81.3864 158.495 80.8516C158.718 80.3174 159.02 79.8714 159.403 79.5134C159.785 79.1554 160.232 78.8862 160.74 78.7057C161.249 78.5246 161.79 78.4341 162.362 78.4341C162.925 78.4341 163.457 78.5246 163.958 78.7057C164.458 78.8862 164.897 79.1554 165.275 79.5134C165.654 79.8714 165.955 80.3174 166.178 80.8516C166.401 81.3864 166.512 82.0039 166.512 82.7034C166.512 83.4035 166.401 84.0203 166.178 84.5551C165.955 85.0899 165.654 85.536 165.275 85.8933C164.897 86.2513 164.458 86.5205 163.958 86.7016C163.457 86.8821 162.925 86.9727 162.362 86.9727C161.79 86.9727 161.249 86.8821 160.74 86.7016C160.232 86.5205 159.785 86.2513 159.403 85.8933C159.02 85.536 158.718 85.0899 158.495 84.5551C158.272 84.0203 158.16 83.4035 158.16 82.7034Z" fill="white"/>
<path d="M170.75 79.5423C170.228 79.5423 169.829 79.5538 169.551 79.5775V82.6557H170.421C170.842 82.6557 171.221 82.6362 171.557 82.5967C171.893 82.5572 172.177 82.4825 172.409 82.3725C172.639 82.2625 172.819 82.1075 172.944 81.907C173.071 81.7064 173.134 81.4408 173.134 81.1108C173.134 80.8039 173.071 80.5487 172.944 80.3439C172.819 80.1397 172.649 79.9786 172.434 79.8607C172.22 79.7428 171.967 79.6602 171.677 79.6128C171.387 79.566 171.078 79.5423 170.75 79.5423ZM172.604 83.3752C172.739 83.5326 172.909 83.7387 173.115 83.9939C173.321 84.2498 173.533 84.533 173.752 84.8435C173.971 85.1541 174.187 85.4786 174.402 85.8165C174.616 86.1544 174.799 86.4807 174.95 86.7949H173.613C173.445 86.4965 173.262 86.1939 173.065 85.887C172.867 85.5807 172.667 85.2878 172.465 85.0082C172.264 84.7293 172.063 84.4679 171.866 84.2242C171.668 83.9805 171.49 83.7684 171.33 83.5873C171.221 83.5952 171.11 83.5995 170.995 83.5995H170.649H169.551V86.7949H168.328V78.7401C168.672 78.6617 169.058 78.6088 169.482 78.5809C169.907 78.5535 170.295 78.5395 170.649 78.5395C171.876 78.5395 172.812 78.7559 173.456 79.1886C174.099 79.6207 174.421 80.2655 174.421 81.1224C174.421 81.6651 174.267 82.1294 173.96 82.5141C173.653 82.8994 173.201 83.1862 172.604 83.3752Z" fill="white"/>
<path d="M182.103 78.6222V79.6128H179.353V86.7949H178.129V79.6128H175.379V78.6222H182.103Z" fill="white"/>
<path d="M183.982 82.7034C183.982 83.1987 184.049 83.649 184.184 84.0537C184.319 84.4585 184.51 84.8025 184.759 85.0857C185.006 85.3689 185.309 85.587 185.667 85.7402C186.024 85.8933 186.425 85.9699 186.871 85.9699C187.317 85.9699 187.717 85.8933 188.07 85.7402C188.423 85.587 188.724 85.3689 188.972 85.0857C189.22 84.8025 189.411 84.4585 189.546 84.0537C189.68 83.649 189.747 83.1987 189.747 82.7034C189.747 82.2081 189.68 81.7577 189.546 81.353C189.411 80.9482 189.22 80.6043 188.972 80.3211C188.724 80.0379 188.423 79.8203 188.07 79.6665C187.717 79.5134 187.317 79.4368 186.871 79.4368C186.425 79.4368 186.024 79.5134 185.667 79.6665C185.309 79.8203 185.006 80.0379 184.759 80.3211C184.51 80.6043 184.319 80.9482 184.184 81.353C184.049 81.7577 183.982 82.2081 183.982 82.7034ZM182.695 82.7034C182.695 82.0039 182.807 81.3864 183.03 80.8516C183.253 80.3174 183.555 79.8714 183.938 79.5134C184.321 79.1554 184.767 78.8862 185.275 78.7057C185.784 78.5246 186.325 78.4341 186.897 78.4341C187.46 78.4341 187.992 78.5246 188.493 78.7057C188.993 78.8862 189.432 79.1554 189.81 79.5134C190.189 79.8714 190.49 80.3174 190.713 80.8516C190.936 81.3864 191.048 82.0039 191.048 82.7034C191.048 83.4035 190.936 84.0203 190.713 84.5551C190.49 85.0899 190.189 85.536 189.81 85.8933C189.432 86.2513 188.993 86.5205 188.493 86.7016C187.992 86.8821 187.46 86.9727 186.897 86.9727C186.325 86.9727 185.784 86.8821 185.275 86.7016C184.767 86.5205 184.321 86.2513 183.938 85.8933C183.555 85.536 183.253 85.0899 183.03 84.5551C182.807 84.0203 182.695 83.4035 182.695 82.7034Z" fill="white"/>
<path d="M197.443 81.2518C197.09 82.3056 196.732 83.2804 196.37 84.1762C196.009 85.0726 195.648 85.9453 195.285 86.7949H194.062C193.616 85.5916 193.223 84.3221 192.883 82.9857C192.542 81.6487 192.224 80.1944 191.93 78.6216H193.217C193.335 79.2354 193.457 79.848 193.583 80.4612C193.708 81.075 193.839 81.6706 193.974 82.2485C194.108 82.8258 194.243 83.3789 194.377 83.9052C194.512 84.4321 194.65 84.9195 194.794 85.368C195.13 84.5421 195.488 83.6359 195.866 82.649C196.244 81.6627 196.597 80.6429 196.926 79.5891H197.986C198.313 80.6429 198.671 81.6627 199.058 82.649C199.445 83.6359 199.806 84.5421 200.143 85.368C200.277 84.9274 200.411 84.4442 200.547 83.9173C200.68 83.3904 200.813 82.838 200.944 82.2601C201.074 81.6821 201.202 81.0847 201.329 80.4673C201.455 79.8504 201.576 79.2354 201.695 78.6216H202.943C202.64 80.1944 202.319 81.6487 201.978 82.9857C201.637 84.3221 201.249 85.5916 200.812 86.7949H199.588C199.218 85.9453 198.856 85.0726 198.503 84.1762C198.15 83.2804 197.796 82.3056 197.443 81.2518Z" fill="white"/>
<path d="M208.849 83.7642C208.579 83.0799 208.313 82.4181 208.047 81.7769C207.783 81.1364 207.507 80.5207 207.222 79.9312C206.927 80.5207 206.647 81.1364 206.383 81.7769C206.117 82.4181 205.855 83.0799 205.594 83.7642H208.849ZM209.997 86.7949C209.853 86.4412 209.719 86.093 209.593 85.7515C209.467 85.4093 209.337 85.0617 209.202 84.7074H205.241L204.446 86.7949H203.172C203.509 85.9301 203.824 85.1304 204.118 84.395C204.412 83.6603 204.7 82.9626 204.982 82.302C205.264 81.6414 205.544 81.0106 205.822 80.4089C206.099 79.8073 206.388 79.2117 206.691 78.6222H207.815C208.117 79.2117 208.408 79.8073 208.685 80.4089C208.962 81.0106 209.242 81.6414 209.524 82.302C209.805 82.9626 210.093 83.6603 210.388 84.395C210.682 85.1304 210.998 85.9301 211.334 86.7949H209.997Z" fill="white"/>
<path d="M217.855 79.5423C217.334 79.5423 216.934 79.5538 216.656 79.5775V82.7851H217.578C217.998 82.7851 218.377 82.7596 218.713 82.7086C219.049 82.6575 219.333 82.5712 219.564 82.4491C219.796 82.3275 219.974 82.1604 220.101 81.9483C220.227 81.7356 220.29 81.4645 220.29 81.1345C220.29 80.8197 220.225 80.5602 220.094 80.356C219.964 80.1512 219.787 79.9884 219.564 79.8662C219.342 79.7447 219.083 79.6602 218.789 79.6128C218.494 79.566 218.183 79.5423 217.855 79.5423ZM217.754 78.5395C218.982 78.5395 219.926 78.7577 220.587 79.1947C221.247 79.6304 221.577 80.2813 221.577 81.1461C221.577 81.6177 221.486 82.0206 221.306 82.3549C221.124 82.6891 220.864 82.9608 220.523 83.1686C220.182 83.3771 219.768 83.5284 219.281 83.6226C218.793 83.7168 218.242 83.7642 217.628 83.7642H216.656V86.7949H215.434V78.7401C215.777 78.6617 216.163 78.6088 216.587 78.5809C217.012 78.5535 217.401 78.5395 217.754 78.5395Z" fill="white"/>
<path d="M225.527 79.5423C225.006 79.5423 224.606 79.5538 224.328 79.5775V82.6557H225.199C225.619 82.6557 225.998 82.6362 226.334 82.5967C226.671 82.5572 226.955 82.4825 227.186 82.3725C227.417 82.2625 227.596 82.1075 227.722 81.907C227.848 81.7064 227.912 81.4408 227.912 81.1108C227.912 80.8039 227.848 80.5487 227.722 80.3439C227.596 80.1397 227.426 79.9786 227.211 79.8607C226.997 79.7428 226.745 79.6602 226.454 79.6128C226.164 79.566 225.855 79.5423 225.527 79.5423ZM227.382 83.3752C227.516 83.5326 227.686 83.7387 227.893 83.9939C228.098 84.2498 228.311 84.533 228.53 84.8435C228.748 85.1541 228.965 85.4786 229.179 85.8165C229.394 86.1544 229.576 86.4807 229.728 86.7949H228.391C228.222 86.4965 228.04 86.1939 227.842 85.887C227.644 85.5807 227.445 85.2878 227.243 85.0082C227.041 84.7293 226.841 84.4679 226.643 84.2242C226.446 83.9805 226.267 83.7684 226.108 83.5873C225.998 83.5952 225.887 83.5995 225.773 83.5995H225.426H224.328V86.7949H223.105V78.7401C223.449 78.6617 223.835 78.6088 224.259 78.5809C224.684 78.5535 225.073 78.5395 225.426 78.5395C226.654 78.5395 227.59 78.7559 228.233 79.1886C228.876 79.6207 229.198 80.2655 229.198 81.1224C229.198 81.6651 229.045 82.1294 228.738 82.5141C228.43 82.8994 227.978 83.1862 227.382 83.3752Z" fill="white"/>
<path d="M236.766 79.5301C236.572 79.7349 236.348 79.9805 236.091 80.2673C235.835 80.5542 235.564 80.8726 235.278 81.2227C234.991 81.5727 234.698 81.9422 234.395 82.3312C234.092 82.7201 233.795 83.1139 233.505 83.5108C233.215 83.9076 232.939 84.3026 232.678 84.6958C232.418 85.089 232.182 85.4622 231.973 85.8159H236.892V86.7949H230.547V86.0286C230.723 85.7144 230.932 85.368 231.172 84.9906C231.411 84.6132 231.668 84.2279 231.941 83.8347C232.214 83.4421 232.498 83.0446 232.793 82.6435C233.087 82.2424 233.379 81.8577 233.669 81.4882C233.959 81.1187 234.241 80.7723 234.514 80.4502C234.787 80.1275 235.038 79.8449 235.265 79.6006H230.774V78.6222H236.766V79.5301Z" fill="white"/>
<path d="M240.677 86.7949V83.5162C240.097 82.6751 239.55 81.8456 239.037 81.0282C238.523 80.2102 238.04 79.4086 237.586 78.6222H239.024C239.344 79.267 239.701 79.9215 240.097 80.5858C240.492 81.25 240.899 81.8887 241.32 82.5019C241.732 81.8887 242.136 81.25 242.531 80.5858C242.926 79.9215 243.288 79.267 243.616 78.6222H244.979C244.524 79.4086 244.041 80.2084 243.528 81.0221C243.015 81.8359 242.472 82.6593 241.901 83.4925V86.7949H240.677Z" fill="white"/>
<path d="M250.959 82.7743H252.182V86.5951C252.082 86.6273 251.937 86.6625 251.748 86.7014C251.558 86.7409 251.339 86.7804 251.092 86.8193C250.843 86.8588 250.572 86.8923 250.278 86.9196C249.983 86.9476 249.685 86.9609 249.382 86.9609C248.768 86.9609 248.209 86.8667 247.705 86.6777C247.2 86.4893 246.767 86.214 246.405 85.8524C246.044 85.4908 245.764 85.0466 245.566 84.5197C245.368 83.9934 245.27 83.3875 245.27 82.7038C245.27 82.0195 245.381 81.4124 245.604 80.8812C245.827 80.3507 246.128 79.9046 246.506 79.543C246.884 79.1814 247.328 78.9061 247.837 78.7171C248.346 78.5287 248.89 78.4345 249.47 78.4345C249.866 78.4345 250.217 78.4582 250.523 78.505C250.831 78.5524 251.094 78.6071 251.312 78.6703C251.531 78.7335 251.709 78.7961 251.848 78.8587C251.987 78.9219 252.082 78.9693 252.132 79.0003L251.741 79.9557C251.497 79.8068 251.174 79.6828 250.77 79.5843C250.366 79.4859 249.954 79.4367 249.533 79.4367C249.087 79.4367 248.682 79.5114 248.316 79.6609C247.95 79.8104 247.639 80.0268 247.383 80.3094C247.126 80.5926 246.927 80.9365 246.784 81.3413C246.641 81.7466 246.569 82.2006 246.569 82.7038C246.569 83.1912 246.63 83.6354 246.752 84.0359C246.873 84.437 247.059 84.781 247.307 85.0679C247.555 85.3553 247.862 85.5771 248.227 85.7345C248.593 85.8919 249.025 85.9703 249.521 85.9703C249.875 85.9703 250.174 85.9527 250.423 85.9175C250.671 85.8822 250.85 85.8488 250.959 85.8172V82.7743Z" fill="white"/>
<path d="M255.033 82.7034C255.033 83.1987 255.1 83.649 255.235 84.0537C255.369 84.4585 255.561 84.8025 255.809 85.0857C256.057 85.3689 256.359 85.587 256.718 85.7402C257.075 85.8933 257.476 85.9699 257.922 85.9699C258.368 85.9699 258.768 85.8933 259.121 85.7402C259.474 85.587 259.775 85.3689 260.023 85.0857C260.271 84.8025 260.462 84.4585 260.597 84.0537C260.731 83.649 260.798 83.1987 260.798 82.7034C260.798 82.2081 260.731 81.7577 260.597 81.353C260.462 80.9482 260.271 80.6043 260.023 80.3211C259.775 80.0379 259.474 79.8203 259.121 79.6665C258.768 79.5134 258.368 79.4368 257.922 79.4368C257.476 79.4368 257.075 79.5134 256.718 79.6665C256.359 79.8203 256.057 80.0379 255.809 80.3211C255.561 80.6043 255.369 80.9482 255.235 81.353C255.1 81.7577 255.033 82.2081 255.033 82.7034ZM253.746 82.7034C253.746 82.0039 253.858 81.3864 254.081 80.8516C254.304 80.3174 254.606 79.8714 254.989 79.5134C255.371 79.1554 255.818 78.8862 256.326 78.7057C256.835 78.5246 257.375 78.4341 257.948 78.4341C258.511 78.4341 259.043 78.5246 259.544 78.7057C260.044 78.8862 260.483 79.1554 260.861 79.5134C261.24 79.8714 261.541 80.3174 261.764 80.8516C261.987 81.3864 262.098 82.0039 262.098 82.7034C262.098 83.4035 261.987 84.0203 261.764 84.5551C261.541 85.0899 261.24 85.536 260.861 85.8933C260.483 86.2513 260.044 86.5205 259.544 86.7016C259.043 86.8821 258.511 86.9727 257.948 86.9727C257.375 86.9727 256.835 86.8821 256.326 86.7016C255.818 86.5205 255.371 86.2513 254.989 85.8933C254.606 85.536 254.304 85.0899 254.081 84.5551C253.858 84.0203 253.746 83.4035 253.746 82.7034Z" fill="white"/>
<path d="M266.336 85.8644C267.496 85.8644 268.362 85.5873 268.935 85.0331C269.507 84.4788 269.792 83.7021 269.792 82.7036C269.792 81.7051 269.507 80.9291 268.935 80.3748C268.362 79.8206 267.496 79.5435 266.336 79.5435C265.99 79.5435 265.724 79.5471 265.535 79.555C265.346 79.5629 265.213 79.5708 265.137 79.5787V85.8292C265.213 85.8371 265.346 85.845 265.535 85.8529C265.724 85.8608 265.99 85.8644 266.336 85.8644ZM271.092 82.7036C271.092 83.411 270.974 84.0267 270.739 84.5493C270.503 85.0726 270.17 85.5047 269.742 85.8468C269.313 86.189 268.8 86.4442 268.203 86.6132C267.606 86.7827 266.949 86.8672 266.235 86.8672C265.881 86.8672 265.492 86.8532 265.068 86.8259C264.643 86.7979 264.258 86.745 263.914 86.666V78.7413C264.258 78.6629 264.643 78.6094 265.068 78.582C265.492 78.5547 265.881 78.5407 266.235 78.5407C266.949 78.5407 267.606 78.6252 268.203 78.7941C268.8 78.9631 269.313 79.2189 269.742 79.5605C270.17 79.9026 270.503 80.3353 270.739 80.858C270.974 81.3812 271.092 81.9962 271.092 82.7036Z" fill="white"/>
<path d="M277.364 83.7642C277.094 83.0799 276.828 82.4181 276.562 81.7769C276.298 81.1364 276.022 80.5207 275.737 79.9312C275.442 80.5207 275.162 81.1364 274.898 81.7769C274.632 82.4181 274.37 83.0799 274.109 83.7642H277.364ZM278.512 86.7949C278.368 86.4412 278.234 86.093 278.108 85.7515C277.982 85.4093 277.852 85.0617 277.717 84.7074H273.756L272.961 86.7949H271.688C272.024 85.9301 272.339 85.1304 272.633 84.395C272.927 83.6603 273.215 82.9626 273.497 82.302C273.779 81.6414 274.059 81.0106 274.337 80.4089C274.614 79.8073 274.903 79.2117 275.206 78.6222H276.33C276.632 79.2117 276.923 79.8073 277.2 80.4089C277.477 81.0106 277.757 81.6414 278.039 82.302C278.32 82.9626 278.608 83.6603 278.903 84.395C279.197 85.1304 279.513 85.9301 279.849 86.7949H278.512Z" fill="white"/>
<path d="M82.3052 55.6907C82.3305 55.7599 82.3565 55.8298 82.4398 56.0547C82.285 55.8754 82.2441 55.828 82.2031 55.7806C82.2369 55.7502 82.2714 55.7204 82.3052 55.6907Z" fill="#FEFEFE"/>
<path d="M134.105 26.2504C132.587 28.2341 130.615 29.7765 128.524 31.1785C126.228 32.7173 123.872 34.177 121.524 35.6465C120.132 36.518 118.655 37.2777 117.307 38.202C115.521 39.4248 114.422 41.2097 113.306 42.9405C112.332 44.4513 111.499 46.0405 110.591 47.5884C110.396 47.922 110.145 48.2277 109.842 48.6568C109.283 47.637 108.768 46.7345 108.287 45.8169C107.342 44.0107 106.464 42.1595 106.217 40.1534C106.045 38.7642 106.052 37.3281 106.215 35.937C106.404 34.3357 106.827 32.7464 107.774 31.3541C108.595 30.1466 109.324 28.8357 110.373 27.8238C111.918 26.3349 113.797 25.2331 115.992 24.6406C117.963 24.1082 119.939 23.5491 121.832 22.818C123.958 21.9963 126.041 21.0513 128.054 20.0097C130.787 18.5961 132.544 16.401 133.363 13.5684C133.382 13.5027 133.406 13.4389 133.427 13.3739C133.491 13.3496 133.555 13.3253 133.618 13.301C134.161 14.3183 134.782 15.3065 135.229 16.359C136.042 18.2716 136.319 20.2765 135.959 22.3184C135.704 23.766 135.017 25.0581 134.105 26.2504ZM111.121 50.7328C113.933 54.274 114.729 58.2941 114.244 62.5859C114.073 64.0985 113.76 65.599 113.454 67.0946C113.291 67.8902 112.868 68.5818 112.068 68.9902C111.893 69.0789 111.67 69.0837 111.468 69.1263C111.7 68.7063 111.951 68.2943 112.156 67.8634C112.382 67.3906 112.434 66.9135 111.921 66.3751C111.711 66.7659 111.539 67.0928 111.36 67.4173C111.11 67.8725 110.945 68.4043 110.585 68.7635C109.775 69.5699 109.511 70.5666 109.201 71.5712C108.944 72.3995 108.623 73.2169 107.85 73.7754C107.657 73.9146 107.43 74.0136 107.23 74.1255C106.874 73.728 107.46 72.8912 106.578 72.8286C106.535 73.3488 106.55 73.7748 106.455 74.1789C106.357 74.6007 106.578 74.7532 106.907 74.6317C107.838 74.2865 108.91 74.2008 109.607 73.3871C109.8 73.1616 110.104 73.0194 110.449 72.7739C110.18 74.3266 105.235 78.8141 103.83 78.8736C103.849 78.5941 103.867 78.317 103.885 78.0404C103.822 78.0192 103.759 77.9985 103.697 77.9772C103.57 78.2203 103.4 78.4513 103.325 78.7071C102.988 79.8612 102.028 80.3316 100.92 80.582C100.629 80.6482 100.164 80.5218 99.9526 80.3231C99.3747 79.7785 98.8345 79.183 98.384 78.543C97.9692 77.9529 97.8847 77.2741 98.2572 76.5965C98.3281 76.4676 98.3092 76.2956 98.356 75.9772C97.7573 76.309 97.3191 76.5947 96.8433 76.8061C96.1009 77.1367 95.3526 77.4771 94.5699 77.7013C93.8854 77.8976 93.5909 77.5464 93.7248 76.8815C93.7632 76.6931 93.6813 76.484 93.6546 76.2841C93.4531 76.3905 93.1664 76.4494 93.0631 76.6105C92.0938 78.1261 90.856 79.4285 89.5266 80.6707C89.355 80.8305 89.3524 81.2474 89.4194 81.513C89.6865 82.5796 89.695 83.634 89.3537 84.6787C89.1236 85.3836 88.6497 85.4802 88.0873 84.9734C87.2208 84.1931 87.1974 83.1089 88.023 82.2818C88.8967 81.4054 89.0183 80.2945 89.0443 79.1848C89.0995 76.8542 88.517 74.6499 87.3645 72.5861C87.0823 72.0804 87.1005 71.6192 87.2988 71.1032C87.917 69.4915 88.5879 67.8926 89.0898 66.2487C89.7945 63.9393 89.6852 61.5971 89.2263 59.2404C88.9318 57.7289 88.8713 56.1792 88.6523 54.6538C88.4871 53.5058 88.2174 52.3712 88.0314 51.2256C87.9495 50.7188 87.9112 50.1968 87.9391 49.6863C87.9736 49.0627 88.3331 48.8737 88.8629 49.2293C90.0298 50.0132 91.3625 50.6921 91.5204 52.3554C91.705 52.1415 91.8182 52.0102 92.0158 51.7811C92.8186 52.5985 93.6085 53.3563 94.3431 54.1585C96.4552 56.4649 98.6161 58.7147 101.166 60.6266C102.857 61.8931 104.733 62.4631 106.858 62.4704C108.192 62.4753 109.558 61.5023 110.177 60.1829C111.168 58.0711 111.282 55.8833 110.952 53.6426C110.789 52.5396 110.622 51.4365 110.591 50.2399C110.769 50.4034 110.974 50.548 111.121 50.7328ZM121.139 67.3754C122.176 67.4173 123.25 67.5304 123.987 68.4213C124.84 69.452 124.54 70.4049 123.203 70.7598C122.115 71.0485 121.061 70.8097 120.006 70.5672C118.88 70.3083 117.763 69.982 116.62 69.8203C115.078 69.6021 113.558 69.8221 112.09 70.3338C111.73 70.459 111.346 70.5216 110.973 70.6134C110.938 70.5484 110.903 70.4827 110.869 70.4177C111.137 70.2567 111.397 70.078 111.677 69.937C114.635 68.4499 117.69 67.2362 121.139 67.3754ZM122.231 73.3305C122.092 74.0051 121.495 74.4354 120.697 74.4536C119.62 74.4779 118.795 73.9498 117.975 73.3968C117.37 72.989 116.771 72.5709 116.138 72.2026C114.818 71.4338 113.361 71.2235 111.83 71.3585C111.635 71.3761 111.438 71.367 111.241 71.3639C111.213 71.3633 111.187 71.3287 111.108 71.2734C112.198 70.6669 113.364 70.4165 114.579 70.3229C116.382 70.1837 118.083 70.6389 119.779 71.1172C120.298 71.2637 120.842 71.3433 121.342 71.5292C122.033 71.7863 122.388 72.5709 122.231 73.3305ZM118.988 76.6044C118.439 77.3713 117.635 77.8599 116.704 78.0392C116.378 78.1024 115.822 77.7986 115.597 77.5087C114.956 76.6791 114.512 75.7122 113.839 74.91C113.192 74.1388 112.352 73.5116 111.607 72.8103C111.395 72.6104 111.222 72.3728 111.031 72.1528C111.326 72.0391 111.615 71.9079 111.919 71.8185C112.082 71.7699 112.27 71.793 112.556 71.7784C113.597 71.9224 114.719 72.0956 115.711 72.7489C116.631 73.3542 117.634 73.8477 118.566 74.4396C119.522 75.0468 119.632 75.7055 118.988 76.6044ZM103.407 87.9823C103.809 89.6797 103.794 91.3491 102.526 92.7882C102.271 93.0781 101.93 93.3011 101.548 93.622C101.692 92.7584 101.839 92.0224 101.928 91.2798C101.976 90.8811 101.956 90.4691 101.904 90.0692C101.881 89.8893 101.707 89.7258 101.601 89.5545C101.539 89.7307 101.473 89.9057 101.418 90.0838C101.402 90.1342 101.416 90.1944 101.423 90.2491C101.699 92.3093 100.768 93.9629 99.3929 95.4567C98.9398 95.949 98.4438 96.4066 97.9673 96.8794C97.9029 96.8393 97.8386 96.7992 97.7742 96.7585C97.99 95.8159 98.2286 94.8763 98.4132 93.9283C98.5185 93.3874 98.5523 92.8325 98.5809 92.2826C98.5874 92.1537 98.4431 92.0182 98.3684 91.8851C98.2741 92.0073 98.1207 92.1191 98.0947 92.2522C97.8444 93.5405 97.6903 94.8496 97.3601 96.1191C97.0084 97.4744 96.3453 98.7014 95.105 99.5814C93.8666 100.46 92.528 100.456 91.1304 100.019C90.871 99.9381 90.5778 99.8986 90.3626 99.757C89.6592 99.2939 89.1333 99.5601 88.6191 100.045C87.748 100.867 86.8743 101.674 85.6294 102.024C84.4319 102.362 83.3489 102.265 82.3718 101.501C81.4864 100.81 81.4078 99.9697 82.1775 99.1626C84.036 97.2137 85.7614 95.1687 87.0589 92.849C87.7187 91.67 88.3474 90.4496 88.7621 89.1825C89.3745 87.3107 89.8042 85.3848 90.2729 83.4741C90.6565 81.9086 91.2071 80.4507 92.8232 79.6205C93.2451 79.4048 93.7385 79.3112 94.1981 79.1605C94.711 78.9921 95.2571 78.8797 95.729 78.6409C96.4994 78.2501 96.9674 78.1626 97.6019 78.7272C98.41 79.4455 99.1504 80.2447 99.8233 81.0773C101.502 83.1533 102.801 85.4219 103.407 87.9823ZM85.3538 48.3474C85.2465 47.8661 85.1386 47.3854 85.0183 46.8464C85.6216 47.1575 85.7477 47.6157 85.3538 48.3474ZM84.6764 45.4449V44.1347C85.1815 44.5649 85.1789 44.9855 84.6764 45.4449ZM81.2407 40.8985C79.2755 40.1042 77.2407 39.4679 75.0987 39.2425C72.5387 38.9732 69.9754 38.6353 67.4063 38.5636C65.1915 38.5022 62.9637 38.7508 60.7449 38.9094C60.1196 38.9538 59.8153 38.6609 59.7354 38.2087C59.5754 37.3044 59.5085 36.3855 59.4227 35.4709C59.1665 32.7471 60.3575 30.5513 62.3474 28.6838C63.5084 27.5941 64.8704 26.86 66.5911 26.7956C67.9426 26.7445 68.9483 27.2477 69.4125 28.3884C69.8558 29.4775 70.0788 30.6455 70.3811 31.7832C70.517 32.2967 70.6093 32.8206 70.7217 33.3396C70.7971 33.3584 70.8719 33.3767 70.9467 33.3955C71.0234 33.263 71.1735 33.1257 71.1651 32.998C71.117 32.2554 71.2639 31.9473 72.0193 31.7097C74.186 31.0284 76.4106 30.874 78.6638 31.221C80.0393 31.4331 81.3109 31.8944 82.338 32.8176C84.1271 34.4238 84.1531 37.3202 82.3907 38.7326C82.1404 38.9337 81.855 39.0966 81.5859 39.2771C81.6132 39.3415 81.6405 39.4059 81.6684 39.4704C82.223 39.3646 82.7755 39.2516 83.332 39.1562C84.9332 38.8802 86.5285 38.763 88.1257 39.2102C90.126 39.77 90.5043 41.1003 89.9043 42.6378C89.6189 43.3689 89.1645 44.0465 88.7459 44.7266C88.5717 45.0104 88.5548 45.1654 88.9246 45.2365C89.6891 45.3842 90.4634 45.4948 91.2188 45.6759C92.3532 45.9481 93.5045 46.1961 94.594 46.5868C95.6478 46.9649 95.8935 47.8199 95.3572 48.7625C95.1453 49.1338 94.8859 49.4815 94.6642 49.8485C94.5544 50.029 94.4802 50.229 94.3483 50.5091C95.0588 50.5091 95.6627 50.4763 96.2602 50.5189C96.8212 50.5584 97.4024 50.6064 97.927 50.779C98.6525 51.0172 98.9398 51.6693 98.6824 52.3572C98.4899 52.8714 98.2169 53.3594 97.9835 53.8608C97.9263 53.9841 97.8841 54.1136 97.8126 54.2983C98.3476 54.2983 98.7994 54.2637 99.2434 54.3044C100.67 54.4344 101.119 54.889 101.186 56.034C101.244 57.0106 101.575 57.9732 101.783 58.9426C101.818 59.1085 101.842 59.2768 101.885 59.5175C99.2362 57.8724 97.1209 55.8535 95.2376 53.6049C93.1333 51.0925 91.0972 48.5255 88.8921 46.0928C86.8125 43.798 84.1979 42.0939 81.2407 40.8985ZM58.8571 39.3166C56.433 41.1756 55.8245 43.0231 56.745 45.8722C56.9082 46.3772 57.0635 46.884 57.2228 47.3903C53.9334 45.6339 51.4085 43.3708 51.1536 39.6247C51.0158 37.5973 52.6924 35.1063 54.7115 34.3417C55.6061 34.0026 56.5773 33.7893 57.5355 33.6635C58.5737 33.5274 59.0021 33.9856 59.0391 34.9495C59.0853 36.1449 59.1997 37.3384 59.2264 38.5338C59.2322 38.797 59.071 39.1525 58.8571 39.3166ZM109.471 49.9585C109.246 49.9178 108.981 49.9348 108.802 49.8273C107.808 49.2317 106.768 48.6799 105.866 47.9767C101.773 44.7904 99.5093 40.6499 99.0445 35.7273C98.7688 32.8139 98.8631 29.8713 98.735 26.9439C98.6369 24.6813 98.5322 22.4145 98.2813 20.164C98.0479 18.0716 97.232 16.1153 96.3479 14.1834C95.7024 12.7728 95.1901 11.3088 94.6226 9.86729C94.583 9.76701 94.5784 9.65459 94.5583 9.55128C98.4873 9.43338 101.824 10.6652 104.735 13.0269C107.709 15.4383 110.154 18.2266 111.895 21.5326C112.3 22.302 112.606 23.1188 112.922 23.9259C113.122 24.4333 112.97 24.9627 112.486 25.1918C109.764 26.482 108.736 29.0168 107.334 31.2612C105.817 33.6896 105.246 36.3302 105.555 39.1452C105.879 42.0994 106.83 44.8475 108.428 47.4115C108.813 48.029 109.129 48.6866 109.439 49.3417C109.522 49.5173 109.464 49.7513 109.471 49.9585ZM133.624 12.5133C133.523 12.3657 133.364 12.2526 133.131 12.0235C133.024 12.5498 132.944 12.9582 132.86 13.3648C132.223 16.4265 130.157 18.4855 127.381 19.9586C123.655 21.9362 119.662 23.3029 115.468 24.1319C114 24.4218 113.507 24.5883 113.004 22.8788C112.988 22.8259 112.956 22.7779 112.934 22.7262C111.304 18.7699 108.489 15.6468 105.151 12.8525C101.953 10.1736 98.1623 9.10642 93.9797 8.96968C93.2698 8.94659 93.1918 9.0894 93.5045 9.65337C94.1558 10.8293 94.791 12.0132 95.4274 13.1964C97.5779 17.1929 98.4074 21.4445 98.2514 25.8919C98.1851 27.7722 98.1376 29.6537 98.1317 31.5352C98.1161 36.1491 99.1517 40.4938 101.909 44.4069C103.691 46.9363 105.822 49.087 108.88 50.2654C109.511 50.5091 109.878 50.8689 110.055 51.4633C110.639 53.4256 110.801 55.4202 110.529 57.4354C110.35 58.7669 109.747 59.9617 108.771 60.9329C108.368 61.3334 107.749 61.7096 107.187 61.7722C105.879 61.9186 103.067 61.0702 102.473 59.2325C102.089 58.0431 101.799 56.8204 101.571 55.5958C101.423 54.7997 101.008 54.319 100.211 54.1051C99.7608 53.9841 99.2973 53.9082 98.7825 53.8C98.8806 53.3977 98.9541 53.0209 99.0646 52.655C99.3272 51.7872 99.0997 51.0409 98.2891 50.5802C97.8061 50.3061 97.1956 50.1512 96.6268 50.102C95.1472 49.9737 95.118 50.1044 95.7772 48.7291C96.3512 47.5319 96.0183 46.7029 94.7136 46.2246C93.9823 45.9566 93.2249 45.7397 92.4643 45.5513C91.5029 45.313 90.5258 45.1271 89.5078 44.9089C89.7821 44.2416 90.0506 43.6315 90.2859 43.0104C91.1336 40.7721 90.1331 39.1027 87.6277 38.6912C86.7436 38.546 85.8231 38.5873 84.9188 38.5588C84.4027 38.5417 83.8859 38.5557 83.4016 38.5557C83.6479 37.7626 84.0295 37.0005 84.1004 36.2135C84.2818 34.2074 83.2104 32.7598 81.4526 31.7212C80.2539 31.0126 78.8978 30.6875 77.506 30.7209C75.6578 30.7646 73.8122 30.9415 71.9686 31.0989C70.9967 31.1822 70.9304 31.1597 70.6762 30.2584C70.5059 29.6549 70.3421 29.0399 70.0736 28.4723C69.3663 26.9742 67.9069 26.1532 66.1991 26.4595C62.9708 27.0374 60.6169 28.6844 59.5215 31.6799C59.3258 32.2141 59.2198 32.7774 59.1048 33.2071C58.2051 33.2071 57.3509 33.1153 56.5279 33.2241C53.7501 33.5912 51.0691 36.2968 50.6453 39.1075C50.5874 39.4898 50.4373 39.6715 50.0511 39.8137C48.2692 40.4713 46.5426 41.2358 45.011 42.3358C43.3494 43.5288 42.033 45.0086 41.6638 46.946C41.3803 48.4331 41.4596 49.9883 41.4564 51.5137C41.4544 52.6003 41.4928 53.9683 41.5617 55.0549C41.5936 55.0525 41.526 55.2239 41.5526 55.2421C41.823 55.425 41.574 55.2859 41.7535 55.546C41.8328 55.6615 42.0207 55.8097 42.1123 55.913C42.6298 56.4983 42.9119 56.2661 42.949 56.2892C42.9334 56.2619 42.6974 55.8498 42.6811 55.8237C42.1533 54.9692 42.0766 54.0048 42.0382 53.0537C41.9732 51.4365 41.7769 49.7944 41.9875 48.2034C42.3483 45.4771 43.8467 43.3106 46.4575 41.9402C47.4098 41.44 48.4402 41.0614 49.4595 40.6846C50.2318 40.3984 50.1915 40.515 50.5328 41.2085C51.0223 42.2003 51.6139 43.1696 52.3069 44.0478C53.7137 45.8296 55.662 47.067 57.5641 48.3377C57.7344 48.452 57.9437 48.5158 58.3305 48.692C58.2376 48.3207 58.2252 48.0667 58.1141 47.8594C57.3691 46.4787 56.8601 45.0444 56.8783 43.4777C56.9023 41.3731 58.248 39.8933 60.4706 39.4582C62.4254 39.0747 64.3412 39.2692 66.2732 39.6241C69.5841 40.2318 72.7682 41.1884 75.8021 42.5637C79.2352 44.1201 82.4453 45.9828 84.9045 48.7814C86.834 50.9777 87.8319 53.5459 88.1628 56.3488C88.3675 58.0802 88.3344 59.8147 88.0269 61.5327C87.7103 63.3055 87.4321 65.0934 86.9556 66.8315C86.5031 68.4851 85.8647 70.0999 85.2088 71.6964C84.9579 72.3071 85.0391 72.7575 85.4162 73.2297C86.4524 74.5266 87.0154 75.9979 87.3495 77.5743C88.0425 80.8445 86.102 84.7382 83.0427 86.4544C81.0678 87.5623 78.9329 88.006 76.7064 88.1719C71.4648 88.5614 66.218 88.4836 60.9991 87.93C56.6696 87.4712 52.5305 86.3487 48.8972 83.9761C44.6385 81.1952 41.8971 77.4127 40.5521 72.7356C40.3435 72.0081 40.1907 71.2661 40.0269 70.5277C39.8162 69.5748 40.0002 68.6425 40.5931 67.8853C41.669 66.5118 41.9238 64.9257 42.1897 63.3267C42.3717 62.2352 42.5271 61.1401 42.7123 60.0492C42.7357 59.9101 43.0367 59.5673 43.1017 59.4342C42.6246 59.0811 42.646 57.2239 41.9719 57.498C41.9465 59.1152 41.9238 61.4622 41.7028 63.0599C41.4726 64.7166 41.288 66.4419 39.9475 67.7723C39.7402 67.9783 39.6453 68.3186 39.5861 68.6121C39.144 70.8036 39.8344 72.8383 40.6093 74.859C41.4258 76.2391 42.1877 77.6509 43.077 78.9885C43.6758 79.8891 44.4429 80.6938 45.1579 81.5245C45.4713 81.8886 45.4381 82.1329 44.9935 82.3468C43.5614 83.0335 42.0961 83.6097 40.439 83.5185C40.1452 83.5021 39.8559 83.4164 39.5744 83.2219C40.8037 82.8913 42.0337 82.5601 43.263 82.2289C43.2461 82.1371 43.2298 82.0448 43.2136 81.953C42.897 81.984 42.5752 81.9925 42.2638 82.0508C41.2451 82.2417 40.2316 82.4568 39.213 82.6488C38.7924 82.7278 38.3536 82.8561 37.9414 82.8123C37.1379 82.726 36.3409 82.5565 35.5569 82.3662C35.3983 82.328 35.3079 82.0448 35.1493 81.8223C35.9496 81.5604 36.6458 81.3325 37.342 81.1052C37.3251 81.0311 37.3082 80.9569 37.2913 80.8828C37.082 80.8828 36.8694 80.8633 36.6627 80.8858C34.5636 81.118 32.7128 80.5692 31.0577 79.3635C30.3855 78.8742 29.9968 78.2525 30.1248 77.4607C30.299 76.3832 29.8804 75.5421 29.1497 74.7544C28.4561 74.0069 28.2825 73.1093 28.5945 72.1704C28.9605 71.0686 29.7809 70.6887 30.864 71.2418C32.027 71.8355 33.1015 72.5836 34.2008 73.2825C35.2111 73.9249 36.2395 74.5247 37.4655 74.7295C37.6255 74.7563 37.8062 74.6761 37.9772 74.6457C37.9174 74.6037 37.8627 74.5381 37.7958 74.5235C37.5975 74.481 37.3589 74.5126 37.199 74.4202C36.168 73.8192 35.1558 73.1889 34.1319 72.577C33.0573 71.9334 32.0224 71.2108 30.8841 70.6875C29.8472 70.2117 28.6914 70.7276 28.1642 71.6994C27.7832 72.4007 27.7241 73.1573 28.0836 73.838C28.5055 74.6366 29.1114 75.3488 29.5866 76.1255C29.74 76.3765 29.8199 76.7241 29.7796 77.0091C29.6613 77.8514 29.7224 78.6524 30.3556 79.2942C30.7775 79.722 31.2527 80.1535 31.7968 80.4154C33.1529 81.0681 34.533 81.626 35.6564 82.6744C36.101 83.0888 36.9942 83.0676 37.6684 83.2851C40.1543 84.0873 42.5537 83.9518 44.8628 82.7467C45.4823 82.4234 46.0219 82.4592 46.6044 82.8834C48.9148 84.5662 51.3545 86.0448 54.1414 86.971C57.4659 88.0752 60.9185 88.5231 64.412 88.6939C69.6764 88.951 74.9356 89.0142 80.1694 88.1865C82.5779 87.8048 85.0183 87.5939 87.4451 87.3113C88.3649 87.2044 88.5697 87.3849 88.3968 88.2491C88.2635 88.9157 88.1231 89.6013 87.8377 90.2181C86.5317 93.041 84.9123 95.6804 82.5968 97.9138C82.0312 98.4601 81.5638 99.1171 81.1575 99.7795C80.824 100.325 80.9891 100.918 81.4617 101.358C83.0863 102.872 85.4552 103.385 87.2897 101.849C87.789 101.431 88.2928 101.016 88.7732 100.58C89.3947 100.015 89.6475 99.9837 90.4556 100.296C90.9796 100.498 91.5256 100.689 92.0808 100.774C93.4837 100.99 94.7052 100.552 95.7089 99.6513C98.0706 97.5321 100.397 95.3795 102.75 93.2519C103.508 92.5664 103.983 91.7338 104.051 90.776C104.114 89.8857 104.09 88.9644 103.917 88.0886C103.544 86.201 102.608 84.5067 101.596 82.8536C101.433 82.5875 101.242 82.3419 101.69 82.1341C104.343 80.9016 106.497 79.0602 108.593 77.155C109.665 76.1814 110.707 75.1768 111.75 74.1765C112.157 73.7869 112.471 73.9018 112.748 74.2932C113.334 75.1227 113.907 75.9608 114.494 76.7897C114.764 77.1726 115.006 77.5877 115.347 77.9092C116.266 78.7758 117.216 78.8001 118.222 78.0459C118.999 77.4625 119.558 76.7435 119.775 75.821C119.91 75.2437 120.183 74.9234 120.905 74.8493C122.242 74.7119 122.65 74.1862 122.634 72.9264C122.632 72.7605 122.629 72.594 122.607 72.4299C122.561 72.0835 122.332 71.6058 122.492 71.4277C122.698 71.1986 123.212 71.2156 123.591 71.1196C125.046 70.7507 125.462 69.6459 124.603 68.4705C123.85 67.4386 122.746 67.0272 121.478 66.9166C119.41 66.7361 117.446 67.2302 115.488 67.7498C115.199 67.8263 114.904 67.8865 114.562 67.9661C114.784 66.6759 115.015 65.4811 115.191 64.2796C115.605 61.4464 115.404 58.6357 114.518 55.9076C113.946 54.1464 113.106 52.4751 111.902 50.9789C110.804 49.6133 110.544 48.1451 111.51 46.5911C111.965 45.8582 112.367 45.0967 112.816 44.3607C114.369 41.8198 116.251 39.5694 118.929 37.9437C121.392 36.4487 123.796 34.8668 126.2 33.2885C128.587 31.7212 131.013 30.1928 133.02 28.1788C135.221 25.9691 136.651 23.447 136.559 20.3433C136.473 17.4493 135.262 14.9066 133.624 12.5133Z" fill="black"/>
<path d="M44.6872 58.7897C45.0968 57.1568 45.7501 55.629 46.9996 54.3789C47.9818 53.3956 49.2183 53.0133 50.6277 53.082C50.9098 53.0959 51.1861 53.1962 51.6665 53.3007C51.3532 53.4976 51.2147 53.6022 51.0606 53.6794C49.5648 54.4329 48.5877 55.5931 48.0286 57.0747C47.8063 57.6636 47.9188 57.7973 48.5858 57.8162C48.6644 57.8186 48.7437 57.8198 48.8224 57.8222C49.9334 57.8587 50.0094 57.9578 49.871 58.9672C49.8066 59.4406 49.8248 59.9232 49.791 60.4008C49.7566 60.884 49.9613 61.0699 50.4833 60.9612C51.0138 60.8512 51.4078 61.0699 51.6782 61.4862C51.9558 61.9141 51.7673 62.2435 51.2257 62.2811C50.9742 62.2982 50.72 62.2836 50.4599 62.2836C50.8285 63.8673 52.5103 64.3225 54.5139 63.3635C54.2343 64.6094 54.0347 65.8321 53.2904 66.8823C52.5031 67.9926 50.5367 68.3955 49.2553 67.8084C48.1288 67.2925 46.9755 66.8239 45.8125 66.3839C45.1475 66.1317 44.7542 65.7239 44.58 65.084C44.0066 62.9752 44.1633 60.8785 44.6872 58.7897ZM54.3071 59.9712C54.2896 60.1468 54.0373 60.3018 53.8872 60.4665C53.7051 60.3115 53.4425 60.1833 53.3723 59.9924C53.3307 59.8794 53.5927 59.6685 53.8111 59.3768C54.0588 59.657 54.3214 59.8259 54.3071 59.9712ZM53.4952 56.5235C54.2239 56.5229 55.0151 57.22 54.9741 57.8496C54.9416 58.3485 54.6133 58.5564 54.0997 58.5424C53.3066 58.5333 52.4654 57.8684 52.4862 57.2674C52.5012 56.8511 52.9439 56.5241 53.4952 56.5235ZM42.9645 56.2865C42.9593 56.2871 42.9541 56.2896 42.9489 56.2889C42.7656 56.2744 42.6044 56.2075 42.462 56.0993C42.3326 56.0003 42.254 55.8678 42.1675 55.7365C42.0037 55.4867 41.8184 55.2297 41.5616 55.0553C41.5512 55.048 41.5434 55.0388 41.5343 55.0303C41.0396 55.4375 41.3757 55.8678 41.5116 56.2853C41.6442 56.6925 41.8977 57.096 41.9718 57.4983C42.0056 57.5099 42.0355 57.5287 42.0505 57.5597C42.3586 58.1857 42.4919 58.986 43.1017 59.4345C43.1179 59.4461 43.129 59.4619 43.1368 59.4789C43.1699 59.4801 43.2031 59.4813 43.2362 59.4826C43.4384 60.543 43.6634 61.5999 43.8337 62.6646C43.9552 63.4267 43.9968 64.1997 44.0872 64.9661C44.1555 65.5434 44.0983 66.0697 43.3416 66.4915C43.7147 66.5596 43.9221 66.6228 44.1314 66.6319C46.0088 66.7103 47.7238 67.253 49.2931 68.2065C49.8437 68.5414 49.8424 68.7097 49.3626 69.1345C49.2137 69.2664 49.111 69.4444 48.9875 69.6018C49.0369 69.6456 49.0857 69.69 49.1344 69.7343C49.4237 69.5362 49.7163 69.3423 50.0016 69.1394C52.2958 67.5094 54.7037 67.4961 57.1356 68.7948C58.0503 69.2834 58.8538 69.9555 59.7086 70.5426C59.9043 70.6769 60.1019 70.807 60.2989 70.9395C60.3425 70.9024 60.3867 70.8659 60.4302 70.8295C60.3548 70.7061 60.3041 70.5584 60.1988 70.4636C58.6581 69.0713 56.9172 68.0005 54.7862 67.572C53.8729 67.3879 53.8618 67.3302 54.1375 66.4599C54.5737 65.084 55.0586 63.713 55.3544 62.3091C55.84 59.9973 55.6255 57.7299 54.5204 55.5639C53.1656 52.9082 51.1295 52.0914 48.1567 53.1051C47.086 53.4703 46.0504 53.9267 45.0058 54.3564C44.2647 54.6608 43.6315 54.5679 43.0815 53.9954C42.9918 53.903 42.8312 53.8708 42.7032 53.8106C42.6557 53.9401 42.5634 54.0713 42.5686 54.199C42.6018 55.0698 43.0347 55.7906 43.6016 56.4877C43.2792 56.5478 43.0965 56.4433 42.9645 56.2865Z" fill="black"/>
<path d="M76.9453 62.4595C76.3836 62.513 75.4872 61.7144 75.4898 61.2057C75.493 60.7524 75.74 60.4832 76.2536 60.4795C76.8517 60.4753 77.362 61.1425 77.3698 62.1186C77.2937 62.1842 77.1325 62.4419 76.9453 62.4595ZM75.7491 64.1259C75.7765 63.9606 76.0508 63.8317 76.2172 63.6871C76.3739 63.85 76.6365 64.0031 76.6554 64.1788C76.671 64.3289 76.4057 64.5045 76.1574 64.7944C75.952 64.4796 75.7225 64.2839 75.7491 64.1259ZM75.7966 70.4262C75.3012 71.026 74.6109 71.288 73.7983 71.0528C71.4749 70.3812 69.1014 70.1266 66.674 70.222C65.9264 70.2512 65.2906 70.0105 64.8915 69.3493C62.8184 65.9132 63.6355 60.4516 66.6389 57.7259C68.5261 56.0133 71.196 55.5253 73.3315 56.505C73.4505 56.5597 73.5584 56.6332 73.8139 56.779C72.3733 57.182 71.3962 57.9526 70.6343 58.9796C70.5108 59.1455 70.3899 59.3145 70.2859 59.4913C69.6514 60.5682 69.7404 60.8138 70.9236 61.2756C71.8415 61.6342 71.8272 61.6324 71.7303 62.5816C71.5893 63.9545 71.8896 65.218 72.8439 66.3113C74.1285 67.7838 75.7862 67.6872 76.8471 66.0743C76.9889 65.8585 77.1416 65.6501 77.3464 65.4586C77.1488 67.2046 77.0032 68.9652 75.7966 70.4262ZM74.5315 64.1939C74.6746 64.5987 74.7565 65.0514 74.7188 65.472C74.6986 65.6938 74.3944 66.0183 74.1662 66.0639C73.9283 66.1107 73.5194 65.9448 73.3777 65.7503C73.1261 65.4027 73.0195 64.9639 72.8049 64.4492C73.0435 64.1478 73.206 63.7345 73.5044 63.6117C74.0017 63.4082 74.382 63.7722 74.5315 64.1939ZM80.1703 62.7615C80.5097 62.2857 80.8731 62.0134 81.1968 61.7047C81.4465 61.4658 81.4965 61.2604 81.1123 60.9991C80.3543 60.4832 79.6262 59.9168 78.9462 59.3121C77.964 58.4375 77.1026 57.436 76.0703 56.621C73.2626 54.404 69.4414 53.7744 66.726 56.7517C64.5118 59.1796 63.1421 61.8949 63.2962 65.1523C63.3742 66.812 63.9177 68.3642 64.7043 69.8957C64.2154 70.129 63.7467 70.3527 63.2773 70.5763C63.2929 70.6298 63.3085 70.6827 63.3241 70.7361C63.6823 70.7361 64.0483 70.7823 64.3974 70.7288C68.7933 70.0567 72.8784 70.9932 76.8049 72.7878C76.957 72.8577 77.1429 72.8632 77.3126 72.8984C77.3464 72.8377 77.3795 72.7763 77.4127 72.7155C77.0838 72.4876 76.7613 72.2506 76.4246 72.0342C75.5886 71.4976 75.5977 71.4757 76.1548 70.7185C76.7451 69.9157 77.4257 69.1378 77.8262 68.2536C78.3592 67.0782 79.0633 66.3532 80.5162 66.5246C80.6293 66.538 80.7645 66.524 80.8646 66.4766C81.4536 66.1964 82.0406 65.9108 82.614 65.6033C82.6953 65.5595 82.7323 65.3863 82.7219 65.2787C82.7174 65.2356 82.5308 65.19 82.4235 65.1785C82.1726 65.1517 81.9191 65.1444 81.4926 65.1195C82.5958 64.4814 83.426 63.853 83.8882 62.8101C83.1835 62.8971 82.5782 63.0374 81.9763 63.0271C81.373 63.0168 80.7723 62.8563 80.1703 62.7615Z" fill="black"/>
<path d="M67.3485 48.2051C68.3932 47.6977 69.5211 47.5366 70.6717 47.5828C73.484 47.6953 75.9439 48.7782 78.3225 50.0763C78.6183 50.238 78.9798 50.2933 79.3107 50.3984C79.1475 50.0794 79.0714 49.6625 78.8075 49.4565C75.5844 46.9399 71.9329 46.3461 67.9473 47.4698C67.4707 47.6047 67.0586 47.9402 66.6172 48.1827C66.6698 48.2629 66.7225 48.3437 66.7752 48.4239C66.9669 48.3522 67.1659 48.2939 67.3485 48.2051Z" fill="black"/>
<path d="M62.5383 75.7623C62.7932 76.3293 62.4649 76.6915 62.0319 76.9826C61.6841 77.2172 61.2999 77.4177 60.906 77.577C58.9219 78.3779 56.8787 78.3172 54.9473 77.5648C53.4658 76.9881 51.7756 76.3998 51.8016 74.4186C51.8016 74.3973 51.7463 74.3755 51.7171 74.353C51.1996 74.7486 50.6815 75.1442 50.1484 75.5508C50.1686 75.5648 50.2668 75.6809 50.3818 75.6991C51.3797 75.8528 52.1143 76.4515 52.9015 76.9668C55.6683 78.779 58.5559 79.2506 61.6386 77.6627C61.9708 77.4919 62.3609 77.422 62.721 77.2974C63.2073 77.1291 63.6909 76.9534 64.2071 76.7699C63.6149 76.2965 63.1098 75.8917 62.5767 75.4651C62.565 75.5423 62.498 75.673 62.5383 75.7623Z" fill="black"/>
<path d="M46.4917 45.5412C45.3768 45.8299 44.4901 46.4662 43.7081 47.2301C43.5755 47.3595 43.5891 47.619 43.5352 47.8184C43.7432 47.7971 43.9655 47.8111 44.1553 47.7448C44.3523 47.6762 44.5207 47.5321 44.6975 47.416C46.9357 45.949 49.3358 45.6226 51.9095 46.5196C52.4549 46.7099 53.0003 46.9007 53.5458 47.0909C53.5893 47.0393 53.6322 46.987 53.6758 46.9353C53.3215 46.6382 53.0101 46.268 52.6051 46.0553C50.6587 45.0344 48.5973 44.9955 46.4917 45.5412Z" fill="black"/>
<path d="M69.9322 53.3084C69.1476 53.3479 68.4085 53.5272 67.6992 54.0097C68.6834 53.8626 69.5728 53.6317 70.4666 53.6141C73.5116 53.5557 75.9182 55.1103 78.4015 56.4637C78.9417 56.7578 79.5456 56.9487 80.1197 57.1875C80.1463 57.1146 80.173 57.0416 80.1996 56.9687C79.6282 56.6375 79.0399 56.3288 78.4873 55.972C75.9097 54.3081 73.1573 53.1455 69.9322 53.3084Z" fill="black"/>
<path d="M47.9579 51.3761C47.5093 51.539 47.1504 51.9164 46.75 52.1953C46.8092 52.2986 46.869 52.4025 46.9281 52.5059C48.6469 51.1154 50.5796 51.0339 52.6235 51.604C51.0828 50.9422 49.5193 50.8085 47.9579 51.3761Z" fill="black"/>
<path d="M89.8848 67.7305C90.1988 66.7356 90.5147 65.7341 90.8313 64.7332C90.7689 64.7192 90.7065 64.7058 90.6447 64.6924C90.1689 65.6733 89.2672 66.5752 89.8848 67.7305Z" fill="#F7F4F2"/>
<path d="M92.5625 72.605C92.8401 73.1902 93.1177 73.7755 93.3953 74.3613C93.5961 73.6041 93.2249 73.0492 92.8173 72.5078C92.7322 72.54 92.6477 72.5728 92.5625 72.605Z" fill="#F7F4F2"/>
<path d="M113.557 61.0527C113.993 60.2979 113.891 60.1509 112.559 59.376C112.325 60.228 113.449 60.284 113.557 61.0527Z" fill="#F7F4F2"/>
<path d="M112.566 56.6412C112.874 57.0484 113.089 57.3328 113.304 57.6172C113.598 57.0022 113.287 56.7797 112.566 56.6412Z" fill="#F7F4F2"/>
<path d="M132.685 16.0937C132.632 16.307 132.653 16.541 132.576 16.744C131.466 19.6914 129.308 21.5954 126.083 22.4451C125.799 22.5198 125.548 22.7033 125.281 22.8364C125.308 22.9027 125.335 22.9689 125.361 23.0352C125.558 23.0206 125.779 23.0552 125.948 22.9835C127.121 22.4888 128.346 22.067 129.435 21.4399C131.342 20.3429 132.694 18.8035 133.061 16.6564C133.125 16.2772 133.105 15.8852 133.124 15.4993C133.048 15.4884 132.973 15.4774 132.898 15.4665C132.825 15.675 132.738 15.8804 132.685 16.0937Z" fill="#F7F4F2"/>
<path d="M43.1199 78.9844C42.2306 77.6468 41.4687 76.235 40.6522 74.8543C39.7752 74.7838 38.8976 74.7127 38.02 74.6416C37.849 74.672 37.6683 74.7522 37.5084 74.7254C36.2824 74.5206 35.2539 73.9202 34.2444 73.2784C33.1444 72.5795 32.0705 71.8314 30.9075 71.2377C29.8238 70.6846 29.0034 71.0645 28.6374 72.1657C28.3254 73.1052 28.4996 74.0022 29.1926 74.7497C29.9233 75.538 30.3419 76.3785 30.1677 77.4566C30.0403 78.2484 30.429 78.8701 31.1006 79.3594C32.7557 80.5651 34.6064 81.1133 36.7056 80.8817C36.9129 80.8592 37.1249 80.8787 37.3348 80.8787C37.3517 80.9528 37.368 81.027 37.3849 81.1011C36.6887 81.3284 35.9924 81.5563 35.1922 81.8176C35.3514 82.0407 35.4418 82.3233 35.5998 82.3615C36.3838 82.5518 37.1808 82.7213 37.9843 82.8076C38.3964 82.852 38.8359 82.7237 39.2565 82.6441C40.2752 82.4527 41.2886 82.237 42.3073 82.0467C42.618 81.9884 42.9398 81.9799 43.2564 81.9489C43.2733 82.0407 43.2896 82.1324 43.3058 82.2248C42.0765 82.556 40.8472 82.8866 39.6179 83.2178C39.8994 83.4123 40.188 83.498 40.4819 83.5138C42.1389 83.6056 43.6042 83.0294 45.0363 82.3421C45.4816 82.1288 45.5148 81.8845 45.2008 81.5198C44.4864 80.6897 43.7186 79.885 43.1199 78.9844Z" fill="#F4731C"/>
<path d="M82.4648 65.1732C82.5727 65.1848 82.7593 65.231 82.7632 65.2735C82.7742 65.3811 82.7372 65.5549 82.6552 65.5986C82.0819 65.9055 81.4949 66.1912 80.9059 66.4713C80.8058 66.5187 80.6706 66.5333 80.5574 66.5199C79.1052 66.348 78.4005 67.073 77.8681 68.2483C77.4676 69.1326 76.787 69.9105 76.196 70.7133C75.6396 71.4705 75.6298 71.4924 76.4658 72.029C76.8032 72.2454 77.125 72.4824 77.4546 72.7103C77.4208 72.7717 77.3876 72.8324 77.3545 72.8932C77.1842 72.8579 76.9982 72.8525 76.8461 72.7826C72.9203 70.988 68.8352 70.0521 64.4387 70.7236C64.0902 70.7771 63.7236 70.7309 63.3654 70.7309C63.3498 70.6774 63.3348 70.6245 63.3192 70.5711C63.7879 70.3474 64.2567 70.1238 64.7455 69.891C63.9589 68.3589 63.4161 66.8068 63.3374 65.1477C63.184 61.8897 64.5531 59.1749 66.7673 56.7471C69.4827 53.7698 73.3038 54.3988 76.1115 56.6158C77.1439 57.4314 78.0052 58.4329 78.9881 59.3068C79.6681 59.9115 80.3956 60.4779 81.1542 60.9945C81.5378 61.2558 81.4884 61.4606 81.2381 61.6994C80.915 62.0082 80.5516 62.281 80.2116 62.7563C80.8136 62.8511 81.4142 63.0121 82.0182 63.0219C82.6201 63.0322 83.2247 62.8918 83.9294 62.8049C83.4672 63.8484 82.6377 64.4762 81.5345 65.1143C81.961 65.1398 82.2138 65.1465 82.4648 65.1732ZM62.7634 77.2925C62.4033 77.4171 62.0132 77.487 61.6817 77.6578C58.5983 79.2458 55.7113 78.7742 52.9439 76.9619C52.1567 76.4466 51.4221 75.848 50.4242 75.6942C50.3092 75.676 50.2117 75.5599 50.1915 75.5459C50.7239 75.1394 51.242 74.7431 51.7601 74.3475C51.7888 74.3706 51.8447 74.3925 51.844 74.4137C51.818 76.3949 53.5089 76.9832 54.9897 77.5599C56.9218 78.3123 58.9643 78.3731 60.9484 77.5721C61.343 77.4129 61.7265 77.2123 62.075 76.9777C62.5073 76.6866 62.8356 76.3244 62.5807 75.7574C62.5411 75.6681 62.6074 75.5374 62.6198 75.4602C63.1522 75.8869 63.6579 76.2916 64.2495 76.765C63.734 76.9486 63.2503 77.1242 62.7634 77.2925ZM80.2408 56.9634C80.2142 57.0363 80.1882 57.1093 80.1615 57.1822C79.5869 56.944 78.9829 56.7531 78.4434 56.459C75.9601 55.1056 73.5535 53.5504 70.5085 53.6094C69.6146 53.6264 68.7253 53.8579 67.7404 54.005C68.4497 53.5225 69.1895 53.3432 69.9735 53.3037C73.1985 53.1402 75.9516 54.3028 78.5292 55.9674C79.0818 56.3241 79.6694 56.6328 80.2408 56.9634ZM67.9868 47.4664C71.9725 46.3422 75.6246 46.9359 78.8471 49.4531C79.111 49.6591 79.1871 50.0754 79.3509 50.3945C79.0193 50.29 78.6579 50.234 78.3621 50.073C75.9835 48.7749 73.5242 47.6913 70.712 47.5789C69.5613 47.5327 68.4328 47.6943 67.3881 48.2012C67.2061 48.2899 67.0065 48.3483 66.8154 48.4206C66.7621 48.3398 66.7094 48.2595 66.6568 48.1787C67.0988 47.9362 67.5103 47.6008 67.9868 47.4664ZM53.5882 47.0866C53.0428 46.8958 52.4973 46.705 51.9519 46.5154C49.3782 45.6183 46.9782 45.9441 44.7399 47.4111C44.5631 47.5272 44.3947 47.6712 44.1978 47.7405C44.0079 47.8068 43.7856 47.7928 43.5776 47.8141C43.6315 47.6147 43.6179 47.3552 43.7505 47.2258C44.5325 46.4613 45.4193 45.8256 46.5341 45.5369C48.6391 44.9912 50.7012 45.0301 52.6475 46.051C53.0525 46.2638 53.3632 46.6332 53.7182 46.931C53.6746 46.9827 53.6317 47.0344 53.5882 47.0866ZM46.9684 52.5021C46.9086 52.3982 46.8494 52.2948 46.7903 52.1909C47.1901 51.912 47.5496 51.5352 47.9981 51.3717C49.5596 50.8041 51.1224 50.9384 52.6638 51.6002C50.6199 51.0302 48.6866 51.1116 46.9684 52.5021ZM87.3904 77.5697C87.0569 75.9938 86.4933 74.5219 85.4577 73.225C85.0807 72.7528 84.9988 72.3025 85.2497 71.6917C85.9057 70.0952 86.544 68.4805 86.9971 66.8269C87.473 65.0887 87.7512 63.3014 88.0685 61.5281C88.3753 59.81 88.4085 58.0756 88.2043 56.3441C87.8728 53.5413 86.8749 50.973 84.9455 48.7767C82.4862 45.9781 79.2768 44.1154 75.843 42.559C72.8091 41.1838 69.6257 40.2272 66.3142 39.6195C64.3828 39.2645 62.467 39.0701 60.5115 39.4535C58.2889 39.8887 56.9432 41.3685 56.9192 43.4731C56.9016 45.0398 57.4107 46.474 58.155 47.8548C58.2668 48.062 58.2792 48.316 58.3721 48.6874C57.9847 48.5111 57.776 48.4473 57.605 48.3331C55.7035 47.0623 53.7552 45.825 52.3485 44.0431C51.6548 43.1649 51.0633 42.1956 50.5744 41.2038C50.2325 40.5104 50.2734 40.3937 49.5005 40.6799C48.4818 41.0567 47.4508 41.4354 46.4984 41.9355C43.8877 43.3059 42.3892 45.4725 42.0284 48.1988C41.8178 49.7898 42.0141 51.4319 42.0798 53.049C42.1181 54.0001 42.1942 54.9646 42.7227 55.8191C42.9177 56.1357 43.038 56.5957 43.6432 56.4827C43.0764 55.7856 42.6428 55.0649 42.6096 54.1946C42.6051 54.0664 42.6974 53.9357 42.7448 53.8057C42.8722 53.8658 43.0335 53.8986 43.1225 53.991C43.6731 54.5629 44.3063 54.6565 45.0468 54.3514C46.0914 53.9217 47.127 53.4653 48.1977 53.1001C51.1712 52.0864 53.2066 52.9038 54.562 55.559C55.6671 57.7249 55.8817 59.9923 55.3954 62.3041C55.1003 63.7086 54.6147 65.0796 54.1791 66.4555C53.9035 67.3252 53.9139 67.3835 54.8279 67.5671C56.9588 67.9955 58.6991 69.0669 60.2405 70.4586C60.3451 70.554 60.3958 70.7017 60.4719 70.8245C60.4277 70.8616 60.3841 70.898 60.3406 70.9345C60.1436 70.8026 59.9453 70.6719 59.7503 70.5382C58.8954 69.9506 58.0919 69.2784 57.1766 68.7898C54.7453 67.4911 52.3374 67.5045 50.0433 69.1344C49.7579 69.3374 49.4654 69.5319 49.1761 69.73C49.1267 69.6856 49.0779 69.6412 49.0292 69.5969C49.1527 69.4401 49.2547 69.2614 49.4043 69.1295C49.8834 68.7053 49.8853 68.537 49.334 68.2021C47.7647 67.248 46.0505 66.7059 44.1731 66.6269C43.9631 66.6184 43.7563 66.5552 43.3832 66.4871C44.1392 66.0654 44.1965 65.5385 44.1288 64.9617C44.0385 64.1948 43.9969 63.4217 43.8747 62.6603C43.7043 61.5955 43.4794 60.5381 43.2779 59.4776C43.1817 59.4746 43.0855 59.4715 42.9893 59.4679C42.908 59.6599 42.7871 59.8459 42.7539 60.0446C42.5687 61.1355 42.4126 62.2306 42.2313 63.3221C41.9654 64.921 41.7099 66.5072 40.634 67.8807C40.0418 68.6379 39.8578 69.5701 40.0684 70.5231C40.2316 71.2614 40.3844 72.0035 40.5937 72.7309C41.9381 77.408 44.6801 81.1905 48.9388 83.9715C52.5714 86.344 56.7105 87.4665 61.0407 87.9254C66.2589 88.479 71.5057 88.5568 76.7473 88.1672C78.9738 88.0013 81.1094 87.5577 83.0836 86.4498C86.1436 84.7336 88.0834 80.8399 87.3904 77.5697Z" fill="#F4731C"/>
<path d="M93.3948 74.3628C93.1173 73.7776 92.8397 73.1923 92.5621 72.6065C92.6473 72.5743 92.7318 72.5421 92.8169 72.5092C93.2245 73.0507 93.5957 73.6056 93.3948 74.3628ZM89.887 67.7319C89.2701 66.5766 90.1717 65.6747 90.647 64.6939C90.7094 64.7072 90.7711 64.7212 90.8335 64.7346C90.5176 65.7361 90.2017 66.737 89.887 67.7319ZM112.561 59.3775C113.892 60.1523 113.995 60.3 113.558 61.0542C113.45 60.2854 112.327 60.2295 112.561 59.3775ZM113.305 57.6181C113.09 57.3337 112.875 57.0492 112.567 56.6421C113.287 56.7806 113.598 57.0031 113.305 57.6181ZM107.231 74.1258C107.432 74.0146 107.659 73.9155 107.851 73.7764C108.624 73.2179 108.945 72.4005 109.202 71.5721C109.513 70.5676 109.776 69.5709 110.586 68.7644C110.946 68.4047 111.112 67.8735 111.362 67.4183C111.541 67.0938 111.713 66.7668 111.923 66.3761C112.436 66.9139 112.382 67.3916 112.157 67.8644C111.952 68.2953 111.7 68.7067 111.469 69.1272C111.671 69.0847 111.894 69.0798 112.068 68.9911C112.869 68.5827 113.292 67.8911 113.455 67.0956C113.761 65.6 114.075 64.0989 114.246 62.5869C114.731 58.2951 113.934 54.275 111.122 50.7331C110.975 50.5484 110.77 50.4043 110.593 50.2409C110.624 51.4375 110.79 52.5405 110.954 53.6435C111.284 55.8842 111.17 58.0721 110.179 60.1839C109.56 61.5027 108.193 62.4763 106.86 62.4714C104.735 62.4641 102.858 61.8941 101.168 60.6269C98.6176 58.7156 96.4561 56.4658 94.3446 54.1595C93.61 53.3573 92.8195 52.5995 92.0167 51.7821C91.8191 52.0112 91.7066 52.1418 91.5213 52.3564C91.3633 50.693 90.0313 50.0136 88.8644 49.2302C88.3346 48.8741 87.9745 49.0637 87.94 49.6872C87.9121 50.1977 87.9504 50.7198 88.033 51.226C88.2189 52.3722 88.488 53.5068 88.6532 54.6548C88.8729 56.1802 88.9333 57.7299 89.2278 59.2413C89.6868 61.5981 89.7954 63.9403 89.0907 66.2496C88.5888 67.8929 87.9186 69.4925 87.3003 71.1042C87.1021 71.6201 87.0832 72.0814 87.366 72.587C88.5186 74.6509 89.1004 76.8551 89.0458 79.1851C89.0198 80.2955 88.8982 81.4064 88.0239 82.2827C87.1989 83.1099 87.2223 84.194 88.0889 84.9744C88.6506 85.4806 89.1245 85.3846 89.3546 84.679C89.6959 83.6349 89.6874 82.5805 89.4203 81.514C89.3539 81.2484 89.3565 80.8315 89.5275 80.6716C90.8569 79.4295 92.0947 78.1271 93.0646 76.6114C93.168 76.4498 93.4547 76.3914 93.6555 76.2851C93.6828 76.485 93.7641 76.6941 93.7264 76.8825C93.5925 77.5473 93.887 77.8986 94.5715 77.7023C95.3535 77.478 96.1024 77.1377 96.8448 76.8071C97.3207 76.595 97.7588 76.31 98.3576 75.9782C98.3101 76.2966 98.3296 76.4686 98.2588 76.5974C97.8856 77.2751 97.9701 77.9539 98.3855 78.5434C98.8354 79.1833 99.3762 79.7795 99.9535 80.3234C100.165 80.5228 100.63 80.6486 100.921 80.5829C102.029 80.3325 102.989 79.8622 103.326 78.7081C103.401 78.4522 103.572 78.2207 103.698 77.9782C103.76 77.9989 103.823 78.0201 103.886 78.0408C103.868 78.3179 103.85 78.595 103.832 78.874C105.236 78.815 110.182 74.327 110.45 72.7742C110.105 73.0203 109.802 73.1626 109.609 73.388C108.911 74.2018 107.84 74.2875 106.908 74.6327C106.579 74.7542 106.358 74.6017 106.456 74.1799C106.551 73.7758 106.537 73.3497 106.578 72.8295C107.462 72.8921 106.876 73.729 107.231 74.1258Z" fill="#F4731C"/>
<path d="M111.51 69.125C111.51 69.125 111.511 69.1233 111.512 69.1217C111.51 69.1225 111.51 69.1225 111.508 69.1225L111.51 69.125Z" fill="#E78C3B"/>
<path d="M133.103 16.6518C132.737 18.7989 131.385 20.3383 129.478 21.4352C128.389 22.0624 127.164 22.4842 125.991 22.9789C125.821 23.0506 125.601 23.0159 125.405 23.0305C125.378 22.9643 125.351 22.898 125.325 22.8318C125.591 22.6987 125.842 22.5152 126.126 22.4404C129.351 21.5908 131.509 19.6868 132.618 16.7393C132.695 16.5363 132.675 16.3024 132.728 16.089C132.78 15.8763 132.868 15.6709 132.941 15.4619C133.016 15.4728 133.092 15.4837 133.167 15.4947C133.148 15.8806 133.168 16.2726 133.103 16.6518ZM135.271 16.354C134.825 15.3014 134.203 14.3139 133.661 13.2965C133.597 13.3208 133.533 13.3445 133.469 13.3689C133.448 13.4339 133.424 13.4983 133.405 13.5633C132.587 16.3959 130.829 18.5911 128.097 20.0052C126.083 21.0469 124 21.9919 121.874 22.813C119.982 23.5447 118.005 24.1032 116.034 24.6355C113.84 25.2287 111.961 26.3299 110.416 27.8188C109.366 28.8307 108.638 30.1422 107.816 31.3497C106.869 32.7414 106.446 34.3306 106.258 35.932C106.095 37.3231 106.087 38.7591 106.259 40.1484C106.507 42.1545 107.384 44.0057 108.33 45.8118C108.81 46.7301 109.325 47.632 109.885 48.6523C110.187 48.2233 110.438 47.917 110.633 47.5834C111.542 46.0355 112.374 44.4463 113.348 42.9361C114.464 41.2046 115.564 39.4203 117.349 38.1976C118.698 37.2732 120.174 36.513 121.566 35.6421C123.914 34.1726 126.271 32.7128 128.566 31.1735C130.657 29.7714 132.63 28.2296 134.147 26.2454C135.059 25.053 135.746 23.7616 136.002 22.3134C136.362 20.2714 136.084 18.2665 135.271 16.354Z" fill="#F4731C"/>
<path d="M103.639 18.1624C103.856 18.5361 104.073 18.9105 104.29 19.2842C104.225 19.3165 104.162 19.3493 104.097 19.3815C103.88 19.0083 103.662 18.6346 103.444 18.2614C103.509 18.2286 103.574 18.1952 103.639 18.1624ZM96.3919 14.1799C97.276 16.1119 98.0918 18.0688 98.3246 20.1606C98.5755 22.411 98.6802 24.6784 98.779 26.941C98.9064 29.8678 98.8128 32.8105 99.0878 35.7239C99.5526 40.6465 101.817 44.7876 105.909 47.9733C106.812 48.6764 107.851 49.2282 108.845 49.8238C109.024 49.9314 109.289 49.9144 109.514 49.9551C109.508 49.7478 109.565 49.5145 109.483 49.3382C109.173 48.6831 108.857 48.0255 108.472 47.4081C106.874 44.8441 105.923 42.0959 105.599 39.1418C105.29 36.3268 105.86 33.6862 107.378 31.2577C108.779 29.0134 109.808 26.4785 112.529 25.1889C113.014 24.9592 113.165 24.4305 112.966 23.923C112.649 23.116 112.344 22.2986 111.939 21.5292C110.198 18.2232 107.752 15.4349 104.779 13.0234C101.868 10.6618 98.5313 9.42993 94.6016 9.54783C94.6217 9.65114 94.6269 9.76357 94.6659 9.86385C95.2334 11.3054 95.7464 12.7694 96.3919 14.1799Z" fill="#F4731C"/>
<path d="M59.7734 38.2064C59.8534 38.6585 60.1576 38.952 60.783 38.9071C63.0017 38.7485 65.2296 38.4999 67.4457 38.5613C70.0148 38.633 72.5781 38.9709 75.1387 39.2401C77.2808 39.4656 79.3155 40.1019 81.2813 40.8968C84.2386 42.0922 86.8538 43.7969 88.9334 46.0916C91.1392 48.5244 93.1752 51.0914 95.2795 53.6044C97.1635 55.8536 99.2795 57.8725 101.928 59.5176C101.886 59.2775 101.862 59.1092 101.826 58.9427C101.618 57.9733 101.286 57.0107 101.229 56.0341C101.162 54.8885 100.713 54.4345 99.286 54.3039C98.842 54.2638 98.3902 54.2978 97.8552 54.2978C97.9267 54.113 97.9689 53.9836 98.0261 53.8602C98.2595 53.3589 98.5325 52.8709 98.725 52.3567C98.9824 51.6688 98.6951 51.0167 97.9696 50.7784C97.445 50.6058 96.8638 50.5578 96.3028 50.5183C95.7053 50.4758 95.1014 50.5086 94.3902 50.5086C94.5228 50.2284 94.597 50.0285 94.7062 49.8474C94.9285 49.4809 95.1879 49.1327 95.3992 48.7614C95.9355 47.8194 95.6904 46.9637 94.636 46.5857C93.5464 46.195 92.3951 45.9464 91.2607 45.6747C90.5053 45.4936 89.7304 45.3824 88.966 45.2354C88.5961 45.1636 88.613 45.0087 88.7878 44.7255C89.2065 44.0448 89.6609 43.3672 89.9463 42.6361C90.5463 41.0985 90.168 39.7676 88.1677 39.2079C86.5698 38.7606 84.9745 38.8785 83.3733 39.1538C82.8168 39.2498 82.2636 39.3629 81.7091 39.468C81.6811 39.4036 81.6538 39.3392 81.6265 39.2748C81.8957 39.0943 82.1811 38.9314 82.4313 38.7308C84.1937 37.3179 84.1677 34.4214 82.3793 32.8146C81.3509 31.8915 80.0793 31.4302 78.7044 31.2181C76.4506 30.8705 74.2254 31.0254 72.0587 31.7067C71.3033 31.9443 71.1563 32.2524 71.2044 32.9951C71.2129 33.1227 71.0627 33.2601 70.986 33.3925C70.9113 33.3737 70.8365 33.3555 70.7611 33.3366C70.6486 32.8176 70.5563 32.2938 70.4198 31.7802C70.1182 30.6426 69.8952 29.4739 69.4518 28.3849C68.9877 27.2442 67.982 26.741 66.6298 26.792C64.9091 26.8564 63.5465 27.5906 62.3861 28.6802C60.3956 30.5484 59.2046 32.7441 59.4601 35.4685C59.5459 36.3832 59.6135 37.3021 59.7734 38.2064Z" fill="#F4731C"/>
<path d="M99.8652 81.0729C99.1924 80.2403 98.4513 79.4412 97.6439 78.7228C97.0094 78.1582 96.5407 78.2458 95.7703 78.6365C95.2984 78.8754 94.7529 78.9878 94.24 79.1561C93.7798 79.3069 93.2864 79.4004 92.8651 79.6168C91.249 80.4463 90.6977 81.9043 90.3142 83.4698C89.8461 85.3805 89.4158 87.3064 88.8034 89.1782C88.3887 90.4453 87.76 91.6656 87.1002 92.8446C85.8026 95.1643 84.078 97.2093 82.2194 99.1583C81.4497 99.9654 81.5277 100.806 82.4131 101.497C83.3908 102.261 84.4732 102.358 85.6713 102.02C86.9162 101.669 87.7893 100.863 88.661 100.041C89.1746 99.5558 89.7012 99.2896 90.4046 99.7527C90.6197 99.8943 90.9129 99.9338 91.1717 100.015C92.57 100.452 93.9085 100.456 95.1469 99.577C96.3866 98.697 97.0503 97.47 97.402 96.1148C97.7316 94.8453 97.8863 93.5362 98.1366 92.2478C98.1626 92.1147 98.316 92.0029 98.4103 91.8808C98.4851 92.0138 98.6294 92.1494 98.6222 92.2782C98.5936 92.8282 98.5598 93.3831 98.4545 93.9239C98.2705 94.872 98.032 95.8115 97.8161 96.7541C97.8805 96.7948 97.9442 96.835 98.0086 96.8751C98.4851 96.4023 98.9817 95.9446 99.4348 95.4524C100.81 93.9586 101.74 92.3049 101.465 90.2447C101.458 90.1901 101.444 90.1299 101.46 90.0794C101.514 89.9014 101.581 89.7264 101.643 89.5501C101.748 89.7215 101.923 89.885 101.946 90.0649C101.997 90.4647 102.017 90.8768 101.969 91.2755C101.88 92.0181 101.734 92.7541 101.59 93.6176C101.971 93.2968 102.313 93.0737 102.568 92.7838C103.835 91.3447 103.851 89.6753 103.449 87.9779C102.843 85.4176 101.544 83.1489 99.8652 81.0729Z" fill="#F4731C"/>
<path d="M51.1022 53.6762C51.2563 53.5984 51.3947 53.4945 51.7074 53.2976C51.2277 53.193 50.9507 53.0927 50.6693 53.0788C49.2599 53.0101 48.0234 53.3924 47.0412 54.3757C45.7911 55.6258 45.1384 57.1536 44.7288 58.7866C44.2049 60.8753 44.0482 62.972 44.6216 65.0808C44.7958 65.7201 45.1884 66.1285 45.8541 66.3801C47.0165 66.8207 48.1703 67.2893 49.2963 67.8052C50.5782 68.3923 52.5447 67.9894 53.3313 66.8791C54.0757 65.8289 54.2759 64.6062 54.5554 63.3597C52.5519 64.3193 50.8701 63.8635 50.5009 62.2804C50.7609 62.2804 51.0151 62.295 51.2667 62.2773C51.8089 62.2403 51.9974 61.9109 51.7198 61.483C51.4494 61.0668 51.0548 60.848 50.5249 60.958C50.0023 61.0668 49.7975 60.8808 49.832 60.3976C49.8658 59.92 49.8476 59.4374 49.9126 58.964C50.051 57.9546 49.975 57.8555 48.8633 57.8191C48.7847 57.8166 48.706 57.8154 48.6267 57.813C47.9597 57.7941 47.8479 57.6604 48.0702 57.0715C48.6287 55.5899 49.6057 54.4298 51.1022 53.6762Z" fill="white"/>
<path d="M57.2216 47.3867C57.0624 46.8805 56.907 46.3736 56.7438 45.8686C55.8233 43.0202 56.4318 41.1721 58.8559 39.313C59.0698 39.149 59.231 38.7934 59.2252 38.5303C59.1979 37.3349 59.0841 36.1413 59.0379 34.9459C59.0009 33.9827 58.5725 33.5238 57.5343 33.66C56.5761 33.7858 55.6049 33.9991 54.7104 34.3382C52.6906 35.1033 51.0147 37.5938 51.1525 39.6212C51.4073 43.3672 53.9322 45.6304 57.2216 47.3867Z" fill="#F4731C"/>
<path d="M121.18 67.3719C117.731 67.2328 114.676 68.4464 111.718 69.9341C111.438 70.0751 111.179 70.2532 110.91 70.4142C110.945 70.4799 110.98 70.5449 111.014 70.6099C111.387 70.5182 111.772 70.4556 112.132 70.3304C113.6 69.8187 115.119 69.5987 116.661 69.8168C117.805 69.9785 118.921 70.3048 120.048 70.5637C121.102 70.8062 122.156 71.0451 123.245 70.7564C124.581 70.4015 124.882 69.4492 124.028 68.4178C123.291 67.5269 122.218 67.4139 121.18 67.3719Z" fill="#F4731C"/>
<path d="M118.609 74.4345C117.677 73.8426 116.674 73.3491 115.754 72.7438C114.762 72.0905 113.64 71.9179 112.599 71.7733C112.313 71.7879 112.125 71.7648 111.962 71.8134C111.658 71.9027 111.369 72.034 111.074 72.1476C111.265 72.3676 111.438 72.6053 111.65 72.8052C112.395 73.5065 113.235 74.1337 113.882 74.9049C114.555 75.7071 114.999 76.674 115.64 77.5035C115.865 77.7934 116.421 78.0973 116.747 78.0347C117.678 77.8548 118.482 77.3662 119.031 76.5992C119.675 75.7004 119.565 75.0416 118.609 74.4345Z" fill="#F4731C"/>
<path d="M121.383 71.526C120.883 71.34 120.339 71.2604 119.821 71.1139C118.124 70.635 116.423 70.1799 114.62 70.319C113.405 70.4132 112.239 70.6636 111.148 71.2695C111.227 71.3248 111.254 71.3601 111.282 71.3607C111.478 71.3637 111.676 71.3728 111.871 71.3552C113.402 71.2203 114.859 71.4306 116.179 72.1993C116.812 72.567 117.411 72.9857 118.016 73.3935C118.836 73.946 119.661 74.4747 120.738 74.4504C121.535 74.4321 122.132 74.0013 122.271 73.3273C122.429 72.567 122.074 71.783 121.383 71.526Z" fill="#F4731C"/>
<path d="M55.0156 57.8456C55.0565 57.216 54.2654 56.5183 53.5366 56.5195C52.9854 56.5201 52.5427 56.8465 52.5277 57.2634C52.5069 57.8644 53.3481 58.5287 54.1412 58.5384C54.6548 58.5524 54.9831 58.3439 55.0156 57.8456Z" fill="white"/>
<path d="M53.4146 59.9895C53.4848 60.1797 53.7474 60.3085 53.9294 60.4629C54.0796 60.2988 54.3318 60.1432 54.3494 59.9676C54.3637 59.823 54.101 59.6534 53.8534 59.3738C53.6349 59.6656 53.3729 59.8758 53.4146 59.9895Z" fill="white"/>
<path d="M85.0586 46.8427C85.1789 47.3817 85.2868 47.8624 85.394 48.3438C85.7873 47.6114 85.6619 47.1538 85.0586 46.8427Z" fill="#F4731C"/>
<path d="M84.7188 45.4414C85.2213 44.982 85.2239 44.5614 84.7188 44.1311V45.4414Z" fill="#F4731C"/>
<path d="M72.8874 66.3078C71.933 65.2145 71.6327 63.9511 71.7738 62.5776C71.8713 61.6289 71.8849 61.6302 70.967 61.2716C69.7845 60.8097 69.6948 60.5648 70.3293 59.4879C70.4333 59.3111 70.5542 59.1415 70.6777 58.9756C71.4396 57.9491 72.4174 57.1785 73.8579 56.7756C73.6024 56.6292 73.4939 56.5556 73.3749 56.5015C71.2394 55.5219 68.5695 56.0099 66.6823 57.7225C63.679 60.4475 62.8625 65.9098 64.9349 69.3459C65.3341 70.0071 65.9699 70.2477 66.7181 70.2186C69.1448 70.1226 71.5183 70.3772 73.8417 71.0493C74.6543 71.2839 75.3447 71.0226 75.84 70.4222C77.0466 68.9618 77.1922 67.2006 77.3898 65.4552C77.1857 65.646 77.0323 65.8551 76.8906 66.0702C75.8296 67.6837 74.1719 67.7798 72.8874 66.3078Z" fill="white"/>
<path d="M72.8477 64.4456C73.0622 64.9598 73.1688 65.3992 73.4204 65.7462C73.5614 65.9413 73.971 66.1072 74.2083 66.0604C74.4371 66.0148 74.7413 65.6897 74.7615 65.4678C74.7992 65.0479 74.7173 64.5951 74.5736 64.1904C74.4248 63.7686 74.0445 63.4046 73.5471 63.6082C73.2481 63.731 73.0862 64.1442 72.8477 64.4456Z" fill="white"/>
<path d="M76.2945 60.4745C75.7809 60.4781 75.5339 60.7474 75.5313 61.2007C75.528 61.7088 76.4245 62.508 76.9861 62.4545C77.1734 62.4362 77.3346 62.1786 77.4113 62.1135C77.4028 61.1375 76.8925 60.4702 76.2945 60.4745Z" fill="white"/>
<path d="M76.2592 63.6818C76.0928 63.8264 75.8185 63.9553 75.7912 64.1206C75.7645 64.2786 75.994 64.4743 76.1994 64.7891C76.4478 64.4992 76.713 64.3235 76.6974 64.1734C76.6785 63.9978 76.4159 63.8447 76.2592 63.6818Z" fill="white"/>
</g>
</g>
<defs>
<clipPath id="clip0_3022_4634">
<rect width="300" height="121.546" fill="white" transform="translate(0.84375 0.435547)"/>
</clipPath>
</defs>
</svg>
