<svg width="431" height="232" viewBox="0 0 431 232" fill="none" xmlns="http://www.w3.org/2000/svg">
<g clip-path="url(#clip0_3758_6217)">
<mask id="mask0_3758_6217" style="mask-type:luminance" maskUnits="userSpaceOnUse" x="0" y="1" width="431" height="231">
<path d="M430.754 1.17188H0.753906V231.172H430.754V1.17188Z" fill="white"/>
</mask>
<g mask="url(#mask0_3758_6217)">
<path d="M430.754 1.17188H0.753906V231.172H430.754V1.17188Z" fill="white"/>
<path d="M430.754 1.17188H0.753906V231.172H430.754V1.17188Z" fill="white"/>
</g>
<path d="M221.658 130.013C220.421 130.013 219.335 129.76 218.398 129.254C217.461 128.748 216.683 127.961 216.065 126.893C215.465 125.844 215.015 124.485 214.715 122.818C214.416 121.15 214.266 119.164 214.266 116.859C214.266 114.535 214.416 112.549 214.715 110.9C215.015 109.232 215.465 107.874 216.065 106.824C216.683 105.756 217.461 104.979 218.398 104.491C219.335 103.985 220.421 103.732 221.658 103.732C221.846 103.732 222.005 103.798 222.136 103.929C222.267 104.06 222.333 104.22 222.333 104.407V106.093C222.333 106.281 222.267 106.44 222.136 106.571C222.024 106.702 221.883 106.768 221.714 106.768C220.946 106.806 220.3 107.03 219.775 107.443C219.25 107.836 218.829 108.445 218.51 109.27C218.21 110.075 217.995 111.106 217.864 112.362C217.732 113.617 217.667 115.116 217.667 116.859C217.667 118.602 217.732 120.101 217.864 121.356C217.995 122.612 218.21 123.652 218.51 124.476C218.829 125.301 219.25 125.91 219.775 126.303C220.3 126.715 220.946 126.94 221.714 126.978C221.883 126.978 222.024 127.043 222.136 127.174C222.267 127.306 222.333 127.465 222.333 127.652V129.339C222.333 129.526 222.267 129.685 222.136 129.817C222.005 129.948 221.846 130.013 221.658 130.013Z" fill="black"/>
<path d="M234.569 125.825C232.695 125.825 231.14 125.563 229.903 125.038C228.666 124.495 227.729 123.792 227.092 122.93C226.455 122.068 226.118 121.15 226.08 120.176C226.08 120.026 226.137 119.894 226.249 119.782C226.38 119.651 226.53 119.585 226.699 119.585H230.24C230.503 119.585 230.7 119.632 230.831 119.726C230.981 119.82 231.112 119.941 231.224 120.091C231.374 120.372 231.58 120.644 231.843 120.906C232.124 121.169 232.48 121.384 232.911 121.553C233.361 121.703 233.913 121.778 234.569 121.778C235.656 121.778 236.471 121.609 237.015 121.272C237.577 120.934 237.858 120.475 237.858 119.894C237.858 119.482 237.708 119.145 237.408 118.883C237.108 118.602 236.621 118.358 235.947 118.152C235.291 117.927 234.41 117.702 233.304 117.477C231.88 117.177 230.662 116.793 229.65 116.325C228.657 115.838 227.898 115.21 227.373 114.442C226.849 113.655 226.586 112.68 226.586 111.518C226.586 110.375 226.905 109.354 227.542 108.455C228.198 107.555 229.107 106.852 230.269 106.346C231.43 105.841 232.808 105.588 234.401 105.588C235.694 105.588 236.827 105.756 237.802 106.093C238.795 106.431 239.629 106.881 240.303 107.443C240.978 108.005 241.484 108.604 241.821 109.242C242.177 109.86 242.365 110.469 242.383 111.069C242.383 111.219 242.327 111.359 242.215 111.49C242.102 111.603 241.962 111.659 241.793 111.659H238.083C237.877 111.659 237.699 111.621 237.549 111.546C237.399 111.471 237.268 111.35 237.155 111.181C237.043 110.769 236.743 110.413 236.256 110.113C235.787 109.794 235.169 109.635 234.401 109.635C233.576 109.635 232.93 109.785 232.461 110.085C232.011 110.366 231.786 110.806 231.786 111.406C231.786 111.781 231.908 112.109 232.152 112.39C232.414 112.671 232.836 112.914 233.417 113.12C234.016 113.327 234.832 113.542 235.862 113.767C237.567 114.086 238.945 114.488 239.994 114.976C241.044 115.444 241.812 116.062 242.299 116.831C242.786 117.58 243.03 118.527 243.03 119.67C243.03 120.944 242.664 122.049 241.934 122.986C241.222 123.905 240.228 124.607 238.954 125.094C237.68 125.582 236.218 125.825 234.569 125.825Z" fill="black"/>
<path d="M247.896 125.544C247.69 125.544 247.521 125.479 247.39 125.347C247.259 125.198 247.193 125.029 247.193 124.841V122.087C247.193 121.825 247.24 121.609 247.334 121.44C247.446 121.272 247.54 121.15 247.615 121.075L256.666 110.057H248.149C247.961 110.057 247.793 109.991 247.643 109.86C247.512 109.729 247.446 109.56 247.446 109.354V106.571C247.446 106.365 247.512 106.197 247.643 106.065C247.793 105.934 247.961 105.869 248.149 105.869H262.315C262.521 105.869 262.69 105.934 262.821 106.065C262.971 106.197 263.046 106.365 263.046 106.571V109.298C263.046 109.504 263.009 109.682 262.934 109.832C262.878 109.982 262.793 110.122 262.681 110.253L253.883 121.3H262.653C262.859 121.3 263.027 121.375 263.159 121.525C263.309 121.656 263.383 121.825 263.383 122.031V124.841C263.383 125.048 263.309 125.216 263.159 125.347C263.027 125.479 262.859 125.544 262.653 125.544H247.896Z" fill="black"/>
<path d="M268.004 130.013C267.817 130.013 267.658 129.948 267.526 129.817C267.395 129.685 267.33 129.526 267.33 129.339V127.652C267.33 127.465 267.386 127.306 267.498 127.174C267.629 127.043 267.779 126.978 267.948 126.978C268.735 126.94 269.382 126.715 269.888 126.303C270.412 125.91 270.824 125.301 271.124 124.476C271.443 123.652 271.668 122.612 271.799 121.356C271.949 120.101 272.024 118.602 272.024 116.859C272.024 115.116 271.949 113.617 271.799 112.362C271.668 111.106 271.443 110.075 271.124 109.27C270.824 108.445 270.412 107.836 269.888 107.443C269.382 107.03 268.735 106.806 267.948 106.768C267.779 106.768 267.629 106.702 267.498 106.571C267.386 106.44 267.33 106.281 267.33 106.093V104.407C267.33 104.22 267.395 104.06 267.526 103.929C267.658 103.798 267.817 103.732 268.004 103.732C269.241 103.732 270.328 103.985 271.265 104.491C272.202 104.979 272.97 105.756 273.57 106.824C274.188 107.874 274.647 109.232 274.947 110.9C275.247 112.549 275.397 114.535 275.397 116.859C275.397 119.164 275.247 121.15 274.947 122.818C274.647 124.485 274.188 125.844 273.57 126.893C272.97 127.961 272.202 128.748 271.265 129.254C270.328 129.76 269.241 130.013 268.004 130.013Z" fill="black"/>
<path d="M281.73 125.544C281.524 125.544 281.356 125.479 281.224 125.347C281.093 125.216 281.028 125.048 281.028 124.841V106.571C281.028 106.365 281.093 106.197 281.224 106.065C281.356 105.934 281.524 105.869 281.73 105.869H285.272C285.478 105.869 285.647 105.934 285.778 106.065C285.909 106.197 285.975 106.365 285.975 106.571V112.811L291.175 106.403C291.25 106.29 291.372 106.178 291.54 106.065C291.728 105.934 291.971 105.869 292.271 105.869H296.319C296.487 105.869 296.628 105.934 296.74 106.065C296.853 106.178 296.909 106.309 296.909 106.459C296.909 106.59 296.872 106.702 296.797 106.796L290.079 115.285L297.331 124.617C297.406 124.692 297.443 124.804 297.443 124.954C297.443 125.104 297.377 125.244 297.246 125.376C297.134 125.488 297.003 125.544 296.853 125.544H292.665C292.327 125.544 292.065 125.469 291.878 125.319C291.709 125.169 291.597 125.057 291.54 124.982L285.975 118.039V124.841C285.975 125.048 285.909 125.216 285.778 125.347C285.647 125.479 285.478 125.544 285.272 125.544H281.73Z" fill="black"/>
<path d="M302.59 125.544C302.384 125.544 302.215 125.479 302.084 125.347C301.953 125.216 301.887 125.048 301.887 124.841V106.571C301.887 106.365 301.953 106.197 302.084 106.065C302.215 105.934 302.384 105.869 302.59 105.869H310.236C312.653 105.869 314.555 106.431 315.942 107.555C317.347 108.661 318.05 110.235 318.05 112.277C318.05 113.608 317.722 114.732 317.066 115.65C316.429 116.568 315.586 117.262 314.536 117.73L318.415 124.645C318.471 124.757 318.499 124.86 318.499 124.954C318.499 125.104 318.434 125.244 318.303 125.376C318.19 125.488 318.05 125.544 317.881 125.544H314.171C313.815 125.544 313.552 125.46 313.384 125.291C313.215 125.104 313.093 124.935 313.018 124.785L309.814 118.602H306.919V124.841C306.919 125.048 306.853 125.216 306.722 125.347C306.591 125.479 306.422 125.544 306.216 125.544H302.59ZM306.919 114.638H310.179C311.06 114.638 311.716 114.423 312.147 113.992C312.597 113.561 312.822 112.971 312.822 112.221C312.822 111.49 312.606 110.9 312.175 110.45C311.763 110 311.098 109.776 310.179 109.776H306.919V114.638Z" fill="black"/>
<path d="M322.446 125.544C322.296 125.544 322.156 125.488 322.024 125.376C321.912 125.244 321.856 125.104 321.856 124.954C321.856 124.86 321.865 124.776 321.884 124.701L328.489 106.656C328.546 106.45 328.658 106.272 328.827 106.122C329.014 105.953 329.267 105.869 329.586 105.869H333.746C334.064 105.869 334.308 105.953 334.476 106.122C334.664 106.272 334.786 106.45 334.842 106.656L341.419 124.701C341.457 124.776 341.475 124.86 341.475 124.954C341.475 125.104 341.41 125.244 341.279 125.376C341.166 125.488 341.026 125.544 340.857 125.544H337.4C337.119 125.544 336.903 125.479 336.753 125.347C336.622 125.198 336.538 125.066 336.5 124.954L335.404 122.087H327.899L326.831 124.954C326.793 125.066 326.709 125.198 326.578 125.347C326.447 125.479 326.222 125.544 325.903 125.544H322.446ZM329.052 118.039H334.28L331.638 110.619L329.052 118.039Z" fill="black"/>
<path d="M346.642 125.544C346.436 125.544 346.268 125.479 346.136 125.347C346.005 125.216 345.94 125.048 345.94 124.841V106.571C345.94 106.365 346.005 106.197 346.136 106.065C346.268 105.934 346.436 105.869 346.642 105.869H355.215C356.827 105.869 358.148 106.093 359.179 106.543C360.209 106.993 360.968 107.639 361.456 108.483C361.962 109.307 362.215 110.291 362.215 111.434C362.215 112.109 362.083 112.708 361.821 113.233C361.577 113.739 361.268 114.16 360.893 114.498C360.537 114.835 360.2 115.079 359.882 115.229C360.594 115.566 361.221 116.119 361.765 116.887C362.327 117.655 362.608 118.555 362.608 119.585C362.608 120.822 362.327 121.89 361.765 122.79C361.221 123.67 360.416 124.354 359.347 124.841C358.298 125.31 357.005 125.544 355.468 125.544H346.642ZM350.971 121.89H354.906C355.712 121.89 356.321 121.656 356.733 121.187C357.146 120.719 357.352 120.185 357.352 119.585C357.352 118.929 357.136 118.377 356.705 117.927C356.293 117.477 355.693 117.252 354.906 117.252H350.971V121.89ZM350.971 113.683H354.653C355.422 113.683 355.993 113.486 356.368 113.092C356.761 112.699 356.958 112.193 356.958 111.575C356.958 110.975 356.761 110.488 356.368 110.113C355.993 109.719 355.422 109.523 354.653 109.523H350.971V113.683Z" fill="black"/>
<path d="M219.736 148.254C218.69 148.254 217.813 148.102 217.105 147.799C216.408 147.484 215.874 147.079 215.503 146.584C215.143 146.079 214.952 145.55 214.929 144.999C214.929 144.898 214.963 144.814 215.03 144.746C215.098 144.679 215.182 144.645 215.283 144.645H216.784C216.931 144.645 217.037 144.679 217.105 144.746C217.184 144.802 217.251 144.876 217.307 144.965C217.375 145.179 217.504 145.393 217.695 145.606C217.886 145.809 218.145 145.977 218.471 146.112C218.808 146.247 219.23 146.315 219.736 146.315C220.545 146.315 221.147 146.18 221.54 145.91C221.945 145.64 222.147 145.275 222.147 144.814C222.147 144.488 222.041 144.229 221.827 144.038C221.613 143.836 221.282 143.656 220.832 143.498C220.393 143.33 219.809 143.155 219.078 142.975C218.235 142.773 217.526 142.531 216.953 142.25C216.391 141.958 215.964 141.592 215.671 141.154C215.39 140.716 215.25 140.159 215.25 139.484C215.25 138.832 215.424 138.253 215.772 137.747C216.132 137.241 216.638 136.842 217.29 136.55C217.954 136.258 218.741 136.111 219.651 136.111C220.382 136.111 221.029 136.213 221.591 136.415C222.153 136.606 222.62 136.865 222.991 137.191C223.362 137.506 223.643 137.849 223.834 138.22C224.036 138.579 224.143 138.933 224.154 139.282C224.154 139.372 224.121 139.456 224.053 139.535C223.997 139.602 223.913 139.636 223.8 139.636H222.232C222.142 139.636 222.052 139.614 221.962 139.569C221.872 139.524 221.799 139.439 221.743 139.316C221.675 138.967 221.456 138.669 221.085 138.422C220.714 138.175 220.236 138.051 219.651 138.051C219.044 138.051 218.555 138.163 218.184 138.388C217.813 138.613 217.628 138.962 217.628 139.434C217.628 139.749 217.718 140.013 217.897 140.226C218.089 140.429 218.387 140.609 218.791 140.766C219.207 140.924 219.753 141.092 220.427 141.272C221.383 141.486 222.164 141.733 222.771 142.014C223.379 142.295 223.823 142.655 224.104 143.093C224.385 143.521 224.525 144.066 224.525 144.729C224.525 145.471 224.323 146.107 223.918 146.635C223.525 147.152 222.968 147.551 222.249 147.832C221.529 148.114 220.691 148.254 219.736 148.254Z" fill="black"/>
<path d="M227.554 148.085C227.442 148.085 227.346 148.046 227.268 147.967C227.189 147.889 227.15 147.787 227.15 147.664V146.483C227.15 146.315 227.183 146.18 227.251 146.079C227.318 145.977 227.369 145.904 227.403 145.859L233.272 138.27H227.723C227.599 138.27 227.498 138.231 227.42 138.152C227.352 138.073 227.318 137.978 227.318 137.865V136.702C227.318 136.578 227.352 136.477 227.42 136.398C227.498 136.319 227.599 136.28 227.723 136.28H235.785C235.908 136.28 236.009 136.319 236.088 136.398C236.167 136.477 236.206 136.578 236.206 136.702V137.865C236.206 138 236.184 138.113 236.139 138.203C236.094 138.293 236.043 138.377 235.987 138.456L230.236 146.079H235.97C236.094 146.079 236.195 146.118 236.274 146.197C236.352 146.275 236.392 146.376 236.392 146.5V147.681C236.392 147.793 236.352 147.889 236.274 147.967C236.195 148.046 236.094 148.085 235.97 148.085H227.554Z" fill="black"/>
<path d="M240.102 148.085C239.99 148.085 239.894 148.046 239.815 147.967C239.737 147.889 239.697 147.793 239.697 147.681V136.702C239.697 136.578 239.737 136.477 239.815 136.398C239.894 136.319 239.99 136.28 240.102 136.28H241.586C241.71 136.28 241.811 136.319 241.89 136.398C241.968 136.477 242.008 136.578 242.008 136.702V140.648L245.819 136.584C245.864 136.527 245.937 136.466 246.039 136.398C246.151 136.319 246.297 136.28 246.477 136.28H248.147C248.237 136.28 248.315 136.314 248.383 136.381C248.462 136.449 248.501 136.533 248.501 136.634C248.501 136.713 248.478 136.78 248.433 136.837L243.796 141.93L248.754 147.512C248.81 147.579 248.838 147.653 248.838 147.731C248.838 147.832 248.799 147.917 248.72 147.984C248.653 148.052 248.574 148.085 248.484 148.085H246.747C246.556 148.085 246.404 148.046 246.292 147.967C246.19 147.877 246.123 147.816 246.089 147.782L242.008 143.313V147.681C242.008 147.793 241.968 147.889 241.89 147.967C241.811 148.046 241.71 148.085 241.586 148.085H240.102Z" fill="black"/>
<path d="M255.63 148.254C254.629 148.254 253.769 148.091 253.049 147.765C252.33 147.428 251.768 146.916 251.363 146.23C250.958 145.533 250.739 144.668 250.705 143.633C250.694 143.15 250.688 142.672 250.688 142.2C250.688 141.727 250.694 141.244 250.705 140.749C250.739 139.726 250.964 138.872 251.38 138.186C251.796 137.5 252.364 136.983 253.083 136.634C253.814 136.286 254.663 136.111 255.63 136.111C256.597 136.111 257.446 136.286 258.176 136.634C258.907 136.983 259.481 137.5 259.897 138.186C260.313 138.872 260.538 139.726 260.571 140.749C260.594 141.244 260.605 141.727 260.605 142.2C260.605 142.672 260.594 143.15 260.571 143.633C260.538 144.668 260.318 145.533 259.914 146.23C259.509 146.916 258.941 147.428 258.21 147.765C257.491 148.091 256.63 148.254 255.63 148.254ZM255.63 146.315C256.361 146.315 256.957 146.101 257.418 145.674C257.879 145.235 258.126 144.527 258.16 143.549C258.182 143.054 258.193 142.599 258.193 142.183C258.193 141.756 258.182 141.3 258.16 140.817C258.137 140.165 258.013 139.636 257.789 139.231C257.575 138.815 257.283 138.517 256.912 138.338C256.541 138.146 256.113 138.051 255.63 138.051C255.158 138.051 254.736 138.146 254.365 138.338C253.994 138.517 253.696 138.815 253.471 139.231C253.257 139.636 253.139 140.165 253.117 140.817C253.106 141.3 253.1 141.756 253.1 142.183C253.1 142.599 253.106 143.054 253.117 143.549C253.151 144.527 253.398 145.235 253.859 145.674C254.32 146.101 254.91 146.315 255.63 146.315Z" fill="black"/>
<path d="M264.709 148.085C264.596 148.085 264.501 148.046 264.422 147.967C264.343 147.889 264.304 147.793 264.304 147.681V143.616L263.595 143.886C263.517 143.92 263.449 143.937 263.393 143.937C263.303 143.937 263.224 143.909 263.157 143.852C263.089 143.796 263.056 143.717 263.056 143.616V142.689C263.056 142.554 263.084 142.453 263.14 142.385C263.196 142.306 263.292 142.245 263.427 142.2L264.304 141.879V136.685C264.304 136.572 264.343 136.477 264.422 136.398C264.501 136.319 264.596 136.28 264.709 136.28H266.277C266.389 136.28 266.485 136.319 266.564 136.398C266.642 136.477 266.682 136.572 266.682 136.685V140.935L269.127 139.99C269.217 139.957 269.285 139.94 269.33 139.94C269.42 139.94 269.498 139.968 269.566 140.024C269.633 140.08 269.667 140.159 269.667 140.26V141.188C269.667 141.323 269.639 141.424 269.583 141.491C269.526 141.548 269.431 141.604 269.296 141.66L266.682 142.689V146.079H272.045C272.157 146.079 272.253 146.118 272.332 146.197C272.41 146.275 272.45 146.371 272.45 146.483V147.681C272.45 147.793 272.41 147.889 272.332 147.967C272.253 148.046 272.157 148.085 272.045 148.085H264.709Z" fill="black"/>
<path d="M274.708 148.085C274.618 148.085 274.533 148.052 274.455 147.984C274.387 147.917 274.354 147.832 274.354 147.731C274.354 147.686 274.365 147.636 274.387 147.579L278.452 136.702C278.485 136.589 278.547 136.494 278.637 136.415C278.738 136.325 278.873 136.28 279.042 136.28H280.88C281.049 136.28 281.178 136.325 281.268 136.415C281.358 136.494 281.426 136.589 281.471 136.702L285.535 147.579C285.546 147.636 285.552 147.686 285.552 147.731C285.552 147.832 285.518 147.917 285.451 147.984C285.383 148.052 285.305 148.085 285.215 148.085H283.747C283.59 148.085 283.472 148.052 283.393 147.984C283.326 147.906 283.281 147.832 283.258 147.765L282.466 145.707H277.457L276.664 147.765C276.642 147.832 276.591 147.906 276.512 147.984C276.445 148.052 276.332 148.085 276.175 148.085H274.708ZM278.047 143.768H281.875L279.953 138.557L278.047 143.768Z" fill="black"/>
<path d="M293.639 148.085C293.526 148.085 293.431 148.046 293.352 147.967C293.273 147.889 293.234 147.793 293.234 147.681V136.702C293.234 136.578 293.273 136.477 293.352 136.398C293.431 136.319 293.526 136.28 293.639 136.28H298.159C299.036 136.28 299.8 136.421 300.452 136.702C301.105 136.972 301.61 137.388 301.97 137.95C302.33 138.501 302.51 139.192 302.51 140.024C302.51 140.867 302.33 141.564 301.97 142.115C301.61 142.655 301.105 143.06 300.452 143.33C299.8 143.599 299.036 143.734 298.159 143.734H295.646V147.681C295.646 147.793 295.606 147.889 295.528 147.967C295.46 148.046 295.365 148.085 295.241 148.085H293.639ZM295.612 141.862H298.074C298.727 141.862 299.227 141.711 299.575 141.407C299.924 141.092 300.098 140.631 300.098 140.024C300.098 139.462 299.935 139.012 299.609 138.675C299.283 138.326 298.772 138.152 298.074 138.152H295.612V141.862Z" fill="black"/>
<path d="M306.24 148.085C306.128 148.085 306.032 148.046 305.953 147.967C305.875 147.889 305.835 147.793 305.835 147.681V143.616L305.127 143.886C305.048 143.92 304.981 143.937 304.925 143.937C304.835 143.937 304.756 143.909 304.689 143.852C304.621 143.796 304.587 143.717 304.587 143.616V142.689C304.587 142.554 304.615 142.453 304.672 142.385C304.728 142.306 304.823 142.245 304.958 142.2L305.835 141.879V136.685C305.835 136.572 305.875 136.477 305.953 136.398C306.032 136.319 306.128 136.28 306.24 136.28H307.809C307.921 136.28 308.017 136.319 308.095 136.398C308.174 136.477 308.213 136.572 308.213 136.685V140.935L310.659 139.99C310.749 139.957 310.816 139.94 310.861 139.94C310.951 139.94 311.03 139.968 311.097 140.024C311.165 140.08 311.198 140.159 311.198 140.26V141.188C311.198 141.323 311.17 141.424 311.114 141.491C311.058 141.548 310.962 141.604 310.827 141.66L308.213 142.689V146.079H313.576C313.689 146.079 313.784 146.118 313.863 146.197C313.942 146.275 313.981 146.371 313.981 146.483V147.681C313.981 147.793 313.942 147.889 313.863 147.967C313.784 148.046 313.689 148.085 313.576 148.085H306.24Z" fill="black"/>
<path d="M318.727 148.085C318.614 148.085 318.519 148.046 318.44 147.967C318.361 147.889 318.322 147.793 318.322 147.681V143.869L314.342 136.82C314.33 136.797 314.319 136.769 314.308 136.735C314.297 136.702 314.291 136.668 314.291 136.634C314.291 136.533 314.325 136.449 314.392 136.381C314.46 136.314 314.538 136.28 314.628 136.28H316.129C316.264 136.28 316.371 136.314 316.45 136.381C316.54 136.449 316.602 136.522 316.635 136.601L319.502 141.508L322.353 136.601C322.398 136.522 322.459 136.449 322.538 136.381C322.628 136.314 322.741 136.28 322.875 136.28H324.36C324.461 136.28 324.545 136.314 324.613 136.381C324.68 136.449 324.714 136.533 324.714 136.634C324.714 136.668 324.708 136.702 324.697 136.735C324.697 136.769 324.686 136.797 324.663 136.82L320.683 143.869V147.681C320.683 147.793 320.644 147.889 320.565 147.967C320.486 148.046 320.385 148.085 320.261 148.085H318.727Z" fill="black"/>
<path d="M329.707 148.085C329.538 148.085 329.403 148.04 329.302 147.951C329.212 147.849 329.15 147.726 329.117 147.579L327.11 136.769C327.11 136.735 327.104 136.707 327.093 136.685C327.093 136.662 327.093 136.645 327.093 136.634C327.093 136.533 327.127 136.449 327.194 136.381C327.273 136.314 327.357 136.28 327.447 136.28H328.931C329.212 136.28 329.37 136.393 329.403 136.617L330.803 144.257L332.321 139.316C332.355 139.226 332.411 139.136 332.49 139.046C332.58 138.945 332.709 138.894 332.878 138.894H333.788C333.968 138.894 334.097 138.945 334.176 139.046C334.255 139.136 334.305 139.226 334.328 139.316L335.863 144.24L337.262 136.617C337.296 136.393 337.454 136.28 337.735 136.28H339.219C339.309 136.28 339.387 136.314 339.455 136.381C339.522 136.449 339.556 136.533 339.556 136.634C339.556 136.645 339.556 136.662 339.556 136.685C339.556 136.707 339.55 136.735 339.539 136.769L337.532 147.579C337.51 147.726 337.448 147.849 337.347 147.951C337.246 148.04 337.111 148.085 336.942 148.085H335.812C335.643 148.085 335.508 148.04 335.407 147.951C335.317 147.861 335.256 147.765 335.222 147.664L333.333 142.031L331.444 147.664C331.399 147.765 331.332 147.861 331.242 147.951C331.152 148.04 331.017 148.085 330.837 148.085H329.707Z" fill="black"/>
<path d="M341.683 148.085C341.593 148.085 341.508 148.052 341.43 147.984C341.362 147.917 341.328 147.832 341.328 147.731C341.328 147.686 341.34 147.636 341.362 147.579L345.427 136.702C345.46 136.589 345.522 136.494 345.612 136.415C345.713 136.325 345.848 136.28 346.017 136.28H347.855C348.024 136.28 348.153 136.325 348.243 136.415C348.333 136.494 348.4 136.589 348.445 136.702L352.51 147.579C352.521 147.636 352.527 147.686 352.527 147.731C352.527 147.832 352.493 147.917 352.426 147.984C352.358 148.052 352.279 148.085 352.19 148.085H350.722C350.565 148.085 350.447 148.052 350.368 147.984C350.301 147.906 350.256 147.832 350.233 147.765L349.441 145.707H344.432L343.639 147.765C343.616 147.832 343.566 147.906 343.487 147.984C343.42 148.052 343.307 148.085 343.15 148.085H341.683ZM345.022 143.768H348.85L346.928 138.557L345.022 143.768Z" fill="black"/>
<path d="M355.855 148.085C355.743 148.085 355.647 148.046 355.569 147.967C355.49 147.889 355.451 147.793 355.451 147.681V136.702C355.451 136.578 355.49 136.477 355.569 136.398C355.647 136.319 355.743 136.28 355.855 136.28H357.154C357.311 136.28 357.424 136.319 357.491 136.398C357.57 136.466 357.621 136.516 357.643 136.55L362.5 144.105V136.702C362.5 136.578 362.534 136.477 362.601 136.398C362.68 136.319 362.781 136.28 362.905 136.28H364.322C364.445 136.28 364.546 136.319 364.625 136.398C364.704 136.477 364.743 136.578 364.743 136.702V147.664C364.743 147.787 364.704 147.889 364.625 147.967C364.546 148.046 364.451 148.085 364.338 148.085H363.023C362.866 148.085 362.753 148.046 362.686 147.967C362.618 147.889 362.568 147.838 362.534 147.816L357.694 140.429V147.681C357.694 147.793 357.654 147.889 357.576 147.967C357.497 148.046 357.396 148.085 357.272 148.085H355.855Z" fill="black"/>
<path d="M369.129 148.085C369.016 148.085 368.921 148.046 368.842 147.967C368.763 147.889 368.724 147.793 368.724 147.681V136.685C368.724 136.572 368.763 136.477 368.842 136.398C368.921 136.319 369.016 136.28 369.129 136.28H370.714C370.838 136.28 370.933 136.319 371.001 136.398C371.079 136.477 371.119 136.572 371.119 136.685V147.681C371.119 147.793 371.079 147.889 371.001 147.967C370.933 148.046 370.838 148.085 370.714 148.085H369.129Z" fill="black"/>
<path d="M374.388 148.085C374.298 148.085 374.213 148.052 374.135 147.984C374.067 147.917 374.034 147.832 374.034 147.731C374.034 147.686 374.045 147.636 374.067 147.579L378.132 136.702C378.165 136.589 378.227 136.494 378.317 136.415C378.418 136.325 378.553 136.28 378.722 136.28H380.56C380.729 136.28 380.858 136.325 380.948 136.415C381.038 136.494 381.106 136.589 381.151 136.702L385.215 147.579C385.226 147.636 385.232 147.686 385.232 147.731C385.232 147.832 385.198 147.917 385.131 147.984C385.063 148.052 384.985 148.085 384.895 148.085H383.427C383.27 148.085 383.152 148.052 383.073 147.984C383.006 147.906 382.961 147.832 382.938 147.765L382.146 145.707H377.137L376.344 147.765C376.322 147.832 376.271 147.906 376.192 147.984C376.125 148.052 376.012 148.085 375.855 148.085H374.388ZM377.727 143.768H381.555L379.633 138.557L377.727 143.768Z" fill="black"/>
<path fill-rule="evenodd" clip-rule="evenodd" d="M186.627 103.335C195.904 104.115 204.036 97.4857 204.79 88.5272C205.544 79.5687 198.634 71.6737 189.357 70.8932C185.376 70.5583 181.606 71.5878 178.539 73.5804C183.572 82.7787 184.52 89.5816 172.023 81.8071C171.592 83.0397 171.308 84.3435 171.194 85.7008C170.775 90.6891 172.731 95.3478 176.149 98.6319C178.87 101.246 182.516 102.989 186.627 103.335Z" fill="#DF4030"/>
<path d="M186.627 103.335C182.516 102.989 178.87 101.246 176.149 98.6319C176.981 104.88 174.536 104.168 167.91 103.411L167.873 113.224C176.929 111.685 181.272 109.834 186.627 103.335Z" fill="#DF4030"/>
<path d="M186.627 103.335C195.904 104.115 204.036 97.4857 204.79 88.5272C205.544 79.5687 198.634 71.6737 189.357 70.8932C185.376 70.5583 181.606 71.5878 178.539 73.5804C183.572 82.7787 184.52 89.5816 172.023 81.8071C171.592 83.0397 171.308 84.3435 171.194 85.7008C170.775 90.6891 172.731 95.3478 176.149 98.6319M186.627 103.335C182.516 102.989 178.87 101.246 176.149 98.6319M186.627 103.335C181.272 109.834 176.929 111.685 167.873 113.224L167.91 103.411C174.536 104.168 176.981 104.88 176.149 98.6319" stroke="black"/>
<path fill-rule="evenodd" clip-rule="evenodd" d="M65.2906 105.788C56.0135 106.568 47.8819 99.9388 47.1281 90.9803C46.3744 82.0218 53.284 74.1268 62.5612 73.3463C66.5421 73.0114 70.3121 74.0409 73.3788 76.0335C68.3458 85.2318 67.3977 92.0347 79.8947 84.2602C80.326 85.4929 80.6095 86.7967 80.7237 88.1539C81.1434 93.1423 79.187 97.8009 75.7688 101.085C73.0484 103.699 69.402 105.442 65.2906 105.788Z" fill="#DF4030"/>
<path d="M65.2906 105.788C69.402 105.442 73.0484 103.699 75.7688 101.085C74.9371 107.333 77.382 106.621 84.0079 105.864L84.0454 115.678C74.9887 114.138 70.6458 112.287 65.2906 105.788Z" fill="#DF4030"/>
<path d="M65.2906 105.788C56.0135 106.568 47.8819 99.9388 47.1281 90.9803C46.3744 82.0218 53.284 74.1268 62.5612 73.3463C66.5421 73.0114 70.3121 74.0409 73.3788 76.0335C68.3458 85.2318 67.3977 92.0347 79.8947 84.2602C80.326 85.4929 80.6095 86.7967 80.7237 88.1539C81.1434 93.1423 79.187 97.8009 75.7688 101.085M65.2906 105.788C69.402 105.442 73.0484 103.699 75.7688 101.085M65.2906 105.788C70.6458 112.287 74.9887 114.138 84.0454 115.678L84.0079 105.864C77.382 106.621 74.9371 107.333 75.7688 101.085" stroke="black"/>
<path d="M85.6251 138.11L92.9789 128.985L90.3919 126.465L82.7645 133.411C80.7284 135.236 80.5358 136.306 82.7645 138.11C83.9771 138.368 84.5869 138.402 85.6251 138.11Z" fill="#DF4030"/>
<path d="M85.6251 138.11C84.5869 138.402 83.9771 138.368 82.7645 138.11L81.2485 143.543L85.0551 147.315L85.6251 138.11Z" fill="#DF4030"/>
<path d="M85.0551 147.315C83.332 148.371 82.4206 148.607 80.2708 148.57C84.6894 156.345 88.3137 158.558 96.1616 159.202C97.3884 157.673 90.4676 152.554 85.0551 147.315Z" fill="#DF4030"/>
<path d="M85.0551 147.315L81.2485 143.543L79.6817 146.607C79.5491 147.428 79.6993 147.855 80.2708 148.57C82.4206 148.607 83.332 148.371 85.0551 147.315Z" fill="#DF4030"/>
<path d="M85.6251 138.11L92.9789 128.985L90.3919 126.465L82.7645 133.411C80.7284 135.236 80.5358 136.306 82.7645 138.11M85.6251 138.11C84.5869 138.402 83.9771 138.368 82.7645 138.11M85.6251 138.11L85.0551 147.315M82.7645 138.11L81.2485 143.543M81.2485 143.543L85.0551 147.315M81.2485 143.543L79.6817 146.607C79.5491 147.428 79.6993 147.855 80.2708 148.57M85.0551 147.315C83.332 148.371 82.4206 148.607 80.2708 148.57M85.0551 147.315C90.4676 152.554 97.3884 157.673 96.1616 159.202C88.3137 158.558 84.6894 156.345 80.2708 148.57" stroke="black"/>
<path d="M89.724 125.748L77.571 133.151L73.1361 143.434C77.1666 151.645 82.9699 160.338 80.9397 161.58C72.2377 157.619 69.0066 153.601 67.1537 142.902C66.7949 141.849 66.7986 141.3 67.2874 140.417L70.3373 137.56L74.3026 131.975C72.4979 128.998 73.1576 127.855 76.234 126.607L87.8039 121.805L89.724 125.748Z" fill="#DF4030"/>
<path d="M77.571 133.151L89.724 125.748L87.8039 121.805L76.234 126.607C73.1576 127.855 72.4979 128.998 74.3026 131.975M77.571 133.151C76.2646 133.058 75.582 132.769 74.3026 131.975M77.571 133.151L73.1361 143.434M74.3026 131.975L70.3373 137.56M70.3373 137.56L73.1361 143.434M70.3373 137.56L67.2874 140.417C66.7986 141.3 66.7949 141.849 67.1537 142.902M73.1361 143.434C70.7332 143.933 69.5949 143.827 67.1537 142.902M73.1361 143.434C77.1666 151.645 82.9699 160.338 80.9397 161.58C72.2377 157.619 69.0066 153.601 67.1537 142.902" stroke="black"/>
<path d="M88.5819 121.556L72.8534 123.195L63.5003 131.404C63.633 141.568 65.3155 153.06 62.6851 153.34C55.8375 145.216 54.5092 139.642 57.7485 128.019C57.8899 126.791 58.1554 126.242 59.067 125.588L63.4905 124.173L70.1328 120.457C69.7402 116.608 70.9474 115.775 74.6305 115.989L88.5334 116.683L88.5819 121.556Z" fill="#DF4030"/>
<path d="M72.8534 123.195L88.5819 121.556L88.5334 116.683L74.6305 115.989C70.9474 115.775 69.7402 116.608 70.1328 120.457M72.8534 123.195C71.5861 122.48 71.0391 121.864 70.1328 120.457M72.8534 123.195L63.5003 131.404M70.1328 120.457L63.4905 124.173M63.4905 124.173L63.5003 131.404M63.4905 124.173L59.067 125.588C58.1554 126.242 57.8899 126.791 57.7485 128.019M63.5003 131.404C60.8505 130.76 59.7581 130.111 57.7485 128.019M63.5003 131.404C63.633 141.568 65.3155 153.06 62.6851 153.34C55.8375 145.216 54.5092 139.642 57.7485 128.019" stroke="black"/>
<path d="M164.894 138.997L157.541 129.871L160.128 127.352L167.755 134.298C169.791 136.122 169.984 137.192 167.755 138.997C166.542 139.255 165.933 139.289 164.894 138.997Z" fill="#DF4030"/>
<path d="M164.894 138.997C165.933 139.289 166.542 139.255 167.755 138.997L169.271 144.43L165.464 148.201L164.894 138.997Z" fill="#DF4030"/>
<path d="M165.464 148.201L169.271 144.43L170.838 147.494C170.97 148.315 170.82 148.741 170.249 149.457C168.099 149.493 167.188 149.258 165.464 148.201Z" fill="#DF4030"/>
<path d="M165.464 148.201C167.188 149.258 168.099 149.493 170.249 149.457C165.83 157.231 162.206 159.445 154.358 160.088C153.131 158.559 160.052 153.441 165.464 148.201Z" fill="#DF4030"/>
<path d="M164.894 138.997L157.541 129.871L160.128 127.352L167.755 134.298C169.791 136.122 169.984 137.192 167.755 138.997M164.894 138.997C165.933 139.289 166.542 139.255 167.755 138.997M164.894 138.997L165.464 148.201M167.755 138.997L169.271 144.43M169.271 144.43L165.464 148.201M169.271 144.43L170.838 147.494C170.97 148.315 170.82 148.741 170.249 149.457M165.464 148.201C167.188 149.258 168.099 149.493 170.249 149.457M165.464 148.201C160.052 153.441 153.131 158.559 154.358 160.088C162.206 159.445 165.83 157.231 170.249 149.457" stroke="black"/>
<path d="M172.96 134.042L160.807 126.638L162.727 122.696L174.297 127.497C177.374 128.745 178.033 129.888 176.229 132.866C174.949 133.659 174.267 133.949 172.96 134.042Z" fill="#DF4030"/>
<path d="M172.96 134.042C174.267 133.949 174.949 133.659 176.229 132.866L180.194 138.45L177.395 144.325L172.96 134.042Z" fill="#DF4030"/>
<path d="M177.395 144.325L180.194 138.45L183.244 141.308C183.733 142.191 183.736 142.74 183.378 143.792C180.936 144.718 179.798 144.823 177.395 144.325Z" fill="#DF4030"/>
<path d="M177.395 144.325C179.798 144.823 180.936 144.718 183.378 143.792C181.525 154.491 178.294 158.51 169.592 162.471C167.561 161.228 173.365 152.535 177.395 144.325Z" fill="#DF4030"/>
<path d="M172.96 134.042L160.807 126.638L162.727 122.696L174.297 127.497C177.374 128.745 178.033 129.888 176.229 132.866M172.96 134.042C174.267 133.949 174.949 133.659 176.229 132.866M172.96 134.042L177.395 144.325M176.229 132.866L180.194 138.45M180.194 138.45L177.395 144.325M180.194 138.45L183.244 141.308C183.733 142.191 183.736 142.74 183.378 143.792M177.395 144.325C179.798 144.823 180.936 144.718 183.378 143.792M177.395 144.325C173.365 152.535 167.561 161.228 169.592 162.471C178.294 158.51 181.525 154.491 183.378 143.792" stroke="black"/>
<path d="M178.436 123.195L162.707 121.556L162.756 116.683L176.659 115.989C180.342 115.775 181.549 116.608 181.156 120.457C180.25 121.864 179.703 122.48 178.436 123.195Z" fill="#DF4030"/>
<path d="M178.436 123.195C179.703 122.48 180.25 121.864 181.156 120.457L187.799 124.173L187.789 131.404L178.436 123.195Z" fill="#DF4030"/>
<path d="M187.789 131.404L187.799 124.173L192.222 125.588C193.134 126.242 193.399 126.791 193.541 128.019C191.531 130.111 190.439 130.76 187.789 131.404Z" fill="#DF4030"/>
<path d="M187.789 131.404C190.439 130.76 191.531 130.111 193.541 128.019C196.78 139.642 195.452 145.216 188.604 153.34C185.974 153.06 187.656 141.568 187.789 131.404Z" fill="#DF4030"/>
<path d="M178.436 123.195L162.707 121.556L162.756 116.683L176.659 115.989C180.342 115.775 181.549 116.608 181.156 120.457M178.436 123.195C179.703 122.48 180.25 121.864 181.156 120.457M178.436 123.195L187.789 131.404M181.156 120.457L187.799 124.173M187.799 124.173L187.789 131.404M187.799 124.173L192.222 125.588C193.134 126.242 193.399 126.791 193.541 128.019M187.789 131.404C190.439 130.76 191.531 130.111 193.541 128.019M187.789 131.404C187.656 141.568 185.974 153.06 188.604 153.34C195.452 145.216 196.78 139.642 193.541 128.019" stroke="black"/>
<path d="M125.095 139.513C99.335 137.276 86.9967 132.864 81.0977 106.107C91.7245 102.056 96.536 98.0817 107.444 91.7018C118.353 85.3218 132.151 85.8888 142.969 91.7018C153.786 97.5148 159.267 100.304 170.908 103.859C163.394 130.988 153.187 138.613 125.095 139.513Z" fill="#DF4030" stroke="black"/>
<path d="M143.243 72.293C149.589 72.293 154.732 77.437 154.732 83.7822C154.732 90.1274 149.589 95.2715 143.243 95.2715C136.898 95.2714 131.754 90.1274 131.754 83.7822C131.754 77.437 136.898 72.293 143.243 72.293Z" fill="#DF4030" stroke="black"/>
<path d="M153.068 85.3579C153.068 91.1065 148.408 95.7666 142.659 95.7666C136.91 95.7666 132.25 91.1065 132.25 85.3579C132.25 79.6094 136.91 74.9492 142.659 74.9492C148.408 74.9492 153.068 79.6094 153.068 85.3579Z" fill="white"/>
<path d="M142.655 78.4531C138.84 78.4531 135.747 81.5465 135.747 85.3613C135.747 89.1759 138.841 92.2686 142.655 92.2686C146.47 92.2684 149.562 89.1758 149.562 85.3613C149.562 84.5123 149.409 83.6986 149.129 82.9473C148.61 83.7986 147.675 84.3682 146.604 84.3682C144.971 84.368 143.648 83.0444 143.647 81.4111C143.647 80.3412 144.217 79.407 145.068 78.8877C144.317 78.6075 143.504 78.4532 142.655 78.4531Z" fill="black"/>
<path d="M102.39 73.8711C96.0442 73.8711 90.9004 79.0151 90.9004 85.3604C90.9005 91.7056 96.0443 96.8496 102.39 96.8496C108.735 96.8495 113.879 91.7055 113.879 85.3604C113.879 79.0151 108.735 73.8712 102.39 73.8711Z" fill="#DF4030" stroke="black"/>
<path d="M92.5572 86.9399C92.5572 92.6885 97.2174 97.3486 102.966 97.3486C108.715 97.3486 113.375 92.6885 113.375 86.9399C113.375 81.1914 108.715 76.5312 102.966 76.5312C97.2174 76.5312 92.5572 81.1914 92.5572 86.9399Z" fill="white"/>
<path d="M102.981 80.0352C106.796 80.0352 109.889 83.1276 109.889 86.9424C109.889 90.7572 106.796 93.8496 102.981 93.8496C99.1666 93.8496 96.0742 90.7572 96.0742 86.9424C96.0742 86.0935 96.2276 85.2805 96.5078 84.5293C97.0271 85.3803 97.9614 85.9501 99.0312 85.9502C100.665 85.9502 101.989 84.6256 101.989 82.9922C101.989 81.9221 101.419 80.9879 100.567 80.4688C101.319 80.1884 102.132 80.0352 102.981 80.0352Z" fill="black"/>
<g filter="url(#filter0_d_3758_6217)">
<path d="M109.891 106.229C110.346 106.525 110.783 106.806 111.234 107.086C115.28 109.564 119.66 111.874 124.582 112.3C129.567 112.791 134.248 110.293 137.841 107.266C138.258 106.923 138.647 106.587 139.053 106.229C138.606 106.535 138.179 106.819 137.728 107.113C133.788 109.715 129.308 111.762 124.659 111.303C120.033 110.912 115.623 108.926 111.325 106.919C110.847 106.692 110.379 106.467 109.891 106.229Z" fill="black"/>
</g>
<ellipse cx="0.87839" cy="0.878374" rx="0.87839" ry="0.878374" transform="matrix(-0.964483 0.264144 0.264154 0.964481 113.738 133.096)" fill="black" fill-opacity="0.62"/>
<ellipse cx="1.62554" cy="1.62551" rx="1.62554" ry="1.62551" transform="matrix(-0.964483 0.264144 0.264154 0.964481 107.75 129.893)" fill="black" fill-opacity="0.62"/>
<ellipse cx="1.08752" cy="1.0875" rx="1.08752" ry="1.0875" transform="matrix(-0.964483 0.264144 0.264154 0.964481 104.52 124.262)" fill="black" fill-opacity="0.62"/>
<ellipse cx="1.81502" cy="1.81499" rx="1.81502" ry="1.81499" transform="matrix(-0.964483 0.264144 0.264154 0.964481 98.8984 127.613)" fill="black" fill-opacity="0.62"/>
<ellipse cx="0.985786" cy="0.985769" rx="0.985786" ry="0.985769" transform="matrix(-0.964483 0.264144 0.264154 0.964481 96.043 122.055)" fill="black" fill-opacity="0.62"/>
<ellipse cx="144.07" cy="132.806" rx="0.878391" ry="0.878373" fill="black" fill-opacity="0.62"/>
<ellipse cx="149.743" cy="128.885" rx="1.62554" ry="1.6255" fill="black" fill-opacity="0.62"/>
<ellipse cx="150.834" cy="122.062" rx="1.08752" ry="1.0875" fill="black" fill-opacity="0.62"/>
<ellipse cx="157.858" cy="124.534" rx="1.81503" ry="1.81499" fill="black" fill-opacity="0.62"/>
<ellipse cx="158.322" cy="117.591" rx="0.985788" ry="0.985768" fill="black" fill-opacity="0.62"/>
<ellipse cx="102.79" cy="109.052" rx="4.91899" ry="4.39186" fill="#FFB5B5"/>
<ellipse cx="147.005" cy="109.052" rx="4.91899" ry="4.39186" fill="#FFB5B5"/>
</g>
<defs>
<filter id="filter0_d_3758_6217" x="105.891" y="106.229" width="37.1641" height="14.1328" filterUnits="userSpaceOnUse" color-interpolation-filters="sRGB">
<feFlood flood-opacity="0" result="BackgroundImageFix"/>
<feColorMatrix in="SourceAlpha" type="matrix" values="0 0 0 0 0 0 0 0 0 0 0 0 0 0 0 0 0 0 127 0" result="hardAlpha"/>
<feOffset dy="4"/>
<feGaussianBlur stdDeviation="2"/>
<feComposite in2="hardAlpha" operator="out"/>
<feColorMatrix type="matrix" values="0 0 0 0 0 0 0 0 0 0 0 0 0 0 0 0 0 0 0.25 0"/>
<feBlend mode="normal" in2="BackgroundImageFix" result="effect1_dropShadow_3758_6217"/>
<feBlend mode="normal" in="SourceGraphic" in2="effect1_dropShadow_3758_6217" result="shape"/>
</filter>
<clipPath id="clip0_3758_6217">
<rect width="431" height="231" fill="white" transform="translate(0 0.429688)"/>
</clipPath>
</defs>
</svg>
