<svg width="1251" height="345" viewBox="0 0 1251 345" fill="none" xmlns="http://www.w3.org/2000/svg">
<path d="M649.027 223.741C644.476 223.741 640.476 222.81 637.029 220.948C633.581 219.087 630.72 216.19 628.444 212.26C626.238 208.399 624.583 203.4 623.48 197.263C622.376 191.126 621.825 183.817 621.825 175.336C621.825 166.786 622.376 159.477 623.48 153.409C624.583 147.272 626.238 142.273 628.444 138.411C630.72 134.481 633.581 131.62 637.029 129.827C640.476 127.965 644.476 127.034 649.027 127.034C649.716 127.034 650.302 127.276 650.785 127.758C651.268 128.241 651.509 128.827 651.509 129.516V135.722C651.509 136.412 651.268 136.998 650.785 137.481C650.371 137.963 649.854 138.205 649.233 138.205C646.406 138.342 644.027 139.17 642.097 140.687C640.166 142.135 638.615 144.376 637.443 147.41C636.339 150.375 635.546 154.167 635.064 158.787C634.581 163.407 634.34 168.923 634.34 175.336C634.34 181.748 634.581 187.265 635.064 191.885C635.546 196.504 636.339 200.331 637.443 203.365C638.615 206.399 640.166 208.64 642.097 210.088C644.027 211.605 646.406 212.433 649.233 212.57C649.854 212.57 650.371 212.812 650.785 213.294C651.268 213.777 651.509 214.363 651.509 215.053V221.259C651.509 221.948 651.268 222.534 650.785 223.017C650.302 223.5 649.716 223.741 649.027 223.741Z" fill="white"/>
<path d="M696.534 208.33C689.639 208.33 683.916 207.364 679.365 205.434C674.814 203.434 671.367 200.848 669.022 197.677C666.678 194.505 665.437 191.126 665.299 187.54C665.299 186.989 665.506 186.506 665.919 186.092C666.402 185.61 666.954 185.368 667.574 185.368H680.606C681.572 185.368 682.296 185.541 682.778 185.886C683.33 186.23 683.813 186.679 684.226 187.23C684.778 188.264 685.536 189.264 686.502 190.23C687.536 191.195 688.846 191.988 690.432 192.609C692.087 193.16 694.121 193.436 696.534 193.436C700.534 193.436 703.533 192.815 705.533 191.574C707.601 190.333 708.636 188.644 708.636 186.506C708.636 184.989 708.084 183.748 706.981 182.783C705.878 181.748 704.085 180.852 701.602 180.094C699.189 179.266 695.948 178.439 691.88 177.611C686.64 176.508 682.158 175.094 678.434 173.371C674.78 171.578 671.987 169.268 670.057 166.441C668.126 163.545 667.161 159.959 667.161 155.684C667.161 151.478 668.333 147.72 670.677 144.41C673.091 141.101 676.435 138.515 680.71 136.653C684.985 134.791 690.053 133.861 695.914 133.861C700.672 133.861 704.843 134.481 708.429 135.722C712.083 136.963 715.152 138.618 717.634 140.687C720.116 142.755 721.978 144.962 723.219 147.306C724.529 149.582 725.219 151.823 725.288 154.029C725.288 154.581 725.081 155.098 724.667 155.581C724.253 155.994 723.736 156.201 723.116 156.201H709.463C708.705 156.201 708.05 156.063 707.498 155.788C706.946 155.512 706.464 155.064 706.05 154.443C705.636 152.926 704.533 151.616 702.74 150.513C701.016 149.34 698.741 148.754 695.914 148.754C692.88 148.754 690.501 149.306 688.777 150.409C687.122 151.444 686.295 153.064 686.295 155.27C686.295 156.65 686.743 157.856 687.64 158.89C688.605 159.925 690.156 160.821 692.294 161.58C694.5 162.338 697.5 163.131 701.292 163.959C707.567 165.131 712.635 166.613 716.496 168.406C720.358 170.13 723.185 172.405 724.977 175.232C726.77 177.99 727.667 181.473 727.667 185.679C727.667 190.368 726.322 194.436 723.633 197.883C721.013 201.262 717.358 203.848 712.669 205.641C707.981 207.433 702.602 208.33 696.534 208.33Z" fill="white"/>
<path d="M745.571 207.296C744.813 207.296 744.192 207.054 743.709 206.572C743.227 206.02 742.985 205.399 742.985 204.71V194.574C742.985 193.608 743.158 192.815 743.503 192.195C743.916 191.574 744.261 191.126 744.537 190.85L777.841 150.306H746.502C745.812 150.306 745.192 150.064 744.64 149.582C744.158 149.099 743.916 148.479 743.916 147.72V137.481C743.916 136.722 744.158 136.102 744.64 135.619C745.192 135.136 745.812 134.895 746.502 134.895H798.63C799.389 134.895 800.009 135.136 800.492 135.619C801.044 136.102 801.319 136.722 801.319 137.481V147.513C801.319 148.272 801.182 148.927 800.906 149.478C800.699 150.03 800.389 150.547 799.975 151.03L767.602 191.678H799.871C800.63 191.678 801.25 191.953 801.733 192.505C802.285 192.988 802.561 193.608 802.561 194.367V204.71C802.561 205.468 802.285 206.089 801.733 206.572C801.25 207.054 800.63 207.296 799.871 207.296H745.571Z" fill="white"/>
<path d="M819.563 223.741C818.874 223.741 818.288 223.5 817.805 223.017C817.322 222.534 817.081 221.948 817.081 221.259V215.053C817.081 214.363 817.288 213.777 817.702 213.294C818.184 212.812 818.736 212.57 819.356 212.57C822.253 212.433 824.631 211.605 826.493 210.088C828.424 208.64 829.941 206.399 831.044 203.365C832.216 200.331 833.044 196.504 833.526 191.885C834.078 187.265 834.354 181.748 834.354 175.336C834.354 168.923 834.078 163.407 833.526 158.787C833.044 154.167 832.216 150.375 831.044 147.41C829.941 144.376 828.424 142.135 826.493 140.687C824.631 139.17 822.253 138.342 819.356 138.205C818.736 138.205 818.184 137.963 817.702 137.481C817.288 136.998 817.081 136.412 817.081 135.722V129.516C817.081 128.827 817.322 128.241 817.805 127.758C818.288 127.276 818.874 127.034 819.563 127.034C824.114 127.034 828.113 127.965 831.561 129.827C835.009 131.62 837.836 134.481 840.042 138.411C842.318 142.273 844.007 147.272 845.11 153.409C846.214 159.477 846.765 166.786 846.765 175.336C846.765 183.817 846.214 191.126 845.11 197.263C844.007 203.4 842.318 208.399 840.042 212.26C837.836 216.19 835.009 219.087 831.561 220.948C828.113 222.81 824.114 223.741 819.563 223.741Z" fill="white"/>
<path d="M870.071 207.296C869.312 207.296 868.692 207.054 868.209 206.572C867.726 206.089 867.485 205.468 867.485 204.71V137.481C867.485 136.722 867.726 136.102 868.209 135.619C868.692 135.136 869.312 134.895 870.071 134.895H883.103C883.861 134.895 884.482 135.136 884.964 135.619C885.447 136.102 885.689 136.722 885.689 137.481V160.442L904.823 136.86C905.099 136.446 905.547 136.033 906.167 135.619C906.857 135.136 907.753 134.895 908.857 134.895H923.75C924.371 134.895 924.888 135.136 925.302 135.619C925.716 136.033 925.922 136.515 925.922 137.067C925.922 137.55 925.785 137.963 925.509 138.308L900.789 169.544L927.474 203.882C927.75 204.158 927.888 204.572 927.888 205.124C927.888 205.675 927.646 206.192 927.164 206.675C926.75 207.089 926.267 207.296 925.716 207.296H910.305C909.063 207.296 908.098 207.02 907.409 206.468C906.788 205.916 906.374 205.503 906.167 205.227L885.689 179.68V204.71C885.689 205.468 885.447 206.089 884.964 206.572C884.482 207.054 883.861 207.296 883.103 207.296H870.071Z" fill="white"/>
<path d="M946.826 207.296C946.068 207.296 945.447 207.054 944.965 206.572C944.482 206.089 944.241 205.468 944.241 204.71V137.481C944.241 136.722 944.482 136.102 944.965 135.619C945.447 135.136 946.068 134.895 946.826 134.895H974.959C983.854 134.895 990.853 136.963 995.955 141.101C1001.13 145.169 1003.71 150.961 1003.71 158.477C1003.71 163.372 1002.51 167.51 1000.09 170.888C997.748 174.267 994.645 176.818 990.784 178.542L1005.06 203.986C1005.26 204.4 1005.37 204.779 1005.37 205.124C1005.37 205.675 1005.13 206.192 1004.64 206.675C1004.23 207.089 1003.71 207.296 1003.09 207.296H989.439C988.129 207.296 987.164 206.985 986.543 206.365C985.923 205.675 985.474 205.055 985.199 204.503L973.408 181.748H962.755V204.71C962.755 205.468 962.513 206.089 962.031 206.572C961.548 207.054 960.927 207.296 960.169 207.296H946.826ZM962.755 167.165H974.752C977.993 167.165 980.406 166.372 981.992 164.786C983.647 163.2 984.475 161.028 984.475 158.27C984.475 155.581 983.682 153.409 982.096 151.754C980.579 150.099 978.131 149.272 974.752 149.272H962.755V167.165Z" fill="white"/>
<path d="M1019.89 207.296C1019.34 207.296 1018.82 207.089 1018.34 206.675C1017.92 206.192 1017.72 205.675 1017.72 205.124C1017.72 204.779 1017.75 204.468 1017.82 204.193L1042.13 137.791C1042.33 137.032 1042.75 136.377 1043.37 135.826C1044.06 135.205 1044.99 134.895 1046.16 134.895H1061.47C1062.64 134.895 1063.54 135.205 1064.16 135.826C1064.85 136.377 1065.29 137.032 1065.5 137.791L1089.7 204.193C1089.84 204.468 1089.91 204.779 1089.91 205.124C1089.91 205.675 1089.67 206.192 1089.19 206.675C1088.77 207.089 1088.26 207.296 1087.64 207.296H1074.91C1073.88 207.296 1073.09 207.054 1072.53 206.572C1072.05 206.02 1071.74 205.537 1071.6 205.124L1067.57 194.574H1039.95L1036.02 205.124C1035.89 205.537 1035.58 206.02 1035.09 206.572C1034.61 207.054 1033.78 207.296 1032.61 207.296H1019.89ZM1044.2 179.68H1063.43L1053.71 152.374L1044.2 179.68Z" fill="white"/>
<path d="M1108.92 207.296C1108.16 207.296 1107.54 207.054 1107.06 206.572C1106.58 206.089 1106.34 205.468 1106.34 204.71V137.481C1106.34 136.722 1106.58 136.102 1107.06 135.619C1107.54 135.136 1108.16 134.895 1108.92 134.895H1140.47C1146.4 134.895 1151.26 135.722 1155.05 137.377C1158.84 139.032 1161.64 141.411 1163.43 144.514C1165.29 147.548 1166.22 151.168 1166.22 155.374C1166.22 157.856 1165.74 160.063 1164.77 161.993C1163.88 163.855 1162.74 165.407 1161.36 166.648C1160.05 167.889 1158.81 168.785 1157.64 169.337C1160.26 170.578 1162.57 172.612 1164.57 175.439C1166.64 178.266 1167.67 181.576 1167.67 185.368C1167.67 189.919 1166.64 193.85 1164.57 197.159C1162.57 200.4 1159.6 202.917 1155.67 204.71C1151.81 206.434 1147.05 207.296 1141.4 207.296H1108.92ZM1124.85 193.85H1139.33C1142.3 193.85 1144.54 192.988 1146.05 191.264C1147.57 189.54 1148.33 187.575 1148.33 185.368C1148.33 182.955 1147.54 180.921 1145.95 179.266C1144.43 177.611 1142.23 176.784 1139.33 176.784H1124.85V193.85ZM1124.85 163.648H1138.4C1141.23 163.648 1143.33 162.924 1144.71 161.476C1146.16 160.028 1146.88 158.166 1146.88 155.891C1146.88 153.685 1146.16 151.892 1144.71 150.513C1143.33 149.065 1141.23 148.341 1138.4 148.341H1124.85V163.648Z" fill="white"/>
<path d="M641.953 290.862C638.105 290.862 634.878 290.303 632.272 289.186C629.707 288.028 627.742 286.538 626.376 284.718C625.052 282.856 624.349 280.912 624.266 278.885C624.266 278.512 624.391 278.202 624.639 277.954C624.887 277.706 625.197 277.581 625.57 277.581H631.093C631.631 277.581 632.024 277.706 632.272 277.954C632.561 278.161 632.81 278.43 633.017 278.761C633.265 279.547 633.741 280.333 634.444 281.119C635.147 281.863 636.099 282.484 637.298 282.98C638.54 283.477 640.091 283.725 641.953 283.725C644.932 283.725 647.145 283.229 648.593 282.236C650.082 281.243 650.827 279.898 650.827 278.202C650.827 277.002 650.434 276.051 649.648 275.347C648.862 274.603 647.641 273.941 645.987 273.361C644.373 272.741 642.222 272.1 639.533 271.438C636.43 270.693 633.823 269.804 631.713 268.769C629.645 267.694 628.073 266.349 626.997 264.735C625.963 263.122 625.446 261.074 625.446 258.592C625.446 256.192 626.087 254.062 627.369 252.2C628.693 250.338 630.555 248.869 632.954 247.794C635.395 246.718 638.291 246.18 641.643 246.18C644.332 246.18 646.711 246.553 648.779 247.297C650.848 248.001 652.565 248.952 653.93 250.152C655.295 251.31 656.329 252.572 657.033 253.937C657.777 255.261 658.17 256.565 658.212 257.847C658.212 258.178 658.088 258.488 657.84 258.778C657.633 259.026 657.322 259.15 656.909 259.15H651.137C650.806 259.15 650.475 259.068 650.144 258.902C649.813 258.737 649.545 258.426 649.338 257.971C649.089 256.689 648.283 255.592 646.917 254.682C645.552 253.772 643.794 253.317 641.643 253.317C639.408 253.317 637.609 253.731 636.244 254.558C634.878 255.385 634.196 256.668 634.196 258.406C634.196 259.564 634.527 260.536 635.189 261.322C635.892 262.067 636.988 262.729 638.478 263.308C640.008 263.887 642.015 264.508 644.497 265.17C648.014 265.956 650.889 266.866 653.123 267.9C655.357 268.935 656.991 270.259 658.026 271.872C659.06 273.444 659.577 275.451 659.577 277.892C659.577 280.622 658.832 282.96 657.343 284.904C655.895 286.807 653.847 288.276 651.199 289.31C648.552 290.345 645.469 290.862 641.953 290.862Z" fill="white"/>
<path d="M670.723 290.241C670.309 290.241 669.957 290.096 669.668 289.807C669.378 289.517 669.233 289.145 669.233 288.69V284.346C669.233 283.725 669.357 283.229 669.606 282.856C669.854 282.484 670.04 282.215 670.164 282.05L691.76 254.124H671.343C670.888 254.124 670.516 253.979 670.226 253.689C669.978 253.4 669.854 253.048 669.854 252.634V248.352C669.854 247.897 669.978 247.525 670.226 247.235C670.516 246.946 670.888 246.801 671.343 246.801H701.007C701.462 246.801 701.834 246.946 702.124 247.235C702.413 247.525 702.558 247.897 702.558 248.352V252.634C702.558 253.131 702.475 253.544 702.31 253.875C702.144 254.206 701.958 254.517 701.751 254.806L680.59 282.856H701.689C702.144 282.856 702.517 283.001 702.806 283.291C703.096 283.58 703.241 283.953 703.241 284.408V288.752C703.241 289.166 703.096 289.517 702.806 289.807C702.517 290.096 702.144 290.241 701.689 290.241H670.723Z" fill="white"/>
<path d="M716.893 290.241C716.48 290.241 716.128 290.096 715.839 289.807C715.549 289.517 715.404 289.166 715.404 288.752V248.352C715.404 247.897 715.549 247.525 715.839 247.235C716.128 246.946 716.48 246.801 716.893 246.801H722.355C722.81 246.801 723.182 246.946 723.472 247.235C723.761 247.525 723.906 247.897 723.906 248.352V262.874L737.931 247.918C738.096 247.711 738.365 247.483 738.738 247.235C739.151 246.946 739.689 246.801 740.351 246.801H746.495C746.826 246.801 747.115 246.925 747.364 247.173C747.653 247.421 747.798 247.732 747.798 248.104C747.798 248.394 747.715 248.642 747.55 248.849L730.484 267.59L748.729 288.131C748.936 288.379 749.039 288.648 749.039 288.938C749.039 289.31 748.894 289.621 748.605 289.869C748.357 290.117 748.067 290.241 747.736 290.241H741.344C740.641 290.241 740.082 290.096 739.669 289.807C739.296 289.476 739.048 289.248 738.924 289.124L723.906 272.679V288.752C723.906 289.166 723.761 289.517 723.472 289.807C723.182 290.096 722.81 290.241 722.355 290.241H716.893Z" fill="white"/>
<path d="M774.03 290.862C770.348 290.862 767.183 290.262 764.535 289.062C761.887 287.821 759.819 285.939 758.329 283.415C756.84 280.85 756.033 277.664 755.909 273.858C755.868 272.079 755.847 270.321 755.847 268.583C755.847 266.845 755.868 265.066 755.909 263.246C756.033 259.481 756.861 256.337 758.391 253.813C759.922 251.29 762.012 249.387 764.659 248.104C767.348 246.821 770.472 246.18 774.03 246.18C777.588 246.18 780.711 246.821 783.401 248.104C786.09 249.387 788.2 251.29 789.731 253.813C791.261 256.337 792.089 259.481 792.213 263.246C792.296 265.066 792.337 266.845 792.337 268.583C792.337 270.321 792.296 272.079 792.213 273.858C792.089 277.664 791.282 280.85 789.793 283.415C788.303 285.939 786.214 287.821 783.525 289.062C780.877 290.262 777.712 290.862 774.03 290.862ZM774.03 283.725C776.719 283.725 778.912 282.939 780.608 281.367C782.304 279.753 783.214 277.147 783.339 273.548C783.421 271.727 783.463 270.052 783.463 268.521C783.463 266.949 783.421 265.273 783.339 263.494C783.256 261.095 782.801 259.15 781.973 257.661C781.187 256.13 780.112 255.034 778.746 254.372C777.381 253.669 775.809 253.317 774.03 253.317C772.292 253.317 770.741 253.669 769.376 254.372C768.01 255.034 766.914 256.13 766.087 257.661C765.301 259.15 764.866 261.095 764.783 263.494C764.742 265.273 764.721 266.949 764.721 268.521C764.721 270.052 764.742 271.727 764.783 273.548C764.908 277.147 765.818 279.753 767.514 281.367C769.21 282.939 771.382 283.725 774.03 283.725Z" fill="white"/>
<path d="M807.436 290.241C807.023 290.241 806.671 290.096 806.381 289.807C806.092 289.517 805.947 289.166 805.947 288.752V273.796L803.34 274.789C803.051 274.913 802.803 274.975 802.596 274.975C802.265 274.975 801.975 274.872 801.727 274.665C801.479 274.458 801.355 274.168 801.355 273.796V270.383C801.355 269.886 801.458 269.514 801.665 269.266C801.872 268.976 802.223 268.749 802.72 268.583L805.947 267.404V248.29C805.947 247.876 806.092 247.525 806.381 247.235C806.671 246.946 807.023 246.801 807.436 246.801H813.208C813.621 246.801 813.973 246.946 814.263 247.235C814.552 247.525 814.697 247.876 814.697 248.29V263.929L823.695 260.453C824.026 260.329 824.275 260.267 824.44 260.267C824.771 260.267 825.061 260.371 825.309 260.578C825.557 260.784 825.681 261.074 825.681 261.446V264.86C825.681 265.356 825.578 265.728 825.371 265.977C825.164 266.183 824.812 266.39 824.316 266.597L814.697 270.383V282.856H834.431C834.845 282.856 835.197 283.001 835.486 283.291C835.776 283.58 835.921 283.932 835.921 284.346V288.752C835.921 289.166 835.776 289.517 835.486 289.807C835.197 290.096 834.845 290.241 834.431 290.241H807.436Z" fill="white"/>
<path d="M844.23 290.241C843.899 290.241 843.588 290.117 843.299 289.869C843.05 289.621 842.926 289.31 842.926 288.938C842.926 288.772 842.968 288.586 843.05 288.379L858.006 248.352C858.13 247.939 858.358 247.587 858.689 247.297C859.061 246.966 859.558 246.801 860.178 246.801H866.943C867.563 246.801 868.039 246.966 868.37 247.297C868.701 247.587 868.949 247.939 869.115 248.352L884.07 288.379C884.112 288.586 884.133 288.772 884.133 288.938C884.133 289.31 884.008 289.621 883.76 289.869C883.512 290.117 883.222 290.241 882.891 290.241H877.492C876.913 290.241 876.479 290.117 876.189 289.869C875.941 289.579 875.775 289.31 875.693 289.062L872.776 281.491H854.345L851.428 289.062C851.345 289.31 851.159 289.579 850.87 289.869C850.621 290.117 850.208 290.241 849.629 290.241H844.23ZM856.517 274.354H870.604L863.529 255.179L856.517 274.354Z" fill="white"/>
<path d="M913.89 290.241C913.476 290.241 913.124 290.096 912.835 289.807C912.545 289.517 912.4 289.166 912.4 288.752V248.352C912.4 247.897 912.545 247.525 912.835 247.235C913.124 246.946 913.476 246.801 913.89 246.801H930.521C933.748 246.801 936.561 247.318 938.961 248.352C941.36 249.345 943.222 250.876 944.546 252.944C945.87 254.972 946.532 257.516 946.532 260.578C946.532 263.68 945.87 266.246 944.546 268.273C943.222 270.259 941.36 271.748 938.961 272.741C936.561 273.734 933.748 274.23 930.521 274.23H921.274V288.752C921.274 289.166 921.13 289.517 920.84 289.807C920.592 290.096 920.24 290.241 919.785 290.241H913.89ZM921.15 267.342H930.211C932.61 267.342 934.451 266.783 935.734 265.666C937.016 264.508 937.658 262.812 937.658 260.578C937.658 258.509 937.058 256.854 935.858 255.613C934.658 254.33 932.776 253.689 930.211 253.689H921.15V267.342Z" fill="white"/>
<path d="M960.258 290.241C959.844 290.241 959.492 290.096 959.203 289.807C958.913 289.517 958.768 289.166 958.768 288.752V273.796L956.162 274.789C955.872 274.913 955.624 274.975 955.417 274.975C955.086 274.975 954.797 274.872 954.548 274.665C954.3 274.458 954.176 274.168 954.176 273.796V270.383C954.176 269.886 954.279 269.514 954.486 269.266C954.693 268.976 955.045 268.749 955.541 268.583L958.768 267.404V248.29C958.768 247.876 958.913 247.525 959.203 247.235C959.492 246.946 959.844 246.801 960.258 246.801H966.029C966.443 246.801 966.794 246.946 967.084 247.235C967.374 247.525 967.518 247.876 967.518 248.29V263.929L976.517 260.453C976.848 260.329 977.096 260.267 977.261 260.267C977.592 260.267 977.882 260.371 978.13 260.578C978.378 260.784 978.503 261.074 978.503 261.446V264.86C978.503 265.356 978.399 265.728 978.192 265.977C977.985 266.183 977.634 266.39 977.137 266.597L967.518 270.383V282.856H987.253C987.666 282.856 988.018 283.001 988.308 283.291C988.597 283.58 988.742 283.932 988.742 284.346V288.752C988.742 289.166 988.597 289.517 988.308 289.807C988.018 290.096 987.666 290.241 987.253 290.241H960.258Z" fill="white"/>
<path d="M1006.2 290.241C1005.79 290.241 1005.44 290.096 1005.15 289.807C1004.86 289.517 1004.71 289.166 1004.71 288.752V274.727L990.068 248.787C990.027 248.704 989.986 248.6 989.944 248.476C989.903 248.352 989.882 248.228 989.882 248.104C989.882 247.732 990.006 247.421 990.255 247.173C990.503 246.925 990.792 246.801 991.123 246.801H996.647C997.143 246.801 997.536 246.925 997.826 247.173C998.157 247.421 998.384 247.69 998.508 247.98L1009.06 266.039L1019.55 247.98C1019.71 247.69 1019.94 247.421 1020.23 247.173C1020.56 246.925 1020.97 246.801 1021.47 246.801H1026.93C1027.3 246.801 1027.61 246.925 1027.86 247.173C1028.11 247.421 1028.23 247.732 1028.23 248.104C1028.23 248.228 1028.21 248.352 1028.17 248.476C1028.17 248.6 1028.13 248.704 1028.05 248.787L1013.4 274.727V288.752C1013.4 289.166 1013.26 289.517 1012.97 289.807C1012.68 290.096 1012.31 290.241 1011.85 290.241H1006.2Z" fill="white"/>
<path d="M1046.61 290.241C1045.99 290.241 1045.49 290.076 1045.12 289.745C1044.79 289.372 1044.56 288.917 1044.43 288.379L1037.05 248.6C1037.05 248.476 1037.03 248.373 1036.99 248.29C1036.99 248.207 1036.99 248.145 1036.99 248.104C1036.99 247.732 1037.11 247.421 1037.36 247.173C1037.65 246.925 1037.96 246.801 1038.29 246.801H1043.75C1044.79 246.801 1045.37 247.214 1045.49 248.042L1050.64 276.154L1056.23 257.971C1056.35 257.64 1056.56 257.309 1056.85 256.978C1057.18 256.606 1057.65 256.42 1058.27 256.42H1061.62C1062.29 256.42 1062.76 256.606 1063.05 256.978C1063.34 257.309 1063.53 257.64 1063.61 257.971L1069.26 276.092L1074.41 248.042C1074.53 247.214 1075.11 246.801 1076.15 246.801H1081.61C1081.94 246.801 1082.23 246.925 1082.48 247.173C1082.72 247.421 1082.85 247.732 1082.85 248.104C1082.85 248.145 1082.85 248.207 1082.85 248.29C1082.85 248.373 1082.83 248.476 1082.79 248.6L1075.4 288.379C1075.32 288.917 1075.09 289.372 1074.72 289.745C1074.35 290.076 1073.85 290.241 1073.23 290.241H1069.07C1068.45 290.241 1067.95 290.076 1067.58 289.745C1067.25 289.414 1067.02 289.062 1066.9 288.69L1059.95 267.962L1053 288.69C1052.83 289.062 1052.58 289.414 1052.25 289.745C1051.92 290.076 1051.43 290.241 1050.76 290.241H1046.61Z" fill="white"/>
<path d="M1090.67 290.241C1090.34 290.241 1090.03 290.117 1089.74 289.869C1089.49 289.621 1089.37 289.31 1089.37 288.938C1089.37 288.772 1089.41 288.586 1089.49 288.379L1104.45 248.352C1104.57 247.939 1104.8 247.587 1105.13 247.297C1105.5 246.966 1106 246.801 1106.62 246.801H1113.39C1114.01 246.801 1114.48 246.966 1114.81 247.297C1115.14 247.587 1115.39 247.939 1115.56 248.352L1130.51 288.379C1130.56 288.586 1130.58 288.772 1130.58 288.938C1130.58 289.31 1130.45 289.621 1130.2 289.869C1129.96 290.117 1129.67 290.241 1129.33 290.241H1123.94C1123.36 290.241 1122.92 290.117 1122.63 289.869C1122.38 289.579 1122.22 289.31 1122.14 289.062L1119.22 281.491H1100.79L1097.87 289.062C1097.79 289.31 1097.6 289.579 1097.31 289.869C1097.06 290.117 1096.65 290.241 1096.07 290.241H1090.67ZM1102.96 274.354H1117.05L1109.97 255.179L1102.96 274.354Z" fill="white"/>
<path d="M1142.82 290.241C1142.41 290.241 1142.06 290.096 1141.77 289.807C1141.48 289.517 1141.33 289.166 1141.33 288.752V248.352C1141.33 247.897 1141.48 247.525 1141.77 247.235C1142.06 246.946 1142.41 246.801 1142.82 246.801H1147.6C1148.18 246.801 1148.59 246.946 1148.84 247.235C1149.13 247.483 1149.32 247.67 1149.4 247.794L1167.27 275.596V248.352C1167.27 247.897 1167.4 247.525 1167.65 247.235C1167.94 246.946 1168.31 246.801 1168.76 246.801H1173.98C1174.43 246.801 1174.8 246.946 1175.09 247.235C1175.38 247.525 1175.53 247.897 1175.53 248.352V288.69C1175.53 289.145 1175.38 289.517 1175.09 289.807C1174.8 290.096 1174.45 290.241 1174.04 290.241H1169.2C1168.62 290.241 1168.2 290.096 1167.96 289.807C1167.71 289.517 1167.52 289.331 1167.4 289.248L1149.59 262.067V288.752C1149.59 289.166 1149.44 289.517 1149.15 289.807C1148.86 290.096 1148.49 290.241 1148.04 290.241H1142.82Z" fill="white"/>
<path d="M1191.66 290.241C1191.25 290.241 1190.9 290.096 1190.61 289.807C1190.32 289.517 1190.18 289.166 1190.18 288.752V248.29C1190.18 247.876 1190.32 247.525 1190.61 247.235C1190.9 246.946 1191.25 246.801 1191.66 246.801H1197.5C1197.95 246.801 1198.3 246.946 1198.55 247.235C1198.84 247.525 1198.99 247.876 1198.99 248.29V288.752C1198.99 289.166 1198.84 289.517 1198.55 289.807C1198.3 290.096 1197.95 290.241 1197.5 290.241H1191.66Z" fill="white"/>
<path d="M1211.02 290.241C1210.68 290.241 1210.37 290.117 1210.08 289.869C1209.84 289.621 1209.71 289.31 1209.71 288.938C1209.71 288.772 1209.75 288.586 1209.84 288.379L1224.79 248.352C1224.92 247.939 1225.14 247.587 1225.48 247.297C1225.85 246.966 1226.34 246.801 1226.96 246.801H1233.73C1234.35 246.801 1234.83 246.966 1235.16 247.297C1235.49 247.587 1235.74 247.939 1235.9 248.352L1250.86 288.379C1250.9 288.586 1250.92 288.772 1250.92 288.938C1250.92 289.31 1250.79 289.621 1250.55 289.869C1250.3 290.117 1250.01 290.241 1249.68 290.241H1244.28C1243.7 290.241 1243.27 290.117 1242.98 289.869C1242.73 289.579 1242.56 289.31 1242.48 289.062L1239.56 281.491H1221.13L1218.21 289.062C1218.13 289.31 1217.95 289.579 1217.66 289.869C1217.41 290.117 1216.99 290.241 1216.41 290.241H1211.02ZM1223.3 274.354H1237.39L1230.32 255.179L1223.3 274.354Z" fill="white"/>
<path fill-rule="evenodd" clip-rule="evenodd" d="M519.233 125.565C553.37 128.437 583.291 104.042 586.065 71.0767C588.838 38.1118 563.413 9.06029 529.277 6.1883C514.628 4.95589 500.756 8.74438 489.472 16.0764C507.991 49.9237 511.48 74.9566 465.496 46.3484C463.909 50.8843 462.865 55.6819 462.445 60.6763C460.901 79.0321 468.1 96.1745 480.677 108.259C490.688 117.877 504.105 124.292 519.233 125.565Z" fill="#DF4030"/>
<path d="M519.233 125.565C504.105 124.292 490.688 117.877 480.677 108.259C483.738 131.251 474.741 128.63 450.36 125.843L450.222 161.956C483.548 156.29 499.528 149.48 519.233 125.565Z" fill="#DF4030"/>
<path d="M519.233 125.565C553.37 128.437 583.291 104.042 586.065 71.0767C588.838 38.1118 563.413 9.06029 529.277 6.1883C514.628 4.95589 500.756 8.74438 489.472 16.0764C507.991 49.9237 511.48 74.9566 465.496 46.3484C463.909 50.8843 462.865 55.6819 462.445 60.6763C460.901 79.0321 468.1 96.1745 480.677 108.259M519.233 125.565C504.105 124.292 490.688 117.877 480.677 108.259M519.233 125.565C499.528 149.48 483.548 156.29 450.222 161.956L450.36 125.843C474.741 128.63 483.738 131.251 480.677 108.259" stroke="black" stroke-width="2"/>
<path fill-rule="evenodd" clip-rule="evenodd" d="M72.7725 134.599C38.636 137.471 8.71451 113.076 5.94112 80.1109C3.16772 47.146 28.5926 18.0945 62.7292 15.2225C77.3776 13.9901 91.2499 17.7786 102.534 25.1106C84.0144 58.9579 80.5257 83.9908 126.51 55.3826C128.097 59.9185 129.14 64.7161 129.561 69.7105C131.105 88.0663 123.906 105.209 111.328 117.294C101.318 126.912 87.9008 133.326 72.7725 134.599Z" fill="#DF4030"/>
<path d="M72.7725 134.599C87.9008 133.326 101.318 126.912 111.328 117.294C108.268 140.285 117.264 137.665 141.645 134.877L141.783 170.99C108.458 165.324 92.4776 158.514 72.7725 134.599Z" fill="#DF4030"/>
<path d="M72.7725 134.599C38.636 137.471 8.71451 113.076 5.94112 80.1109C3.16772 47.146 28.5926 18.0945 62.7292 15.2225C77.3776 13.9901 91.2499 17.7786 102.534 25.1106C84.0144 58.9579 80.5257 83.9908 126.51 55.3826C128.097 59.9185 129.14 64.7161 129.561 69.7105C131.105 88.0663 123.906 105.209 111.328 117.294M72.7725 134.599C87.9008 133.326 101.318 126.912 111.328 117.294M72.7725 134.599C92.4776 158.514 108.458 165.324 141.783 170.99L141.645 134.877C117.264 137.665 108.268 140.285 111.328 117.294" stroke="black" stroke-width="2"/>
<path d="M147.56 253.525L174.62 219.947L165.1 210.675L137.034 236.235C129.542 242.949 128.834 246.886 137.034 253.525C141.497 254.475 143.74 254.601 147.56 253.525Z" fill="#DF4030"/>
<path d="M147.56 253.525C143.74 254.601 141.497 254.475 137.034 253.525L131.456 273.517L145.463 287.397L147.56 253.525Z" fill="#DF4030"/>
<path d="M145.463 287.397C139.123 291.284 135.769 292.151 127.858 292.016C144.118 320.624 157.454 328.769 186.331 331.138C190.845 325.511 165.379 306.676 145.463 287.397Z" fill="#DF4030"/>
<path d="M145.463 287.397L131.456 273.517L125.691 284.794C125.203 287.814 125.756 289.384 127.858 292.016C135.769 292.151 139.123 291.284 145.463 287.397Z" fill="#DF4030"/>
<path d="M147.56 253.525L174.62 219.947L165.1 210.675L137.034 236.235C129.542 242.949 128.834 246.886 137.034 253.525M147.56 253.525C143.74 254.601 141.497 254.475 137.034 253.525M147.56 253.525L145.463 287.397M137.034 253.525L131.456 273.517M131.456 273.517L145.463 287.397M131.456 273.517L125.691 284.794C125.203 287.814 125.756 289.384 127.858 292.016M145.463 287.397C139.123 291.284 135.769 292.151 127.858 292.016M145.463 287.397C165.379 306.676 190.845 325.511 186.331 331.138C157.454 328.769 144.118 320.624 127.858 292.016" stroke="black" stroke-width="2"/>
<path d="M162.617 208.039L117.899 235.281L101.58 273.119C116.411 303.333 137.765 335.32 130.295 339.893C98.2744 325.317 86.385 310.53 79.5671 271.161C78.2468 267.289 78.2606 265.268 80.0592 262.018L91.2815 251.504L105.872 230.955C99.2318 219.999 101.659 215.792 112.979 211.2L155.552 193.533L162.617 208.039Z" fill="#DF4030"/>
<path d="M117.899 235.281L162.617 208.039L155.552 193.533L112.979 211.2C101.659 215.792 99.2318 219.999 105.872 230.955M117.899 235.281C113.092 234.941 110.58 233.874 105.872 230.955M117.899 235.281L101.58 273.119M105.872 230.955L91.2815 251.504M91.2815 251.504L101.58 273.119M91.2815 251.504L80.0592 262.018C78.2606 265.268 78.2468 267.289 79.5671 271.161M101.58 273.119C92.7383 274.954 88.5499 274.566 79.5671 271.161M101.58 273.119C116.411 303.333 137.765 335.32 130.295 339.893C98.2744 325.317 86.385 310.53 79.5671 271.161" stroke="black" stroke-width="2"/>
<path d="M158.428 192.617L100.553 198.651L66.1367 228.857C66.6249 266.256 72.8158 308.544 63.137 309.575C37.9403 279.681 33.0527 259.171 44.9721 216.4C45.4922 211.883 46.4691 209.862 49.8236 207.456L66.1006 202.25L90.5418 188.576C89.0973 174.412 93.5393 171.346 107.091 172.132L158.249 174.687L158.428 192.617Z" fill="#DF4030"/>
<path d="M100.553 198.651L158.428 192.617L158.249 174.687L107.091 172.132C93.5393 171.346 89.0973 174.412 90.5418 188.576M100.553 198.651C95.8894 196.018 93.8766 193.75 90.5418 188.576M100.553 198.651L66.1367 228.857M90.5418 188.576L66.1006 202.25M66.1006 202.25L66.1367 228.857M66.1006 202.25L49.8236 207.456C46.4691 209.862 45.4922 211.883 44.9721 216.4M66.1367 228.857C56.3863 226.485 52.3666 224.1 44.9721 216.4M66.1367 228.857C66.6249 266.256 72.8158 308.544 63.137 309.575C37.9403 279.681 33.0527 259.171 44.9721 216.4" stroke="black" stroke-width="2"/>
<path d="M439.237 256.795L412.178 223.216L421.697 213.944L449.764 239.504C457.256 246.219 457.964 250.156 449.764 256.795C445.301 257.744 443.058 257.871 439.237 256.795Z" fill="#DF4030"/>
<path d="M439.237 256.795C443.058 257.871 445.301 257.744 449.764 256.795L455.342 276.787L441.335 290.666L439.237 256.795Z" fill="#DF4030"/>
<path d="M441.335 290.666L455.342 276.787L461.107 288.064C461.595 291.084 461.042 292.653 458.939 295.286C451.029 295.421 447.675 294.553 441.335 290.666Z" fill="#DF4030"/>
<path d="M441.335 290.666C447.675 294.553 451.029 295.421 458.939 295.286C442.68 323.894 429.344 332.038 400.467 334.407C395.953 328.78 421.419 309.945 441.335 290.666Z" fill="#DF4030"/>
<path d="M439.237 256.795L412.178 223.216L421.697 213.944L449.764 239.504C457.256 246.219 457.964 250.156 449.764 256.795M439.237 256.795C443.058 257.871 445.301 257.744 449.764 256.795M439.237 256.795L441.335 290.666M449.764 256.795L455.342 276.787M455.342 276.787L441.335 290.666M455.342 276.787L461.107 288.064C461.595 291.084 461.042 292.653 458.939 295.286M441.335 290.666C447.675 294.553 451.029 295.421 458.939 295.286M441.335 290.666C421.419 309.945 395.953 328.78 400.467 334.407C429.344 332.038 442.68 323.894 458.939 295.286" stroke="black" stroke-width="2"/>
<path d="M468.899 238.55L424.18 211.308L431.246 196.801L473.819 214.468C485.138 219.06 487.566 223.267 480.925 234.223C476.218 237.142 473.706 238.209 468.899 238.55Z" fill="#DF4030"/>
<path d="M468.899 238.55C473.706 238.209 476.218 237.142 480.925 234.223L495.516 254.772L485.218 276.388L468.899 238.55Z" fill="#DF4030"/>
<path d="M485.218 276.388L495.516 254.772L506.739 265.287C508.537 268.537 508.551 270.557 507.231 274.43C498.248 277.835 494.06 278.223 485.218 276.388Z" fill="#DF4030"/>
<path d="M485.218 276.388C494.06 278.223 498.248 277.835 507.231 274.43C500.413 313.799 488.523 328.586 456.503 343.162C449.033 338.589 470.387 306.601 485.218 276.388Z" fill="#DF4030"/>
<path d="M468.899 238.55L424.18 211.308L431.246 196.801L473.819 214.468C485.138 219.06 487.566 223.267 480.925 234.223M468.899 238.55C473.706 238.209 476.218 237.142 480.925 234.223M468.899 238.55L485.218 276.388M480.925 234.223L495.516 254.772M495.516 254.772L485.218 276.388M495.516 254.772L506.739 265.287C508.537 268.537 508.551 270.557 507.231 274.43M485.218 276.388C494.06 278.223 498.248 277.835 507.231 274.43M485.218 276.388C470.387 306.601 449.033 338.589 456.503 343.162C488.523 328.586 500.413 313.799 507.231 274.43" stroke="black" stroke-width="2"/>
<path d="M489.068 198.651L431.193 192.617L431.372 174.687L482.53 172.132C496.082 171.346 500.524 174.412 499.079 188.576C495.745 193.75 493.732 196.018 489.068 198.651Z" fill="#DF4030"/>
<path d="M489.068 198.651C493.732 196.018 495.745 193.75 499.079 188.576L523.52 202.25L523.484 228.857L489.068 198.651Z" fill="#DF4030"/>
<path d="M523.484 228.857L523.52 202.25L539.798 207.456C543.152 209.862 544.129 211.883 544.649 216.4C537.254 224.1 533.235 226.485 523.484 228.857Z" fill="#DF4030"/>
<path d="M523.484 228.857C533.235 226.485 537.254 224.1 544.649 216.4C556.568 259.171 551.681 279.681 526.484 309.575C516.805 308.544 522.996 266.256 523.484 228.857Z" fill="#DF4030"/>
<path d="M489.068 198.651L431.193 192.617L431.372 174.687L482.53 172.132C496.082 171.346 500.524 174.412 499.079 188.576M489.068 198.651C493.732 196.018 495.745 193.75 499.079 188.576M489.068 198.651L523.484 228.857M499.079 188.576L523.52 202.25M523.52 202.25L523.484 228.857M523.52 202.25L539.798 207.456C543.152 209.862 544.129 211.883 544.649 216.4M523.484 228.857C533.235 226.485 537.254 224.1 544.649 216.4M523.484 228.857C522.996 266.256 516.805 308.544 526.484 309.575C551.681 279.681 556.568 259.171 544.649 216.4" stroke="black" stroke-width="2"/>
<path d="M292.78 258.688C197.993 250.454 152.593 234.222 130.887 135.763C169.99 120.856 187.694 106.232 227.833 82.755C267.973 59.2785 318.746 61.3648 358.549 82.755C398.353 104.145 418.522 114.41 461.356 127.49C433.707 227.317 396.148 255.374 292.78 258.688Z" fill="#DF4030" stroke="black" stroke-width="2"/>
<path d="M359.592 10.4922C383.404 10.4922 402.709 29.7967 402.709 53.6094C402.709 77.4219 383.404 96.7256 359.592 96.7256C335.779 96.7254 316.476 77.4218 316.476 53.6094C316.476 29.7968 335.779 10.4924 359.592 10.4922Z" fill="#DF4030" stroke="black" stroke-width="2"/>
<path d="M395.729 59.4233C395.729 80.5764 378.581 97.7244 357.428 97.7244C336.275 97.7244 319.127 80.5764 319.127 59.4233C319.127 38.2701 336.275 21.1221 357.428 21.1221C378.581 21.1221 395.729 38.2701 395.729 59.4233Z" fill="white"/>
<path d="M357.421 34.0068C343.384 34.007 332.004 45.3867 332.004 59.4238C332.004 73.4611 343.384 84.8406 357.421 84.8408C371.458 84.8408 382.838 73.4613 382.838 59.4238C382.838 56.3049 382.276 53.3174 381.248 50.5566C379.336 53.6848 375.889 55.7725 371.955 55.7725C365.945 55.7723 361.072 50.9 361.072 44.8896C361.072 40.9553 363.161 37.5093 366.289 35.5977C363.528 34.5696 360.54 34.0068 357.421 34.0068Z" fill="black"/>
<path d="M209.232 16.3057C185.42 16.3057 166.115 35.6101 166.115 59.4229C166.115 83.2354 185.42 102.539 209.232 102.539C233.045 102.539 252.348 83.2353 252.349 59.4229C252.349 35.6102 233.045 16.3058 209.232 16.3057Z" fill="#DF4030" stroke="black" stroke-width="2"/>
<path d="M173.095 65.2377C173.095 86.3909 190.243 103.539 211.396 103.539C232.549 103.539 249.697 86.3909 249.697 65.2377C249.697 44.0845 232.549 26.9365 211.396 26.9365C190.243 26.9365 173.095 44.0845 173.095 65.2377Z" fill="white"/>
<path d="M211.402 39.8184C225.44 39.8184 236.819 51.1981 236.819 65.2354C236.819 79.2728 225.44 90.6533 211.402 90.6533C197.365 90.6533 185.985 79.2728 185.985 65.2354C185.985 62.1165 186.547 59.1289 187.575 56.3682C189.487 59.4965 192.934 61.584 196.868 61.584C202.879 61.584 207.751 56.7116 207.751 50.7012C207.751 46.7671 205.663 43.3208 202.535 41.4092C205.296 40.3813 208.283 39.8184 211.402 39.8184Z" fill="black"/>
<g filter="url(#filter0_d_2185_198)">
<path d="M236.876 136.21C238.545 137.311 240.151 138.352 241.803 139.391C256.651 148.585 272.766 157.137 290.924 158.709C309.319 160.523 326.575 151.258 339.741 140.051C341.269 138.781 342.697 137.539 344.184 136.21C342.533 137.328 340.955 138.367 339.291 139.438C324.737 148.945 308.283 156.407 291.231 154.721C274.254 153.289 258.024 146.034 242.167 138.724C240.404 137.897 238.677 137.079 236.876 136.21Z" fill="black"/>
</g>
<ellipse cx="3.23216" cy="3.23217" rx="3.23216" ry="3.23217" transform="matrix(-0.964482 0.26415 0.264148 0.964482 251.02 235.078)" fill="black" fill-opacity="0.62"/>
<ellipse cx="5.98139" cy="5.98141" rx="5.98139" ry="5.98141" transform="matrix(-0.964482 0.26415 0.264148 0.964482 229 223.297)" fill="black" fill-opacity="0.62"/>
<ellipse cx="4.00169" cy="4.00171" rx="4.00169" ry="4.00171" transform="matrix(-0.964482 0.26415 0.264148 0.964482 217.121 202.567)" fill="black" fill-opacity="0.62"/>
<ellipse cx="6.67864" cy="6.67867" rx="6.67864" ry="6.67867" transform="matrix(-0.964482 0.26415 0.264148 0.964482 196.43 214.903)" fill="black" fill-opacity="0.62"/>
<ellipse cx="3.62734" cy="3.62736" rx="3.62734" ry="3.62736" transform="matrix(-0.964482 0.26415 0.264148 0.964482 185.938 194.448)" fill="black" fill-opacity="0.62"/>
<ellipse cx="362.663" cy="234.01" rx="3.23216" ry="3.23217" fill="black" fill-opacity="0.62"/>
<ellipse cx="383.537" cy="219.579" rx="5.98139" ry="5.98142" fill="black" fill-opacity="0.62"/>
<ellipse cx="387.538" cy="194.468" rx="4.00169" ry="4.00171" fill="black" fill-opacity="0.62"/>
<ellipse cx="413.43" cy="203.577" rx="6.67864" ry="6.67867" fill="black" fill-opacity="0.62"/>
<ellipse cx="415.094" cy="178.026" rx="3.62734" ry="3.62736" fill="black" fill-opacity="0.62"/>
<ellipse cx="210.751" cy="146.601" rx="18.1001" ry="16.1609" fill="#FFB5B5"/>
<ellipse cx="373.439" cy="146.6" rx="18.1001" ry="16.1609" fill="#FFB5B5"/>
<defs>
<filter id="filter0_d_2185_198" x="232.876" y="136.21" width="115.308" height="30.7275" filterUnits="userSpaceOnUse" color-interpolation-filters="sRGB">
<feFlood flood-opacity="0" result="BackgroundImageFix"/>
<feColorMatrix in="SourceAlpha" type="matrix" values="0 0 0 0 0 0 0 0 0 0 0 0 0 0 0 0 0 0 127 0" result="hardAlpha"/>
<feOffset dy="4"/>
<feGaussianBlur stdDeviation="2"/>
<feComposite in2="hardAlpha" operator="out"/>
<feColorMatrix type="matrix" values="0 0 0 0 0 0 0 0 0 0 0 0 0 0 0 0 0 0 0.25 0"/>
<feBlend mode="normal" in2="BackgroundImageFix" result="effect1_dropShadow_2185_198"/>
<feBlend mode="normal" in="SourceGraphic" in2="effect1_dropShadow_2185_198" result="shape"/>
</filter>
</defs>
</svg>
