<svg width="431" height="231" viewBox="0 0 431 231" fill="none" xmlns="http://www.w3.org/2000/svg">
<rect width="431" height="231" fill="black"/>
<path d="M127.681 105.141C127.467 104.936 127.183 104.822 126.886 104.822C126.59 104.822 126.305 104.936 126.091 105.141L99.6215 130.427C99.5091 130.535 99.4197 130.664 99.3586 130.807C99.2976 130.95 99.2662 131.104 99.2664 131.26L99.2621 154.992C99.2621 156.212 99.7468 157.382 100.61 158.245C101.472 159.108 102.643 159.593 103.863 159.593H117.68C118.29 159.593 118.875 159.35 119.307 158.919C119.738 158.487 119.981 157.902 119.981 157.292V137.738C119.981 137.433 120.102 137.141 120.318 136.925C120.533 136.709 120.826 136.588 121.131 136.588H132.633C132.938 136.588 133.231 136.709 133.447 136.925C133.662 137.141 133.783 137.433 133.783 137.738V157.292C133.783 157.902 134.026 158.487 134.457 158.919C134.889 159.35 135.474 159.593 136.084 159.593H149.895C151.116 159.593 152.286 159.108 153.149 158.245C154.011 157.382 154.496 156.212 154.496 154.992V131.26C154.496 131.104 154.465 130.95 154.404 130.807C154.343 130.664 154.254 130.535 154.141 130.427L127.681 105.141Z" fill="#EAD08D"/>
<path d="M160.657 125.682L149.902 115.394V99.7806C149.902 99.1705 149.66 98.5854 149.229 98.1539C148.797 97.7225 148.212 97.4802 147.602 97.4802H140.701C140.091 97.4802 139.505 97.7225 139.074 98.1539C138.643 98.5854 138.4 99.1705 138.4 99.7806V104.382L130.072 96.4191C129.293 95.6312 128.134 95.1797 126.882 95.1797C125.634 95.1797 124.478 95.6312 123.699 96.4205L93.117 125.68C92.2226 126.542 92.1105 127.961 92.9243 128.896C93.1286 129.132 93.3789 129.324 93.6597 129.46C93.9406 129.596 94.2462 129.673 94.558 129.688C94.8697 129.702 95.1812 129.653 95.4733 129.543C95.7654 129.433 96.0321 129.265 96.2571 129.048L126.091 100.54C126.305 100.335 126.59 100.221 126.886 100.221C127.183 100.221 127.467 100.335 127.681 100.54L157.518 129.048C157.958 129.47 158.547 129.7 159.156 129.688C159.764 129.676 160.344 129.423 160.766 128.985C161.649 128.071 161.576 126.561 160.657 125.682Z" fill="#EAD08D"/>
<path d="M149.902 80.5587V109.823H138.383V80.5587H149.902Z" fill="#EAD08D"/>
<path d="M175.6 80.3511C178.955 80.3511 181.567 81.4754 183.435 83.7238C185.337 85.9722 186.288 89.0163 186.288 92.8559V109.823H174.821V94.3088C174.821 92.9251 174.441 91.8355 173.68 91.0399C172.953 90.2097 171.968 89.7946 170.722 89.7946C169.442 89.7946 168.439 90.2097 167.713 91.0399C166.986 91.8355 166.623 92.9251 166.623 94.3088V109.823H155.104V80.5587H166.623V85.021C167.523 83.6373 168.716 82.5131 170.203 81.6483C171.725 80.7835 173.524 80.3511 175.6 80.3511Z" fill="#EAD08D"/>
<path d="M209.496 100.016V109.823H205.137C197.112 109.823 193.099 105.828 193.099 97.8371V90.1578H189.467V80.5587H193.099V73.502H204.618V80.5587H209.392V90.1578H204.618V98.0446C204.618 98.7365 204.774 99.238 205.085 99.5494C205.431 99.8607 205.985 100.016 206.746 100.016H209.496Z" fill="#EAD08D"/>
<path d="M242.213 94.9314C242.213 95.727 242.161 96.488 242.057 97.2144H223.534C223.707 99.7396 224.762 101.002 226.699 101.002C227.944 101.002 228.843 100.431 229.397 99.2899H241.59C241.175 101.365 240.293 103.233 238.944 104.894C237.63 106.52 235.952 107.817 233.911 108.785C231.905 109.719 229.691 110.186 227.27 110.186C224.364 110.186 221.769 109.581 219.486 108.37C217.238 107.159 215.474 105.43 214.194 103.181C212.949 100.898 212.326 98.2349 212.326 95.1909C212.326 92.1468 212.949 89.5006 214.194 87.2521C215.474 84.9691 217.238 83.2222 219.486 82.0115C221.769 80.8008 224.364 80.1955 227.27 80.1955C230.175 80.1955 232.752 80.8008 235.001 82.0115C237.284 83.1876 239.048 84.8826 240.293 87.0965C241.573 89.3103 242.213 91.922 242.213 94.9314ZM230.538 92.1814C230.538 91.2128 230.227 90.4864 229.604 90.0021C228.982 89.4833 228.203 89.2238 227.27 89.2238C225.229 89.2238 224.035 90.2097 223.689 92.1814H230.538Z" fill="#EAD08D"/>
<path d="M257.375 85.9549C258.551 84.26 259.987 82.9109 261.682 81.9077C263.377 80.87 265.141 80.3511 266.974 80.3511V92.6484H263.705C261.526 92.6484 259.917 93.0289 258.88 93.7899C257.877 94.5509 257.375 95.9 257.375 97.8371V109.823H245.856V80.5587H257.375V85.9549Z" fill="#EAD08D"/>
<path d="M275.888 78.2238C273.882 78.2238 272.273 77.6876 271.063 76.6153C269.852 75.5429 269.247 74.1939 269.247 72.5681C269.247 70.9077 269.852 69.5413 271.063 68.469C272.273 67.3621 273.882 66.8086 275.888 66.8086C277.86 66.8086 279.451 67.3621 280.662 68.469C281.872 69.5413 282.478 70.9077 282.478 72.5681C282.478 74.1939 281.872 75.5429 280.662 76.6153C279.451 77.6876 277.86 78.2238 275.888 78.2238ZM281.596 80.5587V109.823H270.077V80.5587H281.596Z" fill="#EAD08D"/>
<path d="M300.704 110.186C297.764 110.186 295.117 109.581 292.765 108.37C290.413 107.159 288.562 105.43 287.213 103.181C285.899 100.898 285.242 98.2349 285.242 95.1909C285.242 92.1468 285.899 89.5006 287.213 87.2521C288.562 84.9691 290.413 83.2222 292.765 82.0115C295.117 80.8008 297.764 80.1955 300.704 80.1955C303.644 80.1955 306.29 80.8008 308.643 82.0115C310.995 83.2222 312.828 84.9691 314.143 87.2521C315.492 89.5006 316.166 92.1468 316.166 95.1909C316.166 98.2349 315.492 100.898 314.143 103.181C312.828 105.43 310.995 107.159 308.643 108.37C306.29 109.581 303.644 110.186 300.704 110.186ZM300.704 100.224C301.776 100.224 302.676 99.8088 303.402 98.9786C304.129 98.1138 304.492 96.8512 304.492 95.1909C304.492 93.5305 304.129 92.2852 303.402 91.455C302.676 90.5902 301.776 90.1578 300.704 90.1578C299.632 90.1578 298.732 90.5902 298.006 91.455C297.279 92.2852 296.916 93.5305 296.916 95.1909C296.916 96.8512 297.262 98.1138 297.954 98.9786C298.68 99.8088 299.597 100.224 300.704 100.224Z" fill="#EAD08D"/>
<path d="M331.304 85.9549C332.48 84.26 333.916 82.9109 335.611 81.9077C337.306 80.87 339.07 80.3511 340.903 80.3511V92.6484H337.634C335.455 92.6484 333.846 93.0289 332.809 93.7899C331.806 94.5509 331.304 95.9 331.304 97.8371V109.823H319.785V80.5587H331.304V85.9549Z" fill="#EAD08D"/>
<path d="M179.208 134.207C181.788 134.207 184.043 134.73 185.972 135.777C187.925 136.823 189.424 138.275 190.47 140.135C191.516 141.995 192.039 144.11 192.039 146.481C192.039 148.829 191.516 150.944 190.47 152.827C189.424 154.71 187.925 156.197 185.972 157.29C184.043 158.359 181.788 158.894 179.208 158.894H168.922V134.207H179.208ZM178.51 151.99C180.254 151.99 181.637 151.513 182.66 150.56C183.683 149.607 184.194 148.248 184.194 146.481C184.194 144.714 183.683 143.354 182.66 142.401C181.637 141.448 180.254 140.972 178.51 140.972H176.663V151.99H178.51Z" fill="white"/>
<path d="M202.575 140.379V143.413H210.246V149.235H202.575V152.722H211.292V158.894H194.834V134.207H211.292V140.379H202.575Z" fill="white"/>
<path d="M223.867 159.138C220.915 159.138 218.475 158.452 216.545 157.081C214.639 155.686 213.605 153.652 213.442 150.979H221.671C221.787 152.397 222.415 153.106 223.554 153.106C223.972 153.106 224.321 153.013 224.6 152.827C224.902 152.618 225.053 152.304 225.053 151.885C225.053 151.304 224.739 150.839 224.111 150.491C223.484 150.119 222.508 149.7 221.183 149.235C219.602 148.678 218.289 148.131 217.243 147.597C216.22 147.062 215.336 146.283 214.593 145.261C213.849 144.238 213.488 142.924 213.512 141.32C213.512 139.717 213.918 138.357 214.732 137.241C215.569 136.102 216.696 135.242 218.114 134.661C219.555 134.08 221.171 133.789 222.961 133.789C225.983 133.789 228.377 134.486 230.144 135.881C231.933 137.276 232.875 139.24 232.968 141.774H224.635C224.611 141.076 224.437 140.577 224.111 140.274C223.786 139.972 223.391 139.821 222.926 139.821C222.601 139.821 222.333 139.937 222.124 140.17C221.915 140.379 221.81 140.681 221.81 141.076C221.81 141.634 222.112 142.099 222.717 142.471C223.344 142.82 224.332 143.25 225.681 143.761C227.238 144.342 228.516 144.9 229.516 145.435C230.539 145.97 231.422 146.713 232.166 147.666C232.91 148.619 233.282 149.817 233.282 151.258C233.282 152.769 232.91 154.129 232.166 155.337C231.422 156.523 230.341 157.453 228.923 158.127C227.505 158.801 225.82 159.138 223.867 159.138Z" fill="white"/>
<path d="M243.742 134.207V158.894H236.001V134.207H243.742Z" fill="white"/>
<path d="M262.371 142.645C262.068 142.157 261.638 141.785 261.081 141.53C260.523 141.251 259.849 141.111 259.058 141.111C257.571 141.111 256.42 141.599 255.606 142.576C254.793 143.529 254.386 144.842 254.386 146.516C254.386 148.445 254.839 149.886 255.746 150.839C256.652 151.792 258.047 152.269 259.93 152.269C261.72 152.269 263.161 151.548 264.254 150.107H258.082V144.633H270.669V152.374C269.6 154.21 268.124 155.791 266.241 157.116C264.358 158.417 261.975 159.068 259.093 159.068C256.536 159.068 254.305 158.545 252.398 157.499C250.516 156.43 249.063 154.942 248.04 153.036C247.04 151.13 246.541 148.957 246.541 146.516C246.541 144.075 247.04 141.902 248.04 139.996C249.063 138.089 250.516 136.613 252.398 135.567C254.281 134.498 256.49 133.963 259.023 133.963C262.254 133.963 264.881 134.742 266.903 136.3C268.949 137.857 270.158 139.972 270.53 142.645H262.371Z" fill="white"/>
<path d="M297.132 158.894H289.392L281.198 146.481V158.894H273.457V134.207H281.198L289.392 146.83V134.207H297.132V158.894Z" fill="white"/>
<path d="M308.37 140.379V143.413H316.041V149.235H308.37V152.722H317.087V158.894H300.629V134.207H317.087V140.379H308.37Z" fill="white"/>
<path d="M332.417 158.894L327.78 150.037H327.745V158.894H320.004V134.207H331.51C333.509 134.207 335.218 134.568 336.636 135.288C338.054 135.986 339.112 136.95 339.809 138.182C340.529 139.391 340.89 140.763 340.89 142.297C340.89 143.947 340.425 145.412 339.495 146.69C338.589 147.969 337.275 148.887 335.555 149.445L340.925 158.894H332.417ZM327.745 144.877H330.813C331.557 144.877 332.115 144.714 332.487 144.389C332.859 144.04 333.045 143.506 333.045 142.785C333.045 142.134 332.847 141.623 332.452 141.251C332.08 140.879 331.534 140.693 330.813 140.693H327.745V144.877Z" fill="white"/>
</svg>
