<svg width="204" height="79" viewBox="0 0 204 79" fill="none" xmlns="http://www.w3.org/2000/svg">
<path d="M30.5064 31.0937C30.3328 30.9276 30.1018 30.8349 29.8615 30.8349C29.6212 30.8349 29.3902 30.9276 29.2165 31.0937L7.74529 51.6051C7.6541 51.6923 7.58156 51.7971 7.53205 51.9132C7.48253 52.0292 7.45708 52.1542 7.45722 52.2803L7.45372 71.531C7.45372 72.5208 7.84692 73.4701 8.54683 74.17C9.24673 74.8699 10.196 75.2631 11.1858 75.2631H22.3938C22.8887 75.2631 23.3633 75.0665 23.7133 74.7165C24.0632 74.3666 24.2598 73.8919 24.2598 73.397V57.5356C24.2598 57.2882 24.3581 57.0508 24.5331 56.8759C24.7081 56.7009 24.9454 56.6026 25.1929 56.6026H34.5231C34.7706 56.6026 35.0079 56.7009 35.1829 56.8759C35.3578 57.0508 35.4561 57.2882 35.4561 57.5356V73.397C35.4561 73.8919 35.6527 74.3666 36.0027 74.7165C36.3526 75.0665 36.8273 75.2631 37.3222 75.2631H48.5255C49.5153 75.2631 50.4646 74.8699 51.1645 74.17C51.8644 73.4701 52.2576 72.5208 52.2576 71.531V52.2803C52.2577 52.1542 52.2323 52.0292 52.1828 51.9132C52.1332 51.7971 52.0607 51.6923 51.9695 51.6051L30.5064 31.0937Z" fill="#EAD08D"/>
<path d="M57.2551 47.7563L48.5313 39.4104V26.7458C48.5313 26.2509 48.3347 25.7762 47.9848 25.4263C47.6348 25.0763 47.1602 24.8797 46.6653 24.8797H41.0671C40.5722 24.8797 40.0976 25.0763 39.7476 25.4263C39.3977 25.7762 39.2011 26.2509 39.2011 26.7458V30.4779L32.446 24.019C31.8138 23.3799 30.8738 23.0137 29.858 23.0137C28.8457 23.0137 27.908 23.3799 27.2758 24.0202L2.46903 47.754C1.74361 48.4538 1.65264 49.6049 2.31275 50.363C2.47852 50.5543 2.68148 50.7099 2.9093 50.8204C3.13712 50.9308 3.38503 50.9937 3.63793 51.0053C3.89083 51.0168 4.14344 50.9768 4.38039 50.8876C4.61733 50.7985 4.83365 50.662 5.01619 50.4866L29.2165 27.3616C29.3902 27.1955 29.6212 27.1028 29.8615 27.1028C30.1018 27.1028 30.3328 27.1955 30.5064 27.3616L54.7091 50.4866C55.0656 50.8285 55.5432 51.0151 56.037 51.0055C56.5309 50.9958 57.0008 50.7908 57.3437 50.4353C58.0598 49.6935 58.0004 48.4689 57.2551 47.7563Z" fill="#EAD08D"/>
<path d="M48.5312 11.1536V34.8917H39.1875V11.1536H48.5312Z" fill="#EAD08D"/>
<path d="M69.3764 10.9852C72.0982 10.9852 74.2166 11.8971 75.7318 13.721C77.2751 15.5448 78.0467 18.014 78.0467 21.1286V34.8917H68.7451V22.3071C68.7451 21.1847 68.4364 20.3009 67.8191 19.6555C67.2299 18.9821 66.4302 18.6454 65.4201 18.6454C64.3819 18.6454 63.5681 18.9821 62.9789 19.6555C62.3897 20.3009 62.095 21.1847 62.095 22.3071V34.8917H52.7513V11.1536H62.095V14.7732C62.8246 13.6508 63.7926 12.7389 64.9992 12.0374C66.2338 11.3359 67.6929 10.9852 69.3764 10.9852Z" fill="#EAD08D"/>
<path d="M96.8716 26.9369V34.8917H93.3362C86.8264 34.8917 83.5715 31.6508 83.5715 25.1692V18.94H80.6253V11.1536H83.5715V5.42947H92.9153V11.1536H96.7875V18.94H92.9153V25.3375C92.9153 25.8987 93.0415 26.3056 93.2941 26.5581C93.5747 26.8106 94.0236 26.9369 94.6409 26.9369H96.8716Z" fill="#EAD08D"/>
<path d="M123.411 22.8122C123.411 23.4575 123.369 24.0748 123.284 24.6641H108.259C108.399 26.7124 109.255 27.7366 110.826 27.7366C111.836 27.7366 112.566 27.2736 113.015 26.3476H122.906C122.569 28.0312 121.853 29.5464 120.759 30.8932C119.693 32.212 118.332 33.2643 116.676 34.0499C115.049 34.8075 113.253 35.1863 111.289 35.1863C108.932 35.1863 106.828 34.6953 104.976 33.7132C103.152 32.7311 101.721 31.3282 100.683 29.5043C99.6725 27.6524 99.1675 25.4918 99.1675 23.0226C99.1675 20.5534 99.6725 18.4069 100.683 16.583C101.721 14.7311 103.152 13.3141 104.976 12.332C106.828 11.35 108.932 10.8589 111.289 10.8589C113.646 10.8589 115.736 11.35 117.56 12.332C119.412 13.2861 120.843 14.661 121.853 16.4568C122.892 18.2525 123.411 20.371 123.411 22.8122ZM113.941 20.5815C113.941 19.7958 113.688 19.2066 113.183 18.8137C112.678 18.3928 112.047 18.1824 111.289 18.1824C109.634 18.1824 108.666 18.9821 108.385 20.5815H113.941Z" fill="#EAD08D"/>
<path d="M135.709 15.5308C136.664 14.1559 137.828 13.0616 139.203 12.2479C140.578 11.4061 142.009 10.9852 143.496 10.9852V20.9603H140.844C139.077 20.9603 137.772 21.2689 136.93 21.8862C136.116 22.5035 135.709 23.5978 135.709 25.1692V34.8917H126.366V11.1536H135.709V15.5308Z" fill="#EAD08D"/>
<path d="M150.727 9.25956C149.099 9.25956 147.794 8.82464 146.812 7.9548C145.83 7.08496 145.339 5.99065 145.339 4.67187C145.339 3.32502 145.83 2.21668 146.812 1.34684C147.794 0.448948 149.099 0 150.727 0C152.326 0 153.617 0.448948 154.599 1.34684C155.581 2.21668 156.072 3.32502 156.072 4.67187C156.072 5.99065 155.581 7.08496 154.599 7.9548C153.617 8.82464 152.326 9.25956 150.727 9.25956ZM155.356 11.1536V34.8917H146.013V11.1536H155.356Z" fill="#EAD08D"/>
<path d="M170.856 35.1863C168.471 35.1863 166.325 34.6953 164.417 33.7132C162.509 32.7311 161.008 31.3282 159.913 29.5043C158.847 27.6524 158.314 25.4918 158.314 23.0226C158.314 20.5534 158.847 18.4069 159.913 16.583C161.008 14.7311 162.509 13.3141 164.417 12.332C166.325 11.35 168.471 10.8589 170.856 10.8589C173.241 10.8589 175.388 11.35 177.296 12.332C179.204 13.3141 180.691 14.7311 181.757 16.583C182.852 18.4069 183.399 20.5534 183.399 23.0226C183.399 25.4918 182.852 27.6524 181.757 29.5043C180.691 31.3282 179.204 32.7311 177.296 33.7132C175.388 34.6953 173.241 35.1863 170.856 35.1863ZM170.856 27.1052C171.726 27.1052 172.456 26.7685 173.045 26.0951C173.634 25.3936 173.929 24.3695 173.929 23.0226C173.929 21.6758 173.634 20.6656 173.045 19.9922C172.456 19.2907 171.726 18.94 170.856 18.94C169.986 18.94 169.257 19.2907 168.668 19.9922C168.078 20.6656 167.784 21.6758 167.784 23.0226C167.784 24.3695 168.064 25.3936 168.626 26.0951C169.215 26.7685 169.958 27.1052 170.856 27.1052Z" fill="#EAD08D"/>
<path d="M195.678 15.5308C196.632 14.1559 197.796 13.0616 199.171 12.2479C200.546 11.4061 201.977 10.9852 203.464 10.9852V20.9603H200.813C199.045 20.9603 197.74 21.2689 196.898 21.8862C196.085 22.5035 195.678 23.5978 195.678 25.1692V34.8917H186.334V11.1536H195.678V15.5308Z" fill="#EAD08D"/>
<path d="M72.3045 54.6714C74.3975 54.6714 76.2265 55.0957 77.7915 55.9442C79.3754 56.7927 80.5916 57.9712 81.4401 59.4796C82.2886 60.9881 82.7128 62.7039 82.7128 64.6272C82.7128 66.5316 82.2886 68.2475 81.4401 69.7748C80.5916 71.3021 79.3754 72.5088 77.7915 73.395C76.2265 74.2624 74.3975 74.6961 72.3045 74.6961H63.9609V54.6714H72.3045ZM71.7389 69.096C73.153 69.096 74.2749 68.7094 75.1046 67.9363C75.9342 67.1633 76.3491 66.0602 76.3491 64.6272C76.3491 63.1942 75.9342 62.0911 75.1046 61.318C74.2749 60.545 73.153 60.1584 71.7389 60.1584H70.2399V69.096H71.7389Z" fill="white"/>
<path d="M91.2591 59.6776V62.1382H97.4814V66.8616H91.2591V69.6899H98.3299V74.6961H84.9801V54.6714H98.3299V59.6776H91.2591Z" fill="white"/>
<path d="M108.531 74.8941C106.136 74.8941 104.156 74.3378 102.591 73.2253C101.045 72.094 100.206 70.4441 100.074 68.2757H106.749C106.843 69.4259 107.352 70.001 108.276 70.001C108.616 70.001 108.898 69.9256 109.125 69.7748C109.37 69.6051 109.492 69.3505 109.492 69.0111C109.492 68.5397 109.238 68.1626 108.729 67.8798C108.22 67.5781 107.428 67.2387 106.353 66.8616C105.071 66.409 104.005 65.9659 103.157 65.5323C102.327 65.0986 101.611 64.4669 101.007 63.6373C100.404 62.8076 100.112 61.7423 100.131 60.4412C100.131 59.1402 100.461 58.0372 101.12 57.1321C101.799 56.2082 102.714 55.5105 103.864 55.0391C105.033 54.5677 106.343 54.332 107.795 54.332C110.247 54.332 112.189 54.8977 113.622 56.029C115.074 57.1604 115.837 58.7537 115.913 60.8089H109.153C109.134 60.2433 108.993 59.8379 108.729 59.5927C108.465 59.3476 108.144 59.2251 107.767 59.2251C107.503 59.2251 107.286 59.3193 107.117 59.5079C106.947 59.6776 106.862 59.9227 106.862 60.2433C106.862 60.6958 107.107 61.0729 107.597 61.3746C108.106 61.6574 108.908 62.0063 110.001 62.4211C111.265 62.8925 112.302 63.345 113.113 63.7787C113.942 64.2124 114.659 64.8157 115.262 65.5888C115.866 66.3619 116.167 67.333 116.167 68.502C116.167 69.7276 115.866 70.8307 115.262 71.8112C114.659 72.7728 113.782 73.527 112.632 74.0738C111.482 74.6207 110.115 74.8941 108.531 74.8941Z" fill="white"/>
<path d="M124.652 54.6714V74.6961H118.373V54.6714H124.652Z" fill="white"/>
<path d="M139.763 61.516C139.518 61.12 139.169 60.8184 138.717 60.6109C138.264 60.3847 137.717 60.2715 137.076 60.2715C135.869 60.2715 134.936 60.6675 134.276 61.4594C133.616 62.2325 133.286 63.2979 133.286 64.6555C133.286 66.2205 133.654 67.3895 134.389 68.1626C135.125 68.9357 136.256 69.3222 137.783 69.3222C139.235 69.3222 140.404 68.7377 141.29 67.5687H136.284V63.1282H146.495V69.4071C145.627 70.8967 144.43 72.1789 142.903 73.2536C141.375 74.3095 139.443 74.8375 137.104 74.8375C135.03 74.8375 133.22 74.4132 131.674 73.5647C130.147 72.6974 128.968 71.4906 128.139 69.9445C127.328 68.3983 126.922 66.6353 126.922 64.6555C126.922 62.6756 127.328 60.9126 128.139 59.3665C128.968 57.8203 130.147 56.623 131.674 55.7745C133.201 54.9071 134.993 54.4734 137.048 54.4734C139.669 54.4734 141.799 55.1051 143.44 56.3684C145.099 57.6318 146.08 59.3476 146.381 61.516H139.763Z" fill="white"/>
<path d="M167.96 74.6961H161.681L155.035 64.6272V74.6961H148.756V54.6714H155.035L161.681 64.91V54.6714H167.96V74.6961Z" fill="white"/>
<path d="M177.076 59.6776V62.1382H183.298V66.8616H177.076V69.6899H184.147V74.6961H170.797V54.6714H184.147V59.6776H177.076Z" fill="white"/>
<path d="M196.582 74.6961L192.82 67.5121H192.792V74.6961H186.513V54.6714H195.847C197.468 54.6714 198.854 54.9637 200.004 55.5482C201.154 56.1139 202.012 56.8964 202.578 57.8957C203.163 58.8762 203.455 59.9887 203.455 61.2332C203.455 62.5719 203.078 63.7598 202.324 64.7969C201.588 65.8339 200.523 66.5787 199.127 67.0313L203.483 74.6961H196.582ZM192.792 63.3261H195.281C195.884 63.3261 196.337 63.1942 196.639 62.9302C196.94 62.6473 197.091 62.2137 197.091 61.6291C197.091 61.1012 196.931 60.6864 196.61 60.3847C196.309 60.083 195.865 59.9321 195.281 59.9321H192.792V63.3261Z" fill="white"/>
</svg>
