<svg width="430" height="230" viewBox="0 0 430 230" fill="none" xmlns="http://www.w3.org/2000/svg">
<rect width="430" height="230" fill="#121011"/>
<g clip-path="url(#clip0_1998_2700)">
<mask id="mask0_1998_2700" style="mask-type:luminance" maskUnits="userSpaceOnUse" x="49" y="47" width="332" height="136">
<path d="M49 47.5H381V182.5H49V47.5Z" fill="white"/>
</mask>
<g mask="url(#mask0_1998_2700)">
<path d="M230.882 123.557C228.572 119.708 226.074 115.909 223.385 112.157C220.696 108.405 217.835 104.864 214.802 101.533V123.557H206.84V89.9383H213.407C214.544 91.0054 215.801 92.3156 217.181 93.8681C218.559 95.4206 219.964 97.0777 221.394 98.8402C222.825 100.603 224.246 102.43 225.66 104.322C227.073 106.214 228.4 108.033 229.641 109.779V89.9383H237.655V123.557H230.882Z" fill="white"/>
<path d="M245.93 123.557V89.9383H270.127V96.2934H253.996V102.891H268.317V109.1H253.996V117.202H271.317V123.557H245.93Z" fill="white"/>
<path d="M286.774 89.9383C287.396 91.0054 288.113 92.3237 288.926 93.8917C289.737 95.4611 290.584 97.1587 291.465 98.986C292.347 100.813 293.219 102.681 294.083 104.588C294.947 106.497 295.76 108.292 296.52 109.973C297.28 108.292 298.093 106.497 298.957 104.588C299.821 102.681 300.693 100.813 301.575 98.986C302.456 97.1587 303.303 95.4611 304.115 93.8917C304.927 92.3237 305.644 91.0054 306.267 89.9383H313.608C313.952 92.1698 314.272 94.668 314.565 97.4335C314.857 100.198 315.116 103.077 315.341 106.068C315.565 109.06 315.771 112.059 315.961 115.067C316.149 118.074 316.314 120.905 316.452 123.557H308.593C308.49 120.29 308.352 116.733 308.18 112.884C308.006 109.035 307.748 105.155 307.404 101.241C306.78 102.6 306.089 104.103 305.329 105.753C304.568 107.403 303.816 109.052 303.073 110.701C302.329 112.35 301.612 113.927 300.921 115.431C300.229 116.935 299.641 118.22 299.157 119.287H293.521C293.037 118.22 292.45 116.935 291.758 115.431C291.067 113.927 290.348 112.35 289.605 110.701C288.862 109.052 288.109 107.403 287.349 105.753C286.588 104.103 285.897 102.6 285.275 101.241C284.929 105.155 284.672 109.035 284.499 112.884C284.327 116.733 284.189 120.29 284.086 123.557H276.227C276.364 120.905 276.528 118.074 276.718 115.067C276.907 112.059 277.114 109.06 277.338 106.068C277.562 103.077 277.821 100.198 278.114 97.4335C278.406 94.668 278.725 92.1698 279.07 89.9383H286.774Z" fill="white"/>
<path d="M330.411 106.722C330.411 108.371 330.625 109.86 331.057 111.185C331.487 112.512 332.108 113.652 332.918 114.605C333.728 115.559 334.719 116.296 335.892 116.813C337.063 117.33 338.407 117.588 339.925 117.588C341.406 117.588 342.743 117.33 343.931 116.813C345.12 116.296 346.12 115.559 346.93 114.605C347.74 113.652 348.36 112.512 348.792 111.185C349.222 109.86 349.438 108.371 349.438 106.722C349.438 105.072 349.222 103.577 348.792 102.235C348.36 100.893 347.74 99.7447 346.93 98.7909C346.12 97.8371 345.12 97.1007 343.931 96.583C342.743 96.0659 341.406 95.8067 339.925 95.8067C338.407 95.8067 337.063 96.074 335.892 96.6073C334.719 97.1412 333.728 97.8857 332.918 98.8388C332.108 99.7933 331.487 100.941 331.057 102.283C330.625 103.626 330.411 105.105 330.411 106.722ZM357.762 106.722C357.762 109.601 357.305 112.131 356.392 114.314C355.478 116.497 354.228 118.325 352.643 119.796C351.057 121.268 349.17 122.375 346.982 123.119C344.793 123.862 342.44 124.234 339.925 124.234C337.477 124.234 335.168 123.862 332.996 123.119C330.824 122.375 328.928 121.268 327.309 119.796C325.688 118.325 324.413 116.497 323.482 114.314C322.552 112.131 322.086 109.601 322.086 106.722C322.086 103.844 322.569 101.313 323.534 99.1304C324.499 96.9468 325.8 95.1122 327.438 93.6245C329.074 92.1368 330.971 91.021 333.125 90.2765C335.279 89.5333 337.546 89.1614 339.925 89.1614C342.372 89.1614 344.682 89.5333 346.853 90.2765C349.025 91.021 350.919 92.1368 352.54 93.6245C354.16 95.1122 355.436 96.9468 356.366 99.1304C357.297 101.313 357.762 103.844 357.762 106.722Z" fill="white"/>
<path d="M209.82 142.517C211.235 142.517 211.942 142.063 211.942 141.155C211.942 140.875 211.879 140.637 211.754 140.441C211.628 140.244 211.458 140.074 211.244 139.93C211.03 139.786 210.785 139.661 210.511 139.556C210.236 139.452 209.946 139.347 209.638 139.243C209.285 139.128 208.949 139 208.633 138.856C208.317 138.711 208.042 138.541 207.81 138.345C207.577 138.148 207.393 137.915 207.259 137.644C207.123 137.373 207.056 137.046 207.056 136.662C207.056 135.867 207.344 135.247 207.921 134.802C208.498 134.356 209.294 134.133 210.308 134.133C210.895 134.133 211.428 134.192 211.907 134.31C212.387 134.428 212.738 134.557 212.962 134.697L212.528 135.732C212.333 135.618 212.042 135.507 211.656 135.398C211.269 135.288 210.821 135.234 210.308 135.234C210.048 135.234 209.806 135.26 209.582 135.313C209.359 135.365 209.164 135.443 208.996 135.548C208.828 135.653 208.696 135.787 208.598 135.948C208.5 136.109 208.452 136.3 208.452 136.518C208.452 136.762 208.503 136.967 208.605 137.133C208.708 137.299 208.851 137.446 209.038 137.572C209.224 137.699 209.441 137.814 209.687 137.919C209.934 138.023 210.206 138.129 210.504 138.233C210.923 138.391 211.307 138.548 211.656 138.705C212.005 138.862 212.308 139.05 212.563 139.268C212.819 139.487 213.017 139.747 213.156 140.048C213.297 140.349 213.367 140.713 213.367 141.141C213.367 141.936 213.056 142.547 212.438 142.975C211.818 143.403 210.946 143.617 209.82 143.617C209.438 143.617 209.087 143.593 208.766 143.545C208.445 143.497 208.159 143.44 207.907 143.375C207.656 143.309 207.439 143.239 207.259 143.166C207.077 143.091 206.934 143.027 206.832 142.975L207.237 141.928C207.451 142.041 207.777 142.167 208.215 142.307C208.652 142.447 209.187 142.517 209.82 142.517Z" fill="white"/>
<path d="M217.68 135.364C217.103 135.364 216.66 135.377 216.353 135.404V138.966H217.373C217.838 138.966 218.257 138.938 218.629 138.881C219.001 138.825 219.315 138.729 219.571 138.593C219.828 138.458 220.025 138.272 220.165 138.037C220.304 137.801 220.374 137.499 220.374 137.133C220.374 136.783 220.302 136.495 220.158 136.268C220.014 136.041 219.818 135.86 219.571 135.724C219.325 135.589 219.039 135.495 218.713 135.443C218.387 135.391 218.043 135.364 217.68 135.364ZM217.568 134.251C218.927 134.251 219.971 134.493 220.703 134.978C221.433 135.462 221.799 136.185 221.799 137.146C221.799 137.67 221.699 138.117 221.499 138.488C221.298 138.86 221.01 139.161 220.632 139.392C220.255 139.624 219.797 139.792 219.258 139.896C218.718 140.001 218.108 140.054 217.429 140.054H216.353V143.42H215V134.473C215.381 134.386 215.807 134.328 216.277 134.297C216.747 134.266 217.177 134.251 217.568 134.251Z" fill="white"/>
<path d="M224.518 138.875C224.518 139.425 224.592 139.926 224.741 140.375C224.89 140.825 225.102 141.207 225.377 141.521C225.651 141.836 225.986 142.078 226.382 142.248C226.777 142.418 227.222 142.503 227.715 142.503C228.208 142.503 228.651 142.418 229.042 142.248C229.433 142.078 229.766 141.836 230.04 141.521C230.315 141.207 230.526 140.825 230.675 140.375C230.824 139.926 230.898 139.425 230.898 138.875C230.898 138.325 230.824 137.825 230.675 137.375C230.526 136.926 230.315 136.544 230.04 136.229C229.766 135.915 229.433 135.673 229.042 135.502C228.651 135.332 228.208 135.247 227.715 135.247C227.222 135.247 226.777 135.332 226.382 135.502C225.986 135.673 225.651 135.915 225.377 136.229C225.102 136.544 224.89 136.926 224.741 137.375C224.592 137.825 224.518 138.325 224.518 138.875ZM223.094 138.875C223.094 138.098 223.217 137.413 223.464 136.819C223.711 136.225 224.046 135.73 224.469 135.332C224.892 134.935 225.387 134.636 225.949 134.435C226.512 134.234 227.11 134.133 227.743 134.133C228.367 134.133 228.956 134.234 229.51 134.435C230.064 134.636 230.549 134.935 230.968 135.332C231.387 135.73 231.72 136.225 231.966 136.819C232.213 137.413 232.337 138.098 232.337 138.875C232.337 139.653 232.213 140.338 231.966 140.932C231.72 141.526 231.387 142.021 230.968 142.418C230.549 142.816 230.064 143.115 229.51 143.316C228.956 143.517 228.367 143.617 227.743 143.617C227.11 143.617 226.512 143.517 225.949 143.316C225.387 143.115 224.892 142.816 224.469 142.418C224.046 142.021 223.711 141.526 223.464 140.932C223.217 140.338 223.094 139.653 223.094 138.875Z" fill="white"/>
<path d="M237.028 135.364C236.451 135.364 236.008 135.377 235.701 135.404V138.822H236.664C237.13 138.822 237.549 138.801 237.921 138.757C238.293 138.713 238.607 138.63 238.863 138.508C239.119 138.386 239.317 138.214 239.456 137.991C239.597 137.768 239.666 137.473 239.666 137.107C239.666 136.766 239.597 136.482 239.456 136.255C239.317 136.028 239.129 135.849 238.892 135.718C238.654 135.587 238.375 135.495 238.053 135.443C237.733 135.391 237.391 135.364 237.028 135.364ZM239.08 139.622C239.229 139.797 239.417 140.025 239.645 140.309C239.873 140.593 240.108 140.908 240.351 141.252C240.592 141.597 240.832 141.958 241.069 142.333C241.307 142.708 241.509 143.071 241.676 143.42H240.197C240.01 143.088 239.808 142.752 239.589 142.411C239.371 142.071 239.15 141.746 238.926 141.435C238.703 141.126 238.481 140.835 238.263 140.565C238.044 140.294 237.847 140.058 237.67 139.857C237.549 139.866 237.426 139.871 237.299 139.871H236.916H235.701V143.42H234.348V134.473C234.728 134.386 235.155 134.328 235.625 134.297C236.094 134.266 236.525 134.251 236.916 134.251C238.274 134.251 239.31 134.491 240.022 134.972C240.734 135.452 241.09 136.168 241.09 137.119C241.09 137.722 240.92 138.238 240.581 138.665C240.24 139.093 239.74 139.412 239.08 139.622Z" fill="white"/>
<path d="M249.593 134.343V135.443H246.55V143.42H245.196V135.443H242.152V134.343H249.593Z" fill="white"/>
<path d="M251.674 138.875C251.674 139.425 251.749 139.926 251.897 140.375C252.046 140.825 252.259 141.207 252.533 141.521C252.808 141.836 253.142 142.078 253.538 142.248C253.933 142.418 254.378 142.503 254.872 142.503C255.364 142.503 255.808 142.418 256.198 142.248C256.589 142.078 256.922 141.836 257.196 141.521C257.471 141.207 257.682 140.825 257.831 140.375C257.98 139.926 258.054 139.425 258.054 138.875C258.054 138.325 257.98 137.825 257.831 137.375C257.682 136.926 257.471 136.544 257.196 136.229C256.922 135.915 256.589 135.673 256.198 135.502C255.808 135.332 255.364 135.247 254.872 135.247C254.378 135.247 253.933 135.332 253.538 135.502C253.142 135.673 252.808 135.915 252.533 136.229C252.259 136.544 252.046 136.926 251.897 137.375C251.749 137.825 251.674 138.325 251.674 138.875ZM250.25 138.875C250.25 138.098 250.374 137.413 250.621 136.819C250.867 136.225 251.202 135.73 251.626 135.332C252.049 134.935 252.543 134.636 253.105 134.435C253.669 134.234 254.267 134.133 254.9 134.133C255.523 134.133 256.112 134.234 256.666 134.435C257.22 134.636 257.705 134.935 258.124 135.332C258.544 135.73 258.876 136.225 259.123 136.819C259.369 137.413 259.493 138.098 259.493 138.875C259.493 139.653 259.369 140.338 259.123 140.932C258.876 141.526 258.544 142.021 258.124 142.418C257.705 142.816 257.22 143.115 256.666 143.316C256.112 143.517 255.523 143.617 254.9 143.617C254.267 143.617 253.669 143.517 253.105 143.316C252.543 143.115 252.049 142.816 251.626 142.418C251.202 142.021 250.867 141.526 250.621 140.932C250.374 140.338 250.25 139.653 250.25 138.875Z" fill="white"/>
<path d="M266.57 137.265C266.18 138.436 265.783 139.518 265.383 140.513C264.983 141.509 264.583 142.478 264.182 143.422H262.828C262.335 142.085 261.9 140.675 261.523 139.191C261.146 137.706 260.795 136.091 260.469 134.344H261.893C262.023 135.026 262.159 135.706 262.298 136.387C262.437 137.069 262.582 137.73 262.731 138.372C262.88 139.013 263.028 139.628 263.177 140.212C263.326 140.797 263.48 141.339 263.639 141.837C264.01 140.92 264.406 139.913 264.825 138.817C265.244 137.721 265.634 136.589 265.998 135.418H267.171C267.533 136.589 267.929 137.721 268.357 138.817C268.785 139.913 269.185 140.92 269.558 141.837C269.707 141.348 269.855 140.811 270.005 140.226C270.153 139.641 270.3 139.027 270.444 138.385C270.589 137.743 270.73 137.08 270.87 136.394C271.01 135.709 271.144 135.026 271.275 134.344H272.657C272.322 136.091 271.966 137.706 271.589 139.191C271.212 140.675 270.782 142.085 270.298 143.422H268.944C268.534 142.478 268.133 141.509 267.743 140.513C267.352 139.518 266.961 138.436 266.57 137.265Z" fill="white"/>
<path d="M279.193 140.054C278.894 139.294 278.599 138.559 278.306 137.846C278.013 137.135 277.708 136.451 277.392 135.796C277.066 136.451 276.756 137.135 276.463 137.846C276.17 138.559 275.879 139.294 275.591 140.054H279.193ZM280.463 143.42C280.304 143.027 280.156 142.64 280.017 142.261C279.877 141.881 279.732 141.495 279.584 141.101H275.2L274.32 143.42H272.91C273.283 142.459 273.632 141.571 273.958 140.754C274.283 139.938 274.602 139.163 274.914 138.43C275.225 137.696 275.535 136.995 275.843 136.327C276.149 135.659 276.47 134.997 276.805 134.343H278.048C278.383 134.997 278.704 135.659 279.011 136.327C279.318 136.995 279.628 137.696 279.94 138.43C280.251 139.163 280.57 139.938 280.896 140.754C281.222 141.571 281.571 142.459 281.943 143.42H280.463Z" fill="white"/>
<path d="M289.16 135.364C288.583 135.364 288.141 135.377 287.834 135.404V138.966H288.853C289.319 138.966 289.737 138.938 290.109 138.881C290.482 138.825 290.796 138.729 291.052 138.593C291.309 138.458 291.506 138.272 291.646 138.037C291.785 137.801 291.855 137.499 291.855 137.133C291.855 136.783 291.783 136.495 291.638 136.268C291.494 136.041 291.298 135.86 291.052 135.724C290.806 135.589 290.519 135.495 290.193 135.443C289.868 135.391 289.524 135.364 289.16 135.364ZM289.049 134.251C290.407 134.251 291.452 134.493 292.183 134.978C292.914 135.462 293.279 136.185 293.279 137.146C293.279 137.67 293.179 138.117 292.979 138.488C292.778 138.86 292.491 139.161 292.113 139.392C291.736 139.624 291.278 139.792 290.738 139.896C290.198 140.001 289.588 140.054 288.909 140.054H287.834V143.42H286.48V134.473C286.861 134.386 287.288 134.328 287.757 134.297C288.227 134.266 288.657 134.251 289.049 134.251Z" fill="white"/>
<path d="M297.649 135.364C297.072 135.364 296.629 135.377 296.322 135.404V138.822H297.285C297.751 138.822 298.17 138.801 298.542 138.757C298.914 138.713 299.228 138.63 299.485 138.508C299.74 138.386 299.939 138.214 300.077 137.991C300.218 137.768 300.287 137.473 300.287 137.107C300.287 136.766 300.218 136.482 300.077 136.255C299.939 136.028 299.75 135.849 299.513 135.718C299.275 135.587 298.996 135.495 298.674 135.443C298.354 135.391 298.012 135.364 297.649 135.364ZM299.701 139.622C299.85 139.797 300.038 140.025 300.267 140.309C300.494 140.593 300.729 140.908 300.972 141.252C301.213 141.597 301.453 141.958 301.69 142.333C301.928 142.708 302.13 143.071 302.298 143.42H300.818C300.631 143.088 300.429 142.752 300.21 142.411C299.992 142.071 299.771 141.746 299.547 141.435C299.324 141.126 299.103 140.835 298.884 140.565C298.665 140.294 298.468 140.058 298.291 139.857C298.17 139.866 298.047 139.871 297.921 139.871H297.537H296.322V143.42H294.969V134.473C295.349 134.386 295.776 134.328 296.246 134.297C296.716 134.266 297.146 134.251 297.537 134.251C298.895 134.251 299.931 134.491 300.644 134.972C301.355 135.452 301.711 136.168 301.711 137.119C301.711 137.722 301.541 138.238 301.202 138.665C300.862 139.093 300.362 139.412 299.701 139.622Z" fill="white"/>
<path d="M310.086 135.351C309.871 135.578 309.623 135.851 309.339 136.17C309.055 136.488 308.755 136.842 308.438 137.231C308.122 137.62 307.797 138.03 307.461 138.462C307.126 138.894 306.798 139.331 306.476 139.772C306.156 140.213 305.851 140.652 305.562 141.088C305.274 141.525 305.013 141.94 304.781 142.332H310.225V143.42H303.203V142.569C303.398 142.22 303.629 141.835 303.894 141.416C304.159 140.997 304.443 140.569 304.746 140.132C305.048 139.696 305.362 139.254 305.689 138.809C306.014 138.363 306.337 137.936 306.659 137.526C306.979 137.115 307.292 136.731 307.594 136.373C307.896 136.014 308.173 135.701 308.424 135.429H303.454V134.343H310.086V135.351Z" fill="white"/>
<path d="M314.413 143.422V139.78C313.771 138.846 313.166 137.925 312.598 137.017C312.03 136.108 311.495 135.218 310.992 134.344H312.584C312.938 135.061 313.333 135.788 313.771 136.525C314.208 137.263 314.659 137.973 315.125 138.654C315.581 137.973 316.027 137.263 316.465 136.525C316.902 135.788 317.303 135.061 317.666 134.344H319.173C318.671 135.218 318.135 136.106 317.568 137.01C317 137.914 316.399 138.828 315.767 139.754V143.422H314.413Z" fill="white"/>
<path d="M325.792 138.953H327.146V143.197C327.035 143.233 326.874 143.272 326.665 143.315C326.456 143.359 326.213 143.403 325.939 143.446C325.664 143.49 325.364 143.527 325.039 143.558C324.713 143.589 324.382 143.604 324.047 143.604C323.368 143.604 322.749 143.499 322.191 143.289C321.633 143.08 321.153 142.774 320.752 142.372C320.353 141.971 320.043 141.477 319.824 140.892C319.605 140.307 319.496 139.635 319.496 138.875C319.496 138.115 319.619 137.441 319.867 136.851C320.113 136.262 320.446 135.766 320.864 135.364C321.283 134.963 321.774 134.657 322.337 134.447C322.9 134.238 323.503 134.133 324.145 134.133C324.582 134.133 324.971 134.16 325.31 134.212C325.651 134.264 325.941 134.325 326.183 134.395C326.426 134.465 326.623 134.535 326.777 134.604C326.931 134.675 327.035 134.727 327.091 134.762L326.658 135.823C326.388 135.657 326.03 135.52 325.583 135.41C325.136 135.301 324.68 135.246 324.215 135.246C323.721 135.246 323.272 135.329 322.868 135.495C322.463 135.661 322.118 135.902 321.835 136.216C321.551 136.53 321.33 136.912 321.172 137.362C321.013 137.812 320.934 138.316 320.934 138.875C320.934 139.416 321.001 139.91 321.136 140.355C321.271 140.8 321.476 141.182 321.751 141.501C322.026 141.82 322.365 142.067 322.769 142.241C323.175 142.416 323.652 142.503 324.201 142.503C324.592 142.503 324.924 142.484 325.2 142.445C325.474 142.405 325.672 142.368 325.792 142.333V138.953Z" fill="white"/>
<path d="M330.303 138.875C330.303 139.425 330.377 139.926 330.526 140.375C330.675 140.825 330.888 141.207 331.162 141.521C331.436 141.836 331.771 142.078 332.167 142.248C332.562 142.418 333.007 142.503 333.5 142.503C333.993 142.503 334.436 142.418 334.827 142.248C335.218 142.078 335.551 141.836 335.825 141.521C336.1 141.207 336.311 140.825 336.46 140.375C336.609 139.926 336.683 139.425 336.683 138.875C336.683 138.325 336.609 137.825 336.46 137.375C336.311 136.926 336.1 136.544 335.825 136.229C335.551 135.915 335.218 135.673 334.827 135.502C334.436 135.332 333.993 135.247 333.5 135.247C333.007 135.247 332.562 135.332 332.167 135.502C331.771 135.673 331.436 135.915 331.162 136.229C330.888 136.544 330.675 136.926 330.526 137.375C330.377 137.825 330.303 138.325 330.303 138.875ZM328.879 138.875C328.879 138.098 329.003 137.413 329.249 136.819C329.496 136.225 329.831 135.73 330.254 135.332C330.677 134.935 331.172 134.636 331.734 134.435C332.298 134.234 332.895 134.133 333.529 134.133C334.152 134.133 334.741 134.234 335.295 134.435C335.849 134.636 336.334 134.935 336.753 135.332C337.172 135.73 337.505 136.225 337.752 136.819C337.998 137.413 338.122 138.098 338.122 138.875C338.122 139.653 337.998 140.338 337.752 140.932C337.505 141.526 337.172 142.021 336.753 142.418C336.334 142.816 335.849 143.115 335.295 143.316C334.741 143.517 334.152 143.617 333.529 143.617C332.895 143.617 332.298 143.517 331.734 143.316C331.172 143.115 330.677 142.816 330.254 142.418C329.831 142.021 329.496 141.526 329.249 140.932C329.003 140.338 328.879 139.653 328.879 138.875Z" fill="white"/>
<path d="M342.809 142.386C344.093 142.386 345.051 142.078 345.685 141.463C346.318 140.847 346.634 139.985 346.634 138.876C346.634 137.767 346.318 136.905 345.685 136.289C345.051 135.673 344.093 135.366 342.809 135.366C342.427 135.366 342.132 135.37 341.922 135.378C341.713 135.387 341.566 135.396 341.482 135.405V142.347C341.566 142.356 341.713 142.365 341.922 142.373C342.132 142.382 342.427 142.386 342.809 142.386ZM348.072 138.876C348.072 139.661 347.942 140.345 347.681 140.926C347.42 141.507 347.053 141.987 346.579 142.367C346.104 142.747 345.536 143.03 344.875 143.218C344.215 143.406 343.488 143.5 342.697 143.5C342.306 143.5 341.876 143.484 341.406 143.454C340.936 143.423 340.509 143.364 340.129 143.277V134.475C340.509 134.388 340.936 134.328 341.406 134.298C341.876 134.267 342.306 134.252 342.697 134.252C343.488 134.252 344.215 134.346 344.875 134.533C345.536 134.721 346.104 135.005 346.579 135.384C347.053 135.765 347.42 136.245 347.681 136.826C347.942 137.407 348.072 138.09 348.072 138.876Z" fill="white"/>
<path d="M355.012 140.054C354.714 139.294 354.419 138.559 354.125 137.846C353.833 137.135 353.528 136.451 353.212 135.796C352.886 136.451 352.576 137.135 352.283 137.846C351.989 138.559 351.699 139.294 351.41 140.054H355.012ZM356.283 143.42C356.124 143.027 355.976 142.64 355.836 142.261C355.697 141.881 355.552 141.495 355.403 141.101H351.02L350.14 143.42H348.73C349.102 142.459 349.451 141.571 349.777 140.754C350.102 139.938 350.421 139.163 350.733 138.43C351.045 137.696 351.355 136.995 351.662 136.327C351.969 135.659 352.289 134.997 352.625 134.343H353.868C354.202 134.997 354.524 135.659 354.83 136.327C355.138 136.995 355.448 137.696 355.759 138.43C356.071 139.163 356.389 139.938 356.715 140.754C357.041 141.571 357.39 142.459 357.763 143.42H356.283Z" fill="white"/>
<path d="M139.148 108.873C139.176 108.95 139.205 109.028 139.297 109.277C139.126 109.078 139.08 109.026 139.035 108.973C139.073 108.939 139.111 108.906 139.148 108.873Z" fill="#FEFEFE"/>
<path d="M196.474 76.1739C194.795 78.3771 192.612 80.0903 190.298 81.6475C187.758 83.3566 185.15 84.978 182.551 86.6101C181.011 87.578 179.377 88.4218 177.884 89.4485C175.909 90.8066 174.692 92.7891 173.457 94.7114C172.379 96.3895 171.458 98.1546 170.453 99.8739C170.236 100.244 169.959 100.584 169.624 101.061C169.005 99.9278 168.435 98.9255 167.903 97.9062C166.857 95.9001 165.886 93.8441 165.612 91.6159C165.422 90.0729 165.43 88.4778 165.61 86.9327C165.819 85.1541 166.287 83.389 167.335 81.8426C168.244 80.5014 169.051 79.0454 170.212 77.9215C171.921 76.2678 174.001 75.044 176.43 74.3858C178.611 73.7945 180.798 73.1735 182.892 72.3615C185.245 71.4489 187.551 70.3993 189.779 69.2424C192.803 67.6723 194.748 65.2342 195.653 62.088C195.674 62.0151 195.701 61.9443 195.725 61.872C195.795 61.845 195.866 61.818 195.935 61.791C196.536 62.921 197.224 64.0185 197.719 65.1876C198.618 67.3119 198.925 69.5387 198.527 71.8067C198.244 73.4145 197.484 74.8496 196.474 76.1739ZM171.039 103.366C174.151 107.3 175.032 111.765 174.495 116.532C174.306 118.212 173.959 119.878 173.62 121.539C173.441 122.423 172.973 123.191 172.087 123.645C171.894 123.743 171.646 123.749 171.423 123.796C171.679 123.329 171.957 122.872 172.184 122.393C172.434 121.868 172.492 121.338 171.925 120.74C171.692 121.174 171.502 121.537 171.304 121.898C171.027 122.403 170.844 122.994 170.446 123.393C169.549 124.289 169.258 125.396 168.914 126.511C168.63 127.431 168.274 128.339 167.42 128.96C167.206 129.114 166.955 129.224 166.733 129.348C166.339 128.907 166.988 127.977 166.011 127.908C165.964 128.486 165.98 128.959 165.876 129.408C165.767 129.876 166.012 130.046 166.375 129.911C167.406 129.527 168.592 129.432 169.364 128.528C169.577 128.278 169.913 128.12 170.295 127.847C169.998 129.572 164.525 134.556 162.971 134.622C162.991 134.312 163.011 134.004 163.031 133.697C162.961 133.673 162.892 133.65 162.823 133.627C162.683 133.897 162.494 134.153 162.412 134.437C162.038 135.719 160.976 136.242 159.75 136.52C159.428 136.593 158.913 136.453 158.679 136.232C158.04 135.627 157.442 134.966 156.943 134.255C156.484 133.6 156.391 132.846 156.803 132.093C156.882 131.95 156.861 131.759 156.912 131.405C156.25 131.774 155.765 132.091 155.238 132.326C154.417 132.693 153.589 133.071 152.723 133.32C151.965 133.538 151.639 133.148 151.787 132.41C151.83 132.2 151.739 131.968 151.71 131.746C151.487 131.864 151.169 131.93 151.055 132.108C149.982 133.792 148.613 135.238 147.141 136.618C146.951 136.796 146.948 137.259 147.023 137.554C147.318 138.738 147.328 139.909 146.95 141.07C146.695 141.853 146.171 141.96 145.548 141.397C144.589 140.53 144.564 139.326 145.477 138.408C146.444 137.434 146.579 136.2 146.607 134.968C146.669 132.379 146.024 129.931 144.748 127.639C144.436 127.077 144.456 126.565 144.676 125.992C145.36 124.202 146.102 122.426 146.658 120.6C147.438 118.035 147.317 115.433 146.809 112.816C146.483 111.137 146.416 109.416 146.174 107.721C145.991 106.446 145.692 105.186 145.487 103.914C145.396 103.351 145.354 102.771 145.384 102.204C145.423 101.511 145.82 101.301 146.407 101.696C147.698 102.567 149.173 103.321 149.348 105.169C149.552 104.931 149.677 104.785 149.896 104.531C150.784 105.439 151.659 106.28 152.471 107.171C154.809 109.733 157.2 112.232 160.023 114.355C161.894 115.762 163.97 116.395 166.322 116.403C167.797 116.409 169.31 115.328 169.994 113.863C171.092 111.517 171.217 109.087 170.852 106.598C170.672 105.373 170.487 104.148 170.453 102.819C170.65 103 170.876 103.161 171.039 103.366ZM182.125 121.851C183.274 121.898 184.461 122.023 185.277 123.013C186.222 124.158 185.889 125.216 184.41 125.61C183.205 125.931 182.039 125.666 180.872 125.396C179.625 125.109 178.389 124.746 177.125 124.567C175.418 124.324 173.736 124.569 172.111 125.137C171.713 125.276 171.288 125.346 170.875 125.448C170.836 125.375 170.798 125.302 170.76 125.23C171.057 125.051 171.344 124.853 171.654 124.696C174.928 123.045 178.309 121.697 182.125 121.851ZM183.334 128.466C183.18 129.215 182.52 129.693 181.636 129.713C180.445 129.74 179.532 129.153 178.625 128.539C177.955 128.086 177.292 127.622 176.592 127.213C175.13 126.359 173.517 126.125 171.824 126.275C171.608 126.295 171.389 126.285 171.172 126.281C171.141 126.281 171.112 126.242 171.025 126.181C172.23 125.507 173.522 125.229 174.866 125.125C176.861 124.97 178.743 125.476 180.621 126.007C181.195 126.17 181.797 126.258 182.351 126.465C183.115 126.75 183.508 127.622 183.334 128.466ZM179.746 132.102C179.138 132.954 178.248 133.496 177.217 133.695C176.857 133.766 176.241 133.428 175.993 133.106C175.284 132.185 174.792 131.111 174.047 130.22C173.331 129.363 172.401 128.667 171.577 127.888C171.342 127.666 171.151 127.402 170.94 127.157C171.266 127.031 171.586 126.885 171.922 126.786C172.102 126.732 172.31 126.758 172.628 126.742C173.779 126.902 175.021 127.094 176.119 127.82C177.137 128.492 178.247 129.04 179.278 129.697C180.336 130.372 180.458 131.103 179.746 132.102ZM162.502 144.739C162.947 146.624 162.93 148.479 161.528 150.077C161.245 150.399 160.867 150.647 160.445 151.003C160.604 150.044 160.766 149.226 160.865 148.402C160.918 147.959 160.896 147.501 160.839 147.057C160.814 146.857 160.621 146.676 160.504 146.485C160.436 146.681 160.362 146.875 160.301 147.073C160.284 147.129 160.299 147.196 160.307 147.257C160.612 149.545 159.582 151.382 158.06 153.041C157.559 153.588 157.01 154.096 156.482 154.621C156.411 154.577 156.34 154.532 156.269 154.487C156.507 153.44 156.771 152.396 156.976 151.343C157.092 150.743 157.13 150.126 157.161 149.515C157.169 149.372 157.009 149.222 156.926 149.074C156.822 149.21 156.652 149.334 156.623 149.482C156.346 150.913 156.176 152.367 155.81 153.777C155.421 155.282 154.687 156.645 153.315 157.622C151.944 158.598 150.463 158.593 148.916 158.108C148.629 158.018 148.305 157.974 148.066 157.817C147.288 157.303 146.706 157.599 146.137 158.137C145.173 159.05 144.206 159.946 142.828 160.336C141.503 160.711 140.305 160.603 139.223 159.754C138.243 158.987 138.156 158.053 139.008 157.157C141.065 154.992 142.974 152.721 144.41 150.144C145.141 148.835 145.836 147.48 146.295 146.072C146.973 143.993 147.448 141.854 147.967 139.732C148.392 137.993 149.001 136.374 150.789 135.452C151.256 135.212 151.802 135.108 152.311 134.941C152.879 134.754 153.483 134.629 154.005 134.364C154.858 133.93 155.376 133.832 156.078 134.46C156.972 135.257 157.792 136.145 158.536 137.07C160.395 139.376 161.831 141.895 162.502 144.739ZM142.523 100.717C142.405 100.182 142.285 99.6484 142.152 99.0497C142.82 99.3953 142.959 99.9042 142.523 100.717ZM141.774 97.4931V96.0378C142.333 96.5157 142.33 96.9828 141.774 97.4931ZM137.972 92.4435C135.797 91.5612 133.545 90.8545 131.174 90.6041C128.341 90.3051 125.505 89.9297 122.661 89.8501C120.21 89.7819 117.745 90.058 115.29 90.2342C114.597 90.2834 114.261 89.9581 114.172 89.4559C113.995 88.4515 113.921 87.4309 113.826 86.415C113.543 83.3897 114.861 80.9509 117.063 78.8766C118.348 77.6664 119.855 76.851 121.759 76.7794C123.255 76.7227 124.368 77.2816 124.882 78.5486C125.372 79.7582 125.619 81.0555 125.954 82.3191C126.104 82.8895 126.206 83.4714 126.331 84.0478C126.414 84.0687 126.497 84.089 126.579 84.1099C126.664 83.9628 126.831 83.8102 126.821 83.6684C126.768 82.8436 126.931 82.5014 127.767 82.2374C130.164 81.4808 132.626 81.3093 135.12 81.6947C136.642 81.9303 138.049 82.4426 139.186 83.468C141.166 85.252 141.195 88.469 139.244 90.0378C138.967 90.2612 138.651 90.4421 138.354 90.6426C138.384 90.7141 138.414 90.7857 138.445 90.8572C139.059 90.7398 139.67 90.6142 140.286 90.5082C142.058 90.2018 143.823 90.0715 145.591 90.5683C147.805 91.19 148.223 92.6675 147.559 94.3753C147.243 95.1873 146.741 95.94 146.277 96.6953C146.084 97.0105 146.066 97.1826 146.475 97.2616C147.321 97.4256 148.178 97.5485 149.014 97.7496C150.269 98.052 151.543 98.3274 152.749 98.7615C153.915 99.1813 154.187 100.131 153.594 101.178C153.359 101.59 153.072 101.976 152.827 102.384C152.705 102.585 152.623 102.807 152.477 103.118C153.264 103.118 153.932 103.081 154.593 103.129C155.214 103.173 155.857 103.226 156.438 103.418C157.241 103.682 157.559 104.406 157.274 105.171C157.061 105.742 156.759 106.284 156.5 106.841C156.437 106.978 156.39 107.121 156.311 107.327C156.903 107.327 157.403 107.288 157.895 107.333C159.474 107.478 159.97 107.983 160.045 109.254C160.108 110.339 160.474 111.408 160.705 112.485C160.744 112.669 160.771 112.856 160.818 113.123C157.887 111.296 155.546 109.054 153.461 106.556C151.133 103.766 148.879 100.915 146.439 98.2127C144.138 95.6639 141.244 93.7712 137.972 92.4435ZM113.2 90.6864C110.518 92.7513 109.844 94.8033 110.863 97.9677C111.044 98.5286 111.215 99.0915 111.392 99.6538C107.751 97.7031 104.957 95.1894 104.675 91.0286C104.523 88.7768 106.378 86.01 108.613 85.1609C109.603 84.7842 110.677 84.5473 111.738 84.4076C112.887 84.2564 113.361 84.7653 113.402 85.8359C113.453 87.1636 113.579 88.4893 113.609 89.817C113.615 90.1093 113.437 90.5042 113.2 90.6864ZM169.213 102.506C168.964 102.461 168.671 102.48 168.472 102.361C167.372 101.699 166.222 101.086 165.223 100.305C160.694 96.7662 158.189 92.1674 157.674 86.6999C157.369 83.4639 157.474 80.1956 157.332 76.9441C157.223 74.4311 157.107 71.9133 156.83 69.4138C156.571 67.0898 155.669 64.917 154.69 62.7711C153.976 61.2045 153.409 59.5784 152.781 57.9773C152.737 57.8659 152.732 57.741 152.71 57.6263C157.058 57.4953 160.75 58.8635 163.972 61.4866C167.263 64.165 169.969 67.2619 171.895 70.9339C172.343 71.7885 172.682 72.6957 173.033 73.5921C173.253 74.1557 173.086 74.7436 172.549 74.9981C169.537 76.4311 168.4 79.2465 166.848 81.7393C165.169 84.4366 164.538 87.3695 164.879 90.4961C165.238 93.7773 166.291 96.8296 168.059 99.6774C168.485 100.363 168.835 101.094 169.177 101.821C169.269 102.016 169.205 102.276 169.213 102.506ZM195.942 60.9162C195.83 60.7522 195.655 60.6266 195.397 60.3722C195.279 60.9567 195.19 61.4103 195.097 61.8619C194.392 65.2626 192.105 67.5495 189.034 69.1857C184.91 71.3821 180.491 72.9002 175.85 73.8209C174.225 74.1428 173.68 74.3278 173.123 72.429C173.105 72.3703 173.069 72.317 173.046 72.2596C171.242 67.8654 168.126 64.3965 164.433 61.2929C160.893 58.3175 156.698 57.1322 152.069 56.9803C151.284 56.9547 151.197 57.1133 151.543 57.7397C152.264 59.0458 152.967 60.3607 153.671 61.6749C156.051 66.1137 156.969 70.836 156.797 75.7757C156.723 77.8641 156.671 79.9539 156.664 82.0437C156.647 87.1683 157.793 91.9939 160.845 96.3402C162.817 99.1496 165.174 101.538 168.559 102.847C169.258 103.118 169.664 103.518 169.859 104.178C170.506 106.357 170.684 108.573 170.384 110.811C170.186 112.29 169.519 113.617 168.438 114.696C167.992 115.14 167.307 115.558 166.685 115.628C165.238 115.79 162.125 114.848 161.469 112.807C161.043 111.486 160.723 110.128 160.471 108.768C160.307 107.883 159.847 107.349 158.966 107.112C158.467 106.978 157.954 106.893 157.384 106.773C157.493 106.326 157.574 105.908 157.697 105.501C157.987 104.537 157.736 103.709 156.838 103.197C156.304 102.892 155.628 102.72 154.999 102.666C153.361 102.523 153.329 102.668 154.059 101.141C154.694 99.8111 154.325 98.8904 152.882 98.3591C152.072 98.0615 151.234 97.8205 150.392 97.6113C149.328 97.3466 148.247 97.1401 147.12 96.8978C147.424 96.1566 147.721 95.4789 147.982 94.7891C148.92 92.303 147.813 90.4488 145.04 89.9919C144.061 89.8305 143.043 89.8764 142.042 89.8447C141.471 89.8258 140.899 89.8413 140.363 89.8413C140.636 88.9604 141.058 88.114 141.136 87.2399C141.337 85.0117 140.151 83.4039 138.206 82.2503C136.879 81.4632 135.379 81.1021 133.838 81.1392C131.793 81.1878 129.751 81.3843 127.71 81.5591C126.635 81.6516 126.561 81.6266 126.28 80.6255C126.092 79.9553 125.91 79.2722 125.613 78.6417C124.831 76.9779 123.215 76.0659 121.326 76.4061C117.753 77.048 115.148 78.8773 113.936 82.2044C113.719 82.7977 113.602 83.4234 113.474 83.9007C112.479 83.9007 111.533 83.7987 110.623 83.9196C107.549 84.3273 104.582 87.3324 104.113 90.4542C104.049 90.8788 103.882 91.0806 103.455 91.2386C101.483 91.9689 99.5723 92.8181 97.8774 94.0398C96.0385 95.3649 94.5817 97.0085 94.1731 99.1604C93.8594 100.812 93.9472 102.539 93.9436 104.234C93.9414 105.441 93.9838 106.96 94.0601 108.167C94.0954 108.164 94.0205 108.355 94.05 108.375C94.3493 108.578 94.0738 108.423 94.2723 108.712C94.3601 108.841 94.568 109.005 94.6695 109.12C95.2421 109.77 95.5543 109.512 95.5954 109.538C95.5781 109.507 95.3169 109.05 95.299 109.021C94.7148 108.072 94.6299 107 94.5874 105.944C94.5155 104.148 94.2982 102.324 94.5313 100.557C94.9306 97.5289 96.5889 95.1225 99.4781 93.6004C100.532 93.0449 101.672 92.6244 102.8 92.2059C103.655 91.8879 103.61 92.0175 103.988 92.7877C104.53 93.8893 105.185 94.9659 105.951 95.9413C107.508 97.9204 109.664 99.2947 111.769 100.706C111.958 100.833 112.19 100.904 112.618 101.1C112.515 100.687 112.501 100.405 112.378 100.175C111.554 98.6413 110.99 97.0483 111.01 95.3082C111.037 92.9706 112.526 91.327 114.986 90.8437C117.149 90.4178 119.269 90.6338 121.408 91.028C125.072 91.703 128.595 92.7654 131.953 94.293C135.752 96.0216 139.305 98.0905 142.026 101.199C144.161 103.638 145.266 106.491 145.632 109.604C145.859 111.527 145.822 113.454 145.482 115.362C145.131 117.331 144.823 119.317 144.296 121.247C143.795 123.084 143.089 124.877 142.363 126.65C142.085 127.329 142.175 127.829 142.592 128.353C143.739 129.794 144.362 131.428 144.732 133.179C145.499 136.811 143.351 141.136 139.966 143.042C137.78 144.273 135.418 144.765 132.954 144.95C127.153 145.382 121.346 145.296 115.571 144.681C110.779 144.171 106.199 142.925 102.178 140.289C97.4651 137.201 94.4313 132.999 92.9428 127.805C92.7119 126.997 92.5428 126.173 92.3616 125.352C92.1285 124.294 92.3321 123.259 92.9882 122.418C94.1788 120.892 94.4608 119.13 94.7551 117.354C94.9565 116.142 95.1285 114.926 95.3335 113.714C95.3594 113.559 95.6925 113.179 95.7644 113.031C95.2364 112.639 95.2601 110.576 94.5141 110.88C94.486 112.677 94.4608 115.283 94.2162 117.058C93.9615 118.898 93.7572 120.814 92.2738 122.292C92.0443 122.521 91.9392 122.899 91.8738 123.225C91.3846 125.659 92.1486 127.919 93.0062 130.163C93.9097 131.696 94.7529 133.264 95.7371 134.75C96.3997 135.75 97.2486 136.644 98.04 137.567C98.3867 137.971 98.35 138.242 97.8579 138.48C96.2731 139.243 94.6515 139.882 92.8177 139.781C92.4925 139.763 92.1723 139.668 91.8608 139.452C93.2213 139.085 94.5824 138.717 95.9428 138.349C95.9241 138.247 95.9061 138.144 95.8882 138.042C95.5378 138.077 95.1817 138.086 94.8371 138.151C93.7097 138.363 92.5882 138.602 91.4608 138.815C90.9954 138.903 90.5098 139.045 90.0536 138.997C89.1644 138.901 88.2824 138.713 87.4148 138.501C87.2393 138.459 87.1393 138.144 86.9637 137.897C87.8493 137.606 88.6198 137.353 89.3903 137.101C89.3716 137.018 89.3529 136.936 89.3342 136.854C89.1026 136.854 88.8673 136.832 88.6385 136.857C86.3155 137.115 84.2673 136.505 82.4357 135.166C81.6918 134.623 81.2616 133.932 81.4033 133.053C81.5961 131.856 81.1328 130.922 80.3242 130.047C79.5565 129.217 79.3645 128.22 79.7098 127.177C80.1148 125.953 81.0227 125.531 82.2213 126.146C83.5083 126.805 84.6975 127.636 85.9141 128.412C87.0321 129.126 88.1702 129.792 89.527 130.019C89.704 130.049 89.904 129.96 90.0932 129.926C90.027 129.88 89.9666 129.807 89.8925 129.791C89.6731 129.743 89.409 129.778 89.2321 129.676C88.0911 129.008 86.9709 128.308 85.8378 127.628C84.6486 126.914 83.5033 126.111 82.2436 125.53C81.0961 125.001 79.817 125.574 79.2335 126.654C78.8119 127.433 78.7465 128.273 79.1443 129.029C79.6112 129.916 80.2817 130.707 80.8076 131.57C80.9774 131.849 81.0659 132.235 81.0213 132.551C80.8904 133.487 80.958 134.376 81.6587 135.089C82.1256 135.564 82.6515 136.044 83.2537 136.335C84.7544 137.06 86.2817 137.679 87.5249 138.844C88.017 139.304 89.0054 139.28 89.7515 139.522C92.5026 140.413 95.1579 140.262 97.7133 138.924C98.3989 138.565 98.9961 138.605 99.6407 139.076C102.198 140.945 104.897 142.587 107.982 143.616C111.661 144.842 115.482 145.34 119.348 145.53C125.174 145.815 130.994 145.885 136.786 144.966C139.451 144.542 142.152 144.308 144.838 143.994C145.856 143.875 146.082 144.076 145.891 145.035C145.743 145.776 145.588 146.537 145.272 147.222C143.827 150.358 142.035 153.289 139.472 155.77C138.846 156.377 138.329 157.106 137.879 157.842C137.51 158.448 137.693 159.107 138.216 159.596C140.014 161.277 142.636 161.846 144.666 160.141C145.218 159.676 145.776 159.216 146.307 158.731C146.995 158.104 147.275 158.069 148.169 158.416C148.749 158.641 149.354 158.852 149.968 158.946C151.52 159.187 152.872 158.7 153.983 157.7C156.597 155.346 159.171 152.955 161.775 150.592C162.614 149.831 163.14 148.906 163.215 147.842C163.285 146.853 163.259 145.83 163.066 144.857C162.653 142.761 161.618 140.879 160.498 139.043C160.318 138.747 160.107 138.474 160.602 138.244C163.538 136.875 165.922 134.829 168.242 132.713C169.428 131.632 170.581 130.516 171.735 129.405C172.185 128.972 172.533 129.1 172.839 129.535C173.488 130.456 174.122 131.387 174.771 132.308C175.071 132.733 175.338 133.194 175.715 133.551C176.733 134.514 177.784 134.54 178.897 133.703C179.758 133.055 180.376 132.256 180.616 131.232C180.766 130.59 181.068 130.235 181.866 130.152C183.346 130 183.798 129.416 183.78 128.017C183.778 127.832 183.774 127.647 183.75 127.465C183.699 127.08 183.446 126.55 183.623 126.352C183.851 126.098 184.42 126.117 184.839 126.01C186.449 125.6 186.91 124.373 185.959 123.068C185.125 121.921 183.905 121.464 182.501 121.342C180.212 121.141 178.039 121.69 175.871 122.267C175.552 122.352 175.226 122.419 174.847 122.507C175.092 121.074 175.348 119.747 175.543 118.413C176.002 115.266 175.779 112.144 174.799 109.114C174.166 107.158 173.235 105.302 171.903 103.64C170.688 102.123 170.401 100.492 171.47 98.7662C171.974 97.9521 172.417 97.1064 172.915 96.2889C174.633 93.4668 176.717 90.9672 179.68 89.1616C182.406 87.5011 185.066 85.7441 187.726 83.9911C190.369 82.2503 193.053 80.5527 195.274 78.3157C197.71 75.8614 199.292 73.0602 199.19 69.6129C199.095 66.3986 197.756 63.5744 195.942 60.9162Z" fill="black"/>
<path d="M97.5201 112.316C97.9734 110.502 98.6964 108.805 100.079 107.417C101.166 106.325 102.534 105.9 104.094 105.976C104.406 105.992 104.712 106.103 105.244 106.219C104.897 106.438 104.744 106.554 104.573 106.64C102.918 107.477 101.837 108.765 101.218 110.411C100.972 111.065 101.096 111.214 101.834 111.235C101.922 111.237 102.009 111.239 102.096 111.241C103.326 111.282 103.41 111.392 103.257 112.513C103.186 113.039 103.206 113.575 103.168 114.105C103.13 114.642 103.357 114.849 103.934 114.728C104.522 114.606 104.958 114.849 105.257 115.311C105.564 115.786 105.355 116.152 104.756 116.194C104.478 116.213 104.196 116.197 103.909 116.197C104.317 117.956 106.178 118.461 108.395 117.396C108.086 118.78 107.865 120.138 107.041 121.304C106.17 122.537 103.993 122.985 102.575 122.333C101.329 121.76 100.052 121.239 98.7654 120.751C98.0295 120.471 97.5942 120.018 97.4014 119.307C96.7669 116.965 96.9403 114.636 97.5201 112.316ZM108.166 113.628C108.147 113.823 107.868 113.995 107.701 114.178C107.5 114.006 107.209 113.864 107.132 113.652C107.086 113.526 107.375 113.292 107.617 112.968C107.891 113.279 108.182 113.467 108.166 113.628ZM107.268 109.799C108.074 109.798 108.95 110.572 108.904 111.272C108.868 111.826 108.505 112.057 107.937 112.041C107.059 112.031 106.128 111.293 106.151 110.625C106.168 110.163 106.658 109.8 107.268 109.799ZM95.6136 109.536C95.6079 109.536 95.6021 109.539 95.5964 109.538C95.3935 109.522 95.2151 109.448 95.0575 109.328C94.9144 109.218 94.8273 109.071 94.7316 108.925C94.5503 108.647 94.3453 108.362 94.0611 108.168C94.0496 108.16 94.041 108.15 94.0309 108.14C93.4834 108.593 93.8554 109.071 94.0057 109.534C94.1525 109.987 94.4331 110.435 94.5151 110.882C94.5525 110.894 94.5856 110.915 94.6021 110.95C94.9431 111.645 95.0906 112.534 95.7654 113.032C95.7834 113.045 95.7957 113.062 95.8043 113.081C95.841 113.083 95.8777 113.084 95.9144 113.085C96.1381 114.263 96.387 115.437 96.5755 116.62C96.71 117.466 96.7561 118.325 96.8561 119.176C96.9316 119.817 96.8683 120.402 96.0309 120.87C96.4439 120.946 96.6734 121.016 96.905 121.026C98.9827 121.113 100.881 121.716 102.617 122.775C103.227 123.147 103.225 123.334 102.694 123.806C102.529 123.952 102.416 124.15 102.279 124.325C102.334 124.373 102.388 124.423 102.442 124.472C102.762 124.252 103.086 124.037 103.401 123.811C105.94 122.001 108.605 121.986 111.296 123.428C112.309 123.971 113.198 124.718 114.144 125.37C114.36 125.519 114.579 125.663 114.797 125.811C114.845 125.769 114.894 125.729 114.942 125.688C114.859 125.551 114.803 125.387 114.686 125.282C112.981 123.736 111.055 122.546 108.696 122.07C107.686 121.866 107.673 121.802 107.978 120.835C108.461 119.307 108.998 117.784 109.325 116.225C109.863 113.657 109.625 111.139 108.402 108.733C106.903 105.783 104.65 104.876 101.36 106.002C100.175 106.408 99.0287 106.915 97.8726 107.392C97.0525 107.73 96.3518 107.627 95.7431 106.991C95.6439 106.888 95.4662 106.852 95.3244 106.786C95.2719 106.929 95.1698 107.075 95.1755 107.217C95.2122 108.184 95.6913 108.985 96.3187 109.759C95.9618 109.826 95.7597 109.71 95.6136 109.536Z" fill="black"/>
<path d="M133.22 116.39C132.598 116.449 131.606 115.562 131.609 114.997C131.612 114.494 131.886 114.195 132.454 114.191C133.116 114.186 133.681 114.927 133.689 116.011C133.605 116.084 133.427 116.37 133.22 116.39ZM131.896 118.241C131.926 118.057 132.23 117.914 132.414 117.753C132.587 117.934 132.878 118.104 132.899 118.299C132.916 118.466 132.622 118.661 132.348 118.983C132.12 118.634 131.866 118.416 131.896 118.241ZM131.948 125.238C131.4 125.905 130.636 126.196 129.737 125.934C127.166 125.189 124.539 124.906 121.853 125.012C121.025 125.044 120.322 124.777 119.88 124.042C117.586 120.226 118.49 114.16 121.814 111.132C123.902 109.23 126.857 108.688 129.22 109.776C129.352 109.837 129.471 109.919 129.754 110.081C128.16 110.528 127.079 111.384 126.235 112.525C126.099 112.709 125.965 112.897 125.85 113.093C125.148 114.289 125.246 114.562 126.556 115.075C127.571 115.473 127.556 115.471 127.448 116.526C127.292 118.05 127.625 119.454 128.681 120.668C130.102 122.304 131.937 122.196 133.111 120.405C133.268 120.165 133.437 119.934 133.663 119.721C133.445 121.66 133.284 123.616 131.948 125.238ZM130.548 118.316C130.707 118.766 130.797 119.269 130.756 119.736C130.733 119.982 130.397 120.343 130.144 120.393C129.881 120.445 129.428 120.261 129.271 120.045C128.993 119.659 128.875 119.172 128.638 118.6C128.902 118.265 129.081 117.806 129.412 117.67C129.962 117.444 130.383 117.848 130.548 118.316ZM136.789 116.725C137.164 116.197 137.566 115.894 137.925 115.552C138.201 115.286 138.256 115.058 137.831 114.768C136.992 114.195 136.187 113.566 135.434 112.894C134.347 111.923 133.394 110.81 132.251 109.905C129.144 107.443 124.915 106.743 121.91 110.05C119.46 112.747 117.944 115.763 118.115 119.381C118.201 121.224 118.802 122.948 119.673 124.649C119.132 124.908 118.613 125.157 118.094 125.405C118.111 125.465 118.128 125.523 118.146 125.583C118.542 125.583 118.947 125.634 119.333 125.575C124.198 124.828 128.719 125.868 133.064 127.862C133.233 127.939 133.438 127.945 133.626 127.984C133.663 127.917 133.7 127.849 133.737 127.781C133.373 127.528 133.016 127.265 132.643 127.025C131.718 126.428 131.728 126.404 132.345 125.563C132.998 124.671 133.751 123.807 134.194 122.825C134.784 121.52 135.563 120.715 137.171 120.905C137.297 120.92 137.446 120.904 137.557 120.852C138.209 120.54 138.858 120.223 139.493 119.882C139.583 119.833 139.624 119.641 139.612 119.521C139.607 119.473 139.401 119.423 139.282 119.41C139.004 119.38 138.724 119.372 138.252 119.344C139.473 118.636 140.392 117.938 140.903 116.779C140.123 116.876 139.453 117.032 138.787 117.02C138.12 117.009 137.455 116.831 136.789 116.725Z" fill="black"/>
<path d="M122.595 100.56C123.751 99.9964 124.999 99.8175 126.272 99.8688C129.384 99.9937 132.107 101.197 134.739 102.638C135.066 102.818 135.466 102.879 135.833 102.996C135.652 102.642 135.568 102.179 135.276 101.95C131.709 99.1547 127.668 98.4952 123.257 99.7433C122.73 99.8931 122.274 100.266 121.785 100.535C121.843 100.624 121.902 100.714 121.96 100.803C122.172 100.723 122.392 100.659 122.595 100.56Z" fill="black"/>
<path d="M117.274 131.166C117.556 131.796 117.193 132.198 116.714 132.521C116.329 132.782 115.903 133.005 115.468 133.181C113.272 134.071 111.011 134.004 108.873 133.168C107.234 132.527 105.363 131.874 105.392 129.673C105.392 129.65 105.331 129.626 105.298 129.601C104.726 130.04 104.152 130.479 103.562 130.931C103.585 130.947 103.693 131.075 103.821 131.096C104.925 131.266 105.738 131.931 106.609 132.504C109.671 134.517 112.867 135.04 116.278 133.277C116.646 133.087 117.078 133.009 117.476 132.871C118.014 132.684 118.55 132.489 119.121 132.285C118.465 131.759 117.906 131.31 117.316 130.836C117.303 130.922 117.229 131.067 117.274 131.166Z" fill="black"/>
<path d="M99.518 97.5997C98.2842 97.9203 97.3029 98.627 96.4375 99.4755C96.2907 99.6193 96.3058 99.9075 96.2461 100.129C96.4763 100.105 96.7224 100.121 96.9324 100.047C97.1504 99.971 97.3367 99.811 97.5324 99.6821C100.009 98.0526 102.666 97.6901 105.514 98.6864C106.117 98.8977 106.721 99.1097 107.324 99.3209C107.373 99.2636 107.42 99.2055 107.468 99.1481C107.076 98.8181 106.732 98.407 106.283 98.1707C104.13 97.0367 101.848 96.9935 99.518 97.5997Z" fill="black"/>
<path d="M125.456 106.227C124.587 106.271 123.769 106.47 122.984 107.006C124.074 106.842 125.058 106.586 126.047 106.566C129.417 106.501 132.08 108.228 134.828 109.731C135.426 110.058 136.094 110.27 136.73 110.535C136.759 110.454 136.789 110.373 136.818 110.292C136.186 109.924 135.535 109.581 134.923 109.185C132.071 107.337 129.025 106.046 125.456 106.227Z" fill="black"/>
<path d="M101.137 104.081C100.641 104.262 100.244 104.681 99.8008 104.991C99.8662 105.106 99.9324 105.221 99.9979 105.336C101.9 103.792 104.039 103.701 106.301 104.334C104.596 103.599 102.866 103.451 101.137 104.081Z" fill="black"/>
<path d="M147.54 122.246C147.887 121.141 148.237 120.029 148.587 118.917C148.518 118.901 148.449 118.887 148.381 118.872C147.854 119.961 146.856 120.963 147.54 122.246Z" fill="#F7F4F2"/>
<path d="M150.5 127.661C150.807 128.311 151.114 128.961 151.422 129.611C151.644 128.77 151.233 128.154 150.782 127.553C150.688 127.588 150.594 127.625 150.5 127.661Z" fill="#F7F4F2"/>
<path d="M173.733 114.83C174.215 113.992 174.103 113.828 172.629 112.968C172.37 113.914 173.613 113.976 173.733 114.83Z" fill="#F7F4F2"/>
<path d="M172.637 109.93C172.977 110.382 173.215 110.698 173.453 111.014C173.778 110.331 173.434 110.084 172.637 109.93Z" fill="#F7F4F2"/>
<path d="M194.904 64.8937C194.846 65.1306 194.868 65.3905 194.784 65.6159C193.556 68.8897 191.167 71.0044 187.599 71.9481C187.284 72.0311 187.006 72.235 186.711 72.3828C186.74 72.4564 186.77 72.5299 186.799 72.6035C187.017 72.5873 187.261 72.6258 187.448 72.5461C188.747 71.9967 190.103 71.5282 191.308 70.8316C193.418 69.6133 194.915 67.9035 195.32 65.5187C195.391 65.0975 195.369 64.6621 195.39 64.2335C195.307 64.2214 195.223 64.2092 195.14 64.1971C195.06 64.4286 194.963 64.6567 194.904 64.8937Z" fill="#F7F4F2"/>
<path d="M95.7822 134.746C94.798 133.26 93.9548 131.692 93.0512 130.158C92.0807 130.08 91.1095 130.001 90.1383 129.922C89.9491 129.956 89.7491 130.045 89.5721 130.015C88.2153 129.788 87.0772 129.121 85.9599 128.408C84.7426 127.632 83.5541 126.801 82.2671 126.141C81.0678 125.527 80.1599 125.949 79.7549 127.172C79.4095 128.216 79.6024 129.212 80.3693 130.042C81.1779 130.918 81.6412 131.851 81.4484 133.049C81.3074 133.928 81.7376 134.619 82.4808 135.162C84.3124 136.501 86.3606 137.11 88.6836 136.853C88.9131 136.828 89.1477 136.85 89.38 136.85C89.3987 136.932 89.4167 137.014 89.4354 137.097C88.6649 137.349 87.8944 137.602 87.0088 137.892C87.1851 138.14 87.2851 138.454 87.4599 138.497C88.3275 138.708 89.2095 138.896 90.0987 138.992C90.5548 139.041 91.0412 138.899 91.5066 138.81C92.634 138.598 93.7556 138.358 94.8829 138.147C95.2268 138.082 95.5829 138.073 95.9333 138.038C95.952 138.14 95.9699 138.242 95.9879 138.345C94.6275 138.713 93.2671 139.08 91.9066 139.448C92.2182 139.664 92.5376 139.759 92.8628 139.776C94.6966 139.878 96.3181 139.238 97.903 138.475C98.3958 138.238 98.4325 137.967 98.085 137.562C97.2944 136.64 96.4448 135.746 95.7822 134.746Z" fill="#F4731C"/>
<path d="M139.328 119.406C139.447 119.419 139.654 119.47 139.658 119.517C139.67 119.637 139.629 119.83 139.539 119.878C138.904 120.219 138.255 120.536 137.603 120.848C137.492 120.9 137.342 120.916 137.217 120.902C135.61 120.711 134.83 121.516 134.241 122.821C133.798 123.803 133.045 124.667 132.391 125.559C131.775 126.4 131.764 126.424 132.689 127.02C133.063 127.261 133.419 127.524 133.783 127.777C133.746 127.845 133.709 127.913 133.673 127.98C133.484 127.941 133.278 127.935 133.11 127.857C128.765 125.864 124.245 124.825 119.379 125.571C118.994 125.63 118.588 125.579 118.191 125.579C118.174 125.519 118.158 125.46 118.14 125.401C118.659 125.153 119.178 124.904 119.719 124.646C118.848 122.944 118.248 121.22 118.16 119.377C117.991 115.759 119.506 112.743 121.956 110.047C124.961 106.74 129.19 107.439 132.297 109.901C133.44 110.807 134.393 111.919 135.481 112.89C136.233 113.562 137.038 114.191 137.878 114.764C138.302 115.055 138.247 115.282 137.97 115.547C137.613 115.89 137.211 116.193 136.835 116.721C137.501 116.827 138.165 117.005 138.834 117.016C139.5 117.028 140.169 116.872 140.949 116.775C140.437 117.934 139.519 118.632 138.299 119.34C138.77 119.369 139.05 119.376 139.328 119.406ZM117.525 132.867C117.127 133.005 116.695 133.083 116.328 133.272C112.916 135.036 109.721 134.512 106.658 132.499C105.787 131.927 104.974 131.262 103.87 131.091C103.743 131.071 103.635 130.942 103.612 130.927C104.201 130.475 104.775 130.035 105.348 129.596C105.38 129.621 105.442 129.645 105.441 129.669C105.412 131.87 107.284 132.523 108.922 133.164C111.06 133.999 113.321 134.067 115.517 133.177C115.953 133 116.378 132.777 116.763 132.517C117.242 132.194 117.605 131.791 117.323 131.162C117.279 131.062 117.353 130.917 117.366 130.831C117.955 131.305 118.515 131.755 119.17 132.281C118.599 132.485 118.064 132.68 117.525 132.867ZM136.867 110.287C136.837 110.368 136.809 110.449 136.779 110.53C136.143 110.266 135.475 110.054 134.878 109.727C132.129 108.224 129.466 106.496 126.096 106.562C125.107 106.581 124.123 106.838 123.033 107.001C123.818 106.465 124.637 106.266 125.504 106.222C129.073 106.041 132.12 107.332 134.973 109.181C135.584 109.577 136.235 109.92 136.867 110.287ZM123.306 99.7389C127.717 98.4902 131.758 99.1497 135.324 101.946C135.617 102.174 135.701 102.637 135.882 102.991C135.515 102.875 135.115 102.813 134.788 102.634C132.155 101.192 129.434 99.9887 126.322 99.8638C125.048 99.8125 123.799 99.9921 122.643 100.555C122.442 100.654 122.221 100.718 122.009 100.799C121.95 100.709 121.892 100.62 121.834 100.53C122.323 100.261 122.778 99.8881 123.306 99.7389ZM107.371 99.3171C106.768 99.1051 106.164 98.8932 105.56 98.6826C102.712 97.6863 100.056 98.0481 97.5792 99.6775C97.3835 99.8064 97.1972 99.9664 96.9792 100.043C96.7691 100.117 96.5231 100.101 96.2929 100.125C96.3526 99.9036 96.3375 99.6154 96.4842 99.4716C97.3497 98.6225 98.331 97.9164 99.5648 97.5958C101.894 96.9897 104.176 97.0329 106.33 98.1669C106.778 98.4031 107.122 98.8135 107.515 99.1443C107.467 99.2016 107.419 99.259 107.371 99.3171ZM100.045 105.332C99.9792 105.217 99.9137 105.102 99.8483 104.986C100.291 104.677 100.689 104.258 101.185 104.076C102.913 103.446 104.643 103.595 106.348 104.33C104.086 103.697 101.947 103.788 100.045 105.332ZM144.779 133.174C144.41 131.424 143.786 129.789 142.64 128.349C142.223 127.824 142.132 127.324 142.41 126.646C143.136 124.873 143.842 123.079 144.344 121.242C144.87 119.312 145.178 117.327 145.529 115.357C145.869 113.449 145.906 111.522 145.68 109.599C145.313 106.486 144.209 103.634 142.073 101.194C139.352 98.0859 135.8 96.017 132 94.2883C128.642 92.7608 125.119 91.6983 121.455 91.0233C119.317 90.6291 117.197 90.4131 115.033 90.8391C112.573 91.3224 111.084 92.966 111.058 95.3035C111.038 97.0437 111.601 98.6367 112.425 100.17C112.549 100.4 112.563 100.683 112.666 101.095C112.237 100.899 112.006 100.828 111.817 100.701C109.712 99.2901 107.556 97.9158 105.999 95.9367C105.232 94.9613 104.577 93.8847 104.036 92.7831C103.658 92.0129 103.703 91.8833 102.848 92.2012C101.72 92.6197 100.579 93.0402 99.5252 93.5958C96.636 95.1179 94.9778 97.5243 94.5785 100.552C94.3454 102.319 94.5627 104.143 94.6353 105.939C94.6778 106.996 94.762 108.067 95.3468 109.016C95.5627 109.368 95.6958 109.879 96.3655 109.753C95.7382 108.979 95.2584 108.178 95.2217 107.212C95.2166 107.069 95.3188 106.924 95.3713 106.78C95.5123 106.847 95.6907 106.883 95.7893 106.986C96.3986 107.621 97.0994 107.725 97.9188 107.386C99.0749 106.909 100.221 106.402 101.406 105.996C104.696 104.87 106.949 105.778 108.449 108.727C109.672 111.133 109.909 113.651 109.371 116.219C109.045 117.779 108.507 119.302 108.025 120.83C107.72 121.796 107.732 121.861 108.743 122.065C111.101 122.54 113.027 123.73 114.733 125.276C114.849 125.382 114.905 125.546 114.989 125.683C114.94 125.724 114.892 125.764 114.844 125.805C114.626 125.658 114.407 125.513 114.191 125.365C113.245 124.712 112.355 123.965 111.342 123.423C108.652 121.98 105.987 121.995 103.448 123.805C103.132 124.031 102.809 124.247 102.489 124.467C102.434 124.418 102.38 124.368 102.326 124.319C102.463 124.145 102.576 123.946 102.741 123.8C103.271 123.329 103.273 123.142 102.663 122.77C100.927 121.71 99.0296 121.108 96.9519 121.02C96.7195 121.011 96.4907 120.941 96.0778 120.865C96.9145 120.397 96.9778 119.811 96.903 119.171C96.803 118.319 96.7569 117.46 96.6217 116.615C96.4332 115.432 96.1842 114.258 95.9612 113.08C95.8548 113.076 95.7483 113.073 95.6418 113.069C95.5519 113.282 95.4181 113.489 95.3814 113.709C95.1763 114.921 95.0037 116.137 94.803 117.35C94.5087 119.126 94.226 120.887 93.0353 122.413C92.3799 123.254 92.1763 124.289 92.4094 125.348C92.59 126.168 92.7591 126.992 92.9907 127.8C94.4785 132.995 97.513 137.196 102.226 140.285C106.246 142.92 110.827 144.167 115.619 144.676C121.394 145.291 127.2 145.378 133.001 144.945C135.465 144.761 137.828 144.268 140.013 143.037C143.399 141.131 145.546 136.807 144.779 133.174Z" fill="#F4731C"/>
<path d="M151.42 129.612C151.113 128.962 150.806 128.312 150.499 127.661C150.593 127.625 150.686 127.59 150.781 127.553C151.232 128.155 151.642 128.771 151.42 129.612ZM147.538 122.247C146.855 120.964 147.853 119.962 148.379 118.873C148.448 118.888 148.517 118.903 148.586 118.918C148.236 120.03 147.886 121.142 147.538 122.247ZM172.63 112.968C174.103 113.828 174.217 113.992 173.734 114.83C173.614 113.976 172.371 113.914 172.63 112.968ZM173.454 111.014C173.216 110.698 172.978 110.382 172.637 109.93C173.434 110.083 173.778 110.331 173.454 111.014ZM166.732 129.349C166.955 129.225 167.206 129.115 167.419 128.961C168.273 128.34 168.629 127.432 168.913 126.512C169.257 125.397 169.549 124.29 170.445 123.394C170.844 122.994 171.027 122.404 171.304 121.899C171.501 121.538 171.692 121.175 171.924 120.741C172.492 121.338 172.433 121.869 172.183 122.394C171.957 122.873 171.678 123.33 171.422 123.797C171.645 123.75 171.893 123.744 172.086 123.646C172.972 123.192 173.439 122.424 173.62 121.54C173.959 119.879 174.306 118.212 174.495 116.532C175.032 111.766 174.15 107.3 171.038 103.367C170.875 103.161 170.649 103.001 170.452 102.82C170.487 104.149 170.671 105.374 170.852 106.599C171.217 109.088 171.091 111.518 169.994 113.863C169.309 115.328 167.797 116.41 166.321 116.404C163.97 116.396 161.893 115.763 160.022 114.356C157.2 112.233 154.808 109.734 152.471 107.172C151.658 106.281 150.783 105.439 149.895 104.532C149.676 104.786 149.552 104.931 149.347 105.169C149.172 103.322 147.698 102.567 146.406 101.697C145.82 101.302 145.422 101.512 145.383 102.205C145.352 102.772 145.395 103.352 145.486 103.914C145.692 105.187 145.99 106.447 146.173 107.722C146.416 109.417 146.483 111.138 146.809 112.817C147.317 115.434 147.437 118.036 146.657 120.601C146.101 122.426 145.36 124.202 144.676 125.993C144.456 126.566 144.435 127.078 144.748 127.64C146.024 129.932 146.668 132.38 146.607 134.968C146.578 136.201 146.444 137.435 145.476 138.409C144.563 139.327 144.589 140.531 145.548 141.398C146.17 141.96 146.694 141.854 146.949 141.07C147.327 139.91 147.317 138.739 147.022 137.555C146.948 137.26 146.951 136.797 147.14 136.619C148.611 135.239 149.981 133.793 151.055 132.109C151.169 131.93 151.486 131.865 151.709 131.747C151.739 131.969 151.829 132.201 151.787 132.41C151.639 133.149 151.965 133.539 152.722 133.321C153.588 133.072 154.416 132.694 155.238 132.327C155.765 132.091 156.25 131.775 156.912 131.406C156.86 131.76 156.881 131.951 156.803 132.094C156.39 132.847 156.483 133.6 156.943 134.255C157.441 134.966 158.04 135.628 158.678 136.232C158.913 136.454 159.427 136.593 159.75 136.521C160.975 136.242 162.037 135.72 162.411 134.438C162.493 134.154 162.683 133.897 162.822 133.627C162.891 133.65 162.961 133.674 163.03 133.697C163.01 134.005 162.991 134.313 162.97 134.622C164.524 134.557 169.998 129.572 170.294 127.847C169.913 128.121 169.577 128.279 169.363 128.529C168.591 129.433 167.406 129.528 166.375 129.912C166.011 130.047 165.766 129.877 165.875 129.409C165.979 128.96 165.964 128.487 166.01 127.909C166.988 127.978 166.339 128.908 166.732 129.349Z" fill="#F4731C"/>
<path d="M171.467 123.793C171.467 123.793 171.468 123.791 171.469 123.79C171.467 123.791 171.466 123.791 171.465 123.791L171.467 123.793Z" fill="#E78C3B"/>
<path d="M195.367 65.5138C194.961 67.8986 193.465 69.6084 191.355 70.8268C190.15 71.5234 188.794 71.9918 187.496 72.5413C187.308 72.6209 187.064 72.5824 186.847 72.5986C186.817 72.5251 186.788 72.4515 186.758 72.3779C187.053 72.2301 187.331 72.0262 187.645 71.9432C191.214 70.9996 193.603 68.8848 194.83 65.611C194.915 65.3856 194.893 65.1257 194.951 64.8888C195.009 64.6525 195.107 64.4244 195.187 64.1922C195.271 64.2043 195.354 64.2165 195.438 64.2286C195.416 64.6573 195.439 65.0926 195.367 65.5138ZM197.766 65.1831C197.272 64.014 196.584 62.9171 195.984 61.7872C195.913 61.8142 195.843 61.8405 195.772 61.8675C195.748 61.9397 195.722 62.0113 195.701 62.0835C194.795 65.2297 192.851 67.6678 189.826 69.2385C187.598 70.3954 185.292 71.4451 182.94 72.357C180.845 73.1697 178.658 73.79 176.477 74.3813C174.049 75.0401 171.969 76.2632 170.26 77.917C169.098 79.0408 168.292 80.4975 167.382 81.8387C166.335 83.3845 165.866 85.1496 165.658 86.9282C165.477 88.4733 165.469 90.0683 165.659 91.6114C165.933 93.8395 166.905 95.8956 167.951 97.9017C168.482 98.9216 169.052 99.9233 169.672 101.057C170.007 100.58 170.284 100.24 170.5 99.8693C171.505 98.1501 172.427 96.385 173.505 94.7076C174.74 92.7845 175.957 90.8027 177.933 89.4446C179.425 88.4179 181.058 87.5735 182.599 86.6062C185.197 84.9741 187.806 83.3527 190.345 81.643C192.66 80.0857 194.843 78.3733 196.522 76.1694C197.531 74.845 198.292 73.4107 198.574 71.8021C198.973 69.5341 198.666 67.3073 197.766 65.1831Z" fill="#F4731C"/>
<path d="M162.755 67.19C162.996 67.6051 163.235 68.0209 163.475 68.4361C163.404 68.4718 163.334 68.5083 163.263 68.5441C163.022 68.1296 162.781 67.7145 162.539 67.3C162.611 67.2636 162.683 67.2265 162.755 67.19ZM154.735 62.7667C155.714 64.9126 156.616 67.0861 156.874 69.4094C157.152 71.9089 157.268 74.4274 157.377 76.9404C157.518 80.1912 157.414 83.4595 157.719 86.6955C158.233 92.163 160.739 96.7624 165.268 100.301C166.267 101.082 167.416 101.695 168.516 102.356C168.715 102.476 169.009 102.457 169.257 102.502C169.25 102.272 169.314 102.013 169.222 101.817C168.88 101.089 168.53 100.359 168.104 99.673C166.335 96.8252 165.283 93.7729 164.924 90.4917C164.583 87.3651 165.214 84.4322 166.893 81.7349C168.444 79.2421 169.582 76.4267 172.594 74.9944C173.13 74.7392 173.298 74.152 173.078 73.5883C172.727 72.6919 172.388 71.7841 171.94 70.9295C170.014 67.2575 167.307 64.1606 164.017 61.4822C160.795 58.8592 157.103 57.4909 152.754 57.6219C152.776 57.7366 152.782 57.8615 152.825 57.9729C153.453 59.574 154.021 61.2001 154.735 62.7667Z" fill="#F4731C"/>
<path d="M114.213 89.4528C114.301 89.955 114.638 90.281 115.33 90.2311C117.786 90.0549 120.251 89.7788 122.703 89.847C125.547 89.9267 128.383 90.302 131.217 90.601C133.588 90.8514 135.839 91.5581 138.015 92.441C141.288 93.7688 144.182 95.6621 146.483 98.2109C148.924 100.913 151.178 103.764 153.506 106.555C155.591 109.053 157.933 111.296 160.864 113.123C160.817 112.856 160.79 112.669 160.751 112.484C160.521 111.408 160.154 110.339 160.09 109.254C160.016 107.982 159.519 107.477 157.94 107.332C157.449 107.288 156.949 107.325 156.357 107.325C156.436 107.12 156.483 106.976 156.546 106.839C156.804 106.283 157.106 105.741 157.319 105.17C157.604 104.405 157.286 103.681 156.483 103.417C155.903 103.225 155.26 103.172 154.639 103.128C153.978 103.08 153.309 103.117 152.522 103.117C152.669 102.806 152.751 102.584 152.872 102.382C153.118 101.975 153.405 101.589 153.639 101.176C154.232 100.13 153.961 99.1796 152.794 98.7597C151.588 98.3257 150.314 98.0496 149.059 97.7479C148.223 97.5467 147.365 97.4232 146.519 97.2599C146.11 97.1802 146.129 97.0081 146.322 96.6935C146.785 95.9375 147.288 95.1849 147.604 94.3729C148.268 92.6651 147.849 91.1869 145.636 90.5652C143.867 90.0684 142.102 90.1994 140.33 90.5051C139.714 90.6118 139.102 90.7373 138.488 90.8541C138.457 90.7826 138.427 90.711 138.397 90.6395C138.695 90.439 139.011 90.2581 139.288 90.0353C141.238 88.466 141.209 85.2489 139.23 83.4642C138.092 82.4389 136.685 81.9266 135.163 81.691C132.669 81.3049 130.206 81.477 127.809 82.2337C126.973 82.4976 126.81 82.8398 126.863 83.6647C126.873 83.8064 126.706 83.959 126.621 84.1061C126.539 84.0852 126.456 84.065 126.373 84.044C126.248 83.4676 126.146 82.8857 125.995 82.3154C125.661 81.0518 125.414 79.7537 124.924 78.5441C124.41 77.2772 123.297 76.7183 121.801 76.775C119.896 76.8465 118.388 77.6619 117.104 78.8722C114.901 80.9471 113.583 83.3859 113.866 86.4119C113.961 87.4278 114.036 88.4484 114.213 89.4528Z" fill="#F4731C"/>
<path d="M158.585 137.066C157.84 136.141 157.02 135.253 156.127 134.456C155.425 133.828 154.906 133.926 154.053 134.36C153.531 134.625 152.927 134.75 152.36 134.937C151.85 135.104 151.304 135.208 150.838 135.448C149.05 136.37 148.44 137.989 148.015 139.728C147.497 141.85 147.021 143.989 146.343 146.068C145.884 147.476 145.189 148.831 144.458 150.14C143.022 152.717 141.114 154.988 139.057 157.153C138.205 158.049 138.291 158.983 139.271 159.75C140.353 160.599 141.551 160.707 142.877 160.332C144.255 159.942 145.221 159.046 146.186 158.133C146.754 157.595 147.337 157.299 148.115 157.813C148.353 157.97 148.678 158.014 148.964 158.104C150.512 158.589 151.993 158.594 153.363 157.618C154.735 156.641 155.47 155.278 155.859 153.773C156.224 152.363 156.395 150.909 156.672 149.478C156.701 149.33 156.871 149.206 156.975 149.07C157.058 149.218 157.217 149.368 157.209 149.511C157.178 150.122 157.14 150.739 157.024 151.339C156.82 152.392 156.556 153.436 156.317 154.483C156.389 154.528 156.459 154.573 156.53 154.617C157.058 154.092 157.607 153.584 158.109 153.037C159.631 151.378 160.66 149.541 160.355 147.253C160.348 147.192 160.332 147.125 160.35 147.069C160.41 146.871 160.484 146.677 160.553 146.481C160.669 146.672 160.862 146.853 160.888 147.053C160.945 147.497 160.966 147.955 160.913 148.398C160.814 149.222 160.653 150.04 160.494 150.999C160.916 150.643 161.294 150.395 161.576 150.073C162.978 148.475 162.996 146.62 162.551 144.735C161.88 141.891 160.443 139.372 158.585 137.066Z" fill="#F4731C"/>
<path d="M104.617 106.635C104.788 106.549 104.941 106.433 105.287 106.215C104.756 106.099 104.45 105.987 104.138 105.972C102.579 105.895 101.21 106.32 100.123 107.412C98.7398 108.801 98.0175 110.497 97.5642 112.311C96.9844 114.631 96.811 116.96 97.4455 119.302C97.6383 120.012 98.0728 120.466 98.8095 120.745C100.096 121.235 101.373 121.755 102.619 122.328C104.038 122.98 106.214 122.533 107.084 121.3C107.908 120.133 108.13 118.775 108.439 117.391C106.222 118.456 104.361 117.95 103.952 116.192C104.24 116.192 104.521 116.208 104.799 116.188C105.399 116.147 105.608 115.781 105.301 115.306C105.002 114.844 104.565 114.601 103.979 114.723C103.4 114.844 103.174 114.637 103.212 114.101C103.249 113.57 103.229 113.034 103.301 112.508C103.454 111.387 103.37 111.277 102.14 111.237C102.053 111.234 101.966 111.233 101.878 111.23C101.14 111.209 101.016 111.06 101.262 110.406C101.88 108.761 102.961 107.472 104.617 106.635Z" fill="white"/>
<path d="M111.393 99.6484C111.217 99.0862 111.045 98.5232 110.865 97.9623C109.846 94.7986 110.519 92.7459 113.202 90.6811C113.439 90.4988 113.617 90.1039 113.611 89.8117C113.58 88.4839 113.454 87.1582 113.403 85.8305C113.362 84.7606 112.888 84.251 111.739 84.4022C110.679 84.5419 109.604 84.7789 108.614 85.1555C106.379 86.0053 104.524 88.7715 104.677 91.0233C104.959 95.184 107.753 97.6977 111.393 99.6484Z" fill="#F4731C"/>
<path d="M182.17 121.846C178.354 121.691 174.972 123.039 171.699 124.692C171.389 124.848 171.102 125.046 170.805 125.225C170.843 125.298 170.882 125.37 170.92 125.442C171.333 125.34 171.758 125.271 172.156 125.132C173.782 124.563 175.463 124.319 177.169 124.561C178.435 124.741 179.67 125.103 180.917 125.391C182.084 125.66 183.25 125.926 184.455 125.605C185.934 125.211 186.267 124.153 185.322 123.008C184.506 122.018 183.319 121.893 182.17 121.846Z" fill="#F4731C"/>
<path d="M179.326 129.693C178.295 129.036 177.185 128.488 176.167 127.815C175.07 127.09 173.828 126.898 172.676 126.737C172.359 126.754 172.151 126.728 171.97 126.782C171.634 126.881 171.314 127.027 170.988 127.153C171.199 127.398 171.39 127.662 171.626 127.884C172.449 128.663 173.38 129.359 174.095 130.216C174.84 131.107 175.332 132.181 176.042 133.102C176.29 133.424 176.906 133.762 177.266 133.692C178.297 133.492 179.186 132.949 179.794 132.098C180.506 131.099 180.385 130.368 179.326 129.693Z" fill="#F4731C"/>
<path d="M182.397 126.46C181.844 126.253 181.241 126.165 180.667 126.002C178.79 125.47 176.907 124.965 174.912 125.119C173.567 125.224 172.277 125.502 171.07 126.175C171.157 126.237 171.188 126.276 171.218 126.276C171.435 126.28 171.654 126.29 171.87 126.27C173.564 126.12 175.177 126.354 176.638 127.208C177.338 127.616 178.001 128.081 178.67 128.534C179.577 129.148 180.49 129.735 181.683 129.708C182.565 129.688 183.226 129.209 183.38 128.461C183.554 127.616 183.162 126.746 182.397 126.46Z" fill="#F4731C"/>
<path d="M108.949 111.267C108.994 110.568 108.119 109.793 107.312 109.794C106.702 109.795 106.212 110.157 106.196 110.62C106.173 111.288 107.104 112.026 107.981 112.036C108.55 112.052 108.913 111.82 108.949 111.267Z" fill="white"/>
<path d="M107.177 113.646C107.254 113.857 107.545 114 107.747 114.172C107.913 113.99 108.192 113.817 108.211 113.622C108.227 113.461 107.936 113.273 107.662 112.962C107.421 113.286 107.131 113.52 107.177 113.646Z" fill="white"/>
<path d="M142.199 99.0456C142.332 99.6444 142.452 100.178 142.57 100.713C143.006 99.8995 142.867 99.3912 142.199 99.0456Z" fill="#F4731C"/>
<path d="M141.82 97.4883C142.376 96.978 142.379 96.5109 141.82 96.033V97.4883Z" fill="#F4731C"/>
<path d="M128.725 120.664C127.669 119.45 127.337 118.047 127.493 116.521C127.601 115.467 127.616 115.469 126.6 115.07C125.292 114.557 125.192 114.285 125.895 113.089C126.01 112.893 126.143 112.705 126.28 112.52C127.123 111.38 128.205 110.524 129.8 110.077C129.517 109.914 129.397 109.832 129.265 109.772C126.902 108.684 123.947 109.226 121.859 111.128C118.535 114.155 117.631 120.222 119.925 124.038C120.366 124.773 121.07 125.04 121.898 125.008C124.584 124.901 127.21 125.184 129.782 125.931C130.681 126.191 131.445 125.901 131.993 125.234C133.328 123.612 133.489 121.656 133.708 119.717C133.482 119.929 133.312 120.161 133.156 120.4C131.982 122.192 130.147 122.299 128.725 120.664Z" fill="white"/>
<path d="M128.684 118.596C128.921 119.167 129.039 119.655 129.317 120.041C129.474 120.257 129.927 120.442 130.189 120.39C130.443 120.339 130.779 119.978 130.802 119.731C130.843 119.265 130.753 118.762 130.594 118.313C130.429 117.844 130.008 117.44 129.458 117.666C129.127 117.802 128.948 118.261 128.684 118.596Z" fill="white"/>
<path d="M132.501 114.187C131.933 114.191 131.659 114.49 131.656 114.993C131.653 115.558 132.645 116.445 133.266 116.386C133.474 116.366 133.652 116.079 133.737 116.007C133.727 114.923 133.163 114.182 132.501 114.187Z" fill="white"/>
<path d="M132.458 117.749C132.274 117.909 131.97 118.052 131.94 118.236C131.91 118.412 132.164 118.629 132.392 118.979C132.666 118.657 132.96 118.461 132.943 118.295C132.922 118.1 132.631 117.93 132.458 117.749Z" fill="white"/>
</g>
</g>
<defs>
<clipPath id="clip0_1998_2700">
<rect width="332" height="135" fill="white" transform="translate(49 47.5)"/>
</clipPath>
</defs>
</svg>
