<svg width="431" height="231" viewBox="0 0 431 231" fill="none" xmlns="http://www.w3.org/2000/svg">
<g clip-path="url(#clip0_2304_2591)">
<rect width="430" height="230" transform="translate(0.753906 0.742188)" fill="white"/>
<path d="M430.754 0.742188H0.753906V230.742H430.754V0.742188Z" fill="white"/>
<path d="M108.138 81.5138H104.453L110.689 66.584H116.075L108.138 81.5138Z" fill="#363435"/>
<path d="M308.578 96.957H304.477L304.422 164.901H308.578V96.957Z" fill="#363435"/>
<path d="M323.746 164.901H329.596C331.617 147.023 337.899 137.822 351.061 140.659C364.223 143.495 367.266 153.815 371.004 160.904C372.264 163.293 373.112 164.901 373.467 164.901H379.421L349.755 96.957H344.098L345.961 100.94L347.353 103.914L365.424 146.313C365.424 146.313 357.538 139.569 352.148 138.619C346.757 137.67 339.841 139.291 336.033 141.247L347.353 103.914L345.961 100.94L323.746 164.901Z" fill="#363435"/>
<path d="M248.542 96.957H244.465V164.901H266.948H289.304V157.565C278.445 160.689 272.145 161.319 260.038 161.319H248.542V96.957Z" fill="#363435"/>
<path d="M184.778 164.901H180.672V96.957C180.672 96.957 196.924 96.9564 208.061 96.957C219.198 96.9577 230.976 106.334 230.976 118.758C230.976 131.182 209.76 136.752 208.061 136.752C206.363 136.752 232.482 164.901 232.482 164.901H225.066L200.903 138.218H191.84V134.71H208.061C208.061 134.71 225.066 129.633 225.066 118.758C225.066 107.882 218.798 100.794 208.061 100.794H184.778V164.901Z" fill="#363435"/>
<path fill-rule="evenodd" clip-rule="evenodd" d="M52.0898 164.901H56.2752V136.201H76.8103C94.7334 136.201 102.418 132.143 102.418 116.181C102.418 100.219 89.5109 96.957 76.8103 96.957H56.2752H52.0898V164.901ZM56.2752 100.917H76.8103C88.3172 100.917 95.9272 102.172 95.9272 116.181C95.9272 130.19 90.257 132.388 76.8103 132.388H56.2752V100.917Z" fill="#363435"/>
<path d="M161.802 96.957V104.583C155.429 101.248 148.227 100.823 139.85 100.871H124.313C121.502 100.871 120.793 101.284 120.793 103.722V125.459C120.793 127.48 121.284 128.785 124.313 128.785H155.265V135.319C150.863 131.659 144.519 132.397 136.277 132.397H120.793V161.45C136.465 161.45 147.284 160.177 161.802 158.124V164.901H116.809V96.957H161.802Z" fill="#363435"/>
</g>
<defs>
<clipPath id="clip0_2304_2591">
<rect width="430" height="230" fill="white" transform="translate(0.753906 0.742188)"/>
</clipPath>
</defs>
</svg>
