<svg width="401" height="119" viewBox="0 0 401 119" fill="none" xmlns="http://www.w3.org/2000/svg">
<path d="M70.1789 18.4539H65.6875L73.2888 0.255859H79.8538L70.1789 18.4539Z" fill="#363435"/>
<path d="M314.492 38.4941H309.493L309.426 118.152H314.492V38.4941Z" fill="#363435"/>
<path fill-rule="evenodd" clip-rule="evenodd" d="M332.98 118.163H340.11C342.575 97.2028 350.231 86.4162 366.274 89.7417C382.318 93.0671 386.028 105.165 390.584 113.477C392.119 116.278 393.153 118.163 393.585 118.163H400.842L364.683 38.5059H357.808V40.2895H360.991L332.98 118.163ZM367.599 87.3507C361.029 86.2373 352.599 88.1381 347.956 90.4318L361.755 46.6623L383.781 96.3702C383.781 96.3702 374.17 88.4641 367.599 87.3507Z" fill="#363435"/>
<path d="M241.244 38.4941H236.275L236.246 118.161H290.929V111.654C277.693 115.425 270.014 116.186 255.257 116.186H241.244V38.4941Z" fill="#363435"/>
<path d="M162.833 118.161H157.828V38.4945C157.828 38.4945 177.638 38.4937 191.213 38.4945C204.788 38.4953 219.144 47.838 219.144 62.7557C219.144 77.6735 193.284 84.3624 191.213 84.3624C189.143 84.3624 220.98 118.161 220.98 118.161H211.94L182.108 85.3189H171.441V81.9102H191.213C191.213 81.9102 211.94 75.8142 211.94 62.7557C211.94 49.6973 204.3 41.187 191.213 41.187H162.833V118.161Z" fill="#363435"/>
<path fill-rule="evenodd" clip-rule="evenodd" d="M0.84375 118.162H5.94525V84.5092H30.9756C52.8222 84.5092 62.189 79.7516 62.189 61.0355C62.189 42.3195 46.4564 38.4941 30.9756 38.4941H5.94525H0.84375V118.162ZM5.94525 40.9288H30.9756C45.0014 40.9288 54.2772 44.6094 54.2772 61.0355C54.2772 77.4617 47.3658 81.6684 30.9756 81.6684H5.94525V40.9288Z" fill="#363435"/>
<path d="M135.522 38.4941V44.9636C127.754 40.8093 118.975 40.2792 108.764 40.3398H89.8264C86.4005 40.3398 85.5357 40.8543 85.5357 43.8907V70.966C85.5357 73.4841 86.1353 75.1087 89.8264 75.1087H127.554V81.7666C122.189 77.2078 114.322 76.7362 104.474 76.7362H85.5357V115.797C104.639 115.797 117.826 114.211 135.522 111.653V118.163H80.6797V38.4941H135.522Z" fill="#363435"/>
</svg>
