<svg width="430" height="230" viewBox="0 0 430 230" fill="none" xmlns="http://www.w3.org/2000/svg">
<rect width="430" height="230" fill="#121011"/>
<g clip-path="url(#clip0_1998_2700)">
<mask id="mask0_1998_2700" style="mask-type:luminance" maskUnits="userSpaceOnUse" x="86" y="19" width="258" height="192">
<path d="M343.5 19H86.5V211H343.5V19Z" fill="white"/>
</mask>
<g mask="url(#mask0_1998_2700)">
<mask id="mask1_1998_2700" style="mask-type:luminance" maskUnits="userSpaceOnUse" x="71" y="-31" width="290" height="250">
<path d="M128.418 -30.7656L360.202 44.8096L302.923 218.354L71.1386 142.779L128.418 -30.7656Z" fill="white"/>
</mask>
<g mask="url(#mask1_1998_2700)">
<mask id="mask2_1998_2700" style="mask-type:luminance" maskUnits="userSpaceOnUse" x="127" y="-3" width="182" height="170">
<path d="M301.261 129.079C301.261 129.079 277.881 123.847 274.884 123.268C271.887 122.689 249.613 126.176 246.375 125.12C243.136 124.065 232.943 121.141 232.943 121.141L250.159 91.0626L266.791 35.6214C266.791 35.6214 235.666 -1.82512 234.227 -2.29422C232.788 -2.76332 205.141 4.70264 205.141 4.70264L189.707 10.4457L175.873 11.7568L146.079 24.7416C146.079 24.7416 128.805 62.0613 127.37 62.7875C125.934 63.5138 137.856 97.711 137.856 97.711L128.456 117.731L134.627 136.459L140.882 144.069L161.403 154.34L185.025 160.049L206.372 166.609L219.176 161.627C219.176 161.627 225.499 153.34 226.697 153.333C227.895 153.326 257.151 160.075 257.151 160.075L300.784 166.734L306.958 149.244L308.465 133.815L301.261 129.079Z" fill="white"/>
</mask>
<g mask="url(#mask2_1998_2700)">
<path d="M222.8 139.168L288.042 151.069C290.703 151.555 293.256 149.78 293.726 147.119C294.215 144.344 292.248 141.743 289.442 141.454L225.092 134.843L222.8 139.168Z" fill="#393836"/>
<path d="M227.399 131.579C223.593 143.109 215.178 161.197 177.795 148.986C138.798 137.035 143.784 119.152 147.59 107.622C148.569 104.656 167.662 106.302 189.531 113.432C211.4 120.562 227.935 129.956 227.399 131.579Z" fill="#3F5B09"/>
<path d="M223.706 129.792C220.286 140.155 212.607 156.373 177.046 144.758C139.962 133.353 144.399 117.267 147.82 106.903C148.699 104.237 166.79 106.02 187.593 112.803C208.396 119.587 224.188 128.333 223.706 129.792Z" fill="#496311"/>
<path d="M227.781 131.187C225.891 137.316 206.454 136.829 184.365 130.1C162.277 123.37 145.903 112.946 147.792 106.818C149.682 100.689 169.12 101.175 191.208 107.905C213.296 114.634 229.671 125.058 227.781 131.187Z" fill="#1E1E1E"/>
<path d="M227.781 131.187C225.891 137.316 206.454 136.829 184.365 130.1C162.277 123.37 145.903 112.946 147.792 106.818C149.682 100.689 169.12 101.175 191.208 107.905C213.296 114.634 229.671 125.058 227.781 131.187Z" stroke="black" stroke-width="0.95" stroke-miterlimit="10"/>
<path d="M295.931 147.619C295.469 149.016 293.961 149.78 292.562 149.324C291.163 148.868 290.402 147.365 290.864 145.968C291.325 144.57 292.834 143.807 294.233 144.263C295.632 144.719 296.392 146.222 295.931 147.619Z" stroke="#393836" stroke-width="5.7" stroke-miterlimit="10"/>
<path d="M233.44 135.207L232.401 140.978C232.169 142.271 233.049 143.499 234.349 143.696L287.57 151.733C290.697 152.185 293.588 149.972 293.963 146.839C294.327 143.798 292.177 141.035 289.136 140.637L236.073 133.299C234.826 133.126 233.663 133.97 233.44 135.207Z" fill="#FFAB36"/>
<path d="M226.232 134.927C226.249 134.707 223.27 135.619 223.27 135.619C223.27 135.619 222.687 137.435 221.459 139.479C221.459 139.479 223.769 139.73 224.156 139.458C224.679 139.136 226.148 135.423 226.232 134.927Z" fill="#393836"/>
<path d="M224.391 136.12C224.323 136.328 224.167 136.464 224.043 136.423C223.919 136.383 223.874 136.182 223.942 135.974C224.011 135.766 224.167 135.63 224.291 135.671C224.415 135.711 224.46 135.912 224.391 136.12Z" fill="#6B6B6B"/>
<path d="M223.638 138.401C223.569 138.609 223.413 138.745 223.289 138.704C223.165 138.664 223.12 138.463 223.188 138.255C223.257 138.047 223.413 137.912 223.537 137.952C223.661 137.993 223.706 138.194 223.638 138.401Z" fill="#6B6B6B"/>
<mask id="mask3_1998_2700" style="mask-type:luminance" maskUnits="userSpaceOnUse" x="71" y="-31" width="290" height="250">
<path d="M128.453 -30.7637L360.199 44.768L302.882 218.356L71.1358 142.824L128.453 -30.7637Z" fill="white"/>
</mask>
<g mask="url(#mask3_1998_2700)">
<mask id="mask4_1998_2700" style="mask-type:luminance" maskUnits="userSpaceOnUse" x="105" y="-92" width="262" height="229">
<path d="M366.307 -51.7774L255.103 -88.019L149.789 -91.5875L105.28 42.2283L148.217 110.36C148.217 110.36 155.691 125.61 202.884 134.82C207.801 135.638 211.992 136.27 217.826 136.089C222.567 135.942 225.893 132.28 230.4 132.113C284.794 130.102 324.232 89.2385 324.232 89.2385L366.307 -51.7774Z" fill="white"/>
</mask>
<g mask="url(#mask4_1998_2700)">
<path d="M192.38 59.8492C192.38 59.8492 192.13 58.5173 190.793 57.0415C189.455 55.5657 184.699 54.2852 178.953 57.0803C175.196 58.9073 173.411 61.184 172.582 62.9022C172.074 63.9545 172.031 65.1736 172.466 66.255C172.868 67.2567 173.323 68.0432 173.323 68.0432L192.38 59.8492Z" fill="#CCD64C"/>
<path d="M173.327 68.045C172.003 64.9616 175.195 60.6281 180.457 58.3656C185.72 56.1031 191.06 56.7678 192.385 59.8512C193.709 62.9346 190.517 67.2681 185.254 69.5306C179.992 71.7931 174.652 71.1284 173.327 68.045Z" fill="#A9C22C"/>
<path d="M176.354 66.7441C175.451 64.6403 177.629 61.6834 181.22 60.1392C184.811 58.5953 188.455 59.049 189.358 61.1528C190.262 63.2566 188.084 66.2135 184.493 67.7577C180.902 69.3018 177.258 68.8479 176.354 66.7441Z" fill="#568022"/>
<path d="M178.91 65.6527C178.361 64.374 179.685 62.5764 181.868 61.638C184.05 60.6995 186.265 60.9755 186.815 62.2542C187.364 63.5328 186.04 65.3303 183.857 66.2687C181.674 67.2072 179.459 66.9313 178.91 65.6527Z" fill="#CCD64C"/>
<path d="M184.117 67.2342C184.397 67.1324 184.145 66.6952 183.905 66.4968C183.854 66.4549 183.721 66.513 183.72 66.5781C183.712 66.9923 183.885 67.3182 184.117 67.2342Z" fill="#363C43"/>
<path d="M185.031 66.7831C185.303 66.6577 184.942 66.278 184.646 66.1197C184.583 66.0862 184.457 66.1552 184.47 66.2158C184.554 66.602 184.807 66.8869 185.031 66.7831Z" fill="#363C43"/>
<path d="M185.751 66.3566C186.008 66.2101 185.545 65.8963 185.2 65.7815C185.127 65.7572 185.009 65.8354 185.036 65.8904C185.21 66.2409 185.538 66.4779 185.751 66.3566Z" fill="#363C43"/>
<path d="M186.412 65.8789C186.649 65.7141 186.095 65.4733 185.707 65.4043C185.625 65.3895 185.52 65.475 185.56 65.5233C185.82 65.8305 186.216 66.0149 186.412 65.8789Z" fill="#363C43"/>
<path d="M186.997 65.3629C187.209 65.1836 186.575 65.0203 186.153 64.9987C186.064 64.9942 185.972 65.0852 186.025 65.1258C186.365 65.3831 186.822 65.5112 186.997 65.3629Z" fill="#363C43"/>
<path d="M187.499 64.8199C187.681 64.6296 186.981 64.547 186.534 64.5732C186.439 64.5787 186.363 64.6742 186.428 64.7058C186.841 64.9081 187.348 64.9771 187.499 64.8199Z" fill="#363C43"/>
<path d="M187.904 64.257C188.053 64.0599 187.301 64.06 186.838 64.1337C186.74 64.1493 186.681 64.2461 186.756 64.2685C187.234 64.4114 187.781 64.4197 187.904 64.257Z" fill="#363C43"/>
<path d="M188.201 63.6884C188.314 63.4884 187.525 63.5714 187.056 63.6908C186.957 63.7161 186.917 63.8125 187 63.8253C187.533 63.9056 188.108 63.8536 188.201 63.6884Z" fill="#363C43"/>
<path d="M188.391 63.1263C188.465 62.9278 187.657 63.0917 187.192 63.2542C187.094 63.2886 187.073 63.3828 187.163 63.3855C187.739 63.402 188.33 63.2902 188.391 63.1263Z" fill="#363C43"/>
<path d="M188.463 62.5847C188.496 62.392 187.685 62.633 187.234 62.8354C187.139 62.8784 187.137 62.9682 187.233 62.9607C187.84 62.9126 188.435 62.7441 188.463 62.5847Z" fill="#363C43"/>
<path d="M188.417 62.0695C188.41 61.8862 187.613 62.1996 187.185 62.4376C187.094 62.4882 187.113 62.5721 187.212 62.5547C187.837 62.4434 188.423 62.2208 188.417 62.0695Z" fill="#363C43"/>
<path d="M188.258 61.596C188.21 61.4265 187.444 61.8058 187.048 62.0741C186.964 62.131 187.002 62.2069 187.102 62.1799C187.733 62.0075 188.298 61.7362 188.258 61.596Z" fill="#363C43"/>
<path d="M187.985 61.1732C187.897 61.0206 187.179 61.4577 186.823 61.751C186.747 61.8132 186.804 61.8797 186.902 61.8435C187.525 61.6138 188.058 61.2991 187.985 61.1732Z" fill="#363C43"/>
<path d="M187.604 60.8073C187.478 60.6751 186.822 61.1606 186.514 61.4728C186.448 61.5389 186.523 61.5945 186.617 61.5502C187.22 61.268 187.708 60.9168 187.604 60.8073Z" fill="#363C43"/>
<path d="M187.127 60.5105C186.966 60.4012 186.385 60.9253 186.131 61.2495C186.077 61.3183 186.167 61.3619 186.257 61.3101C186.826 60.9814 187.26 60.6007 187.127 60.5105Z" fill="#363C43"/>
<path d="M186.559 60.2854C186.366 60.2014 185.873 60.7531 185.679 61.0828C185.638 61.1527 185.742 61.1835 185.824 61.1254C186.348 60.7569 186.719 60.3547 186.559 60.2854Z" fill="#363C43"/>
<path d="M185.914 60.1366C185.693 60.0797 185.299 60.6471 185.168 60.9754C185.14 61.0449 185.256 61.0622 185.329 60.9991C185.797 60.5987 186.096 60.1836 185.914 60.1366Z" fill="#363C43"/>
<path d="M185.21 60.0713C184.965 60.0425 184.678 60.614 184.613 60.9338C184.599 61.0015 184.724 61.0048 184.788 60.9382C185.189 60.514 185.411 60.0949 185.21 60.0713Z" fill="#363C43"/>
<path d="M184.451 60.0859C184.189 60.0861 184.014 60.6494 184.016 60.9543C184.017 61.0189 184.149 61.0082 184.2 60.9391C184.527 60.5002 184.668 60.0859 184.451 60.0859Z" fill="#363C43"/>
<path d="M183.662 60.1832C183.387 60.2122 183.328 60.7563 183.398 61.0396C183.413 61.0997 183.549 61.0749 183.588 61.0051C183.833 60.5605 183.889 60.1592 183.662 60.1832Z" fill="#363C43"/>
<path d="M182.859 60.3602C182.577 60.4172 182.635 60.9304 182.772 61.1864C182.801 61.2407 182.938 61.2029 182.963 61.1336C183.123 60.6927 183.092 60.3128 182.859 60.3602Z" fill="#363C43"/>
<path d="M182.053 60.6123C181.77 60.6966 181.944 61.1677 182.144 61.3911C182.187 61.4386 182.322 61.3884 182.333 61.3209C182.402 60.893 182.287 60.5427 182.053 60.6123Z" fill="#363C43"/>
<path d="M181.27 60.9362C180.991 61.0459 181.279 61.4653 181.538 61.6514C181.593 61.691 181.724 61.629 181.72 61.5652C181.699 61.1591 181.5 60.8459 181.27 60.9362Z" fill="#363C43"/>
<path d="M180.516 61.323C180.248 61.4557 180.642 61.8146 180.955 61.9593C181.021 61.99 181.145 61.9182 181.127 61.8591C181.015 61.4835 180.737 61.2135 180.516 61.323Z" fill="#363C43"/>
<path d="M179.813 61.7669C179.562 61.9196 180.055 62.2108 180.415 62.3112C180.491 62.3324 180.605 62.2518 180.573 62.1988C180.372 61.8616 180.021 61.6407 179.813 61.7669Z" fill="#363C43"/>
<path d="M179.173 62.2576C178.943 62.4274 179.524 62.6442 179.924 62.6981C180.009 62.7095 180.11 62.6219 180.065 62.5761C179.779 62.2844 179.362 62.1173 179.173 62.2576Z" fill="#363C43"/>
<path d="M178.612 62.7842C178.409 62.9673 179.065 63.1052 179.496 63.1114C179.588 63.1128 179.675 63.0202 179.617 62.9825C179.253 62.7422 178.78 62.6328 178.612 62.7842Z" fill="#363C43"/>
<path d="M178.14 63.335C177.968 63.5279 178.687 63.5842 179.14 63.5425C179.236 63.5335 179.307 63.4381 179.239 63.4092C178.804 63.2254 178.283 63.1757 178.14 63.335Z" fill="#363C43"/>
<path d="M177.772 63.9001C177.634 64.0986 178.399 64.0717 178.865 63.9832C178.964 63.9646 179.017 63.8675 178.939 63.8481C178.443 63.7251 177.886 63.7362 177.772 63.9001Z" fill="#363C43"/>
<path d="M177.508 64.4677C177.407 64.6675 178.204 64.5588 178.673 64.4252C178.772 64.397 178.806 64.301 178.72 64.2914C178.173 64.2315 177.591 64.3028 177.508 64.4677Z" fill="#363C43"/>
<path d="M177.357 65.0234C177.296 65.2205 178.107 65.0316 178.568 64.8558C178.666 64.8185 178.681 64.7257 178.588 64.7261C178.001 64.7303 177.408 64.8606 177.357 65.0234Z" fill="#363C43"/>
<path d="M177.321 65.5594C177.301 65.7496 178.109 65.4844 178.554 65.2703C178.648 65.2248 178.643 65.1369 178.546 65.1476C177.932 65.2161 177.339 65.4023 177.321 65.5594Z" fill="#363C43"/>
<path d="M177.404 66.0616C177.424 66.2409 178.213 65.9055 178.632 65.6573C178.721 65.6046 178.695 65.5231 178.597 65.5437C177.968 65.675 177.387 65.9137 177.404 66.0616Z" fill="#363C43"/>
<path d="M177.6 66.5218C177.661 66.6863 178.413 66.2875 178.797 66.0106C178.879 65.9519 178.835 65.8788 178.735 65.9088C178.105 66.1 177.549 66.3859 177.6 66.5218Z" fill="#363C43"/>
<path d="M177.907 66.9271C178.008 67.0735 178.708 66.6198 179.049 66.3198C179.122 66.2562 179.059 66.1932 178.962 66.2319C178.344 66.4789 177.824 66.8062 177.907 66.9271Z" fill="#363C43"/>
<path d="M178.321 67.2706C178.458 67.3958 179.092 66.8965 179.384 66.5797C179.445 66.5126 179.366 66.4606 179.272 66.5076C178.679 66.8055 178.207 67.1673 178.321 67.2706Z" fill="#363C43"/>
<path d="M178.827 67.5449C178.999 67.6462 179.552 67.1121 179.788 66.7853C179.838 66.716 179.743 66.6764 179.655 66.7302C179.1 67.0725 178.685 67.4611 178.827 67.5449Z" fill="#363C43"/>
<path d="M179.421 67.7457C179.624 67.8213 180.086 67.2632 180.261 66.9333C180.298 66.8632 180.19 66.837 180.11 66.8966C179.603 67.2763 179.254 67.6832 179.421 67.7457Z" fill="#363C43"/>
<path d="M180.086 67.8678C180.315 67.9159 180.676 67.3457 180.786 67.0195C180.809 66.9503 180.69 66.9375 180.62 67.0019C180.173 67.411 179.897 67.8282 180.086 67.8678Z" fill="#363C43"/>
<path d="M180.809 67.9081C181.06 67.9275 181.312 67.3574 181.355 67.0417C181.364 66.9747 181.237 66.9758 181.177 67.0435C180.799 67.4733 180.602 67.8919 180.809 67.9081Z" fill="#363C43"/>
<path d="M181.577 67.8666C181.844 67.8572 181.982 67.2991 181.958 67.0003C181.953 66.937 181.819 66.9524 181.772 67.0217C181.47 67.4635 181.356 67.8744 181.577 67.8666Z" fill="#363C43"/>
<path d="M182.374 67.7444C182.652 67.7065 182.674 67.1711 182.582 66.8958C182.563 66.8376 182.426 66.8663 182.391 66.9362C182.173 67.3805 182.144 67.7758 182.374 67.7444Z" fill="#363C43"/>
<path d="M183.179 67.542C183.463 67.476 183.367 66.9752 183.21 66.7291C183.176 66.6769 183.039 66.7186 183.019 66.7876C182.888 67.2253 182.945 67.5966 183.179 67.542Z" fill="#363C43"/>
<path d="M181.319 64.6148C181.105 64.1166 181.621 63.4164 182.471 63.0507C183.322 62.6851 184.184 62.7927 184.398 63.2909C184.613 63.7891 184.097 64.4893 183.246 64.8549C182.396 65.2206 181.533 65.113 181.319 64.6148Z" fill="#E2E796"/>
<path d="M180.069 51.2171C180.069 51.2171 179.043 53.1626 176.524 53.7466C173.71 54.399 171.036 54.0924 169.834 53.9847C168.632 53.8769 161.478 52.6 160.818 49.6604C160.742 52.0986 162.162 54.4697 170.784 55.175C179.405 55.8803 180.177 52.7674 180.069 51.2171Z" fill="#A54992"/>
<path d="M180.7 51.8894C180.7 51.8894 180.628 50.2351 180.363 49.5828C180.098 48.9305 177.489 46.1046 170.656 45.689C163.824 45.2737 160.837 47.4415 160.199 48.5628C159.884 50.3414 159.925 50.8557 159.925 50.8557C159.925 50.8557 161.048 48.3955 164.358 47.4819C167.581 46.5922 177.819 46.1698 180.7 51.8894Z" fill="#A54992"/>
<path d="M180.701 51.888C180.351 46.134 161.917 44.4105 160.016 49.9252C158.001 55.7762 181.114 58.6773 180.701 51.888ZM161.115 50.0888C162.761 45.7172 179.224 47.2487 179.589 51.8301C180.019 57.2371 159.37 54.7258 161.115 50.0888Z" fill="#E8DCF2"/>
<path d="M175.228 62.6473C175.228 62.6473 182.35 60.583 187.195 66.2416C187.195 66.2416 188.324 60.6065 183.497 56.8642C178.67 53.1222 173.722 59.9805 173.722 59.9805C173.722 59.9805 174.804 60.6744 175.228 62.6473Z" fill="#DDDBB0"/>
<path d="M174.72 62.7867C174.72 62.7867 174.303 61.3287 173.081 60.273C173.081 60.273 173.469 59.6728 174.297 59.1831C174.297 59.1831 175.737 60.4804 176.226 62.5626L174.72 62.7867Z" fill="#CE9C88"/>
<g opacity="0.1">
<path d="M183.495 56.8633C179.685 53.9091 175.8 57.5587 174.332 59.2279C174.311 59.2074 174.295 59.1935 174.295 59.1935C173.468 59.6833 173.079 60.2837 173.079 60.2837C173.288 60.4641 173.472 60.6564 173.635 60.8508C175.291 59.1485 177.786 57.4877 180.922 58.1027C186.855 59.2658 187.193 66.242 187.193 66.242C187.193 66.242 188.322 60.606 183.495 56.8633Z" fill="#630000"/>
</g>
<g opacity="0.3">
<path d="M174.721 62.7943L176.227 62.5699C176.217 62.5264 176.204 62.4855 176.193 62.4426C178.022 62.1507 182.124 61.9174 185.636 64.7267C184.918 62.8707 182.911 60.6468 180.113 59.9293C177.175 59.1764 174.95 60.9583 174.21 61.663C174.575 62.2912 174.721 62.7943 174.721 62.7943Z" fill="white"/>
</g>
<path d="M183.814 50.5538C183.892 50.6192 183.949 50.71 183.973 50.8169C184.31 52.3408 184.695 53.8773 185.117 55.3837L185.147 55.4918C185.654 57.297 186.228 59.3434 185.568 61.2428C185.341 61.8968 184.997 62.3589 184.547 62.6157C183.819 63.0308 182.827 62.889 181.892 62.2359C181.679 62.0854 181.623 61.7853 181.776 61.5682C181.929 61.351 182.229 61.298 182.447 61.4498C182.927 61.7852 183.606 62.0492 184.072 61.7835C184.313 61.6457 184.51 61.3591 184.659 60.9317C185.221 59.316 184.712 57.5047 184.221 55.7531L184.19 55.6448C183.763 54.1214 183.374 52.5675 183.033 51.0263C182.976 50.7679 183.141 50.5115 183.4 50.4536C183.552 50.4196 183.703 50.4614 183.814 50.5538Z" fill="#009034"/>
<path d="M183.024 52.6805C183.564 52.0392 184.512 51.9461 185.142 52.4724C185.771 52.9988 185.844 53.9453 185.303 54.5865C184.764 55.2278 183.815 55.3209 183.186 54.7946C182.557 54.2682 182.484 53.3218 183.024 52.6805Z" fill="#009034"/>
<path d="M182.838 51.9902C183.416 51.3046 184.429 51.2047 185.102 51.7675C185.775 52.3303 185.853 53.3421 185.275 54.0278C184.698 54.7134 183.684 54.8134 183.011 54.2506C182.338 53.6878 182.261 52.6757 182.838 51.9902Z" fill="#009034"/>
<path d="M161.476 37.6554C161.162 37.7075 162.174 35.3339 163.692 34.6021C168.669 32.2018 175.069 36.0136 178.071 38.5874C186.517 45.8281 187.75 52.6143 185.117 53.7619C181.817 55.2 181.283 51.9739 180.2 49.1175C179.2 46.4793 178.99 41.7793 169.069 36.8522C167.25 35.9488 165.738 35.4579 163.812 36.0035C162.493 36.3775 161.888 37.5866 161.476 37.6554Z" fill="#D10019"/>
<path d="M163.047 35.7151C162.466 35.9955 161.959 36.5172 161.572 37.051C161.414 37.4191 161.371 37.6696 161.475 37.6522C161.888 37.5834 162.492 36.3742 163.812 36.0002C165.738 35.4546 167.25 35.9454 169.069 36.8489C178.99 41.7767 179.201 46.4774 180.201 49.1158C181.284 51.9725 181.819 55.199 185.119 53.7608C185.293 53.6849 185.449 53.5837 185.589 53.4602C186.273 50.8649 184.104 45.4255 177.427 39.7011C174.425 37.127 168.024 33.3147 163.047 35.7151Z" fill="#FF0011"/>
<g style="mix-blend-mode:screen" opacity="0.34">
<path d="M180.746 46.4654C181.123 46.3188 181.901 47.4175 182.484 48.9198C183.066 50.4222 183.233 51.759 182.855 51.9056C182.478 52.0523 181.699 50.9533 181.117 49.4509C180.534 47.9488 180.368 46.612 180.746 46.4654Z" fill="white"/>
</g>
<g style="mix-blend-mode:screen" opacity="0.34">
<path d="M178.464 42.999C178.604 42.9061 179.066 43.3533 179.495 43.9982C179.924 44.643 180.158 45.241 180.018 45.334C179.878 45.427 179.417 44.9797 178.988 44.3349C178.559 43.6901 178.324 43.092 178.464 42.999Z" fill="white"/>
</g>
<path d="M175.755 76.4032C175.633 76.4773 175.472 76.4383 175.398 76.3169L174.77 75.2858C174.696 75.1644 174.736 75.0043 174.858 74.9301C174.98 74.8559 175.141 74.8949 175.215 75.0164L175.842 76.0473C175.916 76.1688 175.877 76.329 175.755 76.4032Z" fill="black"/>
<path d="M175.428 75.7425C176.812 74.9026 178.821 75.6792 179.914 77.4769C181.008 79.2747 180.773 81.4136 179.389 82.2535C178.005 83.0934 175.997 82.3168 174.903 80.5191C173.809 78.7214 174.044 76.5824 175.428 75.7425Z" fill="#4A4A6A"/>
<g opacity="0.6">
<path d="M179.631 81.0074C179.837 81.289 179.716 81.7251 179.362 81.9822C179.009 82.2393 178.556 82.2197 178.35 81.9381C178.145 81.6565 178.266 81.2201 178.62 80.963C178.973 80.7059 179.426 80.7258 179.631 81.0074Z" fill="black"/>
</g>
<g opacity="0.15">
<path d="M178.908 82.471C179.074 82.417 179.236 82.347 179.389 82.254C180.773 81.414 181.008 79.2748 179.914 77.4769C178.82 75.6788 176.811 74.9025 175.427 75.7425C175.365 75.7799 175.309 75.8228 175.252 75.8654C176.109 75.967 177.453 76.2677 178.652 77.901C180.181 79.9843 179.456 81.6924 178.908 82.471Z" fill="black"/>
</g>
<g opacity="0.2">
<path d="M175.447 79.2287C175.722 79.0075 176.314 79.2859 176.769 79.8505C177.224 80.415 177.369 81.0516 177.093 81.2729C176.817 81.4941 176.225 81.2157 175.77 80.6511C175.316 80.0866 175.171 79.45 175.447 79.2287Z" fill="#F4F6DF"/>
</g>
<path d="M172.383 67.0655C172.317 66.8913 172.282 66.7131 172.275 66.5358C172.241 65.8054 172.678 65.1039 173.403 64.8305C174.303 64.4913 175.307 64.943 175.643 65.8376C175.694 65.974 175.727 66.1127 175.743 66.2507C175.831 67.0228 175.386 67.7873 174.623 68.0746C173.723 68.4139 172.72 67.962 172.383 67.0655Z" fill="#4D6E1E"/>
<path d="M172.272 66.5364C172.235 65.743 172.754 64.9833 173.595 64.7699C174.349 64.5784 175.162 64.9266 175.534 65.6068C175.569 65.6712 175.6 65.7362 175.626 65.8018C175.775 66.1717 175.543 66.6129 175.145 66.6481C175.114 66.6508 175.083 66.6513 175.052 66.6495C174.708 66.6305 174.445 66.3483 174.204 66.1035C173.961 65.8598 173.641 65.6129 173.304 65.6874C172.862 65.7867 172.684 66.3645 172.272 66.5364Z" fill="#3C550F"/>
<path d="M173.829 67.5608C174.124 67.4493 174.33 67.1061 174.21 66.7953C174.095 66.4994 173.761 66.2983 173.444 66.4177C173.148 66.5292 172.942 66.8725 173.062 67.1832C173.177 67.4792 173.512 67.6803 173.829 67.5608Z" fill="#678816"/>
<path d="M181.352 63.9824C181.499 62.5289 180.666 61.2144 179.608 60.1551C178.658 59.2811 177.302 58.4588 176.465 57.4565C174.885 55.3989 177.864 56.3276 178.853 57.0548C177.799 55.6822 175.888 54.8738 174.741 53.5561C172.939 51.4407 176.458 52.1168 177.295 53.1184C176.435 52.5035 175.687 51.7599 174.827 51.1445C174.021 50.622 172.026 50.5449 171.499 49.7081C170.223 47.6819 174.746 48.7688 175.587 49.457C174.781 48.9347 170.311 45.4695 171.428 44.3379C172.984 42.7615 175.734 48.0041 176.055 48.8722C175.702 47.5258 175.955 44.223 177.64 46.7797C178.872 48.6684 178.412 50.9746 178.737 53.0208C178.97 52.1394 179.449 49.0792 180.442 50.9081C181.138 52.1908 180.101 54.7089 179.639 56.1597C179.74 55.4791 180.827 53.7801 181.713 53.6961C183.008 53.5603 181.81 55.3872 181.689 56.1412C181.337 57.7764 181.298 59.4151 181.258 61.0537L181.352 63.9824Z" fill="#88D400"/>
<path d="M180.66 67.9258L180.661 67.9237C180.927 67.3246 181.131 66.6922 181.267 66.036C181.392 65.3756 181.45 64.697 181.453 64.0121C181.445 62.6393 181.212 61.2518 180.834 59.9012C180.461 58.5476 179.94 57.229 179.343 55.9494C178.74 54.6753 178.053 53.4222 177.282 52.2615L177.277 52.2522" stroke="#788F00" stroke-width="0.95" stroke-miterlimit="10"/>
<path d="M168.403 51.5892C168.403 51.5892 173.765 47.0063 179.51 51.064L179.511 51.0657C180.118 51.4941 180.728 52.018 181.338 52.6549C185.572 57.0763 182.711 63.0435 181.178 64.6552C178.614 59.9488 174.691 56.281 171.869 54.0497C171.756 53.9572 171.642 53.8683 171.53 53.7816C169.695 52.3597 168.403 51.5892 168.403 51.5892Z" fill="#DB0000"/>
<path d="M168.395 51.5872C168.395 51.5872 173.756 47.0051 179.5 51.0624C175.931 51.4206 173.36 52.903 171.861 54.0477C171.747 53.9552 171.633 53.8663 171.521 53.7796C169.687 52.3579 168.395 51.5872 168.395 51.5872Z" fill="#C50007"/>
<path d="M168.405 51.5858C168.405 51.5858 172.455 49.2041 176.848 51.5673C177.778 52.0671 178.726 52.7787 179.653 53.7729C184.646 59.1243 181.183 64.6558 181.183 64.6558L180.549 64.0105L175.982 59.3369C175.835 59.1885 175.765 58.9733 175.793 58.7383C175.838 58.3493 175.797 57.876 175.542 57.3932C175.262 56.8598 174.69 56.8114 174.153 56.9202C173.873 56.9769 173.609 56.9087 173.435 56.7326L171.248 54.4929L169.004 52.1984L168.405 51.5858Z" fill="#F8F3CC"/>
<path d="M176.991 59.3127C177.702 59.468 177.3 57.2591 176.871 57.3462C176.441 57.4333 176.617 59.2312 176.991 59.3127Z" fill="#363C43"/>
<path d="M173.349 55.7969C173.167 55.094 175.398 55.4141 175.326 55.8454C175.254 56.2768 173.444 56.1666 173.349 55.7969Z" fill="#363C43"/>
<path d="M168.396 51.585C168.396 51.585 172.445 49.2036 176.837 51.566C174.623 52.1916 172.957 53.2097 171.862 54.0449C171.826 54.0159 171.574 54.2116 171.238 54.4911L168.995 52.1974L168.396 51.585Z" fill="#EDE4AB"/>
<path d="M172.371 56.6422C171.902 57.5088 172.383 58.5903 173.344 58.8082C173.695 58.8879 174.104 58.9094 174.565 58.8205C176.318 58.4834 175.876 58.0248 177.006 57.8532C178.136 57.6819 179.761 57.8491 180.669 56.8186C181.577 55.7882 179.718 53.8646 177.988 53.7906C176.257 53.7166 173.841 54.2081 172.603 56.2377C172.517 56.3785 172.44 56.5137 172.371 56.6422Z" fill="#998565"/>
<path d="M181.184 55.8643C180.591 57.5898 179.485 57.4005 179.051 56.9836C179.022 56.9551 178.997 56.9203 178.968 56.8777C178.606 56.3044 178.484 54.585 177.951 55.3642C177.487 56.0389 178.81 58.4687 179.195 59.8167C179.286 60.1357 179.324 60.3954 179.275 60.5553C179.013 61.3945 177.674 61.5795 176.453 61.0158C176.257 60.9262 176.101 60.7289 175.973 60.4652C175.3 59.0773 175.404 55.8107 174.662 56.1845C174.196 56.4174 174.271 56.9186 174.3 57.423C174.318 57.7442 174.32 58.0691 174.153 58.3272C173.717 58.9928 171.694 58.8872 171.156 56.4099C170.552 53.6147 173.203 51.777 174.508 51.4078C179.78 49.9068 181.778 54.1367 181.184 55.8643Z" fill="#F8F3CC"/>
<path d="M174.503 53.5477C174.166 53.4838 172.52 55.1817 173.323 56.0475C173.789 56.5495 174.98 53.6379 174.503 53.5477Z" fill="#D2B783"/>
<path d="M176.645 53.236C176.886 52.99 179.209 53.4418 179.043 54.6144C178.947 55.2942 176.304 53.5839 176.645 53.236Z" fill="#D2B783"/>
<path d="M175.509 55.8338C175.552 55.4797 175.899 54.8631 176.175 54.8722C176.462 54.8817 177.26 55.6284 176.976 55.882C176.691 56.1356 176.228 55.6289 176.228 55.6289C176.228 55.6289 176.184 56.2563 175.861 56.2458C175.552 56.2356 175.482 56.0634 175.509 55.8338Z" fill="#D2B783"/>
<path d="M181.182 55.8627C180.588 57.5895 179.483 57.4001 179.05 56.9829C179.021 56.9549 178.994 56.9188 178.967 56.8776C179.282 56.8646 179.753 56.6584 180.086 56.297C180.512 55.8375 180.38 54.4834 180.096 53.8718C179.811 53.2588 178.268 51.2995 175.528 51.8953C172.79 52.4911 171.861 54.6252 171.955 56.1679C172.048 57.709 172.965 58.0918 173.573 57.9572C173.992 57.8645 174.205 57.5878 174.298 57.4226C174.317 57.7442 174.318 58.0676 174.15 58.3262C173.715 58.9911 171.692 58.8867 171.155 56.4081C170.55 53.6133 173.202 51.7763 174.506 51.4062C179.777 49.9066 181.775 54.1359 181.182 55.8627Z" fill="#D2B783"/>
<path d="M179.287 60.5552C179.025 61.3944 177.686 61.5794 176.465 61.0157C176.268 60.926 176.112 60.7286 175.985 60.4649C176.422 60.6533 177.173 60.8097 178.13 60.3572C178.617 60.126 178.962 59.9501 179.207 59.8164C179.298 60.1355 179.336 60.3952 179.287 60.5552Z" fill="#D2B783"/>
<path d="M174.734 56.1651C174.669 55.9909 174.633 55.8125 174.626 55.6353C174.593 54.9048 175.029 54.2034 175.755 53.9301C176.655 53.5908 177.658 54.0426 177.994 54.9372C178.045 55.0736 178.078 55.2123 178.094 55.3503C178.182 56.1226 177.738 56.8866 176.974 57.1742C176.074 57.5133 175.072 57.0616 174.734 56.1651Z" fill="#4D6E1E"/>
<path d="M174.624 55.636C174.587 54.8426 175.106 54.0829 175.946 53.8695C176.701 53.678 177.514 54.0262 177.886 54.7064C177.921 54.7708 177.952 54.8358 177.978 54.9015C178.126 55.2713 177.895 55.7125 177.496 55.7477C177.466 55.7504 177.435 55.7509 177.404 55.7491C177.059 55.7301 176.797 55.4476 176.556 55.2029C176.312 54.9591 175.993 54.7125 175.655 54.787C175.213 54.8863 175.036 55.4641 174.624 55.636Z" fill="#3C550F"/>
<path d="M176.18 56.6604C176.476 56.5489 176.682 56.2057 176.562 55.8949C176.447 55.599 176.112 55.3979 175.795 55.5173C175.499 55.6288 175.293 55.9721 175.414 56.2828C175.529 56.5788 175.863 56.7799 176.18 56.6604Z" fill="#678816"/>
<path d="M232.44 42.4595C232.44 42.4595 231.174 37.9955 235.723 34.2117C235.732 34.2053 235.742 34.1962 235.75 34.1899C239.624 31.0084 249.439 31.1977 250.204 40.9323C244.846 39.7527 239.441 40.5684 236.025 41.393C233.819 41.9255 232.44 42.4595 232.44 42.4595Z" fill="#DB0000"/>
<path d="M232.437 42.4466C232.437 42.4466 231.172 37.9856 235.717 34.2044C235.726 34.1981 235.736 34.189 235.744 34.1827C234.993 37.012 235.499 39.7193 236.019 41.3808C233.815 41.9129 232.437 42.4466 232.437 42.4466Z" fill="#C50007"/>
<path d="M232.44 42.4592C232.44 42.4592 233.443 35.1443 241.015 34.6868C248.142 34.2565 250.204 40.9317 250.204 40.9317L249.325 41.0076L233.273 42.3878L232.44 42.4592Z" fill="#FF4840"/>
<path d="M233.275 42.3878C233.432 40.1432 235.534 35.656 241.36 35.2578C246.842 34.8801 248.888 39.7374 249.327 41.0077L233.275 42.3878Z" fill="#E33F39"/>
<path d="M234.352 41.7563C234.006 40.9328 236.127 35.9585 240.988 35.7259C245.85 35.4933 248.56 40.0421 248.34 40.4404C248.246 40.6092 245.662 40.8801 242.737 41.1316C241.422 41.2464 240.038 41.355 238.782 41.4514C236.483 41.6236 234.608 41.7474 234.352 41.7563Z" fill="#FF7B7B"/>
<path d="M242.604 40.3273C242.604 40.3273 244.087 39.7247 243.883 39.4826C243.457 38.976 242.604 40.3273 242.604 40.3273Z" fill="#FAF7BE"/>
<path d="M241.633 39.6921C241.633 39.6921 242.716 38.6398 242.417 38.4858C241.792 38.1635 241.633 39.6921 241.633 39.6921Z" fill="#FAF7BE"/>
<path d="M238.682 40.6553C238.682 40.6553 237.207 40.0334 237.414 39.7933C237.849 39.2913 238.682 40.6553 238.682 40.6553Z" fill="#FAF7BE"/>
<path d="M239.66 40.0371C239.66 40.0371 238.592 38.9702 238.893 38.8195C239.524 38.5044 239.66 40.0371 239.66 40.0371Z" fill="#FAF7BE"/>
<path d="M240.578 39.6172C240.578 39.6172 240.119 38.2712 240.467 38.2399C241.193 38.1744 240.578 39.6172 240.578 39.6172Z" fill="#FAF7BE"/>
<path d="M238.786 41.45C239.069 41.2174 239.375 40.8398 239.494 40.4361C240.029 40.3632 240.191 40.0718 240.245 40.1148C240.298 40.1602 240.566 40.2896 241.055 40.0194C241.143 40.1443 241.424 40.4818 242.127 40.2966C242.151 40.7453 242.454 40.995 242.741 41.1306C241.425 41.2454 240.041 41.3536 238.786 41.45Z" fill="#FAF7BE"/>
<path d="M245.349 43.9403C245.403 43.6179 246.263 43.268 247.207 43.3382C247.257 43.3844 247.426 43.7534 247.618 44.2067C247.743 44.5056 247.905 44.7941 248.099 45.0615C248.589 45.7491 249.28 46.3076 250.073 46.5566C250.745 46.767 250.825 46.8322 250.882 46.8364L250.609 47.6464C250.609 47.6464 248.315 49.2808 245.771 49.5662C245.598 49.0534 245.717 48.5105 245.932 48.0319C246.075 47.7122 246.17 47.3777 246.213 47.0379C246.324 46.2121 246.15 45.3578 245.728 44.6179C245.605 44.4019 245.478 44.1752 245.349 43.9403Z" fill="#E2E796"/>
<path d="M245.936 48.0325C246.08 47.7129 246.174 47.3785 246.217 47.0387L246.397 47.0576C246.397 47.0576 246.378 46.7297 246.614 46.083C246.948 45.2888 247.637 45.1019 248.103 45.0627C248.593 45.7502 249.284 46.3086 250.076 46.5576C250.748 46.7679 250.828 46.833 250.885 46.8372L250.613 47.6472C250.613 47.6472 248.319 49.2812 245.776 49.5665C245.603 49.0538 245.721 48.511 245.936 48.0325Z" fill="#CCD64C"/>
<path d="M243.496 51.9554C243.853 52.4684 244.501 52.6802 245.111 52.8224C244.686 54.5398 246.965 54.1256 247.297 53.7557C246.825 54.7734 248.888 56.4539 249.933 54.1937C250.175 54.9289 250.959 54.9772 251.372 54.9059C251.785 54.8346 252.017 54.6237 252.208 54.2508C252.398 53.8779 252.275 53.2684 252.109 52.8834C252.55 52.9812 253.253 53.0878 253.589 52.7892C253.925 52.4905 254.158 52.0565 254.14 51.609C254.122 51.1614 253.268 50.4271 252.832 50.3192C253.392 50.257 253.693 49.4492 253.638 49.0299C253.583 48.6155 252.916 47.6602 251.845 47.7089C252.014 47.1794 251.963 46.6617 251.696 46.3602C251.429 46.0587 251.053 45.9449 250.65 45.9826C250.247 46.0203 249.906 46.3423 249.564 46.5593C249.219 45.9129 248.333 45.511 247.663 45.8157C246.993 46.1202 246.637 46.9788 246.897 47.664C246.257 47.321 245.366 47.419 244.932 48.003C244.498 48.5871 244.565 49.4843 245.081 49.9938C244.536 49.6775 244.05 49.7468 243.62 50.2103C243.19 50.6739 243.136 51.4388 243.496 51.9554Z" fill="#7BA914"/>
<path d="M251.975 50.1975C252.368 50.0239 252.686 49.6685 252.77 49.2487C252.853 48.829 252.677 48.3586 252.314 48.1328C251.951 47.907 251.419 47.9734 251.15 48.3076C251.365 48.0842 251.334 47.6802 251.167 47.4208C251 47.1613 250.691 47.0147 250.382 46.9926C250.002 46.9653 249.613 47.1161 249.35 47.3918C249.202 46.933 248.623 46.628 248.157 46.7622C247.692 46.8963 247.383 47.4305 247.5 47.8983C247.222 47.9763 247.017 48.1745 246.869 48.4225C246.583 48.1897 246.027 48.2114 245.716 48.41C245.404 48.6087 245.23 48.9934 245.262 49.3602C245.295 49.727 245.521 50.0652 245.836 50.2574C245.522 50.1959 245.131 50.3255 244.834 50.445C244.536 50.5645 244.283 50.8245 244.234 51.14C244.177 51.4979 244.393 51.8594 244.699 52.0538C245.019 52.2574 245.375 52.2755 245.741 52.2888C245.715 52.4057 245.707 52.5616 245.701 52.6827C245.693 52.8462 245.74 53.0127 245.838 53.1443C245.989 53.3475 246.242 53.4573 246.495 53.484C246.693 53.505 246.893 53.4793 247.088 53.4394C247.172 53.4222 247.238 53.4006 247.313 53.362C247.361 53.3378 247.537 53.2738 247.555 53.2219C247.419 53.6131 247.835 54.2256 248.181 54.452C248.527 54.6785 249.026 54.6382 249.333 54.359C249.636 54.0832 249.726 53.6455 249.739 53.2376C249.757 53.5279 250.073 53.8477 250.331 53.9818C250.59 54.1159 250.918 54.1042 251.168 53.9529C251.431 53.7933 251.593 53.4942 251.623 53.1892C251.654 52.884 251.563 52.5755 251.41 52.3103C251.799 52.4622 252.206 52.5204 252.615 52.4295C253.023 52.3385 253.401 52.0043 253.425 51.5881C253.445 51.252 253.235 50.9349 252.958 50.7436C252.681 50.5523 252.306 50.2631 251.975 50.1975Z" fill="#568022"/>
<path d="M246.938 52.3332C247.083 52.6205 247.4 52.7489 247.704 52.6347C247.813 52.5935 247.896 52.5157 247.951 52.4222C248.005 52.3689 248.048 52.307 248.083 52.232C248.085 52.2267 248.088 52.2216 248.09 52.2163C248.17 52.0436 248.11 51.8158 247.992 51.6778C247.789 51.4404 247.429 51.3787 247.164 51.5515C246.912 51.7162 246.797 52.0564 246.938 52.3332Z" fill="#7BA914"/>
<path d="M246.353 52.8051C246.468 52.8137 246.563 52.6932 246.561 52.5868C246.558 52.4622 246.458 52.3884 246.343 52.3799C246.228 52.3713 246.132 52.4918 246.134 52.5982C246.137 52.7228 246.237 52.7966 246.353 52.8051Z" fill="#7BA914"/>
<path d="M247.211 45.0553C247.411 45.0419 246.768 43.517 246.575 43.6826C246.381 43.8481 246.894 45.0767 247.211 45.0553Z" fill="#CCD64C"/>
<path d="M183.209 62.5082C183.209 62.5082 181.126 63.2266 178.897 61.9296C176.407 60.4807 174.678 58.4278 173.88 57.527C173.083 56.6261 168.772 50.7993 170.316 48.2019C168.583 49.9298 167.981 52.6323 173.75 59.0456C179.519 65.4589 182.22 63.7137 183.209 62.5082Z" fill="#A54992"/>
<path d="M183.207 63.4347C183.207 63.4347 184.293 62.1772 184.549 61.5198C184.806 60.8624 184.858 57.014 180.187 52.0359C175.516 47.0578 171.858 46.5971 170.624 46.9792C169.172 48.0628 168.848 48.4663 168.848 48.4663C168.848 48.4663 171.355 47.4382 174.385 49.0354C177.335 50.5906 185.052 57.2869 183.207 63.4347Z" fill="#A54992"/>
<path d="M183.209 63.4295C186.914 58.9894 174.729 45.1217 169.556 47.8474C164.068 50.7403 178.837 68.6689 183.209 63.4295ZM170.24 48.7182C174.442 46.6525 185.33 59.0325 182.442 62.6269C179.034 66.8685 165.784 50.9096 170.24 48.7182Z" fill="#E8DCF2"/>
<path d="M187.192 76.0892C187.504 76.3592 187.625 76.4091 187.625 76.4091C187.625 76.4091 186.816 76.4506 187.092 76.7473C187.369 77.0441 187.909 76.8672 187.909 76.8672C187.909 76.8672 187.656 77.0544 187.987 77.199C188.319 77.3437 190.09 76.0337 190.261 76.6034C190.432 77.173 187.09 77.6122 187.307 78.0925C187.505 78.5312 187.979 78.3694 188.06 78.338C187.918 78.3945 186.607 78.936 187.217 79.3285C187.861 79.7431 189.115 78.4537 189.121 78.8388C189.127 79.2242 187.165 80.7304 187.613 80.9563C188.061 81.1822 188.6 80.5885 188.6 80.5885C188.6 80.5885 188.469 81.8825 188.725 81.8881C188.981 81.8937 189.272 81.4558 189.272 81.4558C189.272 81.4558 189.157 81.7915 189.445 81.8016C189.732 81.8117 189.455 79.8167 189.869 80.2618C190.284 80.7069 190.152 81.5846 190.403 81.6215C190.654 81.6583 190.818 80.7854 190.818 80.7854L191.193 81.0647C191.193 81.0647 190.806 78.7335 191.179 78.8201C191.551 78.9067 191.071 80.5981 191.916 80.5299C192.762 80.4616 191.867 78.7289 192.369 78.8026C192.872 78.8763 193.346 79.7785 193.417 79.3084C193.488 78.8384 192.917 78.37 192.917 78.37C192.917 78.37 193.507 78.7129 193.581 78.4354C193.655 78.1579 192.675 78.2708 192.938 76.7396C193.1 75.799 193.311 75.1691 193.45 74.8223C193.557 75.5725 193.709 76.2972 193.883 76.9746C193.891 77.6361 193.897 78.888 193.824 79.4078C193.723 80.1304 191.812 82.0867 192.032 82.4569C192.252 82.8272 193.196 81.9594 193.302 82.1918C193.407 82.4242 192.349 83.4727 192.489 83.6766C192.629 83.8805 193.209 83.4882 193.209 83.4882C193.209 83.4882 192.938 84.3222 193.46 84.5294C193.983 84.7368 193.918 83.7443 193.918 83.7443C193.918 83.7443 194.049 84.043 194.429 84.0778C194.808 84.1126 194.456 83.1256 194.456 83.1256C194.456 83.1256 194.737 83.5334 194.916 83.327C195.095 83.1207 195.063 81.4629 195.442 81.4978C195.822 81.5326 194.608 84.5398 194.82 84.6547C195.033 84.7696 195.057 84.5172 195.057 84.5172C195.057 84.5172 195.192 85.1025 195.651 85.3039C196.11 85.5052 195.863 83.7638 196.205 83.8589C196.547 83.954 196.212 85.4508 196.553 85.5459C196.895 85.6409 196.453 84.9321 196.769 84.9611C197.085 84.9903 197.415 85.8798 197.686 85.7137C197.957 85.5477 197.501 84.6466 197.501 84.6466C197.501 84.6466 198.008 85.0114 198.314 84.8169C198.62 84.6222 197.247 83.6367 197.493 83.4048C197.738 83.1729 198.685 84.2783 198.937 83.9832C199.188 83.688 198.676 83.7046 198.599 83.5065C198.523 83.3084 198.89 83.4696 198.883 83.2143C198.875 82.959 196.366 81.5189 196.509 81.0228C196.652 80.5268 197.871 82.4528 198.326 82.3674C198.781 82.282 197.998 81.7963 198.137 81.6819C198.275 81.5674 199.922 82.3552 200.028 81.9194C200.133 81.4836 199.54 81.6834 199.378 81.3821C199.215 81.0808 200.057 81.2857 200.093 80.9071C200.13 80.5285 198.83 81.1092 198.553 80.6699C198.276 80.2307 199.782 80.4965 199.806 80.244C199.83 79.9917 198.833 79.7411 198.833 79.7411C198.833 79.7411 199.288 79.6554 199.135 79.2595C198.981 78.8636 198.038 79.3815 196.287 78.6795C194.536 77.9775 194.476 76.6038 194.476 76.6038L194.453 76.6015C194.231 75.6979 194.051 74.717 193.972 73.7178C194.4 74.0667 195.064 74.4759 195.902 75.1877C197.268 76.3491 196.76 77.588 197.146 77.5807C197.533 77.5731 197.13 76.2011 197.511 77.5061C197.891 78.8114 198.406 77.9576 198.257 77.4553C198.158 77.1214 198.888 78.3805 199.221 78.3013C199.554 78.222 198.64 77.2552 198.967 76.7907C199.294 76.3261 199.621 78.8404 199.832 78.9353C200.042 79.0303 199.995 78.7031 199.995 78.7031C199.995 78.7031 200.543 79.3283 200.925 79.3521C201.307 79.3759 200.38 78.2789 200.544 78.0466C200.707 77.8144 201.395 79.0045 201.615 79.0367C201.835 79.069 201.395 78.3638 201.395 78.3638C201.395 78.3638 201.97 79.0245 202.358 78.7931C202.746 78.5617 201.504 77.6428 201.704 77.3838C201.903 77.1249 202.348 77.7986 202.706 77.3386C203.064 76.8787 200.417 76.3306 200.174 75.8143C199.931 75.298 202.169 76.4269 202.354 76.262C202.54 76.0971 202.174 75.755 202.174 75.755C202.174 75.755 202.851 75.9502 203.007 75.5568C203.163 75.1631 202.187 75.2443 202.187 75.2443C202.187 75.2443 202.641 75.215 202.746 74.9421C202.852 74.6693 201.398 74.9366 201.378 74.6454C201.358 74.3542 202.349 74.5954 202.203 74.2856C202.057 73.9758 201.21 74.2683 201.21 74.2683C201.21 74.2683 201.583 73.7141 201.165 73.717C200.747 73.7199 198.929 74.7027 198.662 74.3432C198.395 73.9838 200.476 73.3918 200.419 73.1273C200.363 72.8628 199.403 73.2664 199.588 73.1015C199.774 72.9366 200.862 72.7438 200.731 72.3399C200.599 71.9361 200.176 71.9703 200.176 71.9703C200.176 71.9703 200.687 71.5645 200.437 71.3039C200.188 71.0432 199.49 71.8379 199.545 71.6857C199.6 71.5335 199.645 71.444 199.418 71.2504C199.19 71.0568 197.848 72.7182 197.571 72.4214C197.295 72.1246 198.52 71.6636 198.261 71.4654C198.003 71.2671 197.297 71.9006 197.096 71.743C196.895 71.5854 197.935 71.2894 197.963 71.1013C197.992 70.9131 197.44 70.7364 197.014 71.2183C196.588 71.7006 195.602 73.1257 194.365 72.8163C194.183 72.7706 194.04 72.7145 193.927 72.6524C193.927 72.1963 193.95 71.7408 194.006 71.2921C194.566 66.7496 196.013 63.7794 196.028 63.7499L195.458 63.4713C195.397 63.5951 193.95 66.5598 193.375 71.2168C193.303 71.8004 193.28 72.3916 193.293 72.9792C193.041 73.4851 192.503 74.1542 191.463 73.9605C189.838 73.6582 188.536 73.5634 188.864 74.1561C189.192 74.7487 190.734 75.167 189.493 75.3055C188.252 75.4439 187.583 74.7692 187.49 75.1719C187.397 75.5749 188.103 75.5821 187.935 75.8458C187.766 76.1094 186.879 75.8193 187.192 76.0892Z" fill="#009034"/>
<path d="M158.898 66.0797C161.554 61.4894 167.432 59.9022 172.026 62.5346C176.621 65.1669 178.192 71.0221 175.536 75.6124C172.88 80.2026 167.002 81.7899 162.407 79.1575C157.813 76.5251 156.241 70.67 158.898 66.0797Z" fill="#568022"/>
<path d="M159.845 66.622C162.199 62.5542 167.408 61.1476 171.48 63.4804C175.552 65.8132 176.944 71.0021 174.59 75.0699C172.236 79.1378 167.027 80.5444 162.956 78.2116C158.884 75.8788 157.491 70.6899 159.845 66.622Z" fill="#A9C22C"/>
<path d="M175.101 69.8446C175.364 72.3578 174.104 76.2106 169.884 78.1296C169.295 76.1934 167.53 70.8241 167.53 70.8241L175.101 69.8446Z" fill="#E2E796"/>
<path d="M173.849 71.7948C173.691 72.5588 168.834 71.3061 168.113 71.1266C168.478 71.1127 173.967 71.2198 173.849 71.7948Z" fill="#CCD64C"/>
<path d="M173.879 70.5314C173.785 71.3051 168.574 71.0355 167.961 70.9459C168.617 70.7529 173.934 70.0812 173.879 70.5314Z" fill="#CCD64C"/>
<path d="M171.604 76.0155C172.199 75.5004 168.434 71.6652 167.992 71.237C168.55 72.1029 171.156 76.4031 171.604 76.0155Z" fill="#CCD64C"/>
<path d="M170.13 76.7077C170.831 76.3496 168.169 71.8397 167.843 71.3183C167.774 71.4787 169.603 76.9774 170.13 76.7077Z" fill="#CCD64C"/>
<path d="M173.736 73.0864C173.379 73.6497 169.243 71.7989 167.952 71.1594C169.919 71.4592 173.94 72.7635 173.736 73.0864Z" fill="#CCD64C"/>
<path d="M173.089 74.4988C173.268 73.8652 169.64 72.0285 167.962 71.111C169.415 72.4185 172.886 75.213 173.089 74.4988Z" fill="#CCD64C"/>
<path d="M165.318 63.2722C162.874 63.9556 159.759 66.2924 159.523 70.906C161.559 70.9504 167.167 70.5773 167.167 70.5773C167.167 70.5773 165.838 64.8175 165.318 63.2722Z" fill="#E2E796"/>
<path d="M164.064 65.0932C163.409 65.5208 166.368 69.5528 166.801 70.1543C166.679 69.8116 164.557 64.7715 164.064 65.0932Z" fill="#CCD64C"/>
<path d="M165.233 64.6182C164.523 64.9443 166.499 69.3699 166.809 69.9043C166.747 69.226 165.646 64.429 165.233 64.6182Z" fill="#CCD64C"/>
<path d="M160.692 68.7258C160.954 67.9849 165.923 70.0568 166.485 70.3084C165.471 70.1107 160.495 69.2833 160.692 68.7258Z" fill="#CCD64C"/>
<path d="M160.659 70.2765C160.735 69.4959 165.928 70.2969 166.535 70.4065C166.411 70.5296 160.601 70.864 160.659 70.2765Z" fill="#CCD64C"/>
<path d="M162.773 65.6405C162.379 66.1779 165.631 69.3237 166.703 70.2832C165.698 68.573 162.999 65.3322 162.773 65.6405Z" fill="#CCD64C"/>
<path d="M161.528 66.7708C162.054 66.3709 165.104 69.0538 166.579 70.2699C164.823 69.4066 160.936 67.2214 161.528 66.7708Z" fill="#CCD64C"/>
<path d="M159.455 71.7682C160.26 76.4296 164.021 79.6903 169.262 78.2836C168.527 75.1465 167.266 70.8612 167.266 70.8612C167.266 70.8612 162.351 71.4119 159.455 71.7682Z" fill="#E2E796"/>
<path d="M161.476 75.1838C161.989 75.7798 166.27 71.755 166.723 71.2601C165.978 71.7981 161.089 74.7354 161.476 75.1838Z" fill="#CCD64C"/>
<path d="M166.308 78.036C165.525 77.918 166.904 72.2969 167.089 71.6544C167.199 71.793 166.897 78.1248 166.308 78.036Z" fill="#CCD64C"/>
<path d="M162.716 76.4613C163.339 76.6934 166.147 72.5438 166.986 71.2191C165.348 72.8661 162.014 76.1995 162.716 76.4613Z" fill="#CCD64C"/>
<path d="M164.188 77.4742C163.719 77.0089 166.172 72.9748 167.025 71.4512C166.369 73.4696 164.717 77.9987 164.188 77.4742Z" fill="#CCD64C"/>
<path d="M161.234 73.9232C161.716 73.8267 166.617 71.1296 166.617 71.1296C166.617 71.1296 161.619 72.8843 161.041 73.3521C160.681 73.6434 160.955 73.9787 161.234 73.9232Z" fill="#CCD64C"/>
<path d="M167.746 77.6531C167.474 77.2454 167.151 71.5105 167.151 71.5105C167.151 71.5105 168.214 76.6482 168.289 77.3851C168.336 77.8443 167.903 77.888 167.746 77.6531Z" fill="#CCD64C"/>
<path d="M160.845 72.6471C161.337 72.6373 166.091 71.1595 166.091 71.1595C166.091 71.1595 161.149 71.7249 160.542 72.0834C160.142 72.3192 160.534 72.6532 160.845 72.6471Z" fill="#CCD64C"/>
<path d="M165.916 63.3504C170.034 62.4629 174.325 65.2295 174.876 69.1949C173.347 69.4928 167.487 70.491 167.487 70.491C167.487 70.491 166.584 65.8406 165.916 63.3504Z" fill="#E2E796"/>
<path d="M169.407 63.8708C170.07 64.0937 168.083 69.1503 167.824 69.6855C168.021 68.8971 168.908 63.7029 169.407 63.8708Z" fill="#CCD64C"/>
<path d="M173.371 66.8825C173.014 66.281 168.634 69.5001 168.165 69.8654C168.315 69.9093 173.64 67.3353 173.371 66.8825Z" fill="#CCD64C"/>
<path d="M170.873 64.4644C171.271 64.8977 168.778 68.5754 167.963 69.7021C168.779 67.8134 170.424 63.976 170.873 64.4644Z" fill="#CCD64C"/>
<path d="M172.198 65.3319C171.658 65.102 169.14 68.4522 168.165 69.6572C169.614 68.449 172.807 65.5909 172.198 65.3319Z" fill="#CCD64C"/>
<path d="M168.285 64.0924C168.365 64.5195 167.672 69.8945 167.672 69.8945C167.672 69.8945 167.555 64.7529 167.749 64.1244C167.87 63.7328 168.238 63.846 168.285 64.0924Z" fill="#CCD64C"/>
<path d="M173.531 68.1878C173.103 68.1003 168.008 70.1658 168.008 70.1658C168.008 70.1658 172.856 68.9045 173.49 68.7213C173.884 68.6071 173.777 68.2382 173.531 68.1878Z" fill="#CCD64C"/>
<path d="M167.105 64.1973C167.26 64.6034 167.539 69.6152 167.539 69.6152C167.539 69.6152 166.444 64.752 166.539 64.136C166.601 63.7308 167.007 63.9405 167.105 64.1973Z" fill="#CCD64C"/>
<path d="M165.674 70.7834C165.665 70.9241 165.673 71.0656 165.702 71.2042C165.836 71.8595 166.398 72.4049 167.058 72.5206C168.8 72.8257 169.775 70.4942 168.328 69.4832C167.78 69.0997 166.994 69.0891 166.432 69.4571C165.989 69.7475 165.708 70.259 165.674 70.7834Z" fill="#CCD64C"/>
<path d="M179.099 78.3754C179.099 78.3754 177.016 79.0938 174.787 77.7968C172.297 76.3479 170.569 74.295 169.771 73.3942C168.973 72.4933 164.662 66.6665 166.206 64.069C164.473 65.7968 163.872 68.4995 169.641 74.9128C175.41 81.3261 178.111 79.5809 179.099 78.3754Z" fill="#A54992"/>
<path d="M179.097 79.3019C179.097 79.3019 180.183 78.0444 180.44 77.387C180.696 76.7296 180.749 72.8812 176.078 67.9031C171.407 62.925 167.749 62.4643 166.514 62.8464C165.062 63.93 164.738 64.3335 164.738 64.3335C164.738 64.3335 167.245 63.3054 170.275 64.9026C173.226 66.4578 180.943 73.1541 179.097 79.3019Z" fill="#A54992"/>
<path d="M179.099 79.2967C182.804 74.8566 170.62 60.9888 165.446 63.7146C159.959 66.6076 174.728 84.5361 179.099 79.2967ZM166.131 64.5854C170.333 62.5197 181.22 74.8997 178.333 78.4941C174.924 82.7356 161.675 66.7768 166.131 64.5854Z" fill="#E8DCF2"/>
<path d="M202.016 68.159C201.894 68.2332 201.734 68.1942 201.66 68.0727L201.032 67.0417C200.958 66.9202 200.998 66.7601 201.12 66.686C201.242 66.6118 201.403 66.6508 201.476 66.7722L202.104 67.8032C202.178 67.9246 202.138 68.0849 202.016 68.159Z" fill="black"/>
<path d="M201.69 67.4984C203.074 66.6585 205.082 67.4351 206.176 69.2328C207.27 71.0305 207.035 73.1695 205.651 74.0094C204.267 74.8493 202.258 74.0727 201.165 72.275C200.071 70.4772 200.306 68.3383 201.69 67.4984Z" fill="#4A4A6A"/>
<g opacity="0.6">
<path d="M205.893 72.7633C206.098 73.0449 205.978 73.4809 205.624 73.7381C205.27 73.9952 204.817 73.9755 204.612 73.6939C204.407 73.4123 204.528 72.976 204.881 72.7189C205.235 72.4618 205.688 72.4817 205.893 72.7633Z" fill="black"/>
</g>
<g opacity="0.15">
<path d="M205.169 74.2269C205.336 74.1728 205.498 74.1028 205.651 74.0099C207.035 73.1699 207.27 71.0307 206.176 69.2327C205.082 67.4346 203.073 66.6584 201.689 67.4983C201.627 67.5357 201.57 67.5787 201.513 67.6212C202.371 67.7228 203.714 68.0236 204.913 69.6568C206.443 71.7402 205.717 73.4483 205.169 74.2269Z" fill="black"/>
</g>
<g opacity="0.2">
<path d="M201.708 70.9846C201.984 70.7634 202.576 71.0418 203.031 71.6063C203.485 72.1709 203.63 72.8075 203.355 73.0287C203.079 73.25 202.487 72.9715 202.032 72.407C201.577 71.8424 201.433 71.2058 201.708 70.9846Z" fill="#F4F6DF"/>
</g>
<path d="M157.833 86.9579C157.888 86.6355 158.748 86.2857 159.691 86.3559C159.741 86.4021 159.91 86.771 160.102 87.2242C160.227 87.5232 160.39 87.8117 160.583 88.0791C161.074 88.7668 161.764 89.3252 162.557 89.5742C163.229 89.7846 163.309 89.8498 163.366 89.854L163.094 90.664C163.094 90.664 160.8 92.2984 158.256 92.5838C158.083 92.0709 158.201 91.5281 158.416 91.0495C158.56 90.7298 158.654 90.3953 158.697 90.0554C158.808 89.2297 158.634 88.3754 158.213 87.6354C158.089 87.4195 157.963 87.1927 157.833 86.9579Z" fill="#E2E796"/>
<path d="M158.421 91.0501C158.564 90.7305 158.658 90.3961 158.702 90.0563L158.881 90.0752C158.881 90.0752 158.863 89.7473 159.098 89.1006C159.432 88.3064 160.122 88.1196 160.587 88.0803C161.078 88.7679 161.768 89.3262 162.561 89.5752C163.232 89.7855 163.312 89.8505 163.369 89.8547L163.097 90.6647C163.097 90.6647 160.804 92.2988 158.26 92.5841C158.087 92.0714 158.206 91.5286 158.421 91.0501Z" fill="#CCD64C"/>
<path d="M155.98 94.973C156.337 95.486 156.986 95.6978 157.596 95.84C157.17 97.5573 159.45 97.1433 159.781 96.7733C159.309 97.7909 161.372 99.4715 162.418 97.2113C162.659 97.9464 163.443 97.9948 163.856 97.9235C164.27 97.8522 164.502 97.6412 164.692 97.2683C164.883 96.8954 164.759 96.286 164.593 95.9009C165.034 95.9988 165.737 96.1054 166.073 95.8067C166.409 95.5081 166.642 95.0741 166.624 94.6265C166.607 94.179 165.752 93.4447 165.316 93.3367C165.876 93.2746 166.178 92.4668 166.122 92.0475C166.067 91.6331 165.4 90.6778 164.329 90.7265C164.498 90.197 164.447 89.6793 164.18 89.3778C163.914 89.0763 163.537 88.9625 163.134 89.0002C162.732 89.0379 162.39 89.3599 162.049 89.5769C161.704 88.9305 160.818 88.5286 160.148 88.8333C159.478 89.1377 159.122 89.9964 159.382 90.6815C158.741 90.3386 157.85 90.4366 157.416 91.0206C156.982 91.6046 157.049 92.5019 157.566 93.0114C157.021 92.6951 156.534 92.7642 156.104 93.2278C155.675 93.6914 155.62 94.4564 155.98 94.973Z" fill="#7BA914"/>
<path d="M164.46 93.2151C164.852 93.0416 165.17 92.686 165.254 92.2663C165.338 91.8466 165.162 91.3762 164.798 91.1504C164.435 90.9246 163.903 90.991 163.635 91.3252C163.85 91.1018 163.819 90.6978 163.652 90.4383C163.485 90.1789 163.175 90.0322 162.866 90.0101C162.487 89.9831 162.097 90.1337 161.835 90.4094C161.686 89.9506 161.107 89.6456 160.642 89.7798C160.176 89.9139 159.867 90.4481 159.985 90.9158C159.706 90.9939 159.501 91.192 159.353 91.4401C159.068 91.2073 158.512 91.2289 158.2 91.4276C157.888 91.6262 157.714 92.011 157.746 92.3778C157.779 92.7446 158.006 93.0828 158.32 93.275C158.006 93.2135 157.616 93.3431 157.318 93.4626C157.021 93.582 156.768 93.8421 156.718 94.1576C156.661 94.5155 156.878 94.877 157.183 95.0714C157.503 95.2749 157.859 95.293 158.226 95.3064C158.2 95.4232 158.191 95.5792 158.185 95.7003C158.178 95.8638 158.225 96.0303 158.323 96.1619C158.474 96.3651 158.727 96.4749 158.979 96.5016C159.178 96.5225 159.378 96.4968 159.572 96.457C159.656 96.4398 159.723 96.4184 159.798 96.3797C159.846 96.3555 160.022 96.2913 160.04 96.2395C159.904 96.6306 160.319 97.2431 160.665 97.4696C161.011 97.696 161.51 97.6558 161.817 97.3765C162.12 97.1008 162.211 96.6631 162.223 96.2552C162.242 96.5455 162.557 96.8653 162.816 96.9994C163.074 97.1335 163.403 97.1218 163.652 96.9704C163.916 96.811 164.077 96.5119 164.108 96.2068C164.138 95.9017 164.048 95.5931 163.895 95.3279C164.284 95.4798 164.691 95.538 165.099 95.447C165.508 95.3561 165.885 95.0219 165.91 94.6056C165.93 94.2696 165.719 93.9525 165.442 93.7612C165.165 93.5699 164.79 93.2805 164.46 93.2151Z" fill="#568022"/>
<path d="M159.422 95.3507C159.568 95.6381 159.884 95.7665 160.188 95.6523C160.298 95.6111 160.381 95.5333 160.436 95.4398C160.489 95.3864 160.533 95.3246 160.567 95.2496C160.57 95.2443 160.572 95.2394 160.575 95.234C160.654 95.0613 160.594 94.8333 160.476 94.6954C160.273 94.458 159.913 94.3962 159.648 94.5691C159.396 94.7336 159.281 95.074 159.422 95.3507Z" fill="#7BA914"/>
<path d="M158.837 95.8227C158.952 95.8313 159.048 95.7108 159.045 95.6044C159.042 95.4798 158.942 95.406 158.827 95.3975C158.712 95.3889 158.616 95.5094 158.619 95.6158C158.622 95.7404 158.722 95.8142 158.837 95.8227Z" fill="#7BA914"/>
<path d="M159.695 88.0728C159.896 88.0594 159.252 86.5346 159.059 86.7001C158.866 86.8656 159.378 88.0943 159.695 88.0728Z" fill="#CCD64C"/>
<path d="M193.31 83.3349C193.914 82.5559 193.616 81.4098 192.705 81.0379C192.372 80.9018 191.972 80.8139 191.502 80.8264C189.719 80.8736 190.08 81.3987 188.937 81.3839C187.795 81.3691 186.219 80.9392 185.155 81.8083C184.09 82.6773 185.609 84.8796 187.303 85.2349C188.997 85.5902 191.46 85.4984 193.014 83.6964C193.122 83.5716 193.22 83.4504 193.31 83.3349Z" fill="#998565"/>
<path d="M184.49 82.6685C185.358 81.0618 186.417 81.4293 186.777 81.9113C186.8 81.9443 186.82 81.9829 186.841 82.0293C187.105 82.6544 186.943 84.3713 187.596 83.6888C188.163 83.0983 187.258 80.4845 187.099 79.0912C187.061 78.7612 187.067 78.4991 187.141 78.3492C187.536 77.5635 188.887 77.5993 189.999 78.3545C190.178 78.4749 190.299 78.6951 190.381 78.9763C190.818 80.456 190.179 83.663 190.972 83.415C191.471 83.2611 191.479 82.7541 191.533 82.2516C191.568 81.9316 191.619 81.6107 191.826 81.3832C192.364 80.797 194.343 81.2314 194.467 83.7641C194.603 86.6217 191.689 88.0035 190.341 88.1552C184.898 88.7781 183.621 84.2769 184.49 82.6685Z" fill="#F8F3CC"/>
<path d="M190.698 86.0424C191.02 86.1605 192.921 84.7525 192.271 83.7671C191.894 83.1958 190.242 85.8757 190.698 86.0424Z" fill="#D2B783"/>
<path d="M188.533 86C188.256 86.2036 186.04 85.3789 186.395 84.2486C186.601 83.5936 188.927 85.7123 188.533 86Z" fill="#D2B783"/>
<path d="M190.081 83.622C189.981 83.9646 189.538 84.5168 189.266 84.4627C188.986 84.4068 188.321 83.5396 188.643 83.3356C188.965 83.1315 189.339 83.7073 189.339 83.7073C189.339 83.7073 189.484 83.0949 189.801 83.158C190.105 83.2184 190.146 83.3999 190.081 83.622Z" fill="#D2B783"/>
<path d="M184.489 82.669C185.358 81.0611 186.417 81.4279 186.775 81.9104C186.799 81.9429 186.82 81.9827 186.84 82.028C186.527 81.9894 186.028 82.1163 185.641 82.4188C185.146 82.8031 185.054 84.1612 185.234 84.8115C185.414 85.463 186.615 87.6488 189.414 87.5067C192.212 87.3649 193.478 85.4093 193.638 83.8713C193.798 82.3345 192.957 81.8075 192.335 81.8412C191.907 81.8646 191.651 82.1025 191.533 82.2508C191.567 81.9305 191.619 81.6106 191.827 81.3828C192.364 80.7972 194.342 81.23 194.466 83.7644C194.604 86.6222 191.688 88.0031 190.342 88.1561C184.898 88.7775 183.621 84.2769 184.489 82.669Z" fill="#D2B783"/>
<path d="M187.13 78.3498C187.526 77.5638 188.876 77.5997 189.988 78.3552C190.167 78.4757 190.289 78.6958 190.372 78.9771C189.971 78.7197 189.256 78.4429 188.239 78.7338C187.72 78.8826 187.351 79.0002 187.088 79.0923C187.05 78.7622 187.056 78.4997 187.13 78.3498Z" fill="#D2B783"/>
<path d="M179.68 62.2036C179.68 62.2036 178.64 66.7341 183.374 70.2531C183.383 70.2592 183.394 70.267 183.402 70.2731C187.431 73.2292 197.223 72.4803 197.496 62.7152C192.206 64.1989 186.766 63.6926 183.314 63.0641C181.083 62.6581 179.68 62.2036 179.68 62.2036Z" fill="#DB0000"/>
<path d="M179.68 62.1926C179.68 62.1926 178.641 66.7227 183.374 70.2415C183.383 70.2475 183.394 70.2556 183.402 70.2617C182.509 67.4772 182.878 64.7429 183.314 63.053C181.084 62.647 179.68 62.1926 179.68 62.1926Z" fill="#C50007"/>
<path d="M179.679 62.2031C179.679 62.2031 181.049 69.4514 188.635 69.4761C195.773 69.4992 197.497 62.7148 197.497 62.7148L196.615 62.6894L180.515 62.227L179.679 62.2031Z" fill="#FF4840"/>
<path d="M180.514 62.2265C180.784 64.4591 183.109 68.8206 188.948 68.8857C194.441 68.9501 196.24 63.9823 196.614 62.6888L180.514 62.2265Z" fill="#E33F39"/>
<path d="M181.624 62.7955C181.32 63.6378 183.688 68.4845 188.555 68.4396C193.422 68.3947 195.899 63.6968 195.659 63.3117C195.557 63.1482 192.962 63.0253 190.029 62.9411C188.709 62.9015 187.322 62.8721 186.063 62.8473C183.758 62.8063 181.879 62.7895 181.624 62.7955Z" fill="#FF7B7B"/>
<path d="M189.936 63.7599C189.936 63.7599 191.449 64.2781 191.258 64.5318C190.858 65.0629 189.936 63.7599 189.936 63.7599Z" fill="#FAF7BE"/>
<path d="M189 64.4448C189 64.4448 190.137 65.4352 189.846 65.6062C189.237 65.9643 189 64.4448 189 64.4448Z" fill="#FAF7BE"/>
<path d="M186.005 63.639C186.005 63.639 184.565 64.343 184.784 64.5704C185.242 65.046 186.005 63.639 186.005 63.639Z" fill="#FAF7BE"/>
<path d="M187.014 64.2053C187.014 64.2053 186.002 65.3301 186.31 65.4631C186.955 65.7414 187.014 64.2053 187.014 64.2053Z" fill="#FAF7BE"/>
<path d="M187.952 64.5747C187.952 64.5747 187.562 65.9448 187.91 65.9562C188.639 65.9801 187.952 64.5747 187.952 64.5747Z" fill="#FAF7BE"/>
<path d="M186.062 62.8488C186.357 63.065 186.681 63.4246 186.821 63.821C187.359 63.8634 187.535 64.1452 187.587 64.0991C187.637 64.0507 187.899 63.906 188.4 64.148C188.483 64.0183 188.747 63.6653 189.457 63.8103C189.458 63.3608 189.749 63.0941 190.028 62.9422C188.708 62.9026 187.321 62.8736 186.062 62.8488Z" fill="#FAF7BE"/>
<path d="M209.299 54.3767C210.741 54.7908 212.236 56.9895 213.154 59.6799C213.659 61.1653 213.99 62.7993 214.039 64.3664C214.157 66.9144 212.738 69.6571 210.442 70.3364C209.142 70.7223 207.557 70.4442 205.812 69.0912C204.35 69.7365 202.488 69.3765 201.187 68.2933C199.908 67.2301 199.172 65.4698 199.893 63.2896C200.033 62.8635 200.192 62.4494 200.367 62.0518C202.756 56.6383 208.064 54.0217 209.299 54.3767Z" fill="#FF4840"/>
<path d="M209.293 54.3759C210.734 54.79 212.23 56.9889 213.148 59.6793C207.576 60.2969 202.49 63.0434 200.361 62.0512C202.75 56.6375 208.058 54.0208 209.293 54.3759Z" fill="#E33F39"/>
<path d="M205.966 67.2441C206.24 67.5153 206.777 66.3927 206.532 65.5546C206.106 66.1976 205.78 67.0603 205.966 67.2441Z" fill="#363C43"/>
<path d="M209.955 58.4465C210.265 58.6336 210.541 57.8237 210.175 56.8844C209.926 57.5619 209.746 58.3196 209.955 58.4465Z" fill="#363C43"/>
<path d="M207.688 59.6412C207.934 59.906 208.423 59.2032 208.33 58.1989C207.905 58.7824 207.522 59.4617 207.688 59.6412Z" fill="#363C43"/>
<path d="M206.462 62.5123C206.707 62.7773 207.196 62.0742 207.103 61.0699C206.678 61.6534 206.296 62.3328 206.462 62.5123Z" fill="#363C43"/>
<path d="M211.32 60.6104C211.659 60.7525 211.735 59.5727 211.22 58.9199C211.072 59.6376 211.09 60.5138 211.32 60.6104Z" fill="#363C43"/>
<path d="M206.728 57.3067C206.368 57.2341 206.976 56.2189 207.772 55.969C207.486 56.6441 206.972 57.3559 206.728 57.3067Z" fill="#363C43"/>
<path d="M204.298 58.9962C203.938 58.9235 204.547 57.9084 205.342 57.6585C205.056 58.3335 204.543 59.0454 204.298 58.9962Z" fill="#363C43"/>
<path d="M208.256 66.4706C208.596 66.6931 208.916 65.4233 208.488 64.6095C208.182 65.3614 208.026 66.3195 208.256 66.4706Z" fill="#363C43"/>
<path d="M204.248 65.7791C203.811 65.8029 204.209 64.454 205.05 63.9299C204.923 64.7912 204.544 65.7629 204.248 65.7791Z" fill="#363C43"/>
<path d="M201.927 66.7929C201.562 66.8128 201.894 65.6846 202.598 65.2459C202.491 65.9666 202.175 66.7794 201.927 66.7929Z" fill="#363C43"/>
<path d="M202.273 61.8377C201.856 61.7673 202.52 60.5777 203.426 60.2617C203.121 61.0483 202.556 61.8855 202.273 61.8377Z" fill="#363C43"/>
<path d="M201.429 64.5713C201.092 64.6256 201.5 63.5173 202.109 63.0423C202.082 63.7196 201.657 64.5346 201.429 64.5713Z" fill="#363C43"/>
<path d="M204.779 60.7831C204.407 60.7401 204.938 59.6601 205.722 59.3395C205.49 60.0474 205.031 60.8123 204.779 60.7831Z" fill="#363C43"/>
<path d="M209.865 68.6402C210.204 68.8636 210.528 67.5949 210.102 66.7801C209.794 67.5311 209.635 68.4887 209.865 68.6402Z" fill="#363C43"/>
<path d="M210.432 63.2806C210.662 63.3973 210.775 62.5762 210.449 62.0937C210.309 62.5881 210.277 63.2015 210.432 63.2806Z" fill="#363C43"/>
<path d="M203.978 62.8688C203.721 62.851 204.052 62.0903 204.582 61.8446C204.445 62.3396 204.153 62.8807 203.978 62.8688Z" fill="#363C43"/>
<path d="M212.53 63.8921C212.827 64.0432 212.974 62.9791 212.552 62.3538C212.37 62.9943 212.328 63.7894 212.53 63.8921Z" fill="#363C43"/>
<path d="M208.697 63.0683C208.968 63.3007 209.39 62.2286 209.109 61.4702C208.757 62.0922 208.513 62.9107 208.697 63.0683Z" fill="#363C43"/>
<path d="M211.479 67.0501C211.845 67.2435 212.049 65.9269 211.537 65.1428C211.298 65.9335 211.231 66.9188 211.479 67.0501Z" fill="#363C43"/>
<path d="M204.102 68.5399C203.994 68.427 203 67.3576 203.835 66.9092C204.715 66.4379 205.8 68.2368 205.8 68.2368C205.8 68.2368 208.217 67.0967 208.555 67.9625C208.88 68.7952 207.346 69.1248 207.231 69.1494C207.385 69.1424 210.249 69.0293 210.493 69.6655C210.495 69.6685 210.496 69.6711 210.497 69.6741C210.619 69.9983 210.406 70.3625 210.064 70.4261C208.841 70.6535 207.396 70.3071 205.821 69.0854C204.641 69.6063 203.2 69.4727 202.004 68.8323C201.48 68.552 201.691 67.745 202.286 67.746C203.151 67.7475 204.008 68.4609 204.102 68.5399Z" fill="#E33F39"/>
<path d="M200.029 72.4784C200.029 72.4784 198.429 74.2505 199.329 75.5099C200.229 76.7692 200.968 77.0027 202.112 76.8214C203.257 76.64 204.513 74.9226 203.709 73.531C202.906 72.1393 200.486 72.4058 200.029 72.4784Z" fill="#FFDF43"/>
<path d="M199.936 75.2169C200.46 76.2126 201.478 76.6596 202.548 76.2426C202.951 76.0859 202.73 75.454 202.325 75.6117C201.516 75.9265 200.881 75.5785 200.492 74.8399C200.292 74.4581 199.737 74.839 199.936 75.2169Z" fill="white"/>
<path d="M194.001 70.5448C194.001 70.5448 192.402 72.3169 193.301 73.5763C194.201 74.8356 194.941 75.0691 196.085 74.8878C197.229 74.7065 198.485 72.989 197.682 71.5974C196.879 70.2057 194.459 70.4722 194.001 70.5448Z" fill="#FFDF43"/>
<path d="M193.909 73.2833C194.432 74.2791 195.45 74.726 196.521 74.309C196.924 74.1524 196.703 73.5204 196.298 73.6781C195.489 73.9929 194.853 73.6449 194.465 72.9063C194.264 72.5245 193.71 72.9054 193.909 73.2833Z" fill="white"/>
<path d="M220.301 37.9812C220.784 35.8808 219.468 33.7959 217.364 33.3218C215.351 32.8682 213.343 34.0545 212.752 35.9984C212.726 36.0846 212.701 36.175 212.68 36.2644C212.197 38.3647 213.512 40.4521 215.615 40.9258C216.111 41.0374 216.607 41.0487 217.08 40.9756C218.618 40.7348 219.931 39.5866 220.301 37.9812Z" fill="#6F2960"/>
<path d="M220.3 37.9818C220.783 35.8812 219.468 33.796 217.363 33.3218C215.35 32.8683 213.342 34.0546 212.751 35.9988C212.978 36.6667 213.629 37.3359 214.406 37.0093C215.065 36.7314 215.247 35.901 215.711 35.3596C216.378 34.5819 217.666 34.5123 218.497 35.103C219.329 35.6937 219.692 36.8123 219.517 37.8179C219.342 38.8235 218.693 39.7075 217.873 40.3214C217.607 40.5227 217.319 40.7003 217.1 40.9521C217.094 40.9612 217.086 40.9675 217.08 40.9766C218.618 40.7357 219.931 39.5874 220.3 37.9818Z" fill="#4E1C44"/>
<path d="M218.193 36.6933C218.224 36.3639 218.058 36.0228 217.758 35.8656C217.45 35.7043 217.1 35.743 216.83 35.9574C216.573 36.1617 216.466 36.4938 216.548 36.8022C216.576 36.966 216.651 37.1226 216.774 37.2376C216.998 37.4482 217.317 37.5171 217.61 37.4208C217.926 37.3169 218.162 37.0215 218.193 36.6933Z" fill="#8F587E"/>
<path d="M217.724 39.104C217.502 39.054 217.307 38.8558 217.354 38.6114C217.395 38.3949 217.611 38.1867 217.849 38.2403C218.071 38.2903 218.266 38.4885 218.219 38.7329C218.178 38.9493 217.962 39.1576 217.724 39.104Z" fill="#8F587E"/>
<path d="M198.309 67.4082C198.456 65.9547 197.623 64.6401 196.565 63.5809C195.615 62.7069 194.259 61.8846 193.422 60.8823C191.842 58.8247 194.821 59.7534 195.81 60.4806C194.756 59.108 192.845 58.2996 191.698 56.9819C189.896 54.8664 193.415 55.5425 194.252 56.5442C193.392 55.9293 192.644 55.1857 191.784 54.5703C190.978 54.0478 188.983 53.9707 188.456 53.1339C187.181 51.1077 191.703 52.1946 192.544 52.8828C191.738 52.3604 187.268 48.8953 188.385 47.7637C189.941 46.1873 192.691 51.4299 193.012 52.298C192.659 50.9516 192.912 47.6488 194.597 50.2055C195.83 52.0942 195.369 54.4004 195.694 56.4465C195.927 55.5652 196.406 52.505 197.399 54.3339C198.095 55.6166 197.058 58.1347 196.596 59.5854C196.697 58.9049 197.784 57.2059 198.671 57.1219C199.965 56.9861 198.767 58.813 198.646 59.567C198.294 61.2022 198.255 62.8409 198.215 64.4795L198.309 67.4082Z" fill="#88D400"/>
<path d="M197.617 71.3516L197.618 71.3495C197.884 70.7504 198.088 70.118 198.224 69.4618C198.349 68.8014 198.407 68.1228 198.41 67.4379C198.402 66.0651 198.169 64.6775 197.791 63.327C197.418 61.9734 196.897 60.6548 196.3 59.3752C195.697 58.1011 195.01 56.8479 194.239 55.6873L194.234 55.678" stroke="#788F00" stroke-width="0.95" stroke-miterlimit="10"/>
<mask id="mask5_1998_2700" style="mask-type:luminance" maskUnits="userSpaceOnUse" x="-31" y="-164" width="304" height="280">
<path d="M181.207 115.879L-30.1181 -5.19724L61.5101 -163.544L272.835 -42.4677L181.207 115.879Z" fill="white"/>
</mask>
<g mask="url(#mask5_1998_2700)">
<mask id="mask6_1998_2700" style="mask-type:luminance" maskUnits="userSpaceOnUse" x="142" y="28" width="47" height="38">
<path d="M157.359 60.6971C169.322 67.5511 182.63 66.8684 187.083 59.1722C191.536 51.4759 185.449 39.6806 173.486 32.8266C161.524 25.9725 148.216 26.655 143.762 34.3513C139.309 42.0475 145.397 53.843 157.359 60.6971Z" fill="white"/>
</mask>
<g mask="url(#mask6_1998_2700)">
<path d="M169.998 55.2669C170.793 54.6882 170.969 53.578 170.391 52.7872C169.813 51.9964 168.7 51.825 167.905 52.4037C167.11 52.9823 166.934 54.0926 167.512 54.8834C168.09 55.6742 169.202 55.8456 169.998 55.2669Z" fill="#79CA33"/>
<g opacity="0.2">
<path d="M170.392 52.7873C169.814 51.9965 168.701 51.8251 167.906 52.4038C167.703 52.5517 167.541 52.7342 167.421 52.9373C167.872 52.8277 168.684 52.5799 169.113 53.8249C169.405 54.6699 168.843 55.4882 168.662 55.5864C169.115 55.6596 169.597 55.5591 169.998 55.2671C170.794 54.6884 170.969 53.5782 170.392 52.7873Z" fill="black"/>
</g>
<g opacity="0.3">
<path d="M168.019 53.7025C168.23 53.7043 168.398 53.9305 168.395 54.2075C168.392 54.4844 168.218 54.7075 168.007 54.7057C167.796 54.7039 167.627 54.4777 167.63 54.2007C167.634 53.9238 167.808 53.7007 168.019 53.7025Z" fill="white"/>
</g>
<path d="M168.189 51.849C168.984 51.2702 169.16 50.1601 168.582 49.3693C168.005 48.5785 166.892 48.4071 166.097 48.9857C165.302 49.5644 165.126 50.6747 165.703 51.4655C166.281 52.2563 167.394 52.4277 168.189 51.849Z" fill="#79CA33"/>
<g opacity="0.2">
<path d="M168.583 49.3694C168.006 48.5786 166.893 48.4072 166.098 48.9859C165.895 49.1338 165.732 49.3163 165.612 49.5194C166.064 49.4098 166.876 49.1618 167.305 50.407C167.596 51.2519 167.035 52.0703 166.854 52.1685C167.307 52.2417 167.789 52.1412 168.19 51.8492C168.985 51.2704 169.161 50.1602 168.583 49.3694Z" fill="black"/>
</g>
<g opacity="0.3">
<path d="M166.21 50.2845C166.421 50.2863 166.59 50.5125 166.586 50.7895C166.583 51.0664 166.409 51.2896 166.198 51.2877C165.987 51.2859 165.818 51.0596 165.822 50.7827C165.825 50.5058 165.999 50.2827 166.21 50.2845Z" fill="white"/>
</g>
<path d="M165.576 48.8704C166.371 48.2918 166.547 47.1815 165.969 46.3907C165.391 45.5999 164.278 45.4283 163.483 46.0071C162.688 46.5858 162.512 47.6963 163.09 48.4869C163.668 49.2777 164.781 49.4491 165.576 48.8704Z" fill="#79CA33"/>
<g opacity="0.2">
<path d="M165.97 46.3908C165.392 45.6 164.279 45.4284 163.484 46.0073C163.281 46.1552 163.119 46.3377 162.999 46.5408C163.45 46.4312 164.262 46.1832 164.692 47.4284C164.983 48.2734 164.421 49.0917 164.24 49.1899C164.694 49.2631 165.176 49.1626 165.577 48.8706C166.372 48.2919 166.548 47.1817 165.97 46.3908Z" fill="black"/>
</g>
<g opacity="0.3">
<path d="M163.597 47.306C163.808 47.308 163.977 47.5341 163.973 47.811C163.97 48.0879 163.796 48.311 163.585 48.3092C163.374 48.3074 163.205 48.0812 163.208 47.8042C163.212 47.5273 163.386 47.3042 163.597 47.306Z" fill="white"/>
</g>
<path d="M162.513 46.4994C163.308 45.9207 163.484 44.8104 162.907 44.0196C162.329 43.2288 161.216 43.0574 160.421 43.6361C159.626 44.2148 159.45 45.325 160.028 46.1158C160.605 46.9066 161.718 47.078 162.513 46.4994Z" fill="#79CA33"/>
<g opacity="0.2">
<path d="M162.907 44.0198C162.33 43.2289 161.217 43.0575 160.422 43.6362C160.219 43.7841 160.056 43.9666 159.936 44.1697C160.388 44.0601 161.2 43.8121 161.629 45.0573C161.92 45.9023 161.359 46.7206 161.178 46.8188C161.631 46.892 162.113 46.7915 162.514 46.4995C163.309 45.9208 163.485 44.8106 162.907 44.0198Z" fill="black"/>
</g>
<g opacity="0.3">
<path d="M160.534 44.9349C160.745 44.9367 160.914 45.163 160.911 45.4399C160.907 45.7168 160.733 45.9399 160.522 45.9381C160.311 45.9363 160.143 45.7101 160.146 45.4331C160.149 45.1562 160.324 44.9331 160.534 44.9349Z" fill="white"/>
</g>
<path d="M159.262 44.3762C159.923 43.8954 160.069 42.9734 159.589 42.3165C159.109 41.6596 158.185 41.5169 157.525 41.9978C156.864 42.4787 156.718 43.4007 157.198 44.0575C157.678 44.7144 158.602 44.8571 159.262 44.3762Z" fill="#79CA33"/>
<g opacity="0.2">
<path d="M159.588 42.3172C159.108 41.6603 158.184 41.5177 157.524 41.9986C157.355 42.1214 157.22 42.273 157.12 42.4418C157.495 42.351 158.17 42.145 158.527 43.1792C158.769 43.8814 158.302 44.5609 158.151 44.6422C158.528 44.7031 158.928 44.6197 159.261 44.377C159.922 43.8961 160.068 42.9741 159.588 42.3172Z" fill="black"/>
</g>
<g opacity="0.3">
<path d="M157.616 43.0778C157.792 43.0792 157.931 43.2669 157.929 43.4972C157.926 43.7274 157.781 43.9122 157.606 43.9108C157.431 43.9094 157.29 43.7216 157.293 43.4915C157.296 43.2613 157.441 43.0764 157.616 43.0778Z" fill="white"/>
</g>
<path d="M156.391 42.5423C157.052 42.0614 157.198 41.1394 156.718 40.4825C156.238 39.8256 155.314 39.6829 154.654 40.1638C153.993 40.6447 153.847 41.5667 154.327 42.2236C154.807 42.8804 155.731 43.0231 156.391 42.5423Z" fill="#79CA33"/>
<g opacity="0.2">
<path d="M156.717 40.4833C156.237 39.8264 155.313 39.6837 154.652 40.1646C154.484 40.2874 154.349 40.4391 154.249 40.6078C154.624 40.517 155.299 40.3111 155.655 41.3452C155.898 42.0474 155.431 42.7269 155.28 42.8083C155.657 42.8691 156.057 42.7857 156.39 42.543C157.051 42.0621 157.197 41.1402 156.717 40.4833Z" fill="black"/>
</g>
<g opacity="0.3">
<path d="M154.745 41.2439C154.92 41.2453 155.061 41.4331 155.058 41.6632C155.055 41.8934 154.91 42.0782 154.735 42.0768C154.56 42.0754 154.42 41.8878 154.422 41.6575C154.425 41.4274 154.57 41.2425 154.745 41.2439Z" fill="white"/>
</g>
<path d="M153.201 38.3828C153.201 38.3828 153.025 40.1642 156.232 41.4573C159.439 42.7504 166.823 46.542 169.346 53.9185C169.346 53.9185 169.891 55.1323 170.672 55.5107C170.672 55.5107 168.521 56.2955 168.605 57.8388C168.605 57.8388 170.041 56.2808 171.591 56.7389C171.591 56.7389 169.61 57.63 171.233 60.4259C171.233 60.4259 171.058 58.1338 173.016 57.1923C173.016 57.1923 174.495 58.7156 177.149 58.3726C177.149 58.3726 177.589 57.9926 177.214 57.4313C177.214 57.4313 175.277 57.877 173.715 56.5739C173.715 56.5739 174.907 56.6454 175.993 55.1232C175.993 55.1232 174.527 56.2081 173.26 55.5625C173.26 55.5625 172.511 54.44 174.634 53.7285C174.634 53.7285 173.252 52.8302 171.833 54.5628C171.833 54.5628 171.54 48.6145 167.029 43.4702C162.518 38.3258 159.131 40.5294 155.908 38.5635C153.383 37.0238 153.201 38.3828 153.201 38.3828Z" fill="#65B403"/>
<path d="M177.225 57.4411C177.225 57.4411 175.289 57.8866 173.727 56.584C173.727 56.584 174.919 56.6556 176.005 55.1339C176.005 55.1339 175.783 55.297 175.439 55.4592C175.384 55.6099 175.154 55.9483 174.166 56.1687C172.865 56.4591 173.336 56.5624 173.336 56.5624C173.336 56.5624 173.454 56.9583 174.719 57.5649C175.768 58.0674 176.977 57.8434 177.361 57.7519C177.341 57.6561 177.3 57.5526 177.225 57.4411Z" fill="black"/>
<path d="M173.722 55.74L173.745 55.7353C173.585 55.703 173.426 55.65 173.269 55.57C173.269 55.57 172.521 54.4491 174.641 53.7385C174.641 53.7385 174.614 53.7219 174.567 53.6974C173.46 53.658 172.802 54.3518 172.728 55.0291C172.649 55.7512 173.722 55.74 173.722 55.74Z" fill="black"/>
<g opacity="0.15">
<path d="M155.897 38.5654C153.372 37.0254 153.19 38.3848 153.19 38.3848C153.19 38.3848 153.18 38.4886 153.209 38.6632C153.839 37.5747 155.043 38.9745 156.945 39.7997C158.862 40.6318 158.517 40.1445 161.308 40.7566C164.098 41.3687 163.412 42.4118 165.817 43.6389C168.223 44.866 166.929 45.4881 168.815 47.3831C170.7 49.278 170.282 51.3265 170.282 51.3265C171.183 51.8972 171.558 52.8621 171.715 53.5918C171.428 51.6944 170.425 47.3565 167.021 43.4741C162.509 38.3281 159.121 40.5321 155.897 38.5654Z" fill="black"/>
</g>
</g>
</g>
<mask id="mask7_1998_2700" style="mask-type:luminance" maskUnits="userSpaceOnUse" x="110" y="2" width="170" height="158">
<path d="M228.465 159.467L110.123 91.6642L161.435 2.99007L279.777 70.7927L228.465 159.467Z" fill="white"/>
</mask>
<g mask="url(#mask7_1998_2700)">
<mask id="mask8_1998_2700" style="mask-type:luminance" maskUnits="userSpaceOnUse" x="227" y="55" width="24" height="41">
<path d="M235.208 95.6615L250.124 94.3752L249.852 81.2397L249.801 74.5243L249.842 66.2885L250.646 58.0962L243.162 55.3816L239.73 64.0345L238.118 72.9436L236.488 77.1224C236.488 77.1224 231.965 83.5773 231.157 84.2941C230.348 85.0108 227.66 88.9768 227.66 88.9768L235.208 95.6615Z" fill="white"/>
</mask>
<g mask="url(#mask8_1998_2700)">
<path d="M243.061 91.0565C243.061 91.0565 241.36 91.3069 239.992 88.8712C238.624 86.4353 243.972 81.8223 243.972 81.8223L243.061 91.0565Z" fill="#05893D"/>
<path d="M245.299 91.6531C245.299 91.6531 244.021 92.8165 242.31 93.3338C242.31 93.3338 243.857 87.4492 241.694 80.3158L243.856 77.103L246.216 89.2465L245.299 91.6531Z" fill="#026329"/>
<path d="M244.531 80.6528C244.531 80.6528 243.298 86.3633 240.19 89.5893C240.19 89.5893 239.146 89.9066 238.081 87.9503C237.016 85.9942 243.533 78.8096 243.533 78.8096L244.531 80.6528Z" fill="#01B05E"/>
<path d="M244.026 79.5089C244.026 79.5089 243.259 83.9118 237.957 89.4944C237.957 89.4944 236.887 89.8435 235.788 88.6287C234.69 87.4139 243.249 76.6441 243.249 76.6441L244.026 79.5089Z" fill="#6AC761"/>
<path d="M247.281 91.6476C247.435 91.3952 246.066 78.5566 245.609 76.4045C245.151 74.2523 245.435 71.3035 245.435 71.3035L242.475 72.5682C242.475 72.5682 242.015 75.1465 241.022 76.9384C240.029 78.7303 236.307 85.287 232.553 88.6239C232.553 88.6239 234.282 89.938 235.63 89.715C235.63 89.715 240.441 86.2369 243.382 78.3515C243.382 78.3515 245.777 87.3891 244.399 94.355C244.399 94.355 246.225 93.3853 247.281 91.6476Z" fill="#54AB4E"/>
<path d="M248.695 60.0839L243.217 59.8001C243.377 61.1476 243.967 68.2554 240.998 76.9407C240.998 76.9407 242.25 75.0404 242.755 72.6657C242.755 72.6657 242.9 74.6054 242.019 76.7135C242.019 76.7135 243.347 75.0437 243.481 72.4614C243.481 72.4614 243.758 75.7803 243.084 77.0743C243.084 77.0743 244.331 75.1148 244.342 72.4831C244.342 72.4831 244.089 75.8431 244.533 77.8189C244.533 77.8189 244.312 75.6486 245.105 72.3649C245.105 72.3649 244.871 75.1913 245.799 77.691C245.799 77.691 245.352 74.8878 245.815 71.1567C246.278 67.4255 248.307 62.8337 248.695 60.0839Z" fill="#C6DD7C"/>
<g opacity="0.15">
<path d="M245.946 93.2236C246.711 89.8843 245.814 81.7767 244.979 78.731C244.099 75.5189 244.367 70.7654 245.461 67.4797C246.418 64.6096 246.658 60.8815 246.704 59.9843L248.709 60.0881C248.321 62.8377 246.292 67.4291 245.83 71.1599C245.367 74.8908 245.814 77.6937 245.814 77.6937C245.813 77.6907 245.811 77.6875 245.81 77.6845C246.377 81.5946 247.406 91.4299 247.271 91.6505C246.889 92.2792 246.407 92.8057 245.946 93.2236Z" fill="black"/>
</g>
<g opacity="0.5">
<path d="M243.879 60.5863C243.879 60.5863 244.713 59.4603 245.09 60.9577C245.466 62.4551 243.794 68.2587 243.699 70.3507C243.605 72.4427 243.302 73.9285 242.809 73.2843C242.316 72.6402 243.59 69.5123 243.72 66.1777C243.851 62.8431 243.879 60.5863 243.879 60.5863Z" fill="#F4F6DF"/>
</g>
</g>
</g>
</g>
</g>
</g>
</g>
</g>
<path d="M145.037 66.2615C144.44 66.7003 144.196 66.9875 143.962 67.5837C143.812 69.2983 144.531 71.8017 144.531 71.8017C145.22 73.2851 148.526 78.0222 152.368 81.0563C153.807 82.0795 154.73 82.547 156.855 82.945C157.432 82.847 158.726 81.9882 159.004 81.497C159.554 80.4503 159.726 79.7569 158.941 77.6567C156.12 71.8661 154.136 69.0181 148.197 66.3245C147.803 65.9527 145.844 65.8838 145.037 66.2615Z" fill="#D9D9D9"/>
</g>
<defs>
<clipPath id="clip0_1998_2700">
<rect width="257" height="192" fill="white" transform="translate(86.5 19)"/>
</clipPath>
</defs>
</svg>
